G04 #@! TF.GenerationSoftware,KiCad,Pcbnew,5.1.4+dfsg1-1*
G04 #@! TF.CreationDate,2019-10-01T15:37:08+02:00*
G04 #@! TF.ProjectId,joystick-pcb,6a6f7973-7469-4636-9b2d-7063622e6b69,1*
G04 #@! TF.SameCoordinates,Original*
G04 #@! TF.FileFunction,Copper,L1,Top*
G04 #@! TF.FilePolarity,Positive*
%FSLAX46Y46*%
G04 Gerber Fmt 4.6, Leading zero omitted, Abs format (unit mm)*
G04 Created by KiCad (PCBNEW 5.1.4+dfsg1-1) date 2019-10-01 15:37:08*
%MOMM*%
%LPD*%
G04 APERTURE LIST*
%ADD10C,2.600000*%
%ADD11R,2.600000X2.600000*%
%ADD12R,1.650000X2.850000*%
%ADD13C,0.550000*%
%ADD14C,0.100000*%
%ADD15R,5.800000X6.400000*%
%ADD16R,1.200000X2.200000*%
%ADD17C,1.000000*%
%ADD18R,2.200000X1.840000*%
%ADD19R,1.000000X1.500000*%
%ADD20R,1.000000X1.800000*%
%ADD21C,0.850000*%
%ADD22C,2.000000*%
%ADD23C,0.950000*%
%ADD24R,0.800000X0.900000*%
%ADD25R,0.900000X0.800000*%
%ADD26C,1.150000*%
%ADD27O,1.700000X1.700000*%
%ADD28R,1.700000X1.700000*%
%ADD29O,1.727200X1.727200*%
%ADD30R,1.727200X1.727200*%
%ADD31C,1.425000*%
%ADD32C,1.200000*%
%ADD33C,0.800000*%
%ADD34C,2.400000*%
%ADD35C,0.400000*%
%ADD36C,1.200000*%
%ADD37C,1.000000*%
%ADD38C,0.550000*%
%ADD39C,0.300000*%
G04 APERTURE END LIST*
D10*
X136144000Y-88646000D03*
D11*
X136144000Y-93726000D03*
D12*
X151285000Y-83019000D03*
X151285000Y-87669000D03*
X148435000Y-87669000D03*
X148435000Y-83019000D03*
D13*
X161045305Y-80358897D03*
D14*
G36*
X160674074Y-81119037D02*
G01*
X160285165Y-80730128D01*
X161416536Y-79598757D01*
X161805445Y-79987666D01*
X160674074Y-81119037D01*
X160674074Y-81119037D01*
G37*
D13*
X161610990Y-80924583D03*
D14*
G36*
X161239759Y-81684723D02*
G01*
X160850850Y-81295814D01*
X161982221Y-80164443D01*
X162371130Y-80553352D01*
X161239759Y-81684723D01*
X161239759Y-81684723D01*
G37*
D13*
X162176676Y-81490268D03*
D14*
G36*
X161805445Y-82250408D02*
G01*
X161416536Y-81861499D01*
X162547907Y-80730128D01*
X162936816Y-81119037D01*
X161805445Y-82250408D01*
X161805445Y-82250408D01*
G37*
D13*
X162742361Y-82055953D03*
D14*
G36*
X162371130Y-82816093D02*
G01*
X161982221Y-82427184D01*
X163113592Y-81295813D01*
X163502501Y-81684722D01*
X162371130Y-82816093D01*
X162371130Y-82816093D01*
G37*
D13*
X163308047Y-82621639D03*
D14*
G36*
X162936816Y-83381779D02*
G01*
X162547907Y-82992870D01*
X163679278Y-81861499D01*
X164068187Y-82250408D01*
X162936816Y-83381779D01*
X162936816Y-83381779D01*
G37*
D13*
X163873732Y-83187324D03*
D14*
G36*
X163502501Y-83947464D02*
G01*
X163113592Y-83558555D01*
X164244963Y-82427184D01*
X164633872Y-82816093D01*
X163502501Y-83947464D01*
X163502501Y-83947464D01*
G37*
D13*
X164439417Y-83753010D03*
D14*
G36*
X164068186Y-84513150D02*
G01*
X163679277Y-84124241D01*
X164810648Y-82992870D01*
X165199557Y-83381779D01*
X164068186Y-84513150D01*
X164068186Y-84513150D01*
G37*
D13*
X165005103Y-84318695D03*
D14*
G36*
X164633872Y-85078835D02*
G01*
X164244963Y-84689926D01*
X165376334Y-83558555D01*
X165765243Y-83947464D01*
X164633872Y-85078835D01*
X164633872Y-85078835D01*
G37*
D13*
X165005103Y-86369305D03*
D14*
G36*
X164244963Y-85998074D02*
G01*
X164633872Y-85609165D01*
X165765243Y-86740536D01*
X165376334Y-87129445D01*
X164244963Y-85998074D01*
X164244963Y-85998074D01*
G37*
D13*
X164439417Y-86934990D03*
D14*
G36*
X163679277Y-86563759D02*
G01*
X164068186Y-86174850D01*
X165199557Y-87306221D01*
X164810648Y-87695130D01*
X163679277Y-86563759D01*
X163679277Y-86563759D01*
G37*
D13*
X163873732Y-87500676D03*
D14*
G36*
X163113592Y-87129445D02*
G01*
X163502501Y-86740536D01*
X164633872Y-87871907D01*
X164244963Y-88260816D01*
X163113592Y-87129445D01*
X163113592Y-87129445D01*
G37*
D13*
X163308047Y-88066361D03*
D14*
G36*
X162547907Y-87695130D02*
G01*
X162936816Y-87306221D01*
X164068187Y-88437592D01*
X163679278Y-88826501D01*
X162547907Y-87695130D01*
X162547907Y-87695130D01*
G37*
D13*
X162742361Y-88632047D03*
D14*
G36*
X161982221Y-88260816D02*
G01*
X162371130Y-87871907D01*
X163502501Y-89003278D01*
X163113592Y-89392187D01*
X161982221Y-88260816D01*
X161982221Y-88260816D01*
G37*
D13*
X162176676Y-89197732D03*
D14*
G36*
X161416536Y-88826501D02*
G01*
X161805445Y-88437592D01*
X162936816Y-89568963D01*
X162547907Y-89957872D01*
X161416536Y-88826501D01*
X161416536Y-88826501D01*
G37*
D13*
X161610990Y-89763417D03*
D14*
G36*
X160850850Y-89392186D02*
G01*
X161239759Y-89003277D01*
X162371130Y-90134648D01*
X161982221Y-90523557D01*
X160850850Y-89392186D01*
X160850850Y-89392186D01*
G37*
D13*
X161045305Y-90329103D03*
D14*
G36*
X160285165Y-89957872D02*
G01*
X160674074Y-89568963D01*
X161805445Y-90700334D01*
X161416536Y-91089243D01*
X160285165Y-89957872D01*
X160285165Y-89957872D01*
G37*
D13*
X158994695Y-90329103D03*
D14*
G36*
X158623464Y-91089243D02*
G01*
X158234555Y-90700334D01*
X159365926Y-89568963D01*
X159754835Y-89957872D01*
X158623464Y-91089243D01*
X158623464Y-91089243D01*
G37*
D13*
X158429010Y-89763417D03*
D14*
G36*
X158057779Y-90523557D02*
G01*
X157668870Y-90134648D01*
X158800241Y-89003277D01*
X159189150Y-89392186D01*
X158057779Y-90523557D01*
X158057779Y-90523557D01*
G37*
D13*
X157863324Y-89197732D03*
D14*
G36*
X157492093Y-89957872D02*
G01*
X157103184Y-89568963D01*
X158234555Y-88437592D01*
X158623464Y-88826501D01*
X157492093Y-89957872D01*
X157492093Y-89957872D01*
G37*
D13*
X157297639Y-88632047D03*
D14*
G36*
X156926408Y-89392187D02*
G01*
X156537499Y-89003278D01*
X157668870Y-87871907D01*
X158057779Y-88260816D01*
X156926408Y-89392187D01*
X156926408Y-89392187D01*
G37*
D13*
X156731953Y-88066361D03*
D14*
G36*
X156360722Y-88826501D02*
G01*
X155971813Y-88437592D01*
X157103184Y-87306221D01*
X157492093Y-87695130D01*
X156360722Y-88826501D01*
X156360722Y-88826501D01*
G37*
D13*
X156166268Y-87500676D03*
D14*
G36*
X155795037Y-88260816D02*
G01*
X155406128Y-87871907D01*
X156537499Y-86740536D01*
X156926408Y-87129445D01*
X155795037Y-88260816D01*
X155795037Y-88260816D01*
G37*
D13*
X155600583Y-86934990D03*
D14*
G36*
X155229352Y-87695130D02*
G01*
X154840443Y-87306221D01*
X155971814Y-86174850D01*
X156360723Y-86563759D01*
X155229352Y-87695130D01*
X155229352Y-87695130D01*
G37*
D13*
X155034897Y-86369305D03*
D14*
G36*
X154663666Y-87129445D02*
G01*
X154274757Y-86740536D01*
X155406128Y-85609165D01*
X155795037Y-85998074D01*
X154663666Y-87129445D01*
X154663666Y-87129445D01*
G37*
D13*
X155034897Y-84318695D03*
D14*
G36*
X154274757Y-83947464D02*
G01*
X154663666Y-83558555D01*
X155795037Y-84689926D01*
X155406128Y-85078835D01*
X154274757Y-83947464D01*
X154274757Y-83947464D01*
G37*
D13*
X155600583Y-83753010D03*
D14*
G36*
X154840443Y-83381779D02*
G01*
X155229352Y-82992870D01*
X156360723Y-84124241D01*
X155971814Y-84513150D01*
X154840443Y-83381779D01*
X154840443Y-83381779D01*
G37*
D13*
X156166268Y-83187324D03*
D14*
G36*
X155406128Y-82816093D02*
G01*
X155795037Y-82427184D01*
X156926408Y-83558555D01*
X156537499Y-83947464D01*
X155406128Y-82816093D01*
X155406128Y-82816093D01*
G37*
D13*
X156731953Y-82621639D03*
D14*
G36*
X155971813Y-82250408D02*
G01*
X156360722Y-81861499D01*
X157492093Y-82992870D01*
X157103184Y-83381779D01*
X155971813Y-82250408D01*
X155971813Y-82250408D01*
G37*
D13*
X157297639Y-82055953D03*
D14*
G36*
X156537499Y-81684722D02*
G01*
X156926408Y-81295813D01*
X158057779Y-82427184D01*
X157668870Y-82816093D01*
X156537499Y-81684722D01*
X156537499Y-81684722D01*
G37*
D13*
X157863324Y-81490268D03*
D14*
G36*
X157103184Y-81119037D02*
G01*
X157492093Y-80730128D01*
X158623464Y-81861499D01*
X158234555Y-82250408D01*
X157103184Y-81119037D01*
X157103184Y-81119037D01*
G37*
D13*
X158429010Y-80924583D03*
D14*
G36*
X157668870Y-80553352D02*
G01*
X158057779Y-80164443D01*
X159189150Y-81295814D01*
X158800241Y-81684723D01*
X157668870Y-80553352D01*
X157668870Y-80553352D01*
G37*
D13*
X158994695Y-80358897D03*
D14*
G36*
X158234555Y-79987666D02*
G01*
X158623464Y-79598757D01*
X159754835Y-80730128D01*
X159365926Y-81119037D01*
X158234555Y-79987666D01*
X158234555Y-79987666D01*
G37*
D15*
X138430000Y-69528000D03*
D16*
X140710000Y-75828000D03*
X136150000Y-75828000D03*
D17*
X146304000Y-63423800D03*
D14*
G36*
X145204000Y-63923800D02*
G01*
X145904000Y-62923800D01*
X146704000Y-62923800D01*
X147404000Y-63923800D01*
X145204000Y-63923800D01*
X145204000Y-63923800D01*
G37*
D18*
X146304000Y-64833500D03*
D19*
X144804000Y-62020000D03*
D20*
X146304000Y-62166500D03*
D19*
X147804000Y-62020000D03*
D21*
X146304000Y-66167000D03*
D14*
G36*
X147404000Y-65742000D02*
G01*
X146804000Y-66592000D01*
X145804000Y-66592000D01*
X145204000Y-65742000D01*
X147404000Y-65742000D01*
X147404000Y-65742000D01*
G37*
D22*
X144018000Y-104902000D03*
X152146000Y-72898000D03*
X158750000Y-74295000D03*
X140716000Y-81280000D03*
X147828000Y-56388000D03*
D14*
G36*
X148279779Y-74456144D02*
G01*
X148302834Y-74459563D01*
X148325443Y-74465227D01*
X148347387Y-74473079D01*
X148368457Y-74483044D01*
X148388448Y-74495026D01*
X148407168Y-74508910D01*
X148424438Y-74524562D01*
X148440090Y-74541832D01*
X148453974Y-74560552D01*
X148465956Y-74580543D01*
X148475921Y-74601613D01*
X148483773Y-74623557D01*
X148489437Y-74646166D01*
X148492856Y-74669221D01*
X148494000Y-74692500D01*
X148494000Y-75167500D01*
X148492856Y-75190779D01*
X148489437Y-75213834D01*
X148483773Y-75236443D01*
X148475921Y-75258387D01*
X148465956Y-75279457D01*
X148453974Y-75299448D01*
X148440090Y-75318168D01*
X148424438Y-75335438D01*
X148407168Y-75351090D01*
X148388448Y-75364974D01*
X148368457Y-75376956D01*
X148347387Y-75386921D01*
X148325443Y-75394773D01*
X148302834Y-75400437D01*
X148279779Y-75403856D01*
X148256500Y-75405000D01*
X147681500Y-75405000D01*
X147658221Y-75403856D01*
X147635166Y-75400437D01*
X147612557Y-75394773D01*
X147590613Y-75386921D01*
X147569543Y-75376956D01*
X147549552Y-75364974D01*
X147530832Y-75351090D01*
X147513562Y-75335438D01*
X147497910Y-75318168D01*
X147484026Y-75299448D01*
X147472044Y-75279457D01*
X147462079Y-75258387D01*
X147454227Y-75236443D01*
X147448563Y-75213834D01*
X147445144Y-75190779D01*
X147444000Y-75167500D01*
X147444000Y-74692500D01*
X147445144Y-74669221D01*
X147448563Y-74646166D01*
X147454227Y-74623557D01*
X147462079Y-74601613D01*
X147472044Y-74580543D01*
X147484026Y-74560552D01*
X147497910Y-74541832D01*
X147513562Y-74524562D01*
X147530832Y-74508910D01*
X147549552Y-74495026D01*
X147569543Y-74483044D01*
X147590613Y-74473079D01*
X147612557Y-74465227D01*
X147635166Y-74459563D01*
X147658221Y-74456144D01*
X147681500Y-74455000D01*
X148256500Y-74455000D01*
X148279779Y-74456144D01*
X148279779Y-74456144D01*
G37*
D23*
X147969000Y-74930000D03*
D14*
G36*
X150029779Y-74456144D02*
G01*
X150052834Y-74459563D01*
X150075443Y-74465227D01*
X150097387Y-74473079D01*
X150118457Y-74483044D01*
X150138448Y-74495026D01*
X150157168Y-74508910D01*
X150174438Y-74524562D01*
X150190090Y-74541832D01*
X150203974Y-74560552D01*
X150215956Y-74580543D01*
X150225921Y-74601613D01*
X150233773Y-74623557D01*
X150239437Y-74646166D01*
X150242856Y-74669221D01*
X150244000Y-74692500D01*
X150244000Y-75167500D01*
X150242856Y-75190779D01*
X150239437Y-75213834D01*
X150233773Y-75236443D01*
X150225921Y-75258387D01*
X150215956Y-75279457D01*
X150203974Y-75299448D01*
X150190090Y-75318168D01*
X150174438Y-75335438D01*
X150157168Y-75351090D01*
X150138448Y-75364974D01*
X150118457Y-75376956D01*
X150097387Y-75386921D01*
X150075443Y-75394773D01*
X150052834Y-75400437D01*
X150029779Y-75403856D01*
X150006500Y-75405000D01*
X149431500Y-75405000D01*
X149408221Y-75403856D01*
X149385166Y-75400437D01*
X149362557Y-75394773D01*
X149340613Y-75386921D01*
X149319543Y-75376956D01*
X149299552Y-75364974D01*
X149280832Y-75351090D01*
X149263562Y-75335438D01*
X149247910Y-75318168D01*
X149234026Y-75299448D01*
X149222044Y-75279457D01*
X149212079Y-75258387D01*
X149204227Y-75236443D01*
X149198563Y-75213834D01*
X149195144Y-75190779D01*
X149194000Y-75167500D01*
X149194000Y-74692500D01*
X149195144Y-74669221D01*
X149198563Y-74646166D01*
X149204227Y-74623557D01*
X149212079Y-74601613D01*
X149222044Y-74580543D01*
X149234026Y-74560552D01*
X149247910Y-74541832D01*
X149263562Y-74524562D01*
X149280832Y-74508910D01*
X149299552Y-74495026D01*
X149319543Y-74483044D01*
X149340613Y-74473079D01*
X149362557Y-74465227D01*
X149385166Y-74459563D01*
X149408221Y-74456144D01*
X149431500Y-74455000D01*
X150006500Y-74455000D01*
X150029779Y-74456144D01*
X150029779Y-74456144D01*
G37*
D23*
X149719000Y-74930000D03*
D14*
G36*
X166376779Y-74660144D02*
G01*
X166399834Y-74663563D01*
X166422443Y-74669227D01*
X166444387Y-74677079D01*
X166465457Y-74687044D01*
X166485448Y-74699026D01*
X166504168Y-74712910D01*
X166521438Y-74728562D01*
X166537090Y-74745832D01*
X166550974Y-74764552D01*
X166562956Y-74784543D01*
X166572921Y-74805613D01*
X166580773Y-74827557D01*
X166586437Y-74850166D01*
X166589856Y-74873221D01*
X166591000Y-74896500D01*
X166591000Y-75471500D01*
X166589856Y-75494779D01*
X166586437Y-75517834D01*
X166580773Y-75540443D01*
X166572921Y-75562387D01*
X166562956Y-75583457D01*
X166550974Y-75603448D01*
X166537090Y-75622168D01*
X166521438Y-75639438D01*
X166504168Y-75655090D01*
X166485448Y-75668974D01*
X166465457Y-75680956D01*
X166444387Y-75690921D01*
X166422443Y-75698773D01*
X166399834Y-75704437D01*
X166376779Y-75707856D01*
X166353500Y-75709000D01*
X165878500Y-75709000D01*
X165855221Y-75707856D01*
X165832166Y-75704437D01*
X165809557Y-75698773D01*
X165787613Y-75690921D01*
X165766543Y-75680956D01*
X165746552Y-75668974D01*
X165727832Y-75655090D01*
X165710562Y-75639438D01*
X165694910Y-75622168D01*
X165681026Y-75603448D01*
X165669044Y-75583457D01*
X165659079Y-75562387D01*
X165651227Y-75540443D01*
X165645563Y-75517834D01*
X165642144Y-75494779D01*
X165641000Y-75471500D01*
X165641000Y-74896500D01*
X165642144Y-74873221D01*
X165645563Y-74850166D01*
X165651227Y-74827557D01*
X165659079Y-74805613D01*
X165669044Y-74784543D01*
X165681026Y-74764552D01*
X165694910Y-74745832D01*
X165710562Y-74728562D01*
X165727832Y-74712910D01*
X165746552Y-74699026D01*
X165766543Y-74687044D01*
X165787613Y-74677079D01*
X165809557Y-74669227D01*
X165832166Y-74663563D01*
X165855221Y-74660144D01*
X165878500Y-74659000D01*
X166353500Y-74659000D01*
X166376779Y-74660144D01*
X166376779Y-74660144D01*
G37*
D23*
X166116000Y-75184000D03*
D14*
G36*
X166376779Y-72910144D02*
G01*
X166399834Y-72913563D01*
X166422443Y-72919227D01*
X166444387Y-72927079D01*
X166465457Y-72937044D01*
X166485448Y-72949026D01*
X166504168Y-72962910D01*
X166521438Y-72978562D01*
X166537090Y-72995832D01*
X166550974Y-73014552D01*
X166562956Y-73034543D01*
X166572921Y-73055613D01*
X166580773Y-73077557D01*
X166586437Y-73100166D01*
X166589856Y-73123221D01*
X166591000Y-73146500D01*
X166591000Y-73721500D01*
X166589856Y-73744779D01*
X166586437Y-73767834D01*
X166580773Y-73790443D01*
X166572921Y-73812387D01*
X166562956Y-73833457D01*
X166550974Y-73853448D01*
X166537090Y-73872168D01*
X166521438Y-73889438D01*
X166504168Y-73905090D01*
X166485448Y-73918974D01*
X166465457Y-73930956D01*
X166444387Y-73940921D01*
X166422443Y-73948773D01*
X166399834Y-73954437D01*
X166376779Y-73957856D01*
X166353500Y-73959000D01*
X165878500Y-73959000D01*
X165855221Y-73957856D01*
X165832166Y-73954437D01*
X165809557Y-73948773D01*
X165787613Y-73940921D01*
X165766543Y-73930956D01*
X165746552Y-73918974D01*
X165727832Y-73905090D01*
X165710562Y-73889438D01*
X165694910Y-73872168D01*
X165681026Y-73853448D01*
X165669044Y-73833457D01*
X165659079Y-73812387D01*
X165651227Y-73790443D01*
X165645563Y-73767834D01*
X165642144Y-73744779D01*
X165641000Y-73721500D01*
X165641000Y-73146500D01*
X165642144Y-73123221D01*
X165645563Y-73100166D01*
X165651227Y-73077557D01*
X165659079Y-73055613D01*
X165669044Y-73034543D01*
X165681026Y-73014552D01*
X165694910Y-72995832D01*
X165710562Y-72978562D01*
X165727832Y-72962910D01*
X165746552Y-72949026D01*
X165766543Y-72937044D01*
X165787613Y-72927079D01*
X165809557Y-72919227D01*
X165832166Y-72913563D01*
X165855221Y-72910144D01*
X165878500Y-72909000D01*
X166353500Y-72909000D01*
X166376779Y-72910144D01*
X166376779Y-72910144D01*
G37*
D23*
X166116000Y-73434000D03*
D14*
G36*
X150904779Y-69376144D02*
G01*
X150927834Y-69379563D01*
X150950443Y-69385227D01*
X150972387Y-69393079D01*
X150993457Y-69403044D01*
X151013448Y-69415026D01*
X151032168Y-69428910D01*
X151049438Y-69444562D01*
X151065090Y-69461832D01*
X151078974Y-69480552D01*
X151090956Y-69500543D01*
X151100921Y-69521613D01*
X151108773Y-69543557D01*
X151114437Y-69566166D01*
X151117856Y-69589221D01*
X151119000Y-69612500D01*
X151119000Y-70087500D01*
X151117856Y-70110779D01*
X151114437Y-70133834D01*
X151108773Y-70156443D01*
X151100921Y-70178387D01*
X151090956Y-70199457D01*
X151078974Y-70219448D01*
X151065090Y-70238168D01*
X151049438Y-70255438D01*
X151032168Y-70271090D01*
X151013448Y-70284974D01*
X150993457Y-70296956D01*
X150972387Y-70306921D01*
X150950443Y-70314773D01*
X150927834Y-70320437D01*
X150904779Y-70323856D01*
X150881500Y-70325000D01*
X150306500Y-70325000D01*
X150283221Y-70323856D01*
X150260166Y-70320437D01*
X150237557Y-70314773D01*
X150215613Y-70306921D01*
X150194543Y-70296956D01*
X150174552Y-70284974D01*
X150155832Y-70271090D01*
X150138562Y-70255438D01*
X150122910Y-70238168D01*
X150109026Y-70219448D01*
X150097044Y-70199457D01*
X150087079Y-70178387D01*
X150079227Y-70156443D01*
X150073563Y-70133834D01*
X150070144Y-70110779D01*
X150069000Y-70087500D01*
X150069000Y-69612500D01*
X150070144Y-69589221D01*
X150073563Y-69566166D01*
X150079227Y-69543557D01*
X150087079Y-69521613D01*
X150097044Y-69500543D01*
X150109026Y-69480552D01*
X150122910Y-69461832D01*
X150138562Y-69444562D01*
X150155832Y-69428910D01*
X150174552Y-69415026D01*
X150194543Y-69403044D01*
X150215613Y-69393079D01*
X150237557Y-69385227D01*
X150260166Y-69379563D01*
X150283221Y-69376144D01*
X150306500Y-69375000D01*
X150881500Y-69375000D01*
X150904779Y-69376144D01*
X150904779Y-69376144D01*
G37*
D23*
X150594000Y-69850000D03*
D14*
G36*
X149154779Y-69376144D02*
G01*
X149177834Y-69379563D01*
X149200443Y-69385227D01*
X149222387Y-69393079D01*
X149243457Y-69403044D01*
X149263448Y-69415026D01*
X149282168Y-69428910D01*
X149299438Y-69444562D01*
X149315090Y-69461832D01*
X149328974Y-69480552D01*
X149340956Y-69500543D01*
X149350921Y-69521613D01*
X149358773Y-69543557D01*
X149364437Y-69566166D01*
X149367856Y-69589221D01*
X149369000Y-69612500D01*
X149369000Y-70087500D01*
X149367856Y-70110779D01*
X149364437Y-70133834D01*
X149358773Y-70156443D01*
X149350921Y-70178387D01*
X149340956Y-70199457D01*
X149328974Y-70219448D01*
X149315090Y-70238168D01*
X149299438Y-70255438D01*
X149282168Y-70271090D01*
X149263448Y-70284974D01*
X149243457Y-70296956D01*
X149222387Y-70306921D01*
X149200443Y-70314773D01*
X149177834Y-70320437D01*
X149154779Y-70323856D01*
X149131500Y-70325000D01*
X148556500Y-70325000D01*
X148533221Y-70323856D01*
X148510166Y-70320437D01*
X148487557Y-70314773D01*
X148465613Y-70306921D01*
X148444543Y-70296956D01*
X148424552Y-70284974D01*
X148405832Y-70271090D01*
X148388562Y-70255438D01*
X148372910Y-70238168D01*
X148359026Y-70219448D01*
X148347044Y-70199457D01*
X148337079Y-70178387D01*
X148329227Y-70156443D01*
X148323563Y-70133834D01*
X148320144Y-70110779D01*
X148319000Y-70087500D01*
X148319000Y-69612500D01*
X148320144Y-69589221D01*
X148323563Y-69566166D01*
X148329227Y-69543557D01*
X148337079Y-69521613D01*
X148347044Y-69500543D01*
X148359026Y-69480552D01*
X148372910Y-69461832D01*
X148388562Y-69444562D01*
X148405832Y-69428910D01*
X148424552Y-69415026D01*
X148444543Y-69403044D01*
X148465613Y-69393079D01*
X148487557Y-69385227D01*
X148510166Y-69379563D01*
X148533221Y-69376144D01*
X148556500Y-69375000D01*
X149131500Y-69375000D01*
X149154779Y-69376144D01*
X149154779Y-69376144D01*
G37*
D23*
X148844000Y-69850000D03*
D14*
G36*
X161296779Y-72120144D02*
G01*
X161319834Y-72123563D01*
X161342443Y-72129227D01*
X161364387Y-72137079D01*
X161385457Y-72147044D01*
X161405448Y-72159026D01*
X161424168Y-72172910D01*
X161441438Y-72188562D01*
X161457090Y-72205832D01*
X161470974Y-72224552D01*
X161482956Y-72244543D01*
X161492921Y-72265613D01*
X161500773Y-72287557D01*
X161506437Y-72310166D01*
X161509856Y-72333221D01*
X161511000Y-72356500D01*
X161511000Y-72931500D01*
X161509856Y-72954779D01*
X161506437Y-72977834D01*
X161500773Y-73000443D01*
X161492921Y-73022387D01*
X161482956Y-73043457D01*
X161470974Y-73063448D01*
X161457090Y-73082168D01*
X161441438Y-73099438D01*
X161424168Y-73115090D01*
X161405448Y-73128974D01*
X161385457Y-73140956D01*
X161364387Y-73150921D01*
X161342443Y-73158773D01*
X161319834Y-73164437D01*
X161296779Y-73167856D01*
X161273500Y-73169000D01*
X160798500Y-73169000D01*
X160775221Y-73167856D01*
X160752166Y-73164437D01*
X160729557Y-73158773D01*
X160707613Y-73150921D01*
X160686543Y-73140956D01*
X160666552Y-73128974D01*
X160647832Y-73115090D01*
X160630562Y-73099438D01*
X160614910Y-73082168D01*
X160601026Y-73063448D01*
X160589044Y-73043457D01*
X160579079Y-73022387D01*
X160571227Y-73000443D01*
X160565563Y-72977834D01*
X160562144Y-72954779D01*
X160561000Y-72931500D01*
X160561000Y-72356500D01*
X160562144Y-72333221D01*
X160565563Y-72310166D01*
X160571227Y-72287557D01*
X160579079Y-72265613D01*
X160589044Y-72244543D01*
X160601026Y-72224552D01*
X160614910Y-72205832D01*
X160630562Y-72188562D01*
X160647832Y-72172910D01*
X160666552Y-72159026D01*
X160686543Y-72147044D01*
X160707613Y-72137079D01*
X160729557Y-72129227D01*
X160752166Y-72123563D01*
X160775221Y-72120144D01*
X160798500Y-72119000D01*
X161273500Y-72119000D01*
X161296779Y-72120144D01*
X161296779Y-72120144D01*
G37*
D23*
X161036000Y-72644000D03*
D14*
G36*
X161296779Y-73870144D02*
G01*
X161319834Y-73873563D01*
X161342443Y-73879227D01*
X161364387Y-73887079D01*
X161385457Y-73897044D01*
X161405448Y-73909026D01*
X161424168Y-73922910D01*
X161441438Y-73938562D01*
X161457090Y-73955832D01*
X161470974Y-73974552D01*
X161482956Y-73994543D01*
X161492921Y-74015613D01*
X161500773Y-74037557D01*
X161506437Y-74060166D01*
X161509856Y-74083221D01*
X161511000Y-74106500D01*
X161511000Y-74681500D01*
X161509856Y-74704779D01*
X161506437Y-74727834D01*
X161500773Y-74750443D01*
X161492921Y-74772387D01*
X161482956Y-74793457D01*
X161470974Y-74813448D01*
X161457090Y-74832168D01*
X161441438Y-74849438D01*
X161424168Y-74865090D01*
X161405448Y-74878974D01*
X161385457Y-74890956D01*
X161364387Y-74900921D01*
X161342443Y-74908773D01*
X161319834Y-74914437D01*
X161296779Y-74917856D01*
X161273500Y-74919000D01*
X160798500Y-74919000D01*
X160775221Y-74917856D01*
X160752166Y-74914437D01*
X160729557Y-74908773D01*
X160707613Y-74900921D01*
X160686543Y-74890956D01*
X160666552Y-74878974D01*
X160647832Y-74865090D01*
X160630562Y-74849438D01*
X160614910Y-74832168D01*
X160601026Y-74813448D01*
X160589044Y-74793457D01*
X160579079Y-74772387D01*
X160571227Y-74750443D01*
X160565563Y-74727834D01*
X160562144Y-74704779D01*
X160561000Y-74681500D01*
X160561000Y-74106500D01*
X160562144Y-74083221D01*
X160565563Y-74060166D01*
X160571227Y-74037557D01*
X160579079Y-74015613D01*
X160589044Y-73994543D01*
X160601026Y-73974552D01*
X160614910Y-73955832D01*
X160630562Y-73938562D01*
X160647832Y-73922910D01*
X160666552Y-73909026D01*
X160686543Y-73897044D01*
X160707613Y-73887079D01*
X160729557Y-73879227D01*
X160752166Y-73873563D01*
X160775221Y-73870144D01*
X160798500Y-73869000D01*
X161273500Y-73869000D01*
X161296779Y-73870144D01*
X161296779Y-73870144D01*
G37*
D23*
X161036000Y-74394000D03*
D14*
G36*
X151395416Y-93991131D02*
G01*
X151418471Y-93994550D01*
X151441080Y-94000214D01*
X151463024Y-94008066D01*
X151484094Y-94018031D01*
X151504085Y-94030013D01*
X151522805Y-94043897D01*
X151540075Y-94059549D01*
X151875951Y-94395425D01*
X151891603Y-94412695D01*
X151905487Y-94431415D01*
X151917469Y-94451406D01*
X151927434Y-94472476D01*
X151935286Y-94494420D01*
X151940950Y-94517029D01*
X151944369Y-94540084D01*
X151945513Y-94563363D01*
X151944369Y-94586642D01*
X151940950Y-94609697D01*
X151935286Y-94632306D01*
X151927434Y-94654250D01*
X151917469Y-94675320D01*
X151905487Y-94695311D01*
X151891603Y-94714031D01*
X151875951Y-94731301D01*
X151469365Y-95137887D01*
X151452095Y-95153539D01*
X151433375Y-95167423D01*
X151413384Y-95179405D01*
X151392314Y-95189370D01*
X151370370Y-95197222D01*
X151347761Y-95202886D01*
X151324706Y-95206305D01*
X151301427Y-95207449D01*
X151278148Y-95206305D01*
X151255093Y-95202886D01*
X151232484Y-95197222D01*
X151210540Y-95189370D01*
X151189470Y-95179405D01*
X151169479Y-95167423D01*
X151150759Y-95153539D01*
X151133489Y-95137887D01*
X150797613Y-94802011D01*
X150781961Y-94784741D01*
X150768077Y-94766021D01*
X150756095Y-94746030D01*
X150746130Y-94724960D01*
X150738278Y-94703016D01*
X150732614Y-94680407D01*
X150729195Y-94657352D01*
X150728051Y-94634073D01*
X150729195Y-94610794D01*
X150732614Y-94587739D01*
X150738278Y-94565130D01*
X150746130Y-94543186D01*
X150756095Y-94522116D01*
X150768077Y-94502125D01*
X150781961Y-94483405D01*
X150797613Y-94466135D01*
X151204199Y-94059549D01*
X151221469Y-94043897D01*
X151240189Y-94030013D01*
X151260180Y-94018031D01*
X151281250Y-94008066D01*
X151303194Y-94000214D01*
X151325803Y-93994550D01*
X151348858Y-93991131D01*
X151372137Y-93989987D01*
X151395416Y-93991131D01*
X151395416Y-93991131D01*
G37*
D23*
X151336782Y-94598718D03*
D14*
G36*
X152632852Y-92753695D02*
G01*
X152655907Y-92757114D01*
X152678516Y-92762778D01*
X152700460Y-92770630D01*
X152721530Y-92780595D01*
X152741521Y-92792577D01*
X152760241Y-92806461D01*
X152777511Y-92822113D01*
X153113387Y-93157989D01*
X153129039Y-93175259D01*
X153142923Y-93193979D01*
X153154905Y-93213970D01*
X153164870Y-93235040D01*
X153172722Y-93256984D01*
X153178386Y-93279593D01*
X153181805Y-93302648D01*
X153182949Y-93325927D01*
X153181805Y-93349206D01*
X153178386Y-93372261D01*
X153172722Y-93394870D01*
X153164870Y-93416814D01*
X153154905Y-93437884D01*
X153142923Y-93457875D01*
X153129039Y-93476595D01*
X153113387Y-93493865D01*
X152706801Y-93900451D01*
X152689531Y-93916103D01*
X152670811Y-93929987D01*
X152650820Y-93941969D01*
X152629750Y-93951934D01*
X152607806Y-93959786D01*
X152585197Y-93965450D01*
X152562142Y-93968869D01*
X152538863Y-93970013D01*
X152515584Y-93968869D01*
X152492529Y-93965450D01*
X152469920Y-93959786D01*
X152447976Y-93951934D01*
X152426906Y-93941969D01*
X152406915Y-93929987D01*
X152388195Y-93916103D01*
X152370925Y-93900451D01*
X152035049Y-93564575D01*
X152019397Y-93547305D01*
X152005513Y-93528585D01*
X151993531Y-93508594D01*
X151983566Y-93487524D01*
X151975714Y-93465580D01*
X151970050Y-93442971D01*
X151966631Y-93419916D01*
X151965487Y-93396637D01*
X151966631Y-93373358D01*
X151970050Y-93350303D01*
X151975714Y-93327694D01*
X151983566Y-93305750D01*
X151993531Y-93284680D01*
X152005513Y-93264689D01*
X152019397Y-93245969D01*
X152035049Y-93228699D01*
X152441635Y-92822113D01*
X152458905Y-92806461D01*
X152477625Y-92792577D01*
X152497616Y-92780595D01*
X152518686Y-92770630D01*
X152540630Y-92762778D01*
X152563239Y-92757114D01*
X152586294Y-92753695D01*
X152609573Y-92752551D01*
X152632852Y-92753695D01*
X152632852Y-92753695D01*
G37*
D23*
X152574218Y-93361282D03*
D14*
G36*
X153282279Y-95728644D02*
G01*
X153305334Y-95732063D01*
X153327943Y-95737727D01*
X153349887Y-95745579D01*
X153370957Y-95755544D01*
X153390948Y-95767526D01*
X153409668Y-95781410D01*
X153426938Y-95797062D01*
X153442590Y-95814332D01*
X153456474Y-95833052D01*
X153468456Y-95853043D01*
X153478421Y-95874113D01*
X153486273Y-95896057D01*
X153491937Y-95918666D01*
X153495356Y-95941721D01*
X153496500Y-95965000D01*
X153496500Y-96440000D01*
X153495356Y-96463279D01*
X153491937Y-96486334D01*
X153486273Y-96508943D01*
X153478421Y-96530887D01*
X153468456Y-96551957D01*
X153456474Y-96571948D01*
X153442590Y-96590668D01*
X153426938Y-96607938D01*
X153409668Y-96623590D01*
X153390948Y-96637474D01*
X153370957Y-96649456D01*
X153349887Y-96659421D01*
X153327943Y-96667273D01*
X153305334Y-96672937D01*
X153282279Y-96676356D01*
X153259000Y-96677500D01*
X152684000Y-96677500D01*
X152660721Y-96676356D01*
X152637666Y-96672937D01*
X152615057Y-96667273D01*
X152593113Y-96659421D01*
X152572043Y-96649456D01*
X152552052Y-96637474D01*
X152533332Y-96623590D01*
X152516062Y-96607938D01*
X152500410Y-96590668D01*
X152486526Y-96571948D01*
X152474544Y-96551957D01*
X152464579Y-96530887D01*
X152456727Y-96508943D01*
X152451063Y-96486334D01*
X152447644Y-96463279D01*
X152446500Y-96440000D01*
X152446500Y-95965000D01*
X152447644Y-95941721D01*
X152451063Y-95918666D01*
X152456727Y-95896057D01*
X152464579Y-95874113D01*
X152474544Y-95853043D01*
X152486526Y-95833052D01*
X152500410Y-95814332D01*
X152516062Y-95797062D01*
X152533332Y-95781410D01*
X152552052Y-95767526D01*
X152572043Y-95755544D01*
X152593113Y-95745579D01*
X152615057Y-95737727D01*
X152637666Y-95732063D01*
X152660721Y-95728644D01*
X152684000Y-95727500D01*
X153259000Y-95727500D01*
X153282279Y-95728644D01*
X153282279Y-95728644D01*
G37*
D23*
X152971500Y-96202500D03*
D14*
G36*
X155032279Y-95728644D02*
G01*
X155055334Y-95732063D01*
X155077943Y-95737727D01*
X155099887Y-95745579D01*
X155120957Y-95755544D01*
X155140948Y-95767526D01*
X155159668Y-95781410D01*
X155176938Y-95797062D01*
X155192590Y-95814332D01*
X155206474Y-95833052D01*
X155218456Y-95853043D01*
X155228421Y-95874113D01*
X155236273Y-95896057D01*
X155241937Y-95918666D01*
X155245356Y-95941721D01*
X155246500Y-95965000D01*
X155246500Y-96440000D01*
X155245356Y-96463279D01*
X155241937Y-96486334D01*
X155236273Y-96508943D01*
X155228421Y-96530887D01*
X155218456Y-96551957D01*
X155206474Y-96571948D01*
X155192590Y-96590668D01*
X155176938Y-96607938D01*
X155159668Y-96623590D01*
X155140948Y-96637474D01*
X155120957Y-96649456D01*
X155099887Y-96659421D01*
X155077943Y-96667273D01*
X155055334Y-96672937D01*
X155032279Y-96676356D01*
X155009000Y-96677500D01*
X154434000Y-96677500D01*
X154410721Y-96676356D01*
X154387666Y-96672937D01*
X154365057Y-96667273D01*
X154343113Y-96659421D01*
X154322043Y-96649456D01*
X154302052Y-96637474D01*
X154283332Y-96623590D01*
X154266062Y-96607938D01*
X154250410Y-96590668D01*
X154236526Y-96571948D01*
X154224544Y-96551957D01*
X154214579Y-96530887D01*
X154206727Y-96508943D01*
X154201063Y-96486334D01*
X154197644Y-96463279D01*
X154196500Y-96440000D01*
X154196500Y-95965000D01*
X154197644Y-95941721D01*
X154201063Y-95918666D01*
X154206727Y-95896057D01*
X154214579Y-95874113D01*
X154224544Y-95853043D01*
X154236526Y-95833052D01*
X154250410Y-95814332D01*
X154266062Y-95797062D01*
X154283332Y-95781410D01*
X154302052Y-95767526D01*
X154322043Y-95755544D01*
X154343113Y-95745579D01*
X154365057Y-95737727D01*
X154387666Y-95732063D01*
X154410721Y-95728644D01*
X154434000Y-95727500D01*
X155009000Y-95727500D01*
X155032279Y-95728644D01*
X155032279Y-95728644D01*
G37*
D23*
X154721500Y-96202500D03*
D14*
G36*
X181569779Y-66582144D02*
G01*
X181592834Y-66585563D01*
X181615443Y-66591227D01*
X181637387Y-66599079D01*
X181658457Y-66609044D01*
X181678448Y-66621026D01*
X181697168Y-66634910D01*
X181714438Y-66650562D01*
X181730090Y-66667832D01*
X181743974Y-66686552D01*
X181755956Y-66706543D01*
X181765921Y-66727613D01*
X181773773Y-66749557D01*
X181779437Y-66772166D01*
X181782856Y-66795221D01*
X181784000Y-66818500D01*
X181784000Y-67293500D01*
X181782856Y-67316779D01*
X181779437Y-67339834D01*
X181773773Y-67362443D01*
X181765921Y-67384387D01*
X181755956Y-67405457D01*
X181743974Y-67425448D01*
X181730090Y-67444168D01*
X181714438Y-67461438D01*
X181697168Y-67477090D01*
X181678448Y-67490974D01*
X181658457Y-67502956D01*
X181637387Y-67512921D01*
X181615443Y-67520773D01*
X181592834Y-67526437D01*
X181569779Y-67529856D01*
X181546500Y-67531000D01*
X180971500Y-67531000D01*
X180948221Y-67529856D01*
X180925166Y-67526437D01*
X180902557Y-67520773D01*
X180880613Y-67512921D01*
X180859543Y-67502956D01*
X180839552Y-67490974D01*
X180820832Y-67477090D01*
X180803562Y-67461438D01*
X180787910Y-67444168D01*
X180774026Y-67425448D01*
X180762044Y-67405457D01*
X180752079Y-67384387D01*
X180744227Y-67362443D01*
X180738563Y-67339834D01*
X180735144Y-67316779D01*
X180734000Y-67293500D01*
X180734000Y-66818500D01*
X180735144Y-66795221D01*
X180738563Y-66772166D01*
X180744227Y-66749557D01*
X180752079Y-66727613D01*
X180762044Y-66706543D01*
X180774026Y-66686552D01*
X180787910Y-66667832D01*
X180803562Y-66650562D01*
X180820832Y-66634910D01*
X180839552Y-66621026D01*
X180859543Y-66609044D01*
X180880613Y-66599079D01*
X180902557Y-66591227D01*
X180925166Y-66585563D01*
X180948221Y-66582144D01*
X180971500Y-66581000D01*
X181546500Y-66581000D01*
X181569779Y-66582144D01*
X181569779Y-66582144D01*
G37*
D23*
X181259000Y-67056000D03*
D14*
G36*
X183319779Y-66582144D02*
G01*
X183342834Y-66585563D01*
X183365443Y-66591227D01*
X183387387Y-66599079D01*
X183408457Y-66609044D01*
X183428448Y-66621026D01*
X183447168Y-66634910D01*
X183464438Y-66650562D01*
X183480090Y-66667832D01*
X183493974Y-66686552D01*
X183505956Y-66706543D01*
X183515921Y-66727613D01*
X183523773Y-66749557D01*
X183529437Y-66772166D01*
X183532856Y-66795221D01*
X183534000Y-66818500D01*
X183534000Y-67293500D01*
X183532856Y-67316779D01*
X183529437Y-67339834D01*
X183523773Y-67362443D01*
X183515921Y-67384387D01*
X183505956Y-67405457D01*
X183493974Y-67425448D01*
X183480090Y-67444168D01*
X183464438Y-67461438D01*
X183447168Y-67477090D01*
X183428448Y-67490974D01*
X183408457Y-67502956D01*
X183387387Y-67512921D01*
X183365443Y-67520773D01*
X183342834Y-67526437D01*
X183319779Y-67529856D01*
X183296500Y-67531000D01*
X182721500Y-67531000D01*
X182698221Y-67529856D01*
X182675166Y-67526437D01*
X182652557Y-67520773D01*
X182630613Y-67512921D01*
X182609543Y-67502956D01*
X182589552Y-67490974D01*
X182570832Y-67477090D01*
X182553562Y-67461438D01*
X182537910Y-67444168D01*
X182524026Y-67425448D01*
X182512044Y-67405457D01*
X182502079Y-67384387D01*
X182494227Y-67362443D01*
X182488563Y-67339834D01*
X182485144Y-67316779D01*
X182484000Y-67293500D01*
X182484000Y-66818500D01*
X182485144Y-66795221D01*
X182488563Y-66772166D01*
X182494227Y-66749557D01*
X182502079Y-66727613D01*
X182512044Y-66706543D01*
X182524026Y-66686552D01*
X182537910Y-66667832D01*
X182553562Y-66650562D01*
X182570832Y-66634910D01*
X182589552Y-66621026D01*
X182609543Y-66609044D01*
X182630613Y-66599079D01*
X182652557Y-66591227D01*
X182675166Y-66585563D01*
X182698221Y-66582144D01*
X182721500Y-66581000D01*
X183296500Y-66581000D01*
X183319779Y-66582144D01*
X183319779Y-66582144D01*
G37*
D23*
X183009000Y-67056000D03*
D14*
G36*
X181569779Y-79536144D02*
G01*
X181592834Y-79539563D01*
X181615443Y-79545227D01*
X181637387Y-79553079D01*
X181658457Y-79563044D01*
X181678448Y-79575026D01*
X181697168Y-79588910D01*
X181714438Y-79604562D01*
X181730090Y-79621832D01*
X181743974Y-79640552D01*
X181755956Y-79660543D01*
X181765921Y-79681613D01*
X181773773Y-79703557D01*
X181779437Y-79726166D01*
X181782856Y-79749221D01*
X181784000Y-79772500D01*
X181784000Y-80247500D01*
X181782856Y-80270779D01*
X181779437Y-80293834D01*
X181773773Y-80316443D01*
X181765921Y-80338387D01*
X181755956Y-80359457D01*
X181743974Y-80379448D01*
X181730090Y-80398168D01*
X181714438Y-80415438D01*
X181697168Y-80431090D01*
X181678448Y-80444974D01*
X181658457Y-80456956D01*
X181637387Y-80466921D01*
X181615443Y-80474773D01*
X181592834Y-80480437D01*
X181569779Y-80483856D01*
X181546500Y-80485000D01*
X180971500Y-80485000D01*
X180948221Y-80483856D01*
X180925166Y-80480437D01*
X180902557Y-80474773D01*
X180880613Y-80466921D01*
X180859543Y-80456956D01*
X180839552Y-80444974D01*
X180820832Y-80431090D01*
X180803562Y-80415438D01*
X180787910Y-80398168D01*
X180774026Y-80379448D01*
X180762044Y-80359457D01*
X180752079Y-80338387D01*
X180744227Y-80316443D01*
X180738563Y-80293834D01*
X180735144Y-80270779D01*
X180734000Y-80247500D01*
X180734000Y-79772500D01*
X180735144Y-79749221D01*
X180738563Y-79726166D01*
X180744227Y-79703557D01*
X180752079Y-79681613D01*
X180762044Y-79660543D01*
X180774026Y-79640552D01*
X180787910Y-79621832D01*
X180803562Y-79604562D01*
X180820832Y-79588910D01*
X180839552Y-79575026D01*
X180859543Y-79563044D01*
X180880613Y-79553079D01*
X180902557Y-79545227D01*
X180925166Y-79539563D01*
X180948221Y-79536144D01*
X180971500Y-79535000D01*
X181546500Y-79535000D01*
X181569779Y-79536144D01*
X181569779Y-79536144D01*
G37*
D23*
X181259000Y-80010000D03*
D14*
G36*
X183319779Y-79536144D02*
G01*
X183342834Y-79539563D01*
X183365443Y-79545227D01*
X183387387Y-79553079D01*
X183408457Y-79563044D01*
X183428448Y-79575026D01*
X183447168Y-79588910D01*
X183464438Y-79604562D01*
X183480090Y-79621832D01*
X183493974Y-79640552D01*
X183505956Y-79660543D01*
X183515921Y-79681613D01*
X183523773Y-79703557D01*
X183529437Y-79726166D01*
X183532856Y-79749221D01*
X183534000Y-79772500D01*
X183534000Y-80247500D01*
X183532856Y-80270779D01*
X183529437Y-80293834D01*
X183523773Y-80316443D01*
X183515921Y-80338387D01*
X183505956Y-80359457D01*
X183493974Y-80379448D01*
X183480090Y-80398168D01*
X183464438Y-80415438D01*
X183447168Y-80431090D01*
X183428448Y-80444974D01*
X183408457Y-80456956D01*
X183387387Y-80466921D01*
X183365443Y-80474773D01*
X183342834Y-80480437D01*
X183319779Y-80483856D01*
X183296500Y-80485000D01*
X182721500Y-80485000D01*
X182698221Y-80483856D01*
X182675166Y-80480437D01*
X182652557Y-80474773D01*
X182630613Y-80466921D01*
X182609543Y-80456956D01*
X182589552Y-80444974D01*
X182570832Y-80431090D01*
X182553562Y-80415438D01*
X182537910Y-80398168D01*
X182524026Y-80379448D01*
X182512044Y-80359457D01*
X182502079Y-80338387D01*
X182494227Y-80316443D01*
X182488563Y-80293834D01*
X182485144Y-80270779D01*
X182484000Y-80247500D01*
X182484000Y-79772500D01*
X182485144Y-79749221D01*
X182488563Y-79726166D01*
X182494227Y-79703557D01*
X182502079Y-79681613D01*
X182512044Y-79660543D01*
X182524026Y-79640552D01*
X182537910Y-79621832D01*
X182553562Y-79604562D01*
X182570832Y-79588910D01*
X182589552Y-79575026D01*
X182609543Y-79563044D01*
X182630613Y-79553079D01*
X182652557Y-79545227D01*
X182675166Y-79539563D01*
X182698221Y-79536144D01*
X182721500Y-79535000D01*
X183296500Y-79535000D01*
X183319779Y-79536144D01*
X183319779Y-79536144D01*
G37*
D23*
X183009000Y-80010000D03*
D14*
G36*
X181710779Y-92490144D02*
G01*
X181733834Y-92493563D01*
X181756443Y-92499227D01*
X181778387Y-92507079D01*
X181799457Y-92517044D01*
X181819448Y-92529026D01*
X181838168Y-92542910D01*
X181855438Y-92558562D01*
X181871090Y-92575832D01*
X181884974Y-92594552D01*
X181896956Y-92614543D01*
X181906921Y-92635613D01*
X181914773Y-92657557D01*
X181920437Y-92680166D01*
X181923856Y-92703221D01*
X181925000Y-92726500D01*
X181925000Y-93201500D01*
X181923856Y-93224779D01*
X181920437Y-93247834D01*
X181914773Y-93270443D01*
X181906921Y-93292387D01*
X181896956Y-93313457D01*
X181884974Y-93333448D01*
X181871090Y-93352168D01*
X181855438Y-93369438D01*
X181838168Y-93385090D01*
X181819448Y-93398974D01*
X181799457Y-93410956D01*
X181778387Y-93420921D01*
X181756443Y-93428773D01*
X181733834Y-93434437D01*
X181710779Y-93437856D01*
X181687500Y-93439000D01*
X181112500Y-93439000D01*
X181089221Y-93437856D01*
X181066166Y-93434437D01*
X181043557Y-93428773D01*
X181021613Y-93420921D01*
X181000543Y-93410956D01*
X180980552Y-93398974D01*
X180961832Y-93385090D01*
X180944562Y-93369438D01*
X180928910Y-93352168D01*
X180915026Y-93333448D01*
X180903044Y-93313457D01*
X180893079Y-93292387D01*
X180885227Y-93270443D01*
X180879563Y-93247834D01*
X180876144Y-93224779D01*
X180875000Y-93201500D01*
X180875000Y-92726500D01*
X180876144Y-92703221D01*
X180879563Y-92680166D01*
X180885227Y-92657557D01*
X180893079Y-92635613D01*
X180903044Y-92614543D01*
X180915026Y-92594552D01*
X180928910Y-92575832D01*
X180944562Y-92558562D01*
X180961832Y-92542910D01*
X180980552Y-92529026D01*
X181000543Y-92517044D01*
X181021613Y-92507079D01*
X181043557Y-92499227D01*
X181066166Y-92493563D01*
X181089221Y-92490144D01*
X181112500Y-92489000D01*
X181687500Y-92489000D01*
X181710779Y-92490144D01*
X181710779Y-92490144D01*
G37*
D23*
X181400000Y-92964000D03*
D14*
G36*
X183460779Y-92490144D02*
G01*
X183483834Y-92493563D01*
X183506443Y-92499227D01*
X183528387Y-92507079D01*
X183549457Y-92517044D01*
X183569448Y-92529026D01*
X183588168Y-92542910D01*
X183605438Y-92558562D01*
X183621090Y-92575832D01*
X183634974Y-92594552D01*
X183646956Y-92614543D01*
X183656921Y-92635613D01*
X183664773Y-92657557D01*
X183670437Y-92680166D01*
X183673856Y-92703221D01*
X183675000Y-92726500D01*
X183675000Y-93201500D01*
X183673856Y-93224779D01*
X183670437Y-93247834D01*
X183664773Y-93270443D01*
X183656921Y-93292387D01*
X183646956Y-93313457D01*
X183634974Y-93333448D01*
X183621090Y-93352168D01*
X183605438Y-93369438D01*
X183588168Y-93385090D01*
X183569448Y-93398974D01*
X183549457Y-93410956D01*
X183528387Y-93420921D01*
X183506443Y-93428773D01*
X183483834Y-93434437D01*
X183460779Y-93437856D01*
X183437500Y-93439000D01*
X182862500Y-93439000D01*
X182839221Y-93437856D01*
X182816166Y-93434437D01*
X182793557Y-93428773D01*
X182771613Y-93420921D01*
X182750543Y-93410956D01*
X182730552Y-93398974D01*
X182711832Y-93385090D01*
X182694562Y-93369438D01*
X182678910Y-93352168D01*
X182665026Y-93333448D01*
X182653044Y-93313457D01*
X182643079Y-93292387D01*
X182635227Y-93270443D01*
X182629563Y-93247834D01*
X182626144Y-93224779D01*
X182625000Y-93201500D01*
X182625000Y-92726500D01*
X182626144Y-92703221D01*
X182629563Y-92680166D01*
X182635227Y-92657557D01*
X182643079Y-92635613D01*
X182653044Y-92614543D01*
X182665026Y-92594552D01*
X182678910Y-92575832D01*
X182694562Y-92558562D01*
X182711832Y-92542910D01*
X182730552Y-92529026D01*
X182750543Y-92517044D01*
X182771613Y-92507079D01*
X182793557Y-92499227D01*
X182816166Y-92493563D01*
X182839221Y-92490144D01*
X182862500Y-92489000D01*
X183437500Y-92489000D01*
X183460779Y-92490144D01*
X183460779Y-92490144D01*
G37*
D23*
X183150000Y-92964000D03*
D24*
X148844000Y-71390000D03*
X149794000Y-73390000D03*
X147894000Y-73390000D03*
D25*
X162576000Y-74422000D03*
X164576000Y-73472000D03*
X164576000Y-75372000D03*
D14*
G36*
X163220900Y-90680412D02*
G01*
X163245168Y-90684012D01*
X163268967Y-90689973D01*
X163292066Y-90698238D01*
X163314245Y-90708728D01*
X163335288Y-90721340D01*
X163354994Y-90735955D01*
X163373172Y-90752431D01*
X164009569Y-91388828D01*
X164026045Y-91407006D01*
X164040660Y-91426712D01*
X164053272Y-91447755D01*
X164063762Y-91469934D01*
X164072027Y-91493033D01*
X164077988Y-91516832D01*
X164081588Y-91541100D01*
X164082792Y-91565604D01*
X164081588Y-91590108D01*
X164077988Y-91614376D01*
X164072027Y-91638175D01*
X164063762Y-91661274D01*
X164053272Y-91683453D01*
X164040660Y-91704496D01*
X164026045Y-91724202D01*
X164009569Y-91742380D01*
X163549948Y-92202001D01*
X163531770Y-92218477D01*
X163512064Y-92233092D01*
X163491021Y-92245704D01*
X163468842Y-92256194D01*
X163445743Y-92264459D01*
X163421944Y-92270420D01*
X163397676Y-92274020D01*
X163373172Y-92275224D01*
X163348668Y-92274020D01*
X163324400Y-92270420D01*
X163300601Y-92264459D01*
X163277502Y-92256194D01*
X163255323Y-92245704D01*
X163234280Y-92233092D01*
X163214574Y-92218477D01*
X163196396Y-92202001D01*
X162559999Y-91565604D01*
X162543523Y-91547426D01*
X162528908Y-91527720D01*
X162516296Y-91506677D01*
X162505806Y-91484498D01*
X162497541Y-91461399D01*
X162491580Y-91437600D01*
X162487980Y-91413332D01*
X162486776Y-91388828D01*
X162487980Y-91364324D01*
X162491580Y-91340056D01*
X162497541Y-91316257D01*
X162505806Y-91293158D01*
X162516296Y-91270979D01*
X162528908Y-91249936D01*
X162543523Y-91230230D01*
X162559999Y-91212052D01*
X163019620Y-90752431D01*
X163037798Y-90735955D01*
X163057504Y-90721340D01*
X163078547Y-90708728D01*
X163100726Y-90698238D01*
X163123825Y-90689973D01*
X163147624Y-90684012D01*
X163171892Y-90680412D01*
X163196396Y-90679208D01*
X163220900Y-90680412D01*
X163220900Y-90680412D01*
G37*
D26*
X163284784Y-91477216D03*
D14*
G36*
X161771332Y-92129980D02*
G01*
X161795600Y-92133580D01*
X161819399Y-92139541D01*
X161842498Y-92147806D01*
X161864677Y-92158296D01*
X161885720Y-92170908D01*
X161905426Y-92185523D01*
X161923604Y-92201999D01*
X162560001Y-92838396D01*
X162576477Y-92856574D01*
X162591092Y-92876280D01*
X162603704Y-92897323D01*
X162614194Y-92919502D01*
X162622459Y-92942601D01*
X162628420Y-92966400D01*
X162632020Y-92990668D01*
X162633224Y-93015172D01*
X162632020Y-93039676D01*
X162628420Y-93063944D01*
X162622459Y-93087743D01*
X162614194Y-93110842D01*
X162603704Y-93133021D01*
X162591092Y-93154064D01*
X162576477Y-93173770D01*
X162560001Y-93191948D01*
X162100380Y-93651569D01*
X162082202Y-93668045D01*
X162062496Y-93682660D01*
X162041453Y-93695272D01*
X162019274Y-93705762D01*
X161996175Y-93714027D01*
X161972376Y-93719988D01*
X161948108Y-93723588D01*
X161923604Y-93724792D01*
X161899100Y-93723588D01*
X161874832Y-93719988D01*
X161851033Y-93714027D01*
X161827934Y-93705762D01*
X161805755Y-93695272D01*
X161784712Y-93682660D01*
X161765006Y-93668045D01*
X161746828Y-93651569D01*
X161110431Y-93015172D01*
X161093955Y-92996994D01*
X161079340Y-92977288D01*
X161066728Y-92956245D01*
X161056238Y-92934066D01*
X161047973Y-92910967D01*
X161042012Y-92887168D01*
X161038412Y-92862900D01*
X161037208Y-92838396D01*
X161038412Y-92813892D01*
X161042012Y-92789624D01*
X161047973Y-92765825D01*
X161056238Y-92742726D01*
X161066728Y-92720547D01*
X161079340Y-92699504D01*
X161093955Y-92679798D01*
X161110431Y-92661620D01*
X161570052Y-92201999D01*
X161588230Y-92185523D01*
X161607936Y-92170908D01*
X161628979Y-92158296D01*
X161651158Y-92147806D01*
X161674257Y-92139541D01*
X161698056Y-92133580D01*
X161722324Y-92129980D01*
X161746828Y-92128776D01*
X161771332Y-92129980D01*
X161771332Y-92129980D01*
G37*
D26*
X161835216Y-92926784D03*
D27*
X166370000Y-69596000D03*
X163830000Y-69596000D03*
X161290000Y-69596000D03*
X158750000Y-69596000D03*
X156210000Y-69596000D03*
D28*
X153670000Y-69596000D03*
D27*
X186452000Y-64516000D03*
X186452000Y-67056000D03*
D28*
X186452000Y-69596000D03*
D27*
X186452000Y-77470000D03*
X186452000Y-80010000D03*
D28*
X186452000Y-82550000D03*
D27*
X186452000Y-90424000D03*
X186452000Y-92964000D03*
D28*
X186452000Y-95504000D03*
D29*
X157480000Y-106172000D03*
X157480000Y-103632000D03*
X160020000Y-106172000D03*
X160020000Y-103632000D03*
X162560000Y-106172000D03*
D30*
X162560000Y-103632000D03*
D14*
G36*
X153871048Y-91140264D02*
G01*
X153895316Y-91143864D01*
X153919115Y-91149825D01*
X153942214Y-91158090D01*
X153964393Y-91168580D01*
X153985436Y-91181192D01*
X154005142Y-91195807D01*
X154023320Y-91212283D01*
X154659717Y-91848680D01*
X154676193Y-91866858D01*
X154690808Y-91886564D01*
X154703420Y-91907607D01*
X154713910Y-91929786D01*
X154722175Y-91952885D01*
X154728136Y-91976684D01*
X154731736Y-92000952D01*
X154732940Y-92025456D01*
X154731736Y-92049960D01*
X154728136Y-92074228D01*
X154722175Y-92098027D01*
X154713910Y-92121126D01*
X154703420Y-92143305D01*
X154690808Y-92164348D01*
X154676193Y-92184054D01*
X154659717Y-92202232D01*
X154200096Y-92661853D01*
X154181918Y-92678329D01*
X154162212Y-92692944D01*
X154141169Y-92705556D01*
X154118990Y-92716046D01*
X154095891Y-92724311D01*
X154072092Y-92730272D01*
X154047824Y-92733872D01*
X154023320Y-92735076D01*
X153998816Y-92733872D01*
X153974548Y-92730272D01*
X153950749Y-92724311D01*
X153927650Y-92716046D01*
X153905471Y-92705556D01*
X153884428Y-92692944D01*
X153864722Y-92678329D01*
X153846544Y-92661853D01*
X153210147Y-92025456D01*
X153193671Y-92007278D01*
X153179056Y-91987572D01*
X153166444Y-91966529D01*
X153155954Y-91944350D01*
X153147689Y-91921251D01*
X153141728Y-91897452D01*
X153138128Y-91873184D01*
X153136924Y-91848680D01*
X153138128Y-91824176D01*
X153141728Y-91799908D01*
X153147689Y-91776109D01*
X153155954Y-91753010D01*
X153166444Y-91730831D01*
X153179056Y-91709788D01*
X153193671Y-91690082D01*
X153210147Y-91671904D01*
X153669768Y-91212283D01*
X153687946Y-91195807D01*
X153707652Y-91181192D01*
X153728695Y-91168580D01*
X153750874Y-91158090D01*
X153773973Y-91149825D01*
X153797772Y-91143864D01*
X153822040Y-91140264D01*
X153846544Y-91139060D01*
X153871048Y-91140264D01*
X153871048Y-91140264D01*
G37*
D26*
X153934932Y-91937068D03*
D14*
G36*
X155320616Y-89690696D02*
G01*
X155344884Y-89694296D01*
X155368683Y-89700257D01*
X155391782Y-89708522D01*
X155413961Y-89719012D01*
X155435004Y-89731624D01*
X155454710Y-89746239D01*
X155472888Y-89762715D01*
X156109285Y-90399112D01*
X156125761Y-90417290D01*
X156140376Y-90436996D01*
X156152988Y-90458039D01*
X156163478Y-90480218D01*
X156171743Y-90503317D01*
X156177704Y-90527116D01*
X156181304Y-90551384D01*
X156182508Y-90575888D01*
X156181304Y-90600392D01*
X156177704Y-90624660D01*
X156171743Y-90648459D01*
X156163478Y-90671558D01*
X156152988Y-90693737D01*
X156140376Y-90714780D01*
X156125761Y-90734486D01*
X156109285Y-90752664D01*
X155649664Y-91212285D01*
X155631486Y-91228761D01*
X155611780Y-91243376D01*
X155590737Y-91255988D01*
X155568558Y-91266478D01*
X155545459Y-91274743D01*
X155521660Y-91280704D01*
X155497392Y-91284304D01*
X155472888Y-91285508D01*
X155448384Y-91284304D01*
X155424116Y-91280704D01*
X155400317Y-91274743D01*
X155377218Y-91266478D01*
X155355039Y-91255988D01*
X155333996Y-91243376D01*
X155314290Y-91228761D01*
X155296112Y-91212285D01*
X154659715Y-90575888D01*
X154643239Y-90557710D01*
X154628624Y-90538004D01*
X154616012Y-90516961D01*
X154605522Y-90494782D01*
X154597257Y-90471683D01*
X154591296Y-90447884D01*
X154587696Y-90423616D01*
X154586492Y-90399112D01*
X154587696Y-90374608D01*
X154591296Y-90350340D01*
X154597257Y-90326541D01*
X154605522Y-90303442D01*
X154616012Y-90281263D01*
X154628624Y-90260220D01*
X154643239Y-90240514D01*
X154659715Y-90222336D01*
X155119336Y-89762715D01*
X155137514Y-89746239D01*
X155157220Y-89731624D01*
X155178263Y-89719012D01*
X155200442Y-89708522D01*
X155223541Y-89700257D01*
X155247340Y-89694296D01*
X155271608Y-89690696D01*
X155296112Y-89689492D01*
X155320616Y-89690696D01*
X155320616Y-89690696D01*
G37*
D26*
X155384500Y-90487500D03*
D14*
G36*
X149803779Y-89950144D02*
G01*
X149826834Y-89953563D01*
X149849443Y-89959227D01*
X149871387Y-89967079D01*
X149892457Y-89977044D01*
X149912448Y-89989026D01*
X149931168Y-90002910D01*
X149948438Y-90018562D01*
X149964090Y-90035832D01*
X149977974Y-90054552D01*
X149989956Y-90074543D01*
X149999921Y-90095613D01*
X150007773Y-90117557D01*
X150013437Y-90140166D01*
X150016856Y-90163221D01*
X150018000Y-90186500D01*
X150018000Y-90661500D01*
X150016856Y-90684779D01*
X150013437Y-90707834D01*
X150007773Y-90730443D01*
X149999921Y-90752387D01*
X149989956Y-90773457D01*
X149977974Y-90793448D01*
X149964090Y-90812168D01*
X149948438Y-90829438D01*
X149931168Y-90845090D01*
X149912448Y-90858974D01*
X149892457Y-90870956D01*
X149871387Y-90880921D01*
X149849443Y-90888773D01*
X149826834Y-90894437D01*
X149803779Y-90897856D01*
X149780500Y-90899000D01*
X149205500Y-90899000D01*
X149182221Y-90897856D01*
X149159166Y-90894437D01*
X149136557Y-90888773D01*
X149114613Y-90880921D01*
X149093543Y-90870956D01*
X149073552Y-90858974D01*
X149054832Y-90845090D01*
X149037562Y-90829438D01*
X149021910Y-90812168D01*
X149008026Y-90793448D01*
X148996044Y-90773457D01*
X148986079Y-90752387D01*
X148978227Y-90730443D01*
X148972563Y-90707834D01*
X148969144Y-90684779D01*
X148968000Y-90661500D01*
X148968000Y-90186500D01*
X148969144Y-90163221D01*
X148972563Y-90140166D01*
X148978227Y-90117557D01*
X148986079Y-90095613D01*
X148996044Y-90074543D01*
X149008026Y-90054552D01*
X149021910Y-90035832D01*
X149037562Y-90018562D01*
X149054832Y-90002910D01*
X149073552Y-89989026D01*
X149093543Y-89977044D01*
X149114613Y-89967079D01*
X149136557Y-89959227D01*
X149159166Y-89953563D01*
X149182221Y-89950144D01*
X149205500Y-89949000D01*
X149780500Y-89949000D01*
X149803779Y-89950144D01*
X149803779Y-89950144D01*
G37*
D23*
X149493000Y-90424000D03*
D14*
G36*
X151553779Y-89950144D02*
G01*
X151576834Y-89953563D01*
X151599443Y-89959227D01*
X151621387Y-89967079D01*
X151642457Y-89977044D01*
X151662448Y-89989026D01*
X151681168Y-90002910D01*
X151698438Y-90018562D01*
X151714090Y-90035832D01*
X151727974Y-90054552D01*
X151739956Y-90074543D01*
X151749921Y-90095613D01*
X151757773Y-90117557D01*
X151763437Y-90140166D01*
X151766856Y-90163221D01*
X151768000Y-90186500D01*
X151768000Y-90661500D01*
X151766856Y-90684779D01*
X151763437Y-90707834D01*
X151757773Y-90730443D01*
X151749921Y-90752387D01*
X151739956Y-90773457D01*
X151727974Y-90793448D01*
X151714090Y-90812168D01*
X151698438Y-90829438D01*
X151681168Y-90845090D01*
X151662448Y-90858974D01*
X151642457Y-90870956D01*
X151621387Y-90880921D01*
X151599443Y-90888773D01*
X151576834Y-90894437D01*
X151553779Y-90897856D01*
X151530500Y-90899000D01*
X150955500Y-90899000D01*
X150932221Y-90897856D01*
X150909166Y-90894437D01*
X150886557Y-90888773D01*
X150864613Y-90880921D01*
X150843543Y-90870956D01*
X150823552Y-90858974D01*
X150804832Y-90845090D01*
X150787562Y-90829438D01*
X150771910Y-90812168D01*
X150758026Y-90793448D01*
X150746044Y-90773457D01*
X150736079Y-90752387D01*
X150728227Y-90730443D01*
X150722563Y-90707834D01*
X150719144Y-90684779D01*
X150718000Y-90661500D01*
X150718000Y-90186500D01*
X150719144Y-90163221D01*
X150722563Y-90140166D01*
X150728227Y-90117557D01*
X150736079Y-90095613D01*
X150746044Y-90074543D01*
X150758026Y-90054552D01*
X150771910Y-90035832D01*
X150787562Y-90018562D01*
X150804832Y-90002910D01*
X150823552Y-89989026D01*
X150843543Y-89977044D01*
X150864613Y-89967079D01*
X150886557Y-89959227D01*
X150909166Y-89953563D01*
X150932221Y-89950144D01*
X150955500Y-89949000D01*
X151530500Y-89949000D01*
X151553779Y-89950144D01*
X151553779Y-89950144D01*
G37*
D23*
X151243000Y-90424000D03*
D14*
G36*
X150537779Y-79790144D02*
G01*
X150560834Y-79793563D01*
X150583443Y-79799227D01*
X150605387Y-79807079D01*
X150626457Y-79817044D01*
X150646448Y-79829026D01*
X150665168Y-79842910D01*
X150682438Y-79858562D01*
X150698090Y-79875832D01*
X150711974Y-79894552D01*
X150723956Y-79914543D01*
X150733921Y-79935613D01*
X150741773Y-79957557D01*
X150747437Y-79980166D01*
X150750856Y-80003221D01*
X150752000Y-80026500D01*
X150752000Y-80501500D01*
X150750856Y-80524779D01*
X150747437Y-80547834D01*
X150741773Y-80570443D01*
X150733921Y-80592387D01*
X150723956Y-80613457D01*
X150711974Y-80633448D01*
X150698090Y-80652168D01*
X150682438Y-80669438D01*
X150665168Y-80685090D01*
X150646448Y-80698974D01*
X150626457Y-80710956D01*
X150605387Y-80720921D01*
X150583443Y-80728773D01*
X150560834Y-80734437D01*
X150537779Y-80737856D01*
X150514500Y-80739000D01*
X149939500Y-80739000D01*
X149916221Y-80737856D01*
X149893166Y-80734437D01*
X149870557Y-80728773D01*
X149848613Y-80720921D01*
X149827543Y-80710956D01*
X149807552Y-80698974D01*
X149788832Y-80685090D01*
X149771562Y-80669438D01*
X149755910Y-80652168D01*
X149742026Y-80633448D01*
X149730044Y-80613457D01*
X149720079Y-80592387D01*
X149712227Y-80570443D01*
X149706563Y-80547834D01*
X149703144Y-80524779D01*
X149702000Y-80501500D01*
X149702000Y-80026500D01*
X149703144Y-80003221D01*
X149706563Y-79980166D01*
X149712227Y-79957557D01*
X149720079Y-79935613D01*
X149730044Y-79914543D01*
X149742026Y-79894552D01*
X149755910Y-79875832D01*
X149771562Y-79858562D01*
X149788832Y-79842910D01*
X149807552Y-79829026D01*
X149827543Y-79817044D01*
X149848613Y-79807079D01*
X149870557Y-79799227D01*
X149893166Y-79793563D01*
X149916221Y-79790144D01*
X149939500Y-79789000D01*
X150514500Y-79789000D01*
X150537779Y-79790144D01*
X150537779Y-79790144D01*
G37*
D23*
X150227000Y-80264000D03*
D14*
G36*
X148787779Y-79790144D02*
G01*
X148810834Y-79793563D01*
X148833443Y-79799227D01*
X148855387Y-79807079D01*
X148876457Y-79817044D01*
X148896448Y-79829026D01*
X148915168Y-79842910D01*
X148932438Y-79858562D01*
X148948090Y-79875832D01*
X148961974Y-79894552D01*
X148973956Y-79914543D01*
X148983921Y-79935613D01*
X148991773Y-79957557D01*
X148997437Y-79980166D01*
X149000856Y-80003221D01*
X149002000Y-80026500D01*
X149002000Y-80501500D01*
X149000856Y-80524779D01*
X148997437Y-80547834D01*
X148991773Y-80570443D01*
X148983921Y-80592387D01*
X148973956Y-80613457D01*
X148961974Y-80633448D01*
X148948090Y-80652168D01*
X148932438Y-80669438D01*
X148915168Y-80685090D01*
X148896448Y-80698974D01*
X148876457Y-80710956D01*
X148855387Y-80720921D01*
X148833443Y-80728773D01*
X148810834Y-80734437D01*
X148787779Y-80737856D01*
X148764500Y-80739000D01*
X148189500Y-80739000D01*
X148166221Y-80737856D01*
X148143166Y-80734437D01*
X148120557Y-80728773D01*
X148098613Y-80720921D01*
X148077543Y-80710956D01*
X148057552Y-80698974D01*
X148038832Y-80685090D01*
X148021562Y-80669438D01*
X148005910Y-80652168D01*
X147992026Y-80633448D01*
X147980044Y-80613457D01*
X147970079Y-80592387D01*
X147962227Y-80570443D01*
X147956563Y-80547834D01*
X147953144Y-80524779D01*
X147952000Y-80501500D01*
X147952000Y-80026500D01*
X147953144Y-80003221D01*
X147956563Y-79980166D01*
X147962227Y-79957557D01*
X147970079Y-79935613D01*
X147980044Y-79914543D01*
X147992026Y-79894552D01*
X148005910Y-79875832D01*
X148021562Y-79858562D01*
X148038832Y-79842910D01*
X148057552Y-79829026D01*
X148077543Y-79817044D01*
X148098613Y-79807079D01*
X148120557Y-79799227D01*
X148143166Y-79793563D01*
X148166221Y-79790144D01*
X148189500Y-79789000D01*
X148764500Y-79789000D01*
X148787779Y-79790144D01*
X148787779Y-79790144D01*
G37*
D23*
X148477000Y-80264000D03*
D14*
G36*
X164761352Y-92245695D02*
G01*
X164784407Y-92249114D01*
X164807016Y-92254778D01*
X164828960Y-92262630D01*
X164850030Y-92272595D01*
X164870021Y-92284577D01*
X164888741Y-92298461D01*
X164906011Y-92314113D01*
X165241887Y-92649989D01*
X165257539Y-92667259D01*
X165271423Y-92685979D01*
X165283405Y-92705970D01*
X165293370Y-92727040D01*
X165301222Y-92748984D01*
X165306886Y-92771593D01*
X165310305Y-92794648D01*
X165311449Y-92817927D01*
X165310305Y-92841206D01*
X165306886Y-92864261D01*
X165301222Y-92886870D01*
X165293370Y-92908814D01*
X165283405Y-92929884D01*
X165271423Y-92949875D01*
X165257539Y-92968595D01*
X165241887Y-92985865D01*
X164835301Y-93392451D01*
X164818031Y-93408103D01*
X164799311Y-93421987D01*
X164779320Y-93433969D01*
X164758250Y-93443934D01*
X164736306Y-93451786D01*
X164713697Y-93457450D01*
X164690642Y-93460869D01*
X164667363Y-93462013D01*
X164644084Y-93460869D01*
X164621029Y-93457450D01*
X164598420Y-93451786D01*
X164576476Y-93443934D01*
X164555406Y-93433969D01*
X164535415Y-93421987D01*
X164516695Y-93408103D01*
X164499425Y-93392451D01*
X164163549Y-93056575D01*
X164147897Y-93039305D01*
X164134013Y-93020585D01*
X164122031Y-93000594D01*
X164112066Y-92979524D01*
X164104214Y-92957580D01*
X164098550Y-92934971D01*
X164095131Y-92911916D01*
X164093987Y-92888637D01*
X164095131Y-92865358D01*
X164098550Y-92842303D01*
X164104214Y-92819694D01*
X164112066Y-92797750D01*
X164122031Y-92776680D01*
X164134013Y-92756689D01*
X164147897Y-92737969D01*
X164163549Y-92720699D01*
X164570135Y-92314113D01*
X164587405Y-92298461D01*
X164606125Y-92284577D01*
X164626116Y-92272595D01*
X164647186Y-92262630D01*
X164669130Y-92254778D01*
X164691739Y-92249114D01*
X164714794Y-92245695D01*
X164738073Y-92244551D01*
X164761352Y-92245695D01*
X164761352Y-92245695D01*
G37*
D23*
X164702718Y-92853282D03*
D14*
G36*
X163523916Y-93483131D02*
G01*
X163546971Y-93486550D01*
X163569580Y-93492214D01*
X163591524Y-93500066D01*
X163612594Y-93510031D01*
X163632585Y-93522013D01*
X163651305Y-93535897D01*
X163668575Y-93551549D01*
X164004451Y-93887425D01*
X164020103Y-93904695D01*
X164033987Y-93923415D01*
X164045969Y-93943406D01*
X164055934Y-93964476D01*
X164063786Y-93986420D01*
X164069450Y-94009029D01*
X164072869Y-94032084D01*
X164074013Y-94055363D01*
X164072869Y-94078642D01*
X164069450Y-94101697D01*
X164063786Y-94124306D01*
X164055934Y-94146250D01*
X164045969Y-94167320D01*
X164033987Y-94187311D01*
X164020103Y-94206031D01*
X164004451Y-94223301D01*
X163597865Y-94629887D01*
X163580595Y-94645539D01*
X163561875Y-94659423D01*
X163541884Y-94671405D01*
X163520814Y-94681370D01*
X163498870Y-94689222D01*
X163476261Y-94694886D01*
X163453206Y-94698305D01*
X163429927Y-94699449D01*
X163406648Y-94698305D01*
X163383593Y-94694886D01*
X163360984Y-94689222D01*
X163339040Y-94681370D01*
X163317970Y-94671405D01*
X163297979Y-94659423D01*
X163279259Y-94645539D01*
X163261989Y-94629887D01*
X162926113Y-94294011D01*
X162910461Y-94276741D01*
X162896577Y-94258021D01*
X162884595Y-94238030D01*
X162874630Y-94216960D01*
X162866778Y-94195016D01*
X162861114Y-94172407D01*
X162857695Y-94149352D01*
X162856551Y-94126073D01*
X162857695Y-94102794D01*
X162861114Y-94079739D01*
X162866778Y-94057130D01*
X162874630Y-94035186D01*
X162884595Y-94014116D01*
X162896577Y-93994125D01*
X162910461Y-93975405D01*
X162926113Y-93958135D01*
X163332699Y-93551549D01*
X163349969Y-93535897D01*
X163368689Y-93522013D01*
X163388680Y-93510031D01*
X163409750Y-93500066D01*
X163431694Y-93492214D01*
X163454303Y-93486550D01*
X163477358Y-93483131D01*
X163500637Y-93481987D01*
X163523916Y-93483131D01*
X163523916Y-93483131D01*
G37*
D23*
X163465282Y-94090718D03*
D14*
G36*
X156887352Y-78529695D02*
G01*
X156910407Y-78533114D01*
X156933016Y-78538778D01*
X156954960Y-78546630D01*
X156976030Y-78556595D01*
X156996021Y-78568577D01*
X157014741Y-78582461D01*
X157032011Y-78598113D01*
X157367887Y-78933989D01*
X157383539Y-78951259D01*
X157397423Y-78969979D01*
X157409405Y-78989970D01*
X157419370Y-79011040D01*
X157427222Y-79032984D01*
X157432886Y-79055593D01*
X157436305Y-79078648D01*
X157437449Y-79101927D01*
X157436305Y-79125206D01*
X157432886Y-79148261D01*
X157427222Y-79170870D01*
X157419370Y-79192814D01*
X157409405Y-79213884D01*
X157397423Y-79233875D01*
X157383539Y-79252595D01*
X157367887Y-79269865D01*
X156961301Y-79676451D01*
X156944031Y-79692103D01*
X156925311Y-79705987D01*
X156905320Y-79717969D01*
X156884250Y-79727934D01*
X156862306Y-79735786D01*
X156839697Y-79741450D01*
X156816642Y-79744869D01*
X156793363Y-79746013D01*
X156770084Y-79744869D01*
X156747029Y-79741450D01*
X156724420Y-79735786D01*
X156702476Y-79727934D01*
X156681406Y-79717969D01*
X156661415Y-79705987D01*
X156642695Y-79692103D01*
X156625425Y-79676451D01*
X156289549Y-79340575D01*
X156273897Y-79323305D01*
X156260013Y-79304585D01*
X156248031Y-79284594D01*
X156238066Y-79263524D01*
X156230214Y-79241580D01*
X156224550Y-79218971D01*
X156221131Y-79195916D01*
X156219987Y-79172637D01*
X156221131Y-79149358D01*
X156224550Y-79126303D01*
X156230214Y-79103694D01*
X156238066Y-79081750D01*
X156248031Y-79060680D01*
X156260013Y-79040689D01*
X156273897Y-79021969D01*
X156289549Y-79004699D01*
X156696135Y-78598113D01*
X156713405Y-78582461D01*
X156732125Y-78568577D01*
X156752116Y-78556595D01*
X156773186Y-78546630D01*
X156795130Y-78538778D01*
X156817739Y-78533114D01*
X156840794Y-78529695D01*
X156864073Y-78528551D01*
X156887352Y-78529695D01*
X156887352Y-78529695D01*
G37*
D23*
X156828718Y-79137282D03*
D14*
G36*
X155649916Y-79767131D02*
G01*
X155672971Y-79770550D01*
X155695580Y-79776214D01*
X155717524Y-79784066D01*
X155738594Y-79794031D01*
X155758585Y-79806013D01*
X155777305Y-79819897D01*
X155794575Y-79835549D01*
X156130451Y-80171425D01*
X156146103Y-80188695D01*
X156159987Y-80207415D01*
X156171969Y-80227406D01*
X156181934Y-80248476D01*
X156189786Y-80270420D01*
X156195450Y-80293029D01*
X156198869Y-80316084D01*
X156200013Y-80339363D01*
X156198869Y-80362642D01*
X156195450Y-80385697D01*
X156189786Y-80408306D01*
X156181934Y-80430250D01*
X156171969Y-80451320D01*
X156159987Y-80471311D01*
X156146103Y-80490031D01*
X156130451Y-80507301D01*
X155723865Y-80913887D01*
X155706595Y-80929539D01*
X155687875Y-80943423D01*
X155667884Y-80955405D01*
X155646814Y-80965370D01*
X155624870Y-80973222D01*
X155602261Y-80978886D01*
X155579206Y-80982305D01*
X155555927Y-80983449D01*
X155532648Y-80982305D01*
X155509593Y-80978886D01*
X155486984Y-80973222D01*
X155465040Y-80965370D01*
X155443970Y-80955405D01*
X155423979Y-80943423D01*
X155405259Y-80929539D01*
X155387989Y-80913887D01*
X155052113Y-80578011D01*
X155036461Y-80560741D01*
X155022577Y-80542021D01*
X155010595Y-80522030D01*
X155000630Y-80500960D01*
X154992778Y-80479016D01*
X154987114Y-80456407D01*
X154983695Y-80433352D01*
X154982551Y-80410073D01*
X154983695Y-80386794D01*
X154987114Y-80363739D01*
X154992778Y-80341130D01*
X155000630Y-80319186D01*
X155010595Y-80298116D01*
X155022577Y-80278125D01*
X155036461Y-80259405D01*
X155052113Y-80242135D01*
X155458699Y-79835549D01*
X155475969Y-79819897D01*
X155494689Y-79806013D01*
X155514680Y-79794031D01*
X155535750Y-79784066D01*
X155557694Y-79776214D01*
X155580303Y-79770550D01*
X155603358Y-79767131D01*
X155626637Y-79765987D01*
X155649916Y-79767131D01*
X155649916Y-79767131D01*
G37*
D23*
X155591282Y-80374718D03*
D14*
G36*
X155329222Y-74828206D02*
G01*
X155353491Y-74831806D01*
X155377289Y-74837767D01*
X155400389Y-74846032D01*
X155422567Y-74856522D01*
X155443611Y-74869135D01*
X155463316Y-74883749D01*
X155481495Y-74900225D01*
X157001775Y-76420505D01*
X157018251Y-76438684D01*
X157032865Y-76458389D01*
X157045478Y-76479433D01*
X157055968Y-76501611D01*
X157064233Y-76524711D01*
X157070194Y-76548509D01*
X157073794Y-76572778D01*
X157074998Y-76597282D01*
X157073794Y-76621786D01*
X157070194Y-76646055D01*
X157064233Y-76669853D01*
X157055968Y-76692953D01*
X157045478Y-76715131D01*
X157032865Y-76736175D01*
X157018251Y-76755880D01*
X157001775Y-76774059D01*
X156347701Y-77428133D01*
X156329522Y-77444609D01*
X156309817Y-77459223D01*
X156288773Y-77471836D01*
X156266595Y-77482326D01*
X156243495Y-77490591D01*
X156219697Y-77496552D01*
X156195428Y-77500152D01*
X156170924Y-77501356D01*
X156146420Y-77500152D01*
X156122151Y-77496552D01*
X156098353Y-77490591D01*
X156075253Y-77482326D01*
X156053075Y-77471836D01*
X156032031Y-77459223D01*
X156012326Y-77444609D01*
X155994147Y-77428133D01*
X154473867Y-75907853D01*
X154457391Y-75889674D01*
X154442777Y-75869969D01*
X154430164Y-75848925D01*
X154419674Y-75826747D01*
X154411409Y-75803647D01*
X154405448Y-75779849D01*
X154401848Y-75755580D01*
X154400644Y-75731076D01*
X154401848Y-75706572D01*
X154405448Y-75682303D01*
X154411409Y-75658505D01*
X154419674Y-75635405D01*
X154430164Y-75613227D01*
X154442777Y-75592183D01*
X154457391Y-75572478D01*
X154473867Y-75554299D01*
X155127941Y-74900225D01*
X155146120Y-74883749D01*
X155165825Y-74869135D01*
X155186869Y-74856522D01*
X155209047Y-74846032D01*
X155232147Y-74837767D01*
X155255945Y-74831806D01*
X155280214Y-74828206D01*
X155304718Y-74827002D01*
X155329222Y-74828206D01*
X155329222Y-74828206D01*
G37*
D31*
X155737821Y-76164179D03*
D14*
G36*
X153225580Y-76931848D02*
G01*
X153249849Y-76935448D01*
X153273647Y-76941409D01*
X153296747Y-76949674D01*
X153318925Y-76960164D01*
X153339969Y-76972777D01*
X153359674Y-76987391D01*
X153377853Y-77003867D01*
X154898133Y-78524147D01*
X154914609Y-78542326D01*
X154929223Y-78562031D01*
X154941836Y-78583075D01*
X154952326Y-78605253D01*
X154960591Y-78628353D01*
X154966552Y-78652151D01*
X154970152Y-78676420D01*
X154971356Y-78700924D01*
X154970152Y-78725428D01*
X154966552Y-78749697D01*
X154960591Y-78773495D01*
X154952326Y-78796595D01*
X154941836Y-78818773D01*
X154929223Y-78839817D01*
X154914609Y-78859522D01*
X154898133Y-78877701D01*
X154244059Y-79531775D01*
X154225880Y-79548251D01*
X154206175Y-79562865D01*
X154185131Y-79575478D01*
X154162953Y-79585968D01*
X154139853Y-79594233D01*
X154116055Y-79600194D01*
X154091786Y-79603794D01*
X154067282Y-79604998D01*
X154042778Y-79603794D01*
X154018509Y-79600194D01*
X153994711Y-79594233D01*
X153971611Y-79585968D01*
X153949433Y-79575478D01*
X153928389Y-79562865D01*
X153908684Y-79548251D01*
X153890505Y-79531775D01*
X152370225Y-78011495D01*
X152353749Y-77993316D01*
X152339135Y-77973611D01*
X152326522Y-77952567D01*
X152316032Y-77930389D01*
X152307767Y-77907289D01*
X152301806Y-77883491D01*
X152298206Y-77859222D01*
X152297002Y-77834718D01*
X152298206Y-77810214D01*
X152301806Y-77785945D01*
X152307767Y-77762147D01*
X152316032Y-77739047D01*
X152326522Y-77716869D01*
X152339135Y-77695825D01*
X152353749Y-77676120D01*
X152370225Y-77657941D01*
X153024299Y-77003867D01*
X153042478Y-76987391D01*
X153062183Y-76972777D01*
X153083227Y-76960164D01*
X153105405Y-76949674D01*
X153128505Y-76941409D01*
X153152303Y-76935448D01*
X153176572Y-76931848D01*
X153201076Y-76930644D01*
X153225580Y-76931848D01*
X153225580Y-76931848D01*
G37*
D31*
X153634179Y-78267821D03*
D14*
G36*
X165595924Y-90832413D02*
G01*
X165618979Y-90835832D01*
X165641588Y-90841496D01*
X165663532Y-90849348D01*
X165684602Y-90859313D01*
X165704593Y-90871295D01*
X165723313Y-90885179D01*
X165740583Y-90900831D01*
X166147169Y-91307417D01*
X166162821Y-91324687D01*
X166176705Y-91343407D01*
X166188687Y-91363398D01*
X166198652Y-91384468D01*
X166206504Y-91406412D01*
X166212168Y-91429021D01*
X166215587Y-91452076D01*
X166216731Y-91475355D01*
X166215587Y-91498634D01*
X166212168Y-91521689D01*
X166206504Y-91544298D01*
X166198652Y-91566242D01*
X166188687Y-91587312D01*
X166176705Y-91607303D01*
X166162821Y-91626023D01*
X166147169Y-91643293D01*
X165811293Y-91979169D01*
X165794023Y-91994821D01*
X165775303Y-92008705D01*
X165755312Y-92020687D01*
X165734242Y-92030652D01*
X165712298Y-92038504D01*
X165689689Y-92044168D01*
X165666634Y-92047587D01*
X165643355Y-92048731D01*
X165620076Y-92047587D01*
X165597021Y-92044168D01*
X165574412Y-92038504D01*
X165552468Y-92030652D01*
X165531398Y-92020687D01*
X165511407Y-92008705D01*
X165492687Y-91994821D01*
X165475417Y-91979169D01*
X165068831Y-91572583D01*
X165053179Y-91555313D01*
X165039295Y-91536593D01*
X165027313Y-91516602D01*
X165017348Y-91495532D01*
X165009496Y-91473588D01*
X165003832Y-91450979D01*
X165000413Y-91427924D01*
X164999269Y-91404645D01*
X165000413Y-91381366D01*
X165003832Y-91358311D01*
X165009496Y-91335702D01*
X165017348Y-91313758D01*
X165027313Y-91292688D01*
X165039295Y-91272697D01*
X165053179Y-91253977D01*
X165068831Y-91236707D01*
X165404707Y-90900831D01*
X165421977Y-90885179D01*
X165440697Y-90871295D01*
X165460688Y-90859313D01*
X165481758Y-90849348D01*
X165503702Y-90841496D01*
X165526311Y-90835832D01*
X165549366Y-90832413D01*
X165572645Y-90831269D01*
X165595924Y-90832413D01*
X165595924Y-90832413D01*
G37*
D23*
X165608000Y-91440000D03*
D14*
G36*
X164358488Y-89594977D02*
G01*
X164381543Y-89598396D01*
X164404152Y-89604060D01*
X164426096Y-89611912D01*
X164447166Y-89621877D01*
X164467157Y-89633859D01*
X164485877Y-89647743D01*
X164503147Y-89663395D01*
X164909733Y-90069981D01*
X164925385Y-90087251D01*
X164939269Y-90105971D01*
X164951251Y-90125962D01*
X164961216Y-90147032D01*
X164969068Y-90168976D01*
X164974732Y-90191585D01*
X164978151Y-90214640D01*
X164979295Y-90237919D01*
X164978151Y-90261198D01*
X164974732Y-90284253D01*
X164969068Y-90306862D01*
X164961216Y-90328806D01*
X164951251Y-90349876D01*
X164939269Y-90369867D01*
X164925385Y-90388587D01*
X164909733Y-90405857D01*
X164573857Y-90741733D01*
X164556587Y-90757385D01*
X164537867Y-90771269D01*
X164517876Y-90783251D01*
X164496806Y-90793216D01*
X164474862Y-90801068D01*
X164452253Y-90806732D01*
X164429198Y-90810151D01*
X164405919Y-90811295D01*
X164382640Y-90810151D01*
X164359585Y-90806732D01*
X164336976Y-90801068D01*
X164315032Y-90793216D01*
X164293962Y-90783251D01*
X164273971Y-90771269D01*
X164255251Y-90757385D01*
X164237981Y-90741733D01*
X163831395Y-90335147D01*
X163815743Y-90317877D01*
X163801859Y-90299157D01*
X163789877Y-90279166D01*
X163779912Y-90258096D01*
X163772060Y-90236152D01*
X163766396Y-90213543D01*
X163762977Y-90190488D01*
X163761833Y-90167209D01*
X163762977Y-90143930D01*
X163766396Y-90120875D01*
X163772060Y-90098266D01*
X163779912Y-90076322D01*
X163789877Y-90055252D01*
X163801859Y-90035261D01*
X163815743Y-90016541D01*
X163831395Y-89999271D01*
X164167271Y-89663395D01*
X164184541Y-89647743D01*
X164203261Y-89633859D01*
X164223252Y-89621877D01*
X164244322Y-89611912D01*
X164266266Y-89604060D01*
X164288875Y-89598396D01*
X164311930Y-89594977D01*
X164335209Y-89593833D01*
X164358488Y-89594977D01*
X164358488Y-89594977D01*
G37*
D23*
X164370564Y-90202564D03*
D14*
G36*
X179600779Y-64754144D02*
G01*
X179623834Y-64757563D01*
X179646443Y-64763227D01*
X179668387Y-64771079D01*
X179689457Y-64781044D01*
X179709448Y-64793026D01*
X179728168Y-64806910D01*
X179745438Y-64822562D01*
X179761090Y-64839832D01*
X179774974Y-64858552D01*
X179786956Y-64878543D01*
X179796921Y-64899613D01*
X179804773Y-64921557D01*
X179810437Y-64944166D01*
X179813856Y-64967221D01*
X179815000Y-64990500D01*
X179815000Y-65565500D01*
X179813856Y-65588779D01*
X179810437Y-65611834D01*
X179804773Y-65634443D01*
X179796921Y-65656387D01*
X179786956Y-65677457D01*
X179774974Y-65697448D01*
X179761090Y-65716168D01*
X179745438Y-65733438D01*
X179728168Y-65749090D01*
X179709448Y-65762974D01*
X179689457Y-65774956D01*
X179668387Y-65784921D01*
X179646443Y-65792773D01*
X179623834Y-65798437D01*
X179600779Y-65801856D01*
X179577500Y-65803000D01*
X179102500Y-65803000D01*
X179079221Y-65801856D01*
X179056166Y-65798437D01*
X179033557Y-65792773D01*
X179011613Y-65784921D01*
X178990543Y-65774956D01*
X178970552Y-65762974D01*
X178951832Y-65749090D01*
X178934562Y-65733438D01*
X178918910Y-65716168D01*
X178905026Y-65697448D01*
X178893044Y-65677457D01*
X178883079Y-65656387D01*
X178875227Y-65634443D01*
X178869563Y-65611834D01*
X178866144Y-65588779D01*
X178865000Y-65565500D01*
X178865000Y-64990500D01*
X178866144Y-64967221D01*
X178869563Y-64944166D01*
X178875227Y-64921557D01*
X178883079Y-64899613D01*
X178893044Y-64878543D01*
X178905026Y-64858552D01*
X178918910Y-64839832D01*
X178934562Y-64822562D01*
X178951832Y-64806910D01*
X178970552Y-64793026D01*
X178990543Y-64781044D01*
X179011613Y-64771079D01*
X179033557Y-64763227D01*
X179056166Y-64757563D01*
X179079221Y-64754144D01*
X179102500Y-64753000D01*
X179577500Y-64753000D01*
X179600779Y-64754144D01*
X179600779Y-64754144D01*
G37*
D23*
X179340000Y-65278000D03*
D14*
G36*
X179600779Y-66504144D02*
G01*
X179623834Y-66507563D01*
X179646443Y-66513227D01*
X179668387Y-66521079D01*
X179689457Y-66531044D01*
X179709448Y-66543026D01*
X179728168Y-66556910D01*
X179745438Y-66572562D01*
X179761090Y-66589832D01*
X179774974Y-66608552D01*
X179786956Y-66628543D01*
X179796921Y-66649613D01*
X179804773Y-66671557D01*
X179810437Y-66694166D01*
X179813856Y-66717221D01*
X179815000Y-66740500D01*
X179815000Y-67315500D01*
X179813856Y-67338779D01*
X179810437Y-67361834D01*
X179804773Y-67384443D01*
X179796921Y-67406387D01*
X179786956Y-67427457D01*
X179774974Y-67447448D01*
X179761090Y-67466168D01*
X179745438Y-67483438D01*
X179728168Y-67499090D01*
X179709448Y-67512974D01*
X179689457Y-67524956D01*
X179668387Y-67534921D01*
X179646443Y-67542773D01*
X179623834Y-67548437D01*
X179600779Y-67551856D01*
X179577500Y-67553000D01*
X179102500Y-67553000D01*
X179079221Y-67551856D01*
X179056166Y-67548437D01*
X179033557Y-67542773D01*
X179011613Y-67534921D01*
X178990543Y-67524956D01*
X178970552Y-67512974D01*
X178951832Y-67499090D01*
X178934562Y-67483438D01*
X178918910Y-67466168D01*
X178905026Y-67447448D01*
X178893044Y-67427457D01*
X178883079Y-67406387D01*
X178875227Y-67384443D01*
X178869563Y-67361834D01*
X178866144Y-67338779D01*
X178865000Y-67315500D01*
X178865000Y-66740500D01*
X178866144Y-66717221D01*
X178869563Y-66694166D01*
X178875227Y-66671557D01*
X178883079Y-66649613D01*
X178893044Y-66628543D01*
X178905026Y-66608552D01*
X178918910Y-66589832D01*
X178934562Y-66572562D01*
X178951832Y-66556910D01*
X178970552Y-66543026D01*
X178990543Y-66531044D01*
X179011613Y-66521079D01*
X179033557Y-66513227D01*
X179056166Y-66507563D01*
X179079221Y-66504144D01*
X179102500Y-66503000D01*
X179577500Y-66503000D01*
X179600779Y-66504144D01*
X179600779Y-66504144D01*
G37*
D23*
X179340000Y-67028000D03*
D14*
G36*
X179600779Y-77708144D02*
G01*
X179623834Y-77711563D01*
X179646443Y-77717227D01*
X179668387Y-77725079D01*
X179689457Y-77735044D01*
X179709448Y-77747026D01*
X179728168Y-77760910D01*
X179745438Y-77776562D01*
X179761090Y-77793832D01*
X179774974Y-77812552D01*
X179786956Y-77832543D01*
X179796921Y-77853613D01*
X179804773Y-77875557D01*
X179810437Y-77898166D01*
X179813856Y-77921221D01*
X179815000Y-77944500D01*
X179815000Y-78519500D01*
X179813856Y-78542779D01*
X179810437Y-78565834D01*
X179804773Y-78588443D01*
X179796921Y-78610387D01*
X179786956Y-78631457D01*
X179774974Y-78651448D01*
X179761090Y-78670168D01*
X179745438Y-78687438D01*
X179728168Y-78703090D01*
X179709448Y-78716974D01*
X179689457Y-78728956D01*
X179668387Y-78738921D01*
X179646443Y-78746773D01*
X179623834Y-78752437D01*
X179600779Y-78755856D01*
X179577500Y-78757000D01*
X179102500Y-78757000D01*
X179079221Y-78755856D01*
X179056166Y-78752437D01*
X179033557Y-78746773D01*
X179011613Y-78738921D01*
X178990543Y-78728956D01*
X178970552Y-78716974D01*
X178951832Y-78703090D01*
X178934562Y-78687438D01*
X178918910Y-78670168D01*
X178905026Y-78651448D01*
X178893044Y-78631457D01*
X178883079Y-78610387D01*
X178875227Y-78588443D01*
X178869563Y-78565834D01*
X178866144Y-78542779D01*
X178865000Y-78519500D01*
X178865000Y-77944500D01*
X178866144Y-77921221D01*
X178869563Y-77898166D01*
X178875227Y-77875557D01*
X178883079Y-77853613D01*
X178893044Y-77832543D01*
X178905026Y-77812552D01*
X178918910Y-77793832D01*
X178934562Y-77776562D01*
X178951832Y-77760910D01*
X178970552Y-77747026D01*
X178990543Y-77735044D01*
X179011613Y-77725079D01*
X179033557Y-77717227D01*
X179056166Y-77711563D01*
X179079221Y-77708144D01*
X179102500Y-77707000D01*
X179577500Y-77707000D01*
X179600779Y-77708144D01*
X179600779Y-77708144D01*
G37*
D23*
X179340000Y-78232000D03*
D14*
G36*
X179600779Y-79458144D02*
G01*
X179623834Y-79461563D01*
X179646443Y-79467227D01*
X179668387Y-79475079D01*
X179689457Y-79485044D01*
X179709448Y-79497026D01*
X179728168Y-79510910D01*
X179745438Y-79526562D01*
X179761090Y-79543832D01*
X179774974Y-79562552D01*
X179786956Y-79582543D01*
X179796921Y-79603613D01*
X179804773Y-79625557D01*
X179810437Y-79648166D01*
X179813856Y-79671221D01*
X179815000Y-79694500D01*
X179815000Y-80269500D01*
X179813856Y-80292779D01*
X179810437Y-80315834D01*
X179804773Y-80338443D01*
X179796921Y-80360387D01*
X179786956Y-80381457D01*
X179774974Y-80401448D01*
X179761090Y-80420168D01*
X179745438Y-80437438D01*
X179728168Y-80453090D01*
X179709448Y-80466974D01*
X179689457Y-80478956D01*
X179668387Y-80488921D01*
X179646443Y-80496773D01*
X179623834Y-80502437D01*
X179600779Y-80505856D01*
X179577500Y-80507000D01*
X179102500Y-80507000D01*
X179079221Y-80505856D01*
X179056166Y-80502437D01*
X179033557Y-80496773D01*
X179011613Y-80488921D01*
X178990543Y-80478956D01*
X178970552Y-80466974D01*
X178951832Y-80453090D01*
X178934562Y-80437438D01*
X178918910Y-80420168D01*
X178905026Y-80401448D01*
X178893044Y-80381457D01*
X178883079Y-80360387D01*
X178875227Y-80338443D01*
X178869563Y-80315834D01*
X178866144Y-80292779D01*
X178865000Y-80269500D01*
X178865000Y-79694500D01*
X178866144Y-79671221D01*
X178869563Y-79648166D01*
X178875227Y-79625557D01*
X178883079Y-79603613D01*
X178893044Y-79582543D01*
X178905026Y-79562552D01*
X178918910Y-79543832D01*
X178934562Y-79526562D01*
X178951832Y-79510910D01*
X178970552Y-79497026D01*
X178990543Y-79485044D01*
X179011613Y-79475079D01*
X179033557Y-79467227D01*
X179056166Y-79461563D01*
X179079221Y-79458144D01*
X179102500Y-79457000D01*
X179577500Y-79457000D01*
X179600779Y-79458144D01*
X179600779Y-79458144D01*
G37*
D23*
X179340000Y-79982000D03*
D14*
G36*
X179600779Y-90690144D02*
G01*
X179623834Y-90693563D01*
X179646443Y-90699227D01*
X179668387Y-90707079D01*
X179689457Y-90717044D01*
X179709448Y-90729026D01*
X179728168Y-90742910D01*
X179745438Y-90758562D01*
X179761090Y-90775832D01*
X179774974Y-90794552D01*
X179786956Y-90814543D01*
X179796921Y-90835613D01*
X179804773Y-90857557D01*
X179810437Y-90880166D01*
X179813856Y-90903221D01*
X179815000Y-90926500D01*
X179815000Y-91501500D01*
X179813856Y-91524779D01*
X179810437Y-91547834D01*
X179804773Y-91570443D01*
X179796921Y-91592387D01*
X179786956Y-91613457D01*
X179774974Y-91633448D01*
X179761090Y-91652168D01*
X179745438Y-91669438D01*
X179728168Y-91685090D01*
X179709448Y-91698974D01*
X179689457Y-91710956D01*
X179668387Y-91720921D01*
X179646443Y-91728773D01*
X179623834Y-91734437D01*
X179600779Y-91737856D01*
X179577500Y-91739000D01*
X179102500Y-91739000D01*
X179079221Y-91737856D01*
X179056166Y-91734437D01*
X179033557Y-91728773D01*
X179011613Y-91720921D01*
X178990543Y-91710956D01*
X178970552Y-91698974D01*
X178951832Y-91685090D01*
X178934562Y-91669438D01*
X178918910Y-91652168D01*
X178905026Y-91633448D01*
X178893044Y-91613457D01*
X178883079Y-91592387D01*
X178875227Y-91570443D01*
X178869563Y-91547834D01*
X178866144Y-91524779D01*
X178865000Y-91501500D01*
X178865000Y-90926500D01*
X178866144Y-90903221D01*
X178869563Y-90880166D01*
X178875227Y-90857557D01*
X178883079Y-90835613D01*
X178893044Y-90814543D01*
X178905026Y-90794552D01*
X178918910Y-90775832D01*
X178934562Y-90758562D01*
X178951832Y-90742910D01*
X178970552Y-90729026D01*
X178990543Y-90717044D01*
X179011613Y-90707079D01*
X179033557Y-90699227D01*
X179056166Y-90693563D01*
X179079221Y-90690144D01*
X179102500Y-90689000D01*
X179577500Y-90689000D01*
X179600779Y-90690144D01*
X179600779Y-90690144D01*
G37*
D23*
X179340000Y-91214000D03*
D14*
G36*
X179600779Y-92440144D02*
G01*
X179623834Y-92443563D01*
X179646443Y-92449227D01*
X179668387Y-92457079D01*
X179689457Y-92467044D01*
X179709448Y-92479026D01*
X179728168Y-92492910D01*
X179745438Y-92508562D01*
X179761090Y-92525832D01*
X179774974Y-92544552D01*
X179786956Y-92564543D01*
X179796921Y-92585613D01*
X179804773Y-92607557D01*
X179810437Y-92630166D01*
X179813856Y-92653221D01*
X179815000Y-92676500D01*
X179815000Y-93251500D01*
X179813856Y-93274779D01*
X179810437Y-93297834D01*
X179804773Y-93320443D01*
X179796921Y-93342387D01*
X179786956Y-93363457D01*
X179774974Y-93383448D01*
X179761090Y-93402168D01*
X179745438Y-93419438D01*
X179728168Y-93435090D01*
X179709448Y-93448974D01*
X179689457Y-93460956D01*
X179668387Y-93470921D01*
X179646443Y-93478773D01*
X179623834Y-93484437D01*
X179600779Y-93487856D01*
X179577500Y-93489000D01*
X179102500Y-93489000D01*
X179079221Y-93487856D01*
X179056166Y-93484437D01*
X179033557Y-93478773D01*
X179011613Y-93470921D01*
X178990543Y-93460956D01*
X178970552Y-93448974D01*
X178951832Y-93435090D01*
X178934562Y-93419438D01*
X178918910Y-93402168D01*
X178905026Y-93383448D01*
X178893044Y-93363457D01*
X178883079Y-93342387D01*
X178875227Y-93320443D01*
X178869563Y-93297834D01*
X178866144Y-93274779D01*
X178865000Y-93251500D01*
X178865000Y-92676500D01*
X178866144Y-92653221D01*
X178869563Y-92630166D01*
X178875227Y-92607557D01*
X178883079Y-92585613D01*
X178893044Y-92564543D01*
X178905026Y-92544552D01*
X178918910Y-92525832D01*
X178934562Y-92508562D01*
X178951832Y-92492910D01*
X178970552Y-92479026D01*
X178990543Y-92467044D01*
X179011613Y-92457079D01*
X179033557Y-92449227D01*
X179056166Y-92443563D01*
X179079221Y-92440144D01*
X179102500Y-92439000D01*
X179577500Y-92439000D01*
X179600779Y-92440144D01*
X179600779Y-92440144D01*
G37*
D23*
X179340000Y-92964000D03*
D14*
G36*
X139248779Y-77758144D02*
G01*
X139271834Y-77761563D01*
X139294443Y-77767227D01*
X139316387Y-77775079D01*
X139337457Y-77785044D01*
X139357448Y-77797026D01*
X139376168Y-77810910D01*
X139393438Y-77826562D01*
X139409090Y-77843832D01*
X139422974Y-77862552D01*
X139434956Y-77882543D01*
X139444921Y-77903613D01*
X139452773Y-77925557D01*
X139458437Y-77948166D01*
X139461856Y-77971221D01*
X139463000Y-77994500D01*
X139463000Y-78469500D01*
X139461856Y-78492779D01*
X139458437Y-78515834D01*
X139452773Y-78538443D01*
X139444921Y-78560387D01*
X139434956Y-78581457D01*
X139422974Y-78601448D01*
X139409090Y-78620168D01*
X139393438Y-78637438D01*
X139376168Y-78653090D01*
X139357448Y-78666974D01*
X139337457Y-78678956D01*
X139316387Y-78688921D01*
X139294443Y-78696773D01*
X139271834Y-78702437D01*
X139248779Y-78705856D01*
X139225500Y-78707000D01*
X138650500Y-78707000D01*
X138627221Y-78705856D01*
X138604166Y-78702437D01*
X138581557Y-78696773D01*
X138559613Y-78688921D01*
X138538543Y-78678956D01*
X138518552Y-78666974D01*
X138499832Y-78653090D01*
X138482562Y-78637438D01*
X138466910Y-78620168D01*
X138453026Y-78601448D01*
X138441044Y-78581457D01*
X138431079Y-78560387D01*
X138423227Y-78538443D01*
X138417563Y-78515834D01*
X138414144Y-78492779D01*
X138413000Y-78469500D01*
X138413000Y-77994500D01*
X138414144Y-77971221D01*
X138417563Y-77948166D01*
X138423227Y-77925557D01*
X138431079Y-77903613D01*
X138441044Y-77882543D01*
X138453026Y-77862552D01*
X138466910Y-77843832D01*
X138482562Y-77826562D01*
X138499832Y-77810910D01*
X138518552Y-77797026D01*
X138538543Y-77785044D01*
X138559613Y-77775079D01*
X138581557Y-77767227D01*
X138604166Y-77761563D01*
X138627221Y-77758144D01*
X138650500Y-77757000D01*
X139225500Y-77757000D01*
X139248779Y-77758144D01*
X139248779Y-77758144D01*
G37*
D23*
X138938000Y-78232000D03*
D14*
G36*
X140998779Y-77758144D02*
G01*
X141021834Y-77761563D01*
X141044443Y-77767227D01*
X141066387Y-77775079D01*
X141087457Y-77785044D01*
X141107448Y-77797026D01*
X141126168Y-77810910D01*
X141143438Y-77826562D01*
X141159090Y-77843832D01*
X141172974Y-77862552D01*
X141184956Y-77882543D01*
X141194921Y-77903613D01*
X141202773Y-77925557D01*
X141208437Y-77948166D01*
X141211856Y-77971221D01*
X141213000Y-77994500D01*
X141213000Y-78469500D01*
X141211856Y-78492779D01*
X141208437Y-78515834D01*
X141202773Y-78538443D01*
X141194921Y-78560387D01*
X141184956Y-78581457D01*
X141172974Y-78601448D01*
X141159090Y-78620168D01*
X141143438Y-78637438D01*
X141126168Y-78653090D01*
X141107448Y-78666974D01*
X141087457Y-78678956D01*
X141066387Y-78688921D01*
X141044443Y-78696773D01*
X141021834Y-78702437D01*
X140998779Y-78705856D01*
X140975500Y-78707000D01*
X140400500Y-78707000D01*
X140377221Y-78705856D01*
X140354166Y-78702437D01*
X140331557Y-78696773D01*
X140309613Y-78688921D01*
X140288543Y-78678956D01*
X140268552Y-78666974D01*
X140249832Y-78653090D01*
X140232562Y-78637438D01*
X140216910Y-78620168D01*
X140203026Y-78601448D01*
X140191044Y-78581457D01*
X140181079Y-78560387D01*
X140173227Y-78538443D01*
X140167563Y-78515834D01*
X140164144Y-78492779D01*
X140163000Y-78469500D01*
X140163000Y-77994500D01*
X140164144Y-77971221D01*
X140167563Y-77948166D01*
X140173227Y-77925557D01*
X140181079Y-77903613D01*
X140191044Y-77882543D01*
X140203026Y-77862552D01*
X140216910Y-77843832D01*
X140232562Y-77826562D01*
X140249832Y-77810910D01*
X140268552Y-77797026D01*
X140288543Y-77785044D01*
X140309613Y-77775079D01*
X140331557Y-77767227D01*
X140354166Y-77761563D01*
X140377221Y-77758144D01*
X140400500Y-77757000D01*
X140975500Y-77757000D01*
X140998779Y-77758144D01*
X140998779Y-77758144D01*
G37*
D23*
X140688000Y-78232000D03*
D14*
G36*
X150120779Y-59815144D02*
G01*
X150143834Y-59818563D01*
X150166443Y-59824227D01*
X150188387Y-59832079D01*
X150209457Y-59842044D01*
X150229448Y-59854026D01*
X150248168Y-59867910D01*
X150265438Y-59883562D01*
X150281090Y-59900832D01*
X150294974Y-59919552D01*
X150306956Y-59939543D01*
X150316921Y-59960613D01*
X150324773Y-59982557D01*
X150330437Y-60005166D01*
X150333856Y-60028221D01*
X150335000Y-60051500D01*
X150335000Y-60626500D01*
X150333856Y-60649779D01*
X150330437Y-60672834D01*
X150324773Y-60695443D01*
X150316921Y-60717387D01*
X150306956Y-60738457D01*
X150294974Y-60758448D01*
X150281090Y-60777168D01*
X150265438Y-60794438D01*
X150248168Y-60810090D01*
X150229448Y-60823974D01*
X150209457Y-60835956D01*
X150188387Y-60845921D01*
X150166443Y-60853773D01*
X150143834Y-60859437D01*
X150120779Y-60862856D01*
X150097500Y-60864000D01*
X149622500Y-60864000D01*
X149599221Y-60862856D01*
X149576166Y-60859437D01*
X149553557Y-60853773D01*
X149531613Y-60845921D01*
X149510543Y-60835956D01*
X149490552Y-60823974D01*
X149471832Y-60810090D01*
X149454562Y-60794438D01*
X149438910Y-60777168D01*
X149425026Y-60758448D01*
X149413044Y-60738457D01*
X149403079Y-60717387D01*
X149395227Y-60695443D01*
X149389563Y-60672834D01*
X149386144Y-60649779D01*
X149385000Y-60626500D01*
X149385000Y-60051500D01*
X149386144Y-60028221D01*
X149389563Y-60005166D01*
X149395227Y-59982557D01*
X149403079Y-59960613D01*
X149413044Y-59939543D01*
X149425026Y-59919552D01*
X149438910Y-59900832D01*
X149454562Y-59883562D01*
X149471832Y-59867910D01*
X149490552Y-59854026D01*
X149510543Y-59842044D01*
X149531613Y-59832079D01*
X149553557Y-59824227D01*
X149576166Y-59818563D01*
X149599221Y-59815144D01*
X149622500Y-59814000D01*
X150097500Y-59814000D01*
X150120779Y-59815144D01*
X150120779Y-59815144D01*
G37*
D23*
X149860000Y-60339000D03*
D14*
G36*
X150120779Y-61565144D02*
G01*
X150143834Y-61568563D01*
X150166443Y-61574227D01*
X150188387Y-61582079D01*
X150209457Y-61592044D01*
X150229448Y-61604026D01*
X150248168Y-61617910D01*
X150265438Y-61633562D01*
X150281090Y-61650832D01*
X150294974Y-61669552D01*
X150306956Y-61689543D01*
X150316921Y-61710613D01*
X150324773Y-61732557D01*
X150330437Y-61755166D01*
X150333856Y-61778221D01*
X150335000Y-61801500D01*
X150335000Y-62376500D01*
X150333856Y-62399779D01*
X150330437Y-62422834D01*
X150324773Y-62445443D01*
X150316921Y-62467387D01*
X150306956Y-62488457D01*
X150294974Y-62508448D01*
X150281090Y-62527168D01*
X150265438Y-62544438D01*
X150248168Y-62560090D01*
X150229448Y-62573974D01*
X150209457Y-62585956D01*
X150188387Y-62595921D01*
X150166443Y-62603773D01*
X150143834Y-62609437D01*
X150120779Y-62612856D01*
X150097500Y-62614000D01*
X149622500Y-62614000D01*
X149599221Y-62612856D01*
X149576166Y-62609437D01*
X149553557Y-62603773D01*
X149531613Y-62595921D01*
X149510543Y-62585956D01*
X149490552Y-62573974D01*
X149471832Y-62560090D01*
X149454562Y-62544438D01*
X149438910Y-62527168D01*
X149425026Y-62508448D01*
X149413044Y-62488457D01*
X149403079Y-62467387D01*
X149395227Y-62445443D01*
X149389563Y-62422834D01*
X149386144Y-62399779D01*
X149385000Y-62376500D01*
X149385000Y-61801500D01*
X149386144Y-61778221D01*
X149389563Y-61755166D01*
X149395227Y-61732557D01*
X149403079Y-61710613D01*
X149413044Y-61689543D01*
X149425026Y-61669552D01*
X149438910Y-61650832D01*
X149454562Y-61633562D01*
X149471832Y-61617910D01*
X149490552Y-61604026D01*
X149510543Y-61592044D01*
X149531613Y-61582079D01*
X149553557Y-61574227D01*
X149576166Y-61568563D01*
X149599221Y-61565144D01*
X149622500Y-61564000D01*
X150097500Y-61564000D01*
X150120779Y-61565144D01*
X150120779Y-61565144D01*
G37*
D23*
X149860000Y-62089000D03*
D14*
G36*
X133619504Y-77866204D02*
G01*
X133643773Y-77869804D01*
X133667571Y-77875765D01*
X133690671Y-77884030D01*
X133712849Y-77894520D01*
X133733893Y-77907133D01*
X133753598Y-77921747D01*
X133771777Y-77938223D01*
X133788253Y-77956402D01*
X133802867Y-77976107D01*
X133815480Y-77997151D01*
X133825970Y-78019329D01*
X133834235Y-78042429D01*
X133840196Y-78066227D01*
X133843796Y-78090496D01*
X133845000Y-78115000D01*
X133845000Y-79365000D01*
X133843796Y-79389504D01*
X133840196Y-79413773D01*
X133834235Y-79437571D01*
X133825970Y-79460671D01*
X133815480Y-79482849D01*
X133802867Y-79503893D01*
X133788253Y-79523598D01*
X133771777Y-79541777D01*
X133753598Y-79558253D01*
X133733893Y-79572867D01*
X133712849Y-79585480D01*
X133690671Y-79595970D01*
X133667571Y-79604235D01*
X133643773Y-79610196D01*
X133619504Y-79613796D01*
X133595000Y-79615000D01*
X132670000Y-79615000D01*
X132645496Y-79613796D01*
X132621227Y-79610196D01*
X132597429Y-79604235D01*
X132574329Y-79595970D01*
X132552151Y-79585480D01*
X132531107Y-79572867D01*
X132511402Y-79558253D01*
X132493223Y-79541777D01*
X132476747Y-79523598D01*
X132462133Y-79503893D01*
X132449520Y-79482849D01*
X132439030Y-79460671D01*
X132430765Y-79437571D01*
X132424804Y-79413773D01*
X132421204Y-79389504D01*
X132420000Y-79365000D01*
X132420000Y-78115000D01*
X132421204Y-78090496D01*
X132424804Y-78066227D01*
X132430765Y-78042429D01*
X132439030Y-78019329D01*
X132449520Y-77997151D01*
X132462133Y-77976107D01*
X132476747Y-77956402D01*
X132493223Y-77938223D01*
X132511402Y-77921747D01*
X132531107Y-77907133D01*
X132552151Y-77894520D01*
X132574329Y-77884030D01*
X132597429Y-77875765D01*
X132621227Y-77869804D01*
X132645496Y-77866204D01*
X132670000Y-77865000D01*
X133595000Y-77865000D01*
X133619504Y-77866204D01*
X133619504Y-77866204D01*
G37*
D31*
X133132500Y-78740000D03*
D14*
G36*
X136594504Y-77866204D02*
G01*
X136618773Y-77869804D01*
X136642571Y-77875765D01*
X136665671Y-77884030D01*
X136687849Y-77894520D01*
X136708893Y-77907133D01*
X136728598Y-77921747D01*
X136746777Y-77938223D01*
X136763253Y-77956402D01*
X136777867Y-77976107D01*
X136790480Y-77997151D01*
X136800970Y-78019329D01*
X136809235Y-78042429D01*
X136815196Y-78066227D01*
X136818796Y-78090496D01*
X136820000Y-78115000D01*
X136820000Y-79365000D01*
X136818796Y-79389504D01*
X136815196Y-79413773D01*
X136809235Y-79437571D01*
X136800970Y-79460671D01*
X136790480Y-79482849D01*
X136777867Y-79503893D01*
X136763253Y-79523598D01*
X136746777Y-79541777D01*
X136728598Y-79558253D01*
X136708893Y-79572867D01*
X136687849Y-79585480D01*
X136665671Y-79595970D01*
X136642571Y-79604235D01*
X136618773Y-79610196D01*
X136594504Y-79613796D01*
X136570000Y-79615000D01*
X135645000Y-79615000D01*
X135620496Y-79613796D01*
X135596227Y-79610196D01*
X135572429Y-79604235D01*
X135549329Y-79595970D01*
X135527151Y-79585480D01*
X135506107Y-79572867D01*
X135486402Y-79558253D01*
X135468223Y-79541777D01*
X135451747Y-79523598D01*
X135437133Y-79503893D01*
X135424520Y-79482849D01*
X135414030Y-79460671D01*
X135405765Y-79437571D01*
X135399804Y-79413773D01*
X135396204Y-79389504D01*
X135395000Y-79365000D01*
X135395000Y-78115000D01*
X135396204Y-78090496D01*
X135399804Y-78066227D01*
X135405765Y-78042429D01*
X135414030Y-78019329D01*
X135424520Y-77997151D01*
X135437133Y-77976107D01*
X135451747Y-77956402D01*
X135468223Y-77938223D01*
X135486402Y-77921747D01*
X135506107Y-77907133D01*
X135527151Y-77894520D01*
X135549329Y-77884030D01*
X135572429Y-77875765D01*
X135596227Y-77869804D01*
X135620496Y-77866204D01*
X135645000Y-77865000D01*
X136570000Y-77865000D01*
X136594504Y-77866204D01*
X136594504Y-77866204D01*
G37*
D31*
X136107500Y-78740000D03*
D14*
G36*
X145429504Y-56184704D02*
G01*
X145453773Y-56188304D01*
X145477571Y-56194265D01*
X145500671Y-56202530D01*
X145522849Y-56213020D01*
X145543893Y-56225633D01*
X145563598Y-56240247D01*
X145581777Y-56256723D01*
X145598253Y-56274902D01*
X145612867Y-56294607D01*
X145625480Y-56315651D01*
X145635970Y-56337829D01*
X145644235Y-56360929D01*
X145650196Y-56384727D01*
X145653796Y-56408996D01*
X145655000Y-56433500D01*
X145655000Y-57358500D01*
X145653796Y-57383004D01*
X145650196Y-57407273D01*
X145644235Y-57431071D01*
X145635970Y-57454171D01*
X145625480Y-57476349D01*
X145612867Y-57497393D01*
X145598253Y-57517098D01*
X145581777Y-57535277D01*
X145563598Y-57551753D01*
X145543893Y-57566367D01*
X145522849Y-57578980D01*
X145500671Y-57589470D01*
X145477571Y-57597735D01*
X145453773Y-57603696D01*
X145429504Y-57607296D01*
X145405000Y-57608500D01*
X144155000Y-57608500D01*
X144130496Y-57607296D01*
X144106227Y-57603696D01*
X144082429Y-57597735D01*
X144059329Y-57589470D01*
X144037151Y-57578980D01*
X144016107Y-57566367D01*
X143996402Y-57551753D01*
X143978223Y-57535277D01*
X143961747Y-57517098D01*
X143947133Y-57497393D01*
X143934520Y-57476349D01*
X143924030Y-57454171D01*
X143915765Y-57431071D01*
X143909804Y-57407273D01*
X143906204Y-57383004D01*
X143905000Y-57358500D01*
X143905000Y-56433500D01*
X143906204Y-56408996D01*
X143909804Y-56384727D01*
X143915765Y-56360929D01*
X143924030Y-56337829D01*
X143934520Y-56315651D01*
X143947133Y-56294607D01*
X143961747Y-56274902D01*
X143978223Y-56256723D01*
X143996402Y-56240247D01*
X144016107Y-56225633D01*
X144037151Y-56213020D01*
X144059329Y-56202530D01*
X144082429Y-56194265D01*
X144106227Y-56188304D01*
X144130496Y-56184704D01*
X144155000Y-56183500D01*
X145405000Y-56183500D01*
X145429504Y-56184704D01*
X145429504Y-56184704D01*
G37*
D31*
X144780000Y-56896000D03*
D14*
G36*
X145429504Y-59159704D02*
G01*
X145453773Y-59163304D01*
X145477571Y-59169265D01*
X145500671Y-59177530D01*
X145522849Y-59188020D01*
X145543893Y-59200633D01*
X145563598Y-59215247D01*
X145581777Y-59231723D01*
X145598253Y-59249902D01*
X145612867Y-59269607D01*
X145625480Y-59290651D01*
X145635970Y-59312829D01*
X145644235Y-59335929D01*
X145650196Y-59359727D01*
X145653796Y-59383996D01*
X145655000Y-59408500D01*
X145655000Y-60333500D01*
X145653796Y-60358004D01*
X145650196Y-60382273D01*
X145644235Y-60406071D01*
X145635970Y-60429171D01*
X145625480Y-60451349D01*
X145612867Y-60472393D01*
X145598253Y-60492098D01*
X145581777Y-60510277D01*
X145563598Y-60526753D01*
X145543893Y-60541367D01*
X145522849Y-60553980D01*
X145500671Y-60564470D01*
X145477571Y-60572735D01*
X145453773Y-60578696D01*
X145429504Y-60582296D01*
X145405000Y-60583500D01*
X144155000Y-60583500D01*
X144130496Y-60582296D01*
X144106227Y-60578696D01*
X144082429Y-60572735D01*
X144059329Y-60564470D01*
X144037151Y-60553980D01*
X144016107Y-60541367D01*
X143996402Y-60526753D01*
X143978223Y-60510277D01*
X143961747Y-60492098D01*
X143947133Y-60472393D01*
X143934520Y-60451349D01*
X143924030Y-60429171D01*
X143915765Y-60406071D01*
X143909804Y-60382273D01*
X143906204Y-60358004D01*
X143905000Y-60333500D01*
X143905000Y-59408500D01*
X143906204Y-59383996D01*
X143909804Y-59359727D01*
X143915765Y-59335929D01*
X143924030Y-59312829D01*
X143934520Y-59290651D01*
X143947133Y-59269607D01*
X143961747Y-59249902D01*
X143978223Y-59231723D01*
X143996402Y-59215247D01*
X144016107Y-59200633D01*
X144037151Y-59188020D01*
X144059329Y-59177530D01*
X144082429Y-59169265D01*
X144106227Y-59163304D01*
X144130496Y-59159704D01*
X144155000Y-59158500D01*
X145405000Y-59158500D01*
X145429504Y-59159704D01*
X145429504Y-59159704D01*
G37*
D31*
X144780000Y-59871000D03*
D32*
X146304000Y-65532000D03*
X146304000Y-64008000D03*
D33*
X140208000Y-67056000D03*
X140208000Y-68580000D03*
X140208000Y-70104000D03*
X140208000Y-71628000D03*
X138430000Y-71628000D03*
X138430000Y-70104000D03*
X138430000Y-68580000D03*
X138430000Y-67056000D03*
X136652000Y-71628000D03*
X136652000Y-70104000D03*
X136652000Y-68580000D03*
X136652000Y-67056000D03*
X179340000Y-63770000D03*
X179340000Y-76692010D03*
X179340000Y-89678000D03*
D34*
X144780000Y-54102000D03*
X133132500Y-76236500D03*
D32*
X138938000Y-76200000D03*
X149860000Y-58420000D03*
X159512011Y-83058011D03*
X158369004Y-84201000D03*
D33*
X166624000Y-92456000D03*
X162560000Y-94996000D03*
X165100000Y-88900000D03*
X151638000Y-80264000D03*
X148082000Y-90424000D03*
X146812000Y-87629930D03*
X152908000Y-82621000D03*
X154813000Y-77089000D03*
X157676307Y-78289693D03*
X156362943Y-72415943D03*
X159258000Y-87884000D03*
X156845000Y-91122502D03*
X162615186Y-78414186D03*
D35*
X179340000Y-65278000D02*
X179340000Y-63770000D01*
X179340000Y-78232000D02*
X179340000Y-76692010D01*
X179340000Y-91214000D02*
X179340000Y-89678000D01*
D36*
X144780000Y-56896000D02*
X144780000Y-54102000D01*
X133132500Y-78740000D02*
X133132500Y-76236500D01*
X138938000Y-78232000D02*
X138938000Y-77657000D01*
X138938000Y-77657000D02*
X138938000Y-76200000D01*
D37*
X149860000Y-60339000D02*
X149860000Y-59714000D01*
X149860000Y-59714000D02*
X149860000Y-58420000D01*
X146304000Y-62166500D02*
X146304000Y-63423800D01*
D35*
X146304000Y-64833500D02*
X146304000Y-66167000D01*
D38*
X159431067Y-83058011D02*
X159512011Y-83058011D01*
X157863324Y-81490268D02*
X159431067Y-83058011D01*
X158311314Y-84201000D02*
X158369004Y-84201000D01*
X156731953Y-82621639D02*
X158311314Y-84201000D01*
D35*
X165608000Y-91440000D02*
X166624000Y-92456000D01*
X163465282Y-94090718D02*
X163023341Y-94532659D01*
X163023341Y-94532659D02*
X162560000Y-94996000D01*
D38*
X164360509Y-89118823D02*
X164881177Y-89118823D01*
X163308047Y-88066361D02*
X164360509Y-89118823D01*
X164881177Y-89118823D02*
X165100000Y-88900000D01*
D35*
X150227000Y-80264000D02*
X151638000Y-80264000D01*
X149493000Y-90424000D02*
X148868000Y-90424000D01*
X148868000Y-90424000D02*
X148082000Y-90424000D01*
X146851070Y-87669000D02*
X146812000Y-87629930D01*
X148435000Y-87669000D02*
X146851070Y-87669000D01*
X152510000Y-83019000D02*
X152908000Y-82621000D01*
X151285000Y-83019000D02*
X152510000Y-83019000D01*
D38*
X155737821Y-76164179D02*
X155163297Y-76738703D01*
X155163297Y-76738703D02*
X154813000Y-77089000D01*
X156828718Y-79137282D02*
X157676307Y-78289693D01*
D37*
X147873000Y-62089000D02*
X147804000Y-62020000D01*
X149860000Y-62089000D02*
X147873000Y-62089000D01*
D35*
X147969000Y-73465000D02*
X147894000Y-73390000D01*
X147969000Y-74930000D02*
X147969000Y-73465000D01*
D37*
X147828000Y-61996000D02*
X147804000Y-62020000D01*
X147828000Y-56388000D02*
X147828000Y-61996000D01*
D35*
X165928000Y-75372000D02*
X166116000Y-75184000D01*
X164576000Y-75372000D02*
X165928000Y-75372000D01*
D37*
X168794010Y-73775990D02*
X167386000Y-75184000D01*
X168794010Y-63511010D02*
X168794010Y-73775990D01*
X167386000Y-75184000D02*
X166116000Y-75184000D01*
X149860000Y-62089000D02*
X167372000Y-62089000D01*
X167372000Y-62089000D02*
X168794010Y-63511010D01*
D35*
X164576000Y-75372000D02*
X164526000Y-75372000D01*
X154669060Y-73826982D02*
X152515052Y-75980990D01*
X152515052Y-75980990D02*
X149019990Y-75980990D01*
X148468072Y-75429072D02*
X147969000Y-74930000D01*
X149019990Y-75980990D02*
X148468072Y-75429072D01*
X164526000Y-75372000D02*
X161412000Y-78486000D01*
X161412000Y-78486000D02*
X160481514Y-78486000D01*
X160481514Y-78486000D02*
X155822496Y-73826982D01*
X155822496Y-73826982D02*
X154669060Y-73826982D01*
D36*
X140710000Y-78210000D02*
X140688000Y-78232000D01*
X140688000Y-81252000D02*
X140716000Y-81280000D01*
X140710000Y-75328000D02*
X140710000Y-75828000D01*
X148645990Y-67392010D02*
X140710000Y-75328000D01*
X156210000Y-69596000D02*
X156210000Y-68490020D01*
X156210000Y-68490020D02*
X155111990Y-67392010D01*
D35*
X150594000Y-67592000D02*
X150793990Y-67392010D01*
X150594000Y-69850000D02*
X150594000Y-67592000D01*
D36*
X155111990Y-67392010D02*
X150793990Y-67392010D01*
X150793990Y-67392010D02*
X148645990Y-67392010D01*
D38*
X157272517Y-82055953D02*
X155591282Y-80374718D01*
X157297639Y-82055953D02*
X157272517Y-82055953D01*
X155149341Y-80816659D02*
X155591282Y-80374718D01*
X155149341Y-82170397D02*
X155149341Y-80816659D01*
X156166268Y-83187324D02*
X155149341Y-82170397D01*
D37*
X153634179Y-78417615D02*
X155591282Y-80374718D01*
X153634179Y-78267821D02*
X153634179Y-78417615D01*
X140723821Y-78267821D02*
X140688000Y-78232000D01*
X141755821Y-78267821D02*
X140710000Y-77222000D01*
X142458179Y-78267821D02*
X140723821Y-78267821D01*
D36*
X140710000Y-75828000D02*
X140710000Y-77222000D01*
D37*
X142458179Y-78267821D02*
X141755821Y-78267821D01*
X153634179Y-78267821D02*
X142458179Y-78267821D01*
D36*
X140710000Y-77222000D02*
X140710000Y-78210000D01*
D37*
X141755821Y-78406179D02*
X140688000Y-79474000D01*
X141755821Y-78267821D02*
X141755821Y-78406179D01*
D36*
X140688000Y-78232000D02*
X140688000Y-79474000D01*
X140688000Y-79474000D02*
X140688000Y-81252000D01*
D37*
X150631533Y-94598718D02*
X151336782Y-94598718D01*
X149335718Y-94598718D02*
X150631533Y-94598718D01*
X140716000Y-81280000D02*
X140716000Y-85979000D01*
X140716000Y-85979000D02*
X149335718Y-94598718D01*
X152940564Y-96202500D02*
X151336782Y-94598718D01*
X152971500Y-96202500D02*
X152940564Y-96202500D01*
X163781314Y-106172000D02*
X162560000Y-106172000D01*
X161357920Y-93404080D02*
X161357920Y-96075706D01*
X164870510Y-105082804D02*
X163781314Y-106172000D01*
X161835216Y-92926784D02*
X161357920Y-93404080D01*
X161357920Y-96075706D02*
X164870510Y-99588296D01*
X164870510Y-99588296D02*
X164870510Y-105082804D01*
X153035000Y-96266000D02*
X153035000Y-107632500D01*
X153035000Y-107632500D02*
X153924000Y-108521500D01*
X162560000Y-107505500D02*
X162560000Y-106172000D01*
X153924000Y-108521500D02*
X161544000Y-108521500D01*
X152971500Y-96202500D02*
X153035000Y-96266000D01*
X161544000Y-108521500D02*
X162560000Y-107505500D01*
D35*
X161036000Y-72644000D02*
X156591000Y-72644000D01*
X156591000Y-72644000D02*
X156362943Y-72415943D01*
X181400000Y-92964000D02*
X179340000Y-92964000D01*
X170468427Y-92964000D02*
X164439417Y-86934990D01*
X179340000Y-92964000D02*
X170468427Y-92964000D01*
X181231000Y-79982000D02*
X181259000Y-80010000D01*
X179340000Y-79982000D02*
X181231000Y-79982000D01*
X168297798Y-89662000D02*
X165005103Y-86369305D01*
X169672000Y-89662000D02*
X168297798Y-89662000D01*
X179340000Y-79982000D02*
X179340000Y-79994000D01*
X179340000Y-79994000D02*
X169672000Y-89662000D01*
X179368000Y-67056000D02*
X179340000Y-67028000D01*
X181259000Y-67056000D02*
X179368000Y-67056000D01*
X179340000Y-69983798D02*
X165005103Y-84318695D01*
X179340000Y-67028000D02*
X179340000Y-69983798D01*
X162800047Y-88632047D02*
X164370564Y-90202564D01*
X162742361Y-88632047D02*
X162800047Y-88632047D01*
X186452000Y-95504000D02*
X167351573Y-95504000D01*
X186452000Y-95504000D02*
X188214000Y-95504000D01*
X188214000Y-95504000D02*
X188976000Y-94742000D01*
X188976000Y-72120000D02*
X186452000Y-69596000D01*
X188976000Y-82550000D02*
X188976000Y-81788000D01*
X188976000Y-81788000D02*
X188976000Y-72120000D01*
X188976000Y-82042000D02*
X188468000Y-82550000D01*
X188976000Y-81788000D02*
X188976000Y-82042000D01*
X188468000Y-82550000D02*
X188976000Y-82550000D01*
X186452000Y-82550000D02*
X188468000Y-82550000D01*
X188976000Y-83058000D02*
X188468000Y-82550000D01*
X188976000Y-83058000D02*
X188976000Y-82550000D01*
X188976000Y-94742000D02*
X188976000Y-83058000D01*
X163284784Y-91437211D02*
X161610990Y-89763417D01*
X163284784Y-91477216D02*
X163284784Y-91437211D01*
X163284784Y-91477216D02*
X163324789Y-91477216D01*
X163326652Y-91477216D02*
X164702718Y-92853282D01*
X163284784Y-91477216D02*
X163326652Y-91477216D01*
X164702718Y-92855145D02*
X167351573Y-95504000D01*
X164702718Y-92853282D02*
X164702718Y-92855145D01*
X152654000Y-85344000D02*
X150114000Y-85344000D01*
X150114000Y-85344000D02*
X148435000Y-83665000D01*
X153162000Y-84836000D02*
X152654000Y-85344000D01*
X155600583Y-83753010D02*
X155600583Y-83718583D01*
X155600583Y-83718583D02*
X154686000Y-82804000D01*
X154686000Y-82804000D02*
X154178000Y-82804000D01*
X148435000Y-83665000D02*
X148435000Y-83019000D01*
X154178000Y-82804000D02*
X153162000Y-83820000D01*
X153162000Y-83820000D02*
X153162000Y-84836000D01*
X148477000Y-82977000D02*
X148435000Y-83019000D01*
X148477000Y-80264000D02*
X148477000Y-82977000D01*
X151684592Y-87669000D02*
X155034897Y-84318695D01*
X151285000Y-87669000D02*
X151684592Y-87669000D01*
X151243000Y-87711000D02*
X151285000Y-87669000D01*
X151243000Y-90424000D02*
X151243000Y-87711000D01*
X152574218Y-93297782D02*
X153934932Y-91937068D01*
X152574218Y-93361282D02*
X152574218Y-93297782D01*
X155442186Y-90487500D02*
X157297639Y-88632047D01*
X155384500Y-90487500D02*
X155442186Y-90487500D01*
X157480000Y-98961000D02*
X154721500Y-96202500D01*
X157480000Y-103632000D02*
X157480000Y-98961000D01*
X162105966Y-82692348D02*
X162105966Y-85036034D01*
X162742361Y-82055953D02*
X162105966Y-82692348D01*
X162105966Y-85036034D02*
X159258000Y-87884000D01*
X154721500Y-93246002D02*
X154721500Y-96202500D01*
X156845000Y-91122502D02*
X154721500Y-93246002D01*
D39*
X157797500Y-95131620D02*
X157797500Y-90394927D01*
X158686500Y-96020620D02*
X157797500Y-95131620D01*
X157797500Y-90394927D02*
X158429010Y-89763417D01*
X158686500Y-103042370D02*
X158686500Y-96020620D01*
X160020000Y-106172000D02*
X158686500Y-104838500D01*
X158686500Y-104838500D02*
X158686500Y-104221630D01*
X158686500Y-104221630D02*
X158693601Y-104214529D01*
X158693601Y-104214529D02*
X158693601Y-103049471D01*
X158693601Y-103049471D02*
X158686500Y-103042370D01*
X160780141Y-90594267D02*
X161045305Y-90329103D01*
X158877000Y-92497408D02*
X160780141Y-90594267D01*
X158877000Y-94796880D02*
X158877000Y-92497408D01*
X163703601Y-104845601D02*
X164020500Y-104528702D01*
X160020000Y-103632000D02*
X161233601Y-104845601D01*
X164020500Y-104528702D02*
X164020500Y-99940380D01*
X161233601Y-104845601D02*
X163703601Y-104845601D01*
X164020500Y-99940380D02*
X158877000Y-94796880D01*
X162560000Y-102468400D02*
X162560000Y-103632000D01*
X162560000Y-99187000D02*
X162560000Y-102468400D01*
X158369000Y-94996000D02*
X162560000Y-99187000D01*
X158994695Y-90329103D02*
X158369000Y-90954798D01*
X158369000Y-90954798D02*
X158369000Y-94996000D01*
D35*
X183150000Y-92964000D02*
X186452000Y-92964000D01*
X186452000Y-80010000D02*
X183009000Y-80010000D01*
X186452000Y-67056000D02*
X183009000Y-67056000D01*
X149719000Y-73465000D02*
X149794000Y-73390000D01*
X149719000Y-74930000D02*
X149719000Y-73465000D01*
X162980001Y-70445999D02*
X163830000Y-69596000D01*
X156273500Y-71374000D02*
X162052000Y-71374000D01*
X152717500Y-74930000D02*
X156273500Y-71374000D01*
X149719000Y-74930000D02*
X152717500Y-74930000D01*
X162052000Y-71374000D02*
X162980001Y-70445999D01*
X164614000Y-73434000D02*
X164576000Y-73472000D01*
X166116000Y-73434000D02*
X164614000Y-73434000D01*
X162814000Y-68072000D02*
X162139999Y-68746001D01*
X167259000Y-68072000D02*
X162814000Y-68072000D01*
X162139999Y-68746001D02*
X161290000Y-69596000D01*
X167894000Y-68707000D02*
X167259000Y-68072000D01*
X164576000Y-72279000D02*
X165481000Y-71374000D01*
X164576000Y-73472000D02*
X164576000Y-72279000D01*
X165481000Y-71374000D02*
X167259000Y-71374000D01*
X167259000Y-71374000D02*
X167894000Y-70739000D01*
X167894000Y-70739000D02*
X167894000Y-68707000D01*
X161064000Y-74422000D02*
X161036000Y-74394000D01*
X162576000Y-74422000D02*
X161064000Y-74422000D01*
X163195000Y-80471944D02*
X163195000Y-78994000D01*
X162176676Y-81490268D02*
X163195000Y-80471944D01*
X163195000Y-78994000D02*
X162560000Y-78359000D01*
X162560000Y-78359000D02*
X162615186Y-78414186D01*
X158849000Y-74394000D02*
X158750000Y-74295000D01*
X161036000Y-74394000D02*
X158849000Y-74394000D01*
X148844000Y-69850000D02*
X148844000Y-71390000D01*
X148844000Y-71390000D02*
X150638000Y-71390000D01*
X147043990Y-75431566D02*
X147043990Y-72390010D01*
X148193424Y-76581000D02*
X147043990Y-75431566D01*
X152881464Y-76581000D02*
X148193424Y-76581000D01*
X162179000Y-80179812D02*
X162205455Y-80153357D01*
X162179000Y-79795520D02*
X162179000Y-79629000D01*
X160267972Y-79121000D02*
X155573964Y-74426992D01*
X161610990Y-80924583D02*
X162179000Y-80356573D01*
X148044000Y-71390000D02*
X148844000Y-71390000D01*
X162179000Y-80356573D02*
X162179000Y-80179812D01*
X162205455Y-79821975D02*
X162179000Y-79795520D01*
X162205455Y-80153357D02*
X162205455Y-79821975D01*
X162179000Y-79629000D02*
X161671000Y-79121000D01*
X155035472Y-74426992D02*
X152881464Y-76581000D01*
X161671000Y-79121000D02*
X160267972Y-79121000D01*
X147043990Y-72390010D02*
X148044000Y-71390000D01*
X155573964Y-74426992D02*
X155035472Y-74426992D01*
X152146000Y-72898000D02*
X150638000Y-71390000D01*
D36*
X136150000Y-78697500D02*
X136107500Y-78740000D01*
X136150000Y-75828000D02*
X136150000Y-78697500D01*
X136144000Y-78776500D02*
X136107500Y-78740000D01*
X136144000Y-88646000D02*
X136144000Y-78776500D01*
X136471000Y-59871000D02*
X144780000Y-59871000D01*
X135772000Y-75828000D02*
X133350000Y-73406000D01*
X136150000Y-75828000D02*
X135772000Y-75828000D01*
X133350000Y-73406000D02*
X133350000Y-62738000D01*
X133350000Y-62738000D02*
X136217000Y-59871000D01*
X136217000Y-59871000D02*
X136471000Y-59871000D01*
D37*
X144804000Y-59895000D02*
X144780000Y-59871000D01*
X144804000Y-62020000D02*
X144804000Y-59895000D01*
M02*
