G04 #@! TF.GenerationSoftware,KiCad,Pcbnew,5.1.4+dfsg1-1*
G04 #@! TF.CreationDate,2019-10-01T15:37:08+02:00*
G04 #@! TF.ProjectId,joystick-pcb,6a6f7973-7469-4636-9b2d-7063622e6b69,1*
G04 #@! TF.SameCoordinates,Original*
G04 #@! TF.FileFunction,Copper,L2,Bot*
G04 #@! TF.FilePolarity,Positive*
%FSLAX46Y46*%
G04 Gerber Fmt 4.6, Leading zero omitted, Abs format (unit mm)*
G04 Created by KiCad (PCBNEW 5.1.4+dfsg1-1) date 2019-10-01 15:37:08*
%MOMM*%
%LPD*%
G04 APERTURE LIST*
%ADD10C,2.600000*%
%ADD11R,2.600000X2.600000*%
%ADD12C,2.000000*%
%ADD13O,1.700000X1.700000*%
%ADD14R,1.700000X1.700000*%
%ADD15O,1.727200X1.727200*%
%ADD16R,1.727200X1.727200*%
%ADD17C,1.200000*%
%ADD18C,0.800000*%
%ADD19C,2.400000*%
%ADD20C,0.400000*%
%ADD21C,0.254000*%
G04 APERTURE END LIST*
D10*
X136144000Y-88646000D03*
D11*
X136144000Y-93726000D03*
D12*
X144018000Y-104902000D03*
X152146000Y-72898000D03*
X158750000Y-74295000D03*
X140716000Y-81280000D03*
X147828000Y-56388000D03*
D13*
X166370000Y-69596000D03*
X163830000Y-69596000D03*
X161290000Y-69596000D03*
X158750000Y-69596000D03*
X156210000Y-69596000D03*
D14*
X153670000Y-69596000D03*
D13*
X186452000Y-64516000D03*
X186452000Y-67056000D03*
D14*
X186452000Y-69596000D03*
D13*
X186452000Y-77470000D03*
X186452000Y-80010000D03*
D14*
X186452000Y-82550000D03*
D13*
X186452000Y-90424000D03*
X186452000Y-92964000D03*
D14*
X186452000Y-95504000D03*
D15*
X157480000Y-106172000D03*
X157480000Y-103632000D03*
X160020000Y-106172000D03*
X160020000Y-103632000D03*
X162560000Y-106172000D03*
D16*
X162560000Y-103632000D03*
D17*
X146304000Y-65532000D03*
X146304000Y-64008000D03*
D18*
X140208000Y-67056000D03*
X140208000Y-68580000D03*
X140208000Y-70104000D03*
X140208000Y-71628000D03*
X138430000Y-71628000D03*
X138430000Y-70104000D03*
X138430000Y-68580000D03*
X138430000Y-67056000D03*
X136652000Y-71628000D03*
X136652000Y-70104000D03*
X136652000Y-68580000D03*
X136652000Y-67056000D03*
X179340000Y-63770000D03*
X179340000Y-76692010D03*
X179340000Y-89678000D03*
D19*
X144780000Y-54102000D03*
X133132500Y-76236500D03*
D17*
X138938000Y-76200000D03*
X149860000Y-58420000D03*
X159512011Y-83058011D03*
X158369004Y-84201000D03*
D18*
X166624000Y-92456000D03*
X162560000Y-94996000D03*
X165100000Y-88900000D03*
X151638000Y-80264000D03*
X148082000Y-90424000D03*
X146812000Y-87629930D03*
X152908000Y-82621000D03*
X154813000Y-77089000D03*
X157676307Y-78289693D03*
X156362943Y-72415943D03*
X159258000Y-87884000D03*
X156845000Y-91122502D03*
X162615186Y-78414186D03*
D20*
X156210000Y-72263000D02*
X156362943Y-72415943D01*
X156210000Y-69596000D02*
X156210000Y-72263000D01*
X158692315Y-87884000D02*
X156660315Y-89916000D01*
X159258000Y-87884000D02*
X158692315Y-87884000D01*
X159258000Y-87884000D02*
X156654500Y-90487500D01*
X159258000Y-87884000D02*
X156845000Y-90297000D01*
X156845000Y-90556817D02*
X156845000Y-91122502D01*
X156845000Y-90297000D02*
X156845000Y-90556817D01*
X162615186Y-78414186D02*
X162615186Y-78287186D01*
X158750000Y-74549000D02*
X158750000Y-74295000D01*
X162615186Y-78414186D02*
X158750000Y-74549000D01*
D21*
G36*
X185728081Y-50953497D02*
G01*
X186433147Y-51146381D01*
X187092916Y-51461075D01*
X187686527Y-51887628D01*
X188195221Y-52412559D01*
X188602920Y-53019279D01*
X188896734Y-53688605D01*
X189069011Y-54406191D01*
X189115000Y-55032447D01*
X189115001Y-104960579D01*
X189046503Y-105728082D01*
X188853619Y-106433147D01*
X188538926Y-107092914D01*
X188112372Y-107686526D01*
X187587438Y-108195223D01*
X186980723Y-108602919D01*
X186311395Y-108896734D01*
X185593810Y-109069011D01*
X184967554Y-109115000D01*
X135039409Y-109115000D01*
X134271918Y-109046503D01*
X133566853Y-108853619D01*
X132907086Y-108538926D01*
X132313474Y-108112372D01*
X131804777Y-107587438D01*
X131397081Y-106980723D01*
X131103266Y-106311395D01*
X130930989Y-105593810D01*
X130885000Y-104967554D01*
X130885000Y-104779872D01*
X132765000Y-104779872D01*
X132765000Y-105220128D01*
X132850890Y-105651925D01*
X133019369Y-106058669D01*
X133263962Y-106424729D01*
X133575271Y-106736038D01*
X133941331Y-106980631D01*
X134348075Y-107149110D01*
X134779872Y-107235000D01*
X135220128Y-107235000D01*
X135651925Y-107149110D01*
X136058669Y-106980631D01*
X136377695Y-106767465D01*
X156104767Y-106767465D01*
X156247361Y-107024318D01*
X156437325Y-107248417D01*
X156667358Y-107431150D01*
X156884537Y-107547218D01*
X157107000Y-107458883D01*
X157107000Y-106545000D01*
X156187297Y-106545000D01*
X156104767Y-106767465D01*
X136377695Y-106767465D01*
X136424729Y-106736038D01*
X136736038Y-106424729D01*
X136898540Y-106181527D01*
X143265974Y-106181527D01*
X143379302Y-106415678D01*
X143686877Y-106511197D01*
X144007178Y-106544875D01*
X144327895Y-106515418D01*
X144636703Y-106423960D01*
X144656698Y-106415678D01*
X144770026Y-106181527D01*
X144018000Y-105429502D01*
X143265974Y-106181527D01*
X136898540Y-106181527D01*
X136980631Y-106058669D01*
X137149110Y-105651925D01*
X137235000Y-105220128D01*
X137235000Y-104891178D01*
X142375125Y-104891178D01*
X142404582Y-105211895D01*
X142496040Y-105520703D01*
X142504322Y-105540698D01*
X142738473Y-105654026D01*
X143490498Y-104902000D01*
X144545502Y-104902000D01*
X145297527Y-105654026D01*
X145531678Y-105540698D01*
X145627197Y-105233123D01*
X145660875Y-104912822D01*
X145631418Y-104592105D01*
X145539960Y-104283297D01*
X145531678Y-104263302D01*
X145297527Y-104149974D01*
X144545502Y-104902000D01*
X143490498Y-104902000D01*
X142738473Y-104149974D01*
X142504322Y-104263302D01*
X142408803Y-104570877D01*
X142375125Y-104891178D01*
X137235000Y-104891178D01*
X137235000Y-104779872D01*
X137149110Y-104348075D01*
X136980631Y-103941331D01*
X136767578Y-103622473D01*
X143265974Y-103622473D01*
X144018000Y-104374498D01*
X144760498Y-103632000D01*
X155974149Y-103632000D01*
X156003084Y-103925777D01*
X156088775Y-104208264D01*
X156227931Y-104468606D01*
X156415203Y-104696797D01*
X156643394Y-104884069D01*
X156682300Y-104904865D01*
X156667358Y-104912850D01*
X156437325Y-105095583D01*
X156247361Y-105319682D01*
X156104767Y-105576535D01*
X156187297Y-105799000D01*
X157107000Y-105799000D01*
X157107000Y-105779000D01*
X157853000Y-105779000D01*
X157853000Y-105799000D01*
X157873000Y-105799000D01*
X157873000Y-106545000D01*
X157853000Y-106545000D01*
X157853000Y-107458883D01*
X158075463Y-107547218D01*
X158292642Y-107431150D01*
X158522675Y-107248417D01*
X158712639Y-107024318D01*
X158745087Y-106965869D01*
X158767931Y-107008606D01*
X158955203Y-107236797D01*
X159183394Y-107424069D01*
X159443736Y-107563225D01*
X159726223Y-107648916D01*
X159946381Y-107670600D01*
X160093619Y-107670600D01*
X160313777Y-107648916D01*
X160596264Y-107563225D01*
X160856606Y-107424069D01*
X161084797Y-107236797D01*
X161272069Y-107008606D01*
X161290000Y-106975060D01*
X161307931Y-107008606D01*
X161495203Y-107236797D01*
X161723394Y-107424069D01*
X161983736Y-107563225D01*
X162266223Y-107648916D01*
X162486381Y-107670600D01*
X162633619Y-107670600D01*
X162853777Y-107648916D01*
X163136264Y-107563225D01*
X163396606Y-107424069D01*
X163624797Y-107236797D01*
X163812069Y-107008606D01*
X163951225Y-106748264D01*
X164036916Y-106465777D01*
X164065851Y-106172000D01*
X164036916Y-105878223D01*
X163951225Y-105595736D01*
X163812069Y-105335394D01*
X163624797Y-105107203D01*
X163616735Y-105100586D01*
X163667780Y-105085102D01*
X163778094Y-105026137D01*
X163874785Y-104946785D01*
X163954137Y-104850094D01*
X163991672Y-104779872D01*
X182765000Y-104779872D01*
X182765000Y-105220128D01*
X182850890Y-105651925D01*
X183019369Y-106058669D01*
X183263962Y-106424729D01*
X183575271Y-106736038D01*
X183941331Y-106980631D01*
X184348075Y-107149110D01*
X184779872Y-107235000D01*
X185220128Y-107235000D01*
X185651925Y-107149110D01*
X186058669Y-106980631D01*
X186424729Y-106736038D01*
X186736038Y-106424729D01*
X186980631Y-106058669D01*
X187149110Y-105651925D01*
X187235000Y-105220128D01*
X187235000Y-104779872D01*
X187149110Y-104348075D01*
X186980631Y-103941331D01*
X186736038Y-103575271D01*
X186424729Y-103263962D01*
X186058669Y-103019369D01*
X185651925Y-102850890D01*
X185220128Y-102765000D01*
X184779872Y-102765000D01*
X184348075Y-102850890D01*
X183941331Y-103019369D01*
X183575271Y-103263962D01*
X183263962Y-103575271D01*
X183019369Y-103941331D01*
X182850890Y-104348075D01*
X182765000Y-104779872D01*
X163991672Y-104779872D01*
X164013102Y-104739780D01*
X164049412Y-104620082D01*
X164061672Y-104495600D01*
X164061672Y-102768400D01*
X164049412Y-102643918D01*
X164013102Y-102524220D01*
X163954137Y-102413906D01*
X163874785Y-102317215D01*
X163778094Y-102237863D01*
X163667780Y-102178898D01*
X163548082Y-102142588D01*
X163423600Y-102130328D01*
X161696400Y-102130328D01*
X161571918Y-102142588D01*
X161452220Y-102178898D01*
X161341906Y-102237863D01*
X161245215Y-102317215D01*
X161165863Y-102413906D01*
X161106898Y-102524220D01*
X161091414Y-102575265D01*
X161084797Y-102567203D01*
X160856606Y-102379931D01*
X160596264Y-102240775D01*
X160313777Y-102155084D01*
X160093619Y-102133400D01*
X159946381Y-102133400D01*
X159726223Y-102155084D01*
X159443736Y-102240775D01*
X159183394Y-102379931D01*
X158955203Y-102567203D01*
X158767931Y-102795394D01*
X158750000Y-102828940D01*
X158732069Y-102795394D01*
X158544797Y-102567203D01*
X158316606Y-102379931D01*
X158056264Y-102240775D01*
X157773777Y-102155084D01*
X157553619Y-102133400D01*
X157406381Y-102133400D01*
X157186223Y-102155084D01*
X156903736Y-102240775D01*
X156643394Y-102379931D01*
X156415203Y-102567203D01*
X156227931Y-102795394D01*
X156088775Y-103055736D01*
X156003084Y-103338223D01*
X155974149Y-103632000D01*
X144760498Y-103632000D01*
X144770026Y-103622473D01*
X144656698Y-103388322D01*
X144349123Y-103292803D01*
X144028822Y-103259125D01*
X143708105Y-103288582D01*
X143399297Y-103380040D01*
X143379302Y-103388322D01*
X143265974Y-103622473D01*
X136767578Y-103622473D01*
X136736038Y-103575271D01*
X136424729Y-103263962D01*
X136058669Y-103019369D01*
X135651925Y-102850890D01*
X135220128Y-102765000D01*
X134779872Y-102765000D01*
X134348075Y-102850890D01*
X133941331Y-103019369D01*
X133575271Y-103263962D01*
X133263962Y-103575271D01*
X133019369Y-103941331D01*
X132850890Y-104348075D01*
X132765000Y-104779872D01*
X130885000Y-104779872D01*
X130885000Y-95026000D01*
X134205928Y-95026000D01*
X134218188Y-95150482D01*
X134254498Y-95270180D01*
X134313463Y-95380494D01*
X134392815Y-95477185D01*
X134489506Y-95556537D01*
X134599820Y-95615502D01*
X134719518Y-95651812D01*
X134844000Y-95664072D01*
X135612250Y-95661000D01*
X135771000Y-95502250D01*
X135771000Y-94099000D01*
X136517000Y-94099000D01*
X136517000Y-95502250D01*
X136675750Y-95661000D01*
X137444000Y-95664072D01*
X137568482Y-95651812D01*
X137688180Y-95615502D01*
X137798494Y-95556537D01*
X137895185Y-95477185D01*
X137974537Y-95380494D01*
X138033502Y-95270180D01*
X138069812Y-95150482D01*
X138082072Y-95026000D01*
X138079000Y-94257750D01*
X137920250Y-94099000D01*
X136517000Y-94099000D01*
X135771000Y-94099000D01*
X134367750Y-94099000D01*
X134209000Y-94257750D01*
X134205928Y-95026000D01*
X130885000Y-95026000D01*
X130885000Y-92426000D01*
X134205928Y-92426000D01*
X134209000Y-93194250D01*
X134367750Y-93353000D01*
X135771000Y-93353000D01*
X135771000Y-91949750D01*
X136517000Y-91949750D01*
X136517000Y-93353000D01*
X137920250Y-93353000D01*
X138079000Y-93194250D01*
X138079920Y-92964000D01*
X184959815Y-92964000D01*
X184988487Y-93255111D01*
X185073401Y-93535034D01*
X185211294Y-93793014D01*
X185396866Y-94019134D01*
X185426687Y-94043607D01*
X185357820Y-94064498D01*
X185247506Y-94123463D01*
X185150815Y-94202815D01*
X185071463Y-94299506D01*
X185012498Y-94409820D01*
X184976188Y-94529518D01*
X184963928Y-94654000D01*
X184963928Y-96354000D01*
X184976188Y-96478482D01*
X185012498Y-96598180D01*
X185071463Y-96708494D01*
X185150815Y-96805185D01*
X185247506Y-96884537D01*
X185357820Y-96943502D01*
X185477518Y-96979812D01*
X185602000Y-96992072D01*
X187302000Y-96992072D01*
X187426482Y-96979812D01*
X187546180Y-96943502D01*
X187656494Y-96884537D01*
X187753185Y-96805185D01*
X187832537Y-96708494D01*
X187891502Y-96598180D01*
X187927812Y-96478482D01*
X187940072Y-96354000D01*
X187940072Y-94654000D01*
X187927812Y-94529518D01*
X187891502Y-94409820D01*
X187832537Y-94299506D01*
X187753185Y-94202815D01*
X187656494Y-94123463D01*
X187546180Y-94064498D01*
X187477313Y-94043607D01*
X187507134Y-94019134D01*
X187692706Y-93793014D01*
X187830599Y-93535034D01*
X187915513Y-93255111D01*
X187944185Y-92964000D01*
X187915513Y-92672889D01*
X187830599Y-92392966D01*
X187692706Y-92134986D01*
X187507134Y-91908866D01*
X187281014Y-91723294D01*
X187217379Y-91689280D01*
X187299457Y-91643461D01*
X187521078Y-91454699D01*
X187701615Y-91226328D01*
X187813345Y-91017265D01*
X187724718Y-90797000D01*
X186825000Y-90797000D01*
X186825000Y-90817000D01*
X186079000Y-90817000D01*
X186079000Y-90797000D01*
X185179282Y-90797000D01*
X185090655Y-91017265D01*
X185202385Y-91226328D01*
X185382922Y-91454699D01*
X185604543Y-91643461D01*
X185686621Y-91689280D01*
X185622986Y-91723294D01*
X185396866Y-91908866D01*
X185211294Y-92134986D01*
X185073401Y-92392966D01*
X184988487Y-92672889D01*
X184959815Y-92964000D01*
X138079920Y-92964000D01*
X138082072Y-92426000D01*
X138069812Y-92301518D01*
X138033502Y-92181820D01*
X137974537Y-92071506D01*
X137895185Y-91974815D01*
X137798494Y-91895463D01*
X137688180Y-91836498D01*
X137568482Y-91800188D01*
X137444000Y-91787928D01*
X136675750Y-91791000D01*
X136517000Y-91949750D01*
X135771000Y-91949750D01*
X135612250Y-91791000D01*
X134844000Y-91787928D01*
X134719518Y-91800188D01*
X134599820Y-91836498D01*
X134489506Y-91895463D01*
X134392815Y-91974815D01*
X134313463Y-92071506D01*
X134254498Y-92181820D01*
X134218188Y-92301518D01*
X134205928Y-92426000D01*
X130885000Y-92426000D01*
X130885000Y-91020563D01*
X155810000Y-91020563D01*
X155810000Y-91224441D01*
X155849774Y-91424400D01*
X155927795Y-91612758D01*
X156041063Y-91782276D01*
X156185226Y-91926439D01*
X156354744Y-92039707D01*
X156543102Y-92117728D01*
X156743061Y-92157502D01*
X156946939Y-92157502D01*
X157146898Y-92117728D01*
X157335256Y-92039707D01*
X157504774Y-91926439D01*
X157648937Y-91782276D01*
X157762205Y-91612758D01*
X157840226Y-91424400D01*
X157880000Y-91224441D01*
X157880000Y-91020563D01*
X157840226Y-90820604D01*
X157762205Y-90632246D01*
X157733533Y-90589335D01*
X158492132Y-89830735D01*
X185090655Y-89830735D01*
X185179282Y-90051000D01*
X186079000Y-90051000D01*
X186079000Y-89145343D01*
X186825000Y-89145343D01*
X186825000Y-90051000D01*
X187724718Y-90051000D01*
X187813345Y-89830735D01*
X187701615Y-89621672D01*
X187521078Y-89393301D01*
X187299457Y-89204539D01*
X187045268Y-89062640D01*
X186825000Y-89145343D01*
X186079000Y-89145343D01*
X185858732Y-89062640D01*
X185604543Y-89204539D01*
X185382922Y-89393301D01*
X185202385Y-89621672D01*
X185090655Y-89830735D01*
X158492132Y-89830735D01*
X159414775Y-88908092D01*
X159559898Y-88879226D01*
X159748256Y-88801205D01*
X159917774Y-88687937D01*
X160061937Y-88543774D01*
X160175205Y-88374256D01*
X160253226Y-88185898D01*
X160293000Y-87985939D01*
X160293000Y-87782061D01*
X160253226Y-87582102D01*
X160175205Y-87393744D01*
X160061937Y-87224226D01*
X159917774Y-87080063D01*
X159748256Y-86966795D01*
X159559898Y-86888774D01*
X159359939Y-86849000D01*
X159156061Y-86849000D01*
X158956102Y-86888774D01*
X158767744Y-86966795D01*
X158643577Y-87049760D01*
X158528626Y-87061082D01*
X158371228Y-87108828D01*
X158226169Y-87186364D01*
X158099024Y-87290709D01*
X158072878Y-87322568D01*
X156040877Y-89354571D01*
X155962679Y-89449855D01*
X155885143Y-89594914D01*
X155837397Y-89752312D01*
X155821275Y-89916000D01*
X155837397Y-90079688D01*
X155871516Y-90192165D01*
X155831582Y-90323812D01*
X155815460Y-90487500D01*
X155831582Y-90651188D01*
X155868939Y-90774337D01*
X155849774Y-90820604D01*
X155810000Y-91020563D01*
X130885000Y-91020563D01*
X130885000Y-88455419D01*
X134209000Y-88455419D01*
X134209000Y-88836581D01*
X134283361Y-89210419D01*
X134429225Y-89562566D01*
X134640987Y-89879491D01*
X134910509Y-90149013D01*
X135227434Y-90360775D01*
X135579581Y-90506639D01*
X135953419Y-90581000D01*
X136334581Y-90581000D01*
X136708419Y-90506639D01*
X137060566Y-90360775D01*
X137377491Y-90149013D01*
X137647013Y-89879491D01*
X137858775Y-89562566D01*
X138004639Y-89210419D01*
X138079000Y-88836581D01*
X138079000Y-88455419D01*
X138004639Y-88081581D01*
X137858775Y-87729434D01*
X137647013Y-87412509D01*
X137377491Y-87142987D01*
X137060566Y-86931225D01*
X136708419Y-86785361D01*
X136334581Y-86711000D01*
X135953419Y-86711000D01*
X135579581Y-86785361D01*
X135227434Y-86931225D01*
X134910509Y-87142987D01*
X134640987Y-87412509D01*
X134429225Y-87729434D01*
X134283361Y-88081581D01*
X134209000Y-88455419D01*
X130885000Y-88455419D01*
X130885000Y-81118967D01*
X139081000Y-81118967D01*
X139081000Y-81441033D01*
X139143832Y-81756912D01*
X139267082Y-82054463D01*
X139446013Y-82322252D01*
X139673748Y-82549987D01*
X139941537Y-82728918D01*
X140239088Y-82852168D01*
X140554967Y-82915000D01*
X140877033Y-82915000D01*
X141192912Y-82852168D01*
X141490463Y-82728918D01*
X141758252Y-82549987D01*
X141985987Y-82322252D01*
X142164918Y-82054463D01*
X142288168Y-81756912D01*
X142351000Y-81441033D01*
X142351000Y-81118967D01*
X142288168Y-80803088D01*
X142164918Y-80505537D01*
X141985987Y-80237748D01*
X141758252Y-80010013D01*
X141758233Y-80010000D01*
X184959815Y-80010000D01*
X184988487Y-80301111D01*
X185073401Y-80581034D01*
X185211294Y-80839014D01*
X185396866Y-81065134D01*
X185426687Y-81089607D01*
X185357820Y-81110498D01*
X185247506Y-81169463D01*
X185150815Y-81248815D01*
X185071463Y-81345506D01*
X185012498Y-81455820D01*
X184976188Y-81575518D01*
X184963928Y-81700000D01*
X184963928Y-83400000D01*
X184976188Y-83524482D01*
X185012498Y-83644180D01*
X185071463Y-83754494D01*
X185150815Y-83851185D01*
X185247506Y-83930537D01*
X185357820Y-83989502D01*
X185477518Y-84025812D01*
X185602000Y-84038072D01*
X187302000Y-84038072D01*
X187426482Y-84025812D01*
X187546180Y-83989502D01*
X187656494Y-83930537D01*
X187753185Y-83851185D01*
X187832537Y-83754494D01*
X187891502Y-83644180D01*
X187927812Y-83524482D01*
X187940072Y-83400000D01*
X187940072Y-81700000D01*
X187927812Y-81575518D01*
X187891502Y-81455820D01*
X187832537Y-81345506D01*
X187753185Y-81248815D01*
X187656494Y-81169463D01*
X187546180Y-81110498D01*
X187477313Y-81089607D01*
X187507134Y-81065134D01*
X187692706Y-80839014D01*
X187830599Y-80581034D01*
X187915513Y-80301111D01*
X187944185Y-80010000D01*
X187915513Y-79718889D01*
X187830599Y-79438966D01*
X187692706Y-79180986D01*
X187507134Y-78954866D01*
X187281014Y-78769294D01*
X187217379Y-78735280D01*
X187299457Y-78689461D01*
X187521078Y-78500699D01*
X187701615Y-78272328D01*
X187813345Y-78063265D01*
X187724718Y-77843000D01*
X186825000Y-77843000D01*
X186825000Y-77863000D01*
X186079000Y-77863000D01*
X186079000Y-77843000D01*
X185179282Y-77843000D01*
X185090655Y-78063265D01*
X185202385Y-78272328D01*
X185382922Y-78500699D01*
X185604543Y-78689461D01*
X185686621Y-78735280D01*
X185622986Y-78769294D01*
X185396866Y-78954866D01*
X185211294Y-79180986D01*
X185073401Y-79438966D01*
X184988487Y-79718889D01*
X184959815Y-80010000D01*
X141758233Y-80010000D01*
X141490463Y-79831082D01*
X141192912Y-79707832D01*
X140877033Y-79645000D01*
X140554967Y-79645000D01*
X140239088Y-79707832D01*
X139941537Y-79831082D01*
X139673748Y-80010013D01*
X139446013Y-80237748D01*
X139267082Y-80505537D01*
X139143832Y-80803088D01*
X139081000Y-81118967D01*
X130885000Y-81118967D01*
X130885000Y-72736967D01*
X150511000Y-72736967D01*
X150511000Y-73059033D01*
X150573832Y-73374912D01*
X150697082Y-73672463D01*
X150876013Y-73940252D01*
X151103748Y-74167987D01*
X151371537Y-74346918D01*
X151669088Y-74470168D01*
X151984967Y-74533000D01*
X152307033Y-74533000D01*
X152622912Y-74470168D01*
X152920463Y-74346918D01*
X153188252Y-74167987D01*
X153222272Y-74133967D01*
X157115000Y-74133967D01*
X157115000Y-74456033D01*
X157177832Y-74771912D01*
X157301082Y-75069463D01*
X157480013Y-75337252D01*
X157707748Y-75564987D01*
X157975537Y-75743918D01*
X158273088Y-75867168D01*
X158588967Y-75930000D01*
X158911033Y-75930000D01*
X158943646Y-75923513D01*
X161591094Y-78570961D01*
X161619960Y-78716084D01*
X161697981Y-78904442D01*
X161811249Y-79073960D01*
X161955412Y-79218123D01*
X162124930Y-79331391D01*
X162313288Y-79409412D01*
X162513247Y-79449186D01*
X162717125Y-79449186D01*
X162917084Y-79409412D01*
X163105442Y-79331391D01*
X163274960Y-79218123D01*
X163419123Y-79073960D01*
X163532391Y-78904442D01*
X163610412Y-78716084D01*
X163650186Y-78516125D01*
X163650186Y-78312247D01*
X163610412Y-78112288D01*
X163532391Y-77923930D01*
X163419123Y-77754412D01*
X163274960Y-77610249D01*
X163105442Y-77496981D01*
X162917084Y-77418960D01*
X162771961Y-77390094D01*
X162258602Y-76876735D01*
X185090655Y-76876735D01*
X185179282Y-77097000D01*
X186079000Y-77097000D01*
X186079000Y-76191343D01*
X186825000Y-76191343D01*
X186825000Y-77097000D01*
X187724718Y-77097000D01*
X187813345Y-76876735D01*
X187701615Y-76667672D01*
X187521078Y-76439301D01*
X187299457Y-76250539D01*
X187045268Y-76108640D01*
X186825000Y-76191343D01*
X186079000Y-76191343D01*
X185858732Y-76108640D01*
X185604543Y-76250539D01*
X185382922Y-76439301D01*
X185202385Y-76667672D01*
X185090655Y-76876735D01*
X162258602Y-76876735D01*
X160272848Y-74890981D01*
X160322168Y-74771912D01*
X160385000Y-74456033D01*
X160385000Y-74133967D01*
X160322168Y-73818088D01*
X160198918Y-73520537D01*
X160019987Y-73252748D01*
X159792252Y-73025013D01*
X159524463Y-72846082D01*
X159226912Y-72722832D01*
X158911033Y-72660000D01*
X158588967Y-72660000D01*
X158273088Y-72722832D01*
X157975537Y-72846082D01*
X157707748Y-73025013D01*
X157480013Y-73252748D01*
X157301082Y-73520537D01*
X157177832Y-73818088D01*
X157115000Y-74133967D01*
X153222272Y-74133967D01*
X153415987Y-73940252D01*
X153594918Y-73672463D01*
X153718168Y-73374912D01*
X153781000Y-73059033D01*
X153781000Y-72736967D01*
X153718168Y-72421088D01*
X153594918Y-72123537D01*
X153415987Y-71855748D01*
X153188252Y-71628013D01*
X152920463Y-71449082D01*
X152622912Y-71325832D01*
X152307033Y-71263000D01*
X151984967Y-71263000D01*
X151669088Y-71325832D01*
X151371537Y-71449082D01*
X151103748Y-71628013D01*
X150876013Y-71855748D01*
X150697082Y-72123537D01*
X150573832Y-72421088D01*
X150511000Y-72736967D01*
X130885000Y-72736967D01*
X130885000Y-68746000D01*
X152181928Y-68746000D01*
X152181928Y-70446000D01*
X152194188Y-70570482D01*
X152230498Y-70690180D01*
X152289463Y-70800494D01*
X152368815Y-70897185D01*
X152465506Y-70976537D01*
X152575820Y-71035502D01*
X152695518Y-71071812D01*
X152820000Y-71084072D01*
X154520000Y-71084072D01*
X154644482Y-71071812D01*
X154764180Y-71035502D01*
X154874494Y-70976537D01*
X154971185Y-70897185D01*
X155050537Y-70800494D01*
X155109502Y-70690180D01*
X155130393Y-70621313D01*
X155154866Y-70651134D01*
X155375000Y-70831794D01*
X155375001Y-72096460D01*
X155367717Y-72114045D01*
X155327943Y-72314004D01*
X155327943Y-72517882D01*
X155367717Y-72717841D01*
X155445738Y-72906199D01*
X155559006Y-73075717D01*
X155703169Y-73219880D01*
X155872687Y-73333148D01*
X156061045Y-73411169D01*
X156261004Y-73450943D01*
X156464882Y-73450943D01*
X156664841Y-73411169D01*
X156853199Y-73333148D01*
X157022717Y-73219880D01*
X157166880Y-73075717D01*
X157280148Y-72906199D01*
X157358169Y-72717841D01*
X157397943Y-72517882D01*
X157397943Y-72314004D01*
X157358169Y-72114045D01*
X157280148Y-71925687D01*
X157166880Y-71756169D01*
X157045000Y-71634289D01*
X157045000Y-70831793D01*
X157265134Y-70651134D01*
X157450706Y-70425014D01*
X157484720Y-70361379D01*
X157530539Y-70443457D01*
X157719301Y-70665078D01*
X157947672Y-70845615D01*
X158156735Y-70957345D01*
X158377000Y-70868718D01*
X158377000Y-69969000D01*
X158357000Y-69969000D01*
X158357000Y-69223000D01*
X158377000Y-69223000D01*
X158377000Y-68323282D01*
X159123000Y-68323282D01*
X159123000Y-69223000D01*
X159143000Y-69223000D01*
X159143000Y-69969000D01*
X159123000Y-69969000D01*
X159123000Y-70868718D01*
X159343265Y-70957345D01*
X159552328Y-70845615D01*
X159780699Y-70665078D01*
X159969461Y-70443457D01*
X160015280Y-70361379D01*
X160049294Y-70425014D01*
X160234866Y-70651134D01*
X160460986Y-70836706D01*
X160718966Y-70974599D01*
X160998889Y-71059513D01*
X161217050Y-71081000D01*
X161362950Y-71081000D01*
X161581111Y-71059513D01*
X161861034Y-70974599D01*
X162119014Y-70836706D01*
X162345134Y-70651134D01*
X162530706Y-70425014D01*
X162560000Y-70370209D01*
X162589294Y-70425014D01*
X162774866Y-70651134D01*
X163000986Y-70836706D01*
X163258966Y-70974599D01*
X163538889Y-71059513D01*
X163757050Y-71081000D01*
X163902950Y-71081000D01*
X164121111Y-71059513D01*
X164401034Y-70974599D01*
X164659014Y-70836706D01*
X164885134Y-70651134D01*
X165070706Y-70425014D01*
X165100000Y-70370209D01*
X165129294Y-70425014D01*
X165314866Y-70651134D01*
X165540986Y-70836706D01*
X165798966Y-70974599D01*
X166078889Y-71059513D01*
X166297050Y-71081000D01*
X166442950Y-71081000D01*
X166661111Y-71059513D01*
X166941034Y-70974599D01*
X167199014Y-70836706D01*
X167425134Y-70651134D01*
X167610706Y-70425014D01*
X167748599Y-70167034D01*
X167833513Y-69887111D01*
X167862185Y-69596000D01*
X167833513Y-69304889D01*
X167748599Y-69024966D01*
X167610706Y-68766986D01*
X167425134Y-68540866D01*
X167199014Y-68355294D01*
X166941034Y-68217401D01*
X166661111Y-68132487D01*
X166442950Y-68111000D01*
X166297050Y-68111000D01*
X166078889Y-68132487D01*
X165798966Y-68217401D01*
X165540986Y-68355294D01*
X165314866Y-68540866D01*
X165129294Y-68766986D01*
X165100000Y-68821791D01*
X165070706Y-68766986D01*
X164885134Y-68540866D01*
X164659014Y-68355294D01*
X164401034Y-68217401D01*
X164121111Y-68132487D01*
X163902950Y-68111000D01*
X163757050Y-68111000D01*
X163538889Y-68132487D01*
X163258966Y-68217401D01*
X163000986Y-68355294D01*
X162774866Y-68540866D01*
X162589294Y-68766986D01*
X162560000Y-68821791D01*
X162530706Y-68766986D01*
X162345134Y-68540866D01*
X162119014Y-68355294D01*
X161861034Y-68217401D01*
X161581111Y-68132487D01*
X161362950Y-68111000D01*
X161217050Y-68111000D01*
X160998889Y-68132487D01*
X160718966Y-68217401D01*
X160460986Y-68355294D01*
X160234866Y-68540866D01*
X160049294Y-68766986D01*
X160015280Y-68830621D01*
X159969461Y-68748543D01*
X159780699Y-68526922D01*
X159552328Y-68346385D01*
X159343265Y-68234655D01*
X159123000Y-68323282D01*
X158377000Y-68323282D01*
X158156735Y-68234655D01*
X157947672Y-68346385D01*
X157719301Y-68526922D01*
X157530539Y-68748543D01*
X157484720Y-68830621D01*
X157450706Y-68766986D01*
X157265134Y-68540866D01*
X157039014Y-68355294D01*
X156781034Y-68217401D01*
X156501111Y-68132487D01*
X156282950Y-68111000D01*
X156137050Y-68111000D01*
X155918889Y-68132487D01*
X155638966Y-68217401D01*
X155380986Y-68355294D01*
X155154866Y-68540866D01*
X155130393Y-68570687D01*
X155109502Y-68501820D01*
X155050537Y-68391506D01*
X154971185Y-68294815D01*
X154874494Y-68215463D01*
X154764180Y-68156498D01*
X154644482Y-68120188D01*
X154520000Y-68107928D01*
X152820000Y-68107928D01*
X152695518Y-68120188D01*
X152575820Y-68156498D01*
X152465506Y-68215463D01*
X152368815Y-68294815D01*
X152289463Y-68391506D01*
X152230498Y-68501820D01*
X152194188Y-68621518D01*
X152181928Y-68746000D01*
X130885000Y-68746000D01*
X130885000Y-67056000D01*
X184959815Y-67056000D01*
X184988487Y-67347111D01*
X185073401Y-67627034D01*
X185211294Y-67885014D01*
X185396866Y-68111134D01*
X185426687Y-68135607D01*
X185357820Y-68156498D01*
X185247506Y-68215463D01*
X185150815Y-68294815D01*
X185071463Y-68391506D01*
X185012498Y-68501820D01*
X184976188Y-68621518D01*
X184963928Y-68746000D01*
X184963928Y-70446000D01*
X184976188Y-70570482D01*
X185012498Y-70690180D01*
X185071463Y-70800494D01*
X185150815Y-70897185D01*
X185247506Y-70976537D01*
X185357820Y-71035502D01*
X185477518Y-71071812D01*
X185602000Y-71084072D01*
X187302000Y-71084072D01*
X187426482Y-71071812D01*
X187546180Y-71035502D01*
X187656494Y-70976537D01*
X187753185Y-70897185D01*
X187832537Y-70800494D01*
X187891502Y-70690180D01*
X187927812Y-70570482D01*
X187940072Y-70446000D01*
X187940072Y-68746000D01*
X187927812Y-68621518D01*
X187891502Y-68501820D01*
X187832537Y-68391506D01*
X187753185Y-68294815D01*
X187656494Y-68215463D01*
X187546180Y-68156498D01*
X187477313Y-68135607D01*
X187507134Y-68111134D01*
X187692706Y-67885014D01*
X187830599Y-67627034D01*
X187915513Y-67347111D01*
X187944185Y-67056000D01*
X187915513Y-66764889D01*
X187830599Y-66484966D01*
X187692706Y-66226986D01*
X187507134Y-66000866D01*
X187281014Y-65815294D01*
X187217379Y-65781280D01*
X187299457Y-65735461D01*
X187521078Y-65546699D01*
X187701615Y-65318328D01*
X187813345Y-65109265D01*
X187724718Y-64889000D01*
X186825000Y-64889000D01*
X186825000Y-64909000D01*
X186079000Y-64909000D01*
X186079000Y-64889000D01*
X185179282Y-64889000D01*
X185090655Y-65109265D01*
X185202385Y-65318328D01*
X185382922Y-65546699D01*
X185604543Y-65735461D01*
X185686621Y-65781280D01*
X185622986Y-65815294D01*
X185396866Y-66000866D01*
X185211294Y-66226986D01*
X185073401Y-66484966D01*
X184988487Y-66764889D01*
X184959815Y-67056000D01*
X130885000Y-67056000D01*
X130885000Y-63922735D01*
X185090655Y-63922735D01*
X185179282Y-64143000D01*
X186079000Y-64143000D01*
X186079000Y-63237343D01*
X186825000Y-63237343D01*
X186825000Y-64143000D01*
X187724718Y-64143000D01*
X187813345Y-63922735D01*
X187701615Y-63713672D01*
X187521078Y-63485301D01*
X187299457Y-63296539D01*
X187045268Y-63154640D01*
X186825000Y-63237343D01*
X186079000Y-63237343D01*
X185858732Y-63154640D01*
X185604543Y-63296539D01*
X185382922Y-63485301D01*
X185202385Y-63713672D01*
X185090655Y-63922735D01*
X130885000Y-63922735D01*
X130885000Y-55039410D01*
X130908163Y-54779872D01*
X132765000Y-54779872D01*
X132765000Y-55220128D01*
X132850890Y-55651925D01*
X133019369Y-56058669D01*
X133263962Y-56424729D01*
X133575271Y-56736038D01*
X133941331Y-56980631D01*
X134348075Y-57149110D01*
X134779872Y-57235000D01*
X135220128Y-57235000D01*
X135651925Y-57149110D01*
X136058669Y-56980631D01*
X136424729Y-56736038D01*
X136736038Y-56424729D01*
X136868178Y-56226967D01*
X146193000Y-56226967D01*
X146193000Y-56549033D01*
X146255832Y-56864912D01*
X146379082Y-57162463D01*
X146558013Y-57430252D01*
X146785748Y-57657987D01*
X147053537Y-57836918D01*
X147351088Y-57960168D01*
X147666967Y-58023000D01*
X147989033Y-58023000D01*
X148304912Y-57960168D01*
X148602463Y-57836918D01*
X148870252Y-57657987D01*
X149097987Y-57430252D01*
X149276918Y-57162463D01*
X149400168Y-56864912D01*
X149463000Y-56549033D01*
X149463000Y-56226967D01*
X149400168Y-55911088D01*
X149276918Y-55613537D01*
X149097987Y-55345748D01*
X148870252Y-55118013D01*
X148602463Y-54939082D01*
X148304912Y-54815832D01*
X148124129Y-54779872D01*
X182765000Y-54779872D01*
X182765000Y-55220128D01*
X182850890Y-55651925D01*
X183019369Y-56058669D01*
X183263962Y-56424729D01*
X183575271Y-56736038D01*
X183941331Y-56980631D01*
X184348075Y-57149110D01*
X184779872Y-57235000D01*
X185220128Y-57235000D01*
X185651925Y-57149110D01*
X186058669Y-56980631D01*
X186424729Y-56736038D01*
X186736038Y-56424729D01*
X186980631Y-56058669D01*
X187149110Y-55651925D01*
X187235000Y-55220128D01*
X187235000Y-54779872D01*
X187149110Y-54348075D01*
X186980631Y-53941331D01*
X186736038Y-53575271D01*
X186424729Y-53263962D01*
X186058669Y-53019369D01*
X185651925Y-52850890D01*
X185220128Y-52765000D01*
X184779872Y-52765000D01*
X184348075Y-52850890D01*
X183941331Y-53019369D01*
X183575271Y-53263962D01*
X183263962Y-53575271D01*
X183019369Y-53941331D01*
X182850890Y-54348075D01*
X182765000Y-54779872D01*
X148124129Y-54779872D01*
X147989033Y-54753000D01*
X147666967Y-54753000D01*
X147351088Y-54815832D01*
X147053537Y-54939082D01*
X146785748Y-55118013D01*
X146558013Y-55345748D01*
X146379082Y-55613537D01*
X146255832Y-55911088D01*
X146193000Y-56226967D01*
X136868178Y-56226967D01*
X136980631Y-56058669D01*
X137149110Y-55651925D01*
X137235000Y-55220128D01*
X137235000Y-54779872D01*
X137149110Y-54348075D01*
X136980631Y-53941331D01*
X136736038Y-53575271D01*
X136424729Y-53263962D01*
X136058669Y-53019369D01*
X135651925Y-52850890D01*
X135220128Y-52765000D01*
X134779872Y-52765000D01*
X134348075Y-52850890D01*
X133941331Y-53019369D01*
X133575271Y-53263962D01*
X133263962Y-53575271D01*
X133019369Y-53941331D01*
X132850890Y-54348075D01*
X132765000Y-54779872D01*
X130908163Y-54779872D01*
X130953497Y-54271919D01*
X131146381Y-53566853D01*
X131461075Y-52907084D01*
X131887628Y-52313473D01*
X132412559Y-51804779D01*
X133019279Y-51397080D01*
X133688605Y-51103266D01*
X134406191Y-50930989D01*
X135032447Y-50885000D01*
X184960590Y-50885000D01*
X185728081Y-50953497D01*
X185728081Y-50953497D01*
G37*
X185728081Y-50953497D02*
X186433147Y-51146381D01*
X187092916Y-51461075D01*
X187686527Y-51887628D01*
X188195221Y-52412559D01*
X188602920Y-53019279D01*
X188896734Y-53688605D01*
X189069011Y-54406191D01*
X189115000Y-55032447D01*
X189115001Y-104960579D01*
X189046503Y-105728082D01*
X188853619Y-106433147D01*
X188538926Y-107092914D01*
X188112372Y-107686526D01*
X187587438Y-108195223D01*
X186980723Y-108602919D01*
X186311395Y-108896734D01*
X185593810Y-109069011D01*
X184967554Y-109115000D01*
X135039409Y-109115000D01*
X134271918Y-109046503D01*
X133566853Y-108853619D01*
X132907086Y-108538926D01*
X132313474Y-108112372D01*
X131804777Y-107587438D01*
X131397081Y-106980723D01*
X131103266Y-106311395D01*
X130930989Y-105593810D01*
X130885000Y-104967554D01*
X130885000Y-104779872D01*
X132765000Y-104779872D01*
X132765000Y-105220128D01*
X132850890Y-105651925D01*
X133019369Y-106058669D01*
X133263962Y-106424729D01*
X133575271Y-106736038D01*
X133941331Y-106980631D01*
X134348075Y-107149110D01*
X134779872Y-107235000D01*
X135220128Y-107235000D01*
X135651925Y-107149110D01*
X136058669Y-106980631D01*
X136377695Y-106767465D01*
X156104767Y-106767465D01*
X156247361Y-107024318D01*
X156437325Y-107248417D01*
X156667358Y-107431150D01*
X156884537Y-107547218D01*
X157107000Y-107458883D01*
X157107000Y-106545000D01*
X156187297Y-106545000D01*
X156104767Y-106767465D01*
X136377695Y-106767465D01*
X136424729Y-106736038D01*
X136736038Y-106424729D01*
X136898540Y-106181527D01*
X143265974Y-106181527D01*
X143379302Y-106415678D01*
X143686877Y-106511197D01*
X144007178Y-106544875D01*
X144327895Y-106515418D01*
X144636703Y-106423960D01*
X144656698Y-106415678D01*
X144770026Y-106181527D01*
X144018000Y-105429502D01*
X143265974Y-106181527D01*
X136898540Y-106181527D01*
X136980631Y-106058669D01*
X137149110Y-105651925D01*
X137235000Y-105220128D01*
X137235000Y-104891178D01*
X142375125Y-104891178D01*
X142404582Y-105211895D01*
X142496040Y-105520703D01*
X142504322Y-105540698D01*
X142738473Y-105654026D01*
X143490498Y-104902000D01*
X144545502Y-104902000D01*
X145297527Y-105654026D01*
X145531678Y-105540698D01*
X145627197Y-105233123D01*
X145660875Y-104912822D01*
X145631418Y-104592105D01*
X145539960Y-104283297D01*
X145531678Y-104263302D01*
X145297527Y-104149974D01*
X144545502Y-104902000D01*
X143490498Y-104902000D01*
X142738473Y-104149974D01*
X142504322Y-104263302D01*
X142408803Y-104570877D01*
X142375125Y-104891178D01*
X137235000Y-104891178D01*
X137235000Y-104779872D01*
X137149110Y-104348075D01*
X136980631Y-103941331D01*
X136767578Y-103622473D01*
X143265974Y-103622473D01*
X144018000Y-104374498D01*
X144760498Y-103632000D01*
X155974149Y-103632000D01*
X156003084Y-103925777D01*
X156088775Y-104208264D01*
X156227931Y-104468606D01*
X156415203Y-104696797D01*
X156643394Y-104884069D01*
X156682300Y-104904865D01*
X156667358Y-104912850D01*
X156437325Y-105095583D01*
X156247361Y-105319682D01*
X156104767Y-105576535D01*
X156187297Y-105799000D01*
X157107000Y-105799000D01*
X157107000Y-105779000D01*
X157853000Y-105779000D01*
X157853000Y-105799000D01*
X157873000Y-105799000D01*
X157873000Y-106545000D01*
X157853000Y-106545000D01*
X157853000Y-107458883D01*
X158075463Y-107547218D01*
X158292642Y-107431150D01*
X158522675Y-107248417D01*
X158712639Y-107024318D01*
X158745087Y-106965869D01*
X158767931Y-107008606D01*
X158955203Y-107236797D01*
X159183394Y-107424069D01*
X159443736Y-107563225D01*
X159726223Y-107648916D01*
X159946381Y-107670600D01*
X160093619Y-107670600D01*
X160313777Y-107648916D01*
X160596264Y-107563225D01*
X160856606Y-107424069D01*
X161084797Y-107236797D01*
X161272069Y-107008606D01*
X161290000Y-106975060D01*
X161307931Y-107008606D01*
X161495203Y-107236797D01*
X161723394Y-107424069D01*
X161983736Y-107563225D01*
X162266223Y-107648916D01*
X162486381Y-107670600D01*
X162633619Y-107670600D01*
X162853777Y-107648916D01*
X163136264Y-107563225D01*
X163396606Y-107424069D01*
X163624797Y-107236797D01*
X163812069Y-107008606D01*
X163951225Y-106748264D01*
X164036916Y-106465777D01*
X164065851Y-106172000D01*
X164036916Y-105878223D01*
X163951225Y-105595736D01*
X163812069Y-105335394D01*
X163624797Y-105107203D01*
X163616735Y-105100586D01*
X163667780Y-105085102D01*
X163778094Y-105026137D01*
X163874785Y-104946785D01*
X163954137Y-104850094D01*
X163991672Y-104779872D01*
X182765000Y-104779872D01*
X182765000Y-105220128D01*
X182850890Y-105651925D01*
X183019369Y-106058669D01*
X183263962Y-106424729D01*
X183575271Y-106736038D01*
X183941331Y-106980631D01*
X184348075Y-107149110D01*
X184779872Y-107235000D01*
X185220128Y-107235000D01*
X185651925Y-107149110D01*
X186058669Y-106980631D01*
X186424729Y-106736038D01*
X186736038Y-106424729D01*
X186980631Y-106058669D01*
X187149110Y-105651925D01*
X187235000Y-105220128D01*
X187235000Y-104779872D01*
X187149110Y-104348075D01*
X186980631Y-103941331D01*
X186736038Y-103575271D01*
X186424729Y-103263962D01*
X186058669Y-103019369D01*
X185651925Y-102850890D01*
X185220128Y-102765000D01*
X184779872Y-102765000D01*
X184348075Y-102850890D01*
X183941331Y-103019369D01*
X183575271Y-103263962D01*
X183263962Y-103575271D01*
X183019369Y-103941331D01*
X182850890Y-104348075D01*
X182765000Y-104779872D01*
X163991672Y-104779872D01*
X164013102Y-104739780D01*
X164049412Y-104620082D01*
X164061672Y-104495600D01*
X164061672Y-102768400D01*
X164049412Y-102643918D01*
X164013102Y-102524220D01*
X163954137Y-102413906D01*
X163874785Y-102317215D01*
X163778094Y-102237863D01*
X163667780Y-102178898D01*
X163548082Y-102142588D01*
X163423600Y-102130328D01*
X161696400Y-102130328D01*
X161571918Y-102142588D01*
X161452220Y-102178898D01*
X161341906Y-102237863D01*
X161245215Y-102317215D01*
X161165863Y-102413906D01*
X161106898Y-102524220D01*
X161091414Y-102575265D01*
X161084797Y-102567203D01*
X160856606Y-102379931D01*
X160596264Y-102240775D01*
X160313777Y-102155084D01*
X160093619Y-102133400D01*
X159946381Y-102133400D01*
X159726223Y-102155084D01*
X159443736Y-102240775D01*
X159183394Y-102379931D01*
X158955203Y-102567203D01*
X158767931Y-102795394D01*
X158750000Y-102828940D01*
X158732069Y-102795394D01*
X158544797Y-102567203D01*
X158316606Y-102379931D01*
X158056264Y-102240775D01*
X157773777Y-102155084D01*
X157553619Y-102133400D01*
X157406381Y-102133400D01*
X157186223Y-102155084D01*
X156903736Y-102240775D01*
X156643394Y-102379931D01*
X156415203Y-102567203D01*
X156227931Y-102795394D01*
X156088775Y-103055736D01*
X156003084Y-103338223D01*
X155974149Y-103632000D01*
X144760498Y-103632000D01*
X144770026Y-103622473D01*
X144656698Y-103388322D01*
X144349123Y-103292803D01*
X144028822Y-103259125D01*
X143708105Y-103288582D01*
X143399297Y-103380040D01*
X143379302Y-103388322D01*
X143265974Y-103622473D01*
X136767578Y-103622473D01*
X136736038Y-103575271D01*
X136424729Y-103263962D01*
X136058669Y-103019369D01*
X135651925Y-102850890D01*
X135220128Y-102765000D01*
X134779872Y-102765000D01*
X134348075Y-102850890D01*
X133941331Y-103019369D01*
X133575271Y-103263962D01*
X133263962Y-103575271D01*
X133019369Y-103941331D01*
X132850890Y-104348075D01*
X132765000Y-104779872D01*
X130885000Y-104779872D01*
X130885000Y-95026000D01*
X134205928Y-95026000D01*
X134218188Y-95150482D01*
X134254498Y-95270180D01*
X134313463Y-95380494D01*
X134392815Y-95477185D01*
X134489506Y-95556537D01*
X134599820Y-95615502D01*
X134719518Y-95651812D01*
X134844000Y-95664072D01*
X135612250Y-95661000D01*
X135771000Y-95502250D01*
X135771000Y-94099000D01*
X136517000Y-94099000D01*
X136517000Y-95502250D01*
X136675750Y-95661000D01*
X137444000Y-95664072D01*
X137568482Y-95651812D01*
X137688180Y-95615502D01*
X137798494Y-95556537D01*
X137895185Y-95477185D01*
X137974537Y-95380494D01*
X138033502Y-95270180D01*
X138069812Y-95150482D01*
X138082072Y-95026000D01*
X138079000Y-94257750D01*
X137920250Y-94099000D01*
X136517000Y-94099000D01*
X135771000Y-94099000D01*
X134367750Y-94099000D01*
X134209000Y-94257750D01*
X134205928Y-95026000D01*
X130885000Y-95026000D01*
X130885000Y-92426000D01*
X134205928Y-92426000D01*
X134209000Y-93194250D01*
X134367750Y-93353000D01*
X135771000Y-93353000D01*
X135771000Y-91949750D01*
X136517000Y-91949750D01*
X136517000Y-93353000D01*
X137920250Y-93353000D01*
X138079000Y-93194250D01*
X138079920Y-92964000D01*
X184959815Y-92964000D01*
X184988487Y-93255111D01*
X185073401Y-93535034D01*
X185211294Y-93793014D01*
X185396866Y-94019134D01*
X185426687Y-94043607D01*
X185357820Y-94064498D01*
X185247506Y-94123463D01*
X185150815Y-94202815D01*
X185071463Y-94299506D01*
X185012498Y-94409820D01*
X184976188Y-94529518D01*
X184963928Y-94654000D01*
X184963928Y-96354000D01*
X184976188Y-96478482D01*
X185012498Y-96598180D01*
X185071463Y-96708494D01*
X185150815Y-96805185D01*
X185247506Y-96884537D01*
X185357820Y-96943502D01*
X185477518Y-96979812D01*
X185602000Y-96992072D01*
X187302000Y-96992072D01*
X187426482Y-96979812D01*
X187546180Y-96943502D01*
X187656494Y-96884537D01*
X187753185Y-96805185D01*
X187832537Y-96708494D01*
X187891502Y-96598180D01*
X187927812Y-96478482D01*
X187940072Y-96354000D01*
X187940072Y-94654000D01*
X187927812Y-94529518D01*
X187891502Y-94409820D01*
X187832537Y-94299506D01*
X187753185Y-94202815D01*
X187656494Y-94123463D01*
X187546180Y-94064498D01*
X187477313Y-94043607D01*
X187507134Y-94019134D01*
X187692706Y-93793014D01*
X187830599Y-93535034D01*
X187915513Y-93255111D01*
X187944185Y-92964000D01*
X187915513Y-92672889D01*
X187830599Y-92392966D01*
X187692706Y-92134986D01*
X187507134Y-91908866D01*
X187281014Y-91723294D01*
X187217379Y-91689280D01*
X187299457Y-91643461D01*
X187521078Y-91454699D01*
X187701615Y-91226328D01*
X187813345Y-91017265D01*
X187724718Y-90797000D01*
X186825000Y-90797000D01*
X186825000Y-90817000D01*
X186079000Y-90817000D01*
X186079000Y-90797000D01*
X185179282Y-90797000D01*
X185090655Y-91017265D01*
X185202385Y-91226328D01*
X185382922Y-91454699D01*
X185604543Y-91643461D01*
X185686621Y-91689280D01*
X185622986Y-91723294D01*
X185396866Y-91908866D01*
X185211294Y-92134986D01*
X185073401Y-92392966D01*
X184988487Y-92672889D01*
X184959815Y-92964000D01*
X138079920Y-92964000D01*
X138082072Y-92426000D01*
X138069812Y-92301518D01*
X138033502Y-92181820D01*
X137974537Y-92071506D01*
X137895185Y-91974815D01*
X137798494Y-91895463D01*
X137688180Y-91836498D01*
X137568482Y-91800188D01*
X137444000Y-91787928D01*
X136675750Y-91791000D01*
X136517000Y-91949750D01*
X135771000Y-91949750D01*
X135612250Y-91791000D01*
X134844000Y-91787928D01*
X134719518Y-91800188D01*
X134599820Y-91836498D01*
X134489506Y-91895463D01*
X134392815Y-91974815D01*
X134313463Y-92071506D01*
X134254498Y-92181820D01*
X134218188Y-92301518D01*
X134205928Y-92426000D01*
X130885000Y-92426000D01*
X130885000Y-91020563D01*
X155810000Y-91020563D01*
X155810000Y-91224441D01*
X155849774Y-91424400D01*
X155927795Y-91612758D01*
X156041063Y-91782276D01*
X156185226Y-91926439D01*
X156354744Y-92039707D01*
X156543102Y-92117728D01*
X156743061Y-92157502D01*
X156946939Y-92157502D01*
X157146898Y-92117728D01*
X157335256Y-92039707D01*
X157504774Y-91926439D01*
X157648937Y-91782276D01*
X157762205Y-91612758D01*
X157840226Y-91424400D01*
X157880000Y-91224441D01*
X157880000Y-91020563D01*
X157840226Y-90820604D01*
X157762205Y-90632246D01*
X157733533Y-90589335D01*
X158492132Y-89830735D01*
X185090655Y-89830735D01*
X185179282Y-90051000D01*
X186079000Y-90051000D01*
X186079000Y-89145343D01*
X186825000Y-89145343D01*
X186825000Y-90051000D01*
X187724718Y-90051000D01*
X187813345Y-89830735D01*
X187701615Y-89621672D01*
X187521078Y-89393301D01*
X187299457Y-89204539D01*
X187045268Y-89062640D01*
X186825000Y-89145343D01*
X186079000Y-89145343D01*
X185858732Y-89062640D01*
X185604543Y-89204539D01*
X185382922Y-89393301D01*
X185202385Y-89621672D01*
X185090655Y-89830735D01*
X158492132Y-89830735D01*
X159414775Y-88908092D01*
X159559898Y-88879226D01*
X159748256Y-88801205D01*
X159917774Y-88687937D01*
X160061937Y-88543774D01*
X160175205Y-88374256D01*
X160253226Y-88185898D01*
X160293000Y-87985939D01*
X160293000Y-87782061D01*
X160253226Y-87582102D01*
X160175205Y-87393744D01*
X160061937Y-87224226D01*
X159917774Y-87080063D01*
X159748256Y-86966795D01*
X159559898Y-86888774D01*
X159359939Y-86849000D01*
X159156061Y-86849000D01*
X158956102Y-86888774D01*
X158767744Y-86966795D01*
X158643577Y-87049760D01*
X158528626Y-87061082D01*
X158371228Y-87108828D01*
X158226169Y-87186364D01*
X158099024Y-87290709D01*
X158072878Y-87322568D01*
X156040877Y-89354571D01*
X155962679Y-89449855D01*
X155885143Y-89594914D01*
X155837397Y-89752312D01*
X155821275Y-89916000D01*
X155837397Y-90079688D01*
X155871516Y-90192165D01*
X155831582Y-90323812D01*
X155815460Y-90487500D01*
X155831582Y-90651188D01*
X155868939Y-90774337D01*
X155849774Y-90820604D01*
X155810000Y-91020563D01*
X130885000Y-91020563D01*
X130885000Y-88455419D01*
X134209000Y-88455419D01*
X134209000Y-88836581D01*
X134283361Y-89210419D01*
X134429225Y-89562566D01*
X134640987Y-89879491D01*
X134910509Y-90149013D01*
X135227434Y-90360775D01*
X135579581Y-90506639D01*
X135953419Y-90581000D01*
X136334581Y-90581000D01*
X136708419Y-90506639D01*
X137060566Y-90360775D01*
X137377491Y-90149013D01*
X137647013Y-89879491D01*
X137858775Y-89562566D01*
X138004639Y-89210419D01*
X138079000Y-88836581D01*
X138079000Y-88455419D01*
X138004639Y-88081581D01*
X137858775Y-87729434D01*
X137647013Y-87412509D01*
X137377491Y-87142987D01*
X137060566Y-86931225D01*
X136708419Y-86785361D01*
X136334581Y-86711000D01*
X135953419Y-86711000D01*
X135579581Y-86785361D01*
X135227434Y-86931225D01*
X134910509Y-87142987D01*
X134640987Y-87412509D01*
X134429225Y-87729434D01*
X134283361Y-88081581D01*
X134209000Y-88455419D01*
X130885000Y-88455419D01*
X130885000Y-81118967D01*
X139081000Y-81118967D01*
X139081000Y-81441033D01*
X139143832Y-81756912D01*
X139267082Y-82054463D01*
X139446013Y-82322252D01*
X139673748Y-82549987D01*
X139941537Y-82728918D01*
X140239088Y-82852168D01*
X140554967Y-82915000D01*
X140877033Y-82915000D01*
X141192912Y-82852168D01*
X141490463Y-82728918D01*
X141758252Y-82549987D01*
X141985987Y-82322252D01*
X142164918Y-82054463D01*
X142288168Y-81756912D01*
X142351000Y-81441033D01*
X142351000Y-81118967D01*
X142288168Y-80803088D01*
X142164918Y-80505537D01*
X141985987Y-80237748D01*
X141758252Y-80010013D01*
X141758233Y-80010000D01*
X184959815Y-80010000D01*
X184988487Y-80301111D01*
X185073401Y-80581034D01*
X185211294Y-80839014D01*
X185396866Y-81065134D01*
X185426687Y-81089607D01*
X185357820Y-81110498D01*
X185247506Y-81169463D01*
X185150815Y-81248815D01*
X185071463Y-81345506D01*
X185012498Y-81455820D01*
X184976188Y-81575518D01*
X184963928Y-81700000D01*
X184963928Y-83400000D01*
X184976188Y-83524482D01*
X185012498Y-83644180D01*
X185071463Y-83754494D01*
X185150815Y-83851185D01*
X185247506Y-83930537D01*
X185357820Y-83989502D01*
X185477518Y-84025812D01*
X185602000Y-84038072D01*
X187302000Y-84038072D01*
X187426482Y-84025812D01*
X187546180Y-83989502D01*
X187656494Y-83930537D01*
X187753185Y-83851185D01*
X187832537Y-83754494D01*
X187891502Y-83644180D01*
X187927812Y-83524482D01*
X187940072Y-83400000D01*
X187940072Y-81700000D01*
X187927812Y-81575518D01*
X187891502Y-81455820D01*
X187832537Y-81345506D01*
X187753185Y-81248815D01*
X187656494Y-81169463D01*
X187546180Y-81110498D01*
X187477313Y-81089607D01*
X187507134Y-81065134D01*
X187692706Y-80839014D01*
X187830599Y-80581034D01*
X187915513Y-80301111D01*
X187944185Y-80010000D01*
X187915513Y-79718889D01*
X187830599Y-79438966D01*
X187692706Y-79180986D01*
X187507134Y-78954866D01*
X187281014Y-78769294D01*
X187217379Y-78735280D01*
X187299457Y-78689461D01*
X187521078Y-78500699D01*
X187701615Y-78272328D01*
X187813345Y-78063265D01*
X187724718Y-77843000D01*
X186825000Y-77843000D01*
X186825000Y-77863000D01*
X186079000Y-77863000D01*
X186079000Y-77843000D01*
X185179282Y-77843000D01*
X185090655Y-78063265D01*
X185202385Y-78272328D01*
X185382922Y-78500699D01*
X185604543Y-78689461D01*
X185686621Y-78735280D01*
X185622986Y-78769294D01*
X185396866Y-78954866D01*
X185211294Y-79180986D01*
X185073401Y-79438966D01*
X184988487Y-79718889D01*
X184959815Y-80010000D01*
X141758233Y-80010000D01*
X141490463Y-79831082D01*
X141192912Y-79707832D01*
X140877033Y-79645000D01*
X140554967Y-79645000D01*
X140239088Y-79707832D01*
X139941537Y-79831082D01*
X139673748Y-80010013D01*
X139446013Y-80237748D01*
X139267082Y-80505537D01*
X139143832Y-80803088D01*
X139081000Y-81118967D01*
X130885000Y-81118967D01*
X130885000Y-72736967D01*
X150511000Y-72736967D01*
X150511000Y-73059033D01*
X150573832Y-73374912D01*
X150697082Y-73672463D01*
X150876013Y-73940252D01*
X151103748Y-74167987D01*
X151371537Y-74346918D01*
X151669088Y-74470168D01*
X151984967Y-74533000D01*
X152307033Y-74533000D01*
X152622912Y-74470168D01*
X152920463Y-74346918D01*
X153188252Y-74167987D01*
X153222272Y-74133967D01*
X157115000Y-74133967D01*
X157115000Y-74456033D01*
X157177832Y-74771912D01*
X157301082Y-75069463D01*
X157480013Y-75337252D01*
X157707748Y-75564987D01*
X157975537Y-75743918D01*
X158273088Y-75867168D01*
X158588967Y-75930000D01*
X158911033Y-75930000D01*
X158943646Y-75923513D01*
X161591094Y-78570961D01*
X161619960Y-78716084D01*
X161697981Y-78904442D01*
X161811249Y-79073960D01*
X161955412Y-79218123D01*
X162124930Y-79331391D01*
X162313288Y-79409412D01*
X162513247Y-79449186D01*
X162717125Y-79449186D01*
X162917084Y-79409412D01*
X163105442Y-79331391D01*
X163274960Y-79218123D01*
X163419123Y-79073960D01*
X163532391Y-78904442D01*
X163610412Y-78716084D01*
X163650186Y-78516125D01*
X163650186Y-78312247D01*
X163610412Y-78112288D01*
X163532391Y-77923930D01*
X163419123Y-77754412D01*
X163274960Y-77610249D01*
X163105442Y-77496981D01*
X162917084Y-77418960D01*
X162771961Y-77390094D01*
X162258602Y-76876735D01*
X185090655Y-76876735D01*
X185179282Y-77097000D01*
X186079000Y-77097000D01*
X186079000Y-76191343D01*
X186825000Y-76191343D01*
X186825000Y-77097000D01*
X187724718Y-77097000D01*
X187813345Y-76876735D01*
X187701615Y-76667672D01*
X187521078Y-76439301D01*
X187299457Y-76250539D01*
X187045268Y-76108640D01*
X186825000Y-76191343D01*
X186079000Y-76191343D01*
X185858732Y-76108640D01*
X185604543Y-76250539D01*
X185382922Y-76439301D01*
X185202385Y-76667672D01*
X185090655Y-76876735D01*
X162258602Y-76876735D01*
X160272848Y-74890981D01*
X160322168Y-74771912D01*
X160385000Y-74456033D01*
X160385000Y-74133967D01*
X160322168Y-73818088D01*
X160198918Y-73520537D01*
X160019987Y-73252748D01*
X159792252Y-73025013D01*
X159524463Y-72846082D01*
X159226912Y-72722832D01*
X158911033Y-72660000D01*
X158588967Y-72660000D01*
X158273088Y-72722832D01*
X157975537Y-72846082D01*
X157707748Y-73025013D01*
X157480013Y-73252748D01*
X157301082Y-73520537D01*
X157177832Y-73818088D01*
X157115000Y-74133967D01*
X153222272Y-74133967D01*
X153415987Y-73940252D01*
X153594918Y-73672463D01*
X153718168Y-73374912D01*
X153781000Y-73059033D01*
X153781000Y-72736967D01*
X153718168Y-72421088D01*
X153594918Y-72123537D01*
X153415987Y-71855748D01*
X153188252Y-71628013D01*
X152920463Y-71449082D01*
X152622912Y-71325832D01*
X152307033Y-71263000D01*
X151984967Y-71263000D01*
X151669088Y-71325832D01*
X151371537Y-71449082D01*
X151103748Y-71628013D01*
X150876013Y-71855748D01*
X150697082Y-72123537D01*
X150573832Y-72421088D01*
X150511000Y-72736967D01*
X130885000Y-72736967D01*
X130885000Y-68746000D01*
X152181928Y-68746000D01*
X152181928Y-70446000D01*
X152194188Y-70570482D01*
X152230498Y-70690180D01*
X152289463Y-70800494D01*
X152368815Y-70897185D01*
X152465506Y-70976537D01*
X152575820Y-71035502D01*
X152695518Y-71071812D01*
X152820000Y-71084072D01*
X154520000Y-71084072D01*
X154644482Y-71071812D01*
X154764180Y-71035502D01*
X154874494Y-70976537D01*
X154971185Y-70897185D01*
X155050537Y-70800494D01*
X155109502Y-70690180D01*
X155130393Y-70621313D01*
X155154866Y-70651134D01*
X155375000Y-70831794D01*
X155375001Y-72096460D01*
X155367717Y-72114045D01*
X155327943Y-72314004D01*
X155327943Y-72517882D01*
X155367717Y-72717841D01*
X155445738Y-72906199D01*
X155559006Y-73075717D01*
X155703169Y-73219880D01*
X155872687Y-73333148D01*
X156061045Y-73411169D01*
X156261004Y-73450943D01*
X156464882Y-73450943D01*
X156664841Y-73411169D01*
X156853199Y-73333148D01*
X157022717Y-73219880D01*
X157166880Y-73075717D01*
X157280148Y-72906199D01*
X157358169Y-72717841D01*
X157397943Y-72517882D01*
X157397943Y-72314004D01*
X157358169Y-72114045D01*
X157280148Y-71925687D01*
X157166880Y-71756169D01*
X157045000Y-71634289D01*
X157045000Y-70831793D01*
X157265134Y-70651134D01*
X157450706Y-70425014D01*
X157484720Y-70361379D01*
X157530539Y-70443457D01*
X157719301Y-70665078D01*
X157947672Y-70845615D01*
X158156735Y-70957345D01*
X158377000Y-70868718D01*
X158377000Y-69969000D01*
X158357000Y-69969000D01*
X158357000Y-69223000D01*
X158377000Y-69223000D01*
X158377000Y-68323282D01*
X159123000Y-68323282D01*
X159123000Y-69223000D01*
X159143000Y-69223000D01*
X159143000Y-69969000D01*
X159123000Y-69969000D01*
X159123000Y-70868718D01*
X159343265Y-70957345D01*
X159552328Y-70845615D01*
X159780699Y-70665078D01*
X159969461Y-70443457D01*
X160015280Y-70361379D01*
X160049294Y-70425014D01*
X160234866Y-70651134D01*
X160460986Y-70836706D01*
X160718966Y-70974599D01*
X160998889Y-71059513D01*
X161217050Y-71081000D01*
X161362950Y-71081000D01*
X161581111Y-71059513D01*
X161861034Y-70974599D01*
X162119014Y-70836706D01*
X162345134Y-70651134D01*
X162530706Y-70425014D01*
X162560000Y-70370209D01*
X162589294Y-70425014D01*
X162774866Y-70651134D01*
X163000986Y-70836706D01*
X163258966Y-70974599D01*
X163538889Y-71059513D01*
X163757050Y-71081000D01*
X163902950Y-71081000D01*
X164121111Y-71059513D01*
X164401034Y-70974599D01*
X164659014Y-70836706D01*
X164885134Y-70651134D01*
X165070706Y-70425014D01*
X165100000Y-70370209D01*
X165129294Y-70425014D01*
X165314866Y-70651134D01*
X165540986Y-70836706D01*
X165798966Y-70974599D01*
X166078889Y-71059513D01*
X166297050Y-71081000D01*
X166442950Y-71081000D01*
X166661111Y-71059513D01*
X166941034Y-70974599D01*
X167199014Y-70836706D01*
X167425134Y-70651134D01*
X167610706Y-70425014D01*
X167748599Y-70167034D01*
X167833513Y-69887111D01*
X167862185Y-69596000D01*
X167833513Y-69304889D01*
X167748599Y-69024966D01*
X167610706Y-68766986D01*
X167425134Y-68540866D01*
X167199014Y-68355294D01*
X166941034Y-68217401D01*
X166661111Y-68132487D01*
X166442950Y-68111000D01*
X166297050Y-68111000D01*
X166078889Y-68132487D01*
X165798966Y-68217401D01*
X165540986Y-68355294D01*
X165314866Y-68540866D01*
X165129294Y-68766986D01*
X165100000Y-68821791D01*
X165070706Y-68766986D01*
X164885134Y-68540866D01*
X164659014Y-68355294D01*
X164401034Y-68217401D01*
X164121111Y-68132487D01*
X163902950Y-68111000D01*
X163757050Y-68111000D01*
X163538889Y-68132487D01*
X163258966Y-68217401D01*
X163000986Y-68355294D01*
X162774866Y-68540866D01*
X162589294Y-68766986D01*
X162560000Y-68821791D01*
X162530706Y-68766986D01*
X162345134Y-68540866D01*
X162119014Y-68355294D01*
X161861034Y-68217401D01*
X161581111Y-68132487D01*
X161362950Y-68111000D01*
X161217050Y-68111000D01*
X160998889Y-68132487D01*
X160718966Y-68217401D01*
X160460986Y-68355294D01*
X160234866Y-68540866D01*
X160049294Y-68766986D01*
X160015280Y-68830621D01*
X159969461Y-68748543D01*
X159780699Y-68526922D01*
X159552328Y-68346385D01*
X159343265Y-68234655D01*
X159123000Y-68323282D01*
X158377000Y-68323282D01*
X158156735Y-68234655D01*
X157947672Y-68346385D01*
X157719301Y-68526922D01*
X157530539Y-68748543D01*
X157484720Y-68830621D01*
X157450706Y-68766986D01*
X157265134Y-68540866D01*
X157039014Y-68355294D01*
X156781034Y-68217401D01*
X156501111Y-68132487D01*
X156282950Y-68111000D01*
X156137050Y-68111000D01*
X155918889Y-68132487D01*
X155638966Y-68217401D01*
X155380986Y-68355294D01*
X155154866Y-68540866D01*
X155130393Y-68570687D01*
X155109502Y-68501820D01*
X155050537Y-68391506D01*
X154971185Y-68294815D01*
X154874494Y-68215463D01*
X154764180Y-68156498D01*
X154644482Y-68120188D01*
X154520000Y-68107928D01*
X152820000Y-68107928D01*
X152695518Y-68120188D01*
X152575820Y-68156498D01*
X152465506Y-68215463D01*
X152368815Y-68294815D01*
X152289463Y-68391506D01*
X152230498Y-68501820D01*
X152194188Y-68621518D01*
X152181928Y-68746000D01*
X130885000Y-68746000D01*
X130885000Y-67056000D01*
X184959815Y-67056000D01*
X184988487Y-67347111D01*
X185073401Y-67627034D01*
X185211294Y-67885014D01*
X185396866Y-68111134D01*
X185426687Y-68135607D01*
X185357820Y-68156498D01*
X185247506Y-68215463D01*
X185150815Y-68294815D01*
X185071463Y-68391506D01*
X185012498Y-68501820D01*
X184976188Y-68621518D01*
X184963928Y-68746000D01*
X184963928Y-70446000D01*
X184976188Y-70570482D01*
X185012498Y-70690180D01*
X185071463Y-70800494D01*
X185150815Y-70897185D01*
X185247506Y-70976537D01*
X185357820Y-71035502D01*
X185477518Y-71071812D01*
X185602000Y-71084072D01*
X187302000Y-71084072D01*
X187426482Y-71071812D01*
X187546180Y-71035502D01*
X187656494Y-70976537D01*
X187753185Y-70897185D01*
X187832537Y-70800494D01*
X187891502Y-70690180D01*
X187927812Y-70570482D01*
X187940072Y-70446000D01*
X187940072Y-68746000D01*
X187927812Y-68621518D01*
X187891502Y-68501820D01*
X187832537Y-68391506D01*
X187753185Y-68294815D01*
X187656494Y-68215463D01*
X187546180Y-68156498D01*
X187477313Y-68135607D01*
X187507134Y-68111134D01*
X187692706Y-67885014D01*
X187830599Y-67627034D01*
X187915513Y-67347111D01*
X187944185Y-67056000D01*
X187915513Y-66764889D01*
X187830599Y-66484966D01*
X187692706Y-66226986D01*
X187507134Y-66000866D01*
X187281014Y-65815294D01*
X187217379Y-65781280D01*
X187299457Y-65735461D01*
X187521078Y-65546699D01*
X187701615Y-65318328D01*
X187813345Y-65109265D01*
X187724718Y-64889000D01*
X186825000Y-64889000D01*
X186825000Y-64909000D01*
X186079000Y-64909000D01*
X186079000Y-64889000D01*
X185179282Y-64889000D01*
X185090655Y-65109265D01*
X185202385Y-65318328D01*
X185382922Y-65546699D01*
X185604543Y-65735461D01*
X185686621Y-65781280D01*
X185622986Y-65815294D01*
X185396866Y-66000866D01*
X185211294Y-66226986D01*
X185073401Y-66484966D01*
X184988487Y-66764889D01*
X184959815Y-67056000D01*
X130885000Y-67056000D01*
X130885000Y-63922735D01*
X185090655Y-63922735D01*
X185179282Y-64143000D01*
X186079000Y-64143000D01*
X186079000Y-63237343D01*
X186825000Y-63237343D01*
X186825000Y-64143000D01*
X187724718Y-64143000D01*
X187813345Y-63922735D01*
X187701615Y-63713672D01*
X187521078Y-63485301D01*
X187299457Y-63296539D01*
X187045268Y-63154640D01*
X186825000Y-63237343D01*
X186079000Y-63237343D01*
X185858732Y-63154640D01*
X185604543Y-63296539D01*
X185382922Y-63485301D01*
X185202385Y-63713672D01*
X185090655Y-63922735D01*
X130885000Y-63922735D01*
X130885000Y-55039410D01*
X130908163Y-54779872D01*
X132765000Y-54779872D01*
X132765000Y-55220128D01*
X132850890Y-55651925D01*
X133019369Y-56058669D01*
X133263962Y-56424729D01*
X133575271Y-56736038D01*
X133941331Y-56980631D01*
X134348075Y-57149110D01*
X134779872Y-57235000D01*
X135220128Y-57235000D01*
X135651925Y-57149110D01*
X136058669Y-56980631D01*
X136424729Y-56736038D01*
X136736038Y-56424729D01*
X136868178Y-56226967D01*
X146193000Y-56226967D01*
X146193000Y-56549033D01*
X146255832Y-56864912D01*
X146379082Y-57162463D01*
X146558013Y-57430252D01*
X146785748Y-57657987D01*
X147053537Y-57836918D01*
X147351088Y-57960168D01*
X147666967Y-58023000D01*
X147989033Y-58023000D01*
X148304912Y-57960168D01*
X148602463Y-57836918D01*
X148870252Y-57657987D01*
X149097987Y-57430252D01*
X149276918Y-57162463D01*
X149400168Y-56864912D01*
X149463000Y-56549033D01*
X149463000Y-56226967D01*
X149400168Y-55911088D01*
X149276918Y-55613537D01*
X149097987Y-55345748D01*
X148870252Y-55118013D01*
X148602463Y-54939082D01*
X148304912Y-54815832D01*
X148124129Y-54779872D01*
X182765000Y-54779872D01*
X182765000Y-55220128D01*
X182850890Y-55651925D01*
X183019369Y-56058669D01*
X183263962Y-56424729D01*
X183575271Y-56736038D01*
X183941331Y-56980631D01*
X184348075Y-57149110D01*
X184779872Y-57235000D01*
X185220128Y-57235000D01*
X185651925Y-57149110D01*
X186058669Y-56980631D01*
X186424729Y-56736038D01*
X186736038Y-56424729D01*
X186980631Y-56058669D01*
X187149110Y-55651925D01*
X187235000Y-55220128D01*
X187235000Y-54779872D01*
X187149110Y-54348075D01*
X186980631Y-53941331D01*
X186736038Y-53575271D01*
X186424729Y-53263962D01*
X186058669Y-53019369D01*
X185651925Y-52850890D01*
X185220128Y-52765000D01*
X184779872Y-52765000D01*
X184348075Y-52850890D01*
X183941331Y-53019369D01*
X183575271Y-53263962D01*
X183263962Y-53575271D01*
X183019369Y-53941331D01*
X182850890Y-54348075D01*
X182765000Y-54779872D01*
X148124129Y-54779872D01*
X147989033Y-54753000D01*
X147666967Y-54753000D01*
X147351088Y-54815832D01*
X147053537Y-54939082D01*
X146785748Y-55118013D01*
X146558013Y-55345748D01*
X146379082Y-55613537D01*
X146255832Y-55911088D01*
X146193000Y-56226967D01*
X136868178Y-56226967D01*
X136980631Y-56058669D01*
X137149110Y-55651925D01*
X137235000Y-55220128D01*
X137235000Y-54779872D01*
X137149110Y-54348075D01*
X136980631Y-53941331D01*
X136736038Y-53575271D01*
X136424729Y-53263962D01*
X136058669Y-53019369D01*
X135651925Y-52850890D01*
X135220128Y-52765000D01*
X134779872Y-52765000D01*
X134348075Y-52850890D01*
X133941331Y-53019369D01*
X133575271Y-53263962D01*
X133263962Y-53575271D01*
X133019369Y-53941331D01*
X132850890Y-54348075D01*
X132765000Y-54779872D01*
X130908163Y-54779872D01*
X130953497Y-54271919D01*
X131146381Y-53566853D01*
X131461075Y-52907084D01*
X131887628Y-52313473D01*
X132412559Y-51804779D01*
X133019279Y-51397080D01*
X133688605Y-51103266D01*
X134406191Y-50930989D01*
X135032447Y-50885000D01*
X184960590Y-50885000D01*
X185728081Y-50953497D01*
M02*
