G04 #@! TF.GenerationSoftware,KiCad,Pcbnew,5.1.4+dfsg1-1*
G04 #@! TF.CreationDate,2019-10-01T15:37:08+02:00*
G04 #@! TF.ProjectId,joystick-pcb,6a6f7973-7469-4636-9b2d-7063622e6b69,1*
G04 #@! TF.SameCoordinates,Original*
G04 #@! TF.FileFunction,Soldermask,Bot*
G04 #@! TF.FilePolarity,Negative*
%FSLAX46Y46*%
G04 Gerber Fmt 4.6, Leading zero omitted, Abs format (unit mm)*
G04 Created by KiCad (PCBNEW 5.1.4+dfsg1-1) date 2019-10-01 15:37:08*
%MOMM*%
%LPD*%
G04 APERTURE LIST*
%ADD10C,0.100000*%
G04 APERTURE END LIST*
D10*
G36*
X157659294Y-105270633D02*
G01*
X157831695Y-105322931D01*
X157990583Y-105407858D01*
X158129849Y-105522151D01*
X158244142Y-105661417D01*
X158329069Y-105820305D01*
X158381367Y-105992706D01*
X158399025Y-106172000D01*
X158381367Y-106351294D01*
X158329069Y-106523695D01*
X158244142Y-106682583D01*
X158129849Y-106821849D01*
X157990583Y-106936142D01*
X157831695Y-107021069D01*
X157659294Y-107073367D01*
X157524931Y-107086600D01*
X157435069Y-107086600D01*
X157300706Y-107073367D01*
X157128305Y-107021069D01*
X156969417Y-106936142D01*
X156830151Y-106821849D01*
X156715858Y-106682583D01*
X156630931Y-106523695D01*
X156578633Y-106351294D01*
X156560975Y-106172000D01*
X156578633Y-105992706D01*
X156630931Y-105820305D01*
X156715858Y-105661417D01*
X156830151Y-105522151D01*
X156969417Y-105407858D01*
X157128305Y-105322931D01*
X157300706Y-105270633D01*
X157435069Y-105257400D01*
X157524931Y-105257400D01*
X157659294Y-105270633D01*
X157659294Y-105270633D01*
G37*
G36*
X160199294Y-105270633D02*
G01*
X160371695Y-105322931D01*
X160530583Y-105407858D01*
X160669849Y-105522151D01*
X160784142Y-105661417D01*
X160869069Y-105820305D01*
X160921367Y-105992706D01*
X160939025Y-106172000D01*
X160921367Y-106351294D01*
X160869069Y-106523695D01*
X160784142Y-106682583D01*
X160669849Y-106821849D01*
X160530583Y-106936142D01*
X160371695Y-107021069D01*
X160199294Y-107073367D01*
X160064931Y-107086600D01*
X159975069Y-107086600D01*
X159840706Y-107073367D01*
X159668305Y-107021069D01*
X159509417Y-106936142D01*
X159370151Y-106821849D01*
X159255858Y-106682583D01*
X159170931Y-106523695D01*
X159118633Y-106351294D01*
X159100975Y-106172000D01*
X159118633Y-105992706D01*
X159170931Y-105820305D01*
X159255858Y-105661417D01*
X159370151Y-105522151D01*
X159509417Y-105407858D01*
X159668305Y-105322931D01*
X159840706Y-105270633D01*
X159975069Y-105257400D01*
X160064931Y-105257400D01*
X160199294Y-105270633D01*
X160199294Y-105270633D01*
G37*
G36*
X162739294Y-105270633D02*
G01*
X162911695Y-105322931D01*
X163070583Y-105407858D01*
X163209849Y-105522151D01*
X163324142Y-105661417D01*
X163409069Y-105820305D01*
X163461367Y-105992706D01*
X163479025Y-106172000D01*
X163461367Y-106351294D01*
X163409069Y-106523695D01*
X163324142Y-106682583D01*
X163209849Y-106821849D01*
X163070583Y-106936142D01*
X162911695Y-107021069D01*
X162739294Y-107073367D01*
X162604931Y-107086600D01*
X162515069Y-107086600D01*
X162380706Y-107073367D01*
X162208305Y-107021069D01*
X162049417Y-106936142D01*
X161910151Y-106821849D01*
X161795858Y-106682583D01*
X161710931Y-106523695D01*
X161658633Y-106351294D01*
X161640975Y-106172000D01*
X161658633Y-105992706D01*
X161710931Y-105820305D01*
X161795858Y-105661417D01*
X161910151Y-105522151D01*
X162049417Y-105407858D01*
X162208305Y-105322931D01*
X162380706Y-105270633D01*
X162515069Y-105257400D01*
X162604931Y-105257400D01*
X162739294Y-105270633D01*
X162739294Y-105270633D01*
G37*
G36*
X185375256Y-103391298D02*
G01*
X185481579Y-103412447D01*
X185782042Y-103536903D01*
X186052451Y-103717585D01*
X186282415Y-103947549D01*
X186463097Y-104217958D01*
X186540227Y-104404165D01*
X186587553Y-104518422D01*
X186643262Y-104798486D01*
X186651000Y-104837391D01*
X186651000Y-105162609D01*
X186587553Y-105481579D01*
X186463097Y-105782042D01*
X186282415Y-106052451D01*
X186052451Y-106282415D01*
X185782042Y-106463097D01*
X185481579Y-106587553D01*
X185375256Y-106608702D01*
X185162611Y-106651000D01*
X184837389Y-106651000D01*
X184624744Y-106608702D01*
X184518421Y-106587553D01*
X184217958Y-106463097D01*
X183947549Y-106282415D01*
X183717585Y-106052451D01*
X183536903Y-105782042D01*
X183412447Y-105481579D01*
X183349000Y-105162609D01*
X183349000Y-104837391D01*
X183356739Y-104798486D01*
X183412447Y-104518422D01*
X183459774Y-104404165D01*
X183536903Y-104217958D01*
X183717585Y-103947549D01*
X183947549Y-103717585D01*
X184217958Y-103536903D01*
X184518421Y-103412447D01*
X184624744Y-103391298D01*
X184837389Y-103349000D01*
X185162611Y-103349000D01*
X185375256Y-103391298D01*
X185375256Y-103391298D01*
G37*
G36*
X135375256Y-103391298D02*
G01*
X135481579Y-103412447D01*
X135782042Y-103536903D01*
X136052451Y-103717585D01*
X136282415Y-103947549D01*
X136463097Y-104217958D01*
X136540227Y-104404165D01*
X136587553Y-104518422D01*
X136643262Y-104798486D01*
X136651000Y-104837391D01*
X136651000Y-105162609D01*
X136587553Y-105481579D01*
X136463097Y-105782042D01*
X136282415Y-106052451D01*
X136052451Y-106282415D01*
X135782042Y-106463097D01*
X135481579Y-106587553D01*
X135375256Y-106608702D01*
X135162611Y-106651000D01*
X134837389Y-106651000D01*
X134624744Y-106608702D01*
X134518421Y-106587553D01*
X134217958Y-106463097D01*
X133947549Y-106282415D01*
X133717585Y-106052451D01*
X133536903Y-105782042D01*
X133412447Y-105481579D01*
X133349000Y-105162609D01*
X133349000Y-104837391D01*
X133356739Y-104798486D01*
X133412447Y-104518422D01*
X133459774Y-104404165D01*
X133536903Y-104217958D01*
X133717585Y-103947549D01*
X133947549Y-103717585D01*
X134217958Y-103536903D01*
X134518421Y-103412447D01*
X134624744Y-103391298D01*
X134837389Y-103349000D01*
X135162611Y-103349000D01*
X135375256Y-103391298D01*
X135375256Y-103391298D01*
G37*
G36*
X144324564Y-103891389D02*
G01*
X144460151Y-103947551D01*
X144515835Y-103970616D01*
X144687973Y-104085635D01*
X144834365Y-104232027D01*
X144944023Y-104396141D01*
X144949385Y-104404167D01*
X145028611Y-104595436D01*
X145069000Y-104798484D01*
X145069000Y-105005516D01*
X145028611Y-105208564D01*
X144981238Y-105322932D01*
X144949384Y-105399835D01*
X144834365Y-105571973D01*
X144687973Y-105718365D01*
X144515835Y-105833384D01*
X144515834Y-105833385D01*
X144515833Y-105833385D01*
X144324564Y-105912611D01*
X144121516Y-105953000D01*
X143914484Y-105953000D01*
X143711436Y-105912611D01*
X143520167Y-105833385D01*
X143520166Y-105833385D01*
X143520165Y-105833384D01*
X143348027Y-105718365D01*
X143201635Y-105571973D01*
X143086616Y-105399835D01*
X143054762Y-105322932D01*
X143007389Y-105208564D01*
X142967000Y-105005516D01*
X142967000Y-104798484D01*
X143007389Y-104595436D01*
X143086615Y-104404167D01*
X143091978Y-104396141D01*
X143201635Y-104232027D01*
X143348027Y-104085635D01*
X143520165Y-103970616D01*
X143575849Y-103947551D01*
X143711436Y-103891389D01*
X143914484Y-103851000D01*
X144121516Y-103851000D01*
X144324564Y-103891389D01*
X144324564Y-103891389D01*
G37*
G36*
X163474600Y-104546600D02*
G01*
X161645400Y-104546600D01*
X161645400Y-102717400D01*
X163474600Y-102717400D01*
X163474600Y-104546600D01*
X163474600Y-104546600D01*
G37*
G36*
X160199294Y-102730633D02*
G01*
X160371695Y-102782931D01*
X160530583Y-102867858D01*
X160669849Y-102982151D01*
X160784142Y-103121417D01*
X160869069Y-103280305D01*
X160921367Y-103452706D01*
X160939025Y-103632000D01*
X160921367Y-103811294D01*
X160869069Y-103983695D01*
X160784142Y-104142583D01*
X160669849Y-104281849D01*
X160530583Y-104396142D01*
X160371695Y-104481069D01*
X160199294Y-104533367D01*
X160064931Y-104546600D01*
X159975069Y-104546600D01*
X159840706Y-104533367D01*
X159668305Y-104481069D01*
X159509417Y-104396142D01*
X159370151Y-104281849D01*
X159255858Y-104142583D01*
X159170931Y-103983695D01*
X159118633Y-103811294D01*
X159100975Y-103632000D01*
X159118633Y-103452706D01*
X159170931Y-103280305D01*
X159255858Y-103121417D01*
X159370151Y-102982151D01*
X159509417Y-102867858D01*
X159668305Y-102782931D01*
X159840706Y-102730633D01*
X159975069Y-102717400D01*
X160064931Y-102717400D01*
X160199294Y-102730633D01*
X160199294Y-102730633D01*
G37*
G36*
X157659294Y-102730633D02*
G01*
X157831695Y-102782931D01*
X157990583Y-102867858D01*
X158129849Y-102982151D01*
X158244142Y-103121417D01*
X158329069Y-103280305D01*
X158381367Y-103452706D01*
X158399025Y-103632000D01*
X158381367Y-103811294D01*
X158329069Y-103983695D01*
X158244142Y-104142583D01*
X158129849Y-104281849D01*
X157990583Y-104396142D01*
X157831695Y-104481069D01*
X157659294Y-104533367D01*
X157524931Y-104546600D01*
X157435069Y-104546600D01*
X157300706Y-104533367D01*
X157128305Y-104481069D01*
X156969417Y-104396142D01*
X156830151Y-104281849D01*
X156715858Y-104142583D01*
X156630931Y-103983695D01*
X156578633Y-103811294D01*
X156560975Y-103632000D01*
X156578633Y-103452706D01*
X156630931Y-103280305D01*
X156715858Y-103121417D01*
X156830151Y-102982151D01*
X156969417Y-102867858D01*
X157128305Y-102782931D01*
X157300706Y-102730633D01*
X157435069Y-102717400D01*
X157524931Y-102717400D01*
X157659294Y-102730633D01*
X157659294Y-102730633D01*
G37*
G36*
X187353000Y-96405000D02*
G01*
X185551000Y-96405000D01*
X185551000Y-94603000D01*
X187353000Y-94603000D01*
X187353000Y-96405000D01*
X187353000Y-96405000D01*
G37*
G36*
X137495000Y-95077000D02*
G01*
X134793000Y-95077000D01*
X134793000Y-92375000D01*
X137495000Y-92375000D01*
X137495000Y-95077000D01*
X137495000Y-95077000D01*
G37*
G36*
X186562443Y-92069519D02*
G01*
X186628627Y-92076037D01*
X186798466Y-92127557D01*
X186954991Y-92211222D01*
X186990729Y-92240552D01*
X187092186Y-92323814D01*
X187175448Y-92425271D01*
X187204778Y-92461009D01*
X187288443Y-92617534D01*
X187339963Y-92787373D01*
X187357359Y-92964000D01*
X187339963Y-93140627D01*
X187288443Y-93310466D01*
X187204778Y-93466991D01*
X187175448Y-93502729D01*
X187092186Y-93604186D01*
X186990729Y-93687448D01*
X186954991Y-93716778D01*
X186798466Y-93800443D01*
X186628627Y-93851963D01*
X186562443Y-93858481D01*
X186496260Y-93865000D01*
X186407740Y-93865000D01*
X186341557Y-93858481D01*
X186275373Y-93851963D01*
X186105534Y-93800443D01*
X185949009Y-93716778D01*
X185913271Y-93687448D01*
X185811814Y-93604186D01*
X185728552Y-93502729D01*
X185699222Y-93466991D01*
X185615557Y-93310466D01*
X185564037Y-93140627D01*
X185546641Y-92964000D01*
X185564037Y-92787373D01*
X185615557Y-92617534D01*
X185699222Y-92461009D01*
X185728552Y-92425271D01*
X185811814Y-92323814D01*
X185913271Y-92240552D01*
X185949009Y-92211222D01*
X186105534Y-92127557D01*
X186275373Y-92076037D01*
X186341557Y-92069519D01*
X186407740Y-92063000D01*
X186496260Y-92063000D01*
X186562443Y-92069519D01*
X186562443Y-92069519D01*
G37*
G36*
X186562442Y-89529518D02*
G01*
X186628627Y-89536037D01*
X186798466Y-89587557D01*
X186954991Y-89671222D01*
X186984441Y-89695391D01*
X187092186Y-89783814D01*
X187175448Y-89885271D01*
X187204778Y-89921009D01*
X187288443Y-90077534D01*
X187339963Y-90247373D01*
X187357359Y-90424000D01*
X187339963Y-90600627D01*
X187288443Y-90770466D01*
X187204778Y-90926991D01*
X187175448Y-90962729D01*
X187092186Y-91064186D01*
X186990729Y-91147448D01*
X186954991Y-91176778D01*
X186798466Y-91260443D01*
X186628627Y-91311963D01*
X186562442Y-91318482D01*
X186496260Y-91325000D01*
X186407740Y-91325000D01*
X186341557Y-91318481D01*
X186275373Y-91311963D01*
X186105534Y-91260443D01*
X185949009Y-91176778D01*
X185913271Y-91147448D01*
X185811814Y-91064186D01*
X185728552Y-90962729D01*
X185699222Y-90926991D01*
X185615557Y-90770466D01*
X185564037Y-90600627D01*
X185546641Y-90424000D01*
X185564037Y-90247373D01*
X185615557Y-90077534D01*
X185699222Y-89921009D01*
X185728552Y-89885271D01*
X185811814Y-89783814D01*
X185919559Y-89695391D01*
X185949009Y-89671222D01*
X186105534Y-89587557D01*
X186275373Y-89536037D01*
X186341558Y-89529518D01*
X186407740Y-89523000D01*
X186496260Y-89523000D01*
X186562442Y-89529518D01*
X186562442Y-89529518D01*
G37*
G36*
X136538072Y-87346918D02*
G01*
X136783939Y-87448759D01*
X137005212Y-87596610D01*
X137193390Y-87784788D01*
X137341241Y-88006061D01*
X137443082Y-88251928D01*
X137495000Y-88512938D01*
X137495000Y-88779062D01*
X137443082Y-89040072D01*
X137341241Y-89285939D01*
X137193390Y-89507212D01*
X137005212Y-89695390D01*
X136783939Y-89843241D01*
X136783938Y-89843242D01*
X136783937Y-89843242D01*
X136538072Y-89945082D01*
X136277063Y-89997000D01*
X136010937Y-89997000D01*
X135749928Y-89945082D01*
X135504063Y-89843242D01*
X135504062Y-89843242D01*
X135504061Y-89843241D01*
X135282788Y-89695390D01*
X135094610Y-89507212D01*
X134946759Y-89285939D01*
X134844918Y-89040072D01*
X134793000Y-88779062D01*
X134793000Y-88512938D01*
X134844918Y-88251928D01*
X134946759Y-88006061D01*
X135094610Y-87784788D01*
X135282788Y-87596610D01*
X135504061Y-87448759D01*
X135749928Y-87346918D01*
X136010937Y-87295000D01*
X136277063Y-87295000D01*
X136538072Y-87346918D01*
X136538072Y-87346918D01*
G37*
G36*
X187353000Y-83451000D02*
G01*
X185551000Y-83451000D01*
X185551000Y-81649000D01*
X187353000Y-81649000D01*
X187353000Y-83451000D01*
X187353000Y-83451000D01*
G37*
G36*
X141022564Y-80269389D02*
G01*
X141213833Y-80348615D01*
X141213835Y-80348616D01*
X141385973Y-80463635D01*
X141532365Y-80610027D01*
X141634431Y-80762779D01*
X141647385Y-80782167D01*
X141726611Y-80973436D01*
X141767000Y-81176484D01*
X141767000Y-81383516D01*
X141726611Y-81586564D01*
X141700749Y-81649000D01*
X141647384Y-81777835D01*
X141532365Y-81949973D01*
X141385973Y-82096365D01*
X141213835Y-82211384D01*
X141213834Y-82211385D01*
X141213833Y-82211385D01*
X141022564Y-82290611D01*
X140819516Y-82331000D01*
X140612484Y-82331000D01*
X140409436Y-82290611D01*
X140218167Y-82211385D01*
X140218166Y-82211385D01*
X140218165Y-82211384D01*
X140046027Y-82096365D01*
X139899635Y-81949973D01*
X139784616Y-81777835D01*
X139731251Y-81649000D01*
X139705389Y-81586564D01*
X139665000Y-81383516D01*
X139665000Y-81176484D01*
X139705389Y-80973436D01*
X139784615Y-80782167D01*
X139797570Y-80762779D01*
X139899635Y-80610027D01*
X140046027Y-80463635D01*
X140218165Y-80348616D01*
X140218167Y-80348615D01*
X140409436Y-80269389D01*
X140612484Y-80229000D01*
X140819516Y-80229000D01*
X141022564Y-80269389D01*
X141022564Y-80269389D01*
G37*
G36*
X186562443Y-79115519D02*
G01*
X186628627Y-79122037D01*
X186798466Y-79173557D01*
X186954991Y-79257222D01*
X186990729Y-79286552D01*
X187092186Y-79369814D01*
X187175448Y-79471271D01*
X187204778Y-79507009D01*
X187288443Y-79663534D01*
X187339963Y-79833373D01*
X187357359Y-80010000D01*
X187339963Y-80186627D01*
X187288443Y-80356466D01*
X187204778Y-80512991D01*
X187175448Y-80548729D01*
X187092186Y-80650186D01*
X186990729Y-80733448D01*
X186954991Y-80762778D01*
X186798466Y-80846443D01*
X186628627Y-80897963D01*
X186562442Y-80904482D01*
X186496260Y-80911000D01*
X186407740Y-80911000D01*
X186341558Y-80904482D01*
X186275373Y-80897963D01*
X186105534Y-80846443D01*
X185949009Y-80762778D01*
X185913271Y-80733448D01*
X185811814Y-80650186D01*
X185728552Y-80548729D01*
X185699222Y-80512991D01*
X185615557Y-80356466D01*
X185564037Y-80186627D01*
X185546641Y-80010000D01*
X185564037Y-79833373D01*
X185615557Y-79663534D01*
X185699222Y-79507009D01*
X185728552Y-79471271D01*
X185811814Y-79369814D01*
X185913271Y-79286552D01*
X185949009Y-79257222D01*
X186105534Y-79173557D01*
X186275373Y-79122037D01*
X186341557Y-79115519D01*
X186407740Y-79109000D01*
X186496260Y-79109000D01*
X186562443Y-79115519D01*
X186562443Y-79115519D01*
G37*
G36*
X186562443Y-76575519D02*
G01*
X186628627Y-76582037D01*
X186798466Y-76633557D01*
X186954991Y-76717222D01*
X186990729Y-76746552D01*
X187092186Y-76829814D01*
X187175448Y-76931271D01*
X187204778Y-76967009D01*
X187288443Y-77123534D01*
X187339963Y-77293373D01*
X187357359Y-77470000D01*
X187339963Y-77646627D01*
X187288443Y-77816466D01*
X187204778Y-77972991D01*
X187175448Y-78008729D01*
X187092186Y-78110186D01*
X186990729Y-78193448D01*
X186954991Y-78222778D01*
X186798466Y-78306443D01*
X186628627Y-78357963D01*
X186562443Y-78364481D01*
X186496260Y-78371000D01*
X186407740Y-78371000D01*
X186341557Y-78364481D01*
X186275373Y-78357963D01*
X186105534Y-78306443D01*
X185949009Y-78222778D01*
X185913271Y-78193448D01*
X185811814Y-78110186D01*
X185728552Y-78008729D01*
X185699222Y-77972991D01*
X185615557Y-77816466D01*
X185564037Y-77646627D01*
X185546641Y-77470000D01*
X185564037Y-77293373D01*
X185615557Y-77123534D01*
X185699222Y-76967009D01*
X185728552Y-76931271D01*
X185811814Y-76829814D01*
X185913271Y-76746552D01*
X185949009Y-76717222D01*
X186105534Y-76633557D01*
X186275373Y-76582037D01*
X186341557Y-76575519D01*
X186407740Y-76569000D01*
X186496260Y-76569000D01*
X186562443Y-76575519D01*
X186562443Y-76575519D01*
G37*
G36*
X159056564Y-73284389D02*
G01*
X159247833Y-73363615D01*
X159247835Y-73363616D01*
X159296051Y-73395833D01*
X159419973Y-73478635D01*
X159566365Y-73625027D01*
X159681385Y-73797167D01*
X159760611Y-73988436D01*
X159801000Y-74191484D01*
X159801000Y-74398516D01*
X159760611Y-74601564D01*
X159681385Y-74792833D01*
X159681384Y-74792835D01*
X159566365Y-74964973D01*
X159419973Y-75111365D01*
X159247835Y-75226384D01*
X159247834Y-75226385D01*
X159247833Y-75226385D01*
X159056564Y-75305611D01*
X158853516Y-75346000D01*
X158646484Y-75346000D01*
X158443436Y-75305611D01*
X158252167Y-75226385D01*
X158252166Y-75226385D01*
X158252165Y-75226384D01*
X158080027Y-75111365D01*
X157933635Y-74964973D01*
X157818616Y-74792835D01*
X157818615Y-74792833D01*
X157739389Y-74601564D01*
X157699000Y-74398516D01*
X157699000Y-74191484D01*
X157739389Y-73988436D01*
X157818615Y-73797167D01*
X157933635Y-73625027D01*
X158080027Y-73478635D01*
X158203949Y-73395833D01*
X158252165Y-73363616D01*
X158252167Y-73363615D01*
X158443436Y-73284389D01*
X158646484Y-73244000D01*
X158853516Y-73244000D01*
X159056564Y-73284389D01*
X159056564Y-73284389D01*
G37*
G36*
X152452564Y-71887389D02*
G01*
X152643833Y-71966615D01*
X152643835Y-71966616D01*
X152815973Y-72081635D01*
X152962365Y-72228027D01*
X153077385Y-72400167D01*
X153156611Y-72591436D01*
X153197000Y-72794484D01*
X153197000Y-73001516D01*
X153156611Y-73204564D01*
X153077385Y-73395833D01*
X153077384Y-73395835D01*
X152962365Y-73567973D01*
X152815973Y-73714365D01*
X152643835Y-73829384D01*
X152643834Y-73829385D01*
X152643833Y-73829385D01*
X152452564Y-73908611D01*
X152249516Y-73949000D01*
X152042484Y-73949000D01*
X151839436Y-73908611D01*
X151648167Y-73829385D01*
X151648166Y-73829385D01*
X151648165Y-73829384D01*
X151476027Y-73714365D01*
X151329635Y-73567973D01*
X151214616Y-73395835D01*
X151214615Y-73395833D01*
X151135389Y-73204564D01*
X151095000Y-73001516D01*
X151095000Y-72794484D01*
X151135389Y-72591436D01*
X151214615Y-72400167D01*
X151329635Y-72228027D01*
X151476027Y-72081635D01*
X151648165Y-71966616D01*
X151648167Y-71966615D01*
X151839436Y-71887389D01*
X152042484Y-71847000D01*
X152249516Y-71847000D01*
X152452564Y-71887389D01*
X152452564Y-71887389D01*
G37*
G36*
X158860443Y-68701519D02*
G01*
X158926627Y-68708037D01*
X159096466Y-68759557D01*
X159252991Y-68843222D01*
X159288729Y-68872552D01*
X159390186Y-68955814D01*
X159473448Y-69057271D01*
X159502778Y-69093009D01*
X159586443Y-69249534D01*
X159637963Y-69419373D01*
X159655359Y-69596000D01*
X159637963Y-69772627D01*
X159586443Y-69942466D01*
X159502778Y-70098991D01*
X159473448Y-70134729D01*
X159390186Y-70236186D01*
X159288729Y-70319448D01*
X159252991Y-70348778D01*
X159096466Y-70432443D01*
X158926627Y-70483963D01*
X158860443Y-70490481D01*
X158794260Y-70497000D01*
X158705740Y-70497000D01*
X158639557Y-70490481D01*
X158573373Y-70483963D01*
X158403534Y-70432443D01*
X158247009Y-70348778D01*
X158211271Y-70319448D01*
X158109814Y-70236186D01*
X158026552Y-70134729D01*
X157997222Y-70098991D01*
X157913557Y-69942466D01*
X157862037Y-69772627D01*
X157844641Y-69596000D01*
X157862037Y-69419373D01*
X157913557Y-69249534D01*
X157997222Y-69093009D01*
X158026552Y-69057271D01*
X158109814Y-68955814D01*
X158211271Y-68872552D01*
X158247009Y-68843222D01*
X158403534Y-68759557D01*
X158573373Y-68708037D01*
X158639557Y-68701519D01*
X158705740Y-68695000D01*
X158794260Y-68695000D01*
X158860443Y-68701519D01*
X158860443Y-68701519D01*
G37*
G36*
X156320443Y-68701519D02*
G01*
X156386627Y-68708037D01*
X156556466Y-68759557D01*
X156712991Y-68843222D01*
X156748729Y-68872552D01*
X156850186Y-68955814D01*
X156933448Y-69057271D01*
X156962778Y-69093009D01*
X157046443Y-69249534D01*
X157097963Y-69419373D01*
X157115359Y-69596000D01*
X157097963Y-69772627D01*
X157046443Y-69942466D01*
X156962778Y-70098991D01*
X156933448Y-70134729D01*
X156850186Y-70236186D01*
X156748729Y-70319448D01*
X156712991Y-70348778D01*
X156556466Y-70432443D01*
X156386627Y-70483963D01*
X156320443Y-70490481D01*
X156254260Y-70497000D01*
X156165740Y-70497000D01*
X156099557Y-70490481D01*
X156033373Y-70483963D01*
X155863534Y-70432443D01*
X155707009Y-70348778D01*
X155671271Y-70319448D01*
X155569814Y-70236186D01*
X155486552Y-70134729D01*
X155457222Y-70098991D01*
X155373557Y-69942466D01*
X155322037Y-69772627D01*
X155304641Y-69596000D01*
X155322037Y-69419373D01*
X155373557Y-69249534D01*
X155457222Y-69093009D01*
X155486552Y-69057271D01*
X155569814Y-68955814D01*
X155671271Y-68872552D01*
X155707009Y-68843222D01*
X155863534Y-68759557D01*
X156033373Y-68708037D01*
X156099557Y-68701519D01*
X156165740Y-68695000D01*
X156254260Y-68695000D01*
X156320443Y-68701519D01*
X156320443Y-68701519D01*
G37*
G36*
X154571000Y-70497000D02*
G01*
X152769000Y-70497000D01*
X152769000Y-68695000D01*
X154571000Y-68695000D01*
X154571000Y-70497000D01*
X154571000Y-70497000D01*
G37*
G36*
X187353000Y-70497000D02*
G01*
X185551000Y-70497000D01*
X185551000Y-68695000D01*
X187353000Y-68695000D01*
X187353000Y-70497000D01*
X187353000Y-70497000D01*
G37*
G36*
X161400443Y-68701519D02*
G01*
X161466627Y-68708037D01*
X161636466Y-68759557D01*
X161792991Y-68843222D01*
X161828729Y-68872552D01*
X161930186Y-68955814D01*
X162013448Y-69057271D01*
X162042778Y-69093009D01*
X162126443Y-69249534D01*
X162177963Y-69419373D01*
X162195359Y-69596000D01*
X162177963Y-69772627D01*
X162126443Y-69942466D01*
X162042778Y-70098991D01*
X162013448Y-70134729D01*
X161930186Y-70236186D01*
X161828729Y-70319448D01*
X161792991Y-70348778D01*
X161636466Y-70432443D01*
X161466627Y-70483963D01*
X161400443Y-70490481D01*
X161334260Y-70497000D01*
X161245740Y-70497000D01*
X161179557Y-70490481D01*
X161113373Y-70483963D01*
X160943534Y-70432443D01*
X160787009Y-70348778D01*
X160751271Y-70319448D01*
X160649814Y-70236186D01*
X160566552Y-70134729D01*
X160537222Y-70098991D01*
X160453557Y-69942466D01*
X160402037Y-69772627D01*
X160384641Y-69596000D01*
X160402037Y-69419373D01*
X160453557Y-69249534D01*
X160537222Y-69093009D01*
X160566552Y-69057271D01*
X160649814Y-68955814D01*
X160751271Y-68872552D01*
X160787009Y-68843222D01*
X160943534Y-68759557D01*
X161113373Y-68708037D01*
X161179557Y-68701519D01*
X161245740Y-68695000D01*
X161334260Y-68695000D01*
X161400443Y-68701519D01*
X161400443Y-68701519D01*
G37*
G36*
X163940443Y-68701519D02*
G01*
X164006627Y-68708037D01*
X164176466Y-68759557D01*
X164332991Y-68843222D01*
X164368729Y-68872552D01*
X164470186Y-68955814D01*
X164553448Y-69057271D01*
X164582778Y-69093009D01*
X164666443Y-69249534D01*
X164717963Y-69419373D01*
X164735359Y-69596000D01*
X164717963Y-69772627D01*
X164666443Y-69942466D01*
X164582778Y-70098991D01*
X164553448Y-70134729D01*
X164470186Y-70236186D01*
X164368729Y-70319448D01*
X164332991Y-70348778D01*
X164176466Y-70432443D01*
X164006627Y-70483963D01*
X163940443Y-70490481D01*
X163874260Y-70497000D01*
X163785740Y-70497000D01*
X163719557Y-70490481D01*
X163653373Y-70483963D01*
X163483534Y-70432443D01*
X163327009Y-70348778D01*
X163291271Y-70319448D01*
X163189814Y-70236186D01*
X163106552Y-70134729D01*
X163077222Y-70098991D01*
X162993557Y-69942466D01*
X162942037Y-69772627D01*
X162924641Y-69596000D01*
X162942037Y-69419373D01*
X162993557Y-69249534D01*
X163077222Y-69093009D01*
X163106552Y-69057271D01*
X163189814Y-68955814D01*
X163291271Y-68872552D01*
X163327009Y-68843222D01*
X163483534Y-68759557D01*
X163653373Y-68708037D01*
X163719557Y-68701519D01*
X163785740Y-68695000D01*
X163874260Y-68695000D01*
X163940443Y-68701519D01*
X163940443Y-68701519D01*
G37*
G36*
X166480443Y-68701519D02*
G01*
X166546627Y-68708037D01*
X166716466Y-68759557D01*
X166872991Y-68843222D01*
X166908729Y-68872552D01*
X167010186Y-68955814D01*
X167093448Y-69057271D01*
X167122778Y-69093009D01*
X167206443Y-69249534D01*
X167257963Y-69419373D01*
X167275359Y-69596000D01*
X167257963Y-69772627D01*
X167206443Y-69942466D01*
X167122778Y-70098991D01*
X167093448Y-70134729D01*
X167010186Y-70236186D01*
X166908729Y-70319448D01*
X166872991Y-70348778D01*
X166716466Y-70432443D01*
X166546627Y-70483963D01*
X166480443Y-70490481D01*
X166414260Y-70497000D01*
X166325740Y-70497000D01*
X166259557Y-70490481D01*
X166193373Y-70483963D01*
X166023534Y-70432443D01*
X165867009Y-70348778D01*
X165831271Y-70319448D01*
X165729814Y-70236186D01*
X165646552Y-70134729D01*
X165617222Y-70098991D01*
X165533557Y-69942466D01*
X165482037Y-69772627D01*
X165464641Y-69596000D01*
X165482037Y-69419373D01*
X165533557Y-69249534D01*
X165617222Y-69093009D01*
X165646552Y-69057271D01*
X165729814Y-68955814D01*
X165831271Y-68872552D01*
X165867009Y-68843222D01*
X166023534Y-68759557D01*
X166193373Y-68708037D01*
X166259557Y-68701519D01*
X166325740Y-68695000D01*
X166414260Y-68695000D01*
X166480443Y-68701519D01*
X166480443Y-68701519D01*
G37*
G36*
X186562442Y-66161518D02*
G01*
X186628627Y-66168037D01*
X186798466Y-66219557D01*
X186954991Y-66303222D01*
X186990729Y-66332552D01*
X187092186Y-66415814D01*
X187175448Y-66517271D01*
X187204778Y-66553009D01*
X187288443Y-66709534D01*
X187339963Y-66879373D01*
X187357359Y-67056000D01*
X187339963Y-67232627D01*
X187288443Y-67402466D01*
X187204778Y-67558991D01*
X187175448Y-67594729D01*
X187092186Y-67696186D01*
X186990729Y-67779448D01*
X186954991Y-67808778D01*
X186798466Y-67892443D01*
X186628627Y-67943963D01*
X186562442Y-67950482D01*
X186496260Y-67957000D01*
X186407740Y-67957000D01*
X186341558Y-67950482D01*
X186275373Y-67943963D01*
X186105534Y-67892443D01*
X185949009Y-67808778D01*
X185913271Y-67779448D01*
X185811814Y-67696186D01*
X185728552Y-67594729D01*
X185699222Y-67558991D01*
X185615557Y-67402466D01*
X185564037Y-67232627D01*
X185546641Y-67056000D01*
X185564037Y-66879373D01*
X185615557Y-66709534D01*
X185699222Y-66553009D01*
X185728552Y-66517271D01*
X185811814Y-66415814D01*
X185913271Y-66332552D01*
X185949009Y-66303222D01*
X186105534Y-66219557D01*
X186275373Y-66168037D01*
X186341558Y-66161518D01*
X186407740Y-66155000D01*
X186496260Y-66155000D01*
X186562442Y-66161518D01*
X186562442Y-66161518D01*
G37*
G36*
X186562443Y-63621519D02*
G01*
X186628627Y-63628037D01*
X186798466Y-63679557D01*
X186954991Y-63763222D01*
X186990729Y-63792552D01*
X187092186Y-63875814D01*
X187175448Y-63977271D01*
X187204778Y-64013009D01*
X187288443Y-64169534D01*
X187339963Y-64339373D01*
X187357359Y-64516000D01*
X187339963Y-64692627D01*
X187288443Y-64862466D01*
X187204778Y-65018991D01*
X187175448Y-65054729D01*
X187092186Y-65156186D01*
X186990729Y-65239448D01*
X186954991Y-65268778D01*
X186798466Y-65352443D01*
X186628627Y-65403963D01*
X186562443Y-65410481D01*
X186496260Y-65417000D01*
X186407740Y-65417000D01*
X186341557Y-65410481D01*
X186275373Y-65403963D01*
X186105534Y-65352443D01*
X185949009Y-65268778D01*
X185913271Y-65239448D01*
X185811814Y-65156186D01*
X185728552Y-65054729D01*
X185699222Y-65018991D01*
X185615557Y-64862466D01*
X185564037Y-64692627D01*
X185546641Y-64516000D01*
X185564037Y-64339373D01*
X185615557Y-64169534D01*
X185699222Y-64013009D01*
X185728552Y-63977271D01*
X185811814Y-63875814D01*
X185913271Y-63792552D01*
X185949009Y-63763222D01*
X186105534Y-63679557D01*
X186275373Y-63628037D01*
X186341557Y-63621519D01*
X186407740Y-63615000D01*
X186496260Y-63615000D01*
X186562443Y-63621519D01*
X186562443Y-63621519D01*
G37*
G36*
X148134564Y-55377389D02*
G01*
X148325833Y-55456615D01*
X148325835Y-55456616D01*
X148497973Y-55571635D01*
X148644365Y-55718027D01*
X148759385Y-55890167D01*
X148838611Y-56081436D01*
X148879000Y-56284484D01*
X148879000Y-56491516D01*
X148838611Y-56694564D01*
X148759385Y-56885833D01*
X148759384Y-56885835D01*
X148644365Y-57057973D01*
X148497973Y-57204365D01*
X148325835Y-57319384D01*
X148325834Y-57319385D01*
X148325833Y-57319385D01*
X148134564Y-57398611D01*
X147931516Y-57439000D01*
X147724484Y-57439000D01*
X147521436Y-57398611D01*
X147330167Y-57319385D01*
X147330166Y-57319385D01*
X147330165Y-57319384D01*
X147158027Y-57204365D01*
X147011635Y-57057973D01*
X146896616Y-56885835D01*
X146896615Y-56885833D01*
X146817389Y-56694564D01*
X146777000Y-56491516D01*
X146777000Y-56284484D01*
X146817389Y-56081436D01*
X146896615Y-55890167D01*
X147011635Y-55718027D01*
X147158027Y-55571635D01*
X147330165Y-55456616D01*
X147330167Y-55456615D01*
X147521436Y-55377389D01*
X147724484Y-55337000D01*
X147931516Y-55337000D01*
X148134564Y-55377389D01*
X148134564Y-55377389D01*
G37*
G36*
X135375256Y-53391298D02*
G01*
X135481579Y-53412447D01*
X135782042Y-53536903D01*
X136052451Y-53717585D01*
X136282415Y-53947549D01*
X136463097Y-54217958D01*
X136587553Y-54518421D01*
X136651000Y-54837391D01*
X136651000Y-55162609D01*
X136587553Y-55481579D01*
X136463097Y-55782042D01*
X136282415Y-56052451D01*
X136052451Y-56282415D01*
X135782042Y-56463097D01*
X135481579Y-56587553D01*
X135375256Y-56608702D01*
X135162611Y-56651000D01*
X134837389Y-56651000D01*
X134624744Y-56608702D01*
X134518421Y-56587553D01*
X134217958Y-56463097D01*
X133947549Y-56282415D01*
X133717585Y-56052451D01*
X133536903Y-55782042D01*
X133412447Y-55481579D01*
X133349000Y-55162609D01*
X133349000Y-54837391D01*
X133412447Y-54518421D01*
X133536903Y-54217958D01*
X133717585Y-53947549D01*
X133947549Y-53717585D01*
X134217958Y-53536903D01*
X134518421Y-53412447D01*
X134624744Y-53391298D01*
X134837389Y-53349000D01*
X135162611Y-53349000D01*
X135375256Y-53391298D01*
X135375256Y-53391298D01*
G37*
G36*
X185375256Y-53391298D02*
G01*
X185481579Y-53412447D01*
X185782042Y-53536903D01*
X186052451Y-53717585D01*
X186282415Y-53947549D01*
X186463097Y-54217958D01*
X186587553Y-54518421D01*
X186651000Y-54837391D01*
X186651000Y-55162609D01*
X186587553Y-55481579D01*
X186463097Y-55782042D01*
X186282415Y-56052451D01*
X186052451Y-56282415D01*
X185782042Y-56463097D01*
X185481579Y-56587553D01*
X185375256Y-56608702D01*
X185162611Y-56651000D01*
X184837389Y-56651000D01*
X184624744Y-56608702D01*
X184518421Y-56587553D01*
X184217958Y-56463097D01*
X183947549Y-56282415D01*
X183717585Y-56052451D01*
X183536903Y-55782042D01*
X183412447Y-55481579D01*
X183349000Y-55162609D01*
X183349000Y-54837391D01*
X183412447Y-54518421D01*
X183536903Y-54217958D01*
X183717585Y-53947549D01*
X183947549Y-53717585D01*
X184217958Y-53536903D01*
X184518421Y-53412447D01*
X184624744Y-53391298D01*
X184837389Y-53349000D01*
X185162611Y-53349000D01*
X185375256Y-53391298D01*
X185375256Y-53391298D01*
G37*
M02*
