G04 #@! TF.GenerationSoftware,KiCad,Pcbnew,5.1.4+dfsg1-1*
G04 #@! TF.CreationDate,2019-10-01T15:37:08+02:00*
G04 #@! TF.ProjectId,joystick-pcb,6a6f7973-7469-4636-9b2d-7063622e6b69,1*
G04 #@! TF.SameCoordinates,Original*
G04 #@! TF.FileFunction,Soldermask,Top*
G04 #@! TF.FilePolarity,Negative*
%FSLAX46Y46*%
G04 Gerber Fmt 4.6, Leading zero omitted, Abs format (unit mm)*
G04 Created by KiCad (PCBNEW 5.1.4+dfsg1-1) date 2019-10-01 15:37:08*
%MOMM*%
%LPD*%
G04 APERTURE LIST*
%ADD10C,0.100000*%
G04 APERTURE END LIST*
D10*
G36*
X162739294Y-105270633D02*
G01*
X162911695Y-105322931D01*
X163070583Y-105407858D01*
X163209849Y-105522151D01*
X163324142Y-105661417D01*
X163409069Y-105820305D01*
X163461367Y-105992706D01*
X163479025Y-106172000D01*
X163461367Y-106351294D01*
X163409069Y-106523695D01*
X163324142Y-106682583D01*
X163209849Y-106821849D01*
X163070583Y-106936142D01*
X162911695Y-107021069D01*
X162739294Y-107073367D01*
X162604931Y-107086600D01*
X162515069Y-107086600D01*
X162380706Y-107073367D01*
X162208305Y-107021069D01*
X162049417Y-106936142D01*
X161910151Y-106821849D01*
X161795858Y-106682583D01*
X161710931Y-106523695D01*
X161658633Y-106351294D01*
X161640975Y-106172000D01*
X161658633Y-105992706D01*
X161710931Y-105820305D01*
X161795858Y-105661417D01*
X161910151Y-105522151D01*
X162049417Y-105407858D01*
X162208305Y-105322931D01*
X162380706Y-105270633D01*
X162515069Y-105257400D01*
X162604931Y-105257400D01*
X162739294Y-105270633D01*
X162739294Y-105270633D01*
G37*
G36*
X157659294Y-105270633D02*
G01*
X157831695Y-105322931D01*
X157990583Y-105407858D01*
X158129849Y-105522151D01*
X158244142Y-105661417D01*
X158329069Y-105820305D01*
X158381367Y-105992706D01*
X158399025Y-106172000D01*
X158381367Y-106351294D01*
X158329069Y-106523695D01*
X158244142Y-106682583D01*
X158129849Y-106821849D01*
X157990583Y-106936142D01*
X157831695Y-107021069D01*
X157659294Y-107073367D01*
X157524931Y-107086600D01*
X157435069Y-107086600D01*
X157300706Y-107073367D01*
X157128305Y-107021069D01*
X156969417Y-106936142D01*
X156830151Y-106821849D01*
X156715858Y-106682583D01*
X156630931Y-106523695D01*
X156578633Y-106351294D01*
X156560975Y-106172000D01*
X156578633Y-105992706D01*
X156630931Y-105820305D01*
X156715858Y-105661417D01*
X156830151Y-105522151D01*
X156969417Y-105407858D01*
X157128305Y-105322931D01*
X157300706Y-105270633D01*
X157435069Y-105257400D01*
X157524931Y-105257400D01*
X157659294Y-105270633D01*
X157659294Y-105270633D01*
G37*
G36*
X160199294Y-105270633D02*
G01*
X160371695Y-105322931D01*
X160530583Y-105407858D01*
X160669849Y-105522151D01*
X160784142Y-105661417D01*
X160869069Y-105820305D01*
X160921367Y-105992706D01*
X160939025Y-106172000D01*
X160921367Y-106351294D01*
X160869069Y-106523695D01*
X160784142Y-106682583D01*
X160669849Y-106821849D01*
X160530583Y-106936142D01*
X160371695Y-107021069D01*
X160199294Y-107073367D01*
X160064931Y-107086600D01*
X159975069Y-107086600D01*
X159840706Y-107073367D01*
X159668305Y-107021069D01*
X159509417Y-106936142D01*
X159370151Y-106821849D01*
X159255858Y-106682583D01*
X159170931Y-106523695D01*
X159118633Y-106351294D01*
X159100975Y-106172000D01*
X159118633Y-105992706D01*
X159170931Y-105820305D01*
X159255858Y-105661417D01*
X159370151Y-105522151D01*
X159509417Y-105407858D01*
X159668305Y-105322931D01*
X159840706Y-105270633D01*
X159975069Y-105257400D01*
X160064931Y-105257400D01*
X160199294Y-105270633D01*
X160199294Y-105270633D01*
G37*
G36*
X185375256Y-103391298D02*
G01*
X185481579Y-103412447D01*
X185782042Y-103536903D01*
X186052451Y-103717585D01*
X186282415Y-103947549D01*
X186463097Y-104217958D01*
X186540227Y-104404165D01*
X186587553Y-104518422D01*
X186643262Y-104798486D01*
X186651000Y-104837391D01*
X186651000Y-105162609D01*
X186587553Y-105481579D01*
X186463097Y-105782042D01*
X186282415Y-106052451D01*
X186052451Y-106282415D01*
X185782042Y-106463097D01*
X185481579Y-106587553D01*
X185375256Y-106608702D01*
X185162611Y-106651000D01*
X184837389Y-106651000D01*
X184624744Y-106608702D01*
X184518421Y-106587553D01*
X184217958Y-106463097D01*
X183947549Y-106282415D01*
X183717585Y-106052451D01*
X183536903Y-105782042D01*
X183412447Y-105481579D01*
X183349000Y-105162609D01*
X183349000Y-104837391D01*
X183356739Y-104798486D01*
X183412447Y-104518422D01*
X183459774Y-104404165D01*
X183536903Y-104217958D01*
X183717585Y-103947549D01*
X183947549Y-103717585D01*
X184217958Y-103536903D01*
X184518421Y-103412447D01*
X184624744Y-103391298D01*
X184837389Y-103349000D01*
X185162611Y-103349000D01*
X185375256Y-103391298D01*
X185375256Y-103391298D01*
G37*
G36*
X135375256Y-103391298D02*
G01*
X135481579Y-103412447D01*
X135782042Y-103536903D01*
X136052451Y-103717585D01*
X136282415Y-103947549D01*
X136463097Y-104217958D01*
X136540227Y-104404165D01*
X136587553Y-104518422D01*
X136643262Y-104798486D01*
X136651000Y-104837391D01*
X136651000Y-105162609D01*
X136587553Y-105481579D01*
X136463097Y-105782042D01*
X136282415Y-106052451D01*
X136052451Y-106282415D01*
X135782042Y-106463097D01*
X135481579Y-106587553D01*
X135375256Y-106608702D01*
X135162611Y-106651000D01*
X134837389Y-106651000D01*
X134624744Y-106608702D01*
X134518421Y-106587553D01*
X134217958Y-106463097D01*
X133947549Y-106282415D01*
X133717585Y-106052451D01*
X133536903Y-105782042D01*
X133412447Y-105481579D01*
X133349000Y-105162609D01*
X133349000Y-104837391D01*
X133356739Y-104798486D01*
X133412447Y-104518422D01*
X133459774Y-104404165D01*
X133536903Y-104217958D01*
X133717585Y-103947549D01*
X133947549Y-103717585D01*
X134217958Y-103536903D01*
X134518421Y-103412447D01*
X134624744Y-103391298D01*
X134837389Y-103349000D01*
X135162611Y-103349000D01*
X135375256Y-103391298D01*
X135375256Y-103391298D01*
G37*
G36*
X144324564Y-103891389D02*
G01*
X144460151Y-103947551D01*
X144515835Y-103970616D01*
X144687973Y-104085635D01*
X144834365Y-104232027D01*
X144944023Y-104396141D01*
X144949385Y-104404167D01*
X145028611Y-104595436D01*
X145069000Y-104798484D01*
X145069000Y-105005516D01*
X145028611Y-105208564D01*
X144981238Y-105322932D01*
X144949384Y-105399835D01*
X144834365Y-105571973D01*
X144687973Y-105718365D01*
X144515835Y-105833384D01*
X144515834Y-105833385D01*
X144515833Y-105833385D01*
X144324564Y-105912611D01*
X144121516Y-105953000D01*
X143914484Y-105953000D01*
X143711436Y-105912611D01*
X143520167Y-105833385D01*
X143520166Y-105833385D01*
X143520165Y-105833384D01*
X143348027Y-105718365D01*
X143201635Y-105571973D01*
X143086616Y-105399835D01*
X143054762Y-105322932D01*
X143007389Y-105208564D01*
X142967000Y-105005516D01*
X142967000Y-104798484D01*
X143007389Y-104595436D01*
X143086615Y-104404167D01*
X143091978Y-104396141D01*
X143201635Y-104232027D01*
X143348027Y-104085635D01*
X143520165Y-103970616D01*
X143575849Y-103947551D01*
X143711436Y-103891389D01*
X143914484Y-103851000D01*
X144121516Y-103851000D01*
X144324564Y-103891389D01*
X144324564Y-103891389D01*
G37*
G36*
X163474600Y-104546600D02*
G01*
X161645400Y-104546600D01*
X161645400Y-102717400D01*
X163474600Y-102717400D01*
X163474600Y-104546600D01*
X163474600Y-104546600D01*
G37*
G36*
X157659294Y-102730633D02*
G01*
X157831695Y-102782931D01*
X157990583Y-102867858D01*
X158129849Y-102982151D01*
X158244142Y-103121417D01*
X158329069Y-103280305D01*
X158381367Y-103452706D01*
X158399025Y-103632000D01*
X158381367Y-103811294D01*
X158329069Y-103983695D01*
X158244142Y-104142583D01*
X158129849Y-104281849D01*
X157990583Y-104396142D01*
X157831695Y-104481069D01*
X157659294Y-104533367D01*
X157524931Y-104546600D01*
X157435069Y-104546600D01*
X157300706Y-104533367D01*
X157128305Y-104481069D01*
X156969417Y-104396142D01*
X156830151Y-104281849D01*
X156715858Y-104142583D01*
X156630931Y-103983695D01*
X156578633Y-103811294D01*
X156560975Y-103632000D01*
X156578633Y-103452706D01*
X156630931Y-103280305D01*
X156715858Y-103121417D01*
X156830151Y-102982151D01*
X156969417Y-102867858D01*
X157128305Y-102782931D01*
X157300706Y-102730633D01*
X157435069Y-102717400D01*
X157524931Y-102717400D01*
X157659294Y-102730633D01*
X157659294Y-102730633D01*
G37*
G36*
X160199294Y-102730633D02*
G01*
X160371695Y-102782931D01*
X160530583Y-102867858D01*
X160669849Y-102982151D01*
X160784142Y-103121417D01*
X160869069Y-103280305D01*
X160921367Y-103452706D01*
X160939025Y-103632000D01*
X160921367Y-103811294D01*
X160869069Y-103983695D01*
X160784142Y-104142583D01*
X160669849Y-104281849D01*
X160530583Y-104396142D01*
X160371695Y-104481069D01*
X160199294Y-104533367D01*
X160064931Y-104546600D01*
X159975069Y-104546600D01*
X159840706Y-104533367D01*
X159668305Y-104481069D01*
X159509417Y-104396142D01*
X159370151Y-104281849D01*
X159255858Y-104142583D01*
X159170931Y-103983695D01*
X159118633Y-103811294D01*
X159100975Y-103632000D01*
X159118633Y-103452706D01*
X159170931Y-103280305D01*
X159255858Y-103121417D01*
X159370151Y-102982151D01*
X159509417Y-102867858D01*
X159668305Y-102782931D01*
X159840706Y-102730633D01*
X159975069Y-102717400D01*
X160064931Y-102717400D01*
X160199294Y-102730633D01*
X160199294Y-102730633D01*
G37*
G36*
X153385999Y-95680945D02*
G01*
X153423495Y-95692320D01*
X153458054Y-95710792D01*
X153488347Y-95735653D01*
X153513208Y-95765946D01*
X153531680Y-95800505D01*
X153543055Y-95838001D01*
X153547500Y-95883138D01*
X153547500Y-96521862D01*
X153543055Y-96566999D01*
X153531680Y-96604495D01*
X153513208Y-96639054D01*
X153488347Y-96669347D01*
X153458054Y-96694208D01*
X153423495Y-96712680D01*
X153385999Y-96724055D01*
X153340862Y-96728500D01*
X152602138Y-96728500D01*
X152557001Y-96724055D01*
X152519505Y-96712680D01*
X152484946Y-96694208D01*
X152454653Y-96669347D01*
X152429792Y-96639054D01*
X152411320Y-96604495D01*
X152399945Y-96566999D01*
X152395500Y-96521862D01*
X152395500Y-95883138D01*
X152399945Y-95838001D01*
X152411320Y-95800505D01*
X152429792Y-95765946D01*
X152454653Y-95735653D01*
X152484946Y-95710792D01*
X152519505Y-95692320D01*
X152557001Y-95680945D01*
X152602138Y-95676500D01*
X153340862Y-95676500D01*
X153385999Y-95680945D01*
X153385999Y-95680945D01*
G37*
G36*
X155135999Y-95680945D02*
G01*
X155173495Y-95692320D01*
X155208054Y-95710792D01*
X155238347Y-95735653D01*
X155263208Y-95765946D01*
X155281680Y-95800505D01*
X155293055Y-95838001D01*
X155297500Y-95883138D01*
X155297500Y-96521862D01*
X155293055Y-96566999D01*
X155281680Y-96604495D01*
X155263208Y-96639054D01*
X155238347Y-96669347D01*
X155208054Y-96694208D01*
X155173495Y-96712680D01*
X155135999Y-96724055D01*
X155090862Y-96728500D01*
X154352138Y-96728500D01*
X154307001Y-96724055D01*
X154269505Y-96712680D01*
X154234946Y-96694208D01*
X154204653Y-96669347D01*
X154179792Y-96639054D01*
X154161320Y-96604495D01*
X154149945Y-96566999D01*
X154145500Y-96521862D01*
X154145500Y-95883138D01*
X154149945Y-95838001D01*
X154161320Y-95800505D01*
X154179792Y-95765946D01*
X154204653Y-95735653D01*
X154234946Y-95710792D01*
X154269505Y-95692320D01*
X154307001Y-95680945D01*
X154352138Y-95676500D01*
X155090862Y-95676500D01*
X155135999Y-95680945D01*
X155135999Y-95680945D01*
G37*
G36*
X187353000Y-96405000D02*
G01*
X185551000Y-96405000D01*
X185551000Y-94603000D01*
X187353000Y-94603000D01*
X187353000Y-96405000D01*
X187353000Y-96405000D01*
G37*
G36*
X151411136Y-93906981D02*
G01*
X151448632Y-93918356D01*
X151483191Y-93936828D01*
X151518255Y-93965604D01*
X151969896Y-94417245D01*
X151998672Y-94452309D01*
X152017144Y-94486868D01*
X152028519Y-94524364D01*
X152032359Y-94563363D01*
X152028519Y-94602362D01*
X152017144Y-94639858D01*
X151998672Y-94674417D01*
X151969896Y-94709481D01*
X151447545Y-95231832D01*
X151412481Y-95260608D01*
X151377922Y-95279080D01*
X151340426Y-95290455D01*
X151301427Y-95294295D01*
X151262428Y-95290455D01*
X151224932Y-95279080D01*
X151190373Y-95260608D01*
X151155309Y-95231832D01*
X150703668Y-94780191D01*
X150674892Y-94745127D01*
X150656420Y-94710568D01*
X150645045Y-94673072D01*
X150641205Y-94634073D01*
X150645045Y-94595074D01*
X150656420Y-94557578D01*
X150674892Y-94523019D01*
X150703668Y-94487955D01*
X151226019Y-93965604D01*
X151261083Y-93936828D01*
X151295642Y-93918356D01*
X151333138Y-93906981D01*
X151372137Y-93903141D01*
X151411136Y-93906981D01*
X151411136Y-93906981D01*
G37*
G36*
X137495000Y-95077000D02*
G01*
X134793000Y-95077000D01*
X134793000Y-92375000D01*
X137495000Y-92375000D01*
X137495000Y-95077000D01*
X137495000Y-95077000D01*
G37*
G36*
X163539636Y-93398981D02*
G01*
X163577132Y-93410356D01*
X163611691Y-93428828D01*
X163646755Y-93457604D01*
X164098396Y-93909245D01*
X164127172Y-93944309D01*
X164145644Y-93978868D01*
X164157019Y-94016364D01*
X164160859Y-94055363D01*
X164157019Y-94094362D01*
X164145644Y-94131858D01*
X164127172Y-94166417D01*
X164098396Y-94201481D01*
X163576045Y-94723832D01*
X163540981Y-94752608D01*
X163506422Y-94771080D01*
X163468926Y-94782455D01*
X163429927Y-94786295D01*
X163390928Y-94782455D01*
X163353432Y-94771080D01*
X163318873Y-94752608D01*
X163283809Y-94723832D01*
X162832168Y-94272191D01*
X162803392Y-94237127D01*
X162784920Y-94202568D01*
X162773545Y-94165072D01*
X162769705Y-94126073D01*
X162773545Y-94087074D01*
X162784920Y-94049578D01*
X162803392Y-94015019D01*
X162832168Y-93979955D01*
X163354519Y-93457604D01*
X163389583Y-93428828D01*
X163424142Y-93410356D01*
X163461638Y-93398981D01*
X163500637Y-93395141D01*
X163539636Y-93398981D01*
X163539636Y-93398981D01*
G37*
G36*
X152648572Y-92669545D02*
G01*
X152686068Y-92680920D01*
X152720627Y-92699392D01*
X152755691Y-92728168D01*
X153207332Y-93179809D01*
X153236108Y-93214873D01*
X153254580Y-93249432D01*
X153265955Y-93286928D01*
X153269795Y-93325927D01*
X153265955Y-93364926D01*
X153254580Y-93402422D01*
X153236108Y-93436981D01*
X153207332Y-93472045D01*
X152684981Y-93994396D01*
X152649917Y-94023172D01*
X152615358Y-94041644D01*
X152577862Y-94053019D01*
X152538863Y-94056859D01*
X152499864Y-94053019D01*
X152462368Y-94041644D01*
X152427809Y-94023172D01*
X152392745Y-93994396D01*
X151941104Y-93542755D01*
X151912328Y-93507691D01*
X151893856Y-93473132D01*
X151882481Y-93435636D01*
X151878641Y-93396637D01*
X151882481Y-93357638D01*
X151893856Y-93320142D01*
X151912328Y-93285583D01*
X151941104Y-93250519D01*
X152463455Y-92728168D01*
X152498519Y-92699392D01*
X152533078Y-92680920D01*
X152570574Y-92669545D01*
X152609573Y-92665705D01*
X152648572Y-92669545D01*
X152648572Y-92669545D01*
G37*
G36*
X186562443Y-92069519D02*
G01*
X186628627Y-92076037D01*
X186798466Y-92127557D01*
X186954991Y-92211222D01*
X186974595Y-92227311D01*
X187092186Y-92323814D01*
X187144861Y-92388000D01*
X187204778Y-92461009D01*
X187288443Y-92617534D01*
X187339963Y-92787373D01*
X187357359Y-92964000D01*
X187339963Y-93140627D01*
X187288443Y-93310466D01*
X187204778Y-93466991D01*
X187185895Y-93490000D01*
X187092186Y-93604186D01*
X186990729Y-93687448D01*
X186954991Y-93716778D01*
X186954989Y-93716779D01*
X186822247Y-93787732D01*
X186798466Y-93800443D01*
X186628627Y-93851963D01*
X186562443Y-93858481D01*
X186496260Y-93865000D01*
X186407740Y-93865000D01*
X186341557Y-93858481D01*
X186275373Y-93851963D01*
X186105534Y-93800443D01*
X186081754Y-93787732D01*
X185949011Y-93716779D01*
X185949009Y-93716778D01*
X185913271Y-93687448D01*
X185811814Y-93604186D01*
X185718105Y-93490000D01*
X185699222Y-93466991D01*
X185615557Y-93310466D01*
X185564037Y-93140627D01*
X185546641Y-92964000D01*
X185564037Y-92787373D01*
X185615557Y-92617534D01*
X185699222Y-92461009D01*
X185759139Y-92388000D01*
X185811814Y-92323814D01*
X185929405Y-92227311D01*
X185949009Y-92211222D01*
X186105534Y-92127557D01*
X186275373Y-92076037D01*
X186341557Y-92069519D01*
X186407740Y-92063000D01*
X186496260Y-92063000D01*
X186562443Y-92069519D01*
X186562443Y-92069519D01*
G37*
G36*
X161786023Y-92041036D02*
G01*
X161823716Y-92052470D01*
X161858452Y-92071037D01*
X161893665Y-92099935D01*
X162662065Y-92868335D01*
X162690963Y-92903548D01*
X162709530Y-92938284D01*
X162720964Y-92975977D01*
X162724824Y-93015172D01*
X162720964Y-93054367D01*
X162709530Y-93092060D01*
X162690963Y-93126796D01*
X162662065Y-93162009D01*
X162070441Y-93753633D01*
X162035228Y-93782531D01*
X162000492Y-93801098D01*
X161962799Y-93812532D01*
X161923604Y-93816392D01*
X161884409Y-93812532D01*
X161846716Y-93801098D01*
X161811980Y-93782531D01*
X161776767Y-93753633D01*
X161008367Y-92985233D01*
X160979469Y-92950020D01*
X160960902Y-92915284D01*
X160949468Y-92877591D01*
X160945608Y-92838396D01*
X160949468Y-92799201D01*
X160960902Y-92761508D01*
X160979469Y-92726772D01*
X161008367Y-92691559D01*
X161599991Y-92099935D01*
X161635204Y-92071037D01*
X161669940Y-92052470D01*
X161707633Y-92041036D01*
X161746828Y-92037176D01*
X161786023Y-92041036D01*
X161786023Y-92041036D01*
G37*
G36*
X164777072Y-92161545D02*
G01*
X164814568Y-92172920D01*
X164849127Y-92191392D01*
X164884191Y-92220168D01*
X165335832Y-92671809D01*
X165364608Y-92706873D01*
X165383080Y-92741432D01*
X165394455Y-92778928D01*
X165398295Y-92817927D01*
X165394455Y-92856926D01*
X165383080Y-92894422D01*
X165364608Y-92928981D01*
X165335832Y-92964045D01*
X164813481Y-93486396D01*
X164778417Y-93515172D01*
X164743858Y-93533644D01*
X164706362Y-93545019D01*
X164667363Y-93548859D01*
X164628364Y-93545019D01*
X164590868Y-93533644D01*
X164556309Y-93515172D01*
X164521245Y-93486396D01*
X164069604Y-93034755D01*
X164040828Y-92999691D01*
X164022356Y-92965132D01*
X164010981Y-92927636D01*
X164007141Y-92888637D01*
X164010981Y-92849638D01*
X164022356Y-92812142D01*
X164040828Y-92777583D01*
X164069604Y-92742519D01*
X164591955Y-92220168D01*
X164627019Y-92191392D01*
X164661578Y-92172920D01*
X164699074Y-92161545D01*
X164738073Y-92157705D01*
X164777072Y-92161545D01*
X164777072Y-92161545D01*
G37*
G36*
X179704499Y-92392445D02*
G01*
X179741995Y-92403820D01*
X179776554Y-92422292D01*
X179806847Y-92447153D01*
X179831708Y-92477446D01*
X179850180Y-92512005D01*
X179861555Y-92549501D01*
X179866000Y-92594638D01*
X179866000Y-93333362D01*
X179861555Y-93378499D01*
X179850180Y-93415995D01*
X179831708Y-93450554D01*
X179806847Y-93480847D01*
X179776554Y-93505708D01*
X179741995Y-93524180D01*
X179704499Y-93535555D01*
X179659362Y-93540000D01*
X179020638Y-93540000D01*
X178975501Y-93535555D01*
X178938005Y-93524180D01*
X178903446Y-93505708D01*
X178873153Y-93480847D01*
X178848292Y-93450554D01*
X178829820Y-93415995D01*
X178818445Y-93378499D01*
X178814000Y-93333362D01*
X178814000Y-92594638D01*
X178818445Y-92549501D01*
X178829820Y-92512005D01*
X178848292Y-92477446D01*
X178873153Y-92447153D01*
X178903446Y-92422292D01*
X178938005Y-92403820D01*
X178975501Y-92392445D01*
X179020638Y-92388000D01*
X179659362Y-92388000D01*
X179704499Y-92392445D01*
X179704499Y-92392445D01*
G37*
G36*
X183564499Y-92442445D02*
G01*
X183601995Y-92453820D01*
X183636554Y-92472292D01*
X183666847Y-92497153D01*
X183691708Y-92527446D01*
X183710180Y-92562005D01*
X183721555Y-92599501D01*
X183726000Y-92644638D01*
X183726000Y-93283362D01*
X183721555Y-93328499D01*
X183710180Y-93365995D01*
X183691708Y-93400554D01*
X183666847Y-93430847D01*
X183636554Y-93455708D01*
X183601995Y-93474180D01*
X183564499Y-93485555D01*
X183519362Y-93490000D01*
X182780638Y-93490000D01*
X182735501Y-93485555D01*
X182698005Y-93474180D01*
X182663446Y-93455708D01*
X182633153Y-93430847D01*
X182608292Y-93400554D01*
X182589820Y-93365995D01*
X182578445Y-93328499D01*
X182574000Y-93283362D01*
X182574000Y-92644638D01*
X182578445Y-92599501D01*
X182589820Y-92562005D01*
X182608292Y-92527446D01*
X182633153Y-92497153D01*
X182663446Y-92472292D01*
X182698005Y-92453820D01*
X182735501Y-92442445D01*
X182780638Y-92438000D01*
X183519362Y-92438000D01*
X183564499Y-92442445D01*
X183564499Y-92442445D01*
G37*
G36*
X181814499Y-92442445D02*
G01*
X181851995Y-92453820D01*
X181886554Y-92472292D01*
X181916847Y-92497153D01*
X181941708Y-92527446D01*
X181960180Y-92562005D01*
X181971555Y-92599501D01*
X181976000Y-92644638D01*
X181976000Y-93283362D01*
X181971555Y-93328499D01*
X181960180Y-93365995D01*
X181941708Y-93400554D01*
X181916847Y-93430847D01*
X181886554Y-93455708D01*
X181851995Y-93474180D01*
X181814499Y-93485555D01*
X181769362Y-93490000D01*
X181030638Y-93490000D01*
X180985501Y-93485555D01*
X180948005Y-93474180D01*
X180913446Y-93455708D01*
X180883153Y-93430847D01*
X180858292Y-93400554D01*
X180839820Y-93365995D01*
X180828445Y-93328499D01*
X180824000Y-93283362D01*
X180824000Y-92644638D01*
X180828445Y-92599501D01*
X180839820Y-92562005D01*
X180858292Y-92527446D01*
X180883153Y-92497153D01*
X180913446Y-92472292D01*
X180948005Y-92453820D01*
X180985501Y-92442445D01*
X181030638Y-92438000D01*
X181769362Y-92438000D01*
X181814499Y-92442445D01*
X181814499Y-92442445D01*
G37*
G36*
X153885739Y-91051320D02*
G01*
X153923432Y-91062754D01*
X153958168Y-91081321D01*
X153993381Y-91110219D01*
X154761781Y-91878619D01*
X154790679Y-91913832D01*
X154809246Y-91948568D01*
X154820680Y-91986261D01*
X154824540Y-92025456D01*
X154820680Y-92064651D01*
X154809246Y-92102344D01*
X154790679Y-92137080D01*
X154761781Y-92172293D01*
X154170157Y-92763917D01*
X154134944Y-92792815D01*
X154100208Y-92811382D01*
X154062515Y-92822816D01*
X154023320Y-92826676D01*
X153984125Y-92822816D01*
X153946432Y-92811382D01*
X153911696Y-92792815D01*
X153876483Y-92763917D01*
X153108083Y-91995517D01*
X153079185Y-91960304D01*
X153060618Y-91925568D01*
X153049184Y-91887875D01*
X153045324Y-91848680D01*
X153049184Y-91809485D01*
X153060618Y-91771792D01*
X153079185Y-91737056D01*
X153108083Y-91701843D01*
X153699707Y-91110219D01*
X153734920Y-91081321D01*
X153769656Y-91062754D01*
X153807349Y-91051320D01*
X153846544Y-91047460D01*
X153885739Y-91051320D01*
X153885739Y-91051320D01*
G37*
G36*
X163235591Y-90591468D02*
G01*
X163273284Y-90602902D01*
X163308020Y-90621469D01*
X163343233Y-90650367D01*
X164111633Y-91418767D01*
X164140531Y-91453980D01*
X164159098Y-91488716D01*
X164170532Y-91526409D01*
X164174392Y-91565604D01*
X164170532Y-91604799D01*
X164159098Y-91642492D01*
X164140531Y-91677228D01*
X164111633Y-91712441D01*
X163520009Y-92304065D01*
X163484796Y-92332963D01*
X163450060Y-92351530D01*
X163412367Y-92362964D01*
X163373172Y-92366824D01*
X163333977Y-92362964D01*
X163296284Y-92351530D01*
X163261548Y-92332963D01*
X163226335Y-92304065D01*
X162457935Y-91535665D01*
X162429037Y-91500452D01*
X162410470Y-91465716D01*
X162399036Y-91428023D01*
X162395176Y-91388828D01*
X162399036Y-91349633D01*
X162410470Y-91311940D01*
X162429037Y-91277204D01*
X162457935Y-91241991D01*
X163049559Y-90650367D01*
X163084772Y-90621469D01*
X163119508Y-90602902D01*
X163157201Y-90591468D01*
X163196396Y-90587608D01*
X163235591Y-90591468D01*
X163235591Y-90591468D01*
G37*
G36*
X165611644Y-90748263D02*
G01*
X165649140Y-90759638D01*
X165683699Y-90778110D01*
X165718763Y-90806886D01*
X166241114Y-91329237D01*
X166269890Y-91364301D01*
X166288362Y-91398860D01*
X166299737Y-91436356D01*
X166303577Y-91475355D01*
X166299737Y-91514354D01*
X166288362Y-91551850D01*
X166269890Y-91586409D01*
X166241114Y-91621473D01*
X165789473Y-92073114D01*
X165754409Y-92101890D01*
X165719850Y-92120362D01*
X165682354Y-92131737D01*
X165643355Y-92135577D01*
X165604356Y-92131737D01*
X165566860Y-92120362D01*
X165532301Y-92101890D01*
X165497237Y-92073114D01*
X164974886Y-91550763D01*
X164946110Y-91515699D01*
X164927638Y-91481140D01*
X164916263Y-91443644D01*
X164912423Y-91404645D01*
X164916263Y-91365646D01*
X164927638Y-91328150D01*
X164946110Y-91293591D01*
X164974886Y-91258527D01*
X165426527Y-90806886D01*
X165461591Y-90778110D01*
X165496150Y-90759638D01*
X165533646Y-90748263D01*
X165572645Y-90744423D01*
X165611644Y-90748263D01*
X165611644Y-90748263D01*
G37*
G36*
X179704499Y-90642445D02*
G01*
X179741995Y-90653820D01*
X179776554Y-90672292D01*
X179806847Y-90697153D01*
X179831708Y-90727446D01*
X179850180Y-90762005D01*
X179861555Y-90799501D01*
X179866000Y-90844638D01*
X179866000Y-91583362D01*
X179861555Y-91628499D01*
X179850180Y-91665995D01*
X179831708Y-91700554D01*
X179806847Y-91730847D01*
X179776554Y-91755708D01*
X179741995Y-91774180D01*
X179704499Y-91785555D01*
X179659362Y-91790000D01*
X179020638Y-91790000D01*
X178975501Y-91785555D01*
X178938005Y-91774180D01*
X178903446Y-91755708D01*
X178873153Y-91730847D01*
X178848292Y-91700554D01*
X178829820Y-91665995D01*
X178818445Y-91628499D01*
X178814000Y-91583362D01*
X178814000Y-90844638D01*
X178818445Y-90799501D01*
X178829820Y-90762005D01*
X178848292Y-90727446D01*
X178873153Y-90697153D01*
X178903446Y-90672292D01*
X178938005Y-90653820D01*
X178975501Y-90642445D01*
X179020638Y-90638000D01*
X179659362Y-90638000D01*
X179704499Y-90642445D01*
X179704499Y-90642445D01*
G37*
G36*
X155335307Y-89601752D02*
G01*
X155373000Y-89613186D01*
X155407736Y-89631753D01*
X155442949Y-89660651D01*
X156211349Y-90429051D01*
X156240247Y-90464264D01*
X156258814Y-90499000D01*
X156270248Y-90536693D01*
X156274108Y-90575888D01*
X156270248Y-90615083D01*
X156258814Y-90652776D01*
X156240247Y-90687512D01*
X156211349Y-90722725D01*
X155619725Y-91314349D01*
X155584512Y-91343247D01*
X155549776Y-91361814D01*
X155512083Y-91373248D01*
X155472888Y-91377108D01*
X155433693Y-91373248D01*
X155396000Y-91361814D01*
X155361264Y-91343247D01*
X155326051Y-91314349D01*
X154557651Y-90545949D01*
X154528753Y-90510736D01*
X154510186Y-90476000D01*
X154498752Y-90438307D01*
X154494892Y-90399112D01*
X154498752Y-90359917D01*
X154510186Y-90322224D01*
X154528753Y-90287488D01*
X154557651Y-90252275D01*
X155149275Y-89660651D01*
X155184488Y-89631753D01*
X155219224Y-89613186D01*
X155256917Y-89601752D01*
X155296112Y-89597892D01*
X155335307Y-89601752D01*
X155335307Y-89601752D01*
G37*
G36*
X186562442Y-89529518D02*
G01*
X186628627Y-89536037D01*
X186798466Y-89587557D01*
X186954991Y-89671222D01*
X186984441Y-89695391D01*
X187092186Y-89783814D01*
X187175448Y-89885271D01*
X187204778Y-89921009D01*
X187288443Y-90077534D01*
X187339963Y-90247373D01*
X187357359Y-90424000D01*
X187339963Y-90600627D01*
X187288443Y-90770466D01*
X187204778Y-90926991D01*
X187189543Y-90945555D01*
X187092186Y-91064186D01*
X186990729Y-91147448D01*
X186954991Y-91176778D01*
X186798466Y-91260443D01*
X186628627Y-91311963D01*
X186562442Y-91318482D01*
X186496260Y-91325000D01*
X186407740Y-91325000D01*
X186341557Y-91318481D01*
X186275373Y-91311963D01*
X186105534Y-91260443D01*
X185949009Y-91176778D01*
X185913271Y-91147448D01*
X185811814Y-91064186D01*
X185714457Y-90945555D01*
X185699222Y-90926991D01*
X185615557Y-90770466D01*
X185564037Y-90600627D01*
X185546641Y-90424000D01*
X185564037Y-90247373D01*
X185615557Y-90077534D01*
X185699222Y-89921009D01*
X185728552Y-89885271D01*
X185811814Y-89783814D01*
X185919559Y-89695391D01*
X185949009Y-89671222D01*
X186105534Y-89587557D01*
X186275373Y-89536037D01*
X186341558Y-89529518D01*
X186407740Y-89523000D01*
X186496260Y-89523000D01*
X186562442Y-89529518D01*
X186562442Y-89529518D01*
G37*
G36*
X155867162Y-85998074D02*
G01*
X155867162Y-85998075D01*
X155883426Y-86014339D01*
X155883432Y-86014344D01*
X155971814Y-86102726D01*
X155971814Y-86102725D01*
X156432848Y-86563759D01*
X156432848Y-86563760D01*
X156521230Y-86652142D01*
X156521235Y-86652148D01*
X156537499Y-86668412D01*
X156537499Y-86668411D01*
X156998533Y-87129445D01*
X156998533Y-87129446D01*
X157103184Y-87234097D01*
X157103184Y-87234096D01*
X157564218Y-87695130D01*
X157564218Y-87695131D01*
X157668870Y-87799783D01*
X157668870Y-87799782D01*
X158129904Y-88260816D01*
X158129904Y-88260817D01*
X158234555Y-88365468D01*
X158234555Y-88365467D01*
X158695589Y-88826501D01*
X158695589Y-88826502D01*
X158711853Y-88842766D01*
X158711859Y-88842771D01*
X158800241Y-88931153D01*
X158800241Y-88931152D01*
X159261275Y-89392186D01*
X159261275Y-89392187D01*
X159349657Y-89480569D01*
X159349662Y-89480575D01*
X159365926Y-89496839D01*
X159365926Y-89496838D01*
X159826960Y-89957872D01*
X158623464Y-91161368D01*
X158162430Y-90700334D01*
X158162431Y-90700334D01*
X158074049Y-90611952D01*
X158074044Y-90611946D01*
X158057780Y-90595682D01*
X158057779Y-90595682D01*
X157596745Y-90134648D01*
X157596746Y-90134648D01*
X157580482Y-90118384D01*
X157580476Y-90118379D01*
X157492094Y-90029997D01*
X157492093Y-90029997D01*
X157031059Y-89568963D01*
X157031060Y-89568963D01*
X156926409Y-89464312D01*
X156926408Y-89464312D01*
X156465374Y-89003278D01*
X156465375Y-89003278D01*
X156360723Y-88898626D01*
X156360722Y-88898626D01*
X155899688Y-88437592D01*
X155899689Y-88437592D01*
X155795038Y-88332941D01*
X155795037Y-88332941D01*
X155334003Y-87871907D01*
X155334004Y-87871907D01*
X155245622Y-87783525D01*
X155245617Y-87783519D01*
X155229353Y-87767255D01*
X155229352Y-87767255D01*
X154768318Y-87306221D01*
X154768319Y-87306221D01*
X154752055Y-87289957D01*
X154752049Y-87289952D01*
X154663667Y-87201570D01*
X154663666Y-87201570D01*
X154202632Y-86740536D01*
X155406128Y-85537040D01*
X155867162Y-85998074D01*
X155867162Y-85998074D01*
G37*
G36*
X165837368Y-86740536D02*
G01*
X165376334Y-87201570D01*
X165271682Y-87306221D01*
X164810648Y-87767255D01*
X164705997Y-87871907D01*
X162547907Y-90029997D01*
X162443255Y-90134648D01*
X161982221Y-90595682D01*
X161877570Y-90700334D01*
X161416536Y-91161368D01*
X160213040Y-89957872D01*
X160674074Y-89496838D01*
X160674075Y-89496839D01*
X160690339Y-89480575D01*
X160690348Y-89480564D01*
X160778726Y-89392187D01*
X160778725Y-89392186D01*
X161239759Y-88931152D01*
X161239760Y-88931153D01*
X161328137Y-88842775D01*
X161328148Y-88842766D01*
X161344412Y-88826502D01*
X161344411Y-88826501D01*
X161805445Y-88365467D01*
X161805446Y-88365468D01*
X161893833Y-88277080D01*
X161910097Y-88260817D01*
X161910096Y-88260816D01*
X162371130Y-87799782D01*
X162371131Y-87799783D01*
X162475783Y-87695131D01*
X162475782Y-87695130D01*
X162936816Y-87234096D01*
X162936817Y-87234097D01*
X163025204Y-87145709D01*
X163041468Y-87129446D01*
X163041467Y-87129445D01*
X163502501Y-86668411D01*
X163502502Y-86668412D01*
X163518766Y-86652148D01*
X163518775Y-86652137D01*
X163607153Y-86563760D01*
X163607152Y-86563759D01*
X164068186Y-86102725D01*
X164068187Y-86102726D01*
X164156564Y-86014348D01*
X164156575Y-86014339D01*
X164172839Y-85998075D01*
X164172838Y-85998074D01*
X164633872Y-85537040D01*
X165837368Y-86740536D01*
X165837368Y-86740536D01*
G37*
G36*
X149907499Y-89902445D02*
G01*
X149944995Y-89913820D01*
X149979554Y-89932292D01*
X150009847Y-89957153D01*
X150034708Y-89987446D01*
X150053180Y-90022005D01*
X150064555Y-90059501D01*
X150069000Y-90104638D01*
X150069000Y-90743362D01*
X150064555Y-90788499D01*
X150053180Y-90825995D01*
X150034708Y-90860554D01*
X150009847Y-90890847D01*
X149979554Y-90915708D01*
X149944995Y-90934180D01*
X149907499Y-90945555D01*
X149862362Y-90950000D01*
X149123638Y-90950000D01*
X149078501Y-90945555D01*
X149041005Y-90934180D01*
X149006446Y-90915708D01*
X148976153Y-90890847D01*
X148951292Y-90860554D01*
X148932820Y-90825995D01*
X148921445Y-90788499D01*
X148917000Y-90743362D01*
X148917000Y-90104638D01*
X148921445Y-90059501D01*
X148932820Y-90022005D01*
X148951292Y-89987446D01*
X148976153Y-89957153D01*
X149006446Y-89932292D01*
X149041005Y-89913820D01*
X149078501Y-89902445D01*
X149123638Y-89898000D01*
X149862362Y-89898000D01*
X149907499Y-89902445D01*
X149907499Y-89902445D01*
G37*
G36*
X151657499Y-89902445D02*
G01*
X151694995Y-89913820D01*
X151729554Y-89932292D01*
X151759847Y-89957153D01*
X151784708Y-89987446D01*
X151803180Y-90022005D01*
X151814555Y-90059501D01*
X151819000Y-90104638D01*
X151819000Y-90743362D01*
X151814555Y-90788499D01*
X151803180Y-90825995D01*
X151784708Y-90860554D01*
X151759847Y-90890847D01*
X151729554Y-90915708D01*
X151694995Y-90934180D01*
X151657499Y-90945555D01*
X151612362Y-90950000D01*
X150873638Y-90950000D01*
X150828501Y-90945555D01*
X150791005Y-90934180D01*
X150756446Y-90915708D01*
X150726153Y-90890847D01*
X150701292Y-90860554D01*
X150682820Y-90825995D01*
X150671445Y-90788499D01*
X150667000Y-90743362D01*
X150667000Y-90104638D01*
X150671445Y-90059501D01*
X150682820Y-90022005D01*
X150701292Y-89987446D01*
X150726153Y-89957153D01*
X150756446Y-89932292D01*
X150791005Y-89913820D01*
X150828501Y-89902445D01*
X150873638Y-89898000D01*
X151612362Y-89898000D01*
X151657499Y-89902445D01*
X151657499Y-89902445D01*
G37*
G36*
X164374208Y-89510827D02*
G01*
X164411704Y-89522202D01*
X164446263Y-89540674D01*
X164481327Y-89569450D01*
X165003678Y-90091801D01*
X165032454Y-90126865D01*
X165050926Y-90161424D01*
X165062301Y-90198920D01*
X165066141Y-90237919D01*
X165062301Y-90276918D01*
X165050926Y-90314414D01*
X165032454Y-90348973D01*
X165003678Y-90384037D01*
X164552037Y-90835678D01*
X164516973Y-90864454D01*
X164482414Y-90882926D01*
X164444918Y-90894301D01*
X164405919Y-90898141D01*
X164366920Y-90894301D01*
X164329424Y-90882926D01*
X164294865Y-90864454D01*
X164259801Y-90835678D01*
X163737450Y-90313327D01*
X163708674Y-90278263D01*
X163690202Y-90243704D01*
X163678827Y-90206208D01*
X163674987Y-90167209D01*
X163678827Y-90128210D01*
X163690202Y-90090714D01*
X163708674Y-90056155D01*
X163737450Y-90021091D01*
X164189091Y-89569450D01*
X164224155Y-89540674D01*
X164258714Y-89522202D01*
X164296210Y-89510827D01*
X164335209Y-89506987D01*
X164374208Y-89510827D01*
X164374208Y-89510827D01*
G37*
G36*
X136538072Y-87346918D02*
G01*
X136783939Y-87448759D01*
X136895328Y-87523187D01*
X137005211Y-87596609D01*
X137193391Y-87784789D01*
X137341242Y-88006063D01*
X137443082Y-88251928D01*
X137495000Y-88512937D01*
X137495000Y-88779063D01*
X137443082Y-89040072D01*
X137341242Y-89285937D01*
X137193541Y-89506987D01*
X137193390Y-89507212D01*
X137005212Y-89695390D01*
X136783939Y-89843241D01*
X136783938Y-89843242D01*
X136783937Y-89843242D01*
X136538072Y-89945082D01*
X136277063Y-89997000D01*
X136010937Y-89997000D01*
X135749928Y-89945082D01*
X135504063Y-89843242D01*
X135504062Y-89843242D01*
X135504061Y-89843241D01*
X135282788Y-89695390D01*
X135094610Y-89507212D01*
X135094460Y-89506987D01*
X134946758Y-89285937D01*
X134844918Y-89040072D01*
X134793000Y-88779063D01*
X134793000Y-88512937D01*
X134844918Y-88251928D01*
X134946758Y-88006063D01*
X135094609Y-87784789D01*
X135282789Y-87596609D01*
X135392672Y-87523187D01*
X135504061Y-87448759D01*
X135749928Y-87346918D01*
X136010937Y-87295000D01*
X136277063Y-87295000D01*
X136538072Y-87346918D01*
X136538072Y-87346918D01*
G37*
G36*
X149311000Y-89145000D02*
G01*
X147559000Y-89145000D01*
X147559000Y-86193000D01*
X149311000Y-86193000D01*
X149311000Y-89145000D01*
X149311000Y-89145000D01*
G37*
G36*
X152161000Y-89145000D02*
G01*
X150409000Y-89145000D01*
X150409000Y-86193000D01*
X152161000Y-86193000D01*
X152161000Y-89145000D01*
X152161000Y-89145000D01*
G37*
G36*
X159826960Y-80730128D02*
G01*
X159349662Y-81207426D01*
X159261275Y-81295814D01*
X158800241Y-81756848D01*
X158711853Y-81845235D01*
X158234555Y-82322533D01*
X158146167Y-82410920D01*
X158129904Y-82427184D01*
X157103184Y-83453904D01*
X157014796Y-83542291D01*
X156998533Y-83558555D01*
X156521235Y-84035853D01*
X156432848Y-84124241D01*
X155971814Y-84585275D01*
X155883426Y-84673662D01*
X155406128Y-85150960D01*
X154202632Y-83947464D01*
X154663666Y-83486430D01*
X154663667Y-83486431D01*
X154752044Y-83398053D01*
X154752055Y-83398044D01*
X154768319Y-83381780D01*
X154768318Y-83381779D01*
X155229352Y-82920745D01*
X155229353Y-82920746D01*
X155245617Y-82904482D01*
X155245626Y-82904471D01*
X155334004Y-82816094D01*
X155334003Y-82816093D01*
X155795037Y-82355059D01*
X155795038Y-82355060D01*
X155899689Y-82250409D01*
X155899688Y-82250408D01*
X156360722Y-81789374D01*
X156360723Y-81789375D01*
X156465375Y-81684723D01*
X156465374Y-81684722D01*
X156926408Y-81223688D01*
X156926409Y-81223689D01*
X157031060Y-81119038D01*
X157031059Y-81119037D01*
X157492093Y-80658003D01*
X157492094Y-80658004D01*
X157580471Y-80569626D01*
X157580482Y-80569617D01*
X157596746Y-80553353D01*
X157596745Y-80553352D01*
X158057779Y-80092318D01*
X158057780Y-80092319D01*
X158074044Y-80076055D01*
X158074053Y-80076044D01*
X158162431Y-79987667D01*
X158162430Y-79987666D01*
X158623464Y-79526632D01*
X159826960Y-80730128D01*
X159826960Y-80730128D01*
G37*
G36*
X161877570Y-79987666D02*
G01*
X161877570Y-79987667D01*
X161965952Y-80076049D01*
X161965957Y-80076055D01*
X161982221Y-80092319D01*
X161982221Y-80092318D01*
X162443255Y-80553352D01*
X162443255Y-80553353D01*
X162459519Y-80569617D01*
X162459525Y-80569622D01*
X162547907Y-80658004D01*
X162547907Y-80658003D01*
X163008941Y-81119037D01*
X163008941Y-81119038D01*
X163113592Y-81223689D01*
X163113592Y-81223688D01*
X163574626Y-81684722D01*
X163574626Y-81684723D01*
X163679278Y-81789375D01*
X163679278Y-81789374D01*
X164140312Y-82250408D01*
X164140312Y-82250409D01*
X164244963Y-82355060D01*
X164244963Y-82355059D01*
X164705997Y-82816093D01*
X164705997Y-82816094D01*
X164794379Y-82904476D01*
X164794384Y-82904482D01*
X164810648Y-82920746D01*
X164810648Y-82920745D01*
X165271682Y-83381779D01*
X165271682Y-83381780D01*
X165287946Y-83398044D01*
X165287952Y-83398049D01*
X165376334Y-83486431D01*
X165376334Y-83486430D01*
X165837368Y-83947464D01*
X164633872Y-85150960D01*
X164172838Y-84689926D01*
X164172839Y-84689926D01*
X164156575Y-84673662D01*
X164156569Y-84673657D01*
X164068187Y-84585275D01*
X164068186Y-84585275D01*
X163607152Y-84124241D01*
X163607153Y-84124241D01*
X163518771Y-84035859D01*
X163518766Y-84035853D01*
X163502502Y-84019589D01*
X163502501Y-84019589D01*
X163041467Y-83558555D01*
X163041468Y-83558555D01*
X162936817Y-83453904D01*
X162936816Y-83453904D01*
X162475782Y-82992870D01*
X162475783Y-82992870D01*
X162371131Y-82888218D01*
X162371130Y-82888218D01*
X161910096Y-82427184D01*
X161910097Y-82427184D01*
X161805446Y-82322533D01*
X161805445Y-82322533D01*
X161344411Y-81861499D01*
X161344412Y-81861499D01*
X161328148Y-81845235D01*
X161328142Y-81845230D01*
X161239760Y-81756848D01*
X161239759Y-81756848D01*
X160778725Y-81295814D01*
X160778726Y-81295814D01*
X160690344Y-81207432D01*
X160690339Y-81207426D01*
X160674075Y-81191162D01*
X160674074Y-81191162D01*
X160213040Y-80730128D01*
X161416536Y-79526632D01*
X161877570Y-79987666D01*
X161877570Y-79987666D01*
G37*
G36*
X149311000Y-84495000D02*
G01*
X147559000Y-84495000D01*
X147559000Y-81543000D01*
X149311000Y-81543000D01*
X149311000Y-84495000D01*
X149311000Y-84495000D01*
G37*
G36*
X152161000Y-84495000D02*
G01*
X150409000Y-84495000D01*
X150409000Y-81543000D01*
X152161000Y-81543000D01*
X152161000Y-84495000D01*
X152161000Y-84495000D01*
G37*
G36*
X187353000Y-83451000D02*
G01*
X185551000Y-83451000D01*
X185551000Y-81649000D01*
X187353000Y-81649000D01*
X187353000Y-83451000D01*
X187353000Y-83451000D01*
G37*
G36*
X141022564Y-80269389D02*
G01*
X141213833Y-80348615D01*
X141213835Y-80348616D01*
X141385973Y-80463635D01*
X141532365Y-80610027D01*
X141642049Y-80774180D01*
X141647385Y-80782167D01*
X141726611Y-80973436D01*
X141767000Y-81176484D01*
X141767000Y-81383516D01*
X141726611Y-81586564D01*
X141656077Y-81756848D01*
X141647384Y-81777835D01*
X141532365Y-81949973D01*
X141385973Y-82096365D01*
X141213835Y-82211384D01*
X141213834Y-82211385D01*
X141213833Y-82211385D01*
X141022564Y-82290611D01*
X140819516Y-82331000D01*
X140612484Y-82331000D01*
X140409436Y-82290611D01*
X140218167Y-82211385D01*
X140218166Y-82211385D01*
X140218165Y-82211384D01*
X140046027Y-82096365D01*
X139899635Y-81949973D01*
X139784616Y-81777835D01*
X139775923Y-81756848D01*
X139705389Y-81586564D01*
X139665000Y-81383516D01*
X139665000Y-81176484D01*
X139705389Y-80973436D01*
X139784615Y-80782167D01*
X139789952Y-80774180D01*
X139899635Y-80610027D01*
X140046027Y-80463635D01*
X140218165Y-80348616D01*
X140218167Y-80348615D01*
X140409436Y-80269389D01*
X140612484Y-80229000D01*
X140819516Y-80229000D01*
X141022564Y-80269389D01*
X141022564Y-80269389D01*
G37*
G36*
X155665636Y-79682981D02*
G01*
X155703132Y-79694356D01*
X155737691Y-79712828D01*
X155772755Y-79741604D01*
X156224396Y-80193245D01*
X156253172Y-80228309D01*
X156271644Y-80262868D01*
X156283019Y-80300364D01*
X156286859Y-80339363D01*
X156283019Y-80378362D01*
X156271644Y-80415858D01*
X156253172Y-80450417D01*
X156224396Y-80485481D01*
X155702045Y-81007832D01*
X155666981Y-81036608D01*
X155632422Y-81055080D01*
X155594926Y-81066455D01*
X155555927Y-81070295D01*
X155516928Y-81066455D01*
X155479432Y-81055080D01*
X155444873Y-81036608D01*
X155409809Y-81007832D01*
X154958168Y-80556191D01*
X154929392Y-80521127D01*
X154910920Y-80486568D01*
X154899545Y-80449072D01*
X154895705Y-80410073D01*
X154899545Y-80371074D01*
X154910920Y-80333578D01*
X154929392Y-80299019D01*
X154958168Y-80263955D01*
X155480519Y-79741604D01*
X155515583Y-79712828D01*
X155550142Y-79694356D01*
X155587638Y-79682981D01*
X155626637Y-79679141D01*
X155665636Y-79682981D01*
X155665636Y-79682981D01*
G37*
G36*
X186562443Y-79115519D02*
G01*
X186628627Y-79122037D01*
X186798466Y-79173557D01*
X186954991Y-79257222D01*
X186974561Y-79273283D01*
X187092186Y-79369814D01*
X187175448Y-79471271D01*
X187204778Y-79507009D01*
X187288443Y-79663534D01*
X187339963Y-79833373D01*
X187357359Y-80010000D01*
X187339963Y-80186627D01*
X187288443Y-80356466D01*
X187204778Y-80512991D01*
X187189543Y-80531555D01*
X187092186Y-80650186D01*
X186994775Y-80730128D01*
X186954991Y-80762778D01*
X186798466Y-80846443D01*
X186628627Y-80897963D01*
X186562442Y-80904482D01*
X186496260Y-80911000D01*
X186407740Y-80911000D01*
X186341558Y-80904482D01*
X186275373Y-80897963D01*
X186105534Y-80846443D01*
X185949009Y-80762778D01*
X185909225Y-80730128D01*
X185811814Y-80650186D01*
X185714457Y-80531555D01*
X185699222Y-80512991D01*
X185615557Y-80356466D01*
X185564037Y-80186627D01*
X185546641Y-80010000D01*
X185564037Y-79833373D01*
X185615557Y-79663534D01*
X185699222Y-79507009D01*
X185728552Y-79471271D01*
X185811814Y-79369814D01*
X185929439Y-79273283D01*
X185949009Y-79257222D01*
X186105534Y-79173557D01*
X186275373Y-79122037D01*
X186341557Y-79115519D01*
X186407740Y-79109000D01*
X186496260Y-79109000D01*
X186562443Y-79115519D01*
X186562443Y-79115519D01*
G37*
G36*
X148891499Y-79742445D02*
G01*
X148928995Y-79753820D01*
X148963554Y-79772292D01*
X148993847Y-79797153D01*
X149018708Y-79827446D01*
X149037180Y-79862005D01*
X149048555Y-79899501D01*
X149053000Y-79944638D01*
X149053000Y-80583362D01*
X149048555Y-80628499D01*
X149037180Y-80665995D01*
X149018708Y-80700554D01*
X148993847Y-80730847D01*
X148963554Y-80755708D01*
X148928995Y-80774180D01*
X148891499Y-80785555D01*
X148846362Y-80790000D01*
X148107638Y-80790000D01*
X148062501Y-80785555D01*
X148025005Y-80774180D01*
X147990446Y-80755708D01*
X147960153Y-80730847D01*
X147935292Y-80700554D01*
X147916820Y-80665995D01*
X147905445Y-80628499D01*
X147901000Y-80583362D01*
X147901000Y-79944638D01*
X147905445Y-79899501D01*
X147916820Y-79862005D01*
X147935292Y-79827446D01*
X147960153Y-79797153D01*
X147990446Y-79772292D01*
X148025005Y-79753820D01*
X148062501Y-79742445D01*
X148107638Y-79738000D01*
X148846362Y-79738000D01*
X148891499Y-79742445D01*
X148891499Y-79742445D01*
G37*
G36*
X150641499Y-79742445D02*
G01*
X150678995Y-79753820D01*
X150713554Y-79772292D01*
X150743847Y-79797153D01*
X150768708Y-79827446D01*
X150787180Y-79862005D01*
X150798555Y-79899501D01*
X150803000Y-79944638D01*
X150803000Y-80583362D01*
X150798555Y-80628499D01*
X150787180Y-80665995D01*
X150768708Y-80700554D01*
X150743847Y-80730847D01*
X150713554Y-80755708D01*
X150678995Y-80774180D01*
X150641499Y-80785555D01*
X150596362Y-80790000D01*
X149857638Y-80790000D01*
X149812501Y-80785555D01*
X149775005Y-80774180D01*
X149740446Y-80755708D01*
X149710153Y-80730847D01*
X149685292Y-80700554D01*
X149666820Y-80665995D01*
X149655445Y-80628499D01*
X149651000Y-80583362D01*
X149651000Y-79944638D01*
X149655445Y-79899501D01*
X149666820Y-79862005D01*
X149685292Y-79827446D01*
X149710153Y-79797153D01*
X149740446Y-79772292D01*
X149775005Y-79753820D01*
X149812501Y-79742445D01*
X149857638Y-79738000D01*
X150596362Y-79738000D01*
X150641499Y-79742445D01*
X150641499Y-79742445D01*
G37*
G36*
X179704499Y-79410445D02*
G01*
X179741995Y-79421820D01*
X179776554Y-79440292D01*
X179806847Y-79465153D01*
X179831708Y-79495446D01*
X179850180Y-79530005D01*
X179861555Y-79567501D01*
X179866000Y-79612638D01*
X179866000Y-80351362D01*
X179861555Y-80396499D01*
X179850180Y-80433995D01*
X179831708Y-80468554D01*
X179806847Y-80498847D01*
X179776554Y-80523708D01*
X179741995Y-80542180D01*
X179704499Y-80553555D01*
X179659362Y-80558000D01*
X179020638Y-80558000D01*
X178975501Y-80553555D01*
X178938005Y-80542180D01*
X178903446Y-80523708D01*
X178873153Y-80498847D01*
X178848292Y-80468554D01*
X178829820Y-80433995D01*
X178818445Y-80396499D01*
X178814000Y-80351362D01*
X178814000Y-79612638D01*
X178818445Y-79567501D01*
X178829820Y-79530005D01*
X178848292Y-79495446D01*
X178873153Y-79465153D01*
X178903446Y-79440292D01*
X178938005Y-79421820D01*
X178975501Y-79410445D01*
X179020638Y-79406000D01*
X179659362Y-79406000D01*
X179704499Y-79410445D01*
X179704499Y-79410445D01*
G37*
G36*
X183423499Y-79488445D02*
G01*
X183460995Y-79499820D01*
X183495554Y-79518292D01*
X183525847Y-79543153D01*
X183550708Y-79573446D01*
X183569180Y-79608005D01*
X183580555Y-79645501D01*
X183585000Y-79690638D01*
X183585000Y-80329362D01*
X183580555Y-80374499D01*
X183569180Y-80411995D01*
X183550708Y-80446554D01*
X183525847Y-80476847D01*
X183495554Y-80501708D01*
X183460995Y-80520180D01*
X183423499Y-80531555D01*
X183378362Y-80536000D01*
X182639638Y-80536000D01*
X182594501Y-80531555D01*
X182557005Y-80520180D01*
X182522446Y-80501708D01*
X182492153Y-80476847D01*
X182467292Y-80446554D01*
X182448820Y-80411995D01*
X182437445Y-80374499D01*
X182433000Y-80329362D01*
X182433000Y-79690638D01*
X182437445Y-79645501D01*
X182448820Y-79608005D01*
X182467292Y-79573446D01*
X182492153Y-79543153D01*
X182522446Y-79518292D01*
X182557005Y-79499820D01*
X182594501Y-79488445D01*
X182639638Y-79484000D01*
X183378362Y-79484000D01*
X183423499Y-79488445D01*
X183423499Y-79488445D01*
G37*
G36*
X181673499Y-79488445D02*
G01*
X181710995Y-79499820D01*
X181745554Y-79518292D01*
X181775847Y-79543153D01*
X181800708Y-79573446D01*
X181819180Y-79608005D01*
X181830555Y-79645501D01*
X181835000Y-79690638D01*
X181835000Y-80329362D01*
X181830555Y-80374499D01*
X181819180Y-80411995D01*
X181800708Y-80446554D01*
X181775847Y-80476847D01*
X181745554Y-80501708D01*
X181710995Y-80520180D01*
X181673499Y-80531555D01*
X181628362Y-80536000D01*
X180889638Y-80536000D01*
X180844501Y-80531555D01*
X180807005Y-80520180D01*
X180772446Y-80501708D01*
X180742153Y-80476847D01*
X180717292Y-80446554D01*
X180698820Y-80411995D01*
X180687445Y-80374499D01*
X180683000Y-80329362D01*
X180683000Y-79690638D01*
X180687445Y-79645501D01*
X180698820Y-79608005D01*
X180717292Y-79573446D01*
X180742153Y-79543153D01*
X180772446Y-79518292D01*
X180807005Y-79499820D01*
X180844501Y-79488445D01*
X180889638Y-79484000D01*
X181628362Y-79484000D01*
X181673499Y-79488445D01*
X181673499Y-79488445D01*
G37*
G36*
X156903072Y-78445545D02*
G01*
X156940568Y-78456920D01*
X156975127Y-78475392D01*
X157010191Y-78504168D01*
X157461832Y-78955809D01*
X157490608Y-78990873D01*
X157509080Y-79025432D01*
X157520455Y-79062928D01*
X157524295Y-79101927D01*
X157520455Y-79140926D01*
X157509080Y-79178422D01*
X157490608Y-79212981D01*
X157461832Y-79248045D01*
X156939481Y-79770396D01*
X156904417Y-79799172D01*
X156869858Y-79817644D01*
X156832362Y-79829019D01*
X156793363Y-79832859D01*
X156754364Y-79829019D01*
X156716868Y-79817644D01*
X156682309Y-79799172D01*
X156647245Y-79770396D01*
X156195604Y-79318755D01*
X156166828Y-79283691D01*
X156148356Y-79249132D01*
X156136981Y-79211636D01*
X156133141Y-79172637D01*
X156136981Y-79133638D01*
X156148356Y-79096142D01*
X156166828Y-79061583D01*
X156195604Y-79026519D01*
X156717955Y-78504168D01*
X156753019Y-78475392D01*
X156787578Y-78456920D01*
X156825074Y-78445545D01*
X156864073Y-78441705D01*
X156903072Y-78445545D01*
X156903072Y-78445545D01*
G37*
G36*
X153237393Y-76836503D02*
G01*
X153272312Y-76847096D01*
X153304494Y-76864298D01*
X153337468Y-76891359D01*
X155010641Y-78564532D01*
X155037702Y-78597506D01*
X155054904Y-78629688D01*
X155065497Y-78664607D01*
X155069073Y-78700924D01*
X155065497Y-78737241D01*
X155054904Y-78772160D01*
X155037702Y-78804342D01*
X155010641Y-78837316D01*
X154203674Y-79644283D01*
X154170700Y-79671344D01*
X154138518Y-79688546D01*
X154103599Y-79699139D01*
X154067282Y-79702715D01*
X154030965Y-79699139D01*
X153996046Y-79688546D01*
X153963864Y-79671344D01*
X153930890Y-79644283D01*
X152257717Y-77971110D01*
X152230656Y-77938136D01*
X152213454Y-77905954D01*
X152202861Y-77871035D01*
X152199285Y-77834718D01*
X152202861Y-77798401D01*
X152213454Y-77763482D01*
X152230656Y-77731300D01*
X152257717Y-77698326D01*
X153064684Y-76891359D01*
X153097658Y-76864298D01*
X153129840Y-76847096D01*
X153164759Y-76836503D01*
X153201076Y-76832927D01*
X153237393Y-76836503D01*
X153237393Y-76836503D01*
G37*
G36*
X133745562Y-77818181D02*
G01*
X133780481Y-77828774D01*
X133812663Y-77845976D01*
X133840873Y-77869127D01*
X133864024Y-77897337D01*
X133881226Y-77929519D01*
X133891819Y-77964438D01*
X133896000Y-78006895D01*
X133896000Y-79473105D01*
X133891819Y-79515562D01*
X133881226Y-79550481D01*
X133864024Y-79582663D01*
X133840873Y-79610873D01*
X133812663Y-79634024D01*
X133780481Y-79651226D01*
X133745562Y-79661819D01*
X133703105Y-79666000D01*
X132561895Y-79666000D01*
X132519438Y-79661819D01*
X132484519Y-79651226D01*
X132452337Y-79634024D01*
X132424127Y-79610873D01*
X132400976Y-79582663D01*
X132383774Y-79550481D01*
X132373181Y-79515562D01*
X132369000Y-79473105D01*
X132369000Y-78006895D01*
X132373181Y-77964438D01*
X132383774Y-77929519D01*
X132400976Y-77897337D01*
X132424127Y-77869127D01*
X132452337Y-77845976D01*
X132484519Y-77828774D01*
X132519438Y-77818181D01*
X132561895Y-77814000D01*
X133703105Y-77814000D01*
X133745562Y-77818181D01*
X133745562Y-77818181D01*
G37*
G36*
X136720562Y-77818181D02*
G01*
X136755481Y-77828774D01*
X136787663Y-77845976D01*
X136815873Y-77869127D01*
X136839024Y-77897337D01*
X136856226Y-77929519D01*
X136866819Y-77964438D01*
X136871000Y-78006895D01*
X136871000Y-79473105D01*
X136866819Y-79515562D01*
X136856226Y-79550481D01*
X136839024Y-79582663D01*
X136815873Y-79610873D01*
X136787663Y-79634024D01*
X136755481Y-79651226D01*
X136720562Y-79661819D01*
X136678105Y-79666000D01*
X135536895Y-79666000D01*
X135494438Y-79661819D01*
X135459519Y-79651226D01*
X135427337Y-79634024D01*
X135399127Y-79610873D01*
X135375976Y-79582663D01*
X135358774Y-79550481D01*
X135348181Y-79515562D01*
X135344000Y-79473105D01*
X135344000Y-78006895D01*
X135348181Y-77964438D01*
X135358774Y-77929519D01*
X135375976Y-77897337D01*
X135399127Y-77869127D01*
X135427337Y-77845976D01*
X135459519Y-77828774D01*
X135494438Y-77818181D01*
X135536895Y-77814000D01*
X136678105Y-77814000D01*
X136720562Y-77818181D01*
X136720562Y-77818181D01*
G37*
G36*
X179704499Y-77660445D02*
G01*
X179741995Y-77671820D01*
X179776554Y-77690292D01*
X179806847Y-77715153D01*
X179831708Y-77745446D01*
X179850180Y-77780005D01*
X179861555Y-77817501D01*
X179866000Y-77862638D01*
X179866000Y-78601362D01*
X179861555Y-78646499D01*
X179850180Y-78683995D01*
X179831708Y-78718554D01*
X179806847Y-78748847D01*
X179776554Y-78773708D01*
X179741995Y-78792180D01*
X179704499Y-78803555D01*
X179659362Y-78808000D01*
X179020638Y-78808000D01*
X178975501Y-78803555D01*
X178938005Y-78792180D01*
X178903446Y-78773708D01*
X178873153Y-78748847D01*
X178848292Y-78718554D01*
X178829820Y-78683995D01*
X178818445Y-78646499D01*
X178814000Y-78601362D01*
X178814000Y-77862638D01*
X178818445Y-77817501D01*
X178829820Y-77780005D01*
X178848292Y-77745446D01*
X178873153Y-77715153D01*
X178903446Y-77690292D01*
X178938005Y-77671820D01*
X178975501Y-77660445D01*
X179020638Y-77656000D01*
X179659362Y-77656000D01*
X179704499Y-77660445D01*
X179704499Y-77660445D01*
G37*
G36*
X141102499Y-77710445D02*
G01*
X141139995Y-77721820D01*
X141174554Y-77740292D01*
X141204847Y-77765153D01*
X141229708Y-77795446D01*
X141248180Y-77830005D01*
X141259555Y-77867501D01*
X141264000Y-77912638D01*
X141264000Y-78551362D01*
X141259555Y-78596499D01*
X141248180Y-78633995D01*
X141229708Y-78668554D01*
X141204847Y-78698847D01*
X141174554Y-78723708D01*
X141139995Y-78742180D01*
X141102499Y-78753555D01*
X141057362Y-78758000D01*
X140318638Y-78758000D01*
X140273501Y-78753555D01*
X140236005Y-78742180D01*
X140201446Y-78723708D01*
X140171153Y-78698847D01*
X140146292Y-78668554D01*
X140127820Y-78633995D01*
X140116445Y-78596499D01*
X140112000Y-78551362D01*
X140112000Y-77912638D01*
X140116445Y-77867501D01*
X140127820Y-77830005D01*
X140146292Y-77795446D01*
X140171153Y-77765153D01*
X140201446Y-77740292D01*
X140236005Y-77721820D01*
X140273501Y-77710445D01*
X140318638Y-77706000D01*
X141057362Y-77706000D01*
X141102499Y-77710445D01*
X141102499Y-77710445D01*
G37*
G36*
X139352499Y-77710445D02*
G01*
X139389995Y-77721820D01*
X139424554Y-77740292D01*
X139454847Y-77765153D01*
X139479708Y-77795446D01*
X139498180Y-77830005D01*
X139509555Y-77867501D01*
X139514000Y-77912638D01*
X139514000Y-78551362D01*
X139509555Y-78596499D01*
X139498180Y-78633995D01*
X139479708Y-78668554D01*
X139454847Y-78698847D01*
X139424554Y-78723708D01*
X139389995Y-78742180D01*
X139352499Y-78753555D01*
X139307362Y-78758000D01*
X138568638Y-78758000D01*
X138523501Y-78753555D01*
X138486005Y-78742180D01*
X138451446Y-78723708D01*
X138421153Y-78698847D01*
X138396292Y-78668554D01*
X138377820Y-78633995D01*
X138366445Y-78596499D01*
X138362000Y-78551362D01*
X138362000Y-77912638D01*
X138366445Y-77867501D01*
X138377820Y-77830005D01*
X138396292Y-77795446D01*
X138421153Y-77765153D01*
X138451446Y-77740292D01*
X138486005Y-77721820D01*
X138523501Y-77710445D01*
X138568638Y-77706000D01*
X139307362Y-77706000D01*
X139352499Y-77710445D01*
X139352499Y-77710445D01*
G37*
G36*
X186562443Y-76575519D02*
G01*
X186628627Y-76582037D01*
X186798466Y-76633557D01*
X186954991Y-76717222D01*
X186990198Y-76746116D01*
X187092186Y-76829814D01*
X187158878Y-76911080D01*
X187204778Y-76967009D01*
X187288443Y-77123534D01*
X187339963Y-77293373D01*
X187357359Y-77470000D01*
X187339963Y-77646627D01*
X187288443Y-77816466D01*
X187204778Y-77972991D01*
X187175448Y-78008729D01*
X187092186Y-78110186D01*
X186990729Y-78193448D01*
X186954991Y-78222778D01*
X186798466Y-78306443D01*
X186628627Y-78357963D01*
X186562443Y-78364481D01*
X186496260Y-78371000D01*
X186407740Y-78371000D01*
X186341557Y-78364481D01*
X186275373Y-78357963D01*
X186105534Y-78306443D01*
X185949009Y-78222778D01*
X185913271Y-78193448D01*
X185811814Y-78110186D01*
X185728552Y-78008729D01*
X185699222Y-77972991D01*
X185615557Y-77816466D01*
X185564037Y-77646627D01*
X185546641Y-77470000D01*
X185564037Y-77293373D01*
X185615557Y-77123534D01*
X185699222Y-76967009D01*
X185745122Y-76911080D01*
X185811814Y-76829814D01*
X185913802Y-76746116D01*
X185949009Y-76717222D01*
X186105534Y-76633557D01*
X186275373Y-76582037D01*
X186341557Y-76575519D01*
X186407740Y-76569000D01*
X186496260Y-76569000D01*
X186562443Y-76575519D01*
X186562443Y-76575519D01*
G37*
G36*
X155341035Y-74732861D02*
G01*
X155375954Y-74743454D01*
X155408136Y-74760656D01*
X155441110Y-74787717D01*
X157114283Y-76460890D01*
X157141344Y-76493864D01*
X157158546Y-76526046D01*
X157169139Y-76560965D01*
X157172715Y-76597282D01*
X157169139Y-76633599D01*
X157158546Y-76668518D01*
X157141344Y-76700700D01*
X157114283Y-76733674D01*
X156307316Y-77540641D01*
X156274342Y-77567702D01*
X156242160Y-77584904D01*
X156207241Y-77595497D01*
X156170924Y-77599073D01*
X156134607Y-77595497D01*
X156099688Y-77584904D01*
X156067506Y-77567702D01*
X156034532Y-77540641D01*
X154361359Y-75867468D01*
X154334298Y-75834494D01*
X154317096Y-75802312D01*
X154306503Y-75767393D01*
X154302927Y-75731076D01*
X154306503Y-75694759D01*
X154317096Y-75659840D01*
X154334298Y-75627658D01*
X154361359Y-75594684D01*
X155168326Y-74787717D01*
X155201300Y-74760656D01*
X155233482Y-74743454D01*
X155268401Y-74732861D01*
X155304718Y-74729285D01*
X155341035Y-74732861D01*
X155341035Y-74732861D01*
G37*
G36*
X141361000Y-76979000D02*
G01*
X140059000Y-76979000D01*
X140059000Y-74677000D01*
X141361000Y-74677000D01*
X141361000Y-76979000D01*
X141361000Y-76979000D01*
G37*
G36*
X136801000Y-76979000D02*
G01*
X135499000Y-76979000D01*
X135499000Y-74677000D01*
X136801000Y-74677000D01*
X136801000Y-76979000D01*
X136801000Y-76979000D01*
G37*
G36*
X165077000Y-75823000D02*
G01*
X164075000Y-75823000D01*
X164075000Y-74921000D01*
X165077000Y-74921000D01*
X165077000Y-75823000D01*
X165077000Y-75823000D01*
G37*
G36*
X166480499Y-74612445D02*
G01*
X166517995Y-74623820D01*
X166552554Y-74642292D01*
X166582847Y-74667153D01*
X166607708Y-74697446D01*
X166626180Y-74732005D01*
X166637555Y-74769501D01*
X166642000Y-74814638D01*
X166642000Y-75553362D01*
X166637555Y-75598499D01*
X166626180Y-75635995D01*
X166607708Y-75670554D01*
X166582847Y-75700847D01*
X166552554Y-75725708D01*
X166517995Y-75744180D01*
X166480499Y-75755555D01*
X166435362Y-75760000D01*
X165796638Y-75760000D01*
X165751501Y-75755555D01*
X165714005Y-75744180D01*
X165679446Y-75725708D01*
X165649153Y-75700847D01*
X165624292Y-75670554D01*
X165605820Y-75635995D01*
X165594445Y-75598499D01*
X165590000Y-75553362D01*
X165590000Y-74814638D01*
X165594445Y-74769501D01*
X165605820Y-74732005D01*
X165624292Y-74697446D01*
X165649153Y-74667153D01*
X165679446Y-74642292D01*
X165714005Y-74623820D01*
X165751501Y-74612445D01*
X165796638Y-74608000D01*
X166435362Y-74608000D01*
X166480499Y-74612445D01*
X166480499Y-74612445D01*
G37*
G36*
X150133499Y-74408445D02*
G01*
X150170995Y-74419820D01*
X150205554Y-74438292D01*
X150235847Y-74463153D01*
X150260708Y-74493446D01*
X150279180Y-74528005D01*
X150290555Y-74565501D01*
X150295000Y-74610638D01*
X150295000Y-75249362D01*
X150290555Y-75294499D01*
X150279180Y-75331995D01*
X150260708Y-75366554D01*
X150235847Y-75396847D01*
X150205554Y-75421708D01*
X150170995Y-75440180D01*
X150133499Y-75451555D01*
X150088362Y-75456000D01*
X149349638Y-75456000D01*
X149304501Y-75451555D01*
X149267005Y-75440180D01*
X149232446Y-75421708D01*
X149202153Y-75396847D01*
X149177292Y-75366554D01*
X149158820Y-75331995D01*
X149147445Y-75294499D01*
X149143000Y-75249362D01*
X149143000Y-74610638D01*
X149147445Y-74565501D01*
X149158820Y-74528005D01*
X149177292Y-74493446D01*
X149202153Y-74463153D01*
X149232446Y-74438292D01*
X149267005Y-74419820D01*
X149304501Y-74408445D01*
X149349638Y-74404000D01*
X150088362Y-74404000D01*
X150133499Y-74408445D01*
X150133499Y-74408445D01*
G37*
G36*
X148383499Y-74408445D02*
G01*
X148420995Y-74419820D01*
X148455554Y-74438292D01*
X148485847Y-74463153D01*
X148510708Y-74493446D01*
X148529180Y-74528005D01*
X148540555Y-74565501D01*
X148545000Y-74610638D01*
X148545000Y-75249362D01*
X148540555Y-75294499D01*
X148529180Y-75331995D01*
X148510708Y-75366554D01*
X148485847Y-75396847D01*
X148455554Y-75421708D01*
X148420995Y-75440180D01*
X148383499Y-75451555D01*
X148338362Y-75456000D01*
X147599638Y-75456000D01*
X147554501Y-75451555D01*
X147517005Y-75440180D01*
X147482446Y-75421708D01*
X147452153Y-75396847D01*
X147427292Y-75366554D01*
X147408820Y-75331995D01*
X147397445Y-75294499D01*
X147393000Y-75249362D01*
X147393000Y-74610638D01*
X147397445Y-74565501D01*
X147408820Y-74528005D01*
X147427292Y-74493446D01*
X147452153Y-74463153D01*
X147482446Y-74438292D01*
X147517005Y-74419820D01*
X147554501Y-74408445D01*
X147599638Y-74404000D01*
X148338362Y-74404000D01*
X148383499Y-74408445D01*
X148383499Y-74408445D01*
G37*
G36*
X159056564Y-73284389D02*
G01*
X159247833Y-73363615D01*
X159247835Y-73363616D01*
X159296051Y-73395833D01*
X159419973Y-73478635D01*
X159566365Y-73625027D01*
X159681385Y-73797167D01*
X159760611Y-73988436D01*
X159801000Y-74191484D01*
X159801000Y-74398516D01*
X159760611Y-74601564D01*
X159683504Y-74787717D01*
X159681384Y-74792835D01*
X159566365Y-74964973D01*
X159419973Y-75111365D01*
X159247835Y-75226384D01*
X159247834Y-75226385D01*
X159247833Y-75226385D01*
X159056564Y-75305611D01*
X158853516Y-75346000D01*
X158646484Y-75346000D01*
X158443436Y-75305611D01*
X158252167Y-75226385D01*
X158252166Y-75226385D01*
X158252165Y-75226384D01*
X158080027Y-75111365D01*
X157933635Y-74964973D01*
X157818616Y-74792835D01*
X157816496Y-74787717D01*
X157739389Y-74601564D01*
X157699000Y-74398516D01*
X157699000Y-74191484D01*
X157739389Y-73988436D01*
X157818615Y-73797167D01*
X157933635Y-73625027D01*
X158080027Y-73478635D01*
X158203949Y-73395833D01*
X158252165Y-73363616D01*
X158252167Y-73363615D01*
X158443436Y-73284389D01*
X158646484Y-73244000D01*
X158853516Y-73244000D01*
X159056564Y-73284389D01*
X159056564Y-73284389D01*
G37*
G36*
X161400499Y-73822445D02*
G01*
X161437995Y-73833820D01*
X161472554Y-73852292D01*
X161502847Y-73877153D01*
X161527708Y-73907446D01*
X161546180Y-73942005D01*
X161557555Y-73979501D01*
X161562000Y-74024638D01*
X161562000Y-74763362D01*
X161557555Y-74808499D01*
X161546180Y-74845995D01*
X161527708Y-74880554D01*
X161502847Y-74910847D01*
X161472554Y-74935708D01*
X161437995Y-74954180D01*
X161400499Y-74965555D01*
X161355362Y-74970000D01*
X160716638Y-74970000D01*
X160671501Y-74965555D01*
X160634005Y-74954180D01*
X160599446Y-74935708D01*
X160569153Y-74910847D01*
X160544292Y-74880554D01*
X160525820Y-74845995D01*
X160514445Y-74808499D01*
X160510000Y-74763362D01*
X160510000Y-74024638D01*
X160514445Y-73979501D01*
X160525820Y-73942005D01*
X160544292Y-73907446D01*
X160569153Y-73877153D01*
X160599446Y-73852292D01*
X160634005Y-73833820D01*
X160671501Y-73822445D01*
X160716638Y-73818000D01*
X161355362Y-73818000D01*
X161400499Y-73822445D01*
X161400499Y-73822445D01*
G37*
G36*
X163077000Y-74873000D02*
G01*
X162075000Y-74873000D01*
X162075000Y-73971000D01*
X163077000Y-73971000D01*
X163077000Y-74873000D01*
X163077000Y-74873000D01*
G37*
G36*
X166480499Y-72862445D02*
G01*
X166517995Y-72873820D01*
X166552554Y-72892292D01*
X166582847Y-72917153D01*
X166607708Y-72947446D01*
X166626180Y-72982005D01*
X166637555Y-73019501D01*
X166642000Y-73064638D01*
X166642000Y-73803362D01*
X166637555Y-73848499D01*
X166626180Y-73885995D01*
X166607708Y-73920554D01*
X166582847Y-73950847D01*
X166552554Y-73975708D01*
X166517995Y-73994180D01*
X166480499Y-74005555D01*
X166435362Y-74010000D01*
X165796638Y-74010000D01*
X165751501Y-74005555D01*
X165714005Y-73994180D01*
X165679446Y-73975708D01*
X165649153Y-73950847D01*
X165624292Y-73920554D01*
X165605820Y-73885995D01*
X165594445Y-73848499D01*
X165590000Y-73803362D01*
X165590000Y-73064638D01*
X165594445Y-73019501D01*
X165605820Y-72982005D01*
X165624292Y-72947446D01*
X165649153Y-72917153D01*
X165679446Y-72892292D01*
X165714005Y-72873820D01*
X165751501Y-72862445D01*
X165796638Y-72858000D01*
X166435362Y-72858000D01*
X166480499Y-72862445D01*
X166480499Y-72862445D01*
G37*
G36*
X152452564Y-71887389D02*
G01*
X152643833Y-71966615D01*
X152643835Y-71966616D01*
X152795567Y-72068000D01*
X152815973Y-72081635D01*
X152962365Y-72228027D01*
X153077385Y-72400167D01*
X153156611Y-72591436D01*
X153197000Y-72794484D01*
X153197000Y-73001516D01*
X153156611Y-73204564D01*
X153077385Y-73395833D01*
X153077384Y-73395835D01*
X152962365Y-73567973D01*
X152815973Y-73714365D01*
X152643835Y-73829384D01*
X152643834Y-73829385D01*
X152643833Y-73829385D01*
X152452564Y-73908611D01*
X152249516Y-73949000D01*
X152042484Y-73949000D01*
X151839436Y-73908611D01*
X151648167Y-73829385D01*
X151648166Y-73829385D01*
X151648165Y-73829384D01*
X151476027Y-73714365D01*
X151329635Y-73567973D01*
X151214616Y-73395835D01*
X151214615Y-73395833D01*
X151135389Y-73204564D01*
X151095000Y-73001516D01*
X151095000Y-72794484D01*
X151135389Y-72591436D01*
X151214615Y-72400167D01*
X151329635Y-72228027D01*
X151476027Y-72081635D01*
X151496433Y-72068000D01*
X151648165Y-71966616D01*
X151648167Y-71966615D01*
X151839436Y-71887389D01*
X152042484Y-71847000D01*
X152249516Y-71847000D01*
X152452564Y-71887389D01*
X152452564Y-71887389D01*
G37*
G36*
X165077000Y-73923000D02*
G01*
X164075000Y-73923000D01*
X164075000Y-73021000D01*
X165077000Y-73021000D01*
X165077000Y-73923000D01*
X165077000Y-73923000D01*
G37*
G36*
X150245000Y-73891000D02*
G01*
X149343000Y-73891000D01*
X149343000Y-72889000D01*
X150245000Y-72889000D01*
X150245000Y-73891000D01*
X150245000Y-73891000D01*
G37*
G36*
X148345000Y-73891000D02*
G01*
X147443000Y-73891000D01*
X147443000Y-72889000D01*
X148345000Y-72889000D01*
X148345000Y-73891000D01*
X148345000Y-73891000D01*
G37*
G36*
X161400499Y-72072445D02*
G01*
X161437995Y-72083820D01*
X161472554Y-72102292D01*
X161502847Y-72127153D01*
X161527708Y-72157446D01*
X161546180Y-72192005D01*
X161557555Y-72229501D01*
X161562000Y-72274638D01*
X161562000Y-73013362D01*
X161557555Y-73058499D01*
X161546180Y-73095995D01*
X161527708Y-73130554D01*
X161502847Y-73160847D01*
X161472554Y-73185708D01*
X161437995Y-73204180D01*
X161400499Y-73215555D01*
X161355362Y-73220000D01*
X160716638Y-73220000D01*
X160671501Y-73215555D01*
X160634005Y-73204180D01*
X160599446Y-73185708D01*
X160569153Y-73160847D01*
X160544292Y-73130554D01*
X160525820Y-73095995D01*
X160514445Y-73058499D01*
X160510000Y-73013362D01*
X160510000Y-72274638D01*
X160514445Y-72229501D01*
X160525820Y-72192005D01*
X160544292Y-72157446D01*
X160569153Y-72127153D01*
X160599446Y-72102292D01*
X160634005Y-72083820D01*
X160671501Y-72072445D01*
X160716638Y-72068000D01*
X161355362Y-72068000D01*
X161400499Y-72072445D01*
X161400499Y-72072445D01*
G37*
G36*
X141381000Y-72779000D02*
G01*
X135479000Y-72779000D01*
X135479000Y-66277000D01*
X141381000Y-66277000D01*
X141381000Y-72779000D01*
X141381000Y-72779000D01*
G37*
G36*
X149295000Y-71891000D02*
G01*
X148393000Y-71891000D01*
X148393000Y-70889000D01*
X149295000Y-70889000D01*
X149295000Y-71891000D01*
X149295000Y-71891000D01*
G37*
G36*
X187353000Y-70497000D02*
G01*
X185551000Y-70497000D01*
X185551000Y-68695000D01*
X187353000Y-68695000D01*
X187353000Y-70497000D01*
X187353000Y-70497000D01*
G37*
G36*
X166480443Y-68701519D02*
G01*
X166546627Y-68708037D01*
X166716466Y-68759557D01*
X166872991Y-68843222D01*
X166908729Y-68872552D01*
X167010186Y-68955814D01*
X167093448Y-69057271D01*
X167122778Y-69093009D01*
X167206443Y-69249534D01*
X167257963Y-69419373D01*
X167275359Y-69596000D01*
X167257963Y-69772627D01*
X167206443Y-69942466D01*
X167122778Y-70098991D01*
X167111281Y-70113000D01*
X167010186Y-70236186D01*
X166911899Y-70316847D01*
X166872991Y-70348778D01*
X166716466Y-70432443D01*
X166546627Y-70483963D01*
X166480443Y-70490481D01*
X166414260Y-70497000D01*
X166325740Y-70497000D01*
X166259557Y-70490481D01*
X166193373Y-70483963D01*
X166023534Y-70432443D01*
X165867009Y-70348778D01*
X165828101Y-70316847D01*
X165729814Y-70236186D01*
X165628719Y-70113000D01*
X165617222Y-70098991D01*
X165533557Y-69942466D01*
X165482037Y-69772627D01*
X165464641Y-69596000D01*
X165482037Y-69419373D01*
X165533557Y-69249534D01*
X165617222Y-69093009D01*
X165646552Y-69057271D01*
X165729814Y-68955814D01*
X165831271Y-68872552D01*
X165867009Y-68843222D01*
X166023534Y-68759557D01*
X166193373Y-68708037D01*
X166259557Y-68701519D01*
X166325740Y-68695000D01*
X166414260Y-68695000D01*
X166480443Y-68701519D01*
X166480443Y-68701519D01*
G37*
G36*
X156320443Y-68701519D02*
G01*
X156386627Y-68708037D01*
X156556466Y-68759557D01*
X156712991Y-68843222D01*
X156748729Y-68872552D01*
X156850186Y-68955814D01*
X156933448Y-69057271D01*
X156962778Y-69093009D01*
X157046443Y-69249534D01*
X157097963Y-69419373D01*
X157115359Y-69596000D01*
X157097963Y-69772627D01*
X157046443Y-69942466D01*
X156962778Y-70098991D01*
X156951281Y-70113000D01*
X156850186Y-70236186D01*
X156751899Y-70316847D01*
X156712991Y-70348778D01*
X156556466Y-70432443D01*
X156386627Y-70483963D01*
X156320443Y-70490481D01*
X156254260Y-70497000D01*
X156165740Y-70497000D01*
X156099557Y-70490481D01*
X156033373Y-70483963D01*
X155863534Y-70432443D01*
X155707009Y-70348778D01*
X155668101Y-70316847D01*
X155569814Y-70236186D01*
X155468719Y-70113000D01*
X155457222Y-70098991D01*
X155373557Y-69942466D01*
X155322037Y-69772627D01*
X155304641Y-69596000D01*
X155322037Y-69419373D01*
X155373557Y-69249534D01*
X155457222Y-69093009D01*
X155486552Y-69057271D01*
X155569814Y-68955814D01*
X155671271Y-68872552D01*
X155707009Y-68843222D01*
X155863534Y-68759557D01*
X156033373Y-68708037D01*
X156099557Y-68701519D01*
X156165740Y-68695000D01*
X156254260Y-68695000D01*
X156320443Y-68701519D01*
X156320443Y-68701519D01*
G37*
G36*
X154571000Y-70497000D02*
G01*
X152769000Y-70497000D01*
X152769000Y-68695000D01*
X154571000Y-68695000D01*
X154571000Y-70497000D01*
X154571000Y-70497000D01*
G37*
G36*
X161400443Y-68701519D02*
G01*
X161466627Y-68708037D01*
X161636466Y-68759557D01*
X161792991Y-68843222D01*
X161828729Y-68872552D01*
X161930186Y-68955814D01*
X162013448Y-69057271D01*
X162042778Y-69093009D01*
X162126443Y-69249534D01*
X162177963Y-69419373D01*
X162195359Y-69596000D01*
X162177963Y-69772627D01*
X162126443Y-69942466D01*
X162042778Y-70098991D01*
X162031281Y-70113000D01*
X161930186Y-70236186D01*
X161831899Y-70316847D01*
X161792991Y-70348778D01*
X161636466Y-70432443D01*
X161466627Y-70483963D01*
X161400443Y-70490481D01*
X161334260Y-70497000D01*
X161245740Y-70497000D01*
X161179557Y-70490481D01*
X161113373Y-70483963D01*
X160943534Y-70432443D01*
X160787009Y-70348778D01*
X160748101Y-70316847D01*
X160649814Y-70236186D01*
X160548719Y-70113000D01*
X160537222Y-70098991D01*
X160453557Y-69942466D01*
X160402037Y-69772627D01*
X160384641Y-69596000D01*
X160402037Y-69419373D01*
X160453557Y-69249534D01*
X160537222Y-69093009D01*
X160566552Y-69057271D01*
X160649814Y-68955814D01*
X160751271Y-68872552D01*
X160787009Y-68843222D01*
X160943534Y-68759557D01*
X161113373Y-68708037D01*
X161179557Y-68701519D01*
X161245740Y-68695000D01*
X161334260Y-68695000D01*
X161400443Y-68701519D01*
X161400443Y-68701519D01*
G37*
G36*
X158860443Y-68701519D02*
G01*
X158926627Y-68708037D01*
X159096466Y-68759557D01*
X159252991Y-68843222D01*
X159288729Y-68872552D01*
X159390186Y-68955814D01*
X159473448Y-69057271D01*
X159502778Y-69093009D01*
X159586443Y-69249534D01*
X159637963Y-69419373D01*
X159655359Y-69596000D01*
X159637963Y-69772627D01*
X159586443Y-69942466D01*
X159502778Y-70098991D01*
X159491281Y-70113000D01*
X159390186Y-70236186D01*
X159291899Y-70316847D01*
X159252991Y-70348778D01*
X159096466Y-70432443D01*
X158926627Y-70483963D01*
X158860443Y-70490481D01*
X158794260Y-70497000D01*
X158705740Y-70497000D01*
X158639557Y-70490481D01*
X158573373Y-70483963D01*
X158403534Y-70432443D01*
X158247009Y-70348778D01*
X158208101Y-70316847D01*
X158109814Y-70236186D01*
X158008719Y-70113000D01*
X157997222Y-70098991D01*
X157913557Y-69942466D01*
X157862037Y-69772627D01*
X157844641Y-69596000D01*
X157862037Y-69419373D01*
X157913557Y-69249534D01*
X157997222Y-69093009D01*
X158026552Y-69057271D01*
X158109814Y-68955814D01*
X158211271Y-68872552D01*
X158247009Y-68843222D01*
X158403534Y-68759557D01*
X158573373Y-68708037D01*
X158639557Y-68701519D01*
X158705740Y-68695000D01*
X158794260Y-68695000D01*
X158860443Y-68701519D01*
X158860443Y-68701519D01*
G37*
G36*
X163940443Y-68701519D02*
G01*
X164006627Y-68708037D01*
X164176466Y-68759557D01*
X164332991Y-68843222D01*
X164368729Y-68872552D01*
X164470186Y-68955814D01*
X164553448Y-69057271D01*
X164582778Y-69093009D01*
X164666443Y-69249534D01*
X164717963Y-69419373D01*
X164735359Y-69596000D01*
X164717963Y-69772627D01*
X164666443Y-69942466D01*
X164582778Y-70098991D01*
X164571281Y-70113000D01*
X164470186Y-70236186D01*
X164371899Y-70316847D01*
X164332991Y-70348778D01*
X164176466Y-70432443D01*
X164006627Y-70483963D01*
X163940443Y-70490481D01*
X163874260Y-70497000D01*
X163785740Y-70497000D01*
X163719557Y-70490481D01*
X163653373Y-70483963D01*
X163483534Y-70432443D01*
X163327009Y-70348778D01*
X163288101Y-70316847D01*
X163189814Y-70236186D01*
X163088719Y-70113000D01*
X163077222Y-70098991D01*
X162993557Y-69942466D01*
X162942037Y-69772627D01*
X162924641Y-69596000D01*
X162942037Y-69419373D01*
X162993557Y-69249534D01*
X163077222Y-69093009D01*
X163106552Y-69057271D01*
X163189814Y-68955814D01*
X163291271Y-68872552D01*
X163327009Y-68843222D01*
X163483534Y-68759557D01*
X163653373Y-68708037D01*
X163719557Y-68701519D01*
X163785740Y-68695000D01*
X163874260Y-68695000D01*
X163940443Y-68701519D01*
X163940443Y-68701519D01*
G37*
G36*
X151008499Y-69328445D02*
G01*
X151045995Y-69339820D01*
X151080554Y-69358292D01*
X151110847Y-69383153D01*
X151135708Y-69413446D01*
X151154180Y-69448005D01*
X151165555Y-69485501D01*
X151170000Y-69530638D01*
X151170000Y-70169362D01*
X151165555Y-70214499D01*
X151154180Y-70251995D01*
X151135708Y-70286554D01*
X151110847Y-70316847D01*
X151080554Y-70341708D01*
X151045995Y-70360180D01*
X151008499Y-70371555D01*
X150963362Y-70376000D01*
X150224638Y-70376000D01*
X150179501Y-70371555D01*
X150142005Y-70360180D01*
X150107446Y-70341708D01*
X150077153Y-70316847D01*
X150052292Y-70286554D01*
X150033820Y-70251995D01*
X150022445Y-70214499D01*
X150018000Y-70169362D01*
X150018000Y-69530638D01*
X150022445Y-69485501D01*
X150033820Y-69448005D01*
X150052292Y-69413446D01*
X150077153Y-69383153D01*
X150107446Y-69358292D01*
X150142005Y-69339820D01*
X150179501Y-69328445D01*
X150224638Y-69324000D01*
X150963362Y-69324000D01*
X151008499Y-69328445D01*
X151008499Y-69328445D01*
G37*
G36*
X149258499Y-69328445D02*
G01*
X149295995Y-69339820D01*
X149330554Y-69358292D01*
X149360847Y-69383153D01*
X149385708Y-69413446D01*
X149404180Y-69448005D01*
X149415555Y-69485501D01*
X149420000Y-69530638D01*
X149420000Y-70169362D01*
X149415555Y-70214499D01*
X149404180Y-70251995D01*
X149385708Y-70286554D01*
X149360847Y-70316847D01*
X149330554Y-70341708D01*
X149295995Y-70360180D01*
X149258499Y-70371555D01*
X149213362Y-70376000D01*
X148474638Y-70376000D01*
X148429501Y-70371555D01*
X148392005Y-70360180D01*
X148357446Y-70341708D01*
X148327153Y-70316847D01*
X148302292Y-70286554D01*
X148283820Y-70251995D01*
X148272445Y-70214499D01*
X148268000Y-70169362D01*
X148268000Y-69530638D01*
X148272445Y-69485501D01*
X148283820Y-69448005D01*
X148302292Y-69413446D01*
X148327153Y-69383153D01*
X148357446Y-69358292D01*
X148392005Y-69339820D01*
X148429501Y-69328445D01*
X148474638Y-69324000D01*
X149213362Y-69324000D01*
X149258499Y-69328445D01*
X149258499Y-69328445D01*
G37*
G36*
X186562442Y-66161518D02*
G01*
X186628627Y-66168037D01*
X186798466Y-66219557D01*
X186954991Y-66303222D01*
X186990729Y-66332552D01*
X187092186Y-66415814D01*
X187175448Y-66517271D01*
X187204778Y-66553009D01*
X187288443Y-66709534D01*
X187339963Y-66879373D01*
X187357359Y-67056000D01*
X187339963Y-67232627D01*
X187288443Y-67402466D01*
X187204778Y-67558991D01*
X187189543Y-67577555D01*
X187092186Y-67696186D01*
X186990729Y-67779448D01*
X186954991Y-67808778D01*
X186798466Y-67892443D01*
X186628627Y-67943963D01*
X186562442Y-67950482D01*
X186496260Y-67957000D01*
X186407740Y-67957000D01*
X186341558Y-67950482D01*
X186275373Y-67943963D01*
X186105534Y-67892443D01*
X185949009Y-67808778D01*
X185913271Y-67779448D01*
X185811814Y-67696186D01*
X185714457Y-67577555D01*
X185699222Y-67558991D01*
X185615557Y-67402466D01*
X185564037Y-67232627D01*
X185546641Y-67056000D01*
X185564037Y-66879373D01*
X185615557Y-66709534D01*
X185699222Y-66553009D01*
X185728552Y-66517271D01*
X185811814Y-66415814D01*
X185913271Y-66332552D01*
X185949009Y-66303222D01*
X186105534Y-66219557D01*
X186275373Y-66168037D01*
X186341558Y-66161518D01*
X186407740Y-66155000D01*
X186496260Y-66155000D01*
X186562442Y-66161518D01*
X186562442Y-66161518D01*
G37*
G36*
X179704499Y-66456445D02*
G01*
X179741995Y-66467820D01*
X179776554Y-66486292D01*
X179806847Y-66511153D01*
X179831708Y-66541446D01*
X179850180Y-66576005D01*
X179861555Y-66613501D01*
X179866000Y-66658638D01*
X179866000Y-67397362D01*
X179861555Y-67442499D01*
X179850180Y-67479995D01*
X179831708Y-67514554D01*
X179806847Y-67544847D01*
X179776554Y-67569708D01*
X179741995Y-67588180D01*
X179704499Y-67599555D01*
X179659362Y-67604000D01*
X179020638Y-67604000D01*
X178975501Y-67599555D01*
X178938005Y-67588180D01*
X178903446Y-67569708D01*
X178873153Y-67544847D01*
X178848292Y-67514554D01*
X178829820Y-67479995D01*
X178818445Y-67442499D01*
X178814000Y-67397362D01*
X178814000Y-66658638D01*
X178818445Y-66613501D01*
X178829820Y-66576005D01*
X178848292Y-66541446D01*
X178873153Y-66511153D01*
X178903446Y-66486292D01*
X178938005Y-66467820D01*
X178975501Y-66456445D01*
X179020638Y-66452000D01*
X179659362Y-66452000D01*
X179704499Y-66456445D01*
X179704499Y-66456445D01*
G37*
G36*
X181673499Y-66534445D02*
G01*
X181710995Y-66545820D01*
X181745554Y-66564292D01*
X181775847Y-66589153D01*
X181800708Y-66619446D01*
X181819180Y-66654005D01*
X181830555Y-66691501D01*
X181835000Y-66736638D01*
X181835000Y-67375362D01*
X181830555Y-67420499D01*
X181819180Y-67457995D01*
X181800708Y-67492554D01*
X181775847Y-67522847D01*
X181745554Y-67547708D01*
X181710995Y-67566180D01*
X181673499Y-67577555D01*
X181628362Y-67582000D01*
X180889638Y-67582000D01*
X180844501Y-67577555D01*
X180807005Y-67566180D01*
X180772446Y-67547708D01*
X180742153Y-67522847D01*
X180717292Y-67492554D01*
X180698820Y-67457995D01*
X180687445Y-67420499D01*
X180683000Y-67375362D01*
X180683000Y-66736638D01*
X180687445Y-66691501D01*
X180698820Y-66654005D01*
X180717292Y-66619446D01*
X180742153Y-66589153D01*
X180772446Y-66564292D01*
X180807005Y-66545820D01*
X180844501Y-66534445D01*
X180889638Y-66530000D01*
X181628362Y-66530000D01*
X181673499Y-66534445D01*
X181673499Y-66534445D01*
G37*
G36*
X183423499Y-66534445D02*
G01*
X183460995Y-66545820D01*
X183495554Y-66564292D01*
X183525847Y-66589153D01*
X183550708Y-66619446D01*
X183569180Y-66654005D01*
X183580555Y-66691501D01*
X183585000Y-66736638D01*
X183585000Y-67375362D01*
X183580555Y-67420499D01*
X183569180Y-67457995D01*
X183550708Y-67492554D01*
X183525847Y-67522847D01*
X183495554Y-67547708D01*
X183460995Y-67566180D01*
X183423499Y-67577555D01*
X183378362Y-67582000D01*
X182639638Y-67582000D01*
X182594501Y-67577555D01*
X182557005Y-67566180D01*
X182522446Y-67547708D01*
X182492153Y-67522847D01*
X182467292Y-67492554D01*
X182448820Y-67457995D01*
X182437445Y-67420499D01*
X182433000Y-67375362D01*
X182433000Y-66736638D01*
X182437445Y-66691501D01*
X182448820Y-66654005D01*
X182467292Y-66619446D01*
X182492153Y-66589153D01*
X182522446Y-66564292D01*
X182557005Y-66545820D01*
X182594501Y-66534445D01*
X182639638Y-66530000D01*
X183378362Y-66530000D01*
X183423499Y-66534445D01*
X183423499Y-66534445D01*
G37*
G36*
X146855000Y-63011178D02*
G01*
X146857402Y-63035564D01*
X146864515Y-63059013D01*
X146877596Y-63082860D01*
X147386022Y-63809183D01*
X147401974Y-63827784D01*
X147421248Y-63842915D01*
X147443104Y-63853995D01*
X147455000Y-63857324D01*
X147455000Y-63868322D01*
X147457402Y-63892708D01*
X147464515Y-63916157D01*
X147477596Y-63940004D01*
X147501953Y-63974800D01*
X147515026Y-63993475D01*
X147510553Y-63995866D01*
X147491611Y-64011411D01*
X147476066Y-64030353D01*
X147464515Y-64051964D01*
X147457402Y-64075413D01*
X147455000Y-64099799D01*
X147455000Y-65566001D01*
X147457402Y-65590387D01*
X147464515Y-65613836D01*
X147476066Y-65635447D01*
X147491611Y-65654389D01*
X147510553Y-65669934D01*
X147515450Y-65672551D01*
X147477879Y-65725776D01*
X147465778Y-65747084D01*
X147458067Y-65770343D01*
X147455000Y-65797861D01*
X147455000Y-65809235D01*
X147439243Y-65814015D01*
X147417632Y-65825566D01*
X147398690Y-65841111D01*
X147384958Y-65857414D01*
X146830426Y-66643000D01*
X145777574Y-66643000D01*
X145223042Y-65857414D01*
X145207017Y-65838877D01*
X145187683Y-65823822D01*
X145165784Y-65812828D01*
X145153000Y-65809305D01*
X145153000Y-65797861D01*
X145150598Y-65773475D01*
X145143485Y-65750026D01*
X145130121Y-65725776D01*
X145092550Y-65672551D01*
X145097447Y-65669934D01*
X145116389Y-65654389D01*
X145131934Y-65635447D01*
X145143485Y-65613836D01*
X145150598Y-65590387D01*
X145153000Y-65566001D01*
X145153000Y-64099799D01*
X145150598Y-64075413D01*
X145143485Y-64051964D01*
X145131934Y-64030353D01*
X145116389Y-64011411D01*
X145097447Y-63995866D01*
X145092974Y-63993475D01*
X145130404Y-63940004D01*
X145142421Y-63918649D01*
X145150041Y-63895360D01*
X145153000Y-63868322D01*
X145153000Y-63857356D01*
X145167410Y-63852985D01*
X145189021Y-63841434D01*
X145207963Y-63825889D01*
X145221978Y-63809183D01*
X145730404Y-63082860D01*
X145742421Y-63061505D01*
X145750041Y-63038216D01*
X145753000Y-63011178D01*
X145753000Y-61215500D01*
X146855000Y-61215500D01*
X146855000Y-63011178D01*
X146855000Y-63011178D01*
G37*
G36*
X179704499Y-64706445D02*
G01*
X179741995Y-64717820D01*
X179776554Y-64736292D01*
X179806847Y-64761153D01*
X179831708Y-64791446D01*
X179850180Y-64826005D01*
X179861555Y-64863501D01*
X179866000Y-64908638D01*
X179866000Y-65647362D01*
X179861555Y-65692499D01*
X179850180Y-65729995D01*
X179831708Y-65764554D01*
X179806847Y-65794847D01*
X179776554Y-65819708D01*
X179741995Y-65838180D01*
X179704499Y-65849555D01*
X179659362Y-65854000D01*
X179020638Y-65854000D01*
X178975501Y-65849555D01*
X178938005Y-65838180D01*
X178903446Y-65819708D01*
X178873153Y-65794847D01*
X178848292Y-65764554D01*
X178829820Y-65729995D01*
X178818445Y-65692499D01*
X178814000Y-65647362D01*
X178814000Y-64908638D01*
X178818445Y-64863501D01*
X178829820Y-64826005D01*
X178848292Y-64791446D01*
X178873153Y-64761153D01*
X178903446Y-64736292D01*
X178938005Y-64717820D01*
X178975501Y-64706445D01*
X179020638Y-64702000D01*
X179659362Y-64702000D01*
X179704499Y-64706445D01*
X179704499Y-64706445D01*
G37*
G36*
X186562443Y-63621519D02*
G01*
X186628627Y-63628037D01*
X186798466Y-63679557D01*
X186954991Y-63763222D01*
X186990729Y-63792552D01*
X187092186Y-63875814D01*
X187175448Y-63977271D01*
X187204778Y-64013009D01*
X187288443Y-64169534D01*
X187339963Y-64339373D01*
X187357359Y-64516000D01*
X187339963Y-64692627D01*
X187288443Y-64862466D01*
X187204778Y-65018991D01*
X187175448Y-65054729D01*
X187092186Y-65156186D01*
X186990729Y-65239448D01*
X186954991Y-65268778D01*
X186798466Y-65352443D01*
X186628627Y-65403963D01*
X186562443Y-65410481D01*
X186496260Y-65417000D01*
X186407740Y-65417000D01*
X186341557Y-65410481D01*
X186275373Y-65403963D01*
X186105534Y-65352443D01*
X185949009Y-65268778D01*
X185913271Y-65239448D01*
X185811814Y-65156186D01*
X185728552Y-65054729D01*
X185699222Y-65018991D01*
X185615557Y-64862466D01*
X185564037Y-64692627D01*
X185546641Y-64516000D01*
X185564037Y-64339373D01*
X185615557Y-64169534D01*
X185699222Y-64013009D01*
X185728552Y-63977271D01*
X185811814Y-63875814D01*
X185913271Y-63792552D01*
X185949009Y-63763222D01*
X186105534Y-63679557D01*
X186275373Y-63628037D01*
X186341557Y-63621519D01*
X186407740Y-63615000D01*
X186496260Y-63615000D01*
X186562443Y-63621519D01*
X186562443Y-63621519D01*
G37*
G36*
X145355000Y-62821000D02*
G01*
X144253000Y-62821000D01*
X144253000Y-61219000D01*
X145355000Y-61219000D01*
X145355000Y-62821000D01*
X145355000Y-62821000D01*
G37*
G36*
X148355000Y-62821000D02*
G01*
X147253000Y-62821000D01*
X147253000Y-61219000D01*
X148355000Y-61219000D01*
X148355000Y-62821000D01*
X148355000Y-62821000D01*
G37*
G36*
X150224499Y-61517445D02*
G01*
X150261995Y-61528820D01*
X150296554Y-61547292D01*
X150326847Y-61572153D01*
X150351708Y-61602446D01*
X150370180Y-61637005D01*
X150381555Y-61674501D01*
X150386000Y-61719638D01*
X150386000Y-62458362D01*
X150381555Y-62503499D01*
X150370180Y-62540995D01*
X150351708Y-62575554D01*
X150326847Y-62605847D01*
X150296554Y-62630708D01*
X150261995Y-62649180D01*
X150224499Y-62660555D01*
X150179362Y-62665000D01*
X149540638Y-62665000D01*
X149495501Y-62660555D01*
X149458005Y-62649180D01*
X149423446Y-62630708D01*
X149393153Y-62605847D01*
X149368292Y-62575554D01*
X149349820Y-62540995D01*
X149338445Y-62503499D01*
X149334000Y-62458362D01*
X149334000Y-61719638D01*
X149338445Y-61674501D01*
X149349820Y-61637005D01*
X149368292Y-61602446D01*
X149393153Y-61572153D01*
X149423446Y-61547292D01*
X149458005Y-61528820D01*
X149495501Y-61517445D01*
X149540638Y-61513000D01*
X150179362Y-61513000D01*
X150224499Y-61517445D01*
X150224499Y-61517445D01*
G37*
G36*
X150224499Y-59767445D02*
G01*
X150261995Y-59778820D01*
X150296554Y-59797292D01*
X150326847Y-59822153D01*
X150351708Y-59852446D01*
X150370180Y-59887005D01*
X150381555Y-59924501D01*
X150386000Y-59969638D01*
X150386000Y-60708362D01*
X150381555Y-60753499D01*
X150370180Y-60790995D01*
X150351708Y-60825554D01*
X150326847Y-60855847D01*
X150296554Y-60880708D01*
X150261995Y-60899180D01*
X150224499Y-60910555D01*
X150179362Y-60915000D01*
X149540638Y-60915000D01*
X149495501Y-60910555D01*
X149458005Y-60899180D01*
X149423446Y-60880708D01*
X149393153Y-60855847D01*
X149368292Y-60825554D01*
X149349820Y-60790995D01*
X149338445Y-60753499D01*
X149334000Y-60708362D01*
X149334000Y-59969638D01*
X149338445Y-59924501D01*
X149349820Y-59887005D01*
X149368292Y-59852446D01*
X149393153Y-59822153D01*
X149423446Y-59797292D01*
X149458005Y-59778820D01*
X149495501Y-59767445D01*
X149540638Y-59763000D01*
X150179362Y-59763000D01*
X150224499Y-59767445D01*
X150224499Y-59767445D01*
G37*
G36*
X145555562Y-59111681D02*
G01*
X145590481Y-59122274D01*
X145622663Y-59139476D01*
X145650873Y-59162627D01*
X145674024Y-59190837D01*
X145691226Y-59223019D01*
X145701819Y-59257938D01*
X145706000Y-59300395D01*
X145706000Y-60441605D01*
X145701819Y-60484062D01*
X145691226Y-60518981D01*
X145674024Y-60551163D01*
X145650873Y-60579373D01*
X145622663Y-60602524D01*
X145590481Y-60619726D01*
X145555562Y-60630319D01*
X145513105Y-60634500D01*
X144046895Y-60634500D01*
X144004438Y-60630319D01*
X143969519Y-60619726D01*
X143937337Y-60602524D01*
X143909127Y-60579373D01*
X143885976Y-60551163D01*
X143868774Y-60518981D01*
X143858181Y-60484062D01*
X143854000Y-60441605D01*
X143854000Y-59300395D01*
X143858181Y-59257938D01*
X143868774Y-59223019D01*
X143885976Y-59190837D01*
X143909127Y-59162627D01*
X143937337Y-59139476D01*
X143969519Y-59122274D01*
X144004438Y-59111681D01*
X144046895Y-59107500D01*
X145513105Y-59107500D01*
X145555562Y-59111681D01*
X145555562Y-59111681D01*
G37*
G36*
X145555562Y-56136681D02*
G01*
X145590481Y-56147274D01*
X145622663Y-56164476D01*
X145650873Y-56187627D01*
X145674024Y-56215837D01*
X145691226Y-56248019D01*
X145701819Y-56282938D01*
X145706000Y-56325395D01*
X145706000Y-57466605D01*
X145701819Y-57509062D01*
X145691226Y-57543981D01*
X145674024Y-57576163D01*
X145650873Y-57604373D01*
X145622663Y-57627524D01*
X145590481Y-57644726D01*
X145555562Y-57655319D01*
X145513105Y-57659500D01*
X144046895Y-57659500D01*
X144004438Y-57655319D01*
X143969519Y-57644726D01*
X143937337Y-57627524D01*
X143909127Y-57604373D01*
X143885976Y-57576163D01*
X143868774Y-57543981D01*
X143858181Y-57509062D01*
X143854000Y-57466605D01*
X143854000Y-56325395D01*
X143858181Y-56282938D01*
X143868774Y-56248019D01*
X143885976Y-56215837D01*
X143909127Y-56187627D01*
X143937337Y-56164476D01*
X143969519Y-56147274D01*
X144004438Y-56136681D01*
X144046895Y-56132500D01*
X145513105Y-56132500D01*
X145555562Y-56136681D01*
X145555562Y-56136681D01*
G37*
G36*
X148134564Y-55377389D02*
G01*
X148325833Y-55456615D01*
X148325835Y-55456616D01*
X148497973Y-55571635D01*
X148644365Y-55718027D01*
X148759385Y-55890167D01*
X148838611Y-56081436D01*
X148879000Y-56284484D01*
X148879000Y-56491516D01*
X148838611Y-56694564D01*
X148759385Y-56885833D01*
X148759384Y-56885835D01*
X148644365Y-57057973D01*
X148497973Y-57204365D01*
X148325835Y-57319384D01*
X148325834Y-57319385D01*
X148325833Y-57319385D01*
X148134564Y-57398611D01*
X147931516Y-57439000D01*
X147724484Y-57439000D01*
X147521436Y-57398611D01*
X147330167Y-57319385D01*
X147330166Y-57319385D01*
X147330165Y-57319384D01*
X147158027Y-57204365D01*
X147011635Y-57057973D01*
X146896616Y-56885835D01*
X146896615Y-56885833D01*
X146817389Y-56694564D01*
X146777000Y-56491516D01*
X146777000Y-56284484D01*
X146817389Y-56081436D01*
X146896615Y-55890167D01*
X147011635Y-55718027D01*
X147158027Y-55571635D01*
X147330165Y-55456616D01*
X147330167Y-55456615D01*
X147521436Y-55377389D01*
X147724484Y-55337000D01*
X147931516Y-55337000D01*
X148134564Y-55377389D01*
X148134564Y-55377389D01*
G37*
G36*
X135375256Y-53391298D02*
G01*
X135481579Y-53412447D01*
X135782042Y-53536903D01*
X136052451Y-53717585D01*
X136282415Y-53947549D01*
X136463097Y-54217958D01*
X136587553Y-54518421D01*
X136651000Y-54837391D01*
X136651000Y-55162609D01*
X136587553Y-55481579D01*
X136463097Y-55782042D01*
X136282415Y-56052451D01*
X136052451Y-56282415D01*
X135782042Y-56463097D01*
X135481579Y-56587553D01*
X135375256Y-56608702D01*
X135162611Y-56651000D01*
X134837389Y-56651000D01*
X134624744Y-56608702D01*
X134518421Y-56587553D01*
X134217958Y-56463097D01*
X133947549Y-56282415D01*
X133717585Y-56052451D01*
X133536903Y-55782042D01*
X133412447Y-55481579D01*
X133349000Y-55162609D01*
X133349000Y-54837391D01*
X133412447Y-54518421D01*
X133536903Y-54217958D01*
X133717585Y-53947549D01*
X133947549Y-53717585D01*
X134217958Y-53536903D01*
X134518421Y-53412447D01*
X134624744Y-53391298D01*
X134837389Y-53349000D01*
X135162611Y-53349000D01*
X135375256Y-53391298D01*
X135375256Y-53391298D01*
G37*
G36*
X185375256Y-53391298D02*
G01*
X185481579Y-53412447D01*
X185782042Y-53536903D01*
X186052451Y-53717585D01*
X186282415Y-53947549D01*
X186463097Y-54217958D01*
X186587553Y-54518421D01*
X186651000Y-54837391D01*
X186651000Y-55162609D01*
X186587553Y-55481579D01*
X186463097Y-55782042D01*
X186282415Y-56052451D01*
X186052451Y-56282415D01*
X185782042Y-56463097D01*
X185481579Y-56587553D01*
X185375256Y-56608702D01*
X185162611Y-56651000D01*
X184837389Y-56651000D01*
X184624744Y-56608702D01*
X184518421Y-56587553D01*
X184217958Y-56463097D01*
X183947549Y-56282415D01*
X183717585Y-56052451D01*
X183536903Y-55782042D01*
X183412447Y-55481579D01*
X183349000Y-55162609D01*
X183349000Y-54837391D01*
X183412447Y-54518421D01*
X183536903Y-54217958D01*
X183717585Y-53947549D01*
X183947549Y-53717585D01*
X184217958Y-53536903D01*
X184518421Y-53412447D01*
X184624744Y-53391298D01*
X184837389Y-53349000D01*
X185162611Y-53349000D01*
X185375256Y-53391298D01*
X185375256Y-53391298D01*
G37*
M02*
