M48
INCH,TZ
T1C0.0157
T2C0.0315
T3C0.0394
T4C0.0400
T5C0.0472
T6C0.0512
%
G90
G05
T1
X53800Y-26400
X53800Y-27000
X53800Y-27600
X53800Y-28200
X54500Y-26400
X54500Y-27000
X54500Y-27600
X54500Y-28200
X55200Y-26400
X55200Y-27000
X55200Y-27600
X55200Y-28200
X57800Y-34500
X58300Y-35600
X59700Y-31600
X60200Y-32528
X60950Y-30350
X61560Y-28510
X61750Y-35875
X62077Y-30823
X62700Y-34600
X64000Y-37400
X64022Y-30872
X65000Y-35000
X65600Y-36400
X70606Y-25106
X70606Y-30194
X70606Y-35306
T2
X54700Y-30000
X57600Y-25200
X57600Y-25800
X59000Y-23000
X62350Y-33150
X62800Y-32700
T3
X73406Y-30500
X73406Y-31500
X73406Y-32500
X62500Y-29250
X55400Y-32000
X58200Y-22200
X73406Y-25400
X73406Y-26400
X73406Y-27400
X60500Y-27400
X61500Y-27400
X62500Y-27400
X63500Y-27400
X64500Y-27400
X65500Y-27400
X73406Y-35600
X73406Y-36600
X73406Y-37600
X59900Y-28700
X56700Y-41300
T4
X62000Y-40800
X62000Y-41800
X63000Y-40800
X63000Y-41800
X64000Y-40800
X64000Y-41800
T5
X52414Y-30014
X57000Y-21300
T6
X53600Y-34900
X53600Y-36900
T0
M30
