G04 #@! TF.GenerationSoftware,KiCad,Pcbnew,5.1.4+dfsg1-1*
G04 #@! TF.CreationDate,2019-10-01T15:35:31+02:00*
G04 #@! TF.ProjectId,rover-pcb,726f7665-722d-4706-9362-2e6b69636164,1*
G04 #@! TF.SameCoordinates,Original*
G04 #@! TF.FileFunction,Legend,Top*
G04 #@! TF.FilePolarity,Positive*
%FSLAX46Y46*%
G04 Gerber Fmt 4.6, Leading zero omitted, Abs format (unit mm)*
G04 Created by KiCad (PCBNEW 5.1.4+dfsg1-1) date 2019-10-01 15:35:31*
%MOMM*%
%LPD*%
G04 APERTURE LIST*
%ADD10C,0.200000*%
%ADD11C,0.120000*%
%ADD12C,0.250000*%
%ADD13C,0.150000*%
%ADD14C,0.400000*%
G04 APERTURE END LIST*
D10*
X164163619Y-113172761D02*
X164163619Y-111172761D01*
X165020761Y-113077523D02*
X165306476Y-113172761D01*
X165782666Y-113172761D01*
X165973142Y-113077523D01*
X166068380Y-112982285D01*
X166163619Y-112791809D01*
X166163619Y-112601333D01*
X166068380Y-112410857D01*
X165973142Y-112315619D01*
X165782666Y-112220380D01*
X165401714Y-112125142D01*
X165211238Y-112029904D01*
X165116000Y-111934666D01*
X165020761Y-111744190D01*
X165020761Y-111553714D01*
X165116000Y-111363238D01*
X165211238Y-111268000D01*
X165401714Y-111172761D01*
X165877904Y-111172761D01*
X166163619Y-111268000D01*
X167020761Y-113172761D02*
X167020761Y-111172761D01*
X167782666Y-111172761D01*
X167973142Y-111268000D01*
X168068380Y-111363238D01*
X168163619Y-111553714D01*
X168163619Y-111839428D01*
X168068380Y-112029904D01*
X167973142Y-112125142D01*
X167782666Y-112220380D01*
X167020761Y-112220380D01*
D11*
X158369000Y-69088000D02*
X158369000Y-57785000D01*
X173669000Y-69028000D02*
X173672500Y-57785000D01*
D12*
X160096142Y-62344952D02*
X160096142Y-59844952D01*
X160096142Y-61035428D02*
X161524714Y-61035428D01*
X161524714Y-62344952D02*
X161524714Y-59844952D01*
X164143761Y-62106857D02*
X164024714Y-62225904D01*
X163667571Y-62344952D01*
X163429476Y-62344952D01*
X163072333Y-62225904D01*
X162834238Y-61987809D01*
X162715190Y-61749714D01*
X162596142Y-61273523D01*
X162596142Y-60916380D01*
X162715190Y-60440190D01*
X162834238Y-60202095D01*
X163072333Y-59964000D01*
X163429476Y-59844952D01*
X163667571Y-59844952D01*
X164024714Y-59964000D01*
X164143761Y-60083047D01*
X165215190Y-61392571D02*
X167119952Y-61392571D01*
X169619952Y-62344952D02*
X168191380Y-62344952D01*
X168905666Y-62344952D02*
X168905666Y-59844952D01*
X168667571Y-60202095D01*
X168429476Y-60440190D01*
X168191380Y-60559238D01*
X171167571Y-59844952D02*
X171405666Y-59844952D01*
X171643761Y-59964000D01*
X171762809Y-60083047D01*
X171881857Y-60321142D01*
X172000904Y-60797333D01*
X172000904Y-61392571D01*
X171881857Y-61868761D01*
X171762809Y-62106857D01*
X171643761Y-62225904D01*
X171405666Y-62344952D01*
X171167571Y-62344952D01*
X170929476Y-62225904D01*
X170810428Y-62106857D01*
X170691380Y-61868761D01*
X170572333Y-61392571D01*
X170572333Y-60797333D01*
X170691380Y-60321142D01*
X170810428Y-60083047D01*
X170929476Y-59964000D01*
X171167571Y-59844952D01*
D11*
X168402000Y-68326000D02*
X168402000Y-64770000D01*
X165989000Y-64770000D02*
X165989000Y-68326000D01*
X163449000Y-68326000D02*
X163449000Y-64770000D01*
X161163000Y-68326000D02*
X161417000Y-68326000D01*
X161163000Y-64770000D02*
X161163000Y-68326000D01*
X170815000Y-64770000D02*
X161163000Y-64770000D01*
X170815000Y-68326000D02*
X170815000Y-64770000D01*
X161290000Y-68326000D02*
X170815000Y-68326000D01*
D13*
X162250428Y-67960714D02*
X162250428Y-67198809D01*
X162631380Y-67579761D02*
X161869476Y-67579761D01*
X161631380Y-66246428D02*
X161631380Y-66722619D01*
X162107571Y-66770238D01*
X162059952Y-66722619D01*
X162012333Y-66627380D01*
X162012333Y-66389285D01*
X162059952Y-66294047D01*
X162107571Y-66246428D01*
X162202809Y-66198809D01*
X162440904Y-66198809D01*
X162536142Y-66246428D01*
X162583761Y-66294047D01*
X162631380Y-66389285D01*
X162631380Y-66627380D01*
X162583761Y-66722619D01*
X162536142Y-66770238D01*
X161631380Y-65913095D02*
X162631380Y-65579761D01*
X161631380Y-65246428D01*
X164219000Y-67309904D02*
X164171380Y-67405142D01*
X164171380Y-67548000D01*
X164219000Y-67690857D01*
X164314238Y-67786095D01*
X164409476Y-67833714D01*
X164599952Y-67881333D01*
X164742809Y-67881333D01*
X164933285Y-67833714D01*
X165028523Y-67786095D01*
X165123761Y-67690857D01*
X165171380Y-67548000D01*
X165171380Y-67452761D01*
X165123761Y-67309904D01*
X165076142Y-67262285D01*
X164742809Y-67262285D01*
X164742809Y-67452761D01*
X165171380Y-66833714D02*
X164171380Y-66833714D01*
X165171380Y-66262285D01*
X164171380Y-66262285D01*
X165171380Y-65786095D02*
X164171380Y-65786095D01*
X164171380Y-65548000D01*
X164219000Y-65405142D01*
X164314238Y-65309904D01*
X164409476Y-65262285D01*
X164599952Y-65214666D01*
X164742809Y-65214666D01*
X164933285Y-65262285D01*
X165028523Y-65309904D01*
X165123761Y-65405142D01*
X165171380Y-65548000D01*
X165171380Y-65786095D01*
X166711380Y-67436904D02*
X166711380Y-66865476D01*
X167711380Y-67151190D02*
X166711380Y-67151190D01*
X166711380Y-66627380D02*
X167711380Y-65960714D01*
X166711380Y-65960714D02*
X167711380Y-66627380D01*
X170251380Y-66968666D02*
X169775190Y-67302000D01*
X170251380Y-67540095D02*
X169251380Y-67540095D01*
X169251380Y-67159142D01*
X169299000Y-67063904D01*
X169346619Y-67016285D01*
X169441857Y-66968666D01*
X169584714Y-66968666D01*
X169679952Y-67016285D01*
X169727571Y-67063904D01*
X169775190Y-67159142D01*
X169775190Y-67540095D01*
X169251380Y-66635333D02*
X170251380Y-65968666D01*
X169251380Y-65968666D02*
X170251380Y-66635333D01*
D10*
X152575000Y-135933571D02*
X151717857Y-135933571D01*
X152146428Y-135933571D02*
X152146428Y-134433571D01*
X152003571Y-134647857D01*
X151860714Y-134790714D01*
X151717857Y-134862142D01*
X153146428Y-134576428D02*
X153217857Y-134505000D01*
X153360714Y-134433571D01*
X153717857Y-134433571D01*
X153860714Y-134505000D01*
X153932142Y-134576428D01*
X154003571Y-134719285D01*
X154003571Y-134862142D01*
X153932142Y-135076428D01*
X153075000Y-135933571D01*
X154003571Y-135933571D01*
X154432142Y-134433571D02*
X154932142Y-135933571D01*
X155432142Y-134433571D01*
X157075000Y-135933571D02*
X157075000Y-134433571D01*
X157432142Y-134433571D01*
X157646428Y-134505000D01*
X157789285Y-134647857D01*
X157860714Y-134790714D01*
X157932142Y-135076428D01*
X157932142Y-135290714D01*
X157860714Y-135576428D01*
X157789285Y-135719285D01*
X157646428Y-135862142D01*
X157432142Y-135933571D01*
X157075000Y-135933571D01*
X159432142Y-135790714D02*
X159360714Y-135862142D01*
X159146428Y-135933571D01*
X159003571Y-135933571D01*
X158789285Y-135862142D01*
X158646428Y-135719285D01*
X158575000Y-135576428D01*
X158503571Y-135290714D01*
X158503571Y-135076428D01*
X158575000Y-134790714D01*
X158646428Y-134647857D01*
X158789285Y-134505000D01*
X159003571Y-134433571D01*
X159146428Y-134433571D01*
X159360714Y-134505000D01*
X159432142Y-134576428D01*
D14*
X161846142Y-124928285D02*
X164131857Y-124928285D01*
X167846142Y-124928285D02*
X170131857Y-124928285D01*
X168989000Y-126071142D02*
X168989000Y-123785428D01*
D11*
X134747000Y-109982000D02*
X134747000Y-119888000D01*
D13*
X135453571Y-111502000D02*
X136167857Y-111502000D01*
X135310714Y-111930571D02*
X135810714Y-110430571D01*
X136310714Y-111930571D01*
X136739285Y-110573428D02*
X136810714Y-110502000D01*
X136953571Y-110430571D01*
X137310714Y-110430571D01*
X137453571Y-110502000D01*
X137525000Y-110573428D01*
X137596428Y-110716285D01*
X137596428Y-110859142D01*
X137525000Y-111073428D01*
X136667857Y-111930571D01*
X137596428Y-111930571D01*
D11*
X138303000Y-119888000D02*
X138303000Y-109982000D01*
D13*
X135790857Y-116097857D02*
X136005142Y-116169285D01*
X136076571Y-116240714D01*
X136148000Y-116383571D01*
X136148000Y-116597857D01*
X136076571Y-116740714D01*
X136005142Y-116812142D01*
X135862285Y-116883571D01*
X135290857Y-116883571D01*
X135290857Y-115383571D01*
X135790857Y-115383571D01*
X135933714Y-115455000D01*
X136005142Y-115526428D01*
X136076571Y-115669285D01*
X136076571Y-115812142D01*
X136005142Y-115955000D01*
X135933714Y-116026428D01*
X135790857Y-116097857D01*
X135290857Y-116097857D01*
X137576571Y-116883571D02*
X136719428Y-116883571D01*
X137148000Y-116883571D02*
X137148000Y-115383571D01*
X137005142Y-115597857D01*
X136862285Y-115740714D01*
X136719428Y-115812142D01*
D11*
X134747000Y-119888000D02*
X138303000Y-119888000D01*
X138303000Y-109982000D02*
X134747000Y-109982000D01*
D13*
X135453571Y-113915000D02*
X136167857Y-113915000D01*
X135310714Y-114343571D02*
X135810714Y-112843571D01*
X136310714Y-114343571D01*
X137596428Y-114343571D02*
X136739285Y-114343571D01*
X137167857Y-114343571D02*
X137167857Y-112843571D01*
X137025000Y-113057857D01*
X136882142Y-113200714D01*
X136739285Y-113272142D01*
X135790857Y-118637857D02*
X136005142Y-118709285D01*
X136076571Y-118780714D01*
X136148000Y-118923571D01*
X136148000Y-119137857D01*
X136076571Y-119280714D01*
X136005142Y-119352142D01*
X135862285Y-119423571D01*
X135290857Y-119423571D01*
X135290857Y-117923571D01*
X135790857Y-117923571D01*
X135933714Y-117995000D01*
X136005142Y-118066428D01*
X136076571Y-118209285D01*
X136076571Y-118352142D01*
X136005142Y-118495000D01*
X135933714Y-118566428D01*
X135790857Y-118637857D01*
X135290857Y-118637857D01*
X136719428Y-118066428D02*
X136790857Y-117995000D01*
X136933714Y-117923571D01*
X137290857Y-117923571D01*
X137433714Y-117995000D01*
X137505142Y-118066428D01*
X137576571Y-118209285D01*
X137576571Y-118352142D01*
X137505142Y-118566428D01*
X136648000Y-119423571D01*
X137576571Y-119423571D01*
D11*
X193675000Y-73787000D02*
X193675000Y-83693000D01*
D13*
X194381571Y-82927000D02*
X195095857Y-82927000D01*
X194238714Y-83355571D02*
X194738714Y-81855571D01*
X195238714Y-83355571D01*
X195667285Y-81998428D02*
X195738714Y-81927000D01*
X195881571Y-81855571D01*
X196238714Y-81855571D01*
X196381571Y-81927000D01*
X196453000Y-81998428D01*
X196524428Y-82141285D01*
X196524428Y-82284142D01*
X196453000Y-82498428D01*
X195595857Y-83355571D01*
X196524428Y-83355571D01*
D11*
X197231000Y-83693000D02*
X197231000Y-73787000D01*
D13*
X194845857Y-77489857D02*
X195060142Y-77561285D01*
X195131571Y-77632714D01*
X195203000Y-77775571D01*
X195203000Y-77989857D01*
X195131571Y-78132714D01*
X195060142Y-78204142D01*
X194917285Y-78275571D01*
X194345857Y-78275571D01*
X194345857Y-76775571D01*
X194845857Y-76775571D01*
X194988714Y-76847000D01*
X195060142Y-76918428D01*
X195131571Y-77061285D01*
X195131571Y-77204142D01*
X195060142Y-77347000D01*
X194988714Y-77418428D01*
X194845857Y-77489857D01*
X194345857Y-77489857D01*
X196631571Y-78275571D02*
X195774428Y-78275571D01*
X196203000Y-78275571D02*
X196203000Y-76775571D01*
X196060142Y-76989857D01*
X195917285Y-77132714D01*
X195774428Y-77204142D01*
D11*
X193675000Y-83693000D02*
X197231000Y-83693000D01*
X197231000Y-73787000D02*
X193675000Y-73787000D01*
D13*
X194381571Y-80514000D02*
X195095857Y-80514000D01*
X194238714Y-80942571D02*
X194738714Y-79442571D01*
X195238714Y-80942571D01*
X196524428Y-80942571D02*
X195667285Y-80942571D01*
X196095857Y-80942571D02*
X196095857Y-79442571D01*
X195953000Y-79656857D01*
X195810142Y-79799714D01*
X195667285Y-79871142D01*
X194845857Y-74949857D02*
X195060142Y-75021285D01*
X195131571Y-75092714D01*
X195203000Y-75235571D01*
X195203000Y-75449857D01*
X195131571Y-75592714D01*
X195060142Y-75664142D01*
X194917285Y-75735571D01*
X194345857Y-75735571D01*
X194345857Y-74235571D01*
X194845857Y-74235571D01*
X194988714Y-74307000D01*
X195060142Y-74378428D01*
X195131571Y-74521285D01*
X195131571Y-74664142D01*
X195060142Y-74807000D01*
X194988714Y-74878428D01*
X194845857Y-74949857D01*
X194345857Y-74949857D01*
X195774428Y-74378428D02*
X195845857Y-74307000D01*
X195988714Y-74235571D01*
X196345857Y-74235571D01*
X196488714Y-74307000D01*
X196560142Y-74378428D01*
X196631571Y-74521285D01*
X196631571Y-74664142D01*
X196560142Y-74878428D01*
X195703000Y-75735571D01*
X196631571Y-75735571D01*
D11*
X194056000Y-109728000D02*
X194056000Y-119888000D01*
D13*
X194762571Y-118995000D02*
X195476857Y-118995000D01*
X194619714Y-119423571D02*
X195119714Y-117923571D01*
X195619714Y-119423571D01*
X196048285Y-118066428D02*
X196119714Y-117995000D01*
X196262571Y-117923571D01*
X196619714Y-117923571D01*
X196762571Y-117995000D01*
X196834000Y-118066428D01*
X196905428Y-118209285D01*
X196905428Y-118352142D01*
X196834000Y-118566428D01*
X195976857Y-119423571D01*
X196905428Y-119423571D01*
D11*
X197612000Y-119888000D02*
X197612000Y-109728000D01*
D13*
X195226857Y-113557857D02*
X195441142Y-113629285D01*
X195512571Y-113700714D01*
X195584000Y-113843571D01*
X195584000Y-114057857D01*
X195512571Y-114200714D01*
X195441142Y-114272142D01*
X195298285Y-114343571D01*
X194726857Y-114343571D01*
X194726857Y-112843571D01*
X195226857Y-112843571D01*
X195369714Y-112915000D01*
X195441142Y-112986428D01*
X195512571Y-113129285D01*
X195512571Y-113272142D01*
X195441142Y-113415000D01*
X195369714Y-113486428D01*
X195226857Y-113557857D01*
X194726857Y-113557857D01*
X197012571Y-114343571D02*
X196155428Y-114343571D01*
X196584000Y-114343571D02*
X196584000Y-112843571D01*
X196441142Y-113057857D01*
X196298285Y-113200714D01*
X196155428Y-113272142D01*
D11*
X194056000Y-119888000D02*
X197612000Y-119888000D01*
X197612000Y-109728000D02*
X194056000Y-109728000D01*
D13*
X194762571Y-116455000D02*
X195476857Y-116455000D01*
X194619714Y-116883571D02*
X195119714Y-115383571D01*
X195619714Y-116883571D01*
X196905428Y-116883571D02*
X196048285Y-116883571D01*
X196476857Y-116883571D02*
X196476857Y-115383571D01*
X196334000Y-115597857D01*
X196191142Y-115740714D01*
X196048285Y-115812142D01*
X195099857Y-111017857D02*
X195314142Y-111089285D01*
X195385571Y-111160714D01*
X195457000Y-111303571D01*
X195457000Y-111517857D01*
X195385571Y-111660714D01*
X195314142Y-111732142D01*
X195171285Y-111803571D01*
X194599857Y-111803571D01*
X194599857Y-110303571D01*
X195099857Y-110303571D01*
X195242714Y-110375000D01*
X195314142Y-110446428D01*
X195385571Y-110589285D01*
X195385571Y-110732142D01*
X195314142Y-110875000D01*
X195242714Y-110946428D01*
X195099857Y-111017857D01*
X194599857Y-111017857D01*
X196028428Y-110446428D02*
X196099857Y-110375000D01*
X196242714Y-110303571D01*
X196599857Y-110303571D01*
X196742714Y-110375000D01*
X196814142Y-110446428D01*
X196885571Y-110589285D01*
X196885571Y-110732142D01*
X196814142Y-110946428D01*
X195957000Y-111803571D01*
X196885571Y-111803571D01*
D11*
X137922000Y-73914000D02*
X134366000Y-73914000D01*
X137922000Y-83820000D02*
X137922000Y-73914000D01*
X134366000Y-83820000D02*
X137922000Y-83820000D01*
X134366000Y-73914000D02*
X134366000Y-83820000D01*
D13*
X134945571Y-75307000D02*
X135659857Y-75307000D01*
X134802714Y-75735571D02*
X135302714Y-74235571D01*
X135802714Y-75735571D01*
X136231285Y-74378428D02*
X136302714Y-74307000D01*
X136445571Y-74235571D01*
X136802714Y-74235571D01*
X136945571Y-74307000D01*
X137017000Y-74378428D01*
X137088428Y-74521285D01*
X137088428Y-74664142D01*
X137017000Y-74878428D01*
X136159857Y-75735571D01*
X137088428Y-75735571D01*
X135409857Y-82569857D02*
X135624142Y-82641285D01*
X135695571Y-82712714D01*
X135767000Y-82855571D01*
X135767000Y-83069857D01*
X135695571Y-83212714D01*
X135624142Y-83284142D01*
X135481285Y-83355571D01*
X134909857Y-83355571D01*
X134909857Y-81855571D01*
X135409857Y-81855571D01*
X135552714Y-81927000D01*
X135624142Y-81998428D01*
X135695571Y-82141285D01*
X135695571Y-82284142D01*
X135624142Y-82427000D01*
X135552714Y-82498428D01*
X135409857Y-82569857D01*
X134909857Y-82569857D01*
X136338428Y-81998428D02*
X136409857Y-81927000D01*
X136552714Y-81855571D01*
X136909857Y-81855571D01*
X137052714Y-81927000D01*
X137124142Y-81998428D01*
X137195571Y-82141285D01*
X137195571Y-82284142D01*
X137124142Y-82498428D01*
X136267000Y-83355571D01*
X137195571Y-83355571D01*
X135409857Y-80029857D02*
X135624142Y-80101285D01*
X135695571Y-80172714D01*
X135767000Y-80315571D01*
X135767000Y-80529857D01*
X135695571Y-80672714D01*
X135624142Y-80744142D01*
X135481285Y-80815571D01*
X134909857Y-80815571D01*
X134909857Y-79315571D01*
X135409857Y-79315571D01*
X135552714Y-79387000D01*
X135624142Y-79458428D01*
X135695571Y-79601285D01*
X135695571Y-79744142D01*
X135624142Y-79887000D01*
X135552714Y-79958428D01*
X135409857Y-80029857D01*
X134909857Y-80029857D01*
X137195571Y-80815571D02*
X136338428Y-80815571D01*
X136767000Y-80815571D02*
X136767000Y-79315571D01*
X136624142Y-79529857D01*
X136481285Y-79672714D01*
X136338428Y-79744142D01*
X134945571Y-77847000D02*
X135659857Y-77847000D01*
X134802714Y-78275571D02*
X135302714Y-76775571D01*
X135802714Y-78275571D01*
X137088428Y-78275571D02*
X136231285Y-78275571D01*
X136659857Y-78275571D02*
X136659857Y-76775571D01*
X136517000Y-76989857D01*
X136374142Y-77132714D01*
X136231285Y-77204142D01*
D10*
X173080142Y-132168571D02*
X173080142Y-130668571D01*
X173580142Y-131740000D01*
X174080142Y-130668571D01*
X174080142Y-132168571D01*
X175365857Y-132097142D02*
X175223000Y-132168571D01*
X174937285Y-132168571D01*
X174794428Y-132097142D01*
X174723000Y-131954285D01*
X174723000Y-131382857D01*
X174794428Y-131240000D01*
X174937285Y-131168571D01*
X175223000Y-131168571D01*
X175365857Y-131240000D01*
X175437285Y-131382857D01*
X175437285Y-131525714D01*
X174723000Y-131668571D01*
X176723000Y-132097142D02*
X176580142Y-132168571D01*
X176294428Y-132168571D01*
X176151571Y-132097142D01*
X176080142Y-132025714D01*
X176008714Y-131882857D01*
X176008714Y-131454285D01*
X176080142Y-131311428D01*
X176151571Y-131240000D01*
X176294428Y-131168571D01*
X176580142Y-131168571D01*
X176723000Y-131240000D01*
X178008714Y-132168571D02*
X178008714Y-131382857D01*
X177937285Y-131240000D01*
X177794428Y-131168571D01*
X177508714Y-131168571D01*
X177365857Y-131240000D01*
X178008714Y-132097142D02*
X177865857Y-132168571D01*
X177508714Y-132168571D01*
X177365857Y-132097142D01*
X177294428Y-131954285D01*
X177294428Y-131811428D01*
X177365857Y-131668571D01*
X177508714Y-131597142D01*
X177865857Y-131597142D01*
X178008714Y-131525714D01*
X178723000Y-131168571D02*
X178723000Y-132168571D01*
X178723000Y-131311428D02*
X178794428Y-131240000D01*
X178937285Y-131168571D01*
X179151571Y-131168571D01*
X179294428Y-131240000D01*
X179365857Y-131382857D01*
X179365857Y-132168571D01*
X180723000Y-131168571D02*
X180723000Y-132168571D01*
X180080142Y-131168571D02*
X180080142Y-131954285D01*
X180151571Y-132097142D01*
X180294428Y-132168571D01*
X180508714Y-132168571D01*
X180651571Y-132097142D01*
X180723000Y-132025714D01*
X181437285Y-132168571D02*
X181437285Y-131168571D01*
X181437285Y-131311428D02*
X181508714Y-131240000D01*
X181651571Y-131168571D01*
X181865857Y-131168571D01*
X182008714Y-131240000D01*
X182080142Y-131382857D01*
X182080142Y-132168571D01*
X182080142Y-131382857D02*
X182151571Y-131240000D01*
X182294428Y-131168571D01*
X182508714Y-131168571D01*
X182651571Y-131240000D01*
X182723000Y-131382857D01*
X182723000Y-132168571D01*
X184437285Y-130668571D02*
X184794428Y-132168571D01*
X185080142Y-131097142D01*
X185365857Y-132168571D01*
X185723000Y-130668571D01*
X186294428Y-132168571D02*
X186294428Y-130668571D01*
X186937285Y-132168571D02*
X186937285Y-131382857D01*
X186865857Y-131240000D01*
X186723000Y-131168571D01*
X186508714Y-131168571D01*
X186365857Y-131240000D01*
X186294428Y-131311428D01*
X188223000Y-132097142D02*
X188080142Y-132168571D01*
X187794428Y-132168571D01*
X187651571Y-132097142D01*
X187580142Y-131954285D01*
X187580142Y-131382857D01*
X187651571Y-131240000D01*
X187794428Y-131168571D01*
X188080142Y-131168571D01*
X188223000Y-131240000D01*
X188294428Y-131382857D01*
X188294428Y-131525714D01*
X187580142Y-131668571D01*
X189508714Y-132097142D02*
X189365857Y-132168571D01*
X189080142Y-132168571D01*
X188937285Y-132097142D01*
X188865857Y-131954285D01*
X188865857Y-131382857D01*
X188937285Y-131240000D01*
X189080142Y-131168571D01*
X189365857Y-131168571D01*
X189508714Y-131240000D01*
X189580142Y-131382857D01*
X189580142Y-131525714D01*
X188865857Y-131668571D01*
X190437285Y-132168571D02*
X190294428Y-132097142D01*
X190223000Y-131954285D01*
X190223000Y-130668571D01*
X173937285Y-134618571D02*
X173437285Y-133904285D01*
X173080142Y-134618571D02*
X173080142Y-133118571D01*
X173651571Y-133118571D01*
X173794428Y-133190000D01*
X173865857Y-133261428D01*
X173937285Y-133404285D01*
X173937285Y-133618571D01*
X173865857Y-133761428D01*
X173794428Y-133832857D01*
X173651571Y-133904285D01*
X173080142Y-133904285D01*
X174794428Y-134618571D02*
X174651571Y-134547142D01*
X174580142Y-134475714D01*
X174508714Y-134332857D01*
X174508714Y-133904285D01*
X174580142Y-133761428D01*
X174651571Y-133690000D01*
X174794428Y-133618571D01*
X175008714Y-133618571D01*
X175151571Y-133690000D01*
X175223000Y-133761428D01*
X175294428Y-133904285D01*
X175294428Y-134332857D01*
X175223000Y-134475714D01*
X175151571Y-134547142D01*
X175008714Y-134618571D01*
X174794428Y-134618571D01*
X175794428Y-133618571D02*
X176151571Y-134618571D01*
X176508714Y-133618571D01*
X177651571Y-134547142D02*
X177508714Y-134618571D01*
X177223000Y-134618571D01*
X177080142Y-134547142D01*
X177008714Y-134404285D01*
X177008714Y-133832857D01*
X177080142Y-133690000D01*
X177223000Y-133618571D01*
X177508714Y-133618571D01*
X177651571Y-133690000D01*
X177723000Y-133832857D01*
X177723000Y-133975714D01*
X177008714Y-134118571D01*
X178365857Y-134618571D02*
X178365857Y-133618571D01*
X178365857Y-133904285D02*
X178437285Y-133761428D01*
X178508714Y-133690000D01*
X178651571Y-133618571D01*
X178794428Y-133618571D01*
X180294428Y-133618571D02*
X180651571Y-134618571D01*
X181008714Y-133618571D01*
X181865857Y-133118571D02*
X182008714Y-133118571D01*
X182151571Y-133190000D01*
X182223000Y-133261428D01*
X182294428Y-133404285D01*
X182365857Y-133690000D01*
X182365857Y-134047142D01*
X182294428Y-134332857D01*
X182223000Y-134475714D01*
X182151571Y-134547142D01*
X182008714Y-134618571D01*
X181865857Y-134618571D01*
X181723000Y-134547142D01*
X181651571Y-134475714D01*
X181580142Y-134332857D01*
X181508714Y-134047142D01*
X181508714Y-133690000D01*
X181580142Y-133404285D01*
X181651571Y-133261428D01*
X181723000Y-133190000D01*
X181865857Y-133118571D01*
X183008714Y-134475714D02*
X183080142Y-134547142D01*
X183008714Y-134618571D01*
X182937285Y-134547142D01*
X183008714Y-134475714D01*
X183008714Y-134618571D01*
X184508714Y-134618571D02*
X183651571Y-134618571D01*
X184080142Y-134618571D02*
X184080142Y-133118571D01*
X183937285Y-133332857D01*
X183794428Y-133475714D01*
X183651571Y-133547142D01*
X172967428Y-128035857D02*
X173467428Y-128035857D01*
X173681714Y-128821571D02*
X172967428Y-128821571D01*
X172967428Y-127321571D01*
X173681714Y-127321571D01*
X174324571Y-128821571D02*
X174324571Y-127821571D01*
X174324571Y-127964428D02*
X174396000Y-127893000D01*
X174538857Y-127821571D01*
X174753142Y-127821571D01*
X174896000Y-127893000D01*
X174967428Y-128035857D01*
X174967428Y-128821571D01*
X174967428Y-128035857D02*
X175038857Y-127893000D01*
X175181714Y-127821571D01*
X175396000Y-127821571D01*
X175538857Y-127893000D01*
X175610285Y-128035857D01*
X175610285Y-128821571D01*
X176324571Y-128821571D02*
X176324571Y-127821571D01*
X176324571Y-127321571D02*
X176253142Y-127393000D01*
X176324571Y-127464428D01*
X176396000Y-127393000D01*
X176324571Y-127321571D01*
X176324571Y-127464428D01*
X177253142Y-128821571D02*
X177110285Y-128750142D01*
X177038857Y-128607285D01*
X177038857Y-127321571D01*
X179396000Y-127321571D02*
X179396000Y-128393000D01*
X179324571Y-128607285D01*
X179181714Y-128750142D01*
X178967428Y-128821571D01*
X178824571Y-128821571D01*
X180753142Y-128821571D02*
X180753142Y-128035857D01*
X180681714Y-127893000D01*
X180538857Y-127821571D01*
X180253142Y-127821571D01*
X180110285Y-127893000D01*
X180753142Y-128750142D02*
X180610285Y-128821571D01*
X180253142Y-128821571D01*
X180110285Y-128750142D01*
X180038857Y-128607285D01*
X180038857Y-128464428D01*
X180110285Y-128321571D01*
X180253142Y-128250142D01*
X180610285Y-128250142D01*
X180753142Y-128178714D01*
X181467428Y-128821571D02*
X181467428Y-127821571D01*
X181467428Y-128107285D02*
X181538857Y-127964428D01*
X181610285Y-127893000D01*
X181753142Y-127821571D01*
X181896000Y-127821571D01*
X182967428Y-128750142D02*
X182824571Y-128821571D01*
X182538857Y-128821571D01*
X182396000Y-128750142D01*
X182324571Y-128607285D01*
X182324571Y-128035857D01*
X182396000Y-127893000D01*
X182538857Y-127821571D01*
X182824571Y-127821571D01*
X182967428Y-127893000D01*
X183038857Y-128035857D01*
X183038857Y-128178714D01*
X182324571Y-128321571D01*
X184324571Y-127821571D02*
X184324571Y-129035857D01*
X184253142Y-129178714D01*
X184181714Y-129250142D01*
X184038857Y-129321571D01*
X183824571Y-129321571D01*
X183681714Y-129250142D01*
X184324571Y-128750142D02*
X184181714Y-128821571D01*
X183896000Y-128821571D01*
X183753142Y-128750142D01*
X183681714Y-128678714D01*
X183610285Y-128535857D01*
X183610285Y-128107285D01*
X183681714Y-127964428D01*
X183753142Y-127893000D01*
X183896000Y-127821571D01*
X184181714Y-127821571D01*
X184324571Y-127893000D01*
X185038857Y-128821571D02*
X185038857Y-127821571D01*
X185038857Y-128107285D02*
X185110285Y-127964428D01*
X185181714Y-127893000D01*
X185324571Y-127821571D01*
X185467428Y-127821571D01*
X186610285Y-128821571D02*
X186610285Y-128035857D01*
X186538857Y-127893000D01*
X186396000Y-127821571D01*
X186110285Y-127821571D01*
X185967428Y-127893000D01*
X186610285Y-128750142D02*
X186467428Y-128821571D01*
X186110285Y-128821571D01*
X185967428Y-128750142D01*
X185896000Y-128607285D01*
X185896000Y-128464428D01*
X185967428Y-128321571D01*
X186110285Y-128250142D01*
X186467428Y-128250142D01*
X186610285Y-128178714D01*
X187324571Y-127821571D02*
X187324571Y-128821571D01*
X187324571Y-127964428D02*
X187396000Y-127893000D01*
X187538857Y-127821571D01*
X187753142Y-127821571D01*
X187896000Y-127893000D01*
X187967428Y-128035857D01*
X187967428Y-128821571D01*
X189753142Y-127464428D02*
X189824571Y-127393000D01*
X189967428Y-127321571D01*
X190324571Y-127321571D01*
X190467428Y-127393000D01*
X190538857Y-127464428D01*
X190610285Y-127607285D01*
X190610285Y-127750142D01*
X190538857Y-127964428D01*
X189681714Y-128821571D01*
X190610285Y-128821571D01*
X191538857Y-127321571D02*
X191681714Y-127321571D01*
X191824571Y-127393000D01*
X191896000Y-127464428D01*
X191967428Y-127607285D01*
X192038857Y-127893000D01*
X192038857Y-128250142D01*
X191967428Y-128535857D01*
X191896000Y-128678714D01*
X191824571Y-128750142D01*
X191681714Y-128821571D01*
X191538857Y-128821571D01*
X191396000Y-128750142D01*
X191324571Y-128678714D01*
X191253142Y-128535857D01*
X191181714Y-128250142D01*
X191181714Y-127893000D01*
X191253142Y-127607285D01*
X191324571Y-127464428D01*
X191396000Y-127393000D01*
X191538857Y-127321571D01*
X193467428Y-128821571D02*
X192610285Y-128821571D01*
X193038857Y-128821571D02*
X193038857Y-127321571D01*
X192896000Y-127535857D01*
X192753142Y-127678714D01*
X192610285Y-127750142D01*
X194181714Y-128821571D02*
X194467428Y-128821571D01*
X194610285Y-128750142D01*
X194681714Y-128678714D01*
X194824571Y-128464428D01*
X194896000Y-128178714D01*
X194896000Y-127607285D01*
X194824571Y-127464428D01*
X194753142Y-127393000D01*
X194610285Y-127321571D01*
X194324571Y-127321571D01*
X194181714Y-127393000D01*
X194110285Y-127464428D01*
X194038857Y-127607285D01*
X194038857Y-127964428D01*
X194110285Y-128107285D01*
X194181714Y-128178714D01*
X194324571Y-128250142D01*
X194610285Y-128250142D01*
X194753142Y-128178714D01*
X194824571Y-128107285D01*
X194896000Y-127964428D01*
D11*
X145351000Y-76177000D02*
X145351000Y-75415000D01*
X142303000Y-76177000D02*
X142303000Y-75415000D01*
X146113000Y-76177000D02*
X146113000Y-75415000D01*
X146113000Y-71351000D02*
X146113000Y-72113000D01*
X148399000Y-71351000D02*
X148399000Y-72113000D01*
X143827000Y-72113000D02*
X143827000Y-71351000D01*
X149923000Y-72113000D02*
X149923000Y-71351000D01*
D13*
X142509761Y-74343380D02*
X142509761Y-73343380D01*
X142747857Y-73343380D01*
X142890714Y-73391000D01*
X142985952Y-73486238D01*
X143033571Y-73581476D01*
X143081190Y-73771952D01*
X143081190Y-73914809D01*
X143033571Y-74105285D01*
X142985952Y-74200523D01*
X142890714Y-74295761D01*
X142747857Y-74343380D01*
X142509761Y-74343380D01*
X144081190Y-74343380D02*
X143747857Y-73867190D01*
X143509761Y-74343380D02*
X143509761Y-73343380D01*
X143890714Y-73343380D01*
X143985952Y-73391000D01*
X144033571Y-73438619D01*
X144081190Y-73533857D01*
X144081190Y-73676714D01*
X144033571Y-73771952D01*
X143985952Y-73819571D01*
X143890714Y-73867190D01*
X143509761Y-73867190D01*
X144366904Y-73343380D02*
X144700238Y-74343380D01*
X145033571Y-73343380D01*
X145509761Y-73771952D02*
X145414523Y-73724333D01*
X145366904Y-73676714D01*
X145319285Y-73581476D01*
X145319285Y-73533857D01*
X145366904Y-73438619D01*
X145414523Y-73391000D01*
X145509761Y-73343380D01*
X145700238Y-73343380D01*
X145795476Y-73391000D01*
X145843095Y-73438619D01*
X145890714Y-73533857D01*
X145890714Y-73581476D01*
X145843095Y-73676714D01*
X145795476Y-73724333D01*
X145700238Y-73771952D01*
X145509761Y-73771952D01*
X145414523Y-73819571D01*
X145366904Y-73867190D01*
X145319285Y-73962428D01*
X145319285Y-74152904D01*
X145366904Y-74248142D01*
X145414523Y-74295761D01*
X145509761Y-74343380D01*
X145700238Y-74343380D01*
X145795476Y-74295761D01*
X145843095Y-74248142D01*
X145890714Y-74152904D01*
X145890714Y-73962428D01*
X145843095Y-73867190D01*
X145795476Y-73819571D01*
X145700238Y-73771952D01*
X146462142Y-73771952D02*
X146366904Y-73724333D01*
X146319285Y-73676714D01*
X146271666Y-73581476D01*
X146271666Y-73533857D01*
X146319285Y-73438619D01*
X146366904Y-73391000D01*
X146462142Y-73343380D01*
X146652619Y-73343380D01*
X146747857Y-73391000D01*
X146795476Y-73438619D01*
X146843095Y-73533857D01*
X146843095Y-73581476D01*
X146795476Y-73676714D01*
X146747857Y-73724333D01*
X146652619Y-73771952D01*
X146462142Y-73771952D01*
X146366904Y-73819571D01*
X146319285Y-73867190D01*
X146271666Y-73962428D01*
X146271666Y-74152904D01*
X146319285Y-74248142D01*
X146366904Y-74295761D01*
X146462142Y-74343380D01*
X146652619Y-74343380D01*
X146747857Y-74295761D01*
X146795476Y-74248142D01*
X146843095Y-74152904D01*
X146843095Y-73962428D01*
X146795476Y-73867190D01*
X146747857Y-73819571D01*
X146652619Y-73771952D01*
X147224047Y-73438619D02*
X147271666Y-73391000D01*
X147366904Y-73343380D01*
X147605000Y-73343380D01*
X147700238Y-73391000D01*
X147747857Y-73438619D01*
X147795476Y-73533857D01*
X147795476Y-73629095D01*
X147747857Y-73771952D01*
X147176428Y-74343380D01*
X147795476Y-74343380D01*
X148700238Y-73343380D02*
X148224047Y-73343380D01*
X148176428Y-73819571D01*
X148224047Y-73771952D01*
X148319285Y-73724333D01*
X148557380Y-73724333D01*
X148652619Y-73771952D01*
X148700238Y-73819571D01*
X148747857Y-73914809D01*
X148747857Y-74152904D01*
X148700238Y-74248142D01*
X148652619Y-74295761D01*
X148557380Y-74343380D01*
X148319285Y-74343380D01*
X148224047Y-74295761D01*
X148176428Y-74248142D01*
D11*
X141541000Y-76177000D02*
X141541000Y-75415000D01*
X149923000Y-72113000D02*
X141541000Y-72113000D01*
X149161000Y-71351000D02*
X149161000Y-72113000D01*
X144589000Y-72113000D02*
X144589000Y-71351000D01*
X146875000Y-71351000D02*
X146875000Y-72113000D01*
X141541000Y-72113000D02*
X141541000Y-71351000D01*
X149923000Y-76177000D02*
X149923000Y-75415000D01*
X142303000Y-72113000D02*
X142303000Y-71351000D01*
X149161000Y-76177000D02*
X149161000Y-75415000D01*
X141541000Y-75415000D02*
X149923000Y-75415000D01*
X149923000Y-75415000D02*
X149923000Y-72113000D01*
X146875000Y-76177000D02*
X146875000Y-75415000D01*
X147637000Y-76177000D02*
X147637000Y-75415000D01*
X148399000Y-76177000D02*
X148399000Y-75415000D01*
X143827000Y-76177000D02*
X143827000Y-75415000D01*
X143065000Y-72113000D02*
X143065000Y-71351000D01*
X144589000Y-76177000D02*
X144589000Y-75415000D01*
X145351000Y-72113000D02*
X145351000Y-71351000D01*
X143065000Y-76177000D02*
X143065000Y-75415000D01*
X141541000Y-72113000D02*
X141541000Y-75415000D01*
X147637000Y-71351000D02*
X147637000Y-72113000D01*
X145097000Y-108308000D02*
X145097000Y-107546000D01*
X150431000Y-108308000D02*
X150431000Y-107546000D01*
X148145000Y-112372000D02*
X148145000Y-111610000D01*
X143573000Y-108308000D02*
X143573000Y-107546000D01*
X142049000Y-108308000D02*
X142049000Y-111610000D01*
X142049000Y-108308000D02*
X142049000Y-107546000D01*
X150431000Y-111610000D02*
X150431000Y-108308000D01*
X142811000Y-112372000D02*
X142811000Y-111610000D01*
X144335000Y-108308000D02*
X144335000Y-107546000D01*
X146621000Y-112372000D02*
X146621000Y-111610000D01*
X147383000Y-107546000D02*
X147383000Y-108308000D01*
X142049000Y-111610000D02*
X150431000Y-111610000D01*
X145859000Y-112372000D02*
X145859000Y-111610000D01*
X142811000Y-108308000D02*
X142811000Y-107546000D01*
X149669000Y-107546000D02*
X149669000Y-108308000D01*
X148145000Y-107546000D02*
X148145000Y-108308000D01*
X149669000Y-112372000D02*
X149669000Y-111610000D01*
X150431000Y-108308000D02*
X142049000Y-108308000D01*
X147383000Y-112372000D02*
X147383000Y-111610000D01*
X145097000Y-112372000D02*
X145097000Y-111610000D01*
X143573000Y-112372000D02*
X143573000Y-111610000D01*
X142049000Y-112372000D02*
X142049000Y-111610000D01*
X145859000Y-108308000D02*
X145859000Y-107546000D01*
X150431000Y-112372000D02*
X150431000Y-111610000D01*
X144335000Y-112372000D02*
X144335000Y-111610000D01*
X146621000Y-107546000D02*
X146621000Y-108308000D01*
X148907000Y-112372000D02*
X148907000Y-111610000D01*
X148907000Y-107546000D02*
X148907000Y-108308000D01*
D13*
X143017761Y-110538380D02*
X143017761Y-109538380D01*
X143255857Y-109538380D01*
X143398714Y-109586000D01*
X143493952Y-109681238D01*
X143541571Y-109776476D01*
X143589190Y-109966952D01*
X143589190Y-110109809D01*
X143541571Y-110300285D01*
X143493952Y-110395523D01*
X143398714Y-110490761D01*
X143255857Y-110538380D01*
X143017761Y-110538380D01*
X144589190Y-110538380D02*
X144255857Y-110062190D01*
X144017761Y-110538380D02*
X144017761Y-109538380D01*
X144398714Y-109538380D01*
X144493952Y-109586000D01*
X144541571Y-109633619D01*
X144589190Y-109728857D01*
X144589190Y-109871714D01*
X144541571Y-109966952D01*
X144493952Y-110014571D01*
X144398714Y-110062190D01*
X144017761Y-110062190D01*
X144874904Y-109538380D02*
X145208238Y-110538380D01*
X145541571Y-109538380D01*
X146017761Y-109966952D02*
X145922523Y-109919333D01*
X145874904Y-109871714D01*
X145827285Y-109776476D01*
X145827285Y-109728857D01*
X145874904Y-109633619D01*
X145922523Y-109586000D01*
X146017761Y-109538380D01*
X146208238Y-109538380D01*
X146303476Y-109586000D01*
X146351095Y-109633619D01*
X146398714Y-109728857D01*
X146398714Y-109776476D01*
X146351095Y-109871714D01*
X146303476Y-109919333D01*
X146208238Y-109966952D01*
X146017761Y-109966952D01*
X145922523Y-110014571D01*
X145874904Y-110062190D01*
X145827285Y-110157428D01*
X145827285Y-110347904D01*
X145874904Y-110443142D01*
X145922523Y-110490761D01*
X146017761Y-110538380D01*
X146208238Y-110538380D01*
X146303476Y-110490761D01*
X146351095Y-110443142D01*
X146398714Y-110347904D01*
X146398714Y-110157428D01*
X146351095Y-110062190D01*
X146303476Y-110014571D01*
X146208238Y-109966952D01*
X146970142Y-109966952D02*
X146874904Y-109919333D01*
X146827285Y-109871714D01*
X146779666Y-109776476D01*
X146779666Y-109728857D01*
X146827285Y-109633619D01*
X146874904Y-109586000D01*
X146970142Y-109538380D01*
X147160619Y-109538380D01*
X147255857Y-109586000D01*
X147303476Y-109633619D01*
X147351095Y-109728857D01*
X147351095Y-109776476D01*
X147303476Y-109871714D01*
X147255857Y-109919333D01*
X147160619Y-109966952D01*
X146970142Y-109966952D01*
X146874904Y-110014571D01*
X146827285Y-110062190D01*
X146779666Y-110157428D01*
X146779666Y-110347904D01*
X146827285Y-110443142D01*
X146874904Y-110490761D01*
X146970142Y-110538380D01*
X147160619Y-110538380D01*
X147255857Y-110490761D01*
X147303476Y-110443142D01*
X147351095Y-110347904D01*
X147351095Y-110157428D01*
X147303476Y-110062190D01*
X147255857Y-110014571D01*
X147160619Y-109966952D01*
X147732047Y-109633619D02*
X147779666Y-109586000D01*
X147874904Y-109538380D01*
X148113000Y-109538380D01*
X148208238Y-109586000D01*
X148255857Y-109633619D01*
X148303476Y-109728857D01*
X148303476Y-109824095D01*
X148255857Y-109966952D01*
X147684428Y-110538380D01*
X148303476Y-110538380D01*
X149208238Y-109538380D02*
X148732047Y-109538380D01*
X148684428Y-110014571D01*
X148732047Y-109966952D01*
X148827285Y-109919333D01*
X149065380Y-109919333D01*
X149160619Y-109966952D01*
X149208238Y-110014571D01*
X149255857Y-110109809D01*
X149255857Y-110347904D01*
X149208238Y-110443142D01*
X149160619Y-110490761D01*
X149065380Y-110538380D01*
X148827285Y-110538380D01*
X148732047Y-110490761D01*
X148684428Y-110443142D01*
D11*
X184467000Y-82273000D02*
X184467000Y-81511000D01*
X189801000Y-82273000D02*
X189801000Y-81511000D01*
X187515000Y-86337000D02*
X187515000Y-85575000D01*
X182943000Y-82273000D02*
X182943000Y-81511000D01*
X181419000Y-82273000D02*
X181419000Y-85575000D01*
X181419000Y-82273000D02*
X181419000Y-81511000D01*
X189801000Y-85575000D02*
X189801000Y-82273000D01*
X182181000Y-86337000D02*
X182181000Y-85575000D01*
X183705000Y-82273000D02*
X183705000Y-81511000D01*
X185991000Y-86337000D02*
X185991000Y-85575000D01*
X186753000Y-81511000D02*
X186753000Y-82273000D01*
X181419000Y-85575000D02*
X189801000Y-85575000D01*
X185229000Y-86337000D02*
X185229000Y-85575000D01*
X182181000Y-82273000D02*
X182181000Y-81511000D01*
X189039000Y-81511000D02*
X189039000Y-82273000D01*
X187515000Y-81511000D02*
X187515000Y-82273000D01*
X189039000Y-86337000D02*
X189039000Y-85575000D01*
X189801000Y-82273000D02*
X181419000Y-82273000D01*
X186753000Y-86337000D02*
X186753000Y-85575000D01*
X184467000Y-86337000D02*
X184467000Y-85575000D01*
X182943000Y-86337000D02*
X182943000Y-85575000D01*
X181419000Y-86337000D02*
X181419000Y-85575000D01*
X185229000Y-82273000D02*
X185229000Y-81511000D01*
X189801000Y-86337000D02*
X189801000Y-85575000D01*
X183705000Y-86337000D02*
X183705000Y-85575000D01*
X185991000Y-81511000D02*
X185991000Y-82273000D01*
X188277000Y-86337000D02*
X188277000Y-85575000D01*
X188277000Y-81511000D02*
X188277000Y-82273000D01*
D13*
X182387761Y-84503380D02*
X182387761Y-83503380D01*
X182625857Y-83503380D01*
X182768714Y-83551000D01*
X182863952Y-83646238D01*
X182911571Y-83741476D01*
X182959190Y-83931952D01*
X182959190Y-84074809D01*
X182911571Y-84265285D01*
X182863952Y-84360523D01*
X182768714Y-84455761D01*
X182625857Y-84503380D01*
X182387761Y-84503380D01*
X183959190Y-84503380D02*
X183625857Y-84027190D01*
X183387761Y-84503380D02*
X183387761Y-83503380D01*
X183768714Y-83503380D01*
X183863952Y-83551000D01*
X183911571Y-83598619D01*
X183959190Y-83693857D01*
X183959190Y-83836714D01*
X183911571Y-83931952D01*
X183863952Y-83979571D01*
X183768714Y-84027190D01*
X183387761Y-84027190D01*
X184244904Y-83503380D02*
X184578238Y-84503380D01*
X184911571Y-83503380D01*
X185387761Y-83931952D02*
X185292523Y-83884333D01*
X185244904Y-83836714D01*
X185197285Y-83741476D01*
X185197285Y-83693857D01*
X185244904Y-83598619D01*
X185292523Y-83551000D01*
X185387761Y-83503380D01*
X185578238Y-83503380D01*
X185673476Y-83551000D01*
X185721095Y-83598619D01*
X185768714Y-83693857D01*
X185768714Y-83741476D01*
X185721095Y-83836714D01*
X185673476Y-83884333D01*
X185578238Y-83931952D01*
X185387761Y-83931952D01*
X185292523Y-83979571D01*
X185244904Y-84027190D01*
X185197285Y-84122428D01*
X185197285Y-84312904D01*
X185244904Y-84408142D01*
X185292523Y-84455761D01*
X185387761Y-84503380D01*
X185578238Y-84503380D01*
X185673476Y-84455761D01*
X185721095Y-84408142D01*
X185768714Y-84312904D01*
X185768714Y-84122428D01*
X185721095Y-84027190D01*
X185673476Y-83979571D01*
X185578238Y-83931952D01*
X186340142Y-83931952D02*
X186244904Y-83884333D01*
X186197285Y-83836714D01*
X186149666Y-83741476D01*
X186149666Y-83693857D01*
X186197285Y-83598619D01*
X186244904Y-83551000D01*
X186340142Y-83503380D01*
X186530619Y-83503380D01*
X186625857Y-83551000D01*
X186673476Y-83598619D01*
X186721095Y-83693857D01*
X186721095Y-83741476D01*
X186673476Y-83836714D01*
X186625857Y-83884333D01*
X186530619Y-83931952D01*
X186340142Y-83931952D01*
X186244904Y-83979571D01*
X186197285Y-84027190D01*
X186149666Y-84122428D01*
X186149666Y-84312904D01*
X186197285Y-84408142D01*
X186244904Y-84455761D01*
X186340142Y-84503380D01*
X186530619Y-84503380D01*
X186625857Y-84455761D01*
X186673476Y-84408142D01*
X186721095Y-84312904D01*
X186721095Y-84122428D01*
X186673476Y-84027190D01*
X186625857Y-83979571D01*
X186530619Y-83931952D01*
X187102047Y-83598619D02*
X187149666Y-83551000D01*
X187244904Y-83503380D01*
X187483000Y-83503380D01*
X187578238Y-83551000D01*
X187625857Y-83598619D01*
X187673476Y-83693857D01*
X187673476Y-83789095D01*
X187625857Y-83931952D01*
X187054428Y-84503380D01*
X187673476Y-84503380D01*
X188578238Y-83503380D02*
X188102047Y-83503380D01*
X188054428Y-83979571D01*
X188102047Y-83931952D01*
X188197285Y-83884333D01*
X188435380Y-83884333D01*
X188530619Y-83931952D01*
X188578238Y-83979571D01*
X188625857Y-84074809D01*
X188625857Y-84312904D01*
X188578238Y-84408142D01*
X188530619Y-84455761D01*
X188435380Y-84503380D01*
X188197285Y-84503380D01*
X188102047Y-84455761D01*
X188054428Y-84408142D01*
D11*
X184975000Y-118341000D02*
X184975000Y-117579000D01*
X190309000Y-118341000D02*
X190309000Y-117579000D01*
X188023000Y-122405000D02*
X188023000Y-121643000D01*
X183451000Y-118341000D02*
X183451000Y-117579000D01*
X181927000Y-118341000D02*
X181927000Y-121643000D01*
X181927000Y-118341000D02*
X181927000Y-117579000D01*
X190309000Y-121643000D02*
X190309000Y-118341000D01*
X182689000Y-122405000D02*
X182689000Y-121643000D01*
X184213000Y-118341000D02*
X184213000Y-117579000D01*
X186499000Y-122405000D02*
X186499000Y-121643000D01*
X187261000Y-117579000D02*
X187261000Y-118341000D01*
X181927000Y-121643000D02*
X190309000Y-121643000D01*
X185737000Y-122405000D02*
X185737000Y-121643000D01*
X182689000Y-118341000D02*
X182689000Y-117579000D01*
X189547000Y-117579000D02*
X189547000Y-118341000D01*
X188023000Y-117579000D02*
X188023000Y-118341000D01*
X189547000Y-122405000D02*
X189547000Y-121643000D01*
X190309000Y-118341000D02*
X181927000Y-118341000D01*
X187261000Y-122405000D02*
X187261000Y-121643000D01*
X184975000Y-122405000D02*
X184975000Y-121643000D01*
X183451000Y-122405000D02*
X183451000Y-121643000D01*
X181927000Y-122405000D02*
X181927000Y-121643000D01*
X185737000Y-118341000D02*
X185737000Y-117579000D01*
X190309000Y-122405000D02*
X190309000Y-121643000D01*
X184213000Y-122405000D02*
X184213000Y-121643000D01*
X186499000Y-117579000D02*
X186499000Y-118341000D01*
X188785000Y-122405000D02*
X188785000Y-121643000D01*
X188785000Y-117579000D02*
X188785000Y-118341000D01*
D13*
X182895761Y-120571380D02*
X182895761Y-119571380D01*
X183133857Y-119571380D01*
X183276714Y-119619000D01*
X183371952Y-119714238D01*
X183419571Y-119809476D01*
X183467190Y-119999952D01*
X183467190Y-120142809D01*
X183419571Y-120333285D01*
X183371952Y-120428523D01*
X183276714Y-120523761D01*
X183133857Y-120571380D01*
X182895761Y-120571380D01*
X184467190Y-120571380D02*
X184133857Y-120095190D01*
X183895761Y-120571380D02*
X183895761Y-119571380D01*
X184276714Y-119571380D01*
X184371952Y-119619000D01*
X184419571Y-119666619D01*
X184467190Y-119761857D01*
X184467190Y-119904714D01*
X184419571Y-119999952D01*
X184371952Y-120047571D01*
X184276714Y-120095190D01*
X183895761Y-120095190D01*
X184752904Y-119571380D02*
X185086238Y-120571380D01*
X185419571Y-119571380D01*
X185895761Y-119999952D02*
X185800523Y-119952333D01*
X185752904Y-119904714D01*
X185705285Y-119809476D01*
X185705285Y-119761857D01*
X185752904Y-119666619D01*
X185800523Y-119619000D01*
X185895761Y-119571380D01*
X186086238Y-119571380D01*
X186181476Y-119619000D01*
X186229095Y-119666619D01*
X186276714Y-119761857D01*
X186276714Y-119809476D01*
X186229095Y-119904714D01*
X186181476Y-119952333D01*
X186086238Y-119999952D01*
X185895761Y-119999952D01*
X185800523Y-120047571D01*
X185752904Y-120095190D01*
X185705285Y-120190428D01*
X185705285Y-120380904D01*
X185752904Y-120476142D01*
X185800523Y-120523761D01*
X185895761Y-120571380D01*
X186086238Y-120571380D01*
X186181476Y-120523761D01*
X186229095Y-120476142D01*
X186276714Y-120380904D01*
X186276714Y-120190428D01*
X186229095Y-120095190D01*
X186181476Y-120047571D01*
X186086238Y-119999952D01*
X186848142Y-119999952D02*
X186752904Y-119952333D01*
X186705285Y-119904714D01*
X186657666Y-119809476D01*
X186657666Y-119761857D01*
X186705285Y-119666619D01*
X186752904Y-119619000D01*
X186848142Y-119571380D01*
X187038619Y-119571380D01*
X187133857Y-119619000D01*
X187181476Y-119666619D01*
X187229095Y-119761857D01*
X187229095Y-119809476D01*
X187181476Y-119904714D01*
X187133857Y-119952333D01*
X187038619Y-119999952D01*
X186848142Y-119999952D01*
X186752904Y-120047571D01*
X186705285Y-120095190D01*
X186657666Y-120190428D01*
X186657666Y-120380904D01*
X186705285Y-120476142D01*
X186752904Y-120523761D01*
X186848142Y-120571380D01*
X187038619Y-120571380D01*
X187133857Y-120523761D01*
X187181476Y-120476142D01*
X187229095Y-120380904D01*
X187229095Y-120190428D01*
X187181476Y-120095190D01*
X187133857Y-120047571D01*
X187038619Y-119999952D01*
X187610047Y-119666619D02*
X187657666Y-119619000D01*
X187752904Y-119571380D01*
X187991000Y-119571380D01*
X188086238Y-119619000D01*
X188133857Y-119666619D01*
X188181476Y-119761857D01*
X188181476Y-119857095D01*
X188133857Y-119999952D01*
X187562428Y-120571380D01*
X188181476Y-120571380D01*
X189086238Y-119571380D02*
X188610047Y-119571380D01*
X188562428Y-120047571D01*
X188610047Y-119999952D01*
X188705285Y-119952333D01*
X188943380Y-119952333D01*
X189038619Y-119999952D01*
X189086238Y-120047571D01*
X189133857Y-120142809D01*
X189133857Y-120380904D01*
X189086238Y-120476142D01*
X189038619Y-120523761D01*
X188943380Y-120571380D01*
X188705285Y-120571380D01*
X188610047Y-120523761D01*
X188562428Y-120476142D01*
D11*
X158309000Y-71688000D02*
X158309000Y-70358000D01*
X159639000Y-71688000D02*
X158309000Y-71688000D01*
X160909000Y-71688000D02*
X160909000Y-69028000D01*
X160909000Y-69028000D02*
X173669000Y-69028000D01*
X160909000Y-71688000D02*
X173669000Y-71688000D01*
X173669000Y-71688000D02*
X173669000Y-69028000D01*
X160308200Y-77532400D02*
X160308200Y-78732400D01*
X156308200Y-77532400D02*
X160308200Y-77532400D01*
X160308200Y-82332400D02*
X157608200Y-82332400D01*
X160308200Y-81132400D02*
X160308200Y-82332400D01*
X161283000Y-87607000D02*
G75*
G03X161283000Y-87607000I-1200000J0D01*
G01*
D13*
X161084575Y-95259099D02*
X160076948Y-96266726D01*
X166052000Y-89973476D02*
X165822190Y-90203286D01*
X171178524Y-95100000D02*
X170948714Y-95329810D01*
X166052000Y-100226524D02*
X166281810Y-99996714D01*
X160925476Y-95100000D02*
X161155286Y-94870190D01*
X166052000Y-100226524D02*
X165822190Y-99996714D01*
X171178524Y-95100000D02*
X170948714Y-94870190D01*
X166052000Y-89973476D02*
X166281810Y-90203286D01*
X160925476Y-95100000D02*
X161084575Y-95259099D01*
D11*
X145853000Y-132207000D02*
G75*
G03X145853000Y-132207000I-1200000J0D01*
G01*
X158235000Y-88877000D02*
G75*
G03X158235000Y-88877000I-1200000J0D01*
G01*
X158489000Y-108181000D02*
G75*
G03X158489000Y-108181000I-1200000J0D01*
G01*
X158235000Y-73891000D02*
G75*
G03X158235000Y-73891000I-1200000J0D01*
G01*
X165391000Y-107469000D02*
X165391000Y-108119000D01*
X166791000Y-107469000D02*
X165391000Y-107469000D01*
X165391000Y-103869000D02*
X166791000Y-103869000D01*
X168791000Y-105269000D02*
X168791000Y-106069000D01*
X163391000Y-106069000D02*
X163391000Y-105269000D01*
X162141000Y-106069000D02*
X163391000Y-106069000D01*
X152856188Y-99968336D02*
X152078370Y-100746154D01*
X153047107Y-100159255D02*
X152856188Y-99968336D01*
X154107767Y-99098595D02*
X153047107Y-100159255D01*
X148358989Y-95471137D02*
X146357876Y-97472249D01*
X148168070Y-95280218D02*
X148358989Y-95471137D01*
X149228730Y-94219558D02*
X148168070Y-95280218D01*
X165499733Y-75290000D02*
X165842267Y-75290000D01*
X165499733Y-74270000D02*
X165842267Y-74270000D01*
X172470733Y-75036000D02*
X172813267Y-75036000D01*
X172470733Y-74016000D02*
X172813267Y-74016000D01*
X166466733Y-80456500D02*
X166809267Y-80456500D01*
X166466733Y-79436500D02*
X166809267Y-79436500D01*
X173324733Y-80393000D02*
X173667267Y-80393000D01*
X173324733Y-79373000D02*
X173667267Y-79373000D01*
X172338980Y-90998771D02*
X172096771Y-91240980D01*
X173060229Y-91720020D02*
X172818020Y-91962229D01*
X161512738Y-90200511D02*
X161754947Y-89958302D01*
X160791489Y-89479262D02*
X161033698Y-89237053D01*
X164148000Y-78143000D02*
X164148000Y-76683000D01*
X167308000Y-78143000D02*
X167308000Y-75983000D01*
X167308000Y-78143000D02*
X166378000Y-78143000D01*
X164148000Y-78143000D02*
X165078000Y-78143000D01*
X171076000Y-78080000D02*
X171076000Y-76620000D01*
X174236000Y-78080000D02*
X174236000Y-75920000D01*
X174236000Y-78080000D02*
X173306000Y-78080000D01*
X171076000Y-78080000D02*
X172006000Y-78080000D01*
X131893000Y-109772000D02*
X133223000Y-109772000D01*
X131893000Y-111102000D02*
X131893000Y-109772000D01*
X131893000Y-112372000D02*
X134553000Y-112372000D01*
X134553000Y-112372000D02*
X134553000Y-120052000D01*
X131893000Y-112372000D02*
X131893000Y-120052000D01*
X131893000Y-120052000D02*
X134553000Y-120052000D01*
X200085000Y-83984000D02*
X198755000Y-83984000D01*
X200085000Y-82654000D02*
X200085000Y-83984000D01*
X200085000Y-81384000D02*
X197425000Y-81384000D01*
X197425000Y-81384000D02*
X197425000Y-73704000D01*
X200085000Y-81384000D02*
X200085000Y-73704000D01*
X200085000Y-73704000D02*
X197425000Y-73704000D01*
X200339000Y-120052000D02*
X199009000Y-120052000D01*
X200339000Y-118722000D02*
X200339000Y-120052000D01*
X200339000Y-117452000D02*
X197679000Y-117452000D01*
X197679000Y-117452000D02*
X197679000Y-109772000D01*
X200339000Y-117452000D02*
X200339000Y-109772000D01*
X200339000Y-109772000D02*
X197679000Y-109772000D01*
X160672000Y-136576000D02*
X161172000Y-136576000D01*
X160672000Y-135836000D02*
X160672000Y-136576000D01*
X167365000Y-132699000D02*
X167318000Y-132745000D01*
X169662000Y-130401000D02*
X169627000Y-130437000D01*
X167558000Y-132915000D02*
X167523000Y-132950000D01*
X169867000Y-130607000D02*
X169820000Y-130653000D01*
X171192000Y-126415000D02*
X171192000Y-136336000D01*
X160912000Y-126415000D02*
X160912000Y-136336000D01*
X160912000Y-136336000D02*
X171192000Y-136336000D01*
X160912000Y-126415000D02*
X171192000Y-126415000D01*
X160912000Y-129375000D02*
X171192000Y-129375000D01*
X160912000Y-134276000D02*
X171192000Y-134276000D01*
X160912000Y-135776000D02*
X171192000Y-135776000D01*
X170272000Y-131676000D02*
G75*
G03X170272000Y-131676000I-1680000J0D01*
G01*
X163540805Y-133356253D02*
G75*
G02X162828000Y-133211000I-28805J1680253D01*
G01*
X161976574Y-132359042D02*
G75*
G02X161977000Y-130992000I1535426J683042D01*
G01*
X162828958Y-130140574D02*
G75*
G02X164196000Y-130141000I683042J-1535426D01*
G01*
X165047426Y-130992958D02*
G75*
G02X165047000Y-132360000I-1535426J-683042D01*
G01*
X164195318Y-133210756D02*
G75*
G02X163512000Y-133356000I-683318J1534756D01*
G01*
X172183820Y-101692325D02*
X174206145Y-99670000D01*
X170826175Y-100334680D02*
X172183820Y-101692325D01*
X172848500Y-98312355D02*
X170826175Y-100334680D01*
X170876000Y-105582733D02*
X170876000Y-105925267D01*
X171896000Y-105582733D02*
X171896000Y-105925267D01*
X161355000Y-105939267D02*
X161355000Y-105596733D01*
X160335000Y-105939267D02*
X160335000Y-105596733D01*
X158114237Y-100606432D02*
X157262790Y-101457879D01*
X160037568Y-102529763D02*
X159186121Y-103381210D01*
X161078053Y-100435802D02*
X161320262Y-100678011D01*
X161799302Y-99714553D02*
X162041511Y-99956762D01*
X171228238Y-90200511D02*
X171470447Y-89958302D01*
X170506989Y-89479262D02*
X170749198Y-89237053D01*
X142196250Y-121560750D02*
X142196250Y-122348250D01*
X141802500Y-121954500D02*
X142590000Y-121954500D01*
X142830000Y-126147563D02*
X143894437Y-127212000D01*
X142830000Y-121456437D02*
X143894437Y-120392000D01*
X142830000Y-121456437D02*
X142830000Y-122742000D01*
X142830000Y-126147563D02*
X142830000Y-124862000D01*
X143894437Y-127212000D02*
X149650000Y-127212000D01*
X143894437Y-120392000D02*
X149650000Y-120392000D01*
X149650000Y-120392000D02*
X149650000Y-122742000D01*
X149650000Y-127212000D02*
X149650000Y-124862000D01*
X189747750Y-72195250D02*
X189747750Y-71407750D01*
X190141500Y-71801500D02*
X189354000Y-71801500D01*
X189114000Y-67608437D02*
X188049563Y-66544000D01*
X189114000Y-72299563D02*
X188049563Y-73364000D01*
X189114000Y-72299563D02*
X189114000Y-71014000D01*
X189114000Y-67608437D02*
X189114000Y-68894000D01*
X188049563Y-66544000D02*
X182294000Y-66544000D01*
X188049563Y-73364000D02*
X182294000Y-73364000D01*
X182294000Y-73364000D02*
X182294000Y-71014000D01*
X182294000Y-66544000D02*
X182294000Y-68894000D01*
X141688250Y-85492750D02*
X141688250Y-86280250D01*
X141294500Y-85886500D02*
X142082000Y-85886500D01*
X142322000Y-90079563D02*
X143386437Y-91144000D01*
X142322000Y-85388437D02*
X143386437Y-84324000D01*
X142322000Y-85388437D02*
X142322000Y-86674000D01*
X142322000Y-90079563D02*
X142322000Y-88794000D01*
X143386437Y-91144000D02*
X149142000Y-91144000D01*
X143386437Y-84324000D02*
X149142000Y-84324000D01*
X149142000Y-84324000D02*
X149142000Y-86674000D01*
X149142000Y-91144000D02*
X149142000Y-88794000D01*
X153417302Y-101851947D02*
X153659511Y-101609738D01*
X152696053Y-101130698D02*
X152938262Y-100888489D01*
X157792133Y-76941000D02*
X158134667Y-76941000D01*
X157792133Y-75921000D02*
X158134667Y-75921000D01*
X147636565Y-95180870D02*
X148488012Y-94329423D01*
X146349630Y-93893935D02*
X147201077Y-93042488D01*
X157920436Y-84859400D02*
X159124564Y-84859400D01*
X157920436Y-83039400D02*
X159124564Y-83039400D01*
X153990000Y-104622000D02*
X141160000Y-104622000D01*
X153990000Y-125202000D02*
X153990000Y-104622000D01*
X138490000Y-125202000D02*
X153990000Y-125202000D01*
X138490000Y-107292000D02*
X138490000Y-125202000D01*
X141160000Y-107292000D02*
X138490000Y-107292000D01*
X141160000Y-104622000D02*
X141160000Y-107292000D01*
X138490000Y-104622000D02*
X138490000Y-106022000D01*
X139890000Y-104622000D02*
X138490000Y-104622000D01*
X141160000Y-107292000D02*
X141160000Y-125202000D01*
X151320000Y-104622000D02*
X151320000Y-125202000D01*
X190034750Y-108136250D02*
X190034750Y-107348750D01*
X190428500Y-107742500D02*
X189641000Y-107742500D01*
X189401000Y-103549437D02*
X188336563Y-102485000D01*
X189401000Y-108240563D02*
X188336563Y-109305000D01*
X189401000Y-108240563D02*
X189401000Y-106955000D01*
X189401000Y-103549437D02*
X189401000Y-104835000D01*
X188336563Y-102485000D02*
X182581000Y-102485000D01*
X188336563Y-109305000D02*
X182581000Y-109305000D01*
X182581000Y-109305000D02*
X182581000Y-106955000D01*
X182581000Y-102485000D02*
X182581000Y-104835000D01*
X131766000Y-73704000D02*
X133096000Y-73704000D01*
X131766000Y-75034000D02*
X131766000Y-73704000D01*
X131766000Y-76304000D02*
X134426000Y-76304000D01*
X134426000Y-76304000D02*
X134426000Y-83984000D01*
X131766000Y-76304000D02*
X131766000Y-83984000D01*
X131766000Y-83984000D02*
X134426000Y-83984000D01*
X174192000Y-113797000D02*
X174192000Y-116337000D01*
X174192000Y-113797000D02*
X171652000Y-113797000D01*
X173942000Y-114047000D02*
X173942000Y-123397000D01*
X158162000Y-114047000D02*
X173942000Y-114047000D01*
X158162000Y-123397000D02*
X158162000Y-114047000D01*
X173942000Y-123397000D02*
X158162000Y-123397000D01*
X177860000Y-89134000D02*
X190690000Y-89134000D01*
X177860000Y-68554000D02*
X177860000Y-89134000D01*
X193360000Y-68554000D02*
X177860000Y-68554000D01*
X193360000Y-86464000D02*
X193360000Y-68554000D01*
X190690000Y-86464000D02*
X193360000Y-86464000D01*
X190690000Y-89134000D02*
X190690000Y-86464000D01*
X193360000Y-89134000D02*
X193360000Y-87734000D01*
X191960000Y-89134000D02*
X193360000Y-89134000D01*
X190690000Y-86464000D02*
X190690000Y-68554000D01*
X180530000Y-89134000D02*
X180530000Y-68554000D01*
X178368000Y-125202000D02*
X191198000Y-125202000D01*
X178368000Y-104622000D02*
X178368000Y-125202000D01*
X193868000Y-104622000D02*
X178368000Y-104622000D01*
X193868000Y-122532000D02*
X193868000Y-104622000D01*
X191198000Y-122532000D02*
X193868000Y-122532000D01*
X191198000Y-125202000D02*
X191198000Y-122532000D01*
X193868000Y-125202000D02*
X193868000Y-123802000D01*
X192468000Y-125202000D02*
X193868000Y-125202000D01*
X191198000Y-122532000D02*
X191198000Y-104622000D01*
X181038000Y-125202000D02*
X181038000Y-104622000D01*
X153482000Y-68554000D02*
X140652000Y-68554000D01*
X153482000Y-89134000D02*
X153482000Y-68554000D01*
X137982000Y-89134000D02*
X153482000Y-89134000D01*
X137982000Y-71224000D02*
X137982000Y-89134000D01*
X140652000Y-71224000D02*
X137982000Y-71224000D01*
X140652000Y-68554000D02*
X140652000Y-71224000D01*
X137982000Y-68554000D02*
X137982000Y-69954000D01*
X139382000Y-68554000D02*
X137982000Y-68554000D01*
X140652000Y-71224000D02*
X140652000Y-89134000D01*
X150812000Y-68554000D02*
X150812000Y-89134000D01*
D13*
X174863166Y-69810380D02*
X174863166Y-70524666D01*
X174815547Y-70667523D01*
X174720309Y-70762761D01*
X174577452Y-70810380D01*
X174482214Y-70810380D01*
X175244119Y-69810380D02*
X175910785Y-69810380D01*
X175482214Y-70810380D01*
X154328880Y-80644904D02*
X155138404Y-80644904D01*
X155233642Y-80597285D01*
X155281261Y-80549666D01*
X155328880Y-80454428D01*
X155328880Y-80263952D01*
X155281261Y-80168714D01*
X155233642Y-80121095D01*
X155138404Y-80073476D01*
X154328880Y-80073476D01*
X155328880Y-79073476D02*
X155328880Y-79644904D01*
X155328880Y-79359190D02*
X154328880Y-79359190D01*
X154471738Y-79454428D01*
X154566976Y-79549666D01*
X154614595Y-79644904D01*
X162655333Y-87574380D02*
X162322000Y-87098190D01*
X162083904Y-87574380D02*
X162083904Y-86574380D01*
X162464857Y-86574380D01*
X162560095Y-86622000D01*
X162607714Y-86669619D01*
X162655333Y-86764857D01*
X162655333Y-86907714D01*
X162607714Y-87002952D01*
X162560095Y-87050571D01*
X162464857Y-87098190D01*
X162083904Y-87098190D01*
X162988666Y-86574380D02*
X163655333Y-87574380D01*
X163655333Y-86574380D02*
X162988666Y-87574380D01*
X164036285Y-87574380D02*
X164036285Y-86574380D01*
X164274380Y-86574380D01*
X164417238Y-86622000D01*
X164512476Y-86717238D01*
X164560095Y-86812476D01*
X164607714Y-87002952D01*
X164607714Y-87145809D01*
X164560095Y-87336285D01*
X164512476Y-87431523D01*
X164417238Y-87526761D01*
X164274380Y-87574380D01*
X164036285Y-87574380D01*
X165354095Y-101560380D02*
X165354095Y-102369904D01*
X165401714Y-102465142D01*
X165449333Y-102512761D01*
X165544571Y-102560380D01*
X165735047Y-102560380D01*
X165830285Y-102512761D01*
X165877904Y-102465142D01*
X165925523Y-102369904D01*
X165925523Y-101560380D01*
X166306476Y-101560380D02*
X166925523Y-101560380D01*
X166592190Y-101941333D01*
X166735047Y-101941333D01*
X166830285Y-101988952D01*
X166877904Y-102036571D01*
X166925523Y-102131809D01*
X166925523Y-102369904D01*
X166877904Y-102465142D01*
X166830285Y-102512761D01*
X166735047Y-102560380D01*
X166449333Y-102560380D01*
X166354095Y-102512761D01*
X166306476Y-102465142D01*
X143891095Y-133757000D02*
X143795857Y-133709380D01*
X143653000Y-133709380D01*
X143510142Y-133757000D01*
X143414904Y-133852238D01*
X143367285Y-133947476D01*
X143319666Y-134137952D01*
X143319666Y-134280809D01*
X143367285Y-134471285D01*
X143414904Y-134566523D01*
X143510142Y-134661761D01*
X143653000Y-134709380D01*
X143748238Y-134709380D01*
X143891095Y-134661761D01*
X143938714Y-134614142D01*
X143938714Y-134280809D01*
X143748238Y-134280809D01*
X144367285Y-134709380D02*
X144367285Y-133709380D01*
X144938714Y-134709380D01*
X144938714Y-133709380D01*
X145414904Y-134709380D02*
X145414904Y-133709380D01*
X145653000Y-133709380D01*
X145795857Y-133757000D01*
X145891095Y-133852238D01*
X145938714Y-133947476D01*
X145986333Y-134137952D01*
X145986333Y-134280809D01*
X145938714Y-134471285D01*
X145891095Y-134566523D01*
X145795857Y-134661761D01*
X145653000Y-134709380D01*
X145414904Y-134709380D01*
X153678095Y-86574380D02*
X154249523Y-86574380D01*
X153963809Y-87574380D02*
X153963809Y-86574380D01*
X154487619Y-86574380D02*
X155154285Y-87574380D01*
X155154285Y-86574380D02*
X154487619Y-87574380D01*
X155535238Y-87574380D02*
X155535238Y-86574380D01*
X155773333Y-86574380D01*
X155916190Y-86622000D01*
X156011428Y-86717238D01*
X156059047Y-86812476D01*
X156106666Y-87002952D01*
X156106666Y-87145809D01*
X156059047Y-87336285D01*
X156011428Y-87431523D01*
X155916190Y-87526761D01*
X155773333Y-87574380D01*
X155535238Y-87574380D01*
X156003285Y-110561428D02*
X156765190Y-110561428D01*
X156384238Y-110942380D02*
X156384238Y-110180476D01*
X157717571Y-109942380D02*
X157241380Y-109942380D01*
X157193761Y-110418571D01*
X157241380Y-110370952D01*
X157336619Y-110323333D01*
X157574714Y-110323333D01*
X157669952Y-110370952D01*
X157717571Y-110418571D01*
X157765190Y-110513809D01*
X157765190Y-110751904D01*
X157717571Y-110847142D01*
X157669952Y-110894761D01*
X157574714Y-110942380D01*
X157336619Y-110942380D01*
X157241380Y-110894761D01*
X157193761Y-110847142D01*
X158050904Y-109942380D02*
X158384238Y-110942380D01*
X158717571Y-109942380D01*
X154757428Y-75787000D02*
X154757428Y-75025095D01*
X155138380Y-75406047D02*
X154376476Y-75406047D01*
X154138380Y-74644142D02*
X154138380Y-74025095D01*
X154519333Y-74358428D01*
X154519333Y-74215571D01*
X154566952Y-74120333D01*
X154614571Y-74072714D01*
X154709809Y-74025095D01*
X154947904Y-74025095D01*
X155043142Y-74072714D01*
X155090761Y-74120333D01*
X155138380Y-74215571D01*
X155138380Y-74501285D01*
X155090761Y-74596523D01*
X155043142Y-74644142D01*
X155043142Y-73596523D02*
X155090761Y-73548904D01*
X155138380Y-73596523D01*
X155090761Y-73644142D01*
X155043142Y-73596523D01*
X155138380Y-73596523D01*
X154138380Y-73215571D02*
X154138380Y-72596523D01*
X154519333Y-72929857D01*
X154519333Y-72787000D01*
X154566952Y-72691761D01*
X154614571Y-72644142D01*
X154709809Y-72596523D01*
X154947904Y-72596523D01*
X155043142Y-72644142D01*
X155090761Y-72691761D01*
X155138380Y-72787000D01*
X155138380Y-73072714D01*
X155090761Y-73167952D01*
X155043142Y-73215571D01*
X154138380Y-72310809D02*
X155138380Y-71977476D01*
X154138380Y-71644142D01*
X165639809Y-109196190D02*
X165639809Y-109672380D01*
X165306476Y-108672380D02*
X165639809Y-109196190D01*
X165973142Y-108672380D01*
X166830285Y-109672380D02*
X166258857Y-109672380D01*
X166544571Y-109672380D02*
X166544571Y-108672380D01*
X166449333Y-108815238D01*
X166354095Y-108910476D01*
X166258857Y-108958095D01*
X146648026Y-100989522D02*
X147220446Y-101561942D01*
X147321461Y-101595614D01*
X147388805Y-101595614D01*
X147489820Y-101561942D01*
X147624507Y-101427255D01*
X147658179Y-101326240D01*
X147658179Y-101258896D01*
X147624507Y-101157881D01*
X147052087Y-100585461D01*
X147422477Y-100349759D02*
X147422477Y-100282416D01*
X147456148Y-100181400D01*
X147624507Y-100013042D01*
X147725522Y-99979370D01*
X147792866Y-99979370D01*
X147893881Y-100013042D01*
X147961225Y-100080385D01*
X148028568Y-100215072D01*
X148028568Y-101023194D01*
X148466301Y-100585461D01*
X165504333Y-73802380D02*
X165171000Y-73326190D01*
X164932904Y-73802380D02*
X164932904Y-72802380D01*
X165313857Y-72802380D01*
X165409095Y-72850000D01*
X165456714Y-72897619D01*
X165504333Y-72992857D01*
X165504333Y-73135714D01*
X165456714Y-73230952D01*
X165409095Y-73278571D01*
X165313857Y-73326190D01*
X164932904Y-73326190D01*
X166361476Y-72802380D02*
X166171000Y-72802380D01*
X166075761Y-72850000D01*
X166028142Y-72897619D01*
X165932904Y-73040476D01*
X165885285Y-73230952D01*
X165885285Y-73611904D01*
X165932904Y-73707142D01*
X165980523Y-73754761D01*
X166075761Y-73802380D01*
X166266238Y-73802380D01*
X166361476Y-73754761D01*
X166409095Y-73707142D01*
X166456714Y-73611904D01*
X166456714Y-73373809D01*
X166409095Y-73278571D01*
X166361476Y-73230952D01*
X166266238Y-73183333D01*
X166075761Y-73183333D01*
X165980523Y-73230952D01*
X165932904Y-73278571D01*
X165885285Y-73373809D01*
X172475333Y-73548380D02*
X172142000Y-73072190D01*
X171903904Y-73548380D02*
X171903904Y-72548380D01*
X172284857Y-72548380D01*
X172380095Y-72596000D01*
X172427714Y-72643619D01*
X172475333Y-72738857D01*
X172475333Y-72881714D01*
X172427714Y-72976952D01*
X172380095Y-73024571D01*
X172284857Y-73072190D01*
X171903904Y-73072190D01*
X173380095Y-72548380D02*
X172903904Y-72548380D01*
X172856285Y-73024571D01*
X172903904Y-72976952D01*
X172999142Y-72929333D01*
X173237238Y-72929333D01*
X173332476Y-72976952D01*
X173380095Y-73024571D01*
X173427714Y-73119809D01*
X173427714Y-73357904D01*
X173380095Y-73453142D01*
X173332476Y-73500761D01*
X173237238Y-73548380D01*
X172999142Y-73548380D01*
X172903904Y-73500761D01*
X172856285Y-73453142D01*
X169274333Y-80334880D02*
X168941000Y-79858690D01*
X168702904Y-80334880D02*
X168702904Y-79334880D01*
X169083857Y-79334880D01*
X169179095Y-79382500D01*
X169226714Y-79430119D01*
X169274333Y-79525357D01*
X169274333Y-79668214D01*
X169226714Y-79763452D01*
X169179095Y-79811071D01*
X169083857Y-79858690D01*
X168702904Y-79858690D01*
X170131476Y-79668214D02*
X170131476Y-80334880D01*
X169893380Y-79287261D02*
X169655285Y-80001547D01*
X170274333Y-80001547D01*
X176188333Y-80271380D02*
X175855000Y-79795190D01*
X175616904Y-80271380D02*
X175616904Y-79271380D01*
X175997857Y-79271380D01*
X176093095Y-79319000D01*
X176140714Y-79366619D01*
X176188333Y-79461857D01*
X176188333Y-79604714D01*
X176140714Y-79699952D01*
X176093095Y-79747571D01*
X175997857Y-79795190D01*
X175616904Y-79795190D01*
X176521666Y-79271380D02*
X177140714Y-79271380D01*
X176807380Y-79652333D01*
X176950238Y-79652333D01*
X177045476Y-79699952D01*
X177093095Y-79747571D01*
X177140714Y-79842809D01*
X177140714Y-80080904D01*
X177093095Y-80176142D01*
X177045476Y-80223761D01*
X176950238Y-80271380D01*
X176664523Y-80271380D01*
X176569285Y-80223761D01*
X176521666Y-80176142D01*
X173791693Y-92929395D02*
X173219273Y-92828380D01*
X173387632Y-93333456D02*
X172680525Y-92626350D01*
X172949899Y-92356975D01*
X173050914Y-92323304D01*
X173118258Y-92323304D01*
X173219273Y-92356975D01*
X173320288Y-92457991D01*
X173353960Y-92559006D01*
X173353960Y-92626350D01*
X173320288Y-92727365D01*
X173050914Y-92996739D01*
X173421304Y-92020258D02*
X173421304Y-91952914D01*
X173454975Y-91851899D01*
X173623334Y-91683540D01*
X173724350Y-91649869D01*
X173791693Y-91649869D01*
X173892708Y-91683540D01*
X173960052Y-91750884D01*
X174027395Y-91885571D01*
X174027395Y-92693693D01*
X174465128Y-92255960D01*
X159460030Y-92131732D02*
X158887610Y-92030717D01*
X159055969Y-92535793D02*
X158348862Y-91828687D01*
X158618236Y-91559312D01*
X158719251Y-91525641D01*
X158786595Y-91525641D01*
X158887610Y-91559312D01*
X158988625Y-91660328D01*
X159022297Y-91761343D01*
X159022297Y-91828687D01*
X158988625Y-91929702D01*
X158719251Y-92199076D01*
X160133465Y-91458297D02*
X159729404Y-91862358D01*
X159931435Y-91660328D02*
X159224328Y-90953221D01*
X159258000Y-91121580D01*
X159258000Y-91256267D01*
X159224328Y-91357282D01*
X168775619Y-77478238D02*
X168728000Y-77573476D01*
X168632761Y-77668714D01*
X168489904Y-77811571D01*
X168442285Y-77906809D01*
X168442285Y-78002047D01*
X168680380Y-77954428D02*
X168632761Y-78049666D01*
X168537523Y-78144904D01*
X168347047Y-78192523D01*
X168013714Y-78192523D01*
X167823238Y-78144904D01*
X167728000Y-78049666D01*
X167680380Y-77954428D01*
X167680380Y-77763952D01*
X167728000Y-77668714D01*
X167823238Y-77573476D01*
X168013714Y-77525857D01*
X168347047Y-77525857D01*
X168537523Y-77573476D01*
X168632761Y-77668714D01*
X168680380Y-77763952D01*
X168680380Y-77954428D01*
X167775619Y-77144904D02*
X167728000Y-77097285D01*
X167680380Y-77002047D01*
X167680380Y-76763952D01*
X167728000Y-76668714D01*
X167775619Y-76621095D01*
X167870857Y-76573476D01*
X167966095Y-76573476D01*
X168108952Y-76621095D01*
X168680380Y-77192523D01*
X168680380Y-76573476D01*
X175703619Y-77415238D02*
X175656000Y-77510476D01*
X175560761Y-77605714D01*
X175417904Y-77748571D01*
X175370285Y-77843809D01*
X175370285Y-77939047D01*
X175608380Y-77891428D02*
X175560761Y-77986666D01*
X175465523Y-78081904D01*
X175275047Y-78129523D01*
X174941714Y-78129523D01*
X174751238Y-78081904D01*
X174656000Y-77986666D01*
X174608380Y-77891428D01*
X174608380Y-77700952D01*
X174656000Y-77605714D01*
X174751238Y-77510476D01*
X174941714Y-77462857D01*
X175275047Y-77462857D01*
X175465523Y-77510476D01*
X175560761Y-77605714D01*
X175608380Y-77700952D01*
X175608380Y-77891428D01*
X175608380Y-76510476D02*
X175608380Y-77081904D01*
X175608380Y-76796190D02*
X174608380Y-76796190D01*
X174751238Y-76891428D01*
X174846476Y-76986666D01*
X174894095Y-77081904D01*
X132889666Y-120610380D02*
X132889666Y-121324666D01*
X132842047Y-121467523D01*
X132746809Y-121562761D01*
X132603952Y-121610380D01*
X132508714Y-121610380D01*
X133794428Y-120610380D02*
X133603952Y-120610380D01*
X133508714Y-120658000D01*
X133461095Y-120705619D01*
X133365857Y-120848476D01*
X133318238Y-121038952D01*
X133318238Y-121419904D01*
X133365857Y-121515142D01*
X133413476Y-121562761D01*
X133508714Y-121610380D01*
X133699190Y-121610380D01*
X133794428Y-121562761D01*
X133842047Y-121515142D01*
X133889666Y-121419904D01*
X133889666Y-121181809D01*
X133842047Y-121086571D01*
X133794428Y-121038952D01*
X133699190Y-120991333D01*
X133508714Y-120991333D01*
X133413476Y-121038952D01*
X133365857Y-121086571D01*
X133318238Y-121181809D01*
X198421666Y-84796380D02*
X198421666Y-85510666D01*
X198374047Y-85653523D01*
X198278809Y-85748761D01*
X198135952Y-85796380D01*
X198040714Y-85796380D01*
X199374047Y-84796380D02*
X198897857Y-84796380D01*
X198850238Y-85272571D01*
X198897857Y-85224952D01*
X198993095Y-85177333D01*
X199231190Y-85177333D01*
X199326428Y-85224952D01*
X199374047Y-85272571D01*
X199421666Y-85367809D01*
X199421666Y-85605904D01*
X199374047Y-85701142D01*
X199326428Y-85748761D01*
X199231190Y-85796380D01*
X198993095Y-85796380D01*
X198897857Y-85748761D01*
X198850238Y-85701142D01*
X198675666Y-120504380D02*
X198675666Y-121218666D01*
X198628047Y-121361523D01*
X198532809Y-121456761D01*
X198389952Y-121504380D01*
X198294714Y-121504380D01*
X199580428Y-120837714D02*
X199580428Y-121504380D01*
X199342333Y-120456761D02*
X199104238Y-121171047D01*
X199723285Y-121171047D01*
X159178666Y-131151380D02*
X159178666Y-131865666D01*
X159131047Y-132008523D01*
X159035809Y-132103761D01*
X158892952Y-132151380D01*
X158797714Y-132151380D01*
X160178666Y-132151380D02*
X159607238Y-132151380D01*
X159892952Y-132151380D02*
X159892952Y-131151380D01*
X159797714Y-131294238D01*
X159702476Y-131389476D01*
X159607238Y-131437095D01*
X171451459Y-99373351D02*
X170744352Y-98666245D01*
X170912711Y-98497886D01*
X171047398Y-98430542D01*
X171182085Y-98430542D01*
X171283100Y-98464214D01*
X171451459Y-98565229D01*
X171552474Y-98666245D01*
X171653490Y-98834603D01*
X171687161Y-98935619D01*
X171687161Y-99070306D01*
X171619818Y-99204993D01*
X171451459Y-99373351D01*
X172528955Y-98295855D02*
X172124894Y-98699916D01*
X172326925Y-98497886D02*
X171619818Y-97790779D01*
X171653490Y-97959138D01*
X171653490Y-98093825D01*
X171619818Y-98194840D01*
X171807142Y-110370857D02*
X171854761Y-110418476D01*
X171902380Y-110561333D01*
X171902380Y-110656571D01*
X171854761Y-110799428D01*
X171759523Y-110894666D01*
X171664285Y-110942285D01*
X171473809Y-110989904D01*
X171330952Y-110989904D01*
X171140476Y-110942285D01*
X171045238Y-110894666D01*
X170950000Y-110799428D01*
X170902380Y-110656571D01*
X170902380Y-110561333D01*
X170950000Y-110418476D01*
X170997619Y-110370857D01*
X171902380Y-109418476D02*
X171902380Y-109989904D01*
X171902380Y-109704190D02*
X170902380Y-109704190D01*
X171045238Y-109799428D01*
X171140476Y-109894666D01*
X171188095Y-109989904D01*
X170902380Y-109085142D02*
X170902380Y-108466095D01*
X171283333Y-108799428D01*
X171283333Y-108656571D01*
X171330952Y-108561333D01*
X171378571Y-108513714D01*
X171473809Y-108466095D01*
X171711904Y-108466095D01*
X171807142Y-108513714D01*
X171854761Y-108561333D01*
X171902380Y-108656571D01*
X171902380Y-108942285D01*
X171854761Y-109037523D01*
X171807142Y-109085142D01*
X161139142Y-109862857D02*
X161186761Y-109910476D01*
X161234380Y-110053333D01*
X161234380Y-110148571D01*
X161186761Y-110291428D01*
X161091523Y-110386666D01*
X160996285Y-110434285D01*
X160805809Y-110481904D01*
X160662952Y-110481904D01*
X160472476Y-110434285D01*
X160377238Y-110386666D01*
X160282000Y-110291428D01*
X160234380Y-110148571D01*
X160234380Y-110053333D01*
X160282000Y-109910476D01*
X160329619Y-109862857D01*
X161234380Y-108910476D02*
X161234380Y-109481904D01*
X161234380Y-109196190D02*
X160234380Y-109196190D01*
X160377238Y-109291428D01*
X160472476Y-109386666D01*
X160520095Y-109481904D01*
X160329619Y-108529523D02*
X160282000Y-108481904D01*
X160234380Y-108386666D01*
X160234380Y-108148571D01*
X160282000Y-108053333D01*
X160329619Y-108005714D01*
X160424857Y-107958095D01*
X160520095Y-107958095D01*
X160662952Y-108005714D01*
X161234380Y-108577142D01*
X161234380Y-107958095D01*
X155499970Y-105609106D02*
X155499970Y-105676450D01*
X155432626Y-105811137D01*
X155365283Y-105878480D01*
X155230596Y-105945824D01*
X155095909Y-105945824D01*
X154994894Y-105912152D01*
X154826535Y-105811137D01*
X154725520Y-105710122D01*
X154624504Y-105541763D01*
X154590833Y-105440748D01*
X154590833Y-105306061D01*
X154658176Y-105171374D01*
X154725520Y-105104030D01*
X154860207Y-105036687D01*
X154927550Y-105036687D01*
X156240749Y-105003015D02*
X155836688Y-105407076D01*
X156038718Y-105205045D02*
X155331611Y-104497938D01*
X155365283Y-104666297D01*
X155365283Y-104800984D01*
X155331611Y-104902000D01*
X156914184Y-104329580D02*
X156510123Y-104733641D01*
X156712153Y-104531610D02*
X156005046Y-103824503D01*
X156038718Y-103992862D01*
X156038718Y-104127549D01*
X156005046Y-104228564D01*
X158550893Y-97587969D02*
X158483549Y-97587969D01*
X158348862Y-97520625D01*
X158281519Y-97453282D01*
X158214175Y-97318595D01*
X158214175Y-97183908D01*
X158247847Y-97082893D01*
X158348862Y-96914534D01*
X158449877Y-96813519D01*
X158618236Y-96712503D01*
X158719251Y-96678832D01*
X158853938Y-96678832D01*
X158988625Y-96746175D01*
X159055969Y-96813519D01*
X159123312Y-96948206D01*
X159123312Y-97015549D01*
X159156984Y-98328748D02*
X158752923Y-97924687D01*
X158954954Y-98126717D02*
X159662061Y-97419610D01*
X159493702Y-97453282D01*
X159359015Y-97453282D01*
X159258000Y-97419610D01*
X160301824Y-98059374D02*
X160369167Y-98126717D01*
X160402839Y-98227732D01*
X160402839Y-98295076D01*
X160369167Y-98396091D01*
X160268152Y-98564450D01*
X160099793Y-98732809D01*
X159931435Y-98833824D01*
X159830419Y-98867496D01*
X159763076Y-98867496D01*
X159662061Y-98833824D01*
X159594717Y-98766480D01*
X159561045Y-98665465D01*
X159561045Y-98598122D01*
X159594717Y-98497106D01*
X159695732Y-98328748D01*
X159864091Y-98160389D01*
X160032450Y-98059374D01*
X160133465Y-98025702D01*
X160200809Y-98025702D01*
X160301824Y-98059374D01*
X170112242Y-89078008D02*
X170112242Y-89145351D01*
X170044898Y-89280038D01*
X169977555Y-89347382D01*
X169842867Y-89414725D01*
X169708180Y-89414725D01*
X169607165Y-89381054D01*
X169438806Y-89280038D01*
X169337791Y-89179023D01*
X169236776Y-89010664D01*
X169203104Y-88909649D01*
X169203104Y-88774962D01*
X169270448Y-88640275D01*
X169337791Y-88572931D01*
X169472478Y-88505588D01*
X169539822Y-88505588D01*
X170516303Y-88808634D02*
X170650990Y-88673947D01*
X170684661Y-88572931D01*
X170684661Y-88505588D01*
X170650990Y-88337229D01*
X170549974Y-88168870D01*
X170280600Y-87899496D01*
X170179585Y-87865825D01*
X170112242Y-87865825D01*
X170011226Y-87899496D01*
X169876539Y-88034183D01*
X169842867Y-88135199D01*
X169842867Y-88202542D01*
X169876539Y-88303557D01*
X170044898Y-88471916D01*
X170145913Y-88505588D01*
X170213257Y-88505588D01*
X170314272Y-88471916D01*
X170448959Y-88337229D01*
X170482631Y-88236214D01*
X170482631Y-88168870D01*
X170448959Y-88067855D01*
X146073333Y-128881142D02*
X146025714Y-128928761D01*
X145882857Y-128976380D01*
X145787619Y-128976380D01*
X145644761Y-128928761D01*
X145549523Y-128833523D01*
X145501904Y-128738285D01*
X145454285Y-128547809D01*
X145454285Y-128404952D01*
X145501904Y-128214476D01*
X145549523Y-128119238D01*
X145644761Y-128024000D01*
X145787619Y-127976380D01*
X145882857Y-127976380D01*
X146025714Y-128024000D01*
X146073333Y-128071619D01*
X146644761Y-128404952D02*
X146549523Y-128357333D01*
X146501904Y-128309714D01*
X146454285Y-128214476D01*
X146454285Y-128166857D01*
X146501904Y-128071619D01*
X146549523Y-128024000D01*
X146644761Y-127976380D01*
X146835238Y-127976380D01*
X146930476Y-128024000D01*
X146978095Y-128071619D01*
X147025714Y-128166857D01*
X147025714Y-128214476D01*
X146978095Y-128309714D01*
X146930476Y-128357333D01*
X146835238Y-128404952D01*
X146644761Y-128404952D01*
X146549523Y-128452571D01*
X146501904Y-128500190D01*
X146454285Y-128595428D01*
X146454285Y-128785904D01*
X146501904Y-128881142D01*
X146549523Y-128928761D01*
X146644761Y-128976380D01*
X146835238Y-128976380D01*
X146930476Y-128928761D01*
X146978095Y-128881142D01*
X147025714Y-128785904D01*
X147025714Y-128595428D01*
X146978095Y-128500190D01*
X146930476Y-128452571D01*
X146835238Y-128404952D01*
X185537333Y-65889142D02*
X185489714Y-65936761D01*
X185346857Y-65984380D01*
X185251619Y-65984380D01*
X185108761Y-65936761D01*
X185013523Y-65841523D01*
X184965904Y-65746285D01*
X184918285Y-65555809D01*
X184918285Y-65412952D01*
X184965904Y-65222476D01*
X185013523Y-65127238D01*
X185108761Y-65032000D01*
X185251619Y-64984380D01*
X185346857Y-64984380D01*
X185489714Y-65032000D01*
X185537333Y-65079619D01*
X185870666Y-64984380D02*
X186537333Y-64984380D01*
X186108761Y-65984380D01*
X145565333Y-92559142D02*
X145517714Y-92606761D01*
X145374857Y-92654380D01*
X145279619Y-92654380D01*
X145136761Y-92606761D01*
X145041523Y-92511523D01*
X144993904Y-92416285D01*
X144946285Y-92225809D01*
X144946285Y-92082952D01*
X144993904Y-91892476D01*
X145041523Y-91797238D01*
X145136761Y-91702000D01*
X145279619Y-91654380D01*
X145374857Y-91654380D01*
X145517714Y-91702000D01*
X145565333Y-91749619D01*
X146470095Y-91654380D02*
X145993904Y-91654380D01*
X145946285Y-92130571D01*
X145993904Y-92082952D01*
X146089142Y-92035333D01*
X146327238Y-92035333D01*
X146422476Y-92082952D01*
X146470095Y-92130571D01*
X146517714Y-92225809D01*
X146517714Y-92463904D01*
X146470095Y-92559142D01*
X146422476Y-92606761D01*
X146327238Y-92654380D01*
X146089142Y-92654380D01*
X145993904Y-92606761D01*
X145946285Y-92559142D01*
X151264687Y-103748389D02*
X151264687Y-103815732D01*
X151197343Y-103950419D01*
X151130000Y-104017763D01*
X150995312Y-104085106D01*
X150860625Y-104085106D01*
X150759610Y-104051435D01*
X150591251Y-103950419D01*
X150490236Y-103849404D01*
X150389221Y-103681045D01*
X150355549Y-103580030D01*
X150355549Y-103445343D01*
X150422893Y-103310656D01*
X150490236Y-103243312D01*
X150624923Y-103175969D01*
X150692267Y-103175969D01*
X151466717Y-102738236D02*
X151938122Y-103209641D01*
X151028984Y-102637221D02*
X151365702Y-103310656D01*
X151803435Y-102872923D01*
X160615333Y-76811142D02*
X160567714Y-76858761D01*
X160424857Y-76906380D01*
X160329619Y-76906380D01*
X160186761Y-76858761D01*
X160091523Y-76763523D01*
X160043904Y-76668285D01*
X159996285Y-76477809D01*
X159996285Y-76334952D01*
X160043904Y-76144476D01*
X160091523Y-76049238D01*
X160186761Y-75954000D01*
X160329619Y-75906380D01*
X160424857Y-75906380D01*
X160567714Y-75954000D01*
X160615333Y-76001619D01*
X160948666Y-75906380D02*
X161567714Y-75906380D01*
X161234380Y-76287333D01*
X161377238Y-76287333D01*
X161472476Y-76334952D01*
X161520095Y-76382571D01*
X161567714Y-76477809D01*
X161567714Y-76715904D01*
X161520095Y-76811142D01*
X161472476Y-76858761D01*
X161377238Y-76906380D01*
X161091523Y-76906380D01*
X160996285Y-76858761D01*
X160948666Y-76811142D01*
X144914687Y-97144389D02*
X144914687Y-97211732D01*
X144847343Y-97346419D01*
X144780000Y-97413763D01*
X144645312Y-97481106D01*
X144510625Y-97481106D01*
X144409610Y-97447435D01*
X144241251Y-97346419D01*
X144140236Y-97245404D01*
X144039221Y-97077045D01*
X144005549Y-96976030D01*
X144005549Y-96841343D01*
X144072893Y-96706656D01*
X144140236Y-96639312D01*
X144274923Y-96571969D01*
X144342267Y-96571969D01*
X144611641Y-96302595D02*
X144611641Y-96235251D01*
X144645312Y-96134236D01*
X144813671Y-95965877D01*
X144914687Y-95932206D01*
X144982030Y-95932206D01*
X145083045Y-95965877D01*
X145150389Y-96033221D01*
X145217732Y-96167908D01*
X145217732Y-96976030D01*
X145655465Y-96538297D01*
X161885333Y-84431142D02*
X161837714Y-84478761D01*
X161694857Y-84526380D01*
X161599619Y-84526380D01*
X161456761Y-84478761D01*
X161361523Y-84383523D01*
X161313904Y-84288285D01*
X161266285Y-84097809D01*
X161266285Y-83954952D01*
X161313904Y-83764476D01*
X161361523Y-83669238D01*
X161456761Y-83574000D01*
X161599619Y-83526380D01*
X161694857Y-83526380D01*
X161837714Y-83574000D01*
X161885333Y-83621619D01*
X162837714Y-84526380D02*
X162266285Y-84526380D01*
X162552000Y-84526380D02*
X162552000Y-83526380D01*
X162456761Y-83669238D01*
X162361523Y-83764476D01*
X162266285Y-83812095D01*
X145525714Y-103648666D02*
X146001904Y-103648666D01*
X145430476Y-103934380D02*
X145763809Y-102934380D01*
X146097142Y-103934380D01*
X146859047Y-103267714D02*
X146859047Y-103934380D01*
X146620952Y-102886761D02*
X146382857Y-103601047D01*
X147001904Y-103601047D01*
X185761333Y-101703142D02*
X185713714Y-101750761D01*
X185570857Y-101798380D01*
X185475619Y-101798380D01*
X185332761Y-101750761D01*
X185237523Y-101655523D01*
X185189904Y-101560285D01*
X185142285Y-101369809D01*
X185142285Y-101226952D01*
X185189904Y-101036476D01*
X185237523Y-100941238D01*
X185332761Y-100846000D01*
X185475619Y-100798380D01*
X185570857Y-100798380D01*
X185713714Y-100846000D01*
X185761333Y-100893619D01*
X186618476Y-100798380D02*
X186428000Y-100798380D01*
X186332761Y-100846000D01*
X186285142Y-100893619D01*
X186189904Y-101036476D01*
X186142285Y-101226952D01*
X186142285Y-101607904D01*
X186189904Y-101703142D01*
X186237523Y-101750761D01*
X186332761Y-101798380D01*
X186523238Y-101798380D01*
X186618476Y-101750761D01*
X186666095Y-101703142D01*
X186713714Y-101607904D01*
X186713714Y-101369809D01*
X186666095Y-101274571D01*
X186618476Y-101226952D01*
X186523238Y-101179333D01*
X186332761Y-101179333D01*
X186237523Y-101226952D01*
X186189904Y-101274571D01*
X186142285Y-101369809D01*
X132762666Y-84542380D02*
X132762666Y-85256666D01*
X132715047Y-85399523D01*
X132619809Y-85494761D01*
X132476952Y-85542380D01*
X132381714Y-85542380D01*
X133143619Y-84542380D02*
X133762666Y-84542380D01*
X133429333Y-84923333D01*
X133572190Y-84923333D01*
X133667428Y-84970952D01*
X133715047Y-85018571D01*
X133762666Y-85113809D01*
X133762666Y-85351904D01*
X133715047Y-85447142D01*
X133667428Y-85494761D01*
X133572190Y-85542380D01*
X133286476Y-85542380D01*
X133191238Y-85494761D01*
X133143619Y-85447142D01*
X174648380Y-119055333D02*
X175362666Y-119055333D01*
X175505523Y-119102952D01*
X175600761Y-119198190D01*
X175648380Y-119341047D01*
X175648380Y-119436285D01*
X174743619Y-118626761D02*
X174696000Y-118579142D01*
X174648380Y-118483904D01*
X174648380Y-118245809D01*
X174696000Y-118150571D01*
X174743619Y-118102952D01*
X174838857Y-118055333D01*
X174934095Y-118055333D01*
X175076952Y-118102952D01*
X175648380Y-118674380D01*
X175648380Y-118055333D01*
X184895714Y-90440666D02*
X185371904Y-90440666D01*
X184800476Y-90726380D02*
X185133809Y-89726380D01*
X185467142Y-90726380D01*
X185705238Y-89726380D02*
X186324285Y-89726380D01*
X185990952Y-90107333D01*
X186133809Y-90107333D01*
X186229047Y-90154952D01*
X186276666Y-90202571D01*
X186324285Y-90297809D01*
X186324285Y-90535904D01*
X186276666Y-90631142D01*
X186229047Y-90678761D01*
X186133809Y-90726380D01*
X185848095Y-90726380D01*
X185752857Y-90678761D01*
X185705238Y-90631142D01*
X185403714Y-126508666D02*
X185879904Y-126508666D01*
X185308476Y-126794380D02*
X185641809Y-125794380D01*
X185975142Y-126794380D01*
X186260857Y-125889619D02*
X186308476Y-125842000D01*
X186403714Y-125794380D01*
X186641809Y-125794380D01*
X186737047Y-125842000D01*
X186784666Y-125889619D01*
X186832285Y-125984857D01*
X186832285Y-126080095D01*
X186784666Y-126222952D01*
X186213238Y-126794380D01*
X186832285Y-126794380D01*
X145017714Y-67580666D02*
X145493904Y-67580666D01*
X144922476Y-67866380D02*
X145255809Y-66866380D01*
X145589142Y-67866380D01*
X146446285Y-67866380D02*
X145874857Y-67866380D01*
X146160571Y-67866380D02*
X146160571Y-66866380D01*
X146065333Y-67009238D01*
X145970095Y-67104476D01*
X145874857Y-67152095D01*
M02*
