G04 #@! TF.GenerationSoftware,KiCad,Pcbnew,5.1.4+dfsg1-1*
G04 #@! TF.CreationDate,2019-10-01T15:35:31+02:00*
G04 #@! TF.ProjectId,rover-pcb,726f7665-722d-4706-9362-2e6b69636164,1*
G04 #@! TF.SameCoordinates,Original*
G04 #@! TF.FileFunction,Copper,L2,Bot*
G04 #@! TF.FilePolarity,Positive*
%FSLAX46Y46*%
G04 Gerber Fmt 4.6, Leading zero omitted, Abs format (unit mm)*
G04 Created by KiCad (PCBNEW 5.1.4+dfsg1-1) date 2019-10-01 15:35:31*
%MOMM*%
%LPD*%
G04 APERTURE LIST*
%ADD10R,4.000000X2.000000*%
%ADD11O,1.700000X1.700000*%
%ADD12R,1.700000X1.700000*%
%ADD13C,2.000000*%
%ADD14C,2.600000*%
%ADD15R,2.600000X2.600000*%
%ADD16O,1.600000X1.600000*%
%ADD17R,1.600000X1.600000*%
%ADD18O,1.727200X1.727200*%
%ADD19R,1.727200X1.727200*%
%ADD20C,0.600000*%
%ADD21C,0.800000*%
%ADD22C,3.000000*%
%ADD23C,0.300000*%
%ADD24C,1.000000*%
%ADD25C,0.254000*%
G04 APERTURE END LIST*
D10*
X198120000Y-102013000D03*
X198120000Y-106013000D03*
X198247000Y-68104000D03*
X198247000Y-72104000D03*
X133858000Y-125698000D03*
X133858000Y-121698000D03*
X133858000Y-91789000D03*
X133858000Y-87789000D03*
D11*
X172339000Y-70358000D03*
X169799000Y-70358000D03*
X167259000Y-70358000D03*
X164719000Y-70358000D03*
X162179000Y-70358000D03*
D12*
X159639000Y-70358000D03*
D13*
X160083000Y-87607000D03*
X144653000Y-132207000D03*
X157035000Y-88877000D03*
X157289000Y-108181000D03*
X157035000Y-73891000D03*
D11*
X133223000Y-118722000D03*
X133223000Y-116182000D03*
X133223000Y-113642000D03*
D12*
X133223000Y-111102000D03*
D11*
X198755000Y-75034000D03*
X198755000Y-77574000D03*
X198755000Y-80114000D03*
D12*
X198755000Y-82654000D03*
D11*
X199009000Y-111102000D03*
X199009000Y-113642000D03*
X199009000Y-116182000D03*
D12*
X199009000Y-118722000D03*
D14*
X168592000Y-131676000D03*
D15*
X163512000Y-131676000D03*
D16*
X152590000Y-106022000D03*
X139890000Y-123802000D03*
X152590000Y-108562000D03*
X139890000Y-121262000D03*
X152590000Y-111102000D03*
X139890000Y-118722000D03*
X152590000Y-113642000D03*
X139890000Y-116182000D03*
X152590000Y-116182000D03*
X139890000Y-113642000D03*
X152590000Y-118722000D03*
X139890000Y-111102000D03*
X152590000Y-121262000D03*
X139890000Y-108562000D03*
X152590000Y-123802000D03*
D17*
X139890000Y-106022000D03*
D11*
X133096000Y-82654000D03*
X133096000Y-80114000D03*
X133096000Y-77574000D03*
D12*
X133096000Y-75034000D03*
D18*
X163512000Y-119992000D03*
X163512000Y-117452000D03*
X166052000Y-119992000D03*
X166052000Y-117452000D03*
X168592000Y-119992000D03*
D19*
X168592000Y-117452000D03*
D16*
X179260000Y-87734000D03*
X191960000Y-69954000D03*
X179260000Y-85194000D03*
X191960000Y-72494000D03*
X179260000Y-82654000D03*
X191960000Y-75034000D03*
X179260000Y-80114000D03*
X191960000Y-77574000D03*
X179260000Y-77574000D03*
X191960000Y-80114000D03*
X179260000Y-75034000D03*
X191960000Y-82654000D03*
X179260000Y-72494000D03*
X191960000Y-85194000D03*
X179260000Y-69954000D03*
D17*
X191960000Y-87734000D03*
D16*
X179768000Y-123802000D03*
X192468000Y-106022000D03*
X179768000Y-121262000D03*
X192468000Y-108562000D03*
X179768000Y-118722000D03*
X192468000Y-111102000D03*
X179768000Y-116182000D03*
X192468000Y-113642000D03*
X179768000Y-113642000D03*
X192468000Y-116182000D03*
X179768000Y-111102000D03*
X192468000Y-118722000D03*
X179768000Y-108562000D03*
X192468000Y-121262000D03*
X179768000Y-106022000D03*
D17*
X192468000Y-123802000D03*
D16*
X152082000Y-69954000D03*
X139382000Y-87734000D03*
X152082000Y-72494000D03*
X139382000Y-85194000D03*
X152082000Y-75034000D03*
X139382000Y-82654000D03*
X152082000Y-77574000D03*
X139382000Y-80114000D03*
X152082000Y-80114000D03*
X139382000Y-77574000D03*
X152082000Y-82654000D03*
X139382000Y-75034000D03*
X152082000Y-85194000D03*
X139382000Y-72494000D03*
X152082000Y-87734000D03*
D17*
X139382000Y-69954000D03*
D20*
X163969538Y-78129877D03*
X164528496Y-81343500D03*
X167703499Y-85788501D03*
X163258500Y-76644500D03*
X162242500Y-76581000D03*
X162560000Y-78295500D03*
X163385500Y-82296000D03*
X165945736Y-85280500D03*
X175006000Y-86360000D03*
X178308006Y-89662000D03*
X178308006Y-95249994D03*
X178308000Y-97536000D03*
D21*
X152273000Y-95885000D03*
X154559000Y-93853000D03*
X153162000Y-92583000D03*
X152146000Y-93599000D03*
X151003000Y-94615000D03*
X153416000Y-97155000D03*
X154559000Y-96012000D03*
X155702000Y-94996000D03*
X156845000Y-93980000D03*
X155575000Y-92837000D03*
X154305000Y-91567000D03*
D22*
X183291000Y-110841000D03*
X148940000Y-118776000D03*
X148399500Y-82550000D03*
X183004000Y-74927000D03*
D13*
X149836500Y-91694000D03*
D20*
X168402000Y-108775500D03*
X163766500Y-102743000D03*
X160845500Y-103695500D03*
X162963500Y-101600000D03*
X171386000Y-107949500D03*
D13*
X158877000Y-105727500D03*
D21*
X159861700Y-82137700D03*
X161409400Y-82550000D03*
X158838400Y-75222600D03*
X162433000Y-79946500D03*
X155878364Y-79932400D03*
D13*
X164592000Y-96075584D03*
D21*
X167640000Y-92825987D03*
D20*
X172475665Y-88255844D03*
D13*
X155234000Y-99314000D03*
D21*
X153416000Y-94869000D03*
D20*
X154114500Y-82235529D03*
X154114500Y-80708488D03*
X180594000Y-94996000D03*
X173228000Y-87630012D03*
X173990000Y-105664000D03*
X176530000Y-108204000D03*
X166370000Y-95250000D03*
X178054000Y-106934000D03*
X175513996Y-85725000D03*
X166052000Y-124079000D03*
X175260000Y-98425000D03*
X176387879Y-99552867D03*
X165474427Y-91694000D03*
X160126065Y-97261067D03*
X165608006Y-98805994D03*
X175069500Y-102806500D03*
X166878006Y-94615000D03*
X175133000Y-96266000D03*
X178054000Y-99187000D03*
X176022000Y-101981000D03*
X168592500Y-113474500D03*
X172847000Y-97917000D03*
X171348400Y-81991200D03*
X171348400Y-79908400D03*
D23*
X164528496Y-81343500D02*
X164528496Y-82613498D01*
X164528496Y-82613498D02*
X167403500Y-85488502D01*
X167403500Y-85488502D02*
X167703499Y-85788501D01*
X163258500Y-77418839D02*
X163969538Y-78129877D01*
X163258500Y-76644500D02*
X163258500Y-77418839D01*
D24*
X192477000Y-106013000D02*
X192468000Y-106022000D01*
X198120000Y-106013000D02*
X192477000Y-106013000D01*
X191960000Y-69954000D02*
X192890000Y-69954000D01*
X195040000Y-72104000D02*
X198247000Y-72104000D01*
X192890000Y-69954000D02*
X195040000Y-72104000D01*
X139327000Y-87789000D02*
X139382000Y-87734000D01*
X133858000Y-87789000D02*
X139327000Y-87789000D01*
X139890000Y-123802000D02*
X138788000Y-123802000D01*
X136684000Y-121698000D02*
X133858000Y-121698000D01*
X138788000Y-123802000D02*
X136684000Y-121698000D01*
D23*
X162242500Y-76581000D02*
X162242500Y-77978000D01*
X162242500Y-77978000D02*
X162560000Y-78295500D01*
X163385500Y-82720264D02*
X165945736Y-85280500D01*
X163385500Y-82296000D02*
X163385500Y-82720264D01*
X178308000Y-89662000D02*
X178308006Y-89662000D01*
X175006000Y-86360000D02*
X178308000Y-89662000D01*
X178308006Y-97535994D02*
X178308000Y-97536000D01*
X178308006Y-95249994D02*
X178308006Y-97535994D01*
X154114500Y-82235529D02*
X154114500Y-80708488D01*
X180594000Y-94996000D02*
X173228012Y-87630012D01*
X173228012Y-87630012D02*
X173228000Y-87630012D01*
X173990000Y-105664000D02*
X176530000Y-108204000D01*
X166370000Y-95250000D02*
X178054000Y-106934000D01*
X177251000Y-85725000D02*
X175938260Y-85725000D01*
X179260000Y-87734000D02*
X177251000Y-85725000D01*
X175938260Y-85725000D02*
X175513996Y-85725000D01*
X166052000Y-119992000D02*
X166052000Y-124079000D01*
X175260000Y-98425000D02*
X176387867Y-99552867D01*
X176387867Y-99552867D02*
X176387879Y-99552867D01*
X152590000Y-103877878D02*
X152590000Y-104890630D01*
X165474427Y-91694000D02*
X164773878Y-91694000D01*
X152590000Y-104890630D02*
X152590000Y-106022000D01*
X164773878Y-91694000D02*
X152590000Y-103877878D01*
X153924000Y-103463132D02*
X159826066Y-97561066D01*
X159826066Y-97561066D02*
X160126065Y-97261067D01*
X153924000Y-107228000D02*
X153924000Y-103463132D01*
X152590000Y-108562000D02*
X153924000Y-107228000D01*
X159512006Y-98805994D02*
X165183742Y-98805994D01*
X152590000Y-111102000D02*
X154686000Y-109006000D01*
X165183742Y-98805994D02*
X165608006Y-98805994D01*
X154686000Y-103632000D02*
X159512006Y-98805994D01*
X154686000Y-109006000D02*
X154686000Y-103632000D01*
X175069500Y-102806500D02*
X166878006Y-94615006D01*
X166878006Y-94615006D02*
X166878006Y-94615000D01*
X178054000Y-99187000D02*
X177292000Y-98425000D01*
X177292000Y-98425000D02*
X175133000Y-96266000D01*
X168592500Y-117451500D02*
X168592000Y-117452000D01*
X168592500Y-113474500D02*
X168592500Y-117451500D01*
X172847000Y-98806000D02*
X172847000Y-97917000D01*
X176022000Y-101981000D02*
X172847000Y-98806000D01*
X171348400Y-81991200D02*
X171348400Y-79908400D01*
D25*
G36*
X196728081Y-57953497D02*
G01*
X197433147Y-58146381D01*
X198092916Y-58461075D01*
X198686527Y-58887628D01*
X199195221Y-59412559D01*
X199602920Y-60019279D01*
X199896734Y-60688605D01*
X200069011Y-61406191D01*
X200115001Y-62032461D01*
X200115001Y-66466224D01*
X198878750Y-66469000D01*
X198720000Y-66627750D01*
X198720000Y-67631000D01*
X198740000Y-67631000D01*
X198740000Y-68577000D01*
X198720000Y-68577000D01*
X198720000Y-69580250D01*
X198878750Y-69739000D01*
X200115001Y-69741776D01*
X200115001Y-70465928D01*
X196247000Y-70465928D01*
X196122518Y-70478188D01*
X196002820Y-70514498D01*
X195892506Y-70573463D01*
X195795815Y-70652815D01*
X195716463Y-70749506D01*
X195657498Y-70859820D01*
X195624379Y-70969000D01*
X195510132Y-70969000D01*
X193731996Y-69190865D01*
X193696449Y-69147551D01*
X193643383Y-69104000D01*
X195608928Y-69104000D01*
X195621188Y-69228482D01*
X195657498Y-69348180D01*
X195716463Y-69458494D01*
X195795815Y-69555185D01*
X195892506Y-69634537D01*
X196002820Y-69693502D01*
X196122518Y-69729812D01*
X196247000Y-69742072D01*
X197615250Y-69739000D01*
X197774000Y-69580250D01*
X197774000Y-68577000D01*
X195770750Y-68577000D01*
X195612000Y-68735750D01*
X195608928Y-69104000D01*
X193643383Y-69104000D01*
X193523623Y-69005716D01*
X193326447Y-68900324D01*
X193112499Y-68835423D01*
X192945752Y-68819000D01*
X192945751Y-68819000D01*
X192890000Y-68813509D01*
X192838493Y-68818582D01*
X192761101Y-68755068D01*
X192511808Y-68621818D01*
X192241309Y-68539764D01*
X192030492Y-68519000D01*
X191889508Y-68519000D01*
X191678691Y-68539764D01*
X191408192Y-68621818D01*
X191158899Y-68755068D01*
X190940392Y-68934392D01*
X190761068Y-69152899D01*
X190627818Y-69402192D01*
X190545764Y-69672691D01*
X190518057Y-69954000D01*
X190545764Y-70235309D01*
X190627818Y-70505808D01*
X190761068Y-70755101D01*
X190940392Y-70973608D01*
X191158899Y-71152932D01*
X191338251Y-71248798D01*
X191280882Y-71229850D01*
X191047308Y-71386630D01*
X190848808Y-71585965D01*
X190695868Y-71814885D01*
X190774637Y-72021000D01*
X191487000Y-72021000D01*
X191487000Y-72001000D01*
X192433000Y-72001000D01*
X192433000Y-72021000D01*
X193145363Y-72021000D01*
X193202461Y-71871592D01*
X194198009Y-72867141D01*
X194233551Y-72910449D01*
X194406377Y-73052284D01*
X194603553Y-73157676D01*
X194767705Y-73207471D01*
X194817500Y-73222577D01*
X195039999Y-73244491D01*
X195095751Y-73239000D01*
X195624379Y-73239000D01*
X195657498Y-73348180D01*
X195716463Y-73458494D01*
X195795815Y-73555185D01*
X195892506Y-73634537D01*
X196002820Y-73693502D01*
X196122518Y-73729812D01*
X196247000Y-73742072D01*
X198021816Y-73742072D01*
X197925986Y-73793294D01*
X197699866Y-73978866D01*
X197514294Y-74204986D01*
X197376401Y-74462966D01*
X197291487Y-74742889D01*
X197262815Y-75034000D01*
X197291487Y-75325111D01*
X197376401Y-75605034D01*
X197514294Y-75863014D01*
X197699866Y-76089134D01*
X197925986Y-76274706D01*
X197980791Y-76304000D01*
X197925986Y-76333294D01*
X197699866Y-76518866D01*
X197514294Y-76744986D01*
X197376401Y-77002966D01*
X197291487Y-77282889D01*
X197262815Y-77574000D01*
X197291487Y-77865111D01*
X197376401Y-78145034D01*
X197514294Y-78403014D01*
X197699866Y-78629134D01*
X197925986Y-78814706D01*
X197980791Y-78844000D01*
X197925986Y-78873294D01*
X197699866Y-79058866D01*
X197514294Y-79284986D01*
X197376401Y-79542966D01*
X197291487Y-79822889D01*
X197262815Y-80114000D01*
X197291487Y-80405111D01*
X197376401Y-80685034D01*
X197514294Y-80943014D01*
X197699866Y-81169134D01*
X197729687Y-81193607D01*
X197660820Y-81214498D01*
X197550506Y-81273463D01*
X197453815Y-81352815D01*
X197374463Y-81449506D01*
X197315498Y-81559820D01*
X197279188Y-81679518D01*
X197266928Y-81804000D01*
X197266928Y-83504000D01*
X197279188Y-83628482D01*
X197315498Y-83748180D01*
X197374463Y-83858494D01*
X197453815Y-83955185D01*
X197550506Y-84034537D01*
X197660820Y-84093502D01*
X197780518Y-84129812D01*
X197905000Y-84142072D01*
X199605000Y-84142072D01*
X199729482Y-84129812D01*
X199849180Y-84093502D01*
X199959494Y-84034537D01*
X200056185Y-83955185D01*
X200115001Y-83883518D01*
X200115000Y-100374939D01*
X198751750Y-100378000D01*
X198593000Y-100536750D01*
X198593000Y-101540000D01*
X198613000Y-101540000D01*
X198613000Y-102486000D01*
X198593000Y-102486000D01*
X198593000Y-103489250D01*
X198751750Y-103648000D01*
X200115000Y-103651061D01*
X200115000Y-104374928D01*
X196120000Y-104374928D01*
X195995518Y-104387188D01*
X195875820Y-104423498D01*
X195765506Y-104482463D01*
X195668815Y-104561815D01*
X195589463Y-104658506D01*
X195530498Y-104768820D01*
X195497379Y-104878000D01*
X193336036Y-104878000D01*
X193269101Y-104823068D01*
X193019808Y-104689818D01*
X192749309Y-104607764D01*
X192538492Y-104587000D01*
X192397508Y-104587000D01*
X192186691Y-104607764D01*
X191916192Y-104689818D01*
X191666899Y-104823068D01*
X191448392Y-105002392D01*
X191269068Y-105220899D01*
X191135818Y-105470192D01*
X191053764Y-105740691D01*
X191026057Y-106022000D01*
X191053764Y-106303309D01*
X191135818Y-106573808D01*
X191269068Y-106823101D01*
X191448392Y-107041608D01*
X191666899Y-107220932D01*
X191846251Y-107316798D01*
X191788882Y-107297850D01*
X191555308Y-107454630D01*
X191356808Y-107653965D01*
X191203868Y-107882885D01*
X191282637Y-108089000D01*
X191995000Y-108089000D01*
X191995000Y-108069000D01*
X192941000Y-108069000D01*
X192941000Y-108089000D01*
X193653363Y-108089000D01*
X193732132Y-107882885D01*
X193579192Y-107653965D01*
X193380692Y-107454630D01*
X193147118Y-107297850D01*
X193089749Y-107316798D01*
X193269101Y-107220932D01*
X193357969Y-107148000D01*
X195497379Y-107148000D01*
X195530498Y-107257180D01*
X195589463Y-107367494D01*
X195668815Y-107464185D01*
X195765506Y-107543537D01*
X195875820Y-107602502D01*
X195995518Y-107638812D01*
X196120000Y-107651072D01*
X200115000Y-107651072D01*
X200115000Y-110108847D01*
X200064134Y-110046866D01*
X199838014Y-109861294D01*
X199580034Y-109723401D01*
X199300111Y-109638487D01*
X199081950Y-109617000D01*
X198936050Y-109617000D01*
X198717889Y-109638487D01*
X198437966Y-109723401D01*
X198179986Y-109861294D01*
X197953866Y-110046866D01*
X197768294Y-110272986D01*
X197630401Y-110530966D01*
X197545487Y-110810889D01*
X197516815Y-111102000D01*
X197545487Y-111393111D01*
X197630401Y-111673034D01*
X197768294Y-111931014D01*
X197953866Y-112157134D01*
X198179986Y-112342706D01*
X198234791Y-112372000D01*
X198179986Y-112401294D01*
X197953866Y-112586866D01*
X197768294Y-112812986D01*
X197630401Y-113070966D01*
X197545487Y-113350889D01*
X197516815Y-113642000D01*
X197545487Y-113933111D01*
X197630401Y-114213034D01*
X197768294Y-114471014D01*
X197953866Y-114697134D01*
X198179986Y-114882706D01*
X198234791Y-114912000D01*
X198179986Y-114941294D01*
X197953866Y-115126866D01*
X197768294Y-115352986D01*
X197630401Y-115610966D01*
X197545487Y-115890889D01*
X197516815Y-116182000D01*
X197545487Y-116473111D01*
X197630401Y-116753034D01*
X197768294Y-117011014D01*
X197953866Y-117237134D01*
X197983687Y-117261607D01*
X197914820Y-117282498D01*
X197804506Y-117341463D01*
X197707815Y-117420815D01*
X197628463Y-117517506D01*
X197569498Y-117627820D01*
X197533188Y-117747518D01*
X197520928Y-117872000D01*
X197520928Y-119572000D01*
X197533188Y-119696482D01*
X197569498Y-119816180D01*
X197628463Y-119926494D01*
X197707815Y-120023185D01*
X197804506Y-120102537D01*
X197914820Y-120161502D01*
X198034518Y-120197812D01*
X198159000Y-120210072D01*
X199859000Y-120210072D01*
X199983482Y-120197812D01*
X200103180Y-120161502D01*
X200115000Y-120155184D01*
X200115000Y-131960591D01*
X200046503Y-132728082D01*
X199853619Y-133433147D01*
X199538926Y-134092914D01*
X199112372Y-134686526D01*
X198587438Y-135195223D01*
X197980723Y-135602919D01*
X197311395Y-135896734D01*
X196593810Y-136069011D01*
X195967554Y-136115000D01*
X136039409Y-136115000D01*
X135271918Y-136046503D01*
X134566853Y-135853619D01*
X133907086Y-135538926D01*
X133313474Y-135112372D01*
X132804777Y-134587438D01*
X132397081Y-133980723D01*
X132103266Y-133311395D01*
X131930989Y-132593810D01*
X131885000Y-131967554D01*
X131885000Y-131779872D01*
X133765000Y-131779872D01*
X133765000Y-132220128D01*
X133850890Y-132651925D01*
X134019369Y-133058669D01*
X134263962Y-133424729D01*
X134575271Y-133736038D01*
X134941331Y-133980631D01*
X135348075Y-134149110D01*
X135779872Y-134235000D01*
X136220128Y-134235000D01*
X136651925Y-134149110D01*
X137058669Y-133980631D01*
X137424729Y-133736038D01*
X137624568Y-133536199D01*
X143992724Y-133536199D01*
X144110874Y-133757889D01*
X144423854Y-133833853D01*
X144745640Y-133847298D01*
X145063867Y-133797707D01*
X145195126Y-133757889D01*
X145313276Y-133536199D01*
X144753077Y-132976000D01*
X161573928Y-132976000D01*
X161586188Y-133100482D01*
X161622498Y-133220180D01*
X161681463Y-133330494D01*
X161760815Y-133427185D01*
X161857506Y-133506537D01*
X161967820Y-133565502D01*
X162087518Y-133601812D01*
X162212000Y-133614072D01*
X162880250Y-133611000D01*
X163039000Y-133452250D01*
X163039000Y-132149000D01*
X163985000Y-132149000D01*
X163985000Y-133452250D01*
X164143750Y-133611000D01*
X164812000Y-133614072D01*
X164936482Y-133601812D01*
X165056180Y-133565502D01*
X165166494Y-133506537D01*
X165263185Y-133427185D01*
X165342537Y-133330494D01*
X165401502Y-133220180D01*
X165437812Y-133100482D01*
X165450072Y-132976000D01*
X165447000Y-132307750D01*
X165288250Y-132149000D01*
X163985000Y-132149000D01*
X163039000Y-132149000D01*
X161735750Y-132149000D01*
X161577000Y-132307750D01*
X161573928Y-132976000D01*
X144753077Y-132976000D01*
X144653000Y-132875923D01*
X143992724Y-133536199D01*
X137624568Y-133536199D01*
X137736038Y-133424729D01*
X137980631Y-133058669D01*
X138149110Y-132651925D01*
X138219184Y-132299640D01*
X143012702Y-132299640D01*
X143062293Y-132617867D01*
X143102111Y-132749126D01*
X143323801Y-132867276D01*
X143984077Y-132207000D01*
X145321923Y-132207000D01*
X145982199Y-132867276D01*
X146203889Y-132749126D01*
X146279853Y-132436146D01*
X146293298Y-132114360D01*
X146243707Y-131796133D01*
X146203889Y-131664874D01*
X145982199Y-131546724D01*
X145321923Y-132207000D01*
X143984077Y-132207000D01*
X143323801Y-131546724D01*
X143102111Y-131664874D01*
X143026147Y-131977854D01*
X143012702Y-132299640D01*
X138219184Y-132299640D01*
X138235000Y-132220128D01*
X138235000Y-131779872D01*
X138149110Y-131348075D01*
X137980631Y-130941331D01*
X137938182Y-130877801D01*
X143992724Y-130877801D01*
X144653000Y-131538077D01*
X144705658Y-131485419D01*
X166657000Y-131485419D01*
X166657000Y-131866581D01*
X166731361Y-132240419D01*
X166877225Y-132592566D01*
X167088987Y-132909491D01*
X167358509Y-133179013D01*
X167675434Y-133390775D01*
X168027581Y-133536639D01*
X168401419Y-133611000D01*
X168782581Y-133611000D01*
X169156419Y-133536639D01*
X169508566Y-133390775D01*
X169825491Y-133179013D01*
X170095013Y-132909491D01*
X170306775Y-132592566D01*
X170452639Y-132240419D01*
X170527000Y-131866581D01*
X170527000Y-131779872D01*
X193765000Y-131779872D01*
X193765000Y-132220128D01*
X193850890Y-132651925D01*
X194019369Y-133058669D01*
X194263962Y-133424729D01*
X194575271Y-133736038D01*
X194941331Y-133980631D01*
X195348075Y-134149110D01*
X195779872Y-134235000D01*
X196220128Y-134235000D01*
X196651925Y-134149110D01*
X197058669Y-133980631D01*
X197424729Y-133736038D01*
X197736038Y-133424729D01*
X197980631Y-133058669D01*
X198149110Y-132651925D01*
X198235000Y-132220128D01*
X198235000Y-131779872D01*
X198149110Y-131348075D01*
X197980631Y-130941331D01*
X197736038Y-130575271D01*
X197424729Y-130263962D01*
X197058669Y-130019369D01*
X196651925Y-129850890D01*
X196220128Y-129765000D01*
X195779872Y-129765000D01*
X195348075Y-129850890D01*
X194941331Y-130019369D01*
X194575271Y-130263962D01*
X194263962Y-130575271D01*
X194019369Y-130941331D01*
X193850890Y-131348075D01*
X193765000Y-131779872D01*
X170527000Y-131779872D01*
X170527000Y-131485419D01*
X170452639Y-131111581D01*
X170306775Y-130759434D01*
X170095013Y-130442509D01*
X169825491Y-130172987D01*
X169508566Y-129961225D01*
X169156419Y-129815361D01*
X168782581Y-129741000D01*
X168401419Y-129741000D01*
X168027581Y-129815361D01*
X167675434Y-129961225D01*
X167358509Y-130172987D01*
X167088987Y-130442509D01*
X166877225Y-130759434D01*
X166731361Y-131111581D01*
X166657000Y-131485419D01*
X144705658Y-131485419D01*
X145313276Y-130877801D01*
X145195126Y-130656111D01*
X144882146Y-130580147D01*
X144560360Y-130566702D01*
X144242133Y-130616293D01*
X144110874Y-130656111D01*
X143992724Y-130877801D01*
X137938182Y-130877801D01*
X137736038Y-130575271D01*
X137536767Y-130376000D01*
X161573928Y-130376000D01*
X161577000Y-131044250D01*
X161735750Y-131203000D01*
X163039000Y-131203000D01*
X163039000Y-129899750D01*
X163985000Y-129899750D01*
X163985000Y-131203000D01*
X165288250Y-131203000D01*
X165447000Y-131044250D01*
X165450072Y-130376000D01*
X165437812Y-130251518D01*
X165401502Y-130131820D01*
X165342537Y-130021506D01*
X165263185Y-129924815D01*
X165166494Y-129845463D01*
X165056180Y-129786498D01*
X164936482Y-129750188D01*
X164812000Y-129737928D01*
X164143750Y-129741000D01*
X163985000Y-129899750D01*
X163039000Y-129899750D01*
X162880250Y-129741000D01*
X162212000Y-129737928D01*
X162087518Y-129750188D01*
X161967820Y-129786498D01*
X161857506Y-129845463D01*
X161760815Y-129924815D01*
X161681463Y-130021506D01*
X161622498Y-130131820D01*
X161586188Y-130251518D01*
X161573928Y-130376000D01*
X137536767Y-130376000D01*
X137424729Y-130263962D01*
X137058669Y-130019369D01*
X136651925Y-129850890D01*
X136220128Y-129765000D01*
X135779872Y-129765000D01*
X135348075Y-129850890D01*
X134941331Y-130019369D01*
X134575271Y-130263962D01*
X134263962Y-130575271D01*
X134019369Y-130941331D01*
X133850890Y-131348075D01*
X133765000Y-131779872D01*
X131885000Y-131779872D01*
X131885000Y-127336011D01*
X133226250Y-127333000D01*
X133385000Y-127174250D01*
X133385000Y-126171000D01*
X134331000Y-126171000D01*
X134331000Y-127174250D01*
X134489750Y-127333000D01*
X135858000Y-127336072D01*
X135982482Y-127323812D01*
X136102180Y-127287502D01*
X136212494Y-127228537D01*
X136309185Y-127149185D01*
X136388537Y-127052494D01*
X136447502Y-126942180D01*
X136483812Y-126822482D01*
X136496072Y-126698000D01*
X136493000Y-126329750D01*
X136334250Y-126171000D01*
X134331000Y-126171000D01*
X133385000Y-126171000D01*
X133365000Y-126171000D01*
X133365000Y-125225000D01*
X133385000Y-125225000D01*
X133385000Y-124221750D01*
X134331000Y-124221750D01*
X134331000Y-125225000D01*
X136334250Y-125225000D01*
X136493000Y-125066250D01*
X136496072Y-124698000D01*
X136483812Y-124573518D01*
X136447502Y-124453820D01*
X136388537Y-124343506D01*
X136309185Y-124246815D01*
X136212494Y-124167463D01*
X136102180Y-124108498D01*
X135982482Y-124072188D01*
X135858000Y-124059928D01*
X134489750Y-124063000D01*
X134331000Y-124221750D01*
X133385000Y-124221750D01*
X133226250Y-124063000D01*
X131885000Y-124059989D01*
X131885000Y-123336072D01*
X135858000Y-123336072D01*
X135982482Y-123323812D01*
X136102180Y-123287502D01*
X136212494Y-123228537D01*
X136309185Y-123149185D01*
X136388537Y-123052494D01*
X136404151Y-123023282D01*
X137946009Y-124565141D01*
X137981551Y-124608449D01*
X138154377Y-124750284D01*
X138351553Y-124855676D01*
X138565501Y-124920577D01*
X138732248Y-124937000D01*
X138732257Y-124937000D01*
X138787999Y-124942490D01*
X138843741Y-124937000D01*
X139010998Y-124937000D01*
X139088899Y-125000932D01*
X139338192Y-125134182D01*
X139608691Y-125216236D01*
X139819508Y-125237000D01*
X139960492Y-125237000D01*
X140171309Y-125216236D01*
X140441808Y-125134182D01*
X140691101Y-125000932D01*
X140909608Y-124821608D01*
X141088932Y-124603101D01*
X141222182Y-124353808D01*
X141304236Y-124083309D01*
X141331943Y-123802000D01*
X141304236Y-123520691D01*
X141222182Y-123250192D01*
X141088932Y-123000899D01*
X140909608Y-122782392D01*
X140691101Y-122603068D01*
X140511749Y-122507202D01*
X140569118Y-122526150D01*
X140802692Y-122369370D01*
X141001192Y-122170035D01*
X141154132Y-121941115D01*
X141075363Y-121735000D01*
X140363000Y-121735000D01*
X140363000Y-121755000D01*
X139417000Y-121755000D01*
X139417000Y-121735000D01*
X138704637Y-121735000D01*
X138625868Y-121941115D01*
X138778808Y-122170035D01*
X138977308Y-122369370D01*
X139210882Y-122526150D01*
X139268251Y-122507202D01*
X139157521Y-122566389D01*
X137525996Y-120934865D01*
X137490449Y-120891551D01*
X137317623Y-120749716D01*
X137120447Y-120644324D01*
X136906499Y-120579423D01*
X136739752Y-120563000D01*
X136739751Y-120563000D01*
X136684000Y-120557509D01*
X136628249Y-120563000D01*
X136480621Y-120563000D01*
X136447502Y-120453820D01*
X136388537Y-120343506D01*
X136309185Y-120246815D01*
X136212494Y-120167463D01*
X136102180Y-120108498D01*
X135982482Y-120072188D01*
X135858000Y-120059928D01*
X133870124Y-120059928D01*
X134052014Y-119962706D01*
X134278134Y-119777134D01*
X134463706Y-119551014D01*
X134601599Y-119293034D01*
X134686513Y-119013111D01*
X134715185Y-118722000D01*
X134686513Y-118430889D01*
X134601599Y-118150966D01*
X134463706Y-117892986D01*
X134278134Y-117666866D01*
X134052014Y-117481294D01*
X133997209Y-117452000D01*
X134052014Y-117422706D01*
X134278134Y-117237134D01*
X134463706Y-117011014D01*
X134601599Y-116753034D01*
X134686513Y-116473111D01*
X134715185Y-116182000D01*
X134686513Y-115890889D01*
X134601599Y-115610966D01*
X134463706Y-115352986D01*
X134278134Y-115126866D01*
X134052014Y-114941294D01*
X133997209Y-114912000D01*
X134052014Y-114882706D01*
X134278134Y-114697134D01*
X134463706Y-114471014D01*
X134601599Y-114213034D01*
X134686513Y-113933111D01*
X134715185Y-113642000D01*
X134686513Y-113350889D01*
X134601599Y-113070966D01*
X134463706Y-112812986D01*
X134278134Y-112586866D01*
X134248313Y-112562393D01*
X134317180Y-112541502D01*
X134427494Y-112482537D01*
X134524185Y-112403185D01*
X134603537Y-112306494D01*
X134662502Y-112196180D01*
X134698812Y-112076482D01*
X134711072Y-111952000D01*
X134711072Y-110252000D01*
X134698812Y-110127518D01*
X134662502Y-110007820D01*
X134603537Y-109897506D01*
X134524185Y-109800815D01*
X134427494Y-109721463D01*
X134317180Y-109662498D01*
X134197482Y-109626188D01*
X134073000Y-109613928D01*
X132373000Y-109613928D01*
X132248518Y-109626188D01*
X132128820Y-109662498D01*
X132018506Y-109721463D01*
X131921815Y-109800815D01*
X131885000Y-109845674D01*
X131885000Y-108562000D01*
X138448057Y-108562000D01*
X138475764Y-108843309D01*
X138557818Y-109113808D01*
X138691068Y-109363101D01*
X138870392Y-109581608D01*
X139088899Y-109760932D01*
X139221858Y-109832000D01*
X139088899Y-109903068D01*
X138870392Y-110082392D01*
X138691068Y-110300899D01*
X138557818Y-110550192D01*
X138475764Y-110820691D01*
X138448057Y-111102000D01*
X138475764Y-111383309D01*
X138557818Y-111653808D01*
X138691068Y-111903101D01*
X138870392Y-112121608D01*
X139088899Y-112300932D01*
X139221858Y-112372000D01*
X139088899Y-112443068D01*
X138870392Y-112622392D01*
X138691068Y-112840899D01*
X138557818Y-113090192D01*
X138475764Y-113360691D01*
X138448057Y-113642000D01*
X138475764Y-113923309D01*
X138557818Y-114193808D01*
X138691068Y-114443101D01*
X138870392Y-114661608D01*
X139088899Y-114840932D01*
X139221858Y-114912000D01*
X139088899Y-114983068D01*
X138870392Y-115162392D01*
X138691068Y-115380899D01*
X138557818Y-115630192D01*
X138475764Y-115900691D01*
X138448057Y-116182000D01*
X138475764Y-116463309D01*
X138557818Y-116733808D01*
X138691068Y-116983101D01*
X138870392Y-117201608D01*
X139088899Y-117380932D01*
X139221858Y-117452000D01*
X139088899Y-117523068D01*
X138870392Y-117702392D01*
X138691068Y-117920899D01*
X138557818Y-118170192D01*
X138475764Y-118440691D01*
X138448057Y-118722000D01*
X138475764Y-119003309D01*
X138557818Y-119273808D01*
X138691068Y-119523101D01*
X138870392Y-119741608D01*
X139088899Y-119920932D01*
X139268251Y-120016798D01*
X139210882Y-119997850D01*
X138977308Y-120154630D01*
X138778808Y-120353965D01*
X138625868Y-120582885D01*
X138704637Y-120789000D01*
X139417000Y-120789000D01*
X139417000Y-120769000D01*
X140363000Y-120769000D01*
X140363000Y-120789000D01*
X141075363Y-120789000D01*
X141154132Y-120582885D01*
X141001192Y-120353965D01*
X140802692Y-120154630D01*
X140569118Y-119997850D01*
X140511749Y-120016798D01*
X140691101Y-119920932D01*
X140909608Y-119741608D01*
X141088932Y-119523101D01*
X141222182Y-119273808D01*
X141304236Y-119003309D01*
X141331943Y-118722000D01*
X141304236Y-118440691D01*
X141222182Y-118170192D01*
X141088932Y-117920899D01*
X140909608Y-117702392D01*
X140691101Y-117523068D01*
X140558142Y-117452000D01*
X140691101Y-117380932D01*
X140909608Y-117201608D01*
X141088932Y-116983101D01*
X141222182Y-116733808D01*
X141304236Y-116463309D01*
X141331943Y-116182000D01*
X141304236Y-115900691D01*
X141222182Y-115630192D01*
X141088932Y-115380899D01*
X140909608Y-115162392D01*
X140691101Y-114983068D01*
X140558142Y-114912000D01*
X140691101Y-114840932D01*
X140909608Y-114661608D01*
X141088932Y-114443101D01*
X141222182Y-114193808D01*
X141304236Y-113923309D01*
X141331943Y-113642000D01*
X141304236Y-113360691D01*
X141222182Y-113090192D01*
X141088932Y-112840899D01*
X140909608Y-112622392D01*
X140691101Y-112443068D01*
X140558142Y-112372000D01*
X140691101Y-112300932D01*
X140909608Y-112121608D01*
X141088932Y-111903101D01*
X141222182Y-111653808D01*
X141304236Y-111383309D01*
X141331943Y-111102000D01*
X141304236Y-110820691D01*
X141222182Y-110550192D01*
X141088932Y-110300899D01*
X140909608Y-110082392D01*
X140691101Y-109903068D01*
X140558142Y-109832000D01*
X140691101Y-109760932D01*
X140909608Y-109581608D01*
X141088932Y-109363101D01*
X141222182Y-109113808D01*
X141304236Y-108843309D01*
X141331943Y-108562000D01*
X141304236Y-108280691D01*
X141222182Y-108010192D01*
X141088932Y-107760899D01*
X140909608Y-107542392D01*
X140796518Y-107449581D01*
X140814482Y-107447812D01*
X140934180Y-107411502D01*
X141044494Y-107352537D01*
X141141185Y-107273185D01*
X141220537Y-107176494D01*
X141279502Y-107066180D01*
X141315812Y-106946482D01*
X141328072Y-106822000D01*
X141325000Y-106653750D01*
X141166250Y-106495000D01*
X140363000Y-106495000D01*
X140363000Y-106515000D01*
X139417000Y-106515000D01*
X139417000Y-106495000D01*
X138613750Y-106495000D01*
X138455000Y-106653750D01*
X138451928Y-106822000D01*
X138464188Y-106946482D01*
X138500498Y-107066180D01*
X138559463Y-107176494D01*
X138638815Y-107273185D01*
X138735506Y-107352537D01*
X138845820Y-107411502D01*
X138965518Y-107447812D01*
X138983482Y-107449581D01*
X138870392Y-107542392D01*
X138691068Y-107760899D01*
X138557818Y-108010192D01*
X138475764Y-108280691D01*
X138448057Y-108562000D01*
X131885000Y-108562000D01*
X131885000Y-106022000D01*
X151148057Y-106022000D01*
X151175764Y-106303309D01*
X151257818Y-106573808D01*
X151391068Y-106823101D01*
X151570392Y-107041608D01*
X151788899Y-107220932D01*
X151921858Y-107292000D01*
X151788899Y-107363068D01*
X151570392Y-107542392D01*
X151391068Y-107760899D01*
X151257818Y-108010192D01*
X151175764Y-108280691D01*
X151148057Y-108562000D01*
X151175764Y-108843309D01*
X151257818Y-109113808D01*
X151391068Y-109363101D01*
X151570392Y-109581608D01*
X151788899Y-109760932D01*
X151921858Y-109832000D01*
X151788899Y-109903068D01*
X151570392Y-110082392D01*
X151391068Y-110300899D01*
X151257818Y-110550192D01*
X151175764Y-110820691D01*
X151148057Y-111102000D01*
X151175764Y-111383309D01*
X151257818Y-111653808D01*
X151391068Y-111903101D01*
X151570392Y-112121608D01*
X151788899Y-112300932D01*
X151921858Y-112372000D01*
X151788899Y-112443068D01*
X151570392Y-112622392D01*
X151391068Y-112840899D01*
X151257818Y-113090192D01*
X151175764Y-113360691D01*
X151148057Y-113642000D01*
X151175764Y-113923309D01*
X151257818Y-114193808D01*
X151391068Y-114443101D01*
X151570392Y-114661608D01*
X151788899Y-114840932D01*
X151921858Y-114912000D01*
X151788899Y-114983068D01*
X151570392Y-115162392D01*
X151391068Y-115380899D01*
X151257818Y-115630192D01*
X151175764Y-115900691D01*
X151148057Y-116182000D01*
X151175764Y-116463309D01*
X151257818Y-116733808D01*
X151391068Y-116983101D01*
X151570392Y-117201608D01*
X151788899Y-117380932D01*
X151921858Y-117452000D01*
X151788899Y-117523068D01*
X151570392Y-117702392D01*
X151391068Y-117920899D01*
X151257818Y-118170192D01*
X151175764Y-118440691D01*
X151148057Y-118722000D01*
X151175764Y-119003309D01*
X151257818Y-119273808D01*
X151391068Y-119523101D01*
X151570392Y-119741608D01*
X151788899Y-119920932D01*
X151921858Y-119992000D01*
X151788899Y-120063068D01*
X151570392Y-120242392D01*
X151391068Y-120460899D01*
X151257818Y-120710192D01*
X151175764Y-120980691D01*
X151148057Y-121262000D01*
X151175764Y-121543309D01*
X151257818Y-121813808D01*
X151391068Y-122063101D01*
X151570392Y-122281608D01*
X151788899Y-122460932D01*
X151921858Y-122532000D01*
X151788899Y-122603068D01*
X151570392Y-122782392D01*
X151391068Y-123000899D01*
X151257818Y-123250192D01*
X151175764Y-123520691D01*
X151148057Y-123802000D01*
X151175764Y-124083309D01*
X151257818Y-124353808D01*
X151391068Y-124603101D01*
X151570392Y-124821608D01*
X151788899Y-125000932D01*
X152038192Y-125134182D01*
X152308691Y-125216236D01*
X152519508Y-125237000D01*
X152660492Y-125237000D01*
X152871309Y-125216236D01*
X153141808Y-125134182D01*
X153391101Y-125000932D01*
X153609608Y-124821608D01*
X153788932Y-124603101D01*
X153922182Y-124353808D01*
X154004236Y-124083309D01*
X154031943Y-123802000D01*
X154004236Y-123520691D01*
X153922182Y-123250192D01*
X153788932Y-123000899D01*
X153609608Y-122782392D01*
X153391101Y-122603068D01*
X153258142Y-122532000D01*
X153391101Y-122460932D01*
X153609608Y-122281608D01*
X153788932Y-122063101D01*
X153922182Y-121813808D01*
X154004236Y-121543309D01*
X154031943Y-121262000D01*
X154004236Y-120980691D01*
X153922182Y-120710192D01*
X153906915Y-120681629D01*
X162181486Y-120681629D01*
X162341591Y-120927948D01*
X162546674Y-121138299D01*
X162788854Y-121304599D01*
X162822374Y-121322495D01*
X163039000Y-121245582D01*
X163039000Y-120465000D01*
X162248735Y-120465000D01*
X162181486Y-120681629D01*
X153906915Y-120681629D01*
X153788932Y-120460899D01*
X153609608Y-120242392D01*
X153391101Y-120063068D01*
X153258142Y-119992000D01*
X153391101Y-119920932D01*
X153609608Y-119741608D01*
X153788932Y-119523101D01*
X153922182Y-119273808D01*
X154004236Y-119003309D01*
X154031943Y-118722000D01*
X154004236Y-118440691D01*
X153922182Y-118170192D01*
X153788932Y-117920899D01*
X153609608Y-117702392D01*
X153391101Y-117523068D01*
X153258142Y-117452000D01*
X162006149Y-117452000D01*
X162035084Y-117745777D01*
X162120775Y-118028264D01*
X162259931Y-118288606D01*
X162447203Y-118516797D01*
X162675394Y-118704069D01*
X162718993Y-118727373D01*
X162546674Y-118845701D01*
X162341591Y-119056052D01*
X162181486Y-119302371D01*
X162248735Y-119519000D01*
X163039000Y-119519000D01*
X163039000Y-119499000D01*
X163985000Y-119499000D01*
X163985000Y-119519000D01*
X164005000Y-119519000D01*
X164005000Y-120465000D01*
X163985000Y-120465000D01*
X163985000Y-121245582D01*
X164201626Y-121322495D01*
X164235146Y-121304599D01*
X164477326Y-121138299D01*
X164682409Y-120927948D01*
X164776037Y-120783903D01*
X164799931Y-120828606D01*
X164987203Y-121056797D01*
X165215394Y-121244069D01*
X165267000Y-121271653D01*
X165267001Y-123570879D01*
X165223414Y-123636111D01*
X165152932Y-123806271D01*
X165117000Y-123986911D01*
X165117000Y-124171089D01*
X165152932Y-124351729D01*
X165223414Y-124521889D01*
X165325738Y-124675028D01*
X165455972Y-124805262D01*
X165609111Y-124907586D01*
X165779271Y-124978068D01*
X165959911Y-125014000D01*
X166144089Y-125014000D01*
X166324729Y-124978068D01*
X166494889Y-124907586D01*
X166648028Y-124805262D01*
X166778262Y-124675028D01*
X166880586Y-124521889D01*
X166951068Y-124351729D01*
X166987000Y-124171089D01*
X166987000Y-123986911D01*
X166951068Y-123806271D01*
X166880586Y-123636111D01*
X166837000Y-123570880D01*
X166837000Y-121271653D01*
X166888606Y-121244069D01*
X167116797Y-121056797D01*
X167304069Y-120828606D01*
X167322000Y-120795060D01*
X167339931Y-120828606D01*
X167527203Y-121056797D01*
X167755394Y-121244069D01*
X168015736Y-121383225D01*
X168298223Y-121468916D01*
X168518381Y-121490600D01*
X168665619Y-121490600D01*
X168885777Y-121468916D01*
X169168264Y-121383225D01*
X169428606Y-121244069D01*
X169656797Y-121056797D01*
X169844069Y-120828606D01*
X169983225Y-120568264D01*
X170068916Y-120285777D01*
X170097851Y-119992000D01*
X170068916Y-119698223D01*
X169983225Y-119415736D01*
X169844069Y-119155394D01*
X169656797Y-118927203D01*
X169648735Y-118920586D01*
X169699780Y-118905102D01*
X169810094Y-118846137D01*
X169906785Y-118766785D01*
X169986137Y-118670094D01*
X170045102Y-118559780D01*
X170081412Y-118440082D01*
X170093672Y-118315600D01*
X170093672Y-116588400D01*
X170081412Y-116463918D01*
X170045102Y-116344220D01*
X169986137Y-116233906D01*
X169906785Y-116137215D01*
X169810094Y-116057863D01*
X169699780Y-115998898D01*
X169580082Y-115962588D01*
X169455600Y-115950328D01*
X169377500Y-115950328D01*
X169377500Y-113982620D01*
X169421086Y-113917389D01*
X169491568Y-113747229D01*
X169527500Y-113566589D01*
X169527500Y-113382411D01*
X169491568Y-113201771D01*
X169421086Y-113031611D01*
X169318762Y-112878472D01*
X169188528Y-112748238D01*
X169035389Y-112645914D01*
X168865229Y-112575432D01*
X168684589Y-112539500D01*
X168500411Y-112539500D01*
X168319771Y-112575432D01*
X168149611Y-112645914D01*
X167996472Y-112748238D01*
X167866238Y-112878472D01*
X167763914Y-113031611D01*
X167693432Y-113201771D01*
X167657500Y-113382411D01*
X167657500Y-113566589D01*
X167693432Y-113747229D01*
X167763914Y-113917389D01*
X167807500Y-113982620D01*
X167807501Y-115950328D01*
X167728400Y-115950328D01*
X167603918Y-115962588D01*
X167484220Y-115998898D01*
X167373906Y-116057863D01*
X167277215Y-116137215D01*
X167197863Y-116233906D01*
X167138898Y-116344220D01*
X167123414Y-116395265D01*
X167116797Y-116387203D01*
X166888606Y-116199931D01*
X166628264Y-116060775D01*
X166345777Y-115975084D01*
X166125619Y-115953400D01*
X165978381Y-115953400D01*
X165758223Y-115975084D01*
X165475736Y-116060775D01*
X165215394Y-116199931D01*
X164987203Y-116387203D01*
X164799931Y-116615394D01*
X164782000Y-116648940D01*
X164764069Y-116615394D01*
X164576797Y-116387203D01*
X164348606Y-116199931D01*
X164088264Y-116060775D01*
X163805777Y-115975084D01*
X163585619Y-115953400D01*
X163438381Y-115953400D01*
X163218223Y-115975084D01*
X162935736Y-116060775D01*
X162675394Y-116199931D01*
X162447203Y-116387203D01*
X162259931Y-116615394D01*
X162120775Y-116875736D01*
X162035084Y-117158223D01*
X162006149Y-117452000D01*
X153258142Y-117452000D01*
X153391101Y-117380932D01*
X153609608Y-117201608D01*
X153788932Y-116983101D01*
X153922182Y-116733808D01*
X154004236Y-116463309D01*
X154031943Y-116182000D01*
X154004236Y-115900691D01*
X153922182Y-115630192D01*
X153788932Y-115380899D01*
X153609608Y-115162392D01*
X153391101Y-114983068D01*
X153258142Y-114912000D01*
X153391101Y-114840932D01*
X153609608Y-114661608D01*
X153788932Y-114443101D01*
X153922182Y-114193808D01*
X154004236Y-113923309D01*
X154031943Y-113642000D01*
X154004236Y-113360691D01*
X153922182Y-113090192D01*
X153788932Y-112840899D01*
X153609608Y-112622392D01*
X153391101Y-112443068D01*
X153258142Y-112372000D01*
X153391101Y-112300932D01*
X153609608Y-112121608D01*
X153788932Y-111903101D01*
X153922182Y-111653808D01*
X154004236Y-111383309D01*
X154031943Y-111102000D01*
X154004236Y-110820691D01*
X153998936Y-110803221D01*
X155213811Y-109588346D01*
X155243764Y-109563764D01*
X155341862Y-109444233D01*
X155414754Y-109307860D01*
X155435001Y-109241115D01*
X155459642Y-109159887D01*
X155467020Y-109084974D01*
X155471000Y-109044561D01*
X155471000Y-109044556D01*
X155474797Y-109006000D01*
X155471000Y-108967444D01*
X155471000Y-108019967D01*
X155654000Y-108019967D01*
X155654000Y-108342033D01*
X155716832Y-108657912D01*
X155840082Y-108955463D01*
X156019013Y-109223252D01*
X156246748Y-109450987D01*
X156514537Y-109629918D01*
X156812088Y-109753168D01*
X157127967Y-109816000D01*
X157450033Y-109816000D01*
X157765912Y-109753168D01*
X158063463Y-109629918D01*
X158331252Y-109450987D01*
X158558987Y-109223252D01*
X158737918Y-108955463D01*
X158861168Y-108657912D01*
X158924000Y-108342033D01*
X158924000Y-108019967D01*
X158861168Y-107704088D01*
X158737918Y-107406537D01*
X158558987Y-107138748D01*
X158331252Y-106911013D01*
X158063463Y-106732082D01*
X157765912Y-106608832D01*
X157450033Y-106546000D01*
X157127967Y-106546000D01*
X156812088Y-106608832D01*
X156514537Y-106732082D01*
X156246748Y-106911013D01*
X156019013Y-107138748D01*
X155840082Y-107406537D01*
X155716832Y-107704088D01*
X155654000Y-108019967D01*
X155471000Y-108019967D01*
X155471000Y-105571911D01*
X173055000Y-105571911D01*
X173055000Y-105756089D01*
X173090932Y-105936729D01*
X173161414Y-106106889D01*
X173263738Y-106260028D01*
X173393972Y-106390262D01*
X173547111Y-106492586D01*
X173717271Y-106563068D01*
X173794216Y-106578374D01*
X175615627Y-108399784D01*
X175630932Y-108476729D01*
X175701414Y-108646889D01*
X175803738Y-108800028D01*
X175933972Y-108930262D01*
X176087111Y-109032586D01*
X176257271Y-109103068D01*
X176437911Y-109139000D01*
X176622089Y-109139000D01*
X176802729Y-109103068D01*
X176972889Y-109032586D01*
X177126028Y-108930262D01*
X177256262Y-108800028D01*
X177358586Y-108646889D01*
X177429068Y-108476729D01*
X177465000Y-108296089D01*
X177465000Y-108111911D01*
X177429068Y-107931271D01*
X177358586Y-107761111D01*
X177256262Y-107607972D01*
X177126028Y-107477738D01*
X176972889Y-107375414D01*
X176802729Y-107304932D01*
X176725784Y-107289627D01*
X174904374Y-105468216D01*
X174889068Y-105391271D01*
X174818586Y-105221111D01*
X174716262Y-105067972D01*
X174586028Y-104937738D01*
X174432889Y-104835414D01*
X174262729Y-104764932D01*
X174082089Y-104729000D01*
X173897911Y-104729000D01*
X173717271Y-104764932D01*
X173547111Y-104835414D01*
X173393972Y-104937738D01*
X173263738Y-105067972D01*
X173161414Y-105221111D01*
X173090932Y-105391271D01*
X173055000Y-105571911D01*
X155471000Y-105571911D01*
X155471000Y-103957157D01*
X159837164Y-99590994D01*
X165099886Y-99590994D01*
X165165117Y-99634580D01*
X165335277Y-99705062D01*
X165515917Y-99740994D01*
X165700095Y-99740994D01*
X165880735Y-99705062D01*
X166050895Y-99634580D01*
X166204034Y-99532256D01*
X166334268Y-99402022D01*
X166436592Y-99248883D01*
X166507074Y-99078723D01*
X166543006Y-98898083D01*
X166543006Y-98713905D01*
X166507074Y-98533265D01*
X166436592Y-98363105D01*
X166334268Y-98209966D01*
X166204034Y-98079732D01*
X166050895Y-97977408D01*
X165880735Y-97906926D01*
X165700095Y-97870994D01*
X165515917Y-97870994D01*
X165335277Y-97906926D01*
X165165117Y-97977408D01*
X165099886Y-98020994D01*
X160671710Y-98020994D01*
X160722093Y-97987329D01*
X160852327Y-97857095D01*
X160954651Y-97703956D01*
X161025133Y-97533796D01*
X161061065Y-97353156D01*
X161061065Y-97168978D01*
X161025133Y-96988338D01*
X160954651Y-96818178D01*
X160876628Y-96701407D01*
X162420124Y-95157911D01*
X165435000Y-95157911D01*
X165435000Y-95342089D01*
X165470932Y-95522729D01*
X165541414Y-95692889D01*
X165643738Y-95846028D01*
X165773972Y-95976262D01*
X165927111Y-96078586D01*
X166097271Y-96149068D01*
X166174217Y-96164374D01*
X177139627Y-107129785D01*
X177154932Y-107206729D01*
X177225414Y-107376889D01*
X177327738Y-107530028D01*
X177457972Y-107660262D01*
X177611111Y-107762586D01*
X177781271Y-107833068D01*
X177961911Y-107869000D01*
X178146089Y-107869000D01*
X178326729Y-107833068D01*
X178496889Y-107762586D01*
X178650028Y-107660262D01*
X178659121Y-107651169D01*
X178569068Y-107760899D01*
X178435818Y-108010192D01*
X178353764Y-108280691D01*
X178326057Y-108562000D01*
X178353764Y-108843309D01*
X178435818Y-109113808D01*
X178569068Y-109363101D01*
X178748392Y-109581608D01*
X178966899Y-109760932D01*
X179099858Y-109832000D01*
X178966899Y-109903068D01*
X178748392Y-110082392D01*
X178569068Y-110300899D01*
X178435818Y-110550192D01*
X178353764Y-110820691D01*
X178326057Y-111102000D01*
X178353764Y-111383309D01*
X178435818Y-111653808D01*
X178569068Y-111903101D01*
X178748392Y-112121608D01*
X178966899Y-112300932D01*
X179099858Y-112372000D01*
X178966899Y-112443068D01*
X178748392Y-112622392D01*
X178569068Y-112840899D01*
X178435818Y-113090192D01*
X178353764Y-113360691D01*
X178326057Y-113642000D01*
X178353764Y-113923309D01*
X178435818Y-114193808D01*
X178569068Y-114443101D01*
X178748392Y-114661608D01*
X178966899Y-114840932D01*
X179099858Y-114912000D01*
X178966899Y-114983068D01*
X178748392Y-115162392D01*
X178569068Y-115380899D01*
X178435818Y-115630192D01*
X178353764Y-115900691D01*
X178326057Y-116182000D01*
X178353764Y-116463309D01*
X178435818Y-116733808D01*
X178569068Y-116983101D01*
X178748392Y-117201608D01*
X178966899Y-117380932D01*
X179099858Y-117452000D01*
X178966899Y-117523068D01*
X178748392Y-117702392D01*
X178569068Y-117920899D01*
X178435818Y-118170192D01*
X178353764Y-118440691D01*
X178326057Y-118722000D01*
X178353764Y-119003309D01*
X178435818Y-119273808D01*
X178569068Y-119523101D01*
X178748392Y-119741608D01*
X178966899Y-119920932D01*
X179099858Y-119992000D01*
X178966899Y-120063068D01*
X178748392Y-120242392D01*
X178569068Y-120460899D01*
X178435818Y-120710192D01*
X178353764Y-120980691D01*
X178326057Y-121262000D01*
X178353764Y-121543309D01*
X178435818Y-121813808D01*
X178569068Y-122063101D01*
X178748392Y-122281608D01*
X178966899Y-122460932D01*
X179099858Y-122532000D01*
X178966899Y-122603068D01*
X178748392Y-122782392D01*
X178569068Y-123000899D01*
X178435818Y-123250192D01*
X178353764Y-123520691D01*
X178326057Y-123802000D01*
X178353764Y-124083309D01*
X178435818Y-124353808D01*
X178569068Y-124603101D01*
X178748392Y-124821608D01*
X178966899Y-125000932D01*
X179216192Y-125134182D01*
X179486691Y-125216236D01*
X179697508Y-125237000D01*
X179838492Y-125237000D01*
X180049309Y-125216236D01*
X180319808Y-125134182D01*
X180569101Y-125000932D01*
X180787608Y-124821608D01*
X180966932Y-124603101D01*
X180967520Y-124602000D01*
X191029928Y-124602000D01*
X191042188Y-124726482D01*
X191078498Y-124846180D01*
X191137463Y-124956494D01*
X191216815Y-125053185D01*
X191313506Y-125132537D01*
X191423820Y-125191502D01*
X191543518Y-125227812D01*
X191668000Y-125240072D01*
X191836250Y-125237000D01*
X191995000Y-125078250D01*
X191995000Y-124275000D01*
X192941000Y-124275000D01*
X192941000Y-125078250D01*
X193099750Y-125237000D01*
X193268000Y-125240072D01*
X193392482Y-125227812D01*
X193512180Y-125191502D01*
X193622494Y-125132537D01*
X193719185Y-125053185D01*
X193798537Y-124956494D01*
X193857502Y-124846180D01*
X193893812Y-124726482D01*
X193906072Y-124602000D01*
X193903000Y-124433750D01*
X193744250Y-124275000D01*
X192941000Y-124275000D01*
X191995000Y-124275000D01*
X191191750Y-124275000D01*
X191033000Y-124433750D01*
X191029928Y-124602000D01*
X180967520Y-124602000D01*
X181100182Y-124353808D01*
X181182236Y-124083309D01*
X181209943Y-123802000D01*
X181182236Y-123520691D01*
X181100182Y-123250192D01*
X180966932Y-123000899D01*
X180787608Y-122782392D01*
X180569101Y-122603068D01*
X180436142Y-122532000D01*
X180569101Y-122460932D01*
X180787608Y-122281608D01*
X180966932Y-122063101D01*
X181100182Y-121813808D01*
X181182236Y-121543309D01*
X181209943Y-121262000D01*
X181182236Y-120980691D01*
X181100182Y-120710192D01*
X180966932Y-120460899D01*
X180787608Y-120242392D01*
X180569101Y-120063068D01*
X180436142Y-119992000D01*
X180569101Y-119920932D01*
X180787608Y-119741608D01*
X180966932Y-119523101D01*
X181100182Y-119273808D01*
X181182236Y-119003309D01*
X181209943Y-118722000D01*
X181182236Y-118440691D01*
X181100182Y-118170192D01*
X180966932Y-117920899D01*
X180787608Y-117702392D01*
X180569101Y-117523068D01*
X180436142Y-117452000D01*
X180569101Y-117380932D01*
X180787608Y-117201608D01*
X180966932Y-116983101D01*
X181100182Y-116733808D01*
X181182236Y-116463309D01*
X181209943Y-116182000D01*
X181182236Y-115900691D01*
X181100182Y-115630192D01*
X180966932Y-115380899D01*
X180787608Y-115162392D01*
X180569101Y-114983068D01*
X180436142Y-114912000D01*
X180569101Y-114840932D01*
X180787608Y-114661608D01*
X180966932Y-114443101D01*
X181100182Y-114193808D01*
X181182236Y-113923309D01*
X181209943Y-113642000D01*
X181182236Y-113360691D01*
X181100182Y-113090192D01*
X180966932Y-112840899D01*
X180787608Y-112622392D01*
X180569101Y-112443068D01*
X180436142Y-112372000D01*
X180569101Y-112300932D01*
X180787608Y-112121608D01*
X180966932Y-111903101D01*
X181100182Y-111653808D01*
X181182236Y-111383309D01*
X181209943Y-111102000D01*
X191026057Y-111102000D01*
X191053764Y-111383309D01*
X191135818Y-111653808D01*
X191269068Y-111903101D01*
X191448392Y-112121608D01*
X191666899Y-112300932D01*
X191799858Y-112372000D01*
X191666899Y-112443068D01*
X191448392Y-112622392D01*
X191269068Y-112840899D01*
X191135818Y-113090192D01*
X191053764Y-113360691D01*
X191026057Y-113642000D01*
X191053764Y-113923309D01*
X191135818Y-114193808D01*
X191269068Y-114443101D01*
X191448392Y-114661608D01*
X191666899Y-114840932D01*
X191799858Y-114912000D01*
X191666899Y-114983068D01*
X191448392Y-115162392D01*
X191269068Y-115380899D01*
X191135818Y-115630192D01*
X191053764Y-115900691D01*
X191026057Y-116182000D01*
X191053764Y-116463309D01*
X191135818Y-116733808D01*
X191269068Y-116983101D01*
X191448392Y-117201608D01*
X191666899Y-117380932D01*
X191799858Y-117452000D01*
X191666899Y-117523068D01*
X191448392Y-117702392D01*
X191269068Y-117920899D01*
X191135818Y-118170192D01*
X191053764Y-118440691D01*
X191026057Y-118722000D01*
X191053764Y-119003309D01*
X191135818Y-119273808D01*
X191269068Y-119523101D01*
X191448392Y-119741608D01*
X191666899Y-119920932D01*
X191799858Y-119992000D01*
X191666899Y-120063068D01*
X191448392Y-120242392D01*
X191269068Y-120460899D01*
X191135818Y-120710192D01*
X191053764Y-120980691D01*
X191026057Y-121262000D01*
X191053764Y-121543309D01*
X191135818Y-121813808D01*
X191269068Y-122063101D01*
X191448392Y-122281608D01*
X191561482Y-122374419D01*
X191543518Y-122376188D01*
X191423820Y-122412498D01*
X191313506Y-122471463D01*
X191216815Y-122550815D01*
X191137463Y-122647506D01*
X191078498Y-122757820D01*
X191042188Y-122877518D01*
X191029928Y-123002000D01*
X191033000Y-123170250D01*
X191191750Y-123329000D01*
X191995000Y-123329000D01*
X191995000Y-123309000D01*
X192941000Y-123309000D01*
X192941000Y-123329000D01*
X193744250Y-123329000D01*
X193903000Y-123170250D01*
X193906072Y-123002000D01*
X193893812Y-122877518D01*
X193857502Y-122757820D01*
X193798537Y-122647506D01*
X193719185Y-122550815D01*
X193622494Y-122471463D01*
X193512180Y-122412498D01*
X193392482Y-122376188D01*
X193374518Y-122374419D01*
X193487608Y-122281608D01*
X193666932Y-122063101D01*
X193800182Y-121813808D01*
X193882236Y-121543309D01*
X193909943Y-121262000D01*
X193882236Y-120980691D01*
X193800182Y-120710192D01*
X193666932Y-120460899D01*
X193487608Y-120242392D01*
X193269101Y-120063068D01*
X193136142Y-119992000D01*
X193269101Y-119920932D01*
X193487608Y-119741608D01*
X193666932Y-119523101D01*
X193800182Y-119273808D01*
X193882236Y-119003309D01*
X193909943Y-118722000D01*
X193882236Y-118440691D01*
X193800182Y-118170192D01*
X193666932Y-117920899D01*
X193487608Y-117702392D01*
X193269101Y-117523068D01*
X193136142Y-117452000D01*
X193269101Y-117380932D01*
X193487608Y-117201608D01*
X193666932Y-116983101D01*
X193800182Y-116733808D01*
X193882236Y-116463309D01*
X193909943Y-116182000D01*
X193882236Y-115900691D01*
X193800182Y-115630192D01*
X193666932Y-115380899D01*
X193487608Y-115162392D01*
X193269101Y-114983068D01*
X193136142Y-114912000D01*
X193269101Y-114840932D01*
X193487608Y-114661608D01*
X193666932Y-114443101D01*
X193800182Y-114193808D01*
X193882236Y-113923309D01*
X193909943Y-113642000D01*
X193882236Y-113360691D01*
X193800182Y-113090192D01*
X193666932Y-112840899D01*
X193487608Y-112622392D01*
X193269101Y-112443068D01*
X193136142Y-112372000D01*
X193269101Y-112300932D01*
X193487608Y-112121608D01*
X193666932Y-111903101D01*
X193800182Y-111653808D01*
X193882236Y-111383309D01*
X193909943Y-111102000D01*
X193882236Y-110820691D01*
X193800182Y-110550192D01*
X193666932Y-110300899D01*
X193487608Y-110082392D01*
X193269101Y-109903068D01*
X193089749Y-109807202D01*
X193147118Y-109826150D01*
X193380692Y-109669370D01*
X193579192Y-109470035D01*
X193732132Y-109241115D01*
X193653363Y-109035000D01*
X192941000Y-109035000D01*
X192941000Y-109055000D01*
X191995000Y-109055000D01*
X191995000Y-109035000D01*
X191282637Y-109035000D01*
X191203868Y-109241115D01*
X191356808Y-109470035D01*
X191555308Y-109669370D01*
X191788882Y-109826150D01*
X191846251Y-109807202D01*
X191666899Y-109903068D01*
X191448392Y-110082392D01*
X191269068Y-110300899D01*
X191135818Y-110550192D01*
X191053764Y-110820691D01*
X191026057Y-111102000D01*
X181209943Y-111102000D01*
X181182236Y-110820691D01*
X181100182Y-110550192D01*
X180966932Y-110300899D01*
X180787608Y-110082392D01*
X180569101Y-109903068D01*
X180436142Y-109832000D01*
X180569101Y-109760932D01*
X180787608Y-109581608D01*
X180966932Y-109363101D01*
X181100182Y-109113808D01*
X181182236Y-108843309D01*
X181209943Y-108562000D01*
X181182236Y-108280691D01*
X181100182Y-108010192D01*
X180966932Y-107760899D01*
X180787608Y-107542392D01*
X180569101Y-107363068D01*
X180436142Y-107292000D01*
X180569101Y-107220932D01*
X180787608Y-107041608D01*
X180966932Y-106823101D01*
X181100182Y-106573808D01*
X181182236Y-106303309D01*
X181209943Y-106022000D01*
X181182236Y-105740691D01*
X181100182Y-105470192D01*
X180966932Y-105220899D01*
X180787608Y-105002392D01*
X180569101Y-104823068D01*
X180319808Y-104689818D01*
X180049309Y-104607764D01*
X179838492Y-104587000D01*
X179697508Y-104587000D01*
X179486691Y-104607764D01*
X179216192Y-104689818D01*
X178966899Y-104823068D01*
X178748392Y-105002392D01*
X178569068Y-105220899D01*
X178435818Y-105470192D01*
X178353764Y-105740691D01*
X178326057Y-106022000D01*
X178327356Y-106035192D01*
X178326729Y-106034932D01*
X178249785Y-106019627D01*
X175714224Y-103484066D01*
X175795762Y-103402528D01*
X175898086Y-103249389D01*
X175968568Y-103079229D01*
X175981742Y-103013000D01*
X195481928Y-103013000D01*
X195494188Y-103137482D01*
X195530498Y-103257180D01*
X195589463Y-103367494D01*
X195668815Y-103464185D01*
X195765506Y-103543537D01*
X195875820Y-103602502D01*
X195995518Y-103638812D01*
X196120000Y-103651072D01*
X197488250Y-103648000D01*
X197647000Y-103489250D01*
X197647000Y-102486000D01*
X195643750Y-102486000D01*
X195485000Y-102644750D01*
X195481928Y-103013000D01*
X175981742Y-103013000D01*
X176001037Y-102916000D01*
X176114089Y-102916000D01*
X176294729Y-102880068D01*
X176464889Y-102809586D01*
X176618028Y-102707262D01*
X176748262Y-102577028D01*
X176850586Y-102423889D01*
X176921068Y-102253729D01*
X176957000Y-102073089D01*
X176957000Y-101888911D01*
X176921068Y-101708271D01*
X176850586Y-101538111D01*
X176748262Y-101384972D01*
X176618028Y-101254738D01*
X176464889Y-101152414D01*
X176294729Y-101081932D01*
X176217784Y-101066627D01*
X176164157Y-101013000D01*
X195481928Y-101013000D01*
X195485000Y-101381250D01*
X195643750Y-101540000D01*
X197647000Y-101540000D01*
X197647000Y-100536750D01*
X197488250Y-100378000D01*
X196120000Y-100374928D01*
X195995518Y-100387188D01*
X195875820Y-100423498D01*
X195765506Y-100482463D01*
X195668815Y-100561815D01*
X195589463Y-100658506D01*
X195530498Y-100768820D01*
X195494188Y-100888518D01*
X195481928Y-101013000D01*
X176164157Y-101013000D01*
X173632000Y-98480843D01*
X173632000Y-98425120D01*
X173675586Y-98359889D01*
X173746068Y-98189729D01*
X173782000Y-98009089D01*
X173782000Y-97824911D01*
X173746068Y-97644271D01*
X173675586Y-97474111D01*
X173573262Y-97320972D01*
X173443028Y-97190738D01*
X173289889Y-97088414D01*
X173119729Y-97017932D01*
X172939089Y-96982000D01*
X172754911Y-96982000D01*
X172574271Y-97017932D01*
X172404111Y-97088414D01*
X172250972Y-97190738D01*
X172120738Y-97320972D01*
X172018414Y-97474111D01*
X171947932Y-97644271D01*
X171912000Y-97824911D01*
X171912000Y-98009089D01*
X171947932Y-98189729D01*
X172018414Y-98359889D01*
X172062000Y-98425120D01*
X172062000Y-98688842D01*
X169547069Y-96173911D01*
X174198000Y-96173911D01*
X174198000Y-96358089D01*
X174233932Y-96538729D01*
X174304414Y-96708889D01*
X174406738Y-96862028D01*
X174536972Y-96992262D01*
X174690111Y-97094586D01*
X174860271Y-97165068D01*
X174937216Y-97180374D01*
X175246843Y-97490000D01*
X175167911Y-97490000D01*
X174987271Y-97525932D01*
X174817111Y-97596414D01*
X174663972Y-97698738D01*
X174533738Y-97828972D01*
X174431414Y-97982111D01*
X174360932Y-98152271D01*
X174325000Y-98332911D01*
X174325000Y-98517089D01*
X174360932Y-98697729D01*
X174431414Y-98867889D01*
X174533738Y-99021028D01*
X174663972Y-99151262D01*
X174817111Y-99253586D01*
X174987271Y-99324068D01*
X175064217Y-99339374D01*
X175473508Y-99748665D01*
X175488811Y-99825596D01*
X175559293Y-99995756D01*
X175661617Y-100148895D01*
X175791851Y-100279129D01*
X175944990Y-100381453D01*
X176115150Y-100451935D01*
X176295790Y-100487867D01*
X176479968Y-100487867D01*
X176660608Y-100451935D01*
X176830768Y-100381453D01*
X176983907Y-100279129D01*
X177114141Y-100148895D01*
X177216465Y-99995756D01*
X177286947Y-99825596D01*
X177302830Y-99745750D01*
X177327738Y-99783028D01*
X177457972Y-99913262D01*
X177611111Y-100015586D01*
X177781271Y-100086068D01*
X177961911Y-100122000D01*
X178146089Y-100122000D01*
X178326729Y-100086068D01*
X178496889Y-100015586D01*
X178650028Y-99913262D01*
X178780262Y-99783028D01*
X178882586Y-99629889D01*
X178953068Y-99459729D01*
X178989000Y-99279089D01*
X178989000Y-99094911D01*
X178953068Y-98914271D01*
X178882586Y-98744111D01*
X178780262Y-98590972D01*
X178650028Y-98460738D01*
X178599792Y-98427172D01*
X178750889Y-98364586D01*
X178904028Y-98262262D01*
X179034262Y-98132028D01*
X179136586Y-97978889D01*
X179207068Y-97808729D01*
X179243000Y-97628089D01*
X179243000Y-97443911D01*
X179207068Y-97263271D01*
X179136586Y-97093111D01*
X179093006Y-97027889D01*
X179093006Y-95758114D01*
X179136592Y-95692883D01*
X179207074Y-95522723D01*
X179243006Y-95342083D01*
X179243006Y-95157905D01*
X179207074Y-94977265D01*
X179136592Y-94807105D01*
X179034268Y-94653966D01*
X178904034Y-94523732D01*
X178750895Y-94421408D01*
X178580735Y-94350926D01*
X178400095Y-94314994D01*
X178215917Y-94314994D01*
X178035277Y-94350926D01*
X177865117Y-94421408D01*
X177711978Y-94523732D01*
X177581744Y-94653966D01*
X177479420Y-94807105D01*
X177408938Y-94977265D01*
X177373006Y-95157905D01*
X177373006Y-95342083D01*
X177408938Y-95522723D01*
X177479420Y-95692883D01*
X177523006Y-95758115D01*
X177523007Y-97027870D01*
X177479414Y-97093111D01*
X177408932Y-97263271D01*
X177380975Y-97403817D01*
X176047374Y-96070216D01*
X176032068Y-95993271D01*
X175961586Y-95823111D01*
X175859262Y-95669972D01*
X175729028Y-95539738D01*
X175575889Y-95437414D01*
X175405729Y-95366932D01*
X175225089Y-95331000D01*
X175040911Y-95331000D01*
X174860271Y-95366932D01*
X174690111Y-95437414D01*
X174536972Y-95539738D01*
X174406738Y-95669972D01*
X174304414Y-95823111D01*
X174233932Y-95993271D01*
X174198000Y-96173911D01*
X169547069Y-96173911D01*
X167792381Y-94419224D01*
X167777074Y-94342271D01*
X167706592Y-94172111D01*
X167604268Y-94018972D01*
X167474034Y-93888738D01*
X167320895Y-93786414D01*
X167150735Y-93715932D01*
X166970095Y-93680000D01*
X166785917Y-93680000D01*
X166605277Y-93715932D01*
X166435117Y-93786414D01*
X166281978Y-93888738D01*
X166151744Y-94018972D01*
X166049420Y-94172111D01*
X165978938Y-94342271D01*
X165966435Y-94405125D01*
X165927111Y-94421414D01*
X165773972Y-94523738D01*
X165643738Y-94653972D01*
X165541414Y-94807111D01*
X165470932Y-94977271D01*
X165435000Y-95157911D01*
X162420124Y-95157911D01*
X165048446Y-92529589D01*
X165201698Y-92593068D01*
X165382338Y-92629000D01*
X165566516Y-92629000D01*
X165747156Y-92593068D01*
X165917316Y-92522586D01*
X166070455Y-92420262D01*
X166200689Y-92290028D01*
X166303013Y-92136889D01*
X166373495Y-91966729D01*
X166409427Y-91786089D01*
X166409427Y-91601911D01*
X166373495Y-91421271D01*
X166303013Y-91251111D01*
X166200689Y-91097972D01*
X166070455Y-90967738D01*
X165917316Y-90865414D01*
X165747156Y-90794932D01*
X165566516Y-90759000D01*
X165382338Y-90759000D01*
X165201698Y-90794932D01*
X165031538Y-90865414D01*
X164966307Y-90909000D01*
X164812434Y-90909000D01*
X164773878Y-90905203D01*
X164735322Y-90909000D01*
X164735317Y-90909000D01*
X164694904Y-90912980D01*
X164619991Y-90920358D01*
X164472018Y-90965246D01*
X164335645Y-91038138D01*
X164216114Y-91136236D01*
X164191531Y-91166190D01*
X152062190Y-103295531D01*
X152032236Y-103320114D01*
X151934138Y-103439646D01*
X151861246Y-103576019D01*
X151816359Y-103723992D01*
X151805000Y-103839318D01*
X151805000Y-103839325D01*
X151801203Y-103877878D01*
X151805000Y-103916431D01*
X151805001Y-104814461D01*
X151788899Y-104823068D01*
X151570392Y-105002392D01*
X151391068Y-105220899D01*
X151257818Y-105470192D01*
X151175764Y-105740691D01*
X151148057Y-106022000D01*
X131885000Y-106022000D01*
X131885000Y-105222000D01*
X138451928Y-105222000D01*
X138455000Y-105390250D01*
X138613750Y-105549000D01*
X139417000Y-105549000D01*
X139417000Y-104745750D01*
X140363000Y-104745750D01*
X140363000Y-105549000D01*
X141166250Y-105549000D01*
X141325000Y-105390250D01*
X141328072Y-105222000D01*
X141315812Y-105097518D01*
X141279502Y-104977820D01*
X141220537Y-104867506D01*
X141141185Y-104770815D01*
X141044494Y-104691463D01*
X140934180Y-104632498D01*
X140814482Y-104596188D01*
X140690000Y-104583928D01*
X140521750Y-104587000D01*
X140363000Y-104745750D01*
X139417000Y-104745750D01*
X139258250Y-104587000D01*
X139090000Y-104583928D01*
X138965518Y-104596188D01*
X138845820Y-104632498D01*
X138735506Y-104691463D01*
X138638815Y-104770815D01*
X138559463Y-104867506D01*
X138500498Y-104977820D01*
X138464188Y-105097518D01*
X138451928Y-105222000D01*
X131885000Y-105222000D01*
X131885000Y-93427011D01*
X133226250Y-93424000D01*
X133385000Y-93265250D01*
X133385000Y-92262000D01*
X134331000Y-92262000D01*
X134331000Y-93265250D01*
X134489750Y-93424000D01*
X135858000Y-93427072D01*
X135982482Y-93414812D01*
X136102180Y-93378502D01*
X136212494Y-93319537D01*
X136309185Y-93240185D01*
X136388537Y-93143494D01*
X136447502Y-93033180D01*
X136483812Y-92913482D01*
X136496072Y-92789000D01*
X136493000Y-92420750D01*
X136334250Y-92262000D01*
X134331000Y-92262000D01*
X133385000Y-92262000D01*
X133365000Y-92262000D01*
X133365000Y-91316000D01*
X133385000Y-91316000D01*
X133385000Y-90312750D01*
X134331000Y-90312750D01*
X134331000Y-91316000D01*
X136334250Y-91316000D01*
X136493000Y-91157250D01*
X136496072Y-90789000D01*
X136483812Y-90664518D01*
X136447502Y-90544820D01*
X136388537Y-90434506D01*
X136309185Y-90337815D01*
X136212494Y-90258463D01*
X136102180Y-90199498D01*
X135982482Y-90163188D01*
X135858000Y-90150928D01*
X134489750Y-90154000D01*
X134331000Y-90312750D01*
X133385000Y-90312750D01*
X133226250Y-90154000D01*
X131885000Y-90150989D01*
X131885000Y-89427072D01*
X135858000Y-89427072D01*
X135982482Y-89414812D01*
X136102180Y-89378502D01*
X136212494Y-89319537D01*
X136309185Y-89240185D01*
X136388537Y-89143494D01*
X136447502Y-89033180D01*
X136480621Y-88924000D01*
X138570015Y-88924000D01*
X138580899Y-88932932D01*
X138830192Y-89066182D01*
X139100691Y-89148236D01*
X139311508Y-89169000D01*
X139452492Y-89169000D01*
X139663309Y-89148236D01*
X139933808Y-89066182D01*
X140183101Y-88932932D01*
X140401608Y-88753608D01*
X140580932Y-88535101D01*
X140714182Y-88285808D01*
X140796236Y-88015309D01*
X140823943Y-87734000D01*
X140796236Y-87452691D01*
X140714182Y-87182192D01*
X140580932Y-86932899D01*
X140401608Y-86714392D01*
X140183101Y-86535068D01*
X140003749Y-86439202D01*
X140061118Y-86458150D01*
X140294692Y-86301370D01*
X140493192Y-86102035D01*
X140646132Y-85873115D01*
X140567363Y-85667000D01*
X139855000Y-85667000D01*
X139855000Y-85687000D01*
X138909000Y-85687000D01*
X138909000Y-85667000D01*
X138196637Y-85667000D01*
X138117868Y-85873115D01*
X138270808Y-86102035D01*
X138469308Y-86301370D01*
X138702882Y-86458150D01*
X138760251Y-86439202D01*
X138580899Y-86535068D01*
X138435980Y-86654000D01*
X136480621Y-86654000D01*
X136447502Y-86544820D01*
X136388537Y-86434506D01*
X136309185Y-86337815D01*
X136212494Y-86258463D01*
X136102180Y-86199498D01*
X135982482Y-86163188D01*
X135858000Y-86150928D01*
X131885000Y-86150928D01*
X131885000Y-83519211D01*
X132040866Y-83709134D01*
X132266986Y-83894706D01*
X132524966Y-84032599D01*
X132804889Y-84117513D01*
X133023050Y-84139000D01*
X133168950Y-84139000D01*
X133387111Y-84117513D01*
X133667034Y-84032599D01*
X133925014Y-83894706D01*
X134151134Y-83709134D01*
X134336706Y-83483014D01*
X134474599Y-83225034D01*
X134559513Y-82945111D01*
X134588185Y-82654000D01*
X134559513Y-82362889D01*
X134474599Y-82082966D01*
X134336706Y-81824986D01*
X134151134Y-81598866D01*
X133925014Y-81413294D01*
X133870209Y-81384000D01*
X133925014Y-81354706D01*
X134151134Y-81169134D01*
X134336706Y-80943014D01*
X134474599Y-80685034D01*
X134559513Y-80405111D01*
X134588185Y-80114000D01*
X134559513Y-79822889D01*
X134474599Y-79542966D01*
X134336706Y-79284986D01*
X134151134Y-79058866D01*
X133925014Y-78873294D01*
X133870209Y-78844000D01*
X133925014Y-78814706D01*
X134151134Y-78629134D01*
X134336706Y-78403014D01*
X134474599Y-78145034D01*
X134559513Y-77865111D01*
X134588185Y-77574000D01*
X134559513Y-77282889D01*
X134474599Y-77002966D01*
X134336706Y-76744986D01*
X134151134Y-76518866D01*
X134121313Y-76494393D01*
X134190180Y-76473502D01*
X134300494Y-76414537D01*
X134397185Y-76335185D01*
X134476537Y-76238494D01*
X134535502Y-76128180D01*
X134571812Y-76008482D01*
X134584072Y-75884000D01*
X134584072Y-74184000D01*
X134571812Y-74059518D01*
X134535502Y-73939820D01*
X134476537Y-73829506D01*
X134397185Y-73732815D01*
X134300494Y-73653463D01*
X134190180Y-73594498D01*
X134070482Y-73558188D01*
X133946000Y-73545928D01*
X132246000Y-73545928D01*
X132121518Y-73558188D01*
X132001820Y-73594498D01*
X131891506Y-73653463D01*
X131885000Y-73658802D01*
X131885000Y-72494000D01*
X137940057Y-72494000D01*
X137967764Y-72775309D01*
X138049818Y-73045808D01*
X138183068Y-73295101D01*
X138362392Y-73513608D01*
X138580899Y-73692932D01*
X138713858Y-73764000D01*
X138580899Y-73835068D01*
X138362392Y-74014392D01*
X138183068Y-74232899D01*
X138049818Y-74482192D01*
X137967764Y-74752691D01*
X137940057Y-75034000D01*
X137967764Y-75315309D01*
X138049818Y-75585808D01*
X138183068Y-75835101D01*
X138362392Y-76053608D01*
X138580899Y-76232932D01*
X138713858Y-76304000D01*
X138580899Y-76375068D01*
X138362392Y-76554392D01*
X138183068Y-76772899D01*
X138049818Y-77022192D01*
X137967764Y-77292691D01*
X137940057Y-77574000D01*
X137967764Y-77855309D01*
X138049818Y-78125808D01*
X138183068Y-78375101D01*
X138362392Y-78593608D01*
X138580899Y-78772932D01*
X138713858Y-78844000D01*
X138580899Y-78915068D01*
X138362392Y-79094392D01*
X138183068Y-79312899D01*
X138049818Y-79562192D01*
X137967764Y-79832691D01*
X137940057Y-80114000D01*
X137967764Y-80395309D01*
X138049818Y-80665808D01*
X138183068Y-80915101D01*
X138362392Y-81133608D01*
X138580899Y-81312932D01*
X138713858Y-81384000D01*
X138580899Y-81455068D01*
X138362392Y-81634392D01*
X138183068Y-81852899D01*
X138049818Y-82102192D01*
X137967764Y-82372691D01*
X137940057Y-82654000D01*
X137967764Y-82935309D01*
X138049818Y-83205808D01*
X138183068Y-83455101D01*
X138362392Y-83673608D01*
X138580899Y-83852932D01*
X138760251Y-83948798D01*
X138702882Y-83929850D01*
X138469308Y-84086630D01*
X138270808Y-84285965D01*
X138117868Y-84514885D01*
X138196637Y-84721000D01*
X138909000Y-84721000D01*
X138909000Y-84701000D01*
X139855000Y-84701000D01*
X139855000Y-84721000D01*
X140567363Y-84721000D01*
X140646132Y-84514885D01*
X140493192Y-84285965D01*
X140294692Y-84086630D01*
X140061118Y-83929850D01*
X140003749Y-83948798D01*
X140183101Y-83852932D01*
X140401608Y-83673608D01*
X140580932Y-83455101D01*
X140714182Y-83205808D01*
X140796236Y-82935309D01*
X140823943Y-82654000D01*
X140796236Y-82372691D01*
X140714182Y-82102192D01*
X140580932Y-81852899D01*
X140401608Y-81634392D01*
X140183101Y-81455068D01*
X140050142Y-81384000D01*
X140183101Y-81312932D01*
X140401608Y-81133608D01*
X140580932Y-80915101D01*
X140714182Y-80665808D01*
X140796236Y-80395309D01*
X140823943Y-80114000D01*
X140796236Y-79832691D01*
X140714182Y-79562192D01*
X140580932Y-79312899D01*
X140401608Y-79094392D01*
X140183101Y-78915068D01*
X140050142Y-78844000D01*
X140183101Y-78772932D01*
X140401608Y-78593608D01*
X140580932Y-78375101D01*
X140714182Y-78125808D01*
X140796236Y-77855309D01*
X140823943Y-77574000D01*
X140796236Y-77292691D01*
X140714182Y-77022192D01*
X140580932Y-76772899D01*
X140401608Y-76554392D01*
X140183101Y-76375068D01*
X140050142Y-76304000D01*
X140183101Y-76232932D01*
X140401608Y-76053608D01*
X140580932Y-75835101D01*
X140714182Y-75585808D01*
X140796236Y-75315309D01*
X140823943Y-75034000D01*
X140796236Y-74752691D01*
X140714182Y-74482192D01*
X140580932Y-74232899D01*
X140401608Y-74014392D01*
X140183101Y-73835068D01*
X140050142Y-73764000D01*
X140183101Y-73692932D01*
X140401608Y-73513608D01*
X140580932Y-73295101D01*
X140714182Y-73045808D01*
X140796236Y-72775309D01*
X140823943Y-72494000D01*
X140796236Y-72212691D01*
X140714182Y-71942192D01*
X140580932Y-71692899D01*
X140401608Y-71474392D01*
X140288518Y-71381581D01*
X140306482Y-71379812D01*
X140426180Y-71343502D01*
X140536494Y-71284537D01*
X140633185Y-71205185D01*
X140712537Y-71108494D01*
X140771502Y-70998180D01*
X140807812Y-70878482D01*
X140820072Y-70754000D01*
X140817000Y-70585750D01*
X140658250Y-70427000D01*
X139855000Y-70427000D01*
X139855000Y-70447000D01*
X138909000Y-70447000D01*
X138909000Y-70427000D01*
X138105750Y-70427000D01*
X137947000Y-70585750D01*
X137943928Y-70754000D01*
X137956188Y-70878482D01*
X137992498Y-70998180D01*
X138051463Y-71108494D01*
X138130815Y-71205185D01*
X138227506Y-71284537D01*
X138337820Y-71343502D01*
X138457518Y-71379812D01*
X138475482Y-71381581D01*
X138362392Y-71474392D01*
X138183068Y-71692899D01*
X138049818Y-71942192D01*
X137967764Y-72212691D01*
X137940057Y-72494000D01*
X131885000Y-72494000D01*
X131885000Y-69954000D01*
X150640057Y-69954000D01*
X150667764Y-70235309D01*
X150749818Y-70505808D01*
X150883068Y-70755101D01*
X151062392Y-70973608D01*
X151280899Y-71152932D01*
X151413858Y-71224000D01*
X151280899Y-71295068D01*
X151062392Y-71474392D01*
X150883068Y-71692899D01*
X150749818Y-71942192D01*
X150667764Y-72212691D01*
X150640057Y-72494000D01*
X150667764Y-72775309D01*
X150749818Y-73045808D01*
X150883068Y-73295101D01*
X151062392Y-73513608D01*
X151280899Y-73692932D01*
X151413858Y-73764000D01*
X151280899Y-73835068D01*
X151062392Y-74014392D01*
X150883068Y-74232899D01*
X150749818Y-74482192D01*
X150667764Y-74752691D01*
X150640057Y-75034000D01*
X150667764Y-75315309D01*
X150749818Y-75585808D01*
X150883068Y-75835101D01*
X151062392Y-76053608D01*
X151280899Y-76232932D01*
X151413858Y-76304000D01*
X151280899Y-76375068D01*
X151062392Y-76554392D01*
X150883068Y-76772899D01*
X150749818Y-77022192D01*
X150667764Y-77292691D01*
X150640057Y-77574000D01*
X150667764Y-77855309D01*
X150749818Y-78125808D01*
X150883068Y-78375101D01*
X151062392Y-78593608D01*
X151280899Y-78772932D01*
X151413858Y-78844000D01*
X151280899Y-78915068D01*
X151062392Y-79094392D01*
X150883068Y-79312899D01*
X150749818Y-79562192D01*
X150667764Y-79832691D01*
X150640057Y-80114000D01*
X150667764Y-80395309D01*
X150749818Y-80665808D01*
X150883068Y-80915101D01*
X151062392Y-81133608D01*
X151280899Y-81312932D01*
X151413858Y-81384000D01*
X151280899Y-81455068D01*
X151062392Y-81634392D01*
X150883068Y-81852899D01*
X150749818Y-82102192D01*
X150667764Y-82372691D01*
X150640057Y-82654000D01*
X150667764Y-82935309D01*
X150749818Y-83205808D01*
X150883068Y-83455101D01*
X151062392Y-83673608D01*
X151280899Y-83852932D01*
X151413858Y-83924000D01*
X151280899Y-83995068D01*
X151062392Y-84174392D01*
X150883068Y-84392899D01*
X150749818Y-84642192D01*
X150667764Y-84912691D01*
X150640057Y-85194000D01*
X150667764Y-85475309D01*
X150749818Y-85745808D01*
X150883068Y-85995101D01*
X151062392Y-86213608D01*
X151280899Y-86392932D01*
X151413858Y-86464000D01*
X151280899Y-86535068D01*
X151062392Y-86714392D01*
X150883068Y-86932899D01*
X150749818Y-87182192D01*
X150667764Y-87452691D01*
X150640057Y-87734000D01*
X150667764Y-88015309D01*
X150749818Y-88285808D01*
X150883068Y-88535101D01*
X151062392Y-88753608D01*
X151280899Y-88932932D01*
X151530192Y-89066182D01*
X151800691Y-89148236D01*
X152011508Y-89169000D01*
X152152492Y-89169000D01*
X152363309Y-89148236D01*
X152633808Y-89066182D01*
X152883101Y-88932932D01*
X153101608Y-88753608D01*
X153132499Y-88715967D01*
X155400000Y-88715967D01*
X155400000Y-89038033D01*
X155462832Y-89353912D01*
X155586082Y-89651463D01*
X155765013Y-89919252D01*
X155992748Y-90146987D01*
X156260537Y-90325918D01*
X156558088Y-90449168D01*
X156873967Y-90512000D01*
X157196033Y-90512000D01*
X157511912Y-90449168D01*
X157809463Y-90325918D01*
X158077252Y-90146987D01*
X158304987Y-89919252D01*
X158483918Y-89651463D01*
X158607168Y-89353912D01*
X158670000Y-89038033D01*
X158670000Y-88715967D01*
X158607168Y-88400088D01*
X158483918Y-88102537D01*
X158304987Y-87834748D01*
X158077252Y-87607013D01*
X157836230Y-87445967D01*
X158448000Y-87445967D01*
X158448000Y-87768033D01*
X158510832Y-88083912D01*
X158634082Y-88381463D01*
X158813013Y-88649252D01*
X159040748Y-88876987D01*
X159308537Y-89055918D01*
X159606088Y-89179168D01*
X159921967Y-89242000D01*
X160244033Y-89242000D01*
X160559912Y-89179168D01*
X160857463Y-89055918D01*
X161125252Y-88876987D01*
X161352987Y-88649252D01*
X161531918Y-88381463D01*
X161655168Y-88083912D01*
X161718000Y-87768033D01*
X161718000Y-87537923D01*
X172293000Y-87537923D01*
X172293000Y-87722101D01*
X172328932Y-87902741D01*
X172399414Y-88072901D01*
X172501738Y-88226040D01*
X172631972Y-88356274D01*
X172785111Y-88458598D01*
X172955271Y-88529080D01*
X173032232Y-88544389D01*
X179679627Y-95191785D01*
X179694932Y-95268729D01*
X179765414Y-95438889D01*
X179867738Y-95592028D01*
X179997972Y-95722262D01*
X180151111Y-95824586D01*
X180321271Y-95895068D01*
X180501911Y-95931000D01*
X180686089Y-95931000D01*
X180866729Y-95895068D01*
X181036889Y-95824586D01*
X181190028Y-95722262D01*
X181320262Y-95592028D01*
X181422586Y-95438889D01*
X181493068Y-95268729D01*
X181529000Y-95088089D01*
X181529000Y-94903911D01*
X181493068Y-94723271D01*
X181422586Y-94553111D01*
X181320262Y-94399972D01*
X181190028Y-94269738D01*
X181036889Y-94167414D01*
X180866729Y-94096932D01*
X180789785Y-94081627D01*
X174142371Y-87434214D01*
X174127068Y-87357283D01*
X174056586Y-87187123D01*
X173954262Y-87033984D01*
X173824028Y-86903750D01*
X173670889Y-86801426D01*
X173500729Y-86730944D01*
X173320089Y-86695012D01*
X173135911Y-86695012D01*
X172955271Y-86730944D01*
X172785111Y-86801426D01*
X172631972Y-86903750D01*
X172501738Y-87033984D01*
X172399414Y-87187123D01*
X172328932Y-87357283D01*
X172293000Y-87537923D01*
X161718000Y-87537923D01*
X161718000Y-87445967D01*
X161655168Y-87130088D01*
X161531918Y-86832537D01*
X161352987Y-86564748D01*
X161125252Y-86337013D01*
X160857463Y-86158082D01*
X160559912Y-86034832D01*
X160244033Y-85972000D01*
X159921967Y-85972000D01*
X159606088Y-86034832D01*
X159308537Y-86158082D01*
X159040748Y-86337013D01*
X158813013Y-86564748D01*
X158634082Y-86832537D01*
X158510832Y-87130088D01*
X158448000Y-87445967D01*
X157836230Y-87445967D01*
X157809463Y-87428082D01*
X157511912Y-87304832D01*
X157196033Y-87242000D01*
X156873967Y-87242000D01*
X156558088Y-87304832D01*
X156260537Y-87428082D01*
X155992748Y-87607013D01*
X155765013Y-87834748D01*
X155586082Y-88102537D01*
X155462832Y-88400088D01*
X155400000Y-88715967D01*
X153132499Y-88715967D01*
X153280932Y-88535101D01*
X153414182Y-88285808D01*
X153496236Y-88015309D01*
X153523943Y-87734000D01*
X153496236Y-87452691D01*
X153414182Y-87182192D01*
X153280932Y-86932899D01*
X153101608Y-86714392D01*
X152883101Y-86535068D01*
X152750142Y-86464000D01*
X152883101Y-86392932D01*
X153101608Y-86213608D01*
X153280932Y-85995101D01*
X153414182Y-85745808D01*
X153496236Y-85475309D01*
X153523943Y-85194000D01*
X153496236Y-84912691D01*
X153414182Y-84642192D01*
X153280932Y-84392899D01*
X153101608Y-84174392D01*
X152883101Y-83995068D01*
X152750142Y-83924000D01*
X152883101Y-83852932D01*
X153101608Y-83673608D01*
X153280932Y-83455101D01*
X153414182Y-83205808D01*
X153495248Y-82938567D01*
X153518472Y-82961791D01*
X153671611Y-83064115D01*
X153841771Y-83134597D01*
X154022411Y-83170529D01*
X154206589Y-83170529D01*
X154387229Y-83134597D01*
X154557389Y-83064115D01*
X154710528Y-82961791D01*
X154840762Y-82831557D01*
X154943086Y-82678418D01*
X155013568Y-82508258D01*
X155049500Y-82327618D01*
X155049500Y-82203911D01*
X162450500Y-82203911D01*
X162450500Y-82388089D01*
X162486432Y-82568729D01*
X162556914Y-82738889D01*
X162605733Y-82811951D01*
X162611859Y-82874151D01*
X162656746Y-83022124D01*
X162729638Y-83158497D01*
X162827737Y-83278028D01*
X162857685Y-83302606D01*
X165031363Y-85476284D01*
X165046668Y-85553229D01*
X165117150Y-85723389D01*
X165219474Y-85876528D01*
X165349708Y-86006762D01*
X165502847Y-86109086D01*
X165673007Y-86179568D01*
X165853647Y-86215500D01*
X166037825Y-86215500D01*
X166218465Y-86179568D01*
X166388625Y-86109086D01*
X166541764Y-86006762D01*
X166671998Y-85876528D01*
X166675751Y-85870910D01*
X166789125Y-85984284D01*
X166804431Y-86061230D01*
X166874913Y-86231390D01*
X166977237Y-86384529D01*
X167107471Y-86514763D01*
X167260610Y-86617087D01*
X167430770Y-86687569D01*
X167611410Y-86723501D01*
X167795588Y-86723501D01*
X167976228Y-86687569D01*
X168146388Y-86617087D01*
X168299527Y-86514763D01*
X168429761Y-86384529D01*
X168507682Y-86267911D01*
X174071000Y-86267911D01*
X174071000Y-86452089D01*
X174106932Y-86632729D01*
X174177414Y-86802889D01*
X174279738Y-86956028D01*
X174409972Y-87086262D01*
X174563111Y-87188586D01*
X174733271Y-87259068D01*
X174810216Y-87274374D01*
X177393634Y-89857792D01*
X177408938Y-89934729D01*
X177479420Y-90104889D01*
X177581744Y-90258028D01*
X177711978Y-90388262D01*
X177865117Y-90490586D01*
X178035277Y-90561068D01*
X178215917Y-90597000D01*
X178400095Y-90597000D01*
X178580735Y-90561068D01*
X178750895Y-90490586D01*
X178904034Y-90388262D01*
X179034268Y-90258028D01*
X179136592Y-90104889D01*
X179207074Y-89934729D01*
X179243006Y-89754089D01*
X179243006Y-89569911D01*
X179207074Y-89389271D01*
X179136592Y-89219111D01*
X179097022Y-89159891D01*
X179189508Y-89169000D01*
X179330492Y-89169000D01*
X179541309Y-89148236D01*
X179811808Y-89066182D01*
X180061101Y-88932932D01*
X180279608Y-88753608D01*
X180458932Y-88535101D01*
X180459520Y-88534000D01*
X190521928Y-88534000D01*
X190534188Y-88658482D01*
X190570498Y-88778180D01*
X190629463Y-88888494D01*
X190708815Y-88985185D01*
X190805506Y-89064537D01*
X190915820Y-89123502D01*
X191035518Y-89159812D01*
X191160000Y-89172072D01*
X191328250Y-89169000D01*
X191487000Y-89010250D01*
X191487000Y-88207000D01*
X192433000Y-88207000D01*
X192433000Y-89010250D01*
X192591750Y-89169000D01*
X192760000Y-89172072D01*
X192884482Y-89159812D01*
X193004180Y-89123502D01*
X193114494Y-89064537D01*
X193211185Y-88985185D01*
X193290537Y-88888494D01*
X193349502Y-88778180D01*
X193385812Y-88658482D01*
X193398072Y-88534000D01*
X193395000Y-88365750D01*
X193236250Y-88207000D01*
X192433000Y-88207000D01*
X191487000Y-88207000D01*
X190683750Y-88207000D01*
X190525000Y-88365750D01*
X190521928Y-88534000D01*
X180459520Y-88534000D01*
X180592182Y-88285808D01*
X180674236Y-88015309D01*
X180701943Y-87734000D01*
X180674236Y-87452691D01*
X180592182Y-87182192D01*
X180458932Y-86932899D01*
X180279608Y-86714392D01*
X180061101Y-86535068D01*
X179928142Y-86464000D01*
X180061101Y-86392932D01*
X180279608Y-86213608D01*
X180458932Y-85995101D01*
X180592182Y-85745808D01*
X180674236Y-85475309D01*
X180701943Y-85194000D01*
X180674236Y-84912691D01*
X180592182Y-84642192D01*
X180458932Y-84392899D01*
X180279608Y-84174392D01*
X180061101Y-83995068D01*
X179928142Y-83924000D01*
X180061101Y-83852932D01*
X180279608Y-83673608D01*
X180458932Y-83455101D01*
X180592182Y-83205808D01*
X180674236Y-82935309D01*
X180701943Y-82654000D01*
X180674236Y-82372691D01*
X180592182Y-82102192D01*
X180458932Y-81852899D01*
X180279608Y-81634392D01*
X180061101Y-81455068D01*
X179928142Y-81384000D01*
X180061101Y-81312932D01*
X180279608Y-81133608D01*
X180458932Y-80915101D01*
X180592182Y-80665808D01*
X180674236Y-80395309D01*
X180701943Y-80114000D01*
X180674236Y-79832691D01*
X180592182Y-79562192D01*
X180458932Y-79312899D01*
X180279608Y-79094392D01*
X180061101Y-78915068D01*
X179928142Y-78844000D01*
X180061101Y-78772932D01*
X180279608Y-78593608D01*
X180458932Y-78375101D01*
X180592182Y-78125808D01*
X180674236Y-77855309D01*
X180701943Y-77574000D01*
X180674236Y-77292691D01*
X180592182Y-77022192D01*
X180458932Y-76772899D01*
X180279608Y-76554392D01*
X180061101Y-76375068D01*
X179928142Y-76304000D01*
X180061101Y-76232932D01*
X180279608Y-76053608D01*
X180458932Y-75835101D01*
X180592182Y-75585808D01*
X180674236Y-75315309D01*
X180701943Y-75034000D01*
X190518057Y-75034000D01*
X190545764Y-75315309D01*
X190627818Y-75585808D01*
X190761068Y-75835101D01*
X190940392Y-76053608D01*
X191158899Y-76232932D01*
X191291858Y-76304000D01*
X191158899Y-76375068D01*
X190940392Y-76554392D01*
X190761068Y-76772899D01*
X190627818Y-77022192D01*
X190545764Y-77292691D01*
X190518057Y-77574000D01*
X190545764Y-77855309D01*
X190627818Y-78125808D01*
X190761068Y-78375101D01*
X190940392Y-78593608D01*
X191158899Y-78772932D01*
X191291858Y-78844000D01*
X191158899Y-78915068D01*
X190940392Y-79094392D01*
X190761068Y-79312899D01*
X190627818Y-79562192D01*
X190545764Y-79832691D01*
X190518057Y-80114000D01*
X190545764Y-80395309D01*
X190627818Y-80665808D01*
X190761068Y-80915101D01*
X190940392Y-81133608D01*
X191158899Y-81312932D01*
X191291858Y-81384000D01*
X191158899Y-81455068D01*
X190940392Y-81634392D01*
X190761068Y-81852899D01*
X190627818Y-82102192D01*
X190545764Y-82372691D01*
X190518057Y-82654000D01*
X190545764Y-82935309D01*
X190627818Y-83205808D01*
X190761068Y-83455101D01*
X190940392Y-83673608D01*
X191158899Y-83852932D01*
X191291858Y-83924000D01*
X191158899Y-83995068D01*
X190940392Y-84174392D01*
X190761068Y-84392899D01*
X190627818Y-84642192D01*
X190545764Y-84912691D01*
X190518057Y-85194000D01*
X190545764Y-85475309D01*
X190627818Y-85745808D01*
X190761068Y-85995101D01*
X190940392Y-86213608D01*
X191053482Y-86306419D01*
X191035518Y-86308188D01*
X190915820Y-86344498D01*
X190805506Y-86403463D01*
X190708815Y-86482815D01*
X190629463Y-86579506D01*
X190570498Y-86689820D01*
X190534188Y-86809518D01*
X190521928Y-86934000D01*
X190525000Y-87102250D01*
X190683750Y-87261000D01*
X191487000Y-87261000D01*
X191487000Y-87241000D01*
X192433000Y-87241000D01*
X192433000Y-87261000D01*
X193236250Y-87261000D01*
X193395000Y-87102250D01*
X193398072Y-86934000D01*
X193385812Y-86809518D01*
X193349502Y-86689820D01*
X193290537Y-86579506D01*
X193211185Y-86482815D01*
X193114494Y-86403463D01*
X193004180Y-86344498D01*
X192884482Y-86308188D01*
X192866518Y-86306419D01*
X192979608Y-86213608D01*
X193158932Y-85995101D01*
X193292182Y-85745808D01*
X193374236Y-85475309D01*
X193401943Y-85194000D01*
X193374236Y-84912691D01*
X193292182Y-84642192D01*
X193158932Y-84392899D01*
X192979608Y-84174392D01*
X192761101Y-83995068D01*
X192628142Y-83924000D01*
X192761101Y-83852932D01*
X192979608Y-83673608D01*
X193158932Y-83455101D01*
X193292182Y-83205808D01*
X193374236Y-82935309D01*
X193401943Y-82654000D01*
X193374236Y-82372691D01*
X193292182Y-82102192D01*
X193158932Y-81852899D01*
X192979608Y-81634392D01*
X192761101Y-81455068D01*
X192628142Y-81384000D01*
X192761101Y-81312932D01*
X192979608Y-81133608D01*
X193158932Y-80915101D01*
X193292182Y-80665808D01*
X193374236Y-80395309D01*
X193401943Y-80114000D01*
X193374236Y-79832691D01*
X193292182Y-79562192D01*
X193158932Y-79312899D01*
X192979608Y-79094392D01*
X192761101Y-78915068D01*
X192628142Y-78844000D01*
X192761101Y-78772932D01*
X192979608Y-78593608D01*
X193158932Y-78375101D01*
X193292182Y-78125808D01*
X193374236Y-77855309D01*
X193401943Y-77574000D01*
X193374236Y-77292691D01*
X193292182Y-77022192D01*
X193158932Y-76772899D01*
X192979608Y-76554392D01*
X192761101Y-76375068D01*
X192628142Y-76304000D01*
X192761101Y-76232932D01*
X192979608Y-76053608D01*
X193158932Y-75835101D01*
X193292182Y-75585808D01*
X193374236Y-75315309D01*
X193401943Y-75034000D01*
X193374236Y-74752691D01*
X193292182Y-74482192D01*
X193158932Y-74232899D01*
X192979608Y-74014392D01*
X192761101Y-73835068D01*
X192581749Y-73739202D01*
X192639118Y-73758150D01*
X192872692Y-73601370D01*
X193071192Y-73402035D01*
X193224132Y-73173115D01*
X193145363Y-72967000D01*
X192433000Y-72967000D01*
X192433000Y-72987000D01*
X191487000Y-72987000D01*
X191487000Y-72967000D01*
X190774637Y-72967000D01*
X190695868Y-73173115D01*
X190848808Y-73402035D01*
X191047308Y-73601370D01*
X191280882Y-73758150D01*
X191338251Y-73739202D01*
X191158899Y-73835068D01*
X190940392Y-74014392D01*
X190761068Y-74232899D01*
X190627818Y-74482192D01*
X190545764Y-74752691D01*
X190518057Y-75034000D01*
X180701943Y-75034000D01*
X180674236Y-74752691D01*
X180592182Y-74482192D01*
X180458932Y-74232899D01*
X180279608Y-74014392D01*
X180061101Y-73835068D01*
X179928142Y-73764000D01*
X180061101Y-73692932D01*
X180279608Y-73513608D01*
X180458932Y-73295101D01*
X180592182Y-73045808D01*
X180674236Y-72775309D01*
X180701943Y-72494000D01*
X180674236Y-72212691D01*
X180592182Y-71942192D01*
X180458932Y-71692899D01*
X180279608Y-71474392D01*
X180061101Y-71295068D01*
X179928142Y-71224000D01*
X180061101Y-71152932D01*
X180279608Y-70973608D01*
X180458932Y-70755101D01*
X180592182Y-70505808D01*
X180674236Y-70235309D01*
X180701943Y-69954000D01*
X180674236Y-69672691D01*
X180592182Y-69402192D01*
X180458932Y-69152899D01*
X180279608Y-68934392D01*
X180061101Y-68755068D01*
X179811808Y-68621818D01*
X179541309Y-68539764D01*
X179330492Y-68519000D01*
X179189508Y-68519000D01*
X178978691Y-68539764D01*
X178708192Y-68621818D01*
X178458899Y-68755068D01*
X178240392Y-68934392D01*
X178061068Y-69152899D01*
X177927818Y-69402192D01*
X177845764Y-69672691D01*
X177818057Y-69954000D01*
X177845764Y-70235309D01*
X177927818Y-70505808D01*
X178061068Y-70755101D01*
X178240392Y-70973608D01*
X178458899Y-71152932D01*
X178591858Y-71224000D01*
X178458899Y-71295068D01*
X178240392Y-71474392D01*
X178061068Y-71692899D01*
X177927818Y-71942192D01*
X177845764Y-72212691D01*
X177818057Y-72494000D01*
X177845764Y-72775309D01*
X177927818Y-73045808D01*
X178061068Y-73295101D01*
X178240392Y-73513608D01*
X178458899Y-73692932D01*
X178591858Y-73764000D01*
X178458899Y-73835068D01*
X178240392Y-74014392D01*
X178061068Y-74232899D01*
X177927818Y-74482192D01*
X177845764Y-74752691D01*
X177818057Y-75034000D01*
X177845764Y-75315309D01*
X177927818Y-75585808D01*
X178061068Y-75835101D01*
X178240392Y-76053608D01*
X178458899Y-76232932D01*
X178591858Y-76304000D01*
X178458899Y-76375068D01*
X178240392Y-76554392D01*
X178061068Y-76772899D01*
X177927818Y-77022192D01*
X177845764Y-77292691D01*
X177818057Y-77574000D01*
X177845764Y-77855309D01*
X177927818Y-78125808D01*
X178061068Y-78375101D01*
X178240392Y-78593608D01*
X178458899Y-78772932D01*
X178591858Y-78844000D01*
X178458899Y-78915068D01*
X178240392Y-79094392D01*
X178061068Y-79312899D01*
X177927818Y-79562192D01*
X177845764Y-79832691D01*
X177818057Y-80114000D01*
X177845764Y-80395309D01*
X177927818Y-80665808D01*
X178061068Y-80915101D01*
X178240392Y-81133608D01*
X178458899Y-81312932D01*
X178591858Y-81384000D01*
X178458899Y-81455068D01*
X178240392Y-81634392D01*
X178061068Y-81852899D01*
X177927818Y-82102192D01*
X177845764Y-82372691D01*
X177818057Y-82654000D01*
X177845764Y-82935309D01*
X177927818Y-83205808D01*
X178061068Y-83455101D01*
X178240392Y-83673608D01*
X178458899Y-83852932D01*
X178591858Y-83924000D01*
X178458899Y-83995068D01*
X178240392Y-84174392D01*
X178061068Y-84392899D01*
X177927818Y-84642192D01*
X177845764Y-84912691D01*
X177819415Y-85180214D01*
X177808764Y-85167236D01*
X177689233Y-85069138D01*
X177552860Y-84996246D01*
X177404887Y-84951359D01*
X177289561Y-84940000D01*
X177289553Y-84940000D01*
X177251000Y-84936203D01*
X177212447Y-84940000D01*
X176022116Y-84940000D01*
X175956885Y-84896414D01*
X175786725Y-84825932D01*
X175606085Y-84790000D01*
X175421907Y-84790000D01*
X175241267Y-84825932D01*
X175071107Y-84896414D01*
X174917968Y-84998738D01*
X174787734Y-85128972D01*
X174685410Y-85282111D01*
X174614928Y-85452271D01*
X174602424Y-85515130D01*
X174563111Y-85531414D01*
X174409972Y-85633738D01*
X174279738Y-85763972D01*
X174177414Y-85917111D01*
X174106932Y-86087271D01*
X174071000Y-86267911D01*
X168507682Y-86267911D01*
X168532085Y-86231390D01*
X168602567Y-86061230D01*
X168638499Y-85880590D01*
X168638499Y-85696412D01*
X168602567Y-85515772D01*
X168532085Y-85345612D01*
X168429761Y-85192473D01*
X168299527Y-85062239D01*
X168146388Y-84959915D01*
X167976228Y-84889433D01*
X167899282Y-84874127D01*
X165313496Y-82288341D01*
X165313496Y-81851620D01*
X165357082Y-81786389D01*
X165427564Y-81616229D01*
X165463496Y-81435589D01*
X165463496Y-81251411D01*
X165427564Y-81070771D01*
X165357082Y-80900611D01*
X165254758Y-80747472D01*
X165124524Y-80617238D01*
X164971385Y-80514914D01*
X164801225Y-80444432D01*
X164620585Y-80408500D01*
X164436407Y-80408500D01*
X164255767Y-80444432D01*
X164085607Y-80514914D01*
X163932468Y-80617238D01*
X163802234Y-80747472D01*
X163699910Y-80900611D01*
X163629428Y-81070771D01*
X163593496Y-81251411D01*
X163593496Y-81384056D01*
X163477589Y-81361000D01*
X163293411Y-81361000D01*
X163112771Y-81396932D01*
X162942611Y-81467414D01*
X162789472Y-81569738D01*
X162659238Y-81699972D01*
X162556914Y-81853111D01*
X162486432Y-82023271D01*
X162450500Y-82203911D01*
X155049500Y-82203911D01*
X155049500Y-82143440D01*
X155013568Y-81962800D01*
X154943086Y-81792640D01*
X154899500Y-81727409D01*
X154899500Y-81216608D01*
X154943086Y-81151377D01*
X155013568Y-80981217D01*
X155049500Y-80800577D01*
X155049500Y-80616399D01*
X155013568Y-80435759D01*
X154943086Y-80265599D01*
X154840762Y-80112460D01*
X154710528Y-79982226D01*
X154557389Y-79879902D01*
X154403866Y-79816311D01*
X170413400Y-79816311D01*
X170413400Y-80000489D01*
X170449332Y-80181129D01*
X170519814Y-80351289D01*
X170563401Y-80416521D01*
X170563400Y-81483079D01*
X170519814Y-81548311D01*
X170449332Y-81718471D01*
X170413400Y-81899111D01*
X170413400Y-82083289D01*
X170449332Y-82263929D01*
X170519814Y-82434089D01*
X170622138Y-82587228D01*
X170752372Y-82717462D01*
X170905511Y-82819786D01*
X171075671Y-82890268D01*
X171256311Y-82926200D01*
X171440489Y-82926200D01*
X171621129Y-82890268D01*
X171791289Y-82819786D01*
X171944428Y-82717462D01*
X172074662Y-82587228D01*
X172176986Y-82434089D01*
X172247468Y-82263929D01*
X172283400Y-82083289D01*
X172283400Y-81899111D01*
X172247468Y-81718471D01*
X172176986Y-81548311D01*
X172133400Y-81483080D01*
X172133400Y-80416520D01*
X172176986Y-80351289D01*
X172247468Y-80181129D01*
X172283400Y-80000489D01*
X172283400Y-79816311D01*
X172247468Y-79635671D01*
X172176986Y-79465511D01*
X172074662Y-79312372D01*
X171944428Y-79182138D01*
X171791289Y-79079814D01*
X171621129Y-79009332D01*
X171440489Y-78973400D01*
X171256311Y-78973400D01*
X171075671Y-79009332D01*
X170905511Y-79079814D01*
X170752372Y-79182138D01*
X170622138Y-79312372D01*
X170519814Y-79465511D01*
X170449332Y-79635671D01*
X170413400Y-79816311D01*
X154403866Y-79816311D01*
X154387229Y-79809420D01*
X154206589Y-79773488D01*
X154022411Y-79773488D01*
X153841771Y-79809420D01*
X153671611Y-79879902D01*
X153518472Y-79982226D01*
X153511637Y-79989061D01*
X153496236Y-79832691D01*
X153414182Y-79562192D01*
X153280932Y-79312899D01*
X153101608Y-79094392D01*
X152883101Y-78915068D01*
X152750142Y-78844000D01*
X152883101Y-78772932D01*
X153101608Y-78593608D01*
X153280932Y-78375101D01*
X153414182Y-78125808D01*
X153496236Y-77855309D01*
X153523943Y-77574000D01*
X153496236Y-77292691D01*
X153414182Y-77022192D01*
X153280932Y-76772899D01*
X153101608Y-76554392D01*
X153021820Y-76488911D01*
X161307500Y-76488911D01*
X161307500Y-76673089D01*
X161343432Y-76853729D01*
X161413914Y-77023889D01*
X161457500Y-77089121D01*
X161457501Y-77939438D01*
X161453703Y-77978000D01*
X161468859Y-78131886D01*
X161513746Y-78279859D01*
X161547677Y-78343340D01*
X161586639Y-78416233D01*
X161613848Y-78449387D01*
X161644793Y-78487093D01*
X161660932Y-78568229D01*
X161731414Y-78738389D01*
X161833738Y-78891528D01*
X161963972Y-79021762D01*
X162117111Y-79124086D01*
X162287271Y-79194568D01*
X162467911Y-79230500D01*
X162652089Y-79230500D01*
X162832729Y-79194568D01*
X163002889Y-79124086D01*
X163156028Y-79021762D01*
X163286262Y-78891528D01*
X163335383Y-78818012D01*
X163373510Y-78856139D01*
X163526649Y-78958463D01*
X163696809Y-79028945D01*
X163877449Y-79064877D01*
X164061627Y-79064877D01*
X164242267Y-79028945D01*
X164412427Y-78958463D01*
X164565566Y-78856139D01*
X164695800Y-78725905D01*
X164798124Y-78572766D01*
X164868606Y-78402606D01*
X164904538Y-78221966D01*
X164904538Y-78037788D01*
X164868606Y-77857148D01*
X164798124Y-77686988D01*
X164695800Y-77533849D01*
X164565566Y-77403615D01*
X164412427Y-77301291D01*
X164242267Y-77230809D01*
X164165321Y-77215503D01*
X164067107Y-77117289D01*
X164087086Y-77087389D01*
X164157568Y-76917229D01*
X164193500Y-76736589D01*
X164193500Y-76552411D01*
X164157568Y-76371771D01*
X164087086Y-76201611D01*
X163984762Y-76048472D01*
X163854528Y-75918238D01*
X163701389Y-75815914D01*
X163531229Y-75745432D01*
X163350589Y-75709500D01*
X163166411Y-75709500D01*
X162985771Y-75745432D01*
X162815611Y-75815914D01*
X162798017Y-75827670D01*
X162685389Y-75752414D01*
X162515229Y-75681932D01*
X162334589Y-75646000D01*
X162150411Y-75646000D01*
X161969771Y-75681932D01*
X161799611Y-75752414D01*
X161646472Y-75854738D01*
X161516238Y-75984972D01*
X161413914Y-76138111D01*
X161343432Y-76308271D01*
X161307500Y-76488911D01*
X153021820Y-76488911D01*
X152883101Y-76375068D01*
X152750142Y-76304000D01*
X152883101Y-76232932D01*
X153101608Y-76053608D01*
X153280932Y-75835101D01*
X153414182Y-75585808D01*
X153496236Y-75315309D01*
X153523943Y-75034000D01*
X153496236Y-74752691D01*
X153414182Y-74482192D01*
X153280932Y-74232899D01*
X153101608Y-74014392D01*
X152883101Y-73835068D01*
X152750142Y-73764000D01*
X152813813Y-73729967D01*
X155400000Y-73729967D01*
X155400000Y-74052033D01*
X155462832Y-74367912D01*
X155586082Y-74665463D01*
X155765013Y-74933252D01*
X155992748Y-75160987D01*
X156260537Y-75339918D01*
X156558088Y-75463168D01*
X156873967Y-75526000D01*
X157196033Y-75526000D01*
X157511912Y-75463168D01*
X157809463Y-75339918D01*
X158077252Y-75160987D01*
X158304987Y-74933252D01*
X158483918Y-74665463D01*
X158607168Y-74367912D01*
X158670000Y-74052033D01*
X158670000Y-73729967D01*
X158607168Y-73414088D01*
X158483918Y-73116537D01*
X158304987Y-72848748D01*
X158077252Y-72621013D01*
X157809463Y-72442082D01*
X157511912Y-72318832D01*
X157196033Y-72256000D01*
X156873967Y-72256000D01*
X156558088Y-72318832D01*
X156260537Y-72442082D01*
X155992748Y-72621013D01*
X155765013Y-72848748D01*
X155586082Y-73116537D01*
X155462832Y-73414088D01*
X155400000Y-73729967D01*
X152813813Y-73729967D01*
X152883101Y-73692932D01*
X153101608Y-73513608D01*
X153280932Y-73295101D01*
X153414182Y-73045808D01*
X153496236Y-72775309D01*
X153523943Y-72494000D01*
X153496236Y-72212691D01*
X153414182Y-71942192D01*
X153280932Y-71692899D01*
X153101608Y-71474392D01*
X152883101Y-71295068D01*
X152750142Y-71224000D01*
X152883101Y-71152932D01*
X153101608Y-70973608D01*
X153280932Y-70755101D01*
X153414182Y-70505808D01*
X153496236Y-70235309D01*
X153523943Y-69954000D01*
X153496236Y-69672691D01*
X153446279Y-69508000D01*
X158150928Y-69508000D01*
X158150928Y-71208000D01*
X158163188Y-71332482D01*
X158199498Y-71452180D01*
X158258463Y-71562494D01*
X158337815Y-71659185D01*
X158434506Y-71738537D01*
X158544820Y-71797502D01*
X158664518Y-71833812D01*
X158789000Y-71846072D01*
X160489000Y-71846072D01*
X160613482Y-71833812D01*
X160733180Y-71797502D01*
X160843494Y-71738537D01*
X160940185Y-71659185D01*
X161019537Y-71562494D01*
X161078502Y-71452180D01*
X161099393Y-71383313D01*
X161123866Y-71413134D01*
X161349986Y-71598706D01*
X161607966Y-71736599D01*
X161887889Y-71821513D01*
X162106050Y-71843000D01*
X162251950Y-71843000D01*
X162470111Y-71821513D01*
X162750034Y-71736599D01*
X163008014Y-71598706D01*
X163234134Y-71413134D01*
X163419706Y-71187014D01*
X163453703Y-71123410D01*
X163562044Y-71288984D01*
X163765901Y-71496806D01*
X164006385Y-71660865D01*
X164031618Y-71674332D01*
X164246000Y-71597036D01*
X164246000Y-70831000D01*
X164226000Y-70831000D01*
X164226000Y-69885000D01*
X164246000Y-69885000D01*
X164246000Y-69118964D01*
X165192000Y-69118964D01*
X165192000Y-69885000D01*
X165212000Y-69885000D01*
X165212000Y-70831000D01*
X165192000Y-70831000D01*
X165192000Y-71597036D01*
X165406382Y-71674332D01*
X165431615Y-71660865D01*
X165672099Y-71496806D01*
X165875956Y-71288984D01*
X165984297Y-71123410D01*
X166018294Y-71187014D01*
X166203866Y-71413134D01*
X166429986Y-71598706D01*
X166687966Y-71736599D01*
X166967889Y-71821513D01*
X167186050Y-71843000D01*
X167331950Y-71843000D01*
X167550111Y-71821513D01*
X167830034Y-71736599D01*
X168088014Y-71598706D01*
X168314134Y-71413134D01*
X168499706Y-71187014D01*
X168529000Y-71132209D01*
X168558294Y-71187014D01*
X168743866Y-71413134D01*
X168969986Y-71598706D01*
X169227966Y-71736599D01*
X169507889Y-71821513D01*
X169726050Y-71843000D01*
X169871950Y-71843000D01*
X170090111Y-71821513D01*
X170370034Y-71736599D01*
X170628014Y-71598706D01*
X170854134Y-71413134D01*
X171039706Y-71187014D01*
X171069000Y-71132209D01*
X171098294Y-71187014D01*
X171283866Y-71413134D01*
X171509986Y-71598706D01*
X171767966Y-71736599D01*
X172047889Y-71821513D01*
X172266050Y-71843000D01*
X172411950Y-71843000D01*
X172630111Y-71821513D01*
X172910034Y-71736599D01*
X173168014Y-71598706D01*
X173394134Y-71413134D01*
X173579706Y-71187014D01*
X173717599Y-70929034D01*
X173802513Y-70649111D01*
X173831185Y-70358000D01*
X173802513Y-70066889D01*
X173717599Y-69786966D01*
X173579706Y-69528986D01*
X173394134Y-69302866D01*
X173168014Y-69117294D01*
X172910034Y-68979401D01*
X172630111Y-68894487D01*
X172411950Y-68873000D01*
X172266050Y-68873000D01*
X172047889Y-68894487D01*
X171767966Y-68979401D01*
X171509986Y-69117294D01*
X171283866Y-69302866D01*
X171098294Y-69528986D01*
X171069000Y-69583791D01*
X171039706Y-69528986D01*
X170854134Y-69302866D01*
X170628014Y-69117294D01*
X170370034Y-68979401D01*
X170090111Y-68894487D01*
X169871950Y-68873000D01*
X169726050Y-68873000D01*
X169507889Y-68894487D01*
X169227966Y-68979401D01*
X168969986Y-69117294D01*
X168743866Y-69302866D01*
X168558294Y-69528986D01*
X168529000Y-69583791D01*
X168499706Y-69528986D01*
X168314134Y-69302866D01*
X168088014Y-69117294D01*
X167830034Y-68979401D01*
X167550111Y-68894487D01*
X167331950Y-68873000D01*
X167186050Y-68873000D01*
X166967889Y-68894487D01*
X166687966Y-68979401D01*
X166429986Y-69117294D01*
X166203866Y-69302866D01*
X166018294Y-69528986D01*
X165984297Y-69592590D01*
X165875956Y-69427016D01*
X165672099Y-69219194D01*
X165431615Y-69055135D01*
X165406382Y-69041668D01*
X165192000Y-69118964D01*
X164246000Y-69118964D01*
X164031618Y-69041668D01*
X164006385Y-69055135D01*
X163765901Y-69219194D01*
X163562044Y-69427016D01*
X163453703Y-69592590D01*
X163419706Y-69528986D01*
X163234134Y-69302866D01*
X163008014Y-69117294D01*
X162750034Y-68979401D01*
X162470111Y-68894487D01*
X162251950Y-68873000D01*
X162106050Y-68873000D01*
X161887889Y-68894487D01*
X161607966Y-68979401D01*
X161349986Y-69117294D01*
X161123866Y-69302866D01*
X161099393Y-69332687D01*
X161078502Y-69263820D01*
X161019537Y-69153506D01*
X160940185Y-69056815D01*
X160843494Y-68977463D01*
X160733180Y-68918498D01*
X160613482Y-68882188D01*
X160489000Y-68869928D01*
X158789000Y-68869928D01*
X158664518Y-68882188D01*
X158544820Y-68918498D01*
X158434506Y-68977463D01*
X158337815Y-69056815D01*
X158258463Y-69153506D01*
X158199498Y-69263820D01*
X158163188Y-69383518D01*
X158150928Y-69508000D01*
X153446279Y-69508000D01*
X153414182Y-69402192D01*
X153280932Y-69152899D01*
X153101608Y-68934392D01*
X152883101Y-68755068D01*
X152633808Y-68621818D01*
X152363309Y-68539764D01*
X152152492Y-68519000D01*
X152011508Y-68519000D01*
X151800691Y-68539764D01*
X151530192Y-68621818D01*
X151280899Y-68755068D01*
X151062392Y-68934392D01*
X150883068Y-69152899D01*
X150749818Y-69402192D01*
X150667764Y-69672691D01*
X150640057Y-69954000D01*
X131885000Y-69954000D01*
X131885000Y-69154000D01*
X137943928Y-69154000D01*
X137947000Y-69322250D01*
X138105750Y-69481000D01*
X138909000Y-69481000D01*
X138909000Y-68677750D01*
X139855000Y-68677750D01*
X139855000Y-69481000D01*
X140658250Y-69481000D01*
X140817000Y-69322250D01*
X140820072Y-69154000D01*
X140807812Y-69029518D01*
X140771502Y-68909820D01*
X140712537Y-68799506D01*
X140633185Y-68702815D01*
X140536494Y-68623463D01*
X140426180Y-68564498D01*
X140306482Y-68528188D01*
X140182000Y-68515928D01*
X140013750Y-68519000D01*
X139855000Y-68677750D01*
X138909000Y-68677750D01*
X138750250Y-68519000D01*
X138582000Y-68515928D01*
X138457518Y-68528188D01*
X138337820Y-68564498D01*
X138227506Y-68623463D01*
X138130815Y-68702815D01*
X138051463Y-68799506D01*
X137992498Y-68909820D01*
X137956188Y-69029518D01*
X137943928Y-69154000D01*
X131885000Y-69154000D01*
X131885000Y-67104000D01*
X195608928Y-67104000D01*
X195612000Y-67472250D01*
X195770750Y-67631000D01*
X197774000Y-67631000D01*
X197774000Y-66627750D01*
X197615250Y-66469000D01*
X196247000Y-66465928D01*
X196122518Y-66478188D01*
X196002820Y-66514498D01*
X195892506Y-66573463D01*
X195795815Y-66652815D01*
X195716463Y-66749506D01*
X195657498Y-66859820D01*
X195621188Y-66979518D01*
X195608928Y-67104000D01*
X131885000Y-67104000D01*
X131885000Y-62039410D01*
X131908163Y-61779872D01*
X133845000Y-61779872D01*
X133845000Y-62220128D01*
X133930890Y-62651925D01*
X134099369Y-63058669D01*
X134343962Y-63424729D01*
X134655271Y-63736038D01*
X135021331Y-63980631D01*
X135428075Y-64149110D01*
X135859872Y-64235000D01*
X136300128Y-64235000D01*
X136731925Y-64149110D01*
X137138669Y-63980631D01*
X137504729Y-63736038D01*
X137816038Y-63424729D01*
X138060631Y-63058669D01*
X138229110Y-62651925D01*
X138315000Y-62220128D01*
X138315000Y-61779872D01*
X193765000Y-61779872D01*
X193765000Y-62220128D01*
X193850890Y-62651925D01*
X194019369Y-63058669D01*
X194263962Y-63424729D01*
X194575271Y-63736038D01*
X194941331Y-63980631D01*
X195348075Y-64149110D01*
X195779872Y-64235000D01*
X196220128Y-64235000D01*
X196651925Y-64149110D01*
X197058669Y-63980631D01*
X197424729Y-63736038D01*
X197736038Y-63424729D01*
X197980631Y-63058669D01*
X198149110Y-62651925D01*
X198235000Y-62220128D01*
X198235000Y-61779872D01*
X198149110Y-61348075D01*
X197980631Y-60941331D01*
X197736038Y-60575271D01*
X197424729Y-60263962D01*
X197058669Y-60019369D01*
X196651925Y-59850890D01*
X196220128Y-59765000D01*
X195779872Y-59765000D01*
X195348075Y-59850890D01*
X194941331Y-60019369D01*
X194575271Y-60263962D01*
X194263962Y-60575271D01*
X194019369Y-60941331D01*
X193850890Y-61348075D01*
X193765000Y-61779872D01*
X138315000Y-61779872D01*
X138229110Y-61348075D01*
X138060631Y-60941331D01*
X137816038Y-60575271D01*
X137504729Y-60263962D01*
X137138669Y-60019369D01*
X136731925Y-59850890D01*
X136300128Y-59765000D01*
X135859872Y-59765000D01*
X135428075Y-59850890D01*
X135021331Y-60019369D01*
X134655271Y-60263962D01*
X134343962Y-60575271D01*
X134099369Y-60941331D01*
X133930890Y-61348075D01*
X133845000Y-61779872D01*
X131908163Y-61779872D01*
X131953497Y-61271919D01*
X132146381Y-60566853D01*
X132461075Y-59907084D01*
X132887628Y-59313473D01*
X133412559Y-58804779D01*
X134019279Y-58397080D01*
X134688605Y-58103266D01*
X135406191Y-57930989D01*
X136032447Y-57885000D01*
X195960590Y-57885000D01*
X196728081Y-57953497D01*
X196728081Y-57953497D01*
G37*
X196728081Y-57953497D02*
X197433147Y-58146381D01*
X198092916Y-58461075D01*
X198686527Y-58887628D01*
X199195221Y-59412559D01*
X199602920Y-60019279D01*
X199896734Y-60688605D01*
X200069011Y-61406191D01*
X200115001Y-62032461D01*
X200115001Y-66466224D01*
X198878750Y-66469000D01*
X198720000Y-66627750D01*
X198720000Y-67631000D01*
X198740000Y-67631000D01*
X198740000Y-68577000D01*
X198720000Y-68577000D01*
X198720000Y-69580250D01*
X198878750Y-69739000D01*
X200115001Y-69741776D01*
X200115001Y-70465928D01*
X196247000Y-70465928D01*
X196122518Y-70478188D01*
X196002820Y-70514498D01*
X195892506Y-70573463D01*
X195795815Y-70652815D01*
X195716463Y-70749506D01*
X195657498Y-70859820D01*
X195624379Y-70969000D01*
X195510132Y-70969000D01*
X193731996Y-69190865D01*
X193696449Y-69147551D01*
X193643383Y-69104000D01*
X195608928Y-69104000D01*
X195621188Y-69228482D01*
X195657498Y-69348180D01*
X195716463Y-69458494D01*
X195795815Y-69555185D01*
X195892506Y-69634537D01*
X196002820Y-69693502D01*
X196122518Y-69729812D01*
X196247000Y-69742072D01*
X197615250Y-69739000D01*
X197774000Y-69580250D01*
X197774000Y-68577000D01*
X195770750Y-68577000D01*
X195612000Y-68735750D01*
X195608928Y-69104000D01*
X193643383Y-69104000D01*
X193523623Y-69005716D01*
X193326447Y-68900324D01*
X193112499Y-68835423D01*
X192945752Y-68819000D01*
X192945751Y-68819000D01*
X192890000Y-68813509D01*
X192838493Y-68818582D01*
X192761101Y-68755068D01*
X192511808Y-68621818D01*
X192241309Y-68539764D01*
X192030492Y-68519000D01*
X191889508Y-68519000D01*
X191678691Y-68539764D01*
X191408192Y-68621818D01*
X191158899Y-68755068D01*
X190940392Y-68934392D01*
X190761068Y-69152899D01*
X190627818Y-69402192D01*
X190545764Y-69672691D01*
X190518057Y-69954000D01*
X190545764Y-70235309D01*
X190627818Y-70505808D01*
X190761068Y-70755101D01*
X190940392Y-70973608D01*
X191158899Y-71152932D01*
X191338251Y-71248798D01*
X191280882Y-71229850D01*
X191047308Y-71386630D01*
X190848808Y-71585965D01*
X190695868Y-71814885D01*
X190774637Y-72021000D01*
X191487000Y-72021000D01*
X191487000Y-72001000D01*
X192433000Y-72001000D01*
X192433000Y-72021000D01*
X193145363Y-72021000D01*
X193202461Y-71871592D01*
X194198009Y-72867141D01*
X194233551Y-72910449D01*
X194406377Y-73052284D01*
X194603553Y-73157676D01*
X194767705Y-73207471D01*
X194817500Y-73222577D01*
X195039999Y-73244491D01*
X195095751Y-73239000D01*
X195624379Y-73239000D01*
X195657498Y-73348180D01*
X195716463Y-73458494D01*
X195795815Y-73555185D01*
X195892506Y-73634537D01*
X196002820Y-73693502D01*
X196122518Y-73729812D01*
X196247000Y-73742072D01*
X198021816Y-73742072D01*
X197925986Y-73793294D01*
X197699866Y-73978866D01*
X197514294Y-74204986D01*
X197376401Y-74462966D01*
X197291487Y-74742889D01*
X197262815Y-75034000D01*
X197291487Y-75325111D01*
X197376401Y-75605034D01*
X197514294Y-75863014D01*
X197699866Y-76089134D01*
X197925986Y-76274706D01*
X197980791Y-76304000D01*
X197925986Y-76333294D01*
X197699866Y-76518866D01*
X197514294Y-76744986D01*
X197376401Y-77002966D01*
X197291487Y-77282889D01*
X197262815Y-77574000D01*
X197291487Y-77865111D01*
X197376401Y-78145034D01*
X197514294Y-78403014D01*
X197699866Y-78629134D01*
X197925986Y-78814706D01*
X197980791Y-78844000D01*
X197925986Y-78873294D01*
X197699866Y-79058866D01*
X197514294Y-79284986D01*
X197376401Y-79542966D01*
X197291487Y-79822889D01*
X197262815Y-80114000D01*
X197291487Y-80405111D01*
X197376401Y-80685034D01*
X197514294Y-80943014D01*
X197699866Y-81169134D01*
X197729687Y-81193607D01*
X197660820Y-81214498D01*
X197550506Y-81273463D01*
X197453815Y-81352815D01*
X197374463Y-81449506D01*
X197315498Y-81559820D01*
X197279188Y-81679518D01*
X197266928Y-81804000D01*
X197266928Y-83504000D01*
X197279188Y-83628482D01*
X197315498Y-83748180D01*
X197374463Y-83858494D01*
X197453815Y-83955185D01*
X197550506Y-84034537D01*
X197660820Y-84093502D01*
X197780518Y-84129812D01*
X197905000Y-84142072D01*
X199605000Y-84142072D01*
X199729482Y-84129812D01*
X199849180Y-84093502D01*
X199959494Y-84034537D01*
X200056185Y-83955185D01*
X200115001Y-83883518D01*
X200115000Y-100374939D01*
X198751750Y-100378000D01*
X198593000Y-100536750D01*
X198593000Y-101540000D01*
X198613000Y-101540000D01*
X198613000Y-102486000D01*
X198593000Y-102486000D01*
X198593000Y-103489250D01*
X198751750Y-103648000D01*
X200115000Y-103651061D01*
X200115000Y-104374928D01*
X196120000Y-104374928D01*
X195995518Y-104387188D01*
X195875820Y-104423498D01*
X195765506Y-104482463D01*
X195668815Y-104561815D01*
X195589463Y-104658506D01*
X195530498Y-104768820D01*
X195497379Y-104878000D01*
X193336036Y-104878000D01*
X193269101Y-104823068D01*
X193019808Y-104689818D01*
X192749309Y-104607764D01*
X192538492Y-104587000D01*
X192397508Y-104587000D01*
X192186691Y-104607764D01*
X191916192Y-104689818D01*
X191666899Y-104823068D01*
X191448392Y-105002392D01*
X191269068Y-105220899D01*
X191135818Y-105470192D01*
X191053764Y-105740691D01*
X191026057Y-106022000D01*
X191053764Y-106303309D01*
X191135818Y-106573808D01*
X191269068Y-106823101D01*
X191448392Y-107041608D01*
X191666899Y-107220932D01*
X191846251Y-107316798D01*
X191788882Y-107297850D01*
X191555308Y-107454630D01*
X191356808Y-107653965D01*
X191203868Y-107882885D01*
X191282637Y-108089000D01*
X191995000Y-108089000D01*
X191995000Y-108069000D01*
X192941000Y-108069000D01*
X192941000Y-108089000D01*
X193653363Y-108089000D01*
X193732132Y-107882885D01*
X193579192Y-107653965D01*
X193380692Y-107454630D01*
X193147118Y-107297850D01*
X193089749Y-107316798D01*
X193269101Y-107220932D01*
X193357969Y-107148000D01*
X195497379Y-107148000D01*
X195530498Y-107257180D01*
X195589463Y-107367494D01*
X195668815Y-107464185D01*
X195765506Y-107543537D01*
X195875820Y-107602502D01*
X195995518Y-107638812D01*
X196120000Y-107651072D01*
X200115000Y-107651072D01*
X200115000Y-110108847D01*
X200064134Y-110046866D01*
X199838014Y-109861294D01*
X199580034Y-109723401D01*
X199300111Y-109638487D01*
X199081950Y-109617000D01*
X198936050Y-109617000D01*
X198717889Y-109638487D01*
X198437966Y-109723401D01*
X198179986Y-109861294D01*
X197953866Y-110046866D01*
X197768294Y-110272986D01*
X197630401Y-110530966D01*
X197545487Y-110810889D01*
X197516815Y-111102000D01*
X197545487Y-111393111D01*
X197630401Y-111673034D01*
X197768294Y-111931014D01*
X197953866Y-112157134D01*
X198179986Y-112342706D01*
X198234791Y-112372000D01*
X198179986Y-112401294D01*
X197953866Y-112586866D01*
X197768294Y-112812986D01*
X197630401Y-113070966D01*
X197545487Y-113350889D01*
X197516815Y-113642000D01*
X197545487Y-113933111D01*
X197630401Y-114213034D01*
X197768294Y-114471014D01*
X197953866Y-114697134D01*
X198179986Y-114882706D01*
X198234791Y-114912000D01*
X198179986Y-114941294D01*
X197953866Y-115126866D01*
X197768294Y-115352986D01*
X197630401Y-115610966D01*
X197545487Y-115890889D01*
X197516815Y-116182000D01*
X197545487Y-116473111D01*
X197630401Y-116753034D01*
X197768294Y-117011014D01*
X197953866Y-117237134D01*
X197983687Y-117261607D01*
X197914820Y-117282498D01*
X197804506Y-117341463D01*
X197707815Y-117420815D01*
X197628463Y-117517506D01*
X197569498Y-117627820D01*
X197533188Y-117747518D01*
X197520928Y-117872000D01*
X197520928Y-119572000D01*
X197533188Y-119696482D01*
X197569498Y-119816180D01*
X197628463Y-119926494D01*
X197707815Y-120023185D01*
X197804506Y-120102537D01*
X197914820Y-120161502D01*
X198034518Y-120197812D01*
X198159000Y-120210072D01*
X199859000Y-120210072D01*
X199983482Y-120197812D01*
X200103180Y-120161502D01*
X200115000Y-120155184D01*
X200115000Y-131960591D01*
X200046503Y-132728082D01*
X199853619Y-133433147D01*
X199538926Y-134092914D01*
X199112372Y-134686526D01*
X198587438Y-135195223D01*
X197980723Y-135602919D01*
X197311395Y-135896734D01*
X196593810Y-136069011D01*
X195967554Y-136115000D01*
X136039409Y-136115000D01*
X135271918Y-136046503D01*
X134566853Y-135853619D01*
X133907086Y-135538926D01*
X133313474Y-135112372D01*
X132804777Y-134587438D01*
X132397081Y-133980723D01*
X132103266Y-133311395D01*
X131930989Y-132593810D01*
X131885000Y-131967554D01*
X131885000Y-131779872D01*
X133765000Y-131779872D01*
X133765000Y-132220128D01*
X133850890Y-132651925D01*
X134019369Y-133058669D01*
X134263962Y-133424729D01*
X134575271Y-133736038D01*
X134941331Y-133980631D01*
X135348075Y-134149110D01*
X135779872Y-134235000D01*
X136220128Y-134235000D01*
X136651925Y-134149110D01*
X137058669Y-133980631D01*
X137424729Y-133736038D01*
X137624568Y-133536199D01*
X143992724Y-133536199D01*
X144110874Y-133757889D01*
X144423854Y-133833853D01*
X144745640Y-133847298D01*
X145063867Y-133797707D01*
X145195126Y-133757889D01*
X145313276Y-133536199D01*
X144753077Y-132976000D01*
X161573928Y-132976000D01*
X161586188Y-133100482D01*
X161622498Y-133220180D01*
X161681463Y-133330494D01*
X161760815Y-133427185D01*
X161857506Y-133506537D01*
X161967820Y-133565502D01*
X162087518Y-133601812D01*
X162212000Y-133614072D01*
X162880250Y-133611000D01*
X163039000Y-133452250D01*
X163039000Y-132149000D01*
X163985000Y-132149000D01*
X163985000Y-133452250D01*
X164143750Y-133611000D01*
X164812000Y-133614072D01*
X164936482Y-133601812D01*
X165056180Y-133565502D01*
X165166494Y-133506537D01*
X165263185Y-133427185D01*
X165342537Y-133330494D01*
X165401502Y-133220180D01*
X165437812Y-133100482D01*
X165450072Y-132976000D01*
X165447000Y-132307750D01*
X165288250Y-132149000D01*
X163985000Y-132149000D01*
X163039000Y-132149000D01*
X161735750Y-132149000D01*
X161577000Y-132307750D01*
X161573928Y-132976000D01*
X144753077Y-132976000D01*
X144653000Y-132875923D01*
X143992724Y-133536199D01*
X137624568Y-133536199D01*
X137736038Y-133424729D01*
X137980631Y-133058669D01*
X138149110Y-132651925D01*
X138219184Y-132299640D01*
X143012702Y-132299640D01*
X143062293Y-132617867D01*
X143102111Y-132749126D01*
X143323801Y-132867276D01*
X143984077Y-132207000D01*
X145321923Y-132207000D01*
X145982199Y-132867276D01*
X146203889Y-132749126D01*
X146279853Y-132436146D01*
X146293298Y-132114360D01*
X146243707Y-131796133D01*
X146203889Y-131664874D01*
X145982199Y-131546724D01*
X145321923Y-132207000D01*
X143984077Y-132207000D01*
X143323801Y-131546724D01*
X143102111Y-131664874D01*
X143026147Y-131977854D01*
X143012702Y-132299640D01*
X138219184Y-132299640D01*
X138235000Y-132220128D01*
X138235000Y-131779872D01*
X138149110Y-131348075D01*
X137980631Y-130941331D01*
X137938182Y-130877801D01*
X143992724Y-130877801D01*
X144653000Y-131538077D01*
X144705658Y-131485419D01*
X166657000Y-131485419D01*
X166657000Y-131866581D01*
X166731361Y-132240419D01*
X166877225Y-132592566D01*
X167088987Y-132909491D01*
X167358509Y-133179013D01*
X167675434Y-133390775D01*
X168027581Y-133536639D01*
X168401419Y-133611000D01*
X168782581Y-133611000D01*
X169156419Y-133536639D01*
X169508566Y-133390775D01*
X169825491Y-133179013D01*
X170095013Y-132909491D01*
X170306775Y-132592566D01*
X170452639Y-132240419D01*
X170527000Y-131866581D01*
X170527000Y-131779872D01*
X193765000Y-131779872D01*
X193765000Y-132220128D01*
X193850890Y-132651925D01*
X194019369Y-133058669D01*
X194263962Y-133424729D01*
X194575271Y-133736038D01*
X194941331Y-133980631D01*
X195348075Y-134149110D01*
X195779872Y-134235000D01*
X196220128Y-134235000D01*
X196651925Y-134149110D01*
X197058669Y-133980631D01*
X197424729Y-133736038D01*
X197736038Y-133424729D01*
X197980631Y-133058669D01*
X198149110Y-132651925D01*
X198235000Y-132220128D01*
X198235000Y-131779872D01*
X198149110Y-131348075D01*
X197980631Y-130941331D01*
X197736038Y-130575271D01*
X197424729Y-130263962D01*
X197058669Y-130019369D01*
X196651925Y-129850890D01*
X196220128Y-129765000D01*
X195779872Y-129765000D01*
X195348075Y-129850890D01*
X194941331Y-130019369D01*
X194575271Y-130263962D01*
X194263962Y-130575271D01*
X194019369Y-130941331D01*
X193850890Y-131348075D01*
X193765000Y-131779872D01*
X170527000Y-131779872D01*
X170527000Y-131485419D01*
X170452639Y-131111581D01*
X170306775Y-130759434D01*
X170095013Y-130442509D01*
X169825491Y-130172987D01*
X169508566Y-129961225D01*
X169156419Y-129815361D01*
X168782581Y-129741000D01*
X168401419Y-129741000D01*
X168027581Y-129815361D01*
X167675434Y-129961225D01*
X167358509Y-130172987D01*
X167088987Y-130442509D01*
X166877225Y-130759434D01*
X166731361Y-131111581D01*
X166657000Y-131485419D01*
X144705658Y-131485419D01*
X145313276Y-130877801D01*
X145195126Y-130656111D01*
X144882146Y-130580147D01*
X144560360Y-130566702D01*
X144242133Y-130616293D01*
X144110874Y-130656111D01*
X143992724Y-130877801D01*
X137938182Y-130877801D01*
X137736038Y-130575271D01*
X137536767Y-130376000D01*
X161573928Y-130376000D01*
X161577000Y-131044250D01*
X161735750Y-131203000D01*
X163039000Y-131203000D01*
X163039000Y-129899750D01*
X163985000Y-129899750D01*
X163985000Y-131203000D01*
X165288250Y-131203000D01*
X165447000Y-131044250D01*
X165450072Y-130376000D01*
X165437812Y-130251518D01*
X165401502Y-130131820D01*
X165342537Y-130021506D01*
X165263185Y-129924815D01*
X165166494Y-129845463D01*
X165056180Y-129786498D01*
X164936482Y-129750188D01*
X164812000Y-129737928D01*
X164143750Y-129741000D01*
X163985000Y-129899750D01*
X163039000Y-129899750D01*
X162880250Y-129741000D01*
X162212000Y-129737928D01*
X162087518Y-129750188D01*
X161967820Y-129786498D01*
X161857506Y-129845463D01*
X161760815Y-129924815D01*
X161681463Y-130021506D01*
X161622498Y-130131820D01*
X161586188Y-130251518D01*
X161573928Y-130376000D01*
X137536767Y-130376000D01*
X137424729Y-130263962D01*
X137058669Y-130019369D01*
X136651925Y-129850890D01*
X136220128Y-129765000D01*
X135779872Y-129765000D01*
X135348075Y-129850890D01*
X134941331Y-130019369D01*
X134575271Y-130263962D01*
X134263962Y-130575271D01*
X134019369Y-130941331D01*
X133850890Y-131348075D01*
X133765000Y-131779872D01*
X131885000Y-131779872D01*
X131885000Y-127336011D01*
X133226250Y-127333000D01*
X133385000Y-127174250D01*
X133385000Y-126171000D01*
X134331000Y-126171000D01*
X134331000Y-127174250D01*
X134489750Y-127333000D01*
X135858000Y-127336072D01*
X135982482Y-127323812D01*
X136102180Y-127287502D01*
X136212494Y-127228537D01*
X136309185Y-127149185D01*
X136388537Y-127052494D01*
X136447502Y-126942180D01*
X136483812Y-126822482D01*
X136496072Y-126698000D01*
X136493000Y-126329750D01*
X136334250Y-126171000D01*
X134331000Y-126171000D01*
X133385000Y-126171000D01*
X133365000Y-126171000D01*
X133365000Y-125225000D01*
X133385000Y-125225000D01*
X133385000Y-124221750D01*
X134331000Y-124221750D01*
X134331000Y-125225000D01*
X136334250Y-125225000D01*
X136493000Y-125066250D01*
X136496072Y-124698000D01*
X136483812Y-124573518D01*
X136447502Y-124453820D01*
X136388537Y-124343506D01*
X136309185Y-124246815D01*
X136212494Y-124167463D01*
X136102180Y-124108498D01*
X135982482Y-124072188D01*
X135858000Y-124059928D01*
X134489750Y-124063000D01*
X134331000Y-124221750D01*
X133385000Y-124221750D01*
X133226250Y-124063000D01*
X131885000Y-124059989D01*
X131885000Y-123336072D01*
X135858000Y-123336072D01*
X135982482Y-123323812D01*
X136102180Y-123287502D01*
X136212494Y-123228537D01*
X136309185Y-123149185D01*
X136388537Y-123052494D01*
X136404151Y-123023282D01*
X137946009Y-124565141D01*
X137981551Y-124608449D01*
X138154377Y-124750284D01*
X138351553Y-124855676D01*
X138565501Y-124920577D01*
X138732248Y-124937000D01*
X138732257Y-124937000D01*
X138787999Y-124942490D01*
X138843741Y-124937000D01*
X139010998Y-124937000D01*
X139088899Y-125000932D01*
X139338192Y-125134182D01*
X139608691Y-125216236D01*
X139819508Y-125237000D01*
X139960492Y-125237000D01*
X140171309Y-125216236D01*
X140441808Y-125134182D01*
X140691101Y-125000932D01*
X140909608Y-124821608D01*
X141088932Y-124603101D01*
X141222182Y-124353808D01*
X141304236Y-124083309D01*
X141331943Y-123802000D01*
X141304236Y-123520691D01*
X141222182Y-123250192D01*
X141088932Y-123000899D01*
X140909608Y-122782392D01*
X140691101Y-122603068D01*
X140511749Y-122507202D01*
X140569118Y-122526150D01*
X140802692Y-122369370D01*
X141001192Y-122170035D01*
X141154132Y-121941115D01*
X141075363Y-121735000D01*
X140363000Y-121735000D01*
X140363000Y-121755000D01*
X139417000Y-121755000D01*
X139417000Y-121735000D01*
X138704637Y-121735000D01*
X138625868Y-121941115D01*
X138778808Y-122170035D01*
X138977308Y-122369370D01*
X139210882Y-122526150D01*
X139268251Y-122507202D01*
X139157521Y-122566389D01*
X137525996Y-120934865D01*
X137490449Y-120891551D01*
X137317623Y-120749716D01*
X137120447Y-120644324D01*
X136906499Y-120579423D01*
X136739752Y-120563000D01*
X136739751Y-120563000D01*
X136684000Y-120557509D01*
X136628249Y-120563000D01*
X136480621Y-120563000D01*
X136447502Y-120453820D01*
X136388537Y-120343506D01*
X136309185Y-120246815D01*
X136212494Y-120167463D01*
X136102180Y-120108498D01*
X135982482Y-120072188D01*
X135858000Y-120059928D01*
X133870124Y-120059928D01*
X134052014Y-119962706D01*
X134278134Y-119777134D01*
X134463706Y-119551014D01*
X134601599Y-119293034D01*
X134686513Y-119013111D01*
X134715185Y-118722000D01*
X134686513Y-118430889D01*
X134601599Y-118150966D01*
X134463706Y-117892986D01*
X134278134Y-117666866D01*
X134052014Y-117481294D01*
X133997209Y-117452000D01*
X134052014Y-117422706D01*
X134278134Y-117237134D01*
X134463706Y-117011014D01*
X134601599Y-116753034D01*
X134686513Y-116473111D01*
X134715185Y-116182000D01*
X134686513Y-115890889D01*
X134601599Y-115610966D01*
X134463706Y-115352986D01*
X134278134Y-115126866D01*
X134052014Y-114941294D01*
X133997209Y-114912000D01*
X134052014Y-114882706D01*
X134278134Y-114697134D01*
X134463706Y-114471014D01*
X134601599Y-114213034D01*
X134686513Y-113933111D01*
X134715185Y-113642000D01*
X134686513Y-113350889D01*
X134601599Y-113070966D01*
X134463706Y-112812986D01*
X134278134Y-112586866D01*
X134248313Y-112562393D01*
X134317180Y-112541502D01*
X134427494Y-112482537D01*
X134524185Y-112403185D01*
X134603537Y-112306494D01*
X134662502Y-112196180D01*
X134698812Y-112076482D01*
X134711072Y-111952000D01*
X134711072Y-110252000D01*
X134698812Y-110127518D01*
X134662502Y-110007820D01*
X134603537Y-109897506D01*
X134524185Y-109800815D01*
X134427494Y-109721463D01*
X134317180Y-109662498D01*
X134197482Y-109626188D01*
X134073000Y-109613928D01*
X132373000Y-109613928D01*
X132248518Y-109626188D01*
X132128820Y-109662498D01*
X132018506Y-109721463D01*
X131921815Y-109800815D01*
X131885000Y-109845674D01*
X131885000Y-108562000D01*
X138448057Y-108562000D01*
X138475764Y-108843309D01*
X138557818Y-109113808D01*
X138691068Y-109363101D01*
X138870392Y-109581608D01*
X139088899Y-109760932D01*
X139221858Y-109832000D01*
X139088899Y-109903068D01*
X138870392Y-110082392D01*
X138691068Y-110300899D01*
X138557818Y-110550192D01*
X138475764Y-110820691D01*
X138448057Y-111102000D01*
X138475764Y-111383309D01*
X138557818Y-111653808D01*
X138691068Y-111903101D01*
X138870392Y-112121608D01*
X139088899Y-112300932D01*
X139221858Y-112372000D01*
X139088899Y-112443068D01*
X138870392Y-112622392D01*
X138691068Y-112840899D01*
X138557818Y-113090192D01*
X138475764Y-113360691D01*
X138448057Y-113642000D01*
X138475764Y-113923309D01*
X138557818Y-114193808D01*
X138691068Y-114443101D01*
X138870392Y-114661608D01*
X139088899Y-114840932D01*
X139221858Y-114912000D01*
X139088899Y-114983068D01*
X138870392Y-115162392D01*
X138691068Y-115380899D01*
X138557818Y-115630192D01*
X138475764Y-115900691D01*
X138448057Y-116182000D01*
X138475764Y-116463309D01*
X138557818Y-116733808D01*
X138691068Y-116983101D01*
X138870392Y-117201608D01*
X139088899Y-117380932D01*
X139221858Y-117452000D01*
X139088899Y-117523068D01*
X138870392Y-117702392D01*
X138691068Y-117920899D01*
X138557818Y-118170192D01*
X138475764Y-118440691D01*
X138448057Y-118722000D01*
X138475764Y-119003309D01*
X138557818Y-119273808D01*
X138691068Y-119523101D01*
X138870392Y-119741608D01*
X139088899Y-119920932D01*
X139268251Y-120016798D01*
X139210882Y-119997850D01*
X138977308Y-120154630D01*
X138778808Y-120353965D01*
X138625868Y-120582885D01*
X138704637Y-120789000D01*
X139417000Y-120789000D01*
X139417000Y-120769000D01*
X140363000Y-120769000D01*
X140363000Y-120789000D01*
X141075363Y-120789000D01*
X141154132Y-120582885D01*
X141001192Y-120353965D01*
X140802692Y-120154630D01*
X140569118Y-119997850D01*
X140511749Y-120016798D01*
X140691101Y-119920932D01*
X140909608Y-119741608D01*
X141088932Y-119523101D01*
X141222182Y-119273808D01*
X141304236Y-119003309D01*
X141331943Y-118722000D01*
X141304236Y-118440691D01*
X141222182Y-118170192D01*
X141088932Y-117920899D01*
X140909608Y-117702392D01*
X140691101Y-117523068D01*
X140558142Y-117452000D01*
X140691101Y-117380932D01*
X140909608Y-117201608D01*
X141088932Y-116983101D01*
X141222182Y-116733808D01*
X141304236Y-116463309D01*
X141331943Y-116182000D01*
X141304236Y-115900691D01*
X141222182Y-115630192D01*
X141088932Y-115380899D01*
X140909608Y-115162392D01*
X140691101Y-114983068D01*
X140558142Y-114912000D01*
X140691101Y-114840932D01*
X140909608Y-114661608D01*
X141088932Y-114443101D01*
X141222182Y-114193808D01*
X141304236Y-113923309D01*
X141331943Y-113642000D01*
X141304236Y-113360691D01*
X141222182Y-113090192D01*
X141088932Y-112840899D01*
X140909608Y-112622392D01*
X140691101Y-112443068D01*
X140558142Y-112372000D01*
X140691101Y-112300932D01*
X140909608Y-112121608D01*
X141088932Y-111903101D01*
X141222182Y-111653808D01*
X141304236Y-111383309D01*
X141331943Y-111102000D01*
X141304236Y-110820691D01*
X141222182Y-110550192D01*
X141088932Y-110300899D01*
X140909608Y-110082392D01*
X140691101Y-109903068D01*
X140558142Y-109832000D01*
X140691101Y-109760932D01*
X140909608Y-109581608D01*
X141088932Y-109363101D01*
X141222182Y-109113808D01*
X141304236Y-108843309D01*
X141331943Y-108562000D01*
X141304236Y-108280691D01*
X141222182Y-108010192D01*
X141088932Y-107760899D01*
X140909608Y-107542392D01*
X140796518Y-107449581D01*
X140814482Y-107447812D01*
X140934180Y-107411502D01*
X141044494Y-107352537D01*
X141141185Y-107273185D01*
X141220537Y-107176494D01*
X141279502Y-107066180D01*
X141315812Y-106946482D01*
X141328072Y-106822000D01*
X141325000Y-106653750D01*
X141166250Y-106495000D01*
X140363000Y-106495000D01*
X140363000Y-106515000D01*
X139417000Y-106515000D01*
X139417000Y-106495000D01*
X138613750Y-106495000D01*
X138455000Y-106653750D01*
X138451928Y-106822000D01*
X138464188Y-106946482D01*
X138500498Y-107066180D01*
X138559463Y-107176494D01*
X138638815Y-107273185D01*
X138735506Y-107352537D01*
X138845820Y-107411502D01*
X138965518Y-107447812D01*
X138983482Y-107449581D01*
X138870392Y-107542392D01*
X138691068Y-107760899D01*
X138557818Y-108010192D01*
X138475764Y-108280691D01*
X138448057Y-108562000D01*
X131885000Y-108562000D01*
X131885000Y-106022000D01*
X151148057Y-106022000D01*
X151175764Y-106303309D01*
X151257818Y-106573808D01*
X151391068Y-106823101D01*
X151570392Y-107041608D01*
X151788899Y-107220932D01*
X151921858Y-107292000D01*
X151788899Y-107363068D01*
X151570392Y-107542392D01*
X151391068Y-107760899D01*
X151257818Y-108010192D01*
X151175764Y-108280691D01*
X151148057Y-108562000D01*
X151175764Y-108843309D01*
X151257818Y-109113808D01*
X151391068Y-109363101D01*
X151570392Y-109581608D01*
X151788899Y-109760932D01*
X151921858Y-109832000D01*
X151788899Y-109903068D01*
X151570392Y-110082392D01*
X151391068Y-110300899D01*
X151257818Y-110550192D01*
X151175764Y-110820691D01*
X151148057Y-111102000D01*
X151175764Y-111383309D01*
X151257818Y-111653808D01*
X151391068Y-111903101D01*
X151570392Y-112121608D01*
X151788899Y-112300932D01*
X151921858Y-112372000D01*
X151788899Y-112443068D01*
X151570392Y-112622392D01*
X151391068Y-112840899D01*
X151257818Y-113090192D01*
X151175764Y-113360691D01*
X151148057Y-113642000D01*
X151175764Y-113923309D01*
X151257818Y-114193808D01*
X151391068Y-114443101D01*
X151570392Y-114661608D01*
X151788899Y-114840932D01*
X151921858Y-114912000D01*
X151788899Y-114983068D01*
X151570392Y-115162392D01*
X151391068Y-115380899D01*
X151257818Y-115630192D01*
X151175764Y-115900691D01*
X151148057Y-116182000D01*
X151175764Y-116463309D01*
X151257818Y-116733808D01*
X151391068Y-116983101D01*
X151570392Y-117201608D01*
X151788899Y-117380932D01*
X151921858Y-117452000D01*
X151788899Y-117523068D01*
X151570392Y-117702392D01*
X151391068Y-117920899D01*
X151257818Y-118170192D01*
X151175764Y-118440691D01*
X151148057Y-118722000D01*
X151175764Y-119003309D01*
X151257818Y-119273808D01*
X151391068Y-119523101D01*
X151570392Y-119741608D01*
X151788899Y-119920932D01*
X151921858Y-119992000D01*
X151788899Y-120063068D01*
X151570392Y-120242392D01*
X151391068Y-120460899D01*
X151257818Y-120710192D01*
X151175764Y-120980691D01*
X151148057Y-121262000D01*
X151175764Y-121543309D01*
X151257818Y-121813808D01*
X151391068Y-122063101D01*
X151570392Y-122281608D01*
X151788899Y-122460932D01*
X151921858Y-122532000D01*
X151788899Y-122603068D01*
X151570392Y-122782392D01*
X151391068Y-123000899D01*
X151257818Y-123250192D01*
X151175764Y-123520691D01*
X151148057Y-123802000D01*
X151175764Y-124083309D01*
X151257818Y-124353808D01*
X151391068Y-124603101D01*
X151570392Y-124821608D01*
X151788899Y-125000932D01*
X152038192Y-125134182D01*
X152308691Y-125216236D01*
X152519508Y-125237000D01*
X152660492Y-125237000D01*
X152871309Y-125216236D01*
X153141808Y-125134182D01*
X153391101Y-125000932D01*
X153609608Y-124821608D01*
X153788932Y-124603101D01*
X153922182Y-124353808D01*
X154004236Y-124083309D01*
X154031943Y-123802000D01*
X154004236Y-123520691D01*
X153922182Y-123250192D01*
X153788932Y-123000899D01*
X153609608Y-122782392D01*
X153391101Y-122603068D01*
X153258142Y-122532000D01*
X153391101Y-122460932D01*
X153609608Y-122281608D01*
X153788932Y-122063101D01*
X153922182Y-121813808D01*
X154004236Y-121543309D01*
X154031943Y-121262000D01*
X154004236Y-120980691D01*
X153922182Y-120710192D01*
X153906915Y-120681629D01*
X162181486Y-120681629D01*
X162341591Y-120927948D01*
X162546674Y-121138299D01*
X162788854Y-121304599D01*
X162822374Y-121322495D01*
X163039000Y-121245582D01*
X163039000Y-120465000D01*
X162248735Y-120465000D01*
X162181486Y-120681629D01*
X153906915Y-120681629D01*
X153788932Y-120460899D01*
X153609608Y-120242392D01*
X153391101Y-120063068D01*
X153258142Y-119992000D01*
X153391101Y-119920932D01*
X153609608Y-119741608D01*
X153788932Y-119523101D01*
X153922182Y-119273808D01*
X154004236Y-119003309D01*
X154031943Y-118722000D01*
X154004236Y-118440691D01*
X153922182Y-118170192D01*
X153788932Y-117920899D01*
X153609608Y-117702392D01*
X153391101Y-117523068D01*
X153258142Y-117452000D01*
X162006149Y-117452000D01*
X162035084Y-117745777D01*
X162120775Y-118028264D01*
X162259931Y-118288606D01*
X162447203Y-118516797D01*
X162675394Y-118704069D01*
X162718993Y-118727373D01*
X162546674Y-118845701D01*
X162341591Y-119056052D01*
X162181486Y-119302371D01*
X162248735Y-119519000D01*
X163039000Y-119519000D01*
X163039000Y-119499000D01*
X163985000Y-119499000D01*
X163985000Y-119519000D01*
X164005000Y-119519000D01*
X164005000Y-120465000D01*
X163985000Y-120465000D01*
X163985000Y-121245582D01*
X164201626Y-121322495D01*
X164235146Y-121304599D01*
X164477326Y-121138299D01*
X164682409Y-120927948D01*
X164776037Y-120783903D01*
X164799931Y-120828606D01*
X164987203Y-121056797D01*
X165215394Y-121244069D01*
X165267000Y-121271653D01*
X165267001Y-123570879D01*
X165223414Y-123636111D01*
X165152932Y-123806271D01*
X165117000Y-123986911D01*
X165117000Y-124171089D01*
X165152932Y-124351729D01*
X165223414Y-124521889D01*
X165325738Y-124675028D01*
X165455972Y-124805262D01*
X165609111Y-124907586D01*
X165779271Y-124978068D01*
X165959911Y-125014000D01*
X166144089Y-125014000D01*
X166324729Y-124978068D01*
X166494889Y-124907586D01*
X166648028Y-124805262D01*
X166778262Y-124675028D01*
X166880586Y-124521889D01*
X166951068Y-124351729D01*
X166987000Y-124171089D01*
X166987000Y-123986911D01*
X166951068Y-123806271D01*
X166880586Y-123636111D01*
X166837000Y-123570880D01*
X166837000Y-121271653D01*
X166888606Y-121244069D01*
X167116797Y-121056797D01*
X167304069Y-120828606D01*
X167322000Y-120795060D01*
X167339931Y-120828606D01*
X167527203Y-121056797D01*
X167755394Y-121244069D01*
X168015736Y-121383225D01*
X168298223Y-121468916D01*
X168518381Y-121490600D01*
X168665619Y-121490600D01*
X168885777Y-121468916D01*
X169168264Y-121383225D01*
X169428606Y-121244069D01*
X169656797Y-121056797D01*
X169844069Y-120828606D01*
X169983225Y-120568264D01*
X170068916Y-120285777D01*
X170097851Y-119992000D01*
X170068916Y-119698223D01*
X169983225Y-119415736D01*
X169844069Y-119155394D01*
X169656797Y-118927203D01*
X169648735Y-118920586D01*
X169699780Y-118905102D01*
X169810094Y-118846137D01*
X169906785Y-118766785D01*
X169986137Y-118670094D01*
X170045102Y-118559780D01*
X170081412Y-118440082D01*
X170093672Y-118315600D01*
X170093672Y-116588400D01*
X170081412Y-116463918D01*
X170045102Y-116344220D01*
X169986137Y-116233906D01*
X169906785Y-116137215D01*
X169810094Y-116057863D01*
X169699780Y-115998898D01*
X169580082Y-115962588D01*
X169455600Y-115950328D01*
X169377500Y-115950328D01*
X169377500Y-113982620D01*
X169421086Y-113917389D01*
X169491568Y-113747229D01*
X169527500Y-113566589D01*
X169527500Y-113382411D01*
X169491568Y-113201771D01*
X169421086Y-113031611D01*
X169318762Y-112878472D01*
X169188528Y-112748238D01*
X169035389Y-112645914D01*
X168865229Y-112575432D01*
X168684589Y-112539500D01*
X168500411Y-112539500D01*
X168319771Y-112575432D01*
X168149611Y-112645914D01*
X167996472Y-112748238D01*
X167866238Y-112878472D01*
X167763914Y-113031611D01*
X167693432Y-113201771D01*
X167657500Y-113382411D01*
X167657500Y-113566589D01*
X167693432Y-113747229D01*
X167763914Y-113917389D01*
X167807500Y-113982620D01*
X167807501Y-115950328D01*
X167728400Y-115950328D01*
X167603918Y-115962588D01*
X167484220Y-115998898D01*
X167373906Y-116057863D01*
X167277215Y-116137215D01*
X167197863Y-116233906D01*
X167138898Y-116344220D01*
X167123414Y-116395265D01*
X167116797Y-116387203D01*
X166888606Y-116199931D01*
X166628264Y-116060775D01*
X166345777Y-115975084D01*
X166125619Y-115953400D01*
X165978381Y-115953400D01*
X165758223Y-115975084D01*
X165475736Y-116060775D01*
X165215394Y-116199931D01*
X164987203Y-116387203D01*
X164799931Y-116615394D01*
X164782000Y-116648940D01*
X164764069Y-116615394D01*
X164576797Y-116387203D01*
X164348606Y-116199931D01*
X164088264Y-116060775D01*
X163805777Y-115975084D01*
X163585619Y-115953400D01*
X163438381Y-115953400D01*
X163218223Y-115975084D01*
X162935736Y-116060775D01*
X162675394Y-116199931D01*
X162447203Y-116387203D01*
X162259931Y-116615394D01*
X162120775Y-116875736D01*
X162035084Y-117158223D01*
X162006149Y-117452000D01*
X153258142Y-117452000D01*
X153391101Y-117380932D01*
X153609608Y-117201608D01*
X153788932Y-116983101D01*
X153922182Y-116733808D01*
X154004236Y-116463309D01*
X154031943Y-116182000D01*
X154004236Y-115900691D01*
X153922182Y-115630192D01*
X153788932Y-115380899D01*
X153609608Y-115162392D01*
X153391101Y-114983068D01*
X153258142Y-114912000D01*
X153391101Y-114840932D01*
X153609608Y-114661608D01*
X153788932Y-114443101D01*
X153922182Y-114193808D01*
X154004236Y-113923309D01*
X154031943Y-113642000D01*
X154004236Y-113360691D01*
X153922182Y-113090192D01*
X153788932Y-112840899D01*
X153609608Y-112622392D01*
X153391101Y-112443068D01*
X153258142Y-112372000D01*
X153391101Y-112300932D01*
X153609608Y-112121608D01*
X153788932Y-111903101D01*
X153922182Y-111653808D01*
X154004236Y-111383309D01*
X154031943Y-111102000D01*
X154004236Y-110820691D01*
X153998936Y-110803221D01*
X155213811Y-109588346D01*
X155243764Y-109563764D01*
X155341862Y-109444233D01*
X155414754Y-109307860D01*
X155435001Y-109241115D01*
X155459642Y-109159887D01*
X155467020Y-109084974D01*
X155471000Y-109044561D01*
X155471000Y-109044556D01*
X155474797Y-109006000D01*
X155471000Y-108967444D01*
X155471000Y-108019967D01*
X155654000Y-108019967D01*
X155654000Y-108342033D01*
X155716832Y-108657912D01*
X155840082Y-108955463D01*
X156019013Y-109223252D01*
X156246748Y-109450987D01*
X156514537Y-109629918D01*
X156812088Y-109753168D01*
X157127967Y-109816000D01*
X157450033Y-109816000D01*
X157765912Y-109753168D01*
X158063463Y-109629918D01*
X158331252Y-109450987D01*
X158558987Y-109223252D01*
X158737918Y-108955463D01*
X158861168Y-108657912D01*
X158924000Y-108342033D01*
X158924000Y-108019967D01*
X158861168Y-107704088D01*
X158737918Y-107406537D01*
X158558987Y-107138748D01*
X158331252Y-106911013D01*
X158063463Y-106732082D01*
X157765912Y-106608832D01*
X157450033Y-106546000D01*
X157127967Y-106546000D01*
X156812088Y-106608832D01*
X156514537Y-106732082D01*
X156246748Y-106911013D01*
X156019013Y-107138748D01*
X155840082Y-107406537D01*
X155716832Y-107704088D01*
X155654000Y-108019967D01*
X155471000Y-108019967D01*
X155471000Y-105571911D01*
X173055000Y-105571911D01*
X173055000Y-105756089D01*
X173090932Y-105936729D01*
X173161414Y-106106889D01*
X173263738Y-106260028D01*
X173393972Y-106390262D01*
X173547111Y-106492586D01*
X173717271Y-106563068D01*
X173794216Y-106578374D01*
X175615627Y-108399784D01*
X175630932Y-108476729D01*
X175701414Y-108646889D01*
X175803738Y-108800028D01*
X175933972Y-108930262D01*
X176087111Y-109032586D01*
X176257271Y-109103068D01*
X176437911Y-109139000D01*
X176622089Y-109139000D01*
X176802729Y-109103068D01*
X176972889Y-109032586D01*
X177126028Y-108930262D01*
X177256262Y-108800028D01*
X177358586Y-108646889D01*
X177429068Y-108476729D01*
X177465000Y-108296089D01*
X177465000Y-108111911D01*
X177429068Y-107931271D01*
X177358586Y-107761111D01*
X177256262Y-107607972D01*
X177126028Y-107477738D01*
X176972889Y-107375414D01*
X176802729Y-107304932D01*
X176725784Y-107289627D01*
X174904374Y-105468216D01*
X174889068Y-105391271D01*
X174818586Y-105221111D01*
X174716262Y-105067972D01*
X174586028Y-104937738D01*
X174432889Y-104835414D01*
X174262729Y-104764932D01*
X174082089Y-104729000D01*
X173897911Y-104729000D01*
X173717271Y-104764932D01*
X173547111Y-104835414D01*
X173393972Y-104937738D01*
X173263738Y-105067972D01*
X173161414Y-105221111D01*
X173090932Y-105391271D01*
X173055000Y-105571911D01*
X155471000Y-105571911D01*
X155471000Y-103957157D01*
X159837164Y-99590994D01*
X165099886Y-99590994D01*
X165165117Y-99634580D01*
X165335277Y-99705062D01*
X165515917Y-99740994D01*
X165700095Y-99740994D01*
X165880735Y-99705062D01*
X166050895Y-99634580D01*
X166204034Y-99532256D01*
X166334268Y-99402022D01*
X166436592Y-99248883D01*
X166507074Y-99078723D01*
X166543006Y-98898083D01*
X166543006Y-98713905D01*
X166507074Y-98533265D01*
X166436592Y-98363105D01*
X166334268Y-98209966D01*
X166204034Y-98079732D01*
X166050895Y-97977408D01*
X165880735Y-97906926D01*
X165700095Y-97870994D01*
X165515917Y-97870994D01*
X165335277Y-97906926D01*
X165165117Y-97977408D01*
X165099886Y-98020994D01*
X160671710Y-98020994D01*
X160722093Y-97987329D01*
X160852327Y-97857095D01*
X160954651Y-97703956D01*
X161025133Y-97533796D01*
X161061065Y-97353156D01*
X161061065Y-97168978D01*
X161025133Y-96988338D01*
X160954651Y-96818178D01*
X160876628Y-96701407D01*
X162420124Y-95157911D01*
X165435000Y-95157911D01*
X165435000Y-95342089D01*
X165470932Y-95522729D01*
X165541414Y-95692889D01*
X165643738Y-95846028D01*
X165773972Y-95976262D01*
X165927111Y-96078586D01*
X166097271Y-96149068D01*
X166174217Y-96164374D01*
X177139627Y-107129785D01*
X177154932Y-107206729D01*
X177225414Y-107376889D01*
X177327738Y-107530028D01*
X177457972Y-107660262D01*
X177611111Y-107762586D01*
X177781271Y-107833068D01*
X177961911Y-107869000D01*
X178146089Y-107869000D01*
X178326729Y-107833068D01*
X178496889Y-107762586D01*
X178650028Y-107660262D01*
X178659121Y-107651169D01*
X178569068Y-107760899D01*
X178435818Y-108010192D01*
X178353764Y-108280691D01*
X178326057Y-108562000D01*
X178353764Y-108843309D01*
X178435818Y-109113808D01*
X178569068Y-109363101D01*
X178748392Y-109581608D01*
X178966899Y-109760932D01*
X179099858Y-109832000D01*
X178966899Y-109903068D01*
X178748392Y-110082392D01*
X178569068Y-110300899D01*
X178435818Y-110550192D01*
X178353764Y-110820691D01*
X178326057Y-111102000D01*
X178353764Y-111383309D01*
X178435818Y-111653808D01*
X178569068Y-111903101D01*
X178748392Y-112121608D01*
X178966899Y-112300932D01*
X179099858Y-112372000D01*
X178966899Y-112443068D01*
X178748392Y-112622392D01*
X178569068Y-112840899D01*
X178435818Y-113090192D01*
X178353764Y-113360691D01*
X178326057Y-113642000D01*
X178353764Y-113923309D01*
X178435818Y-114193808D01*
X178569068Y-114443101D01*
X178748392Y-114661608D01*
X178966899Y-114840932D01*
X179099858Y-114912000D01*
X178966899Y-114983068D01*
X178748392Y-115162392D01*
X178569068Y-115380899D01*
X178435818Y-115630192D01*
X178353764Y-115900691D01*
X178326057Y-116182000D01*
X178353764Y-116463309D01*
X178435818Y-116733808D01*
X178569068Y-116983101D01*
X178748392Y-117201608D01*
X178966899Y-117380932D01*
X179099858Y-117452000D01*
X178966899Y-117523068D01*
X178748392Y-117702392D01*
X178569068Y-117920899D01*
X178435818Y-118170192D01*
X178353764Y-118440691D01*
X178326057Y-118722000D01*
X178353764Y-119003309D01*
X178435818Y-119273808D01*
X178569068Y-119523101D01*
X178748392Y-119741608D01*
X178966899Y-119920932D01*
X179099858Y-119992000D01*
X178966899Y-120063068D01*
X178748392Y-120242392D01*
X178569068Y-120460899D01*
X178435818Y-120710192D01*
X178353764Y-120980691D01*
X178326057Y-121262000D01*
X178353764Y-121543309D01*
X178435818Y-121813808D01*
X178569068Y-122063101D01*
X178748392Y-122281608D01*
X178966899Y-122460932D01*
X179099858Y-122532000D01*
X178966899Y-122603068D01*
X178748392Y-122782392D01*
X178569068Y-123000899D01*
X178435818Y-123250192D01*
X178353764Y-123520691D01*
X178326057Y-123802000D01*
X178353764Y-124083309D01*
X178435818Y-124353808D01*
X178569068Y-124603101D01*
X178748392Y-124821608D01*
X178966899Y-125000932D01*
X179216192Y-125134182D01*
X179486691Y-125216236D01*
X179697508Y-125237000D01*
X179838492Y-125237000D01*
X180049309Y-125216236D01*
X180319808Y-125134182D01*
X180569101Y-125000932D01*
X180787608Y-124821608D01*
X180966932Y-124603101D01*
X180967520Y-124602000D01*
X191029928Y-124602000D01*
X191042188Y-124726482D01*
X191078498Y-124846180D01*
X191137463Y-124956494D01*
X191216815Y-125053185D01*
X191313506Y-125132537D01*
X191423820Y-125191502D01*
X191543518Y-125227812D01*
X191668000Y-125240072D01*
X191836250Y-125237000D01*
X191995000Y-125078250D01*
X191995000Y-124275000D01*
X192941000Y-124275000D01*
X192941000Y-125078250D01*
X193099750Y-125237000D01*
X193268000Y-125240072D01*
X193392482Y-125227812D01*
X193512180Y-125191502D01*
X193622494Y-125132537D01*
X193719185Y-125053185D01*
X193798537Y-124956494D01*
X193857502Y-124846180D01*
X193893812Y-124726482D01*
X193906072Y-124602000D01*
X193903000Y-124433750D01*
X193744250Y-124275000D01*
X192941000Y-124275000D01*
X191995000Y-124275000D01*
X191191750Y-124275000D01*
X191033000Y-124433750D01*
X191029928Y-124602000D01*
X180967520Y-124602000D01*
X181100182Y-124353808D01*
X181182236Y-124083309D01*
X181209943Y-123802000D01*
X181182236Y-123520691D01*
X181100182Y-123250192D01*
X180966932Y-123000899D01*
X180787608Y-122782392D01*
X180569101Y-122603068D01*
X180436142Y-122532000D01*
X180569101Y-122460932D01*
X180787608Y-122281608D01*
X180966932Y-122063101D01*
X181100182Y-121813808D01*
X181182236Y-121543309D01*
X181209943Y-121262000D01*
X181182236Y-120980691D01*
X181100182Y-120710192D01*
X180966932Y-120460899D01*
X180787608Y-120242392D01*
X180569101Y-120063068D01*
X180436142Y-119992000D01*
X180569101Y-119920932D01*
X180787608Y-119741608D01*
X180966932Y-119523101D01*
X181100182Y-119273808D01*
X181182236Y-119003309D01*
X181209943Y-118722000D01*
X181182236Y-118440691D01*
X181100182Y-118170192D01*
X180966932Y-117920899D01*
X180787608Y-117702392D01*
X180569101Y-117523068D01*
X180436142Y-117452000D01*
X180569101Y-117380932D01*
X180787608Y-117201608D01*
X180966932Y-116983101D01*
X181100182Y-116733808D01*
X181182236Y-116463309D01*
X181209943Y-116182000D01*
X181182236Y-115900691D01*
X181100182Y-115630192D01*
X180966932Y-115380899D01*
X180787608Y-115162392D01*
X180569101Y-114983068D01*
X180436142Y-114912000D01*
X180569101Y-114840932D01*
X180787608Y-114661608D01*
X180966932Y-114443101D01*
X181100182Y-114193808D01*
X181182236Y-113923309D01*
X181209943Y-113642000D01*
X181182236Y-113360691D01*
X181100182Y-113090192D01*
X180966932Y-112840899D01*
X180787608Y-112622392D01*
X180569101Y-112443068D01*
X180436142Y-112372000D01*
X180569101Y-112300932D01*
X180787608Y-112121608D01*
X180966932Y-111903101D01*
X181100182Y-111653808D01*
X181182236Y-111383309D01*
X181209943Y-111102000D01*
X191026057Y-111102000D01*
X191053764Y-111383309D01*
X191135818Y-111653808D01*
X191269068Y-111903101D01*
X191448392Y-112121608D01*
X191666899Y-112300932D01*
X191799858Y-112372000D01*
X191666899Y-112443068D01*
X191448392Y-112622392D01*
X191269068Y-112840899D01*
X191135818Y-113090192D01*
X191053764Y-113360691D01*
X191026057Y-113642000D01*
X191053764Y-113923309D01*
X191135818Y-114193808D01*
X191269068Y-114443101D01*
X191448392Y-114661608D01*
X191666899Y-114840932D01*
X191799858Y-114912000D01*
X191666899Y-114983068D01*
X191448392Y-115162392D01*
X191269068Y-115380899D01*
X191135818Y-115630192D01*
X191053764Y-115900691D01*
X191026057Y-116182000D01*
X191053764Y-116463309D01*
X191135818Y-116733808D01*
X191269068Y-116983101D01*
X191448392Y-117201608D01*
X191666899Y-117380932D01*
X191799858Y-117452000D01*
X191666899Y-117523068D01*
X191448392Y-117702392D01*
X191269068Y-117920899D01*
X191135818Y-118170192D01*
X191053764Y-118440691D01*
X191026057Y-118722000D01*
X191053764Y-119003309D01*
X191135818Y-119273808D01*
X191269068Y-119523101D01*
X191448392Y-119741608D01*
X191666899Y-119920932D01*
X191799858Y-119992000D01*
X191666899Y-120063068D01*
X191448392Y-120242392D01*
X191269068Y-120460899D01*
X191135818Y-120710192D01*
X191053764Y-120980691D01*
X191026057Y-121262000D01*
X191053764Y-121543309D01*
X191135818Y-121813808D01*
X191269068Y-122063101D01*
X191448392Y-122281608D01*
X191561482Y-122374419D01*
X191543518Y-122376188D01*
X191423820Y-122412498D01*
X191313506Y-122471463D01*
X191216815Y-122550815D01*
X191137463Y-122647506D01*
X191078498Y-122757820D01*
X191042188Y-122877518D01*
X191029928Y-123002000D01*
X191033000Y-123170250D01*
X191191750Y-123329000D01*
X191995000Y-123329000D01*
X191995000Y-123309000D01*
X192941000Y-123309000D01*
X192941000Y-123329000D01*
X193744250Y-123329000D01*
X193903000Y-123170250D01*
X193906072Y-123002000D01*
X193893812Y-122877518D01*
X193857502Y-122757820D01*
X193798537Y-122647506D01*
X193719185Y-122550815D01*
X193622494Y-122471463D01*
X193512180Y-122412498D01*
X193392482Y-122376188D01*
X193374518Y-122374419D01*
X193487608Y-122281608D01*
X193666932Y-122063101D01*
X193800182Y-121813808D01*
X193882236Y-121543309D01*
X193909943Y-121262000D01*
X193882236Y-120980691D01*
X193800182Y-120710192D01*
X193666932Y-120460899D01*
X193487608Y-120242392D01*
X193269101Y-120063068D01*
X193136142Y-119992000D01*
X193269101Y-119920932D01*
X193487608Y-119741608D01*
X193666932Y-119523101D01*
X193800182Y-119273808D01*
X193882236Y-119003309D01*
X193909943Y-118722000D01*
X193882236Y-118440691D01*
X193800182Y-118170192D01*
X193666932Y-117920899D01*
X193487608Y-117702392D01*
X193269101Y-117523068D01*
X193136142Y-117452000D01*
X193269101Y-117380932D01*
X193487608Y-117201608D01*
X193666932Y-116983101D01*
X193800182Y-116733808D01*
X193882236Y-116463309D01*
X193909943Y-116182000D01*
X193882236Y-115900691D01*
X193800182Y-115630192D01*
X193666932Y-115380899D01*
X193487608Y-115162392D01*
X193269101Y-114983068D01*
X193136142Y-114912000D01*
X193269101Y-114840932D01*
X193487608Y-114661608D01*
X193666932Y-114443101D01*
X193800182Y-114193808D01*
X193882236Y-113923309D01*
X193909943Y-113642000D01*
X193882236Y-113360691D01*
X193800182Y-113090192D01*
X193666932Y-112840899D01*
X193487608Y-112622392D01*
X193269101Y-112443068D01*
X193136142Y-112372000D01*
X193269101Y-112300932D01*
X193487608Y-112121608D01*
X193666932Y-111903101D01*
X193800182Y-111653808D01*
X193882236Y-111383309D01*
X193909943Y-111102000D01*
X193882236Y-110820691D01*
X193800182Y-110550192D01*
X193666932Y-110300899D01*
X193487608Y-110082392D01*
X193269101Y-109903068D01*
X193089749Y-109807202D01*
X193147118Y-109826150D01*
X193380692Y-109669370D01*
X193579192Y-109470035D01*
X193732132Y-109241115D01*
X193653363Y-109035000D01*
X192941000Y-109035000D01*
X192941000Y-109055000D01*
X191995000Y-109055000D01*
X191995000Y-109035000D01*
X191282637Y-109035000D01*
X191203868Y-109241115D01*
X191356808Y-109470035D01*
X191555308Y-109669370D01*
X191788882Y-109826150D01*
X191846251Y-109807202D01*
X191666899Y-109903068D01*
X191448392Y-110082392D01*
X191269068Y-110300899D01*
X191135818Y-110550192D01*
X191053764Y-110820691D01*
X191026057Y-111102000D01*
X181209943Y-111102000D01*
X181182236Y-110820691D01*
X181100182Y-110550192D01*
X180966932Y-110300899D01*
X180787608Y-110082392D01*
X180569101Y-109903068D01*
X180436142Y-109832000D01*
X180569101Y-109760932D01*
X180787608Y-109581608D01*
X180966932Y-109363101D01*
X181100182Y-109113808D01*
X181182236Y-108843309D01*
X181209943Y-108562000D01*
X181182236Y-108280691D01*
X181100182Y-108010192D01*
X180966932Y-107760899D01*
X180787608Y-107542392D01*
X180569101Y-107363068D01*
X180436142Y-107292000D01*
X180569101Y-107220932D01*
X180787608Y-107041608D01*
X180966932Y-106823101D01*
X181100182Y-106573808D01*
X181182236Y-106303309D01*
X181209943Y-106022000D01*
X181182236Y-105740691D01*
X181100182Y-105470192D01*
X180966932Y-105220899D01*
X180787608Y-105002392D01*
X180569101Y-104823068D01*
X180319808Y-104689818D01*
X180049309Y-104607764D01*
X179838492Y-104587000D01*
X179697508Y-104587000D01*
X179486691Y-104607764D01*
X179216192Y-104689818D01*
X178966899Y-104823068D01*
X178748392Y-105002392D01*
X178569068Y-105220899D01*
X178435818Y-105470192D01*
X178353764Y-105740691D01*
X178326057Y-106022000D01*
X178327356Y-106035192D01*
X178326729Y-106034932D01*
X178249785Y-106019627D01*
X175714224Y-103484066D01*
X175795762Y-103402528D01*
X175898086Y-103249389D01*
X175968568Y-103079229D01*
X175981742Y-103013000D01*
X195481928Y-103013000D01*
X195494188Y-103137482D01*
X195530498Y-103257180D01*
X195589463Y-103367494D01*
X195668815Y-103464185D01*
X195765506Y-103543537D01*
X195875820Y-103602502D01*
X195995518Y-103638812D01*
X196120000Y-103651072D01*
X197488250Y-103648000D01*
X197647000Y-103489250D01*
X197647000Y-102486000D01*
X195643750Y-102486000D01*
X195485000Y-102644750D01*
X195481928Y-103013000D01*
X175981742Y-103013000D01*
X176001037Y-102916000D01*
X176114089Y-102916000D01*
X176294729Y-102880068D01*
X176464889Y-102809586D01*
X176618028Y-102707262D01*
X176748262Y-102577028D01*
X176850586Y-102423889D01*
X176921068Y-102253729D01*
X176957000Y-102073089D01*
X176957000Y-101888911D01*
X176921068Y-101708271D01*
X176850586Y-101538111D01*
X176748262Y-101384972D01*
X176618028Y-101254738D01*
X176464889Y-101152414D01*
X176294729Y-101081932D01*
X176217784Y-101066627D01*
X176164157Y-101013000D01*
X195481928Y-101013000D01*
X195485000Y-101381250D01*
X195643750Y-101540000D01*
X197647000Y-101540000D01*
X197647000Y-100536750D01*
X197488250Y-100378000D01*
X196120000Y-100374928D01*
X195995518Y-100387188D01*
X195875820Y-100423498D01*
X195765506Y-100482463D01*
X195668815Y-100561815D01*
X195589463Y-100658506D01*
X195530498Y-100768820D01*
X195494188Y-100888518D01*
X195481928Y-101013000D01*
X176164157Y-101013000D01*
X173632000Y-98480843D01*
X173632000Y-98425120D01*
X173675586Y-98359889D01*
X173746068Y-98189729D01*
X173782000Y-98009089D01*
X173782000Y-97824911D01*
X173746068Y-97644271D01*
X173675586Y-97474111D01*
X173573262Y-97320972D01*
X173443028Y-97190738D01*
X173289889Y-97088414D01*
X173119729Y-97017932D01*
X172939089Y-96982000D01*
X172754911Y-96982000D01*
X172574271Y-97017932D01*
X172404111Y-97088414D01*
X172250972Y-97190738D01*
X172120738Y-97320972D01*
X172018414Y-97474111D01*
X171947932Y-97644271D01*
X171912000Y-97824911D01*
X171912000Y-98009089D01*
X171947932Y-98189729D01*
X172018414Y-98359889D01*
X172062000Y-98425120D01*
X172062000Y-98688842D01*
X169547069Y-96173911D01*
X174198000Y-96173911D01*
X174198000Y-96358089D01*
X174233932Y-96538729D01*
X174304414Y-96708889D01*
X174406738Y-96862028D01*
X174536972Y-96992262D01*
X174690111Y-97094586D01*
X174860271Y-97165068D01*
X174937216Y-97180374D01*
X175246843Y-97490000D01*
X175167911Y-97490000D01*
X174987271Y-97525932D01*
X174817111Y-97596414D01*
X174663972Y-97698738D01*
X174533738Y-97828972D01*
X174431414Y-97982111D01*
X174360932Y-98152271D01*
X174325000Y-98332911D01*
X174325000Y-98517089D01*
X174360932Y-98697729D01*
X174431414Y-98867889D01*
X174533738Y-99021028D01*
X174663972Y-99151262D01*
X174817111Y-99253586D01*
X174987271Y-99324068D01*
X175064217Y-99339374D01*
X175473508Y-99748665D01*
X175488811Y-99825596D01*
X175559293Y-99995756D01*
X175661617Y-100148895D01*
X175791851Y-100279129D01*
X175944990Y-100381453D01*
X176115150Y-100451935D01*
X176295790Y-100487867D01*
X176479968Y-100487867D01*
X176660608Y-100451935D01*
X176830768Y-100381453D01*
X176983907Y-100279129D01*
X177114141Y-100148895D01*
X177216465Y-99995756D01*
X177286947Y-99825596D01*
X177302830Y-99745750D01*
X177327738Y-99783028D01*
X177457972Y-99913262D01*
X177611111Y-100015586D01*
X177781271Y-100086068D01*
X177961911Y-100122000D01*
X178146089Y-100122000D01*
X178326729Y-100086068D01*
X178496889Y-100015586D01*
X178650028Y-99913262D01*
X178780262Y-99783028D01*
X178882586Y-99629889D01*
X178953068Y-99459729D01*
X178989000Y-99279089D01*
X178989000Y-99094911D01*
X178953068Y-98914271D01*
X178882586Y-98744111D01*
X178780262Y-98590972D01*
X178650028Y-98460738D01*
X178599792Y-98427172D01*
X178750889Y-98364586D01*
X178904028Y-98262262D01*
X179034262Y-98132028D01*
X179136586Y-97978889D01*
X179207068Y-97808729D01*
X179243000Y-97628089D01*
X179243000Y-97443911D01*
X179207068Y-97263271D01*
X179136586Y-97093111D01*
X179093006Y-97027889D01*
X179093006Y-95758114D01*
X179136592Y-95692883D01*
X179207074Y-95522723D01*
X179243006Y-95342083D01*
X179243006Y-95157905D01*
X179207074Y-94977265D01*
X179136592Y-94807105D01*
X179034268Y-94653966D01*
X178904034Y-94523732D01*
X178750895Y-94421408D01*
X178580735Y-94350926D01*
X178400095Y-94314994D01*
X178215917Y-94314994D01*
X178035277Y-94350926D01*
X177865117Y-94421408D01*
X177711978Y-94523732D01*
X177581744Y-94653966D01*
X177479420Y-94807105D01*
X177408938Y-94977265D01*
X177373006Y-95157905D01*
X177373006Y-95342083D01*
X177408938Y-95522723D01*
X177479420Y-95692883D01*
X177523006Y-95758115D01*
X177523007Y-97027870D01*
X177479414Y-97093111D01*
X177408932Y-97263271D01*
X177380975Y-97403817D01*
X176047374Y-96070216D01*
X176032068Y-95993271D01*
X175961586Y-95823111D01*
X175859262Y-95669972D01*
X175729028Y-95539738D01*
X175575889Y-95437414D01*
X175405729Y-95366932D01*
X175225089Y-95331000D01*
X175040911Y-95331000D01*
X174860271Y-95366932D01*
X174690111Y-95437414D01*
X174536972Y-95539738D01*
X174406738Y-95669972D01*
X174304414Y-95823111D01*
X174233932Y-95993271D01*
X174198000Y-96173911D01*
X169547069Y-96173911D01*
X167792381Y-94419224D01*
X167777074Y-94342271D01*
X167706592Y-94172111D01*
X167604268Y-94018972D01*
X167474034Y-93888738D01*
X167320895Y-93786414D01*
X167150735Y-93715932D01*
X166970095Y-93680000D01*
X166785917Y-93680000D01*
X166605277Y-93715932D01*
X166435117Y-93786414D01*
X166281978Y-93888738D01*
X166151744Y-94018972D01*
X166049420Y-94172111D01*
X165978938Y-94342271D01*
X165966435Y-94405125D01*
X165927111Y-94421414D01*
X165773972Y-94523738D01*
X165643738Y-94653972D01*
X165541414Y-94807111D01*
X165470932Y-94977271D01*
X165435000Y-95157911D01*
X162420124Y-95157911D01*
X165048446Y-92529589D01*
X165201698Y-92593068D01*
X165382338Y-92629000D01*
X165566516Y-92629000D01*
X165747156Y-92593068D01*
X165917316Y-92522586D01*
X166070455Y-92420262D01*
X166200689Y-92290028D01*
X166303013Y-92136889D01*
X166373495Y-91966729D01*
X166409427Y-91786089D01*
X166409427Y-91601911D01*
X166373495Y-91421271D01*
X166303013Y-91251111D01*
X166200689Y-91097972D01*
X166070455Y-90967738D01*
X165917316Y-90865414D01*
X165747156Y-90794932D01*
X165566516Y-90759000D01*
X165382338Y-90759000D01*
X165201698Y-90794932D01*
X165031538Y-90865414D01*
X164966307Y-90909000D01*
X164812434Y-90909000D01*
X164773878Y-90905203D01*
X164735322Y-90909000D01*
X164735317Y-90909000D01*
X164694904Y-90912980D01*
X164619991Y-90920358D01*
X164472018Y-90965246D01*
X164335645Y-91038138D01*
X164216114Y-91136236D01*
X164191531Y-91166190D01*
X152062190Y-103295531D01*
X152032236Y-103320114D01*
X151934138Y-103439646D01*
X151861246Y-103576019D01*
X151816359Y-103723992D01*
X151805000Y-103839318D01*
X151805000Y-103839325D01*
X151801203Y-103877878D01*
X151805000Y-103916431D01*
X151805001Y-104814461D01*
X151788899Y-104823068D01*
X151570392Y-105002392D01*
X151391068Y-105220899D01*
X151257818Y-105470192D01*
X151175764Y-105740691D01*
X151148057Y-106022000D01*
X131885000Y-106022000D01*
X131885000Y-105222000D01*
X138451928Y-105222000D01*
X138455000Y-105390250D01*
X138613750Y-105549000D01*
X139417000Y-105549000D01*
X139417000Y-104745750D01*
X140363000Y-104745750D01*
X140363000Y-105549000D01*
X141166250Y-105549000D01*
X141325000Y-105390250D01*
X141328072Y-105222000D01*
X141315812Y-105097518D01*
X141279502Y-104977820D01*
X141220537Y-104867506D01*
X141141185Y-104770815D01*
X141044494Y-104691463D01*
X140934180Y-104632498D01*
X140814482Y-104596188D01*
X140690000Y-104583928D01*
X140521750Y-104587000D01*
X140363000Y-104745750D01*
X139417000Y-104745750D01*
X139258250Y-104587000D01*
X139090000Y-104583928D01*
X138965518Y-104596188D01*
X138845820Y-104632498D01*
X138735506Y-104691463D01*
X138638815Y-104770815D01*
X138559463Y-104867506D01*
X138500498Y-104977820D01*
X138464188Y-105097518D01*
X138451928Y-105222000D01*
X131885000Y-105222000D01*
X131885000Y-93427011D01*
X133226250Y-93424000D01*
X133385000Y-93265250D01*
X133385000Y-92262000D01*
X134331000Y-92262000D01*
X134331000Y-93265250D01*
X134489750Y-93424000D01*
X135858000Y-93427072D01*
X135982482Y-93414812D01*
X136102180Y-93378502D01*
X136212494Y-93319537D01*
X136309185Y-93240185D01*
X136388537Y-93143494D01*
X136447502Y-93033180D01*
X136483812Y-92913482D01*
X136496072Y-92789000D01*
X136493000Y-92420750D01*
X136334250Y-92262000D01*
X134331000Y-92262000D01*
X133385000Y-92262000D01*
X133365000Y-92262000D01*
X133365000Y-91316000D01*
X133385000Y-91316000D01*
X133385000Y-90312750D01*
X134331000Y-90312750D01*
X134331000Y-91316000D01*
X136334250Y-91316000D01*
X136493000Y-91157250D01*
X136496072Y-90789000D01*
X136483812Y-90664518D01*
X136447502Y-90544820D01*
X136388537Y-90434506D01*
X136309185Y-90337815D01*
X136212494Y-90258463D01*
X136102180Y-90199498D01*
X135982482Y-90163188D01*
X135858000Y-90150928D01*
X134489750Y-90154000D01*
X134331000Y-90312750D01*
X133385000Y-90312750D01*
X133226250Y-90154000D01*
X131885000Y-90150989D01*
X131885000Y-89427072D01*
X135858000Y-89427072D01*
X135982482Y-89414812D01*
X136102180Y-89378502D01*
X136212494Y-89319537D01*
X136309185Y-89240185D01*
X136388537Y-89143494D01*
X136447502Y-89033180D01*
X136480621Y-88924000D01*
X138570015Y-88924000D01*
X138580899Y-88932932D01*
X138830192Y-89066182D01*
X139100691Y-89148236D01*
X139311508Y-89169000D01*
X139452492Y-89169000D01*
X139663309Y-89148236D01*
X139933808Y-89066182D01*
X140183101Y-88932932D01*
X140401608Y-88753608D01*
X140580932Y-88535101D01*
X140714182Y-88285808D01*
X140796236Y-88015309D01*
X140823943Y-87734000D01*
X140796236Y-87452691D01*
X140714182Y-87182192D01*
X140580932Y-86932899D01*
X140401608Y-86714392D01*
X140183101Y-86535068D01*
X140003749Y-86439202D01*
X140061118Y-86458150D01*
X140294692Y-86301370D01*
X140493192Y-86102035D01*
X140646132Y-85873115D01*
X140567363Y-85667000D01*
X139855000Y-85667000D01*
X139855000Y-85687000D01*
X138909000Y-85687000D01*
X138909000Y-85667000D01*
X138196637Y-85667000D01*
X138117868Y-85873115D01*
X138270808Y-86102035D01*
X138469308Y-86301370D01*
X138702882Y-86458150D01*
X138760251Y-86439202D01*
X138580899Y-86535068D01*
X138435980Y-86654000D01*
X136480621Y-86654000D01*
X136447502Y-86544820D01*
X136388537Y-86434506D01*
X136309185Y-86337815D01*
X136212494Y-86258463D01*
X136102180Y-86199498D01*
X135982482Y-86163188D01*
X135858000Y-86150928D01*
X131885000Y-86150928D01*
X131885000Y-83519211D01*
X132040866Y-83709134D01*
X132266986Y-83894706D01*
X132524966Y-84032599D01*
X132804889Y-84117513D01*
X133023050Y-84139000D01*
X133168950Y-84139000D01*
X133387111Y-84117513D01*
X133667034Y-84032599D01*
X133925014Y-83894706D01*
X134151134Y-83709134D01*
X134336706Y-83483014D01*
X134474599Y-83225034D01*
X134559513Y-82945111D01*
X134588185Y-82654000D01*
X134559513Y-82362889D01*
X134474599Y-82082966D01*
X134336706Y-81824986D01*
X134151134Y-81598866D01*
X133925014Y-81413294D01*
X133870209Y-81384000D01*
X133925014Y-81354706D01*
X134151134Y-81169134D01*
X134336706Y-80943014D01*
X134474599Y-80685034D01*
X134559513Y-80405111D01*
X134588185Y-80114000D01*
X134559513Y-79822889D01*
X134474599Y-79542966D01*
X134336706Y-79284986D01*
X134151134Y-79058866D01*
X133925014Y-78873294D01*
X133870209Y-78844000D01*
X133925014Y-78814706D01*
X134151134Y-78629134D01*
X134336706Y-78403014D01*
X134474599Y-78145034D01*
X134559513Y-77865111D01*
X134588185Y-77574000D01*
X134559513Y-77282889D01*
X134474599Y-77002966D01*
X134336706Y-76744986D01*
X134151134Y-76518866D01*
X134121313Y-76494393D01*
X134190180Y-76473502D01*
X134300494Y-76414537D01*
X134397185Y-76335185D01*
X134476537Y-76238494D01*
X134535502Y-76128180D01*
X134571812Y-76008482D01*
X134584072Y-75884000D01*
X134584072Y-74184000D01*
X134571812Y-74059518D01*
X134535502Y-73939820D01*
X134476537Y-73829506D01*
X134397185Y-73732815D01*
X134300494Y-73653463D01*
X134190180Y-73594498D01*
X134070482Y-73558188D01*
X133946000Y-73545928D01*
X132246000Y-73545928D01*
X132121518Y-73558188D01*
X132001820Y-73594498D01*
X131891506Y-73653463D01*
X131885000Y-73658802D01*
X131885000Y-72494000D01*
X137940057Y-72494000D01*
X137967764Y-72775309D01*
X138049818Y-73045808D01*
X138183068Y-73295101D01*
X138362392Y-73513608D01*
X138580899Y-73692932D01*
X138713858Y-73764000D01*
X138580899Y-73835068D01*
X138362392Y-74014392D01*
X138183068Y-74232899D01*
X138049818Y-74482192D01*
X137967764Y-74752691D01*
X137940057Y-75034000D01*
X137967764Y-75315309D01*
X138049818Y-75585808D01*
X138183068Y-75835101D01*
X138362392Y-76053608D01*
X138580899Y-76232932D01*
X138713858Y-76304000D01*
X138580899Y-76375068D01*
X138362392Y-76554392D01*
X138183068Y-76772899D01*
X138049818Y-77022192D01*
X137967764Y-77292691D01*
X137940057Y-77574000D01*
X137967764Y-77855309D01*
X138049818Y-78125808D01*
X138183068Y-78375101D01*
X138362392Y-78593608D01*
X138580899Y-78772932D01*
X138713858Y-78844000D01*
X138580899Y-78915068D01*
X138362392Y-79094392D01*
X138183068Y-79312899D01*
X138049818Y-79562192D01*
X137967764Y-79832691D01*
X137940057Y-80114000D01*
X137967764Y-80395309D01*
X138049818Y-80665808D01*
X138183068Y-80915101D01*
X138362392Y-81133608D01*
X138580899Y-81312932D01*
X138713858Y-81384000D01*
X138580899Y-81455068D01*
X138362392Y-81634392D01*
X138183068Y-81852899D01*
X138049818Y-82102192D01*
X137967764Y-82372691D01*
X137940057Y-82654000D01*
X137967764Y-82935309D01*
X138049818Y-83205808D01*
X138183068Y-83455101D01*
X138362392Y-83673608D01*
X138580899Y-83852932D01*
X138760251Y-83948798D01*
X138702882Y-83929850D01*
X138469308Y-84086630D01*
X138270808Y-84285965D01*
X138117868Y-84514885D01*
X138196637Y-84721000D01*
X138909000Y-84721000D01*
X138909000Y-84701000D01*
X139855000Y-84701000D01*
X139855000Y-84721000D01*
X140567363Y-84721000D01*
X140646132Y-84514885D01*
X140493192Y-84285965D01*
X140294692Y-84086630D01*
X140061118Y-83929850D01*
X140003749Y-83948798D01*
X140183101Y-83852932D01*
X140401608Y-83673608D01*
X140580932Y-83455101D01*
X140714182Y-83205808D01*
X140796236Y-82935309D01*
X140823943Y-82654000D01*
X140796236Y-82372691D01*
X140714182Y-82102192D01*
X140580932Y-81852899D01*
X140401608Y-81634392D01*
X140183101Y-81455068D01*
X140050142Y-81384000D01*
X140183101Y-81312932D01*
X140401608Y-81133608D01*
X140580932Y-80915101D01*
X140714182Y-80665808D01*
X140796236Y-80395309D01*
X140823943Y-80114000D01*
X140796236Y-79832691D01*
X140714182Y-79562192D01*
X140580932Y-79312899D01*
X140401608Y-79094392D01*
X140183101Y-78915068D01*
X140050142Y-78844000D01*
X140183101Y-78772932D01*
X140401608Y-78593608D01*
X140580932Y-78375101D01*
X140714182Y-78125808D01*
X140796236Y-77855309D01*
X140823943Y-77574000D01*
X140796236Y-77292691D01*
X140714182Y-77022192D01*
X140580932Y-76772899D01*
X140401608Y-76554392D01*
X140183101Y-76375068D01*
X140050142Y-76304000D01*
X140183101Y-76232932D01*
X140401608Y-76053608D01*
X140580932Y-75835101D01*
X140714182Y-75585808D01*
X140796236Y-75315309D01*
X140823943Y-75034000D01*
X140796236Y-74752691D01*
X140714182Y-74482192D01*
X140580932Y-74232899D01*
X140401608Y-74014392D01*
X140183101Y-73835068D01*
X140050142Y-73764000D01*
X140183101Y-73692932D01*
X140401608Y-73513608D01*
X140580932Y-73295101D01*
X140714182Y-73045808D01*
X140796236Y-72775309D01*
X140823943Y-72494000D01*
X140796236Y-72212691D01*
X140714182Y-71942192D01*
X140580932Y-71692899D01*
X140401608Y-71474392D01*
X140288518Y-71381581D01*
X140306482Y-71379812D01*
X140426180Y-71343502D01*
X140536494Y-71284537D01*
X140633185Y-71205185D01*
X140712537Y-71108494D01*
X140771502Y-70998180D01*
X140807812Y-70878482D01*
X140820072Y-70754000D01*
X140817000Y-70585750D01*
X140658250Y-70427000D01*
X139855000Y-70427000D01*
X139855000Y-70447000D01*
X138909000Y-70447000D01*
X138909000Y-70427000D01*
X138105750Y-70427000D01*
X137947000Y-70585750D01*
X137943928Y-70754000D01*
X137956188Y-70878482D01*
X137992498Y-70998180D01*
X138051463Y-71108494D01*
X138130815Y-71205185D01*
X138227506Y-71284537D01*
X138337820Y-71343502D01*
X138457518Y-71379812D01*
X138475482Y-71381581D01*
X138362392Y-71474392D01*
X138183068Y-71692899D01*
X138049818Y-71942192D01*
X137967764Y-72212691D01*
X137940057Y-72494000D01*
X131885000Y-72494000D01*
X131885000Y-69954000D01*
X150640057Y-69954000D01*
X150667764Y-70235309D01*
X150749818Y-70505808D01*
X150883068Y-70755101D01*
X151062392Y-70973608D01*
X151280899Y-71152932D01*
X151413858Y-71224000D01*
X151280899Y-71295068D01*
X151062392Y-71474392D01*
X150883068Y-71692899D01*
X150749818Y-71942192D01*
X150667764Y-72212691D01*
X150640057Y-72494000D01*
X150667764Y-72775309D01*
X150749818Y-73045808D01*
X150883068Y-73295101D01*
X151062392Y-73513608D01*
X151280899Y-73692932D01*
X151413858Y-73764000D01*
X151280899Y-73835068D01*
X151062392Y-74014392D01*
X150883068Y-74232899D01*
X150749818Y-74482192D01*
X150667764Y-74752691D01*
X150640057Y-75034000D01*
X150667764Y-75315309D01*
X150749818Y-75585808D01*
X150883068Y-75835101D01*
X151062392Y-76053608D01*
X151280899Y-76232932D01*
X151413858Y-76304000D01*
X151280899Y-76375068D01*
X151062392Y-76554392D01*
X150883068Y-76772899D01*
X150749818Y-77022192D01*
X150667764Y-77292691D01*
X150640057Y-77574000D01*
X150667764Y-77855309D01*
X150749818Y-78125808D01*
X150883068Y-78375101D01*
X151062392Y-78593608D01*
X151280899Y-78772932D01*
X151413858Y-78844000D01*
X151280899Y-78915068D01*
X151062392Y-79094392D01*
X150883068Y-79312899D01*
X150749818Y-79562192D01*
X150667764Y-79832691D01*
X150640057Y-80114000D01*
X150667764Y-80395309D01*
X150749818Y-80665808D01*
X150883068Y-80915101D01*
X151062392Y-81133608D01*
X151280899Y-81312932D01*
X151413858Y-81384000D01*
X151280899Y-81455068D01*
X151062392Y-81634392D01*
X150883068Y-81852899D01*
X150749818Y-82102192D01*
X150667764Y-82372691D01*
X150640057Y-82654000D01*
X150667764Y-82935309D01*
X150749818Y-83205808D01*
X150883068Y-83455101D01*
X151062392Y-83673608D01*
X151280899Y-83852932D01*
X151413858Y-83924000D01*
X151280899Y-83995068D01*
X151062392Y-84174392D01*
X150883068Y-84392899D01*
X150749818Y-84642192D01*
X150667764Y-84912691D01*
X150640057Y-85194000D01*
X150667764Y-85475309D01*
X150749818Y-85745808D01*
X150883068Y-85995101D01*
X151062392Y-86213608D01*
X151280899Y-86392932D01*
X151413858Y-86464000D01*
X151280899Y-86535068D01*
X151062392Y-86714392D01*
X150883068Y-86932899D01*
X150749818Y-87182192D01*
X150667764Y-87452691D01*
X150640057Y-87734000D01*
X150667764Y-88015309D01*
X150749818Y-88285808D01*
X150883068Y-88535101D01*
X151062392Y-88753608D01*
X151280899Y-88932932D01*
X151530192Y-89066182D01*
X151800691Y-89148236D01*
X152011508Y-89169000D01*
X152152492Y-89169000D01*
X152363309Y-89148236D01*
X152633808Y-89066182D01*
X152883101Y-88932932D01*
X153101608Y-88753608D01*
X153132499Y-88715967D01*
X155400000Y-88715967D01*
X155400000Y-89038033D01*
X155462832Y-89353912D01*
X155586082Y-89651463D01*
X155765013Y-89919252D01*
X155992748Y-90146987D01*
X156260537Y-90325918D01*
X156558088Y-90449168D01*
X156873967Y-90512000D01*
X157196033Y-90512000D01*
X157511912Y-90449168D01*
X157809463Y-90325918D01*
X158077252Y-90146987D01*
X158304987Y-89919252D01*
X158483918Y-89651463D01*
X158607168Y-89353912D01*
X158670000Y-89038033D01*
X158670000Y-88715967D01*
X158607168Y-88400088D01*
X158483918Y-88102537D01*
X158304987Y-87834748D01*
X158077252Y-87607013D01*
X157836230Y-87445967D01*
X158448000Y-87445967D01*
X158448000Y-87768033D01*
X158510832Y-88083912D01*
X158634082Y-88381463D01*
X158813013Y-88649252D01*
X159040748Y-88876987D01*
X159308537Y-89055918D01*
X159606088Y-89179168D01*
X159921967Y-89242000D01*
X160244033Y-89242000D01*
X160559912Y-89179168D01*
X160857463Y-89055918D01*
X161125252Y-88876987D01*
X161352987Y-88649252D01*
X161531918Y-88381463D01*
X161655168Y-88083912D01*
X161718000Y-87768033D01*
X161718000Y-87537923D01*
X172293000Y-87537923D01*
X172293000Y-87722101D01*
X172328932Y-87902741D01*
X172399414Y-88072901D01*
X172501738Y-88226040D01*
X172631972Y-88356274D01*
X172785111Y-88458598D01*
X172955271Y-88529080D01*
X173032232Y-88544389D01*
X179679627Y-95191785D01*
X179694932Y-95268729D01*
X179765414Y-95438889D01*
X179867738Y-95592028D01*
X179997972Y-95722262D01*
X180151111Y-95824586D01*
X180321271Y-95895068D01*
X180501911Y-95931000D01*
X180686089Y-95931000D01*
X180866729Y-95895068D01*
X181036889Y-95824586D01*
X181190028Y-95722262D01*
X181320262Y-95592028D01*
X181422586Y-95438889D01*
X181493068Y-95268729D01*
X181529000Y-95088089D01*
X181529000Y-94903911D01*
X181493068Y-94723271D01*
X181422586Y-94553111D01*
X181320262Y-94399972D01*
X181190028Y-94269738D01*
X181036889Y-94167414D01*
X180866729Y-94096932D01*
X180789785Y-94081627D01*
X174142371Y-87434214D01*
X174127068Y-87357283D01*
X174056586Y-87187123D01*
X173954262Y-87033984D01*
X173824028Y-86903750D01*
X173670889Y-86801426D01*
X173500729Y-86730944D01*
X173320089Y-86695012D01*
X173135911Y-86695012D01*
X172955271Y-86730944D01*
X172785111Y-86801426D01*
X172631972Y-86903750D01*
X172501738Y-87033984D01*
X172399414Y-87187123D01*
X172328932Y-87357283D01*
X172293000Y-87537923D01*
X161718000Y-87537923D01*
X161718000Y-87445967D01*
X161655168Y-87130088D01*
X161531918Y-86832537D01*
X161352987Y-86564748D01*
X161125252Y-86337013D01*
X160857463Y-86158082D01*
X160559912Y-86034832D01*
X160244033Y-85972000D01*
X159921967Y-85972000D01*
X159606088Y-86034832D01*
X159308537Y-86158082D01*
X159040748Y-86337013D01*
X158813013Y-86564748D01*
X158634082Y-86832537D01*
X158510832Y-87130088D01*
X158448000Y-87445967D01*
X157836230Y-87445967D01*
X157809463Y-87428082D01*
X157511912Y-87304832D01*
X157196033Y-87242000D01*
X156873967Y-87242000D01*
X156558088Y-87304832D01*
X156260537Y-87428082D01*
X155992748Y-87607013D01*
X155765013Y-87834748D01*
X155586082Y-88102537D01*
X155462832Y-88400088D01*
X155400000Y-88715967D01*
X153132499Y-88715967D01*
X153280932Y-88535101D01*
X153414182Y-88285808D01*
X153496236Y-88015309D01*
X153523943Y-87734000D01*
X153496236Y-87452691D01*
X153414182Y-87182192D01*
X153280932Y-86932899D01*
X153101608Y-86714392D01*
X152883101Y-86535068D01*
X152750142Y-86464000D01*
X152883101Y-86392932D01*
X153101608Y-86213608D01*
X153280932Y-85995101D01*
X153414182Y-85745808D01*
X153496236Y-85475309D01*
X153523943Y-85194000D01*
X153496236Y-84912691D01*
X153414182Y-84642192D01*
X153280932Y-84392899D01*
X153101608Y-84174392D01*
X152883101Y-83995068D01*
X152750142Y-83924000D01*
X152883101Y-83852932D01*
X153101608Y-83673608D01*
X153280932Y-83455101D01*
X153414182Y-83205808D01*
X153495248Y-82938567D01*
X153518472Y-82961791D01*
X153671611Y-83064115D01*
X153841771Y-83134597D01*
X154022411Y-83170529D01*
X154206589Y-83170529D01*
X154387229Y-83134597D01*
X154557389Y-83064115D01*
X154710528Y-82961791D01*
X154840762Y-82831557D01*
X154943086Y-82678418D01*
X155013568Y-82508258D01*
X155049500Y-82327618D01*
X155049500Y-82203911D01*
X162450500Y-82203911D01*
X162450500Y-82388089D01*
X162486432Y-82568729D01*
X162556914Y-82738889D01*
X162605733Y-82811951D01*
X162611859Y-82874151D01*
X162656746Y-83022124D01*
X162729638Y-83158497D01*
X162827737Y-83278028D01*
X162857685Y-83302606D01*
X165031363Y-85476284D01*
X165046668Y-85553229D01*
X165117150Y-85723389D01*
X165219474Y-85876528D01*
X165349708Y-86006762D01*
X165502847Y-86109086D01*
X165673007Y-86179568D01*
X165853647Y-86215500D01*
X166037825Y-86215500D01*
X166218465Y-86179568D01*
X166388625Y-86109086D01*
X166541764Y-86006762D01*
X166671998Y-85876528D01*
X166675751Y-85870910D01*
X166789125Y-85984284D01*
X166804431Y-86061230D01*
X166874913Y-86231390D01*
X166977237Y-86384529D01*
X167107471Y-86514763D01*
X167260610Y-86617087D01*
X167430770Y-86687569D01*
X167611410Y-86723501D01*
X167795588Y-86723501D01*
X167976228Y-86687569D01*
X168146388Y-86617087D01*
X168299527Y-86514763D01*
X168429761Y-86384529D01*
X168507682Y-86267911D01*
X174071000Y-86267911D01*
X174071000Y-86452089D01*
X174106932Y-86632729D01*
X174177414Y-86802889D01*
X174279738Y-86956028D01*
X174409972Y-87086262D01*
X174563111Y-87188586D01*
X174733271Y-87259068D01*
X174810216Y-87274374D01*
X177393634Y-89857792D01*
X177408938Y-89934729D01*
X177479420Y-90104889D01*
X177581744Y-90258028D01*
X177711978Y-90388262D01*
X177865117Y-90490586D01*
X178035277Y-90561068D01*
X178215917Y-90597000D01*
X178400095Y-90597000D01*
X178580735Y-90561068D01*
X178750895Y-90490586D01*
X178904034Y-90388262D01*
X179034268Y-90258028D01*
X179136592Y-90104889D01*
X179207074Y-89934729D01*
X179243006Y-89754089D01*
X179243006Y-89569911D01*
X179207074Y-89389271D01*
X179136592Y-89219111D01*
X179097022Y-89159891D01*
X179189508Y-89169000D01*
X179330492Y-89169000D01*
X179541309Y-89148236D01*
X179811808Y-89066182D01*
X180061101Y-88932932D01*
X180279608Y-88753608D01*
X180458932Y-88535101D01*
X180459520Y-88534000D01*
X190521928Y-88534000D01*
X190534188Y-88658482D01*
X190570498Y-88778180D01*
X190629463Y-88888494D01*
X190708815Y-88985185D01*
X190805506Y-89064537D01*
X190915820Y-89123502D01*
X191035518Y-89159812D01*
X191160000Y-89172072D01*
X191328250Y-89169000D01*
X191487000Y-89010250D01*
X191487000Y-88207000D01*
X192433000Y-88207000D01*
X192433000Y-89010250D01*
X192591750Y-89169000D01*
X192760000Y-89172072D01*
X192884482Y-89159812D01*
X193004180Y-89123502D01*
X193114494Y-89064537D01*
X193211185Y-88985185D01*
X193290537Y-88888494D01*
X193349502Y-88778180D01*
X193385812Y-88658482D01*
X193398072Y-88534000D01*
X193395000Y-88365750D01*
X193236250Y-88207000D01*
X192433000Y-88207000D01*
X191487000Y-88207000D01*
X190683750Y-88207000D01*
X190525000Y-88365750D01*
X190521928Y-88534000D01*
X180459520Y-88534000D01*
X180592182Y-88285808D01*
X180674236Y-88015309D01*
X180701943Y-87734000D01*
X180674236Y-87452691D01*
X180592182Y-87182192D01*
X180458932Y-86932899D01*
X180279608Y-86714392D01*
X180061101Y-86535068D01*
X179928142Y-86464000D01*
X180061101Y-86392932D01*
X180279608Y-86213608D01*
X180458932Y-85995101D01*
X180592182Y-85745808D01*
X180674236Y-85475309D01*
X180701943Y-85194000D01*
X180674236Y-84912691D01*
X180592182Y-84642192D01*
X180458932Y-84392899D01*
X180279608Y-84174392D01*
X180061101Y-83995068D01*
X179928142Y-83924000D01*
X180061101Y-83852932D01*
X180279608Y-83673608D01*
X180458932Y-83455101D01*
X180592182Y-83205808D01*
X180674236Y-82935309D01*
X180701943Y-82654000D01*
X180674236Y-82372691D01*
X180592182Y-82102192D01*
X180458932Y-81852899D01*
X180279608Y-81634392D01*
X180061101Y-81455068D01*
X179928142Y-81384000D01*
X180061101Y-81312932D01*
X180279608Y-81133608D01*
X180458932Y-80915101D01*
X180592182Y-80665808D01*
X180674236Y-80395309D01*
X180701943Y-80114000D01*
X180674236Y-79832691D01*
X180592182Y-79562192D01*
X180458932Y-79312899D01*
X180279608Y-79094392D01*
X180061101Y-78915068D01*
X179928142Y-78844000D01*
X180061101Y-78772932D01*
X180279608Y-78593608D01*
X180458932Y-78375101D01*
X180592182Y-78125808D01*
X180674236Y-77855309D01*
X180701943Y-77574000D01*
X180674236Y-77292691D01*
X180592182Y-77022192D01*
X180458932Y-76772899D01*
X180279608Y-76554392D01*
X180061101Y-76375068D01*
X179928142Y-76304000D01*
X180061101Y-76232932D01*
X180279608Y-76053608D01*
X180458932Y-75835101D01*
X180592182Y-75585808D01*
X180674236Y-75315309D01*
X180701943Y-75034000D01*
X190518057Y-75034000D01*
X190545764Y-75315309D01*
X190627818Y-75585808D01*
X190761068Y-75835101D01*
X190940392Y-76053608D01*
X191158899Y-76232932D01*
X191291858Y-76304000D01*
X191158899Y-76375068D01*
X190940392Y-76554392D01*
X190761068Y-76772899D01*
X190627818Y-77022192D01*
X190545764Y-77292691D01*
X190518057Y-77574000D01*
X190545764Y-77855309D01*
X190627818Y-78125808D01*
X190761068Y-78375101D01*
X190940392Y-78593608D01*
X191158899Y-78772932D01*
X191291858Y-78844000D01*
X191158899Y-78915068D01*
X190940392Y-79094392D01*
X190761068Y-79312899D01*
X190627818Y-79562192D01*
X190545764Y-79832691D01*
X190518057Y-80114000D01*
X190545764Y-80395309D01*
X190627818Y-80665808D01*
X190761068Y-80915101D01*
X190940392Y-81133608D01*
X191158899Y-81312932D01*
X191291858Y-81384000D01*
X191158899Y-81455068D01*
X190940392Y-81634392D01*
X190761068Y-81852899D01*
X190627818Y-82102192D01*
X190545764Y-82372691D01*
X190518057Y-82654000D01*
X190545764Y-82935309D01*
X190627818Y-83205808D01*
X190761068Y-83455101D01*
X190940392Y-83673608D01*
X191158899Y-83852932D01*
X191291858Y-83924000D01*
X191158899Y-83995068D01*
X190940392Y-84174392D01*
X190761068Y-84392899D01*
X190627818Y-84642192D01*
X190545764Y-84912691D01*
X190518057Y-85194000D01*
X190545764Y-85475309D01*
X190627818Y-85745808D01*
X190761068Y-85995101D01*
X190940392Y-86213608D01*
X191053482Y-86306419D01*
X191035518Y-86308188D01*
X190915820Y-86344498D01*
X190805506Y-86403463D01*
X190708815Y-86482815D01*
X190629463Y-86579506D01*
X190570498Y-86689820D01*
X190534188Y-86809518D01*
X190521928Y-86934000D01*
X190525000Y-87102250D01*
X190683750Y-87261000D01*
X191487000Y-87261000D01*
X191487000Y-87241000D01*
X192433000Y-87241000D01*
X192433000Y-87261000D01*
X193236250Y-87261000D01*
X193395000Y-87102250D01*
X193398072Y-86934000D01*
X193385812Y-86809518D01*
X193349502Y-86689820D01*
X193290537Y-86579506D01*
X193211185Y-86482815D01*
X193114494Y-86403463D01*
X193004180Y-86344498D01*
X192884482Y-86308188D01*
X192866518Y-86306419D01*
X192979608Y-86213608D01*
X193158932Y-85995101D01*
X193292182Y-85745808D01*
X193374236Y-85475309D01*
X193401943Y-85194000D01*
X193374236Y-84912691D01*
X193292182Y-84642192D01*
X193158932Y-84392899D01*
X192979608Y-84174392D01*
X192761101Y-83995068D01*
X192628142Y-83924000D01*
X192761101Y-83852932D01*
X192979608Y-83673608D01*
X193158932Y-83455101D01*
X193292182Y-83205808D01*
X193374236Y-82935309D01*
X193401943Y-82654000D01*
X193374236Y-82372691D01*
X193292182Y-82102192D01*
X193158932Y-81852899D01*
X192979608Y-81634392D01*
X192761101Y-81455068D01*
X192628142Y-81384000D01*
X192761101Y-81312932D01*
X192979608Y-81133608D01*
X193158932Y-80915101D01*
X193292182Y-80665808D01*
X193374236Y-80395309D01*
X193401943Y-80114000D01*
X193374236Y-79832691D01*
X193292182Y-79562192D01*
X193158932Y-79312899D01*
X192979608Y-79094392D01*
X192761101Y-78915068D01*
X192628142Y-78844000D01*
X192761101Y-78772932D01*
X192979608Y-78593608D01*
X193158932Y-78375101D01*
X193292182Y-78125808D01*
X193374236Y-77855309D01*
X193401943Y-77574000D01*
X193374236Y-77292691D01*
X193292182Y-77022192D01*
X193158932Y-76772899D01*
X192979608Y-76554392D01*
X192761101Y-76375068D01*
X192628142Y-76304000D01*
X192761101Y-76232932D01*
X192979608Y-76053608D01*
X193158932Y-75835101D01*
X193292182Y-75585808D01*
X193374236Y-75315309D01*
X193401943Y-75034000D01*
X193374236Y-74752691D01*
X193292182Y-74482192D01*
X193158932Y-74232899D01*
X192979608Y-74014392D01*
X192761101Y-73835068D01*
X192581749Y-73739202D01*
X192639118Y-73758150D01*
X192872692Y-73601370D01*
X193071192Y-73402035D01*
X193224132Y-73173115D01*
X193145363Y-72967000D01*
X192433000Y-72967000D01*
X192433000Y-72987000D01*
X191487000Y-72987000D01*
X191487000Y-72967000D01*
X190774637Y-72967000D01*
X190695868Y-73173115D01*
X190848808Y-73402035D01*
X191047308Y-73601370D01*
X191280882Y-73758150D01*
X191338251Y-73739202D01*
X191158899Y-73835068D01*
X190940392Y-74014392D01*
X190761068Y-74232899D01*
X190627818Y-74482192D01*
X190545764Y-74752691D01*
X190518057Y-75034000D01*
X180701943Y-75034000D01*
X180674236Y-74752691D01*
X180592182Y-74482192D01*
X180458932Y-74232899D01*
X180279608Y-74014392D01*
X180061101Y-73835068D01*
X179928142Y-73764000D01*
X180061101Y-73692932D01*
X180279608Y-73513608D01*
X180458932Y-73295101D01*
X180592182Y-73045808D01*
X180674236Y-72775309D01*
X180701943Y-72494000D01*
X180674236Y-72212691D01*
X180592182Y-71942192D01*
X180458932Y-71692899D01*
X180279608Y-71474392D01*
X180061101Y-71295068D01*
X179928142Y-71224000D01*
X180061101Y-71152932D01*
X180279608Y-70973608D01*
X180458932Y-70755101D01*
X180592182Y-70505808D01*
X180674236Y-70235309D01*
X180701943Y-69954000D01*
X180674236Y-69672691D01*
X180592182Y-69402192D01*
X180458932Y-69152899D01*
X180279608Y-68934392D01*
X180061101Y-68755068D01*
X179811808Y-68621818D01*
X179541309Y-68539764D01*
X179330492Y-68519000D01*
X179189508Y-68519000D01*
X178978691Y-68539764D01*
X178708192Y-68621818D01*
X178458899Y-68755068D01*
X178240392Y-68934392D01*
X178061068Y-69152899D01*
X177927818Y-69402192D01*
X177845764Y-69672691D01*
X177818057Y-69954000D01*
X177845764Y-70235309D01*
X177927818Y-70505808D01*
X178061068Y-70755101D01*
X178240392Y-70973608D01*
X178458899Y-71152932D01*
X178591858Y-71224000D01*
X178458899Y-71295068D01*
X178240392Y-71474392D01*
X178061068Y-71692899D01*
X177927818Y-71942192D01*
X177845764Y-72212691D01*
X177818057Y-72494000D01*
X177845764Y-72775309D01*
X177927818Y-73045808D01*
X178061068Y-73295101D01*
X178240392Y-73513608D01*
X178458899Y-73692932D01*
X178591858Y-73764000D01*
X178458899Y-73835068D01*
X178240392Y-74014392D01*
X178061068Y-74232899D01*
X177927818Y-74482192D01*
X177845764Y-74752691D01*
X177818057Y-75034000D01*
X177845764Y-75315309D01*
X177927818Y-75585808D01*
X178061068Y-75835101D01*
X178240392Y-76053608D01*
X178458899Y-76232932D01*
X178591858Y-76304000D01*
X178458899Y-76375068D01*
X178240392Y-76554392D01*
X178061068Y-76772899D01*
X177927818Y-77022192D01*
X177845764Y-77292691D01*
X177818057Y-77574000D01*
X177845764Y-77855309D01*
X177927818Y-78125808D01*
X178061068Y-78375101D01*
X178240392Y-78593608D01*
X178458899Y-78772932D01*
X178591858Y-78844000D01*
X178458899Y-78915068D01*
X178240392Y-79094392D01*
X178061068Y-79312899D01*
X177927818Y-79562192D01*
X177845764Y-79832691D01*
X177818057Y-80114000D01*
X177845764Y-80395309D01*
X177927818Y-80665808D01*
X178061068Y-80915101D01*
X178240392Y-81133608D01*
X178458899Y-81312932D01*
X178591858Y-81384000D01*
X178458899Y-81455068D01*
X178240392Y-81634392D01*
X178061068Y-81852899D01*
X177927818Y-82102192D01*
X177845764Y-82372691D01*
X177818057Y-82654000D01*
X177845764Y-82935309D01*
X177927818Y-83205808D01*
X178061068Y-83455101D01*
X178240392Y-83673608D01*
X178458899Y-83852932D01*
X178591858Y-83924000D01*
X178458899Y-83995068D01*
X178240392Y-84174392D01*
X178061068Y-84392899D01*
X177927818Y-84642192D01*
X177845764Y-84912691D01*
X177819415Y-85180214D01*
X177808764Y-85167236D01*
X177689233Y-85069138D01*
X177552860Y-84996246D01*
X177404887Y-84951359D01*
X177289561Y-84940000D01*
X177289553Y-84940000D01*
X177251000Y-84936203D01*
X177212447Y-84940000D01*
X176022116Y-84940000D01*
X175956885Y-84896414D01*
X175786725Y-84825932D01*
X175606085Y-84790000D01*
X175421907Y-84790000D01*
X175241267Y-84825932D01*
X175071107Y-84896414D01*
X174917968Y-84998738D01*
X174787734Y-85128972D01*
X174685410Y-85282111D01*
X174614928Y-85452271D01*
X174602424Y-85515130D01*
X174563111Y-85531414D01*
X174409972Y-85633738D01*
X174279738Y-85763972D01*
X174177414Y-85917111D01*
X174106932Y-86087271D01*
X174071000Y-86267911D01*
X168507682Y-86267911D01*
X168532085Y-86231390D01*
X168602567Y-86061230D01*
X168638499Y-85880590D01*
X168638499Y-85696412D01*
X168602567Y-85515772D01*
X168532085Y-85345612D01*
X168429761Y-85192473D01*
X168299527Y-85062239D01*
X168146388Y-84959915D01*
X167976228Y-84889433D01*
X167899282Y-84874127D01*
X165313496Y-82288341D01*
X165313496Y-81851620D01*
X165357082Y-81786389D01*
X165427564Y-81616229D01*
X165463496Y-81435589D01*
X165463496Y-81251411D01*
X165427564Y-81070771D01*
X165357082Y-80900611D01*
X165254758Y-80747472D01*
X165124524Y-80617238D01*
X164971385Y-80514914D01*
X164801225Y-80444432D01*
X164620585Y-80408500D01*
X164436407Y-80408500D01*
X164255767Y-80444432D01*
X164085607Y-80514914D01*
X163932468Y-80617238D01*
X163802234Y-80747472D01*
X163699910Y-80900611D01*
X163629428Y-81070771D01*
X163593496Y-81251411D01*
X163593496Y-81384056D01*
X163477589Y-81361000D01*
X163293411Y-81361000D01*
X163112771Y-81396932D01*
X162942611Y-81467414D01*
X162789472Y-81569738D01*
X162659238Y-81699972D01*
X162556914Y-81853111D01*
X162486432Y-82023271D01*
X162450500Y-82203911D01*
X155049500Y-82203911D01*
X155049500Y-82143440D01*
X155013568Y-81962800D01*
X154943086Y-81792640D01*
X154899500Y-81727409D01*
X154899500Y-81216608D01*
X154943086Y-81151377D01*
X155013568Y-80981217D01*
X155049500Y-80800577D01*
X155049500Y-80616399D01*
X155013568Y-80435759D01*
X154943086Y-80265599D01*
X154840762Y-80112460D01*
X154710528Y-79982226D01*
X154557389Y-79879902D01*
X154403866Y-79816311D01*
X170413400Y-79816311D01*
X170413400Y-80000489D01*
X170449332Y-80181129D01*
X170519814Y-80351289D01*
X170563401Y-80416521D01*
X170563400Y-81483079D01*
X170519814Y-81548311D01*
X170449332Y-81718471D01*
X170413400Y-81899111D01*
X170413400Y-82083289D01*
X170449332Y-82263929D01*
X170519814Y-82434089D01*
X170622138Y-82587228D01*
X170752372Y-82717462D01*
X170905511Y-82819786D01*
X171075671Y-82890268D01*
X171256311Y-82926200D01*
X171440489Y-82926200D01*
X171621129Y-82890268D01*
X171791289Y-82819786D01*
X171944428Y-82717462D01*
X172074662Y-82587228D01*
X172176986Y-82434089D01*
X172247468Y-82263929D01*
X172283400Y-82083289D01*
X172283400Y-81899111D01*
X172247468Y-81718471D01*
X172176986Y-81548311D01*
X172133400Y-81483080D01*
X172133400Y-80416520D01*
X172176986Y-80351289D01*
X172247468Y-80181129D01*
X172283400Y-80000489D01*
X172283400Y-79816311D01*
X172247468Y-79635671D01*
X172176986Y-79465511D01*
X172074662Y-79312372D01*
X171944428Y-79182138D01*
X171791289Y-79079814D01*
X171621129Y-79009332D01*
X171440489Y-78973400D01*
X171256311Y-78973400D01*
X171075671Y-79009332D01*
X170905511Y-79079814D01*
X170752372Y-79182138D01*
X170622138Y-79312372D01*
X170519814Y-79465511D01*
X170449332Y-79635671D01*
X170413400Y-79816311D01*
X154403866Y-79816311D01*
X154387229Y-79809420D01*
X154206589Y-79773488D01*
X154022411Y-79773488D01*
X153841771Y-79809420D01*
X153671611Y-79879902D01*
X153518472Y-79982226D01*
X153511637Y-79989061D01*
X153496236Y-79832691D01*
X153414182Y-79562192D01*
X153280932Y-79312899D01*
X153101608Y-79094392D01*
X152883101Y-78915068D01*
X152750142Y-78844000D01*
X152883101Y-78772932D01*
X153101608Y-78593608D01*
X153280932Y-78375101D01*
X153414182Y-78125808D01*
X153496236Y-77855309D01*
X153523943Y-77574000D01*
X153496236Y-77292691D01*
X153414182Y-77022192D01*
X153280932Y-76772899D01*
X153101608Y-76554392D01*
X153021820Y-76488911D01*
X161307500Y-76488911D01*
X161307500Y-76673089D01*
X161343432Y-76853729D01*
X161413914Y-77023889D01*
X161457500Y-77089121D01*
X161457501Y-77939438D01*
X161453703Y-77978000D01*
X161468859Y-78131886D01*
X161513746Y-78279859D01*
X161547677Y-78343340D01*
X161586639Y-78416233D01*
X161613848Y-78449387D01*
X161644793Y-78487093D01*
X161660932Y-78568229D01*
X161731414Y-78738389D01*
X161833738Y-78891528D01*
X161963972Y-79021762D01*
X162117111Y-79124086D01*
X162287271Y-79194568D01*
X162467911Y-79230500D01*
X162652089Y-79230500D01*
X162832729Y-79194568D01*
X163002889Y-79124086D01*
X163156028Y-79021762D01*
X163286262Y-78891528D01*
X163335383Y-78818012D01*
X163373510Y-78856139D01*
X163526649Y-78958463D01*
X163696809Y-79028945D01*
X163877449Y-79064877D01*
X164061627Y-79064877D01*
X164242267Y-79028945D01*
X164412427Y-78958463D01*
X164565566Y-78856139D01*
X164695800Y-78725905D01*
X164798124Y-78572766D01*
X164868606Y-78402606D01*
X164904538Y-78221966D01*
X164904538Y-78037788D01*
X164868606Y-77857148D01*
X164798124Y-77686988D01*
X164695800Y-77533849D01*
X164565566Y-77403615D01*
X164412427Y-77301291D01*
X164242267Y-77230809D01*
X164165321Y-77215503D01*
X164067107Y-77117289D01*
X164087086Y-77087389D01*
X164157568Y-76917229D01*
X164193500Y-76736589D01*
X164193500Y-76552411D01*
X164157568Y-76371771D01*
X164087086Y-76201611D01*
X163984762Y-76048472D01*
X163854528Y-75918238D01*
X163701389Y-75815914D01*
X163531229Y-75745432D01*
X163350589Y-75709500D01*
X163166411Y-75709500D01*
X162985771Y-75745432D01*
X162815611Y-75815914D01*
X162798017Y-75827670D01*
X162685389Y-75752414D01*
X162515229Y-75681932D01*
X162334589Y-75646000D01*
X162150411Y-75646000D01*
X161969771Y-75681932D01*
X161799611Y-75752414D01*
X161646472Y-75854738D01*
X161516238Y-75984972D01*
X161413914Y-76138111D01*
X161343432Y-76308271D01*
X161307500Y-76488911D01*
X153021820Y-76488911D01*
X152883101Y-76375068D01*
X152750142Y-76304000D01*
X152883101Y-76232932D01*
X153101608Y-76053608D01*
X153280932Y-75835101D01*
X153414182Y-75585808D01*
X153496236Y-75315309D01*
X153523943Y-75034000D01*
X153496236Y-74752691D01*
X153414182Y-74482192D01*
X153280932Y-74232899D01*
X153101608Y-74014392D01*
X152883101Y-73835068D01*
X152750142Y-73764000D01*
X152813813Y-73729967D01*
X155400000Y-73729967D01*
X155400000Y-74052033D01*
X155462832Y-74367912D01*
X155586082Y-74665463D01*
X155765013Y-74933252D01*
X155992748Y-75160987D01*
X156260537Y-75339918D01*
X156558088Y-75463168D01*
X156873967Y-75526000D01*
X157196033Y-75526000D01*
X157511912Y-75463168D01*
X157809463Y-75339918D01*
X158077252Y-75160987D01*
X158304987Y-74933252D01*
X158483918Y-74665463D01*
X158607168Y-74367912D01*
X158670000Y-74052033D01*
X158670000Y-73729967D01*
X158607168Y-73414088D01*
X158483918Y-73116537D01*
X158304987Y-72848748D01*
X158077252Y-72621013D01*
X157809463Y-72442082D01*
X157511912Y-72318832D01*
X157196033Y-72256000D01*
X156873967Y-72256000D01*
X156558088Y-72318832D01*
X156260537Y-72442082D01*
X155992748Y-72621013D01*
X155765013Y-72848748D01*
X155586082Y-73116537D01*
X155462832Y-73414088D01*
X155400000Y-73729967D01*
X152813813Y-73729967D01*
X152883101Y-73692932D01*
X153101608Y-73513608D01*
X153280932Y-73295101D01*
X153414182Y-73045808D01*
X153496236Y-72775309D01*
X153523943Y-72494000D01*
X153496236Y-72212691D01*
X153414182Y-71942192D01*
X153280932Y-71692899D01*
X153101608Y-71474392D01*
X152883101Y-71295068D01*
X152750142Y-71224000D01*
X152883101Y-71152932D01*
X153101608Y-70973608D01*
X153280932Y-70755101D01*
X153414182Y-70505808D01*
X153496236Y-70235309D01*
X153523943Y-69954000D01*
X153496236Y-69672691D01*
X153446279Y-69508000D01*
X158150928Y-69508000D01*
X158150928Y-71208000D01*
X158163188Y-71332482D01*
X158199498Y-71452180D01*
X158258463Y-71562494D01*
X158337815Y-71659185D01*
X158434506Y-71738537D01*
X158544820Y-71797502D01*
X158664518Y-71833812D01*
X158789000Y-71846072D01*
X160489000Y-71846072D01*
X160613482Y-71833812D01*
X160733180Y-71797502D01*
X160843494Y-71738537D01*
X160940185Y-71659185D01*
X161019537Y-71562494D01*
X161078502Y-71452180D01*
X161099393Y-71383313D01*
X161123866Y-71413134D01*
X161349986Y-71598706D01*
X161607966Y-71736599D01*
X161887889Y-71821513D01*
X162106050Y-71843000D01*
X162251950Y-71843000D01*
X162470111Y-71821513D01*
X162750034Y-71736599D01*
X163008014Y-71598706D01*
X163234134Y-71413134D01*
X163419706Y-71187014D01*
X163453703Y-71123410D01*
X163562044Y-71288984D01*
X163765901Y-71496806D01*
X164006385Y-71660865D01*
X164031618Y-71674332D01*
X164246000Y-71597036D01*
X164246000Y-70831000D01*
X164226000Y-70831000D01*
X164226000Y-69885000D01*
X164246000Y-69885000D01*
X164246000Y-69118964D01*
X165192000Y-69118964D01*
X165192000Y-69885000D01*
X165212000Y-69885000D01*
X165212000Y-70831000D01*
X165192000Y-70831000D01*
X165192000Y-71597036D01*
X165406382Y-71674332D01*
X165431615Y-71660865D01*
X165672099Y-71496806D01*
X165875956Y-71288984D01*
X165984297Y-71123410D01*
X166018294Y-71187014D01*
X166203866Y-71413134D01*
X166429986Y-71598706D01*
X166687966Y-71736599D01*
X166967889Y-71821513D01*
X167186050Y-71843000D01*
X167331950Y-71843000D01*
X167550111Y-71821513D01*
X167830034Y-71736599D01*
X168088014Y-71598706D01*
X168314134Y-71413134D01*
X168499706Y-71187014D01*
X168529000Y-71132209D01*
X168558294Y-71187014D01*
X168743866Y-71413134D01*
X168969986Y-71598706D01*
X169227966Y-71736599D01*
X169507889Y-71821513D01*
X169726050Y-71843000D01*
X169871950Y-71843000D01*
X170090111Y-71821513D01*
X170370034Y-71736599D01*
X170628014Y-71598706D01*
X170854134Y-71413134D01*
X171039706Y-71187014D01*
X171069000Y-71132209D01*
X171098294Y-71187014D01*
X171283866Y-71413134D01*
X171509986Y-71598706D01*
X171767966Y-71736599D01*
X172047889Y-71821513D01*
X172266050Y-71843000D01*
X172411950Y-71843000D01*
X172630111Y-71821513D01*
X172910034Y-71736599D01*
X173168014Y-71598706D01*
X173394134Y-71413134D01*
X173579706Y-71187014D01*
X173717599Y-70929034D01*
X173802513Y-70649111D01*
X173831185Y-70358000D01*
X173802513Y-70066889D01*
X173717599Y-69786966D01*
X173579706Y-69528986D01*
X173394134Y-69302866D01*
X173168014Y-69117294D01*
X172910034Y-68979401D01*
X172630111Y-68894487D01*
X172411950Y-68873000D01*
X172266050Y-68873000D01*
X172047889Y-68894487D01*
X171767966Y-68979401D01*
X171509986Y-69117294D01*
X171283866Y-69302866D01*
X171098294Y-69528986D01*
X171069000Y-69583791D01*
X171039706Y-69528986D01*
X170854134Y-69302866D01*
X170628014Y-69117294D01*
X170370034Y-68979401D01*
X170090111Y-68894487D01*
X169871950Y-68873000D01*
X169726050Y-68873000D01*
X169507889Y-68894487D01*
X169227966Y-68979401D01*
X168969986Y-69117294D01*
X168743866Y-69302866D01*
X168558294Y-69528986D01*
X168529000Y-69583791D01*
X168499706Y-69528986D01*
X168314134Y-69302866D01*
X168088014Y-69117294D01*
X167830034Y-68979401D01*
X167550111Y-68894487D01*
X167331950Y-68873000D01*
X167186050Y-68873000D01*
X166967889Y-68894487D01*
X166687966Y-68979401D01*
X166429986Y-69117294D01*
X166203866Y-69302866D01*
X166018294Y-69528986D01*
X165984297Y-69592590D01*
X165875956Y-69427016D01*
X165672099Y-69219194D01*
X165431615Y-69055135D01*
X165406382Y-69041668D01*
X165192000Y-69118964D01*
X164246000Y-69118964D01*
X164031618Y-69041668D01*
X164006385Y-69055135D01*
X163765901Y-69219194D01*
X163562044Y-69427016D01*
X163453703Y-69592590D01*
X163419706Y-69528986D01*
X163234134Y-69302866D01*
X163008014Y-69117294D01*
X162750034Y-68979401D01*
X162470111Y-68894487D01*
X162251950Y-68873000D01*
X162106050Y-68873000D01*
X161887889Y-68894487D01*
X161607966Y-68979401D01*
X161349986Y-69117294D01*
X161123866Y-69302866D01*
X161099393Y-69332687D01*
X161078502Y-69263820D01*
X161019537Y-69153506D01*
X160940185Y-69056815D01*
X160843494Y-68977463D01*
X160733180Y-68918498D01*
X160613482Y-68882188D01*
X160489000Y-68869928D01*
X158789000Y-68869928D01*
X158664518Y-68882188D01*
X158544820Y-68918498D01*
X158434506Y-68977463D01*
X158337815Y-69056815D01*
X158258463Y-69153506D01*
X158199498Y-69263820D01*
X158163188Y-69383518D01*
X158150928Y-69508000D01*
X153446279Y-69508000D01*
X153414182Y-69402192D01*
X153280932Y-69152899D01*
X153101608Y-68934392D01*
X152883101Y-68755068D01*
X152633808Y-68621818D01*
X152363309Y-68539764D01*
X152152492Y-68519000D01*
X152011508Y-68519000D01*
X151800691Y-68539764D01*
X151530192Y-68621818D01*
X151280899Y-68755068D01*
X151062392Y-68934392D01*
X150883068Y-69152899D01*
X150749818Y-69402192D01*
X150667764Y-69672691D01*
X150640057Y-69954000D01*
X131885000Y-69954000D01*
X131885000Y-69154000D01*
X137943928Y-69154000D01*
X137947000Y-69322250D01*
X138105750Y-69481000D01*
X138909000Y-69481000D01*
X138909000Y-68677750D01*
X139855000Y-68677750D01*
X139855000Y-69481000D01*
X140658250Y-69481000D01*
X140817000Y-69322250D01*
X140820072Y-69154000D01*
X140807812Y-69029518D01*
X140771502Y-68909820D01*
X140712537Y-68799506D01*
X140633185Y-68702815D01*
X140536494Y-68623463D01*
X140426180Y-68564498D01*
X140306482Y-68528188D01*
X140182000Y-68515928D01*
X140013750Y-68519000D01*
X139855000Y-68677750D01*
X138909000Y-68677750D01*
X138750250Y-68519000D01*
X138582000Y-68515928D01*
X138457518Y-68528188D01*
X138337820Y-68564498D01*
X138227506Y-68623463D01*
X138130815Y-68702815D01*
X138051463Y-68799506D01*
X137992498Y-68909820D01*
X137956188Y-69029518D01*
X137943928Y-69154000D01*
X131885000Y-69154000D01*
X131885000Y-67104000D01*
X195608928Y-67104000D01*
X195612000Y-67472250D01*
X195770750Y-67631000D01*
X197774000Y-67631000D01*
X197774000Y-66627750D01*
X197615250Y-66469000D01*
X196247000Y-66465928D01*
X196122518Y-66478188D01*
X196002820Y-66514498D01*
X195892506Y-66573463D01*
X195795815Y-66652815D01*
X195716463Y-66749506D01*
X195657498Y-66859820D01*
X195621188Y-66979518D01*
X195608928Y-67104000D01*
X131885000Y-67104000D01*
X131885000Y-62039410D01*
X131908163Y-61779872D01*
X133845000Y-61779872D01*
X133845000Y-62220128D01*
X133930890Y-62651925D01*
X134099369Y-63058669D01*
X134343962Y-63424729D01*
X134655271Y-63736038D01*
X135021331Y-63980631D01*
X135428075Y-64149110D01*
X135859872Y-64235000D01*
X136300128Y-64235000D01*
X136731925Y-64149110D01*
X137138669Y-63980631D01*
X137504729Y-63736038D01*
X137816038Y-63424729D01*
X138060631Y-63058669D01*
X138229110Y-62651925D01*
X138315000Y-62220128D01*
X138315000Y-61779872D01*
X193765000Y-61779872D01*
X193765000Y-62220128D01*
X193850890Y-62651925D01*
X194019369Y-63058669D01*
X194263962Y-63424729D01*
X194575271Y-63736038D01*
X194941331Y-63980631D01*
X195348075Y-64149110D01*
X195779872Y-64235000D01*
X196220128Y-64235000D01*
X196651925Y-64149110D01*
X197058669Y-63980631D01*
X197424729Y-63736038D01*
X197736038Y-63424729D01*
X197980631Y-63058669D01*
X198149110Y-62651925D01*
X198235000Y-62220128D01*
X198235000Y-61779872D01*
X198149110Y-61348075D01*
X197980631Y-60941331D01*
X197736038Y-60575271D01*
X197424729Y-60263962D01*
X197058669Y-60019369D01*
X196651925Y-59850890D01*
X196220128Y-59765000D01*
X195779872Y-59765000D01*
X195348075Y-59850890D01*
X194941331Y-60019369D01*
X194575271Y-60263962D01*
X194263962Y-60575271D01*
X194019369Y-60941331D01*
X193850890Y-61348075D01*
X193765000Y-61779872D01*
X138315000Y-61779872D01*
X138229110Y-61348075D01*
X138060631Y-60941331D01*
X137816038Y-60575271D01*
X137504729Y-60263962D01*
X137138669Y-60019369D01*
X136731925Y-59850890D01*
X136300128Y-59765000D01*
X135859872Y-59765000D01*
X135428075Y-59850890D01*
X135021331Y-60019369D01*
X134655271Y-60263962D01*
X134343962Y-60575271D01*
X134099369Y-60941331D01*
X133930890Y-61348075D01*
X133845000Y-61779872D01*
X131908163Y-61779872D01*
X131953497Y-61271919D01*
X132146381Y-60566853D01*
X132461075Y-59907084D01*
X132887628Y-59313473D01*
X133412559Y-58804779D01*
X134019279Y-58397080D01*
X134688605Y-58103266D01*
X135406191Y-57930989D01*
X136032447Y-57885000D01*
X195960590Y-57885000D01*
X196728081Y-57953497D01*
M02*
