G04 #@! TF.GenerationSoftware,KiCad,Pcbnew,5.1.4+dfsg1-1*
G04 #@! TF.CreationDate,2019-10-01T15:35:31+02:00*
G04 #@! TF.ProjectId,rover-pcb,726f7665-722d-4706-9362-2e6b69636164,1*
G04 #@! TF.SameCoordinates,Original*
G04 #@! TF.FileFunction,Soldermask,Bot*
G04 #@! TF.FilePolarity,Negative*
%FSLAX46Y46*%
G04 Gerber Fmt 4.6, Leading zero omitted, Abs format (unit mm)*
G04 Created by KiCad (PCBNEW 5.1.4+dfsg1-1) date 2019-10-01 15:35:31*
%MOMM*%
%LPD*%
G04 APERTURE LIST*
%ADD10C,0.100000*%
G04 APERTURE END LIST*
D10*
G36*
X196375256Y-130391298D02*
G01*
X196481579Y-130412447D01*
X196782042Y-130536903D01*
X197052451Y-130717585D01*
X197282415Y-130947549D01*
X197463097Y-131217958D01*
X197587553Y-131518421D01*
X197592430Y-131542938D01*
X197645366Y-131809063D01*
X197651000Y-131837391D01*
X197651000Y-132162609D01*
X197587553Y-132481579D01*
X197463097Y-132782042D01*
X197282415Y-133052451D01*
X197052451Y-133282415D01*
X196782042Y-133463097D01*
X196481579Y-133587553D01*
X196375256Y-133608702D01*
X196162611Y-133651000D01*
X195837389Y-133651000D01*
X195624744Y-133608702D01*
X195518421Y-133587553D01*
X195217958Y-133463097D01*
X194947549Y-133282415D01*
X194717585Y-133052451D01*
X194536903Y-132782042D01*
X194412447Y-132481579D01*
X194349000Y-132162609D01*
X194349000Y-131837391D01*
X194354635Y-131809063D01*
X194407570Y-131542938D01*
X194412447Y-131518421D01*
X194536903Y-131217958D01*
X194717585Y-130947549D01*
X194947549Y-130717585D01*
X195217958Y-130536903D01*
X195518421Y-130412447D01*
X195624744Y-130391298D01*
X195837389Y-130349000D01*
X196162611Y-130349000D01*
X196375256Y-130391298D01*
X196375256Y-130391298D01*
G37*
G36*
X136375256Y-130391298D02*
G01*
X136481579Y-130412447D01*
X136782042Y-130536903D01*
X137052451Y-130717585D01*
X137282415Y-130947549D01*
X137463097Y-131217958D01*
X137587553Y-131518421D01*
X137592430Y-131542938D01*
X137645366Y-131809063D01*
X137651000Y-131837391D01*
X137651000Y-132162609D01*
X137587553Y-132481579D01*
X137463097Y-132782042D01*
X137282415Y-133052451D01*
X137052451Y-133282415D01*
X136782042Y-133463097D01*
X136481579Y-133587553D01*
X136375256Y-133608702D01*
X136162611Y-133651000D01*
X135837389Y-133651000D01*
X135624744Y-133608702D01*
X135518421Y-133587553D01*
X135217958Y-133463097D01*
X134947549Y-133282415D01*
X134717585Y-133052451D01*
X134536903Y-132782042D01*
X134412447Y-132481579D01*
X134349000Y-132162609D01*
X134349000Y-131837391D01*
X134354635Y-131809063D01*
X134407570Y-131542938D01*
X134412447Y-131518421D01*
X134536903Y-131217958D01*
X134717585Y-130947549D01*
X134947549Y-130717585D01*
X135217958Y-130536903D01*
X135518421Y-130412447D01*
X135624744Y-130391298D01*
X135837389Y-130349000D01*
X136162611Y-130349000D01*
X136375256Y-130391298D01*
X136375256Y-130391298D01*
G37*
G36*
X144959564Y-131196389D02*
G01*
X145150833Y-131275615D01*
X145150835Y-131275616D01*
X145322973Y-131390635D01*
X145469365Y-131537027D01*
X145584385Y-131709167D01*
X145663611Y-131900436D01*
X145704000Y-132103484D01*
X145704000Y-132310516D01*
X145663611Y-132513564D01*
X145584385Y-132704833D01*
X145584384Y-132704835D01*
X145469365Y-132876973D01*
X145322973Y-133023365D01*
X145150835Y-133138384D01*
X145150834Y-133138385D01*
X145150833Y-133138385D01*
X144959564Y-133217611D01*
X144756516Y-133258000D01*
X144549484Y-133258000D01*
X144346436Y-133217611D01*
X144155167Y-133138385D01*
X144155166Y-133138385D01*
X144155165Y-133138384D01*
X143983027Y-133023365D01*
X143836635Y-132876973D01*
X143721616Y-132704835D01*
X143721615Y-132704833D01*
X143642389Y-132513564D01*
X143602000Y-132310516D01*
X143602000Y-132103484D01*
X143642389Y-131900436D01*
X143721615Y-131709167D01*
X143836635Y-131537027D01*
X143983027Y-131390635D01*
X144155165Y-131275616D01*
X144155167Y-131275615D01*
X144346436Y-131196389D01*
X144549484Y-131156000D01*
X144756516Y-131156000D01*
X144959564Y-131196389D01*
X144959564Y-131196389D01*
G37*
G36*
X164863000Y-133027000D02*
G01*
X162161000Y-133027000D01*
X162161000Y-130325000D01*
X164863000Y-130325000D01*
X164863000Y-133027000D01*
X164863000Y-133027000D01*
G37*
G36*
X168986072Y-130376918D02*
G01*
X169231939Y-130478759D01*
X169318955Y-130536902D01*
X169453211Y-130626609D01*
X169641391Y-130814789D01*
X169789242Y-131036063D01*
X169891082Y-131281928D01*
X169943000Y-131542937D01*
X169943000Y-131809063D01*
X169937365Y-131837391D01*
X169891082Y-132070072D01*
X169789241Y-132315939D01*
X169641390Y-132537212D01*
X169453212Y-132725390D01*
X169231939Y-132873241D01*
X169231938Y-132873242D01*
X169231937Y-132873242D01*
X168986072Y-132975082D01*
X168725063Y-133027000D01*
X168458937Y-133027000D01*
X168197928Y-132975082D01*
X167952063Y-132873242D01*
X167952062Y-132873242D01*
X167952061Y-132873241D01*
X167730788Y-132725390D01*
X167542610Y-132537212D01*
X167394759Y-132315939D01*
X167292918Y-132070072D01*
X167246635Y-131837391D01*
X167241000Y-131809063D01*
X167241000Y-131542937D01*
X167292918Y-131281928D01*
X167394758Y-131036063D01*
X167542609Y-130814789D01*
X167730789Y-130626609D01*
X167865045Y-130536902D01*
X167952061Y-130478759D01*
X168197928Y-130376918D01*
X168458937Y-130325000D01*
X168725063Y-130325000D01*
X168986072Y-130376918D01*
X168986072Y-130376918D01*
G37*
G36*
X135909000Y-126749000D02*
G01*
X131807000Y-126749000D01*
X131807000Y-124647000D01*
X135909000Y-124647000D01*
X135909000Y-126749000D01*
X135909000Y-126749000D01*
G37*
G36*
X140056823Y-122963313D02*
G01*
X140217242Y-123011976D01*
X140349906Y-123082886D01*
X140365078Y-123090996D01*
X140494659Y-123197341D01*
X140601004Y-123326922D01*
X140601005Y-123326924D01*
X140680024Y-123474758D01*
X140728687Y-123635177D01*
X140745117Y-123802000D01*
X140728687Y-123968823D01*
X140680024Y-124129242D01*
X140609114Y-124261906D01*
X140601004Y-124277078D01*
X140494659Y-124406659D01*
X140365078Y-124513004D01*
X140365076Y-124513005D01*
X140217242Y-124592024D01*
X140056823Y-124640687D01*
X139931804Y-124653000D01*
X139848196Y-124653000D01*
X139723177Y-124640687D01*
X139562758Y-124592024D01*
X139414924Y-124513005D01*
X139414922Y-124513004D01*
X139285341Y-124406659D01*
X139178996Y-124277078D01*
X139170886Y-124261906D01*
X139099976Y-124129242D01*
X139051313Y-123968823D01*
X139034883Y-123802000D01*
X139051313Y-123635177D01*
X139099976Y-123474758D01*
X139178995Y-123326924D01*
X139178996Y-123326922D01*
X139285341Y-123197341D01*
X139414922Y-123090996D01*
X139430094Y-123082886D01*
X139562758Y-123011976D01*
X139723177Y-122963313D01*
X139848196Y-122951000D01*
X139931804Y-122951000D01*
X140056823Y-122963313D01*
X140056823Y-122963313D01*
G37*
G36*
X152756823Y-122963313D02*
G01*
X152917242Y-123011976D01*
X153049906Y-123082886D01*
X153065078Y-123090996D01*
X153194659Y-123197341D01*
X153301004Y-123326922D01*
X153301005Y-123326924D01*
X153380024Y-123474758D01*
X153428687Y-123635177D01*
X153445117Y-123802000D01*
X153428687Y-123968823D01*
X153380024Y-124129242D01*
X153309114Y-124261906D01*
X153301004Y-124277078D01*
X153194659Y-124406659D01*
X153065078Y-124513004D01*
X153065076Y-124513005D01*
X152917242Y-124592024D01*
X152756823Y-124640687D01*
X152631804Y-124653000D01*
X152548196Y-124653000D01*
X152423177Y-124640687D01*
X152262758Y-124592024D01*
X152114924Y-124513005D01*
X152114922Y-124513004D01*
X151985341Y-124406659D01*
X151878996Y-124277078D01*
X151870886Y-124261906D01*
X151799976Y-124129242D01*
X151751313Y-123968823D01*
X151734883Y-123802000D01*
X151751313Y-123635177D01*
X151799976Y-123474758D01*
X151878995Y-123326924D01*
X151878996Y-123326922D01*
X151985341Y-123197341D01*
X152114922Y-123090996D01*
X152130094Y-123082886D01*
X152262758Y-123011976D01*
X152423177Y-122963313D01*
X152548196Y-122951000D01*
X152631804Y-122951000D01*
X152756823Y-122963313D01*
X152756823Y-122963313D01*
G37*
G36*
X179934823Y-122963313D02*
G01*
X180095242Y-123011976D01*
X180227906Y-123082886D01*
X180243078Y-123090996D01*
X180372659Y-123197341D01*
X180479004Y-123326922D01*
X180479005Y-123326924D01*
X180558024Y-123474758D01*
X180606687Y-123635177D01*
X180623117Y-123802000D01*
X180606687Y-123968823D01*
X180558024Y-124129242D01*
X180487114Y-124261906D01*
X180479004Y-124277078D01*
X180372659Y-124406659D01*
X180243078Y-124513004D01*
X180243076Y-124513005D01*
X180095242Y-124592024D01*
X179934823Y-124640687D01*
X179809804Y-124653000D01*
X179726196Y-124653000D01*
X179601177Y-124640687D01*
X179440758Y-124592024D01*
X179292924Y-124513005D01*
X179292922Y-124513004D01*
X179163341Y-124406659D01*
X179056996Y-124277078D01*
X179048886Y-124261906D01*
X178977976Y-124129242D01*
X178929313Y-123968823D01*
X178912883Y-123802000D01*
X178929313Y-123635177D01*
X178977976Y-123474758D01*
X179056995Y-123326924D01*
X179056996Y-123326922D01*
X179163341Y-123197341D01*
X179292922Y-123090996D01*
X179308094Y-123082886D01*
X179440758Y-123011976D01*
X179601177Y-122963313D01*
X179726196Y-122951000D01*
X179809804Y-122951000D01*
X179934823Y-122963313D01*
X179934823Y-122963313D01*
G37*
G36*
X193319000Y-124653000D02*
G01*
X191617000Y-124653000D01*
X191617000Y-122951000D01*
X193319000Y-122951000D01*
X193319000Y-124653000D01*
X193319000Y-124653000D01*
G37*
G36*
X135909000Y-122749000D02*
G01*
X131807000Y-122749000D01*
X131807000Y-120647000D01*
X135909000Y-120647000D01*
X135909000Y-122749000D01*
X135909000Y-122749000D01*
G37*
G36*
X140056823Y-120423313D02*
G01*
X140217242Y-120471976D01*
X140349906Y-120542886D01*
X140365078Y-120550996D01*
X140494659Y-120657341D01*
X140601004Y-120786922D01*
X140601005Y-120786924D01*
X140680024Y-120934758D01*
X140728687Y-121095177D01*
X140745117Y-121262000D01*
X140728687Y-121428823D01*
X140680024Y-121589242D01*
X140609114Y-121721906D01*
X140601004Y-121737078D01*
X140494659Y-121866659D01*
X140365078Y-121973004D01*
X140365076Y-121973005D01*
X140217242Y-122052024D01*
X140056823Y-122100687D01*
X139931804Y-122113000D01*
X139848196Y-122113000D01*
X139723177Y-122100687D01*
X139562758Y-122052024D01*
X139414924Y-121973005D01*
X139414922Y-121973004D01*
X139285341Y-121866659D01*
X139178996Y-121737078D01*
X139170886Y-121721906D01*
X139099976Y-121589242D01*
X139051313Y-121428823D01*
X139034883Y-121262000D01*
X139051313Y-121095177D01*
X139099976Y-120934758D01*
X139178995Y-120786924D01*
X139178996Y-120786922D01*
X139285341Y-120657341D01*
X139414922Y-120550996D01*
X139430094Y-120542886D01*
X139562758Y-120471976D01*
X139723177Y-120423313D01*
X139848196Y-120411000D01*
X139931804Y-120411000D01*
X140056823Y-120423313D01*
X140056823Y-120423313D01*
G37*
G36*
X152756823Y-120423313D02*
G01*
X152917242Y-120471976D01*
X153049906Y-120542886D01*
X153065078Y-120550996D01*
X153194659Y-120657341D01*
X153301004Y-120786922D01*
X153301005Y-120786924D01*
X153380024Y-120934758D01*
X153428687Y-121095177D01*
X153445117Y-121262000D01*
X153428687Y-121428823D01*
X153380024Y-121589242D01*
X153309114Y-121721906D01*
X153301004Y-121737078D01*
X153194659Y-121866659D01*
X153065078Y-121973004D01*
X153065076Y-121973005D01*
X152917242Y-122052024D01*
X152756823Y-122100687D01*
X152631804Y-122113000D01*
X152548196Y-122113000D01*
X152423177Y-122100687D01*
X152262758Y-122052024D01*
X152114924Y-121973005D01*
X152114922Y-121973004D01*
X151985341Y-121866659D01*
X151878996Y-121737078D01*
X151870886Y-121721906D01*
X151799976Y-121589242D01*
X151751313Y-121428823D01*
X151734883Y-121262000D01*
X151751313Y-121095177D01*
X151799976Y-120934758D01*
X151878995Y-120786924D01*
X151878996Y-120786922D01*
X151985341Y-120657341D01*
X152114922Y-120550996D01*
X152130094Y-120542886D01*
X152262758Y-120471976D01*
X152423177Y-120423313D01*
X152548196Y-120411000D01*
X152631804Y-120411000D01*
X152756823Y-120423313D01*
X152756823Y-120423313D01*
G37*
G36*
X179934823Y-120423313D02*
G01*
X180095242Y-120471976D01*
X180227906Y-120542886D01*
X180243078Y-120550996D01*
X180372659Y-120657341D01*
X180479004Y-120786922D01*
X180479005Y-120786924D01*
X180558024Y-120934758D01*
X180606687Y-121095177D01*
X180623117Y-121262000D01*
X180606687Y-121428823D01*
X180558024Y-121589242D01*
X180487114Y-121721906D01*
X180479004Y-121737078D01*
X180372659Y-121866659D01*
X180243078Y-121973004D01*
X180243076Y-121973005D01*
X180095242Y-122052024D01*
X179934823Y-122100687D01*
X179809804Y-122113000D01*
X179726196Y-122113000D01*
X179601177Y-122100687D01*
X179440758Y-122052024D01*
X179292924Y-121973005D01*
X179292922Y-121973004D01*
X179163341Y-121866659D01*
X179056996Y-121737078D01*
X179048886Y-121721906D01*
X178977976Y-121589242D01*
X178929313Y-121428823D01*
X178912883Y-121262000D01*
X178929313Y-121095177D01*
X178977976Y-120934758D01*
X179056995Y-120786924D01*
X179056996Y-120786922D01*
X179163341Y-120657341D01*
X179292922Y-120550996D01*
X179308094Y-120542886D01*
X179440758Y-120471976D01*
X179601177Y-120423313D01*
X179726196Y-120411000D01*
X179809804Y-120411000D01*
X179934823Y-120423313D01*
X179934823Y-120423313D01*
G37*
G36*
X192634823Y-120423313D02*
G01*
X192795242Y-120471976D01*
X192927906Y-120542886D01*
X192943078Y-120550996D01*
X193072659Y-120657341D01*
X193179004Y-120786922D01*
X193179005Y-120786924D01*
X193258024Y-120934758D01*
X193306687Y-121095177D01*
X193323117Y-121262000D01*
X193306687Y-121428823D01*
X193258024Y-121589242D01*
X193187114Y-121721906D01*
X193179004Y-121737078D01*
X193072659Y-121866659D01*
X192943078Y-121973004D01*
X192943076Y-121973005D01*
X192795242Y-122052024D01*
X192634823Y-122100687D01*
X192509804Y-122113000D01*
X192426196Y-122113000D01*
X192301177Y-122100687D01*
X192140758Y-122052024D01*
X191992924Y-121973005D01*
X191992922Y-121973004D01*
X191863341Y-121866659D01*
X191756996Y-121737078D01*
X191748886Y-121721906D01*
X191677976Y-121589242D01*
X191629313Y-121428823D01*
X191612883Y-121262000D01*
X191629313Y-121095177D01*
X191677976Y-120934758D01*
X191756995Y-120786924D01*
X191756996Y-120786922D01*
X191863341Y-120657341D01*
X191992922Y-120550996D01*
X192008094Y-120542886D01*
X192140758Y-120471976D01*
X192301177Y-120423313D01*
X192426196Y-120411000D01*
X192509804Y-120411000D01*
X192634823Y-120423313D01*
X192634823Y-120423313D01*
G37*
G36*
X168771294Y-119090633D02*
G01*
X168943695Y-119142931D01*
X169102583Y-119227858D01*
X169241849Y-119342151D01*
X169356142Y-119481417D01*
X169441069Y-119640305D01*
X169493367Y-119812706D01*
X169511025Y-119992000D01*
X169493367Y-120171294D01*
X169441069Y-120343695D01*
X169356142Y-120502583D01*
X169241849Y-120641849D01*
X169102583Y-120756142D01*
X168943695Y-120841069D01*
X168771294Y-120893367D01*
X168636931Y-120906600D01*
X168547069Y-120906600D01*
X168412706Y-120893367D01*
X168240305Y-120841069D01*
X168081417Y-120756142D01*
X167942151Y-120641849D01*
X167827858Y-120502583D01*
X167742931Y-120343695D01*
X167690633Y-120171294D01*
X167672975Y-119992000D01*
X167690633Y-119812706D01*
X167742931Y-119640305D01*
X167827858Y-119481417D01*
X167942151Y-119342151D01*
X168081417Y-119227858D01*
X168240305Y-119142931D01*
X168412706Y-119090633D01*
X168547069Y-119077400D01*
X168636931Y-119077400D01*
X168771294Y-119090633D01*
X168771294Y-119090633D01*
G37*
G36*
X166231294Y-119090633D02*
G01*
X166403695Y-119142931D01*
X166562583Y-119227858D01*
X166701849Y-119342151D01*
X166816142Y-119481417D01*
X166901069Y-119640305D01*
X166953367Y-119812706D01*
X166971025Y-119992000D01*
X166953367Y-120171294D01*
X166901069Y-120343695D01*
X166816142Y-120502583D01*
X166701849Y-120641849D01*
X166562583Y-120756142D01*
X166403695Y-120841069D01*
X166231294Y-120893367D01*
X166096931Y-120906600D01*
X166007069Y-120906600D01*
X165872706Y-120893367D01*
X165700305Y-120841069D01*
X165541417Y-120756142D01*
X165402151Y-120641849D01*
X165287858Y-120502583D01*
X165202931Y-120343695D01*
X165150633Y-120171294D01*
X165132975Y-119992000D01*
X165150633Y-119812706D01*
X165202931Y-119640305D01*
X165287858Y-119481417D01*
X165402151Y-119342151D01*
X165541417Y-119227858D01*
X165700305Y-119142931D01*
X165872706Y-119090633D01*
X166007069Y-119077400D01*
X166096931Y-119077400D01*
X166231294Y-119090633D01*
X166231294Y-119090633D01*
G37*
G36*
X163691294Y-119090633D02*
G01*
X163863695Y-119142931D01*
X164022583Y-119227858D01*
X164161849Y-119342151D01*
X164276142Y-119481417D01*
X164361069Y-119640305D01*
X164413367Y-119812706D01*
X164431025Y-119992000D01*
X164413367Y-120171294D01*
X164361069Y-120343695D01*
X164276142Y-120502583D01*
X164161849Y-120641849D01*
X164022583Y-120756142D01*
X163863695Y-120841069D01*
X163691294Y-120893367D01*
X163556931Y-120906600D01*
X163467069Y-120906600D01*
X163332706Y-120893367D01*
X163160305Y-120841069D01*
X163001417Y-120756142D01*
X162862151Y-120641849D01*
X162747858Y-120502583D01*
X162662931Y-120343695D01*
X162610633Y-120171294D01*
X162592975Y-119992000D01*
X162610633Y-119812706D01*
X162662931Y-119640305D01*
X162747858Y-119481417D01*
X162862151Y-119342151D01*
X163001417Y-119227858D01*
X163160305Y-119142931D01*
X163332706Y-119090633D01*
X163467069Y-119077400D01*
X163556931Y-119077400D01*
X163691294Y-119090633D01*
X163691294Y-119090633D01*
G37*
G36*
X199910000Y-119623000D02*
G01*
X198108000Y-119623000D01*
X198108000Y-117821000D01*
X199910000Y-117821000D01*
X199910000Y-119623000D01*
X199910000Y-119623000D01*
G37*
G36*
X133333442Y-117827518D02*
G01*
X133399627Y-117834037D01*
X133569466Y-117885557D01*
X133725991Y-117969222D01*
X133761729Y-117998552D01*
X133863186Y-118081814D01*
X133946448Y-118183271D01*
X133975778Y-118219009D01*
X134059443Y-118375534D01*
X134110963Y-118545373D01*
X134128359Y-118722000D01*
X134110963Y-118898627D01*
X134059443Y-119068466D01*
X133975778Y-119224991D01*
X133973425Y-119227858D01*
X133863186Y-119362186D01*
X133761729Y-119445448D01*
X133725991Y-119474778D01*
X133569466Y-119558443D01*
X133399627Y-119609963D01*
X133333442Y-119616482D01*
X133267260Y-119623000D01*
X133178740Y-119623000D01*
X133112558Y-119616482D01*
X133046373Y-119609963D01*
X132876534Y-119558443D01*
X132720009Y-119474778D01*
X132684271Y-119445448D01*
X132582814Y-119362186D01*
X132472575Y-119227858D01*
X132470222Y-119224991D01*
X132386557Y-119068466D01*
X132335037Y-118898627D01*
X132317641Y-118722000D01*
X132335037Y-118545373D01*
X132386557Y-118375534D01*
X132470222Y-118219009D01*
X132499552Y-118183271D01*
X132582814Y-118081814D01*
X132684271Y-117998552D01*
X132720009Y-117969222D01*
X132876534Y-117885557D01*
X133046373Y-117834037D01*
X133112558Y-117827518D01*
X133178740Y-117821000D01*
X133267260Y-117821000D01*
X133333442Y-117827518D01*
X133333442Y-117827518D01*
G37*
G36*
X179934823Y-117883313D02*
G01*
X180095242Y-117931976D01*
X180164922Y-117969221D01*
X180243078Y-118010996D01*
X180372659Y-118117341D01*
X180479004Y-118246922D01*
X180479005Y-118246924D01*
X180558024Y-118394758D01*
X180606687Y-118555177D01*
X180623117Y-118722000D01*
X180606687Y-118888823D01*
X180558024Y-119049242D01*
X180487114Y-119181906D01*
X180479004Y-119197078D01*
X180372659Y-119326659D01*
X180243078Y-119433004D01*
X180243076Y-119433005D01*
X180095242Y-119512024D01*
X179934823Y-119560687D01*
X179809804Y-119573000D01*
X179726196Y-119573000D01*
X179601177Y-119560687D01*
X179440758Y-119512024D01*
X179292924Y-119433005D01*
X179292922Y-119433004D01*
X179163341Y-119326659D01*
X179056996Y-119197078D01*
X179048886Y-119181906D01*
X178977976Y-119049242D01*
X178929313Y-118888823D01*
X178912883Y-118722000D01*
X178929313Y-118555177D01*
X178977976Y-118394758D01*
X179056995Y-118246924D01*
X179056996Y-118246922D01*
X179163341Y-118117341D01*
X179292922Y-118010996D01*
X179371078Y-117969221D01*
X179440758Y-117931976D01*
X179601177Y-117883313D01*
X179726196Y-117871000D01*
X179809804Y-117871000D01*
X179934823Y-117883313D01*
X179934823Y-117883313D01*
G37*
G36*
X140056823Y-117883313D02*
G01*
X140217242Y-117931976D01*
X140286922Y-117969221D01*
X140365078Y-118010996D01*
X140494659Y-118117341D01*
X140601004Y-118246922D01*
X140601005Y-118246924D01*
X140680024Y-118394758D01*
X140728687Y-118555177D01*
X140745117Y-118722000D01*
X140728687Y-118888823D01*
X140680024Y-119049242D01*
X140609114Y-119181906D01*
X140601004Y-119197078D01*
X140494659Y-119326659D01*
X140365078Y-119433004D01*
X140365076Y-119433005D01*
X140217242Y-119512024D01*
X140056823Y-119560687D01*
X139931804Y-119573000D01*
X139848196Y-119573000D01*
X139723177Y-119560687D01*
X139562758Y-119512024D01*
X139414924Y-119433005D01*
X139414922Y-119433004D01*
X139285341Y-119326659D01*
X139178996Y-119197078D01*
X139170886Y-119181906D01*
X139099976Y-119049242D01*
X139051313Y-118888823D01*
X139034883Y-118722000D01*
X139051313Y-118555177D01*
X139099976Y-118394758D01*
X139178995Y-118246924D01*
X139178996Y-118246922D01*
X139285341Y-118117341D01*
X139414922Y-118010996D01*
X139493078Y-117969221D01*
X139562758Y-117931976D01*
X139723177Y-117883313D01*
X139848196Y-117871000D01*
X139931804Y-117871000D01*
X140056823Y-117883313D01*
X140056823Y-117883313D01*
G37*
G36*
X152756823Y-117883313D02*
G01*
X152917242Y-117931976D01*
X152986922Y-117969221D01*
X153065078Y-118010996D01*
X153194659Y-118117341D01*
X153301004Y-118246922D01*
X153301005Y-118246924D01*
X153380024Y-118394758D01*
X153428687Y-118555177D01*
X153445117Y-118722000D01*
X153428687Y-118888823D01*
X153380024Y-119049242D01*
X153309114Y-119181906D01*
X153301004Y-119197078D01*
X153194659Y-119326659D01*
X153065078Y-119433004D01*
X153065076Y-119433005D01*
X152917242Y-119512024D01*
X152756823Y-119560687D01*
X152631804Y-119573000D01*
X152548196Y-119573000D01*
X152423177Y-119560687D01*
X152262758Y-119512024D01*
X152114924Y-119433005D01*
X152114922Y-119433004D01*
X151985341Y-119326659D01*
X151878996Y-119197078D01*
X151870886Y-119181906D01*
X151799976Y-119049242D01*
X151751313Y-118888823D01*
X151734883Y-118722000D01*
X151751313Y-118555177D01*
X151799976Y-118394758D01*
X151878995Y-118246924D01*
X151878996Y-118246922D01*
X151985341Y-118117341D01*
X152114922Y-118010996D01*
X152193078Y-117969221D01*
X152262758Y-117931976D01*
X152423177Y-117883313D01*
X152548196Y-117871000D01*
X152631804Y-117871000D01*
X152756823Y-117883313D01*
X152756823Y-117883313D01*
G37*
G36*
X192634823Y-117883313D02*
G01*
X192795242Y-117931976D01*
X192864922Y-117969221D01*
X192943078Y-118010996D01*
X193072659Y-118117341D01*
X193179004Y-118246922D01*
X193179005Y-118246924D01*
X193258024Y-118394758D01*
X193306687Y-118555177D01*
X193323117Y-118722000D01*
X193306687Y-118888823D01*
X193258024Y-119049242D01*
X193187114Y-119181906D01*
X193179004Y-119197078D01*
X193072659Y-119326659D01*
X192943078Y-119433004D01*
X192943076Y-119433005D01*
X192795242Y-119512024D01*
X192634823Y-119560687D01*
X192509804Y-119573000D01*
X192426196Y-119573000D01*
X192301177Y-119560687D01*
X192140758Y-119512024D01*
X191992924Y-119433005D01*
X191992922Y-119433004D01*
X191863341Y-119326659D01*
X191756996Y-119197078D01*
X191748886Y-119181906D01*
X191677976Y-119049242D01*
X191629313Y-118888823D01*
X191612883Y-118722000D01*
X191629313Y-118555177D01*
X191677976Y-118394758D01*
X191756995Y-118246924D01*
X191756996Y-118246922D01*
X191863341Y-118117341D01*
X191992922Y-118010996D01*
X192071078Y-117969221D01*
X192140758Y-117931976D01*
X192301177Y-117883313D01*
X192426196Y-117871000D01*
X192509804Y-117871000D01*
X192634823Y-117883313D01*
X192634823Y-117883313D01*
G37*
G36*
X169506600Y-118366600D02*
G01*
X167677400Y-118366600D01*
X167677400Y-116537400D01*
X169506600Y-116537400D01*
X169506600Y-118366600D01*
X169506600Y-118366600D01*
G37*
G36*
X166231294Y-116550633D02*
G01*
X166403695Y-116602931D01*
X166562583Y-116687858D01*
X166701849Y-116802151D01*
X166816142Y-116941417D01*
X166901069Y-117100305D01*
X166953367Y-117272706D01*
X166971025Y-117452000D01*
X166953367Y-117631294D01*
X166901069Y-117803695D01*
X166816142Y-117962583D01*
X166701849Y-118101849D01*
X166562583Y-118216142D01*
X166403695Y-118301069D01*
X166231294Y-118353367D01*
X166096931Y-118366600D01*
X166007069Y-118366600D01*
X165872706Y-118353367D01*
X165700305Y-118301069D01*
X165541417Y-118216142D01*
X165402151Y-118101849D01*
X165287858Y-117962583D01*
X165202931Y-117803695D01*
X165150633Y-117631294D01*
X165132975Y-117452000D01*
X165150633Y-117272706D01*
X165202931Y-117100305D01*
X165287858Y-116941417D01*
X165402151Y-116802151D01*
X165541417Y-116687858D01*
X165700305Y-116602931D01*
X165872706Y-116550633D01*
X166007069Y-116537400D01*
X166096931Y-116537400D01*
X166231294Y-116550633D01*
X166231294Y-116550633D01*
G37*
G36*
X163691294Y-116550633D02*
G01*
X163863695Y-116602931D01*
X164022583Y-116687858D01*
X164161849Y-116802151D01*
X164276142Y-116941417D01*
X164361069Y-117100305D01*
X164413367Y-117272706D01*
X164431025Y-117452000D01*
X164413367Y-117631294D01*
X164361069Y-117803695D01*
X164276142Y-117962583D01*
X164161849Y-118101849D01*
X164022583Y-118216142D01*
X163863695Y-118301069D01*
X163691294Y-118353367D01*
X163556931Y-118366600D01*
X163467069Y-118366600D01*
X163332706Y-118353367D01*
X163160305Y-118301069D01*
X163001417Y-118216142D01*
X162862151Y-118101849D01*
X162747858Y-117962583D01*
X162662931Y-117803695D01*
X162610633Y-117631294D01*
X162592975Y-117452000D01*
X162610633Y-117272706D01*
X162662931Y-117100305D01*
X162747858Y-116941417D01*
X162862151Y-116802151D01*
X163001417Y-116687858D01*
X163160305Y-116602931D01*
X163332706Y-116550633D01*
X163467069Y-116537400D01*
X163556931Y-116537400D01*
X163691294Y-116550633D01*
X163691294Y-116550633D01*
G37*
G36*
X199119443Y-115287519D02*
G01*
X199185627Y-115294037D01*
X199355466Y-115345557D01*
X199511991Y-115429222D01*
X199547729Y-115458552D01*
X199649186Y-115541814D01*
X199732448Y-115643271D01*
X199761778Y-115679009D01*
X199845443Y-115835534D01*
X199896963Y-116005373D01*
X199914359Y-116182000D01*
X199896963Y-116358627D01*
X199845443Y-116528466D01*
X199761778Y-116684991D01*
X199759425Y-116687858D01*
X199649186Y-116822186D01*
X199547729Y-116905448D01*
X199511991Y-116934778D01*
X199355466Y-117018443D01*
X199185627Y-117069963D01*
X199119443Y-117076481D01*
X199053260Y-117083000D01*
X198964740Y-117083000D01*
X198898557Y-117076481D01*
X198832373Y-117069963D01*
X198662534Y-117018443D01*
X198506009Y-116934778D01*
X198470271Y-116905448D01*
X198368814Y-116822186D01*
X198258575Y-116687858D01*
X198256222Y-116684991D01*
X198172557Y-116528466D01*
X198121037Y-116358627D01*
X198103641Y-116182000D01*
X198121037Y-116005373D01*
X198172557Y-115835534D01*
X198256222Y-115679009D01*
X198285552Y-115643271D01*
X198368814Y-115541814D01*
X198470271Y-115458552D01*
X198506009Y-115429222D01*
X198662534Y-115345557D01*
X198832373Y-115294037D01*
X198898557Y-115287519D01*
X198964740Y-115281000D01*
X199053260Y-115281000D01*
X199119443Y-115287519D01*
X199119443Y-115287519D01*
G37*
G36*
X133333443Y-115287519D02*
G01*
X133399627Y-115294037D01*
X133569466Y-115345557D01*
X133725991Y-115429222D01*
X133761729Y-115458552D01*
X133863186Y-115541814D01*
X133946448Y-115643271D01*
X133975778Y-115679009D01*
X134059443Y-115835534D01*
X134110963Y-116005373D01*
X134128359Y-116182000D01*
X134110963Y-116358627D01*
X134059443Y-116528466D01*
X133975778Y-116684991D01*
X133973425Y-116687858D01*
X133863186Y-116822186D01*
X133761729Y-116905448D01*
X133725991Y-116934778D01*
X133569466Y-117018443D01*
X133399627Y-117069963D01*
X133333443Y-117076481D01*
X133267260Y-117083000D01*
X133178740Y-117083000D01*
X133112557Y-117076481D01*
X133046373Y-117069963D01*
X132876534Y-117018443D01*
X132720009Y-116934778D01*
X132684271Y-116905448D01*
X132582814Y-116822186D01*
X132472575Y-116687858D01*
X132470222Y-116684991D01*
X132386557Y-116528466D01*
X132335037Y-116358627D01*
X132317641Y-116182000D01*
X132335037Y-116005373D01*
X132386557Y-115835534D01*
X132470222Y-115679009D01*
X132499552Y-115643271D01*
X132582814Y-115541814D01*
X132684271Y-115458552D01*
X132720009Y-115429222D01*
X132876534Y-115345557D01*
X133046373Y-115294037D01*
X133112557Y-115287519D01*
X133178740Y-115281000D01*
X133267260Y-115281000D01*
X133333443Y-115287519D01*
X133333443Y-115287519D01*
G37*
G36*
X192634823Y-115343313D02*
G01*
X192795242Y-115391976D01*
X192864922Y-115429221D01*
X192943078Y-115470996D01*
X193072659Y-115577341D01*
X193179004Y-115706922D01*
X193179005Y-115706924D01*
X193258024Y-115854758D01*
X193306687Y-116015177D01*
X193323117Y-116182000D01*
X193306687Y-116348823D01*
X193258024Y-116509242D01*
X193187114Y-116641906D01*
X193179004Y-116657078D01*
X193072659Y-116786659D01*
X192943078Y-116893004D01*
X192943076Y-116893005D01*
X192795242Y-116972024D01*
X192634823Y-117020687D01*
X192509804Y-117033000D01*
X192426196Y-117033000D01*
X192301177Y-117020687D01*
X192140758Y-116972024D01*
X191992924Y-116893005D01*
X191992922Y-116893004D01*
X191863341Y-116786659D01*
X191756996Y-116657078D01*
X191748886Y-116641906D01*
X191677976Y-116509242D01*
X191629313Y-116348823D01*
X191612883Y-116182000D01*
X191629313Y-116015177D01*
X191677976Y-115854758D01*
X191756995Y-115706924D01*
X191756996Y-115706922D01*
X191863341Y-115577341D01*
X191992922Y-115470996D01*
X192071078Y-115429221D01*
X192140758Y-115391976D01*
X192301177Y-115343313D01*
X192426196Y-115331000D01*
X192509804Y-115331000D01*
X192634823Y-115343313D01*
X192634823Y-115343313D01*
G37*
G36*
X179934823Y-115343313D02*
G01*
X180095242Y-115391976D01*
X180164922Y-115429221D01*
X180243078Y-115470996D01*
X180372659Y-115577341D01*
X180479004Y-115706922D01*
X180479005Y-115706924D01*
X180558024Y-115854758D01*
X180606687Y-116015177D01*
X180623117Y-116182000D01*
X180606687Y-116348823D01*
X180558024Y-116509242D01*
X180487114Y-116641906D01*
X180479004Y-116657078D01*
X180372659Y-116786659D01*
X180243078Y-116893004D01*
X180243076Y-116893005D01*
X180095242Y-116972024D01*
X179934823Y-117020687D01*
X179809804Y-117033000D01*
X179726196Y-117033000D01*
X179601177Y-117020687D01*
X179440758Y-116972024D01*
X179292924Y-116893005D01*
X179292922Y-116893004D01*
X179163341Y-116786659D01*
X179056996Y-116657078D01*
X179048886Y-116641906D01*
X178977976Y-116509242D01*
X178929313Y-116348823D01*
X178912883Y-116182000D01*
X178929313Y-116015177D01*
X178977976Y-115854758D01*
X179056995Y-115706924D01*
X179056996Y-115706922D01*
X179163341Y-115577341D01*
X179292922Y-115470996D01*
X179371078Y-115429221D01*
X179440758Y-115391976D01*
X179601177Y-115343313D01*
X179726196Y-115331000D01*
X179809804Y-115331000D01*
X179934823Y-115343313D01*
X179934823Y-115343313D01*
G37*
G36*
X140056823Y-115343313D02*
G01*
X140217242Y-115391976D01*
X140286922Y-115429221D01*
X140365078Y-115470996D01*
X140494659Y-115577341D01*
X140601004Y-115706922D01*
X140601005Y-115706924D01*
X140680024Y-115854758D01*
X140728687Y-116015177D01*
X140745117Y-116182000D01*
X140728687Y-116348823D01*
X140680024Y-116509242D01*
X140609114Y-116641906D01*
X140601004Y-116657078D01*
X140494659Y-116786659D01*
X140365078Y-116893004D01*
X140365076Y-116893005D01*
X140217242Y-116972024D01*
X140056823Y-117020687D01*
X139931804Y-117033000D01*
X139848196Y-117033000D01*
X139723177Y-117020687D01*
X139562758Y-116972024D01*
X139414924Y-116893005D01*
X139414922Y-116893004D01*
X139285341Y-116786659D01*
X139178996Y-116657078D01*
X139170886Y-116641906D01*
X139099976Y-116509242D01*
X139051313Y-116348823D01*
X139034883Y-116182000D01*
X139051313Y-116015177D01*
X139099976Y-115854758D01*
X139178995Y-115706924D01*
X139178996Y-115706922D01*
X139285341Y-115577341D01*
X139414922Y-115470996D01*
X139493078Y-115429221D01*
X139562758Y-115391976D01*
X139723177Y-115343313D01*
X139848196Y-115331000D01*
X139931804Y-115331000D01*
X140056823Y-115343313D01*
X140056823Y-115343313D01*
G37*
G36*
X152756823Y-115343313D02*
G01*
X152917242Y-115391976D01*
X152986922Y-115429221D01*
X153065078Y-115470996D01*
X153194659Y-115577341D01*
X153301004Y-115706922D01*
X153301005Y-115706924D01*
X153380024Y-115854758D01*
X153428687Y-116015177D01*
X153445117Y-116182000D01*
X153428687Y-116348823D01*
X153380024Y-116509242D01*
X153309114Y-116641906D01*
X153301004Y-116657078D01*
X153194659Y-116786659D01*
X153065078Y-116893004D01*
X153065076Y-116893005D01*
X152917242Y-116972024D01*
X152756823Y-117020687D01*
X152631804Y-117033000D01*
X152548196Y-117033000D01*
X152423177Y-117020687D01*
X152262758Y-116972024D01*
X152114924Y-116893005D01*
X152114922Y-116893004D01*
X151985341Y-116786659D01*
X151878996Y-116657078D01*
X151870886Y-116641906D01*
X151799976Y-116509242D01*
X151751313Y-116348823D01*
X151734883Y-116182000D01*
X151751313Y-116015177D01*
X151799976Y-115854758D01*
X151878995Y-115706924D01*
X151878996Y-115706922D01*
X151985341Y-115577341D01*
X152114922Y-115470996D01*
X152193078Y-115429221D01*
X152262758Y-115391976D01*
X152423177Y-115343313D01*
X152548196Y-115331000D01*
X152631804Y-115331000D01*
X152756823Y-115343313D01*
X152756823Y-115343313D01*
G37*
G36*
X133333442Y-112747518D02*
G01*
X133399627Y-112754037D01*
X133569466Y-112805557D01*
X133725991Y-112889222D01*
X133761729Y-112918552D01*
X133863186Y-113001814D01*
X133946448Y-113103271D01*
X133975778Y-113139009D01*
X134059443Y-113295534D01*
X134110963Y-113465373D01*
X134128359Y-113642000D01*
X134110963Y-113818627D01*
X134059443Y-113988466D01*
X133975778Y-114144991D01*
X133946448Y-114180729D01*
X133863186Y-114282186D01*
X133761729Y-114365448D01*
X133725991Y-114394778D01*
X133569466Y-114478443D01*
X133399627Y-114529963D01*
X133333443Y-114536481D01*
X133267260Y-114543000D01*
X133178740Y-114543000D01*
X133112557Y-114536481D01*
X133046373Y-114529963D01*
X132876534Y-114478443D01*
X132720009Y-114394778D01*
X132684271Y-114365448D01*
X132582814Y-114282186D01*
X132499552Y-114180729D01*
X132470222Y-114144991D01*
X132386557Y-113988466D01*
X132335037Y-113818627D01*
X132317641Y-113642000D01*
X132335037Y-113465373D01*
X132386557Y-113295534D01*
X132470222Y-113139009D01*
X132499552Y-113103271D01*
X132582814Y-113001814D01*
X132684271Y-112918552D01*
X132720009Y-112889222D01*
X132876534Y-112805557D01*
X133046373Y-112754037D01*
X133112558Y-112747518D01*
X133178740Y-112741000D01*
X133267260Y-112741000D01*
X133333442Y-112747518D01*
X133333442Y-112747518D01*
G37*
G36*
X199119442Y-112747518D02*
G01*
X199185627Y-112754037D01*
X199355466Y-112805557D01*
X199511991Y-112889222D01*
X199547729Y-112918552D01*
X199649186Y-113001814D01*
X199732448Y-113103271D01*
X199761778Y-113139009D01*
X199845443Y-113295534D01*
X199896963Y-113465373D01*
X199914359Y-113642000D01*
X199896963Y-113818627D01*
X199845443Y-113988466D01*
X199761778Y-114144991D01*
X199732448Y-114180729D01*
X199649186Y-114282186D01*
X199547729Y-114365448D01*
X199511991Y-114394778D01*
X199355466Y-114478443D01*
X199185627Y-114529963D01*
X199119443Y-114536481D01*
X199053260Y-114543000D01*
X198964740Y-114543000D01*
X198898557Y-114536481D01*
X198832373Y-114529963D01*
X198662534Y-114478443D01*
X198506009Y-114394778D01*
X198470271Y-114365448D01*
X198368814Y-114282186D01*
X198285552Y-114180729D01*
X198256222Y-114144991D01*
X198172557Y-113988466D01*
X198121037Y-113818627D01*
X198103641Y-113642000D01*
X198121037Y-113465373D01*
X198172557Y-113295534D01*
X198256222Y-113139009D01*
X198285552Y-113103271D01*
X198368814Y-113001814D01*
X198470271Y-112918552D01*
X198506009Y-112889222D01*
X198662534Y-112805557D01*
X198832373Y-112754037D01*
X198898558Y-112747518D01*
X198964740Y-112741000D01*
X199053260Y-112741000D01*
X199119442Y-112747518D01*
X199119442Y-112747518D01*
G37*
G36*
X140056823Y-112803313D02*
G01*
X140217242Y-112851976D01*
X140286922Y-112889221D01*
X140365078Y-112930996D01*
X140494659Y-113037341D01*
X140601004Y-113166922D01*
X140601005Y-113166924D01*
X140680024Y-113314758D01*
X140728687Y-113475177D01*
X140745117Y-113642000D01*
X140728687Y-113808823D01*
X140680024Y-113969242D01*
X140669747Y-113988468D01*
X140601004Y-114117078D01*
X140494659Y-114246659D01*
X140365078Y-114353004D01*
X140365076Y-114353005D01*
X140217242Y-114432024D01*
X140056823Y-114480687D01*
X139931804Y-114493000D01*
X139848196Y-114493000D01*
X139723177Y-114480687D01*
X139562758Y-114432024D01*
X139414924Y-114353005D01*
X139414922Y-114353004D01*
X139285341Y-114246659D01*
X139178996Y-114117078D01*
X139110253Y-113988468D01*
X139099976Y-113969242D01*
X139051313Y-113808823D01*
X139034883Y-113642000D01*
X139051313Y-113475177D01*
X139099976Y-113314758D01*
X139178995Y-113166924D01*
X139178996Y-113166922D01*
X139285341Y-113037341D01*
X139414922Y-112930996D01*
X139493078Y-112889221D01*
X139562758Y-112851976D01*
X139723177Y-112803313D01*
X139848196Y-112791000D01*
X139931804Y-112791000D01*
X140056823Y-112803313D01*
X140056823Y-112803313D01*
G37*
G36*
X192634823Y-112803313D02*
G01*
X192795242Y-112851976D01*
X192864922Y-112889221D01*
X192943078Y-112930996D01*
X193072659Y-113037341D01*
X193179004Y-113166922D01*
X193179005Y-113166924D01*
X193258024Y-113314758D01*
X193306687Y-113475177D01*
X193323117Y-113642000D01*
X193306687Y-113808823D01*
X193258024Y-113969242D01*
X193247747Y-113988468D01*
X193179004Y-114117078D01*
X193072659Y-114246659D01*
X192943078Y-114353004D01*
X192943076Y-114353005D01*
X192795242Y-114432024D01*
X192634823Y-114480687D01*
X192509804Y-114493000D01*
X192426196Y-114493000D01*
X192301177Y-114480687D01*
X192140758Y-114432024D01*
X191992924Y-114353005D01*
X191992922Y-114353004D01*
X191863341Y-114246659D01*
X191756996Y-114117078D01*
X191688253Y-113988468D01*
X191677976Y-113969242D01*
X191629313Y-113808823D01*
X191612883Y-113642000D01*
X191629313Y-113475177D01*
X191677976Y-113314758D01*
X191756995Y-113166924D01*
X191756996Y-113166922D01*
X191863341Y-113037341D01*
X191992922Y-112930996D01*
X192071078Y-112889221D01*
X192140758Y-112851976D01*
X192301177Y-112803313D01*
X192426196Y-112791000D01*
X192509804Y-112791000D01*
X192634823Y-112803313D01*
X192634823Y-112803313D01*
G37*
G36*
X152756823Y-112803313D02*
G01*
X152917242Y-112851976D01*
X152986922Y-112889221D01*
X153065078Y-112930996D01*
X153194659Y-113037341D01*
X153301004Y-113166922D01*
X153301005Y-113166924D01*
X153380024Y-113314758D01*
X153428687Y-113475177D01*
X153445117Y-113642000D01*
X153428687Y-113808823D01*
X153380024Y-113969242D01*
X153369747Y-113988468D01*
X153301004Y-114117078D01*
X153194659Y-114246659D01*
X153065078Y-114353004D01*
X153065076Y-114353005D01*
X152917242Y-114432024D01*
X152756823Y-114480687D01*
X152631804Y-114493000D01*
X152548196Y-114493000D01*
X152423177Y-114480687D01*
X152262758Y-114432024D01*
X152114924Y-114353005D01*
X152114922Y-114353004D01*
X151985341Y-114246659D01*
X151878996Y-114117078D01*
X151810253Y-113988468D01*
X151799976Y-113969242D01*
X151751313Y-113808823D01*
X151734883Y-113642000D01*
X151751313Y-113475177D01*
X151799976Y-113314758D01*
X151878995Y-113166924D01*
X151878996Y-113166922D01*
X151985341Y-113037341D01*
X152114922Y-112930996D01*
X152193078Y-112889221D01*
X152262758Y-112851976D01*
X152423177Y-112803313D01*
X152548196Y-112791000D01*
X152631804Y-112791000D01*
X152756823Y-112803313D01*
X152756823Y-112803313D01*
G37*
G36*
X179934823Y-112803313D02*
G01*
X180095242Y-112851976D01*
X180164922Y-112889221D01*
X180243078Y-112930996D01*
X180372659Y-113037341D01*
X180479004Y-113166922D01*
X180479005Y-113166924D01*
X180558024Y-113314758D01*
X180606687Y-113475177D01*
X180623117Y-113642000D01*
X180606687Y-113808823D01*
X180558024Y-113969242D01*
X180547747Y-113988468D01*
X180479004Y-114117078D01*
X180372659Y-114246659D01*
X180243078Y-114353004D01*
X180243076Y-114353005D01*
X180095242Y-114432024D01*
X179934823Y-114480687D01*
X179809804Y-114493000D01*
X179726196Y-114493000D01*
X179601177Y-114480687D01*
X179440758Y-114432024D01*
X179292924Y-114353005D01*
X179292922Y-114353004D01*
X179163341Y-114246659D01*
X179056996Y-114117078D01*
X178988253Y-113988468D01*
X178977976Y-113969242D01*
X178929313Y-113808823D01*
X178912883Y-113642000D01*
X178929313Y-113475177D01*
X178977976Y-113314758D01*
X179056995Y-113166924D01*
X179056996Y-113166922D01*
X179163341Y-113037341D01*
X179292922Y-112930996D01*
X179371078Y-112889221D01*
X179440758Y-112851976D01*
X179601177Y-112803313D01*
X179726196Y-112791000D01*
X179809804Y-112791000D01*
X179934823Y-112803313D01*
X179934823Y-112803313D01*
G37*
G36*
X134124000Y-112003000D02*
G01*
X132322000Y-112003000D01*
X132322000Y-110201000D01*
X134124000Y-110201000D01*
X134124000Y-112003000D01*
X134124000Y-112003000D01*
G37*
G36*
X199119442Y-110207518D02*
G01*
X199185627Y-110214037D01*
X199355466Y-110265557D01*
X199511991Y-110349222D01*
X199547729Y-110378552D01*
X199649186Y-110461814D01*
X199732448Y-110563271D01*
X199761778Y-110599009D01*
X199845443Y-110755534D01*
X199896963Y-110925373D01*
X199914359Y-111102000D01*
X199896963Y-111278627D01*
X199845443Y-111448466D01*
X199761778Y-111604991D01*
X199732448Y-111640729D01*
X199649186Y-111742186D01*
X199547729Y-111825448D01*
X199511991Y-111854778D01*
X199355466Y-111938443D01*
X199185627Y-111989963D01*
X199119442Y-111996482D01*
X199053260Y-112003000D01*
X198964740Y-112003000D01*
X198898558Y-111996482D01*
X198832373Y-111989963D01*
X198662534Y-111938443D01*
X198506009Y-111854778D01*
X198470271Y-111825448D01*
X198368814Y-111742186D01*
X198285552Y-111640729D01*
X198256222Y-111604991D01*
X198172557Y-111448466D01*
X198121037Y-111278627D01*
X198103641Y-111102000D01*
X198121037Y-110925373D01*
X198172557Y-110755534D01*
X198256222Y-110599009D01*
X198285552Y-110563271D01*
X198368814Y-110461814D01*
X198470271Y-110378552D01*
X198506009Y-110349222D01*
X198662534Y-110265557D01*
X198832373Y-110214037D01*
X198898558Y-110207518D01*
X198964740Y-110201000D01*
X199053260Y-110201000D01*
X199119442Y-110207518D01*
X199119442Y-110207518D01*
G37*
G36*
X179934823Y-110263313D02*
G01*
X180095242Y-110311976D01*
X180164922Y-110349221D01*
X180243078Y-110390996D01*
X180372659Y-110497341D01*
X180479004Y-110626922D01*
X180479005Y-110626924D01*
X180558024Y-110774758D01*
X180606687Y-110935177D01*
X180623117Y-111102000D01*
X180606687Y-111268823D01*
X180558024Y-111429242D01*
X180547747Y-111448468D01*
X180479004Y-111577078D01*
X180372659Y-111706659D01*
X180243078Y-111813004D01*
X180243076Y-111813005D01*
X180095242Y-111892024D01*
X179934823Y-111940687D01*
X179809804Y-111953000D01*
X179726196Y-111953000D01*
X179601177Y-111940687D01*
X179440758Y-111892024D01*
X179292924Y-111813005D01*
X179292922Y-111813004D01*
X179163341Y-111706659D01*
X179056996Y-111577078D01*
X178988253Y-111448468D01*
X178977976Y-111429242D01*
X178929313Y-111268823D01*
X178912883Y-111102000D01*
X178929313Y-110935177D01*
X178977976Y-110774758D01*
X179056995Y-110626924D01*
X179056996Y-110626922D01*
X179163341Y-110497341D01*
X179292922Y-110390996D01*
X179371078Y-110349221D01*
X179440758Y-110311976D01*
X179601177Y-110263313D01*
X179726196Y-110251000D01*
X179809804Y-110251000D01*
X179934823Y-110263313D01*
X179934823Y-110263313D01*
G37*
G36*
X152756823Y-110263313D02*
G01*
X152917242Y-110311976D01*
X152986922Y-110349221D01*
X153065078Y-110390996D01*
X153194659Y-110497341D01*
X153301004Y-110626922D01*
X153301005Y-110626924D01*
X153380024Y-110774758D01*
X153428687Y-110935177D01*
X153445117Y-111102000D01*
X153428687Y-111268823D01*
X153380024Y-111429242D01*
X153369747Y-111448468D01*
X153301004Y-111577078D01*
X153194659Y-111706659D01*
X153065078Y-111813004D01*
X153065076Y-111813005D01*
X152917242Y-111892024D01*
X152756823Y-111940687D01*
X152631804Y-111953000D01*
X152548196Y-111953000D01*
X152423177Y-111940687D01*
X152262758Y-111892024D01*
X152114924Y-111813005D01*
X152114922Y-111813004D01*
X151985341Y-111706659D01*
X151878996Y-111577078D01*
X151810253Y-111448468D01*
X151799976Y-111429242D01*
X151751313Y-111268823D01*
X151734883Y-111102000D01*
X151751313Y-110935177D01*
X151799976Y-110774758D01*
X151878995Y-110626924D01*
X151878996Y-110626922D01*
X151985341Y-110497341D01*
X152114922Y-110390996D01*
X152193078Y-110349221D01*
X152262758Y-110311976D01*
X152423177Y-110263313D01*
X152548196Y-110251000D01*
X152631804Y-110251000D01*
X152756823Y-110263313D01*
X152756823Y-110263313D01*
G37*
G36*
X140056823Y-110263313D02*
G01*
X140217242Y-110311976D01*
X140286922Y-110349221D01*
X140365078Y-110390996D01*
X140494659Y-110497341D01*
X140601004Y-110626922D01*
X140601005Y-110626924D01*
X140680024Y-110774758D01*
X140728687Y-110935177D01*
X140745117Y-111102000D01*
X140728687Y-111268823D01*
X140680024Y-111429242D01*
X140669747Y-111448468D01*
X140601004Y-111577078D01*
X140494659Y-111706659D01*
X140365078Y-111813004D01*
X140365076Y-111813005D01*
X140217242Y-111892024D01*
X140056823Y-111940687D01*
X139931804Y-111953000D01*
X139848196Y-111953000D01*
X139723177Y-111940687D01*
X139562758Y-111892024D01*
X139414924Y-111813005D01*
X139414922Y-111813004D01*
X139285341Y-111706659D01*
X139178996Y-111577078D01*
X139110253Y-111448468D01*
X139099976Y-111429242D01*
X139051313Y-111268823D01*
X139034883Y-111102000D01*
X139051313Y-110935177D01*
X139099976Y-110774758D01*
X139178995Y-110626924D01*
X139178996Y-110626922D01*
X139285341Y-110497341D01*
X139414922Y-110390996D01*
X139493078Y-110349221D01*
X139562758Y-110311976D01*
X139723177Y-110263313D01*
X139848196Y-110251000D01*
X139931804Y-110251000D01*
X140056823Y-110263313D01*
X140056823Y-110263313D01*
G37*
G36*
X192634823Y-110263313D02*
G01*
X192795242Y-110311976D01*
X192864922Y-110349221D01*
X192943078Y-110390996D01*
X193072659Y-110497341D01*
X193179004Y-110626922D01*
X193179005Y-110626924D01*
X193258024Y-110774758D01*
X193306687Y-110935177D01*
X193323117Y-111102000D01*
X193306687Y-111268823D01*
X193258024Y-111429242D01*
X193247747Y-111448468D01*
X193179004Y-111577078D01*
X193072659Y-111706659D01*
X192943078Y-111813004D01*
X192943076Y-111813005D01*
X192795242Y-111892024D01*
X192634823Y-111940687D01*
X192509804Y-111953000D01*
X192426196Y-111953000D01*
X192301177Y-111940687D01*
X192140758Y-111892024D01*
X191992924Y-111813005D01*
X191992922Y-111813004D01*
X191863341Y-111706659D01*
X191756996Y-111577078D01*
X191688253Y-111448468D01*
X191677976Y-111429242D01*
X191629313Y-111268823D01*
X191612883Y-111102000D01*
X191629313Y-110935177D01*
X191677976Y-110774758D01*
X191756995Y-110626924D01*
X191756996Y-110626922D01*
X191863341Y-110497341D01*
X191992922Y-110390996D01*
X192071078Y-110349221D01*
X192140758Y-110311976D01*
X192301177Y-110263313D01*
X192426196Y-110251000D01*
X192509804Y-110251000D01*
X192634823Y-110263313D01*
X192634823Y-110263313D01*
G37*
G36*
X152756823Y-107723313D02*
G01*
X152917242Y-107771976D01*
X153049906Y-107842886D01*
X153065078Y-107850996D01*
X153194659Y-107957341D01*
X153301004Y-108086922D01*
X153301005Y-108086924D01*
X153380024Y-108234758D01*
X153428687Y-108395177D01*
X153445117Y-108562000D01*
X153428687Y-108728823D01*
X153380024Y-108889242D01*
X153322231Y-108997365D01*
X153301004Y-109037078D01*
X153194659Y-109166659D01*
X153065078Y-109273004D01*
X153065076Y-109273005D01*
X152917242Y-109352024D01*
X152756823Y-109400687D01*
X152631804Y-109413000D01*
X152548196Y-109413000D01*
X152423177Y-109400687D01*
X152262758Y-109352024D01*
X152114924Y-109273005D01*
X152114922Y-109273004D01*
X151985341Y-109166659D01*
X151878996Y-109037078D01*
X151857769Y-108997365D01*
X151799976Y-108889242D01*
X151751313Y-108728823D01*
X151734883Y-108562000D01*
X151751313Y-108395177D01*
X151799976Y-108234758D01*
X151878995Y-108086924D01*
X151878996Y-108086922D01*
X151985341Y-107957341D01*
X152114922Y-107850996D01*
X152130094Y-107842886D01*
X152262758Y-107771976D01*
X152423177Y-107723313D01*
X152548196Y-107711000D01*
X152631804Y-107711000D01*
X152756823Y-107723313D01*
X152756823Y-107723313D01*
G37*
G36*
X179934823Y-107723313D02*
G01*
X180095242Y-107771976D01*
X180227906Y-107842886D01*
X180243078Y-107850996D01*
X180372659Y-107957341D01*
X180479004Y-108086922D01*
X180479005Y-108086924D01*
X180558024Y-108234758D01*
X180606687Y-108395177D01*
X180623117Y-108562000D01*
X180606687Y-108728823D01*
X180558024Y-108889242D01*
X180500231Y-108997365D01*
X180479004Y-109037078D01*
X180372659Y-109166659D01*
X180243078Y-109273004D01*
X180243076Y-109273005D01*
X180095242Y-109352024D01*
X179934823Y-109400687D01*
X179809804Y-109413000D01*
X179726196Y-109413000D01*
X179601177Y-109400687D01*
X179440758Y-109352024D01*
X179292924Y-109273005D01*
X179292922Y-109273004D01*
X179163341Y-109166659D01*
X179056996Y-109037078D01*
X179035769Y-108997365D01*
X178977976Y-108889242D01*
X178929313Y-108728823D01*
X178912883Y-108562000D01*
X178929313Y-108395177D01*
X178977976Y-108234758D01*
X179056995Y-108086924D01*
X179056996Y-108086922D01*
X179163341Y-107957341D01*
X179292922Y-107850996D01*
X179308094Y-107842886D01*
X179440758Y-107771976D01*
X179601177Y-107723313D01*
X179726196Y-107711000D01*
X179809804Y-107711000D01*
X179934823Y-107723313D01*
X179934823Y-107723313D01*
G37*
G36*
X140056823Y-107723313D02*
G01*
X140217242Y-107771976D01*
X140349906Y-107842886D01*
X140365078Y-107850996D01*
X140494659Y-107957341D01*
X140601004Y-108086922D01*
X140601005Y-108086924D01*
X140680024Y-108234758D01*
X140728687Y-108395177D01*
X140745117Y-108562000D01*
X140728687Y-108728823D01*
X140680024Y-108889242D01*
X140622231Y-108997365D01*
X140601004Y-109037078D01*
X140494659Y-109166659D01*
X140365078Y-109273004D01*
X140365076Y-109273005D01*
X140217242Y-109352024D01*
X140056823Y-109400687D01*
X139931804Y-109413000D01*
X139848196Y-109413000D01*
X139723177Y-109400687D01*
X139562758Y-109352024D01*
X139414924Y-109273005D01*
X139414922Y-109273004D01*
X139285341Y-109166659D01*
X139178996Y-109037078D01*
X139157769Y-108997365D01*
X139099976Y-108889242D01*
X139051313Y-108728823D01*
X139034883Y-108562000D01*
X139051313Y-108395177D01*
X139099976Y-108234758D01*
X139178995Y-108086924D01*
X139178996Y-108086922D01*
X139285341Y-107957341D01*
X139414922Y-107850996D01*
X139430094Y-107842886D01*
X139562758Y-107771976D01*
X139723177Y-107723313D01*
X139848196Y-107711000D01*
X139931804Y-107711000D01*
X140056823Y-107723313D01*
X140056823Y-107723313D01*
G37*
G36*
X192634823Y-107723313D02*
G01*
X192795242Y-107771976D01*
X192927906Y-107842886D01*
X192943078Y-107850996D01*
X193072659Y-107957341D01*
X193179004Y-108086922D01*
X193179005Y-108086924D01*
X193258024Y-108234758D01*
X193306687Y-108395177D01*
X193323117Y-108562000D01*
X193306687Y-108728823D01*
X193258024Y-108889242D01*
X193200231Y-108997365D01*
X193179004Y-109037078D01*
X193072659Y-109166659D01*
X192943078Y-109273004D01*
X192943076Y-109273005D01*
X192795242Y-109352024D01*
X192634823Y-109400687D01*
X192509804Y-109413000D01*
X192426196Y-109413000D01*
X192301177Y-109400687D01*
X192140758Y-109352024D01*
X191992924Y-109273005D01*
X191992922Y-109273004D01*
X191863341Y-109166659D01*
X191756996Y-109037078D01*
X191735769Y-108997365D01*
X191677976Y-108889242D01*
X191629313Y-108728823D01*
X191612883Y-108562000D01*
X191629313Y-108395177D01*
X191677976Y-108234758D01*
X191756995Y-108086924D01*
X191756996Y-108086922D01*
X191863341Y-107957341D01*
X191992922Y-107850996D01*
X192008094Y-107842886D01*
X192140758Y-107771976D01*
X192301177Y-107723313D01*
X192426196Y-107711000D01*
X192509804Y-107711000D01*
X192634823Y-107723313D01*
X192634823Y-107723313D01*
G37*
G36*
X157595564Y-107170389D02*
G01*
X157786833Y-107249615D01*
X157786835Y-107249616D01*
X157958973Y-107364635D01*
X158105365Y-107511027D01*
X158220385Y-107683167D01*
X158299611Y-107874436D01*
X158340000Y-108077484D01*
X158340000Y-108284516D01*
X158299611Y-108487564D01*
X158220385Y-108678833D01*
X158220384Y-108678835D01*
X158105365Y-108850973D01*
X157958973Y-108997365D01*
X157786835Y-109112384D01*
X157786834Y-109112385D01*
X157786833Y-109112385D01*
X157595564Y-109191611D01*
X157392516Y-109232000D01*
X157185484Y-109232000D01*
X156982436Y-109191611D01*
X156791167Y-109112385D01*
X156791166Y-109112385D01*
X156791165Y-109112384D01*
X156619027Y-108997365D01*
X156472635Y-108850973D01*
X156357616Y-108678835D01*
X156357615Y-108678833D01*
X156278389Y-108487564D01*
X156238000Y-108284516D01*
X156238000Y-108077484D01*
X156278389Y-107874436D01*
X156357615Y-107683167D01*
X156472635Y-107511027D01*
X156619027Y-107364635D01*
X156791165Y-107249616D01*
X156791167Y-107249615D01*
X156982436Y-107170389D01*
X157185484Y-107130000D01*
X157392516Y-107130000D01*
X157595564Y-107170389D01*
X157595564Y-107170389D01*
G37*
G36*
X200171000Y-107064000D02*
G01*
X196069000Y-107064000D01*
X196069000Y-104962000D01*
X200171000Y-104962000D01*
X200171000Y-107064000D01*
X200171000Y-107064000D01*
G37*
G36*
X140741000Y-106873000D02*
G01*
X139039000Y-106873000D01*
X139039000Y-105171000D01*
X140741000Y-105171000D01*
X140741000Y-106873000D01*
X140741000Y-106873000D01*
G37*
G36*
X179934823Y-105183313D02*
G01*
X180095242Y-105231976D01*
X180227906Y-105302886D01*
X180243078Y-105310996D01*
X180372659Y-105417341D01*
X180479004Y-105546922D01*
X180479005Y-105546924D01*
X180558024Y-105694758D01*
X180606687Y-105855177D01*
X180623117Y-106022000D01*
X180606687Y-106188823D01*
X180558024Y-106349242D01*
X180487114Y-106481906D01*
X180479004Y-106497078D01*
X180372659Y-106626659D01*
X180243078Y-106733004D01*
X180243076Y-106733005D01*
X180095242Y-106812024D01*
X179934823Y-106860687D01*
X179809804Y-106873000D01*
X179726196Y-106873000D01*
X179601177Y-106860687D01*
X179440758Y-106812024D01*
X179292924Y-106733005D01*
X179292922Y-106733004D01*
X179163341Y-106626659D01*
X179056996Y-106497078D01*
X179048886Y-106481906D01*
X178977976Y-106349242D01*
X178929313Y-106188823D01*
X178912883Y-106022000D01*
X178929313Y-105855177D01*
X178977976Y-105694758D01*
X179056995Y-105546924D01*
X179056996Y-105546922D01*
X179163341Y-105417341D01*
X179292922Y-105310996D01*
X179308094Y-105302886D01*
X179440758Y-105231976D01*
X179601177Y-105183313D01*
X179726196Y-105171000D01*
X179809804Y-105171000D01*
X179934823Y-105183313D01*
X179934823Y-105183313D01*
G37*
G36*
X152756823Y-105183313D02*
G01*
X152917242Y-105231976D01*
X153049906Y-105302886D01*
X153065078Y-105310996D01*
X153194659Y-105417341D01*
X153301004Y-105546922D01*
X153301005Y-105546924D01*
X153380024Y-105694758D01*
X153428687Y-105855177D01*
X153445117Y-106022000D01*
X153428687Y-106188823D01*
X153380024Y-106349242D01*
X153309114Y-106481906D01*
X153301004Y-106497078D01*
X153194659Y-106626659D01*
X153065078Y-106733004D01*
X153065076Y-106733005D01*
X152917242Y-106812024D01*
X152756823Y-106860687D01*
X152631804Y-106873000D01*
X152548196Y-106873000D01*
X152423177Y-106860687D01*
X152262758Y-106812024D01*
X152114924Y-106733005D01*
X152114922Y-106733004D01*
X151985341Y-106626659D01*
X151878996Y-106497078D01*
X151870886Y-106481906D01*
X151799976Y-106349242D01*
X151751313Y-106188823D01*
X151734883Y-106022000D01*
X151751313Y-105855177D01*
X151799976Y-105694758D01*
X151878995Y-105546924D01*
X151878996Y-105546922D01*
X151985341Y-105417341D01*
X152114922Y-105310996D01*
X152130094Y-105302886D01*
X152262758Y-105231976D01*
X152423177Y-105183313D01*
X152548196Y-105171000D01*
X152631804Y-105171000D01*
X152756823Y-105183313D01*
X152756823Y-105183313D01*
G37*
G36*
X192634823Y-105183313D02*
G01*
X192795242Y-105231976D01*
X192927906Y-105302886D01*
X192943078Y-105310996D01*
X193072659Y-105417341D01*
X193179004Y-105546922D01*
X193179005Y-105546924D01*
X193258024Y-105694758D01*
X193306687Y-105855177D01*
X193323117Y-106022000D01*
X193306687Y-106188823D01*
X193258024Y-106349242D01*
X193187114Y-106481906D01*
X193179004Y-106497078D01*
X193072659Y-106626659D01*
X192943078Y-106733004D01*
X192943076Y-106733005D01*
X192795242Y-106812024D01*
X192634823Y-106860687D01*
X192509804Y-106873000D01*
X192426196Y-106873000D01*
X192301177Y-106860687D01*
X192140758Y-106812024D01*
X191992924Y-106733005D01*
X191992922Y-106733004D01*
X191863341Y-106626659D01*
X191756996Y-106497078D01*
X191748886Y-106481906D01*
X191677976Y-106349242D01*
X191629313Y-106188823D01*
X191612883Y-106022000D01*
X191629313Y-105855177D01*
X191677976Y-105694758D01*
X191756995Y-105546924D01*
X191756996Y-105546922D01*
X191863341Y-105417341D01*
X191992922Y-105310996D01*
X192008094Y-105302886D01*
X192140758Y-105231976D01*
X192301177Y-105183313D01*
X192426196Y-105171000D01*
X192509804Y-105171000D01*
X192634823Y-105183313D01*
X192634823Y-105183313D01*
G37*
G36*
X200171000Y-103064000D02*
G01*
X196069000Y-103064000D01*
X196069000Y-100962000D01*
X200171000Y-100962000D01*
X200171000Y-103064000D01*
X200171000Y-103064000D01*
G37*
G36*
X135909000Y-92840000D02*
G01*
X131807000Y-92840000D01*
X131807000Y-90738000D01*
X135909000Y-90738000D01*
X135909000Y-92840000D01*
X135909000Y-92840000D01*
G37*
G36*
X157341564Y-87866389D02*
G01*
X157532833Y-87945615D01*
X157532835Y-87945616D01*
X157704973Y-88060635D01*
X157851365Y-88207027D01*
X157939319Y-88338659D01*
X157966385Y-88379167D01*
X158045611Y-88570436D01*
X158086000Y-88773484D01*
X158086000Y-88980516D01*
X158045611Y-89183564D01*
X157966385Y-89374833D01*
X157966384Y-89374835D01*
X157851365Y-89546973D01*
X157704973Y-89693365D01*
X157532835Y-89808384D01*
X157532834Y-89808385D01*
X157532833Y-89808385D01*
X157341564Y-89887611D01*
X157138516Y-89928000D01*
X156931484Y-89928000D01*
X156728436Y-89887611D01*
X156537167Y-89808385D01*
X156537166Y-89808385D01*
X156537165Y-89808384D01*
X156365027Y-89693365D01*
X156218635Y-89546973D01*
X156103616Y-89374835D01*
X156103615Y-89374833D01*
X156024389Y-89183564D01*
X155984000Y-88980516D01*
X155984000Y-88773484D01*
X156024389Y-88570436D01*
X156103615Y-88379167D01*
X156130682Y-88338659D01*
X156218635Y-88207027D01*
X156365027Y-88060635D01*
X156537165Y-87945616D01*
X156537167Y-87945615D01*
X156728436Y-87866389D01*
X156931484Y-87826000D01*
X157138516Y-87826000D01*
X157341564Y-87866389D01*
X157341564Y-87866389D01*
G37*
G36*
X135909000Y-88840000D02*
G01*
X131807000Y-88840000D01*
X131807000Y-86738000D01*
X135909000Y-86738000D01*
X135909000Y-88840000D01*
X135909000Y-88840000D01*
G37*
G36*
X160389564Y-86596389D02*
G01*
X160580833Y-86675615D01*
X160580835Y-86675616D01*
X160752973Y-86790635D01*
X160899365Y-86937027D01*
X160904008Y-86943975D01*
X161014385Y-87109167D01*
X161093611Y-87300436D01*
X161134000Y-87503484D01*
X161134000Y-87710516D01*
X161093611Y-87913564D01*
X161032692Y-88060635D01*
X161014384Y-88104835D01*
X160899365Y-88276973D01*
X160752973Y-88423365D01*
X160580835Y-88538384D01*
X160580834Y-88538385D01*
X160580833Y-88538385D01*
X160389564Y-88617611D01*
X160186516Y-88658000D01*
X159979484Y-88658000D01*
X159776436Y-88617611D01*
X159585167Y-88538385D01*
X159585166Y-88538385D01*
X159585165Y-88538384D01*
X159413027Y-88423365D01*
X159266635Y-88276973D01*
X159151616Y-88104835D01*
X159133308Y-88060635D01*
X159072389Y-87913564D01*
X159032000Y-87710516D01*
X159032000Y-87503484D01*
X159072389Y-87300436D01*
X159151615Y-87109167D01*
X159261993Y-86943975D01*
X159266635Y-86937027D01*
X159413027Y-86790635D01*
X159585165Y-86675616D01*
X159585167Y-86675615D01*
X159776436Y-86596389D01*
X159979484Y-86556000D01*
X160186516Y-86556000D01*
X160389564Y-86596389D01*
X160389564Y-86596389D01*
G37*
G36*
X179426823Y-86895313D02*
G01*
X179587242Y-86943976D01*
X179719906Y-87014886D01*
X179735078Y-87022996D01*
X179864659Y-87129341D01*
X179971004Y-87258922D01*
X179971005Y-87258924D01*
X180050024Y-87406758D01*
X180098687Y-87567177D01*
X180115117Y-87734000D01*
X180098687Y-87900823D01*
X180050024Y-88061242D01*
X180026724Y-88104833D01*
X179971004Y-88209078D01*
X179864659Y-88338659D01*
X179735078Y-88445004D01*
X179735076Y-88445005D01*
X179587242Y-88524024D01*
X179426823Y-88572687D01*
X179301804Y-88585000D01*
X179218196Y-88585000D01*
X179093177Y-88572687D01*
X178932758Y-88524024D01*
X178784924Y-88445005D01*
X178784922Y-88445004D01*
X178655341Y-88338659D01*
X178548996Y-88209078D01*
X178493276Y-88104833D01*
X178469976Y-88061242D01*
X178421313Y-87900823D01*
X178404883Y-87734000D01*
X178421313Y-87567177D01*
X178469976Y-87406758D01*
X178548995Y-87258924D01*
X178548996Y-87258922D01*
X178655341Y-87129341D01*
X178784922Y-87022996D01*
X178800094Y-87014886D01*
X178932758Y-86943976D01*
X179093177Y-86895313D01*
X179218196Y-86883000D01*
X179301804Y-86883000D01*
X179426823Y-86895313D01*
X179426823Y-86895313D01*
G37*
G36*
X192811000Y-88585000D02*
G01*
X191109000Y-88585000D01*
X191109000Y-86883000D01*
X192811000Y-86883000D01*
X192811000Y-88585000D01*
X192811000Y-88585000D01*
G37*
G36*
X139548823Y-86895313D02*
G01*
X139709242Y-86943976D01*
X139841906Y-87014886D01*
X139857078Y-87022996D01*
X139986659Y-87129341D01*
X140093004Y-87258922D01*
X140093005Y-87258924D01*
X140172024Y-87406758D01*
X140220687Y-87567177D01*
X140237117Y-87734000D01*
X140220687Y-87900823D01*
X140172024Y-88061242D01*
X140148724Y-88104833D01*
X140093004Y-88209078D01*
X139986659Y-88338659D01*
X139857078Y-88445004D01*
X139857076Y-88445005D01*
X139709242Y-88524024D01*
X139548823Y-88572687D01*
X139423804Y-88585000D01*
X139340196Y-88585000D01*
X139215177Y-88572687D01*
X139054758Y-88524024D01*
X138906924Y-88445005D01*
X138906922Y-88445004D01*
X138777341Y-88338659D01*
X138670996Y-88209078D01*
X138615276Y-88104833D01*
X138591976Y-88061242D01*
X138543313Y-87900823D01*
X138526883Y-87734000D01*
X138543313Y-87567177D01*
X138591976Y-87406758D01*
X138670995Y-87258924D01*
X138670996Y-87258922D01*
X138777341Y-87129341D01*
X138906922Y-87022996D01*
X138922094Y-87014886D01*
X139054758Y-86943976D01*
X139215177Y-86895313D01*
X139340196Y-86883000D01*
X139423804Y-86883000D01*
X139548823Y-86895313D01*
X139548823Y-86895313D01*
G37*
G36*
X152248823Y-86895313D02*
G01*
X152409242Y-86943976D01*
X152541906Y-87014886D01*
X152557078Y-87022996D01*
X152686659Y-87129341D01*
X152793004Y-87258922D01*
X152793005Y-87258924D01*
X152872024Y-87406758D01*
X152920687Y-87567177D01*
X152937117Y-87734000D01*
X152920687Y-87900823D01*
X152872024Y-88061242D01*
X152848724Y-88104833D01*
X152793004Y-88209078D01*
X152686659Y-88338659D01*
X152557078Y-88445004D01*
X152557076Y-88445005D01*
X152409242Y-88524024D01*
X152248823Y-88572687D01*
X152123804Y-88585000D01*
X152040196Y-88585000D01*
X151915177Y-88572687D01*
X151754758Y-88524024D01*
X151606924Y-88445005D01*
X151606922Y-88445004D01*
X151477341Y-88338659D01*
X151370996Y-88209078D01*
X151315276Y-88104833D01*
X151291976Y-88061242D01*
X151243313Y-87900823D01*
X151226883Y-87734000D01*
X151243313Y-87567177D01*
X151291976Y-87406758D01*
X151370995Y-87258924D01*
X151370996Y-87258922D01*
X151477341Y-87129341D01*
X151606922Y-87022996D01*
X151622094Y-87014886D01*
X151754758Y-86943976D01*
X151915177Y-86895313D01*
X152040196Y-86883000D01*
X152123804Y-86883000D01*
X152248823Y-86895313D01*
X152248823Y-86895313D01*
G37*
G36*
X152248823Y-84355313D02*
G01*
X152409242Y-84403976D01*
X152541906Y-84474886D01*
X152557078Y-84482996D01*
X152686659Y-84589341D01*
X152793004Y-84718922D01*
X152793005Y-84718924D01*
X152872024Y-84866758D01*
X152920687Y-85027177D01*
X152937117Y-85194000D01*
X152920687Y-85360823D01*
X152872024Y-85521242D01*
X152801114Y-85653906D01*
X152793004Y-85669078D01*
X152686659Y-85798659D01*
X152557078Y-85905004D01*
X152557076Y-85905005D01*
X152409242Y-85984024D01*
X152248823Y-86032687D01*
X152123804Y-86045000D01*
X152040196Y-86045000D01*
X151915177Y-86032687D01*
X151754758Y-85984024D01*
X151606924Y-85905005D01*
X151606922Y-85905004D01*
X151477341Y-85798659D01*
X151370996Y-85669078D01*
X151362886Y-85653906D01*
X151291976Y-85521242D01*
X151243313Y-85360823D01*
X151226883Y-85194000D01*
X151243313Y-85027177D01*
X151291976Y-84866758D01*
X151370995Y-84718924D01*
X151370996Y-84718922D01*
X151477341Y-84589341D01*
X151606922Y-84482996D01*
X151622094Y-84474886D01*
X151754758Y-84403976D01*
X151915177Y-84355313D01*
X152040196Y-84343000D01*
X152123804Y-84343000D01*
X152248823Y-84355313D01*
X152248823Y-84355313D01*
G37*
G36*
X139548823Y-84355313D02*
G01*
X139709242Y-84403976D01*
X139841906Y-84474886D01*
X139857078Y-84482996D01*
X139986659Y-84589341D01*
X140093004Y-84718922D01*
X140093005Y-84718924D01*
X140172024Y-84866758D01*
X140220687Y-85027177D01*
X140237117Y-85194000D01*
X140220687Y-85360823D01*
X140172024Y-85521242D01*
X140101114Y-85653906D01*
X140093004Y-85669078D01*
X139986659Y-85798659D01*
X139857078Y-85905004D01*
X139857076Y-85905005D01*
X139709242Y-85984024D01*
X139548823Y-86032687D01*
X139423804Y-86045000D01*
X139340196Y-86045000D01*
X139215177Y-86032687D01*
X139054758Y-85984024D01*
X138906924Y-85905005D01*
X138906922Y-85905004D01*
X138777341Y-85798659D01*
X138670996Y-85669078D01*
X138662886Y-85653906D01*
X138591976Y-85521242D01*
X138543313Y-85360823D01*
X138526883Y-85194000D01*
X138543313Y-85027177D01*
X138591976Y-84866758D01*
X138670995Y-84718924D01*
X138670996Y-84718922D01*
X138777341Y-84589341D01*
X138906922Y-84482996D01*
X138922094Y-84474886D01*
X139054758Y-84403976D01*
X139215177Y-84355313D01*
X139340196Y-84343000D01*
X139423804Y-84343000D01*
X139548823Y-84355313D01*
X139548823Y-84355313D01*
G37*
G36*
X192126823Y-84355313D02*
G01*
X192287242Y-84403976D01*
X192419906Y-84474886D01*
X192435078Y-84482996D01*
X192564659Y-84589341D01*
X192671004Y-84718922D01*
X192671005Y-84718924D01*
X192750024Y-84866758D01*
X192798687Y-85027177D01*
X192815117Y-85194000D01*
X192798687Y-85360823D01*
X192750024Y-85521242D01*
X192679114Y-85653906D01*
X192671004Y-85669078D01*
X192564659Y-85798659D01*
X192435078Y-85905004D01*
X192435076Y-85905005D01*
X192287242Y-85984024D01*
X192126823Y-86032687D01*
X192001804Y-86045000D01*
X191918196Y-86045000D01*
X191793177Y-86032687D01*
X191632758Y-85984024D01*
X191484924Y-85905005D01*
X191484922Y-85905004D01*
X191355341Y-85798659D01*
X191248996Y-85669078D01*
X191240886Y-85653906D01*
X191169976Y-85521242D01*
X191121313Y-85360823D01*
X191104883Y-85194000D01*
X191121313Y-85027177D01*
X191169976Y-84866758D01*
X191248995Y-84718924D01*
X191248996Y-84718922D01*
X191355341Y-84589341D01*
X191484922Y-84482996D01*
X191500094Y-84474886D01*
X191632758Y-84403976D01*
X191793177Y-84355313D01*
X191918196Y-84343000D01*
X192001804Y-84343000D01*
X192126823Y-84355313D01*
X192126823Y-84355313D01*
G37*
G36*
X179426823Y-84355313D02*
G01*
X179587242Y-84403976D01*
X179719906Y-84474886D01*
X179735078Y-84482996D01*
X179864659Y-84589341D01*
X179971004Y-84718922D01*
X179971005Y-84718924D01*
X180050024Y-84866758D01*
X180098687Y-85027177D01*
X180115117Y-85194000D01*
X180098687Y-85360823D01*
X180050024Y-85521242D01*
X179979114Y-85653906D01*
X179971004Y-85669078D01*
X179864659Y-85798659D01*
X179735078Y-85905004D01*
X179735076Y-85905005D01*
X179587242Y-85984024D01*
X179426823Y-86032687D01*
X179301804Y-86045000D01*
X179218196Y-86045000D01*
X179093177Y-86032687D01*
X178932758Y-85984024D01*
X178784924Y-85905005D01*
X178784922Y-85905004D01*
X178655341Y-85798659D01*
X178548996Y-85669078D01*
X178540886Y-85653906D01*
X178469976Y-85521242D01*
X178421313Y-85360823D01*
X178404883Y-85194000D01*
X178421313Y-85027177D01*
X178469976Y-84866758D01*
X178548995Y-84718924D01*
X178548996Y-84718922D01*
X178655341Y-84589341D01*
X178784922Y-84482996D01*
X178800094Y-84474886D01*
X178932758Y-84403976D01*
X179093177Y-84355313D01*
X179218196Y-84343000D01*
X179301804Y-84343000D01*
X179426823Y-84355313D01*
X179426823Y-84355313D01*
G37*
G36*
X133206442Y-81759518D02*
G01*
X133272627Y-81766037D01*
X133442466Y-81817557D01*
X133598991Y-81901222D01*
X133634729Y-81930552D01*
X133736186Y-82013814D01*
X133819448Y-82115271D01*
X133848778Y-82151009D01*
X133932443Y-82307534D01*
X133983963Y-82477373D01*
X134001359Y-82654000D01*
X133983963Y-82830627D01*
X133932443Y-83000466D01*
X133848778Y-83156991D01*
X133819448Y-83192729D01*
X133736186Y-83294186D01*
X133634729Y-83377448D01*
X133598991Y-83406778D01*
X133442466Y-83490443D01*
X133272627Y-83541963D01*
X133206443Y-83548481D01*
X133140260Y-83555000D01*
X133051740Y-83555000D01*
X132985557Y-83548481D01*
X132919373Y-83541963D01*
X132749534Y-83490443D01*
X132593009Y-83406778D01*
X132557271Y-83377448D01*
X132455814Y-83294186D01*
X132372552Y-83192729D01*
X132343222Y-83156991D01*
X132259557Y-83000466D01*
X132208037Y-82830627D01*
X132190641Y-82654000D01*
X132208037Y-82477373D01*
X132259557Y-82307534D01*
X132343222Y-82151009D01*
X132372552Y-82115271D01*
X132455814Y-82013814D01*
X132557271Y-81930552D01*
X132593009Y-81901222D01*
X132749534Y-81817557D01*
X132919373Y-81766037D01*
X132985558Y-81759518D01*
X133051740Y-81753000D01*
X133140260Y-81753000D01*
X133206442Y-81759518D01*
X133206442Y-81759518D01*
G37*
G36*
X199656000Y-83555000D02*
G01*
X197854000Y-83555000D01*
X197854000Y-81753000D01*
X199656000Y-81753000D01*
X199656000Y-83555000D01*
X199656000Y-83555000D01*
G37*
G36*
X152248823Y-81815313D02*
G01*
X152409242Y-81863976D01*
X152478922Y-81901221D01*
X152557078Y-81942996D01*
X152686659Y-82049341D01*
X152793004Y-82178922D01*
X152793005Y-82178924D01*
X152872024Y-82326758D01*
X152920687Y-82487177D01*
X152937117Y-82654000D01*
X152920687Y-82820823D01*
X152872024Y-82981242D01*
X152861747Y-83000468D01*
X152793004Y-83129078D01*
X152686659Y-83258659D01*
X152557078Y-83365004D01*
X152557076Y-83365005D01*
X152409242Y-83444024D01*
X152248823Y-83492687D01*
X152123804Y-83505000D01*
X152040196Y-83505000D01*
X151915177Y-83492687D01*
X151754758Y-83444024D01*
X151606924Y-83365005D01*
X151606922Y-83365004D01*
X151477341Y-83258659D01*
X151370996Y-83129078D01*
X151302253Y-83000468D01*
X151291976Y-82981242D01*
X151243313Y-82820823D01*
X151226883Y-82654000D01*
X151243313Y-82487177D01*
X151291976Y-82326758D01*
X151370995Y-82178924D01*
X151370996Y-82178922D01*
X151477341Y-82049341D01*
X151606922Y-81942996D01*
X151685078Y-81901221D01*
X151754758Y-81863976D01*
X151915177Y-81815313D01*
X152040196Y-81803000D01*
X152123804Y-81803000D01*
X152248823Y-81815313D01*
X152248823Y-81815313D01*
G37*
G36*
X192126823Y-81815313D02*
G01*
X192287242Y-81863976D01*
X192356922Y-81901221D01*
X192435078Y-81942996D01*
X192564659Y-82049341D01*
X192671004Y-82178922D01*
X192671005Y-82178924D01*
X192750024Y-82326758D01*
X192798687Y-82487177D01*
X192815117Y-82654000D01*
X192798687Y-82820823D01*
X192750024Y-82981242D01*
X192739747Y-83000468D01*
X192671004Y-83129078D01*
X192564659Y-83258659D01*
X192435078Y-83365004D01*
X192435076Y-83365005D01*
X192287242Y-83444024D01*
X192126823Y-83492687D01*
X192001804Y-83505000D01*
X191918196Y-83505000D01*
X191793177Y-83492687D01*
X191632758Y-83444024D01*
X191484924Y-83365005D01*
X191484922Y-83365004D01*
X191355341Y-83258659D01*
X191248996Y-83129078D01*
X191180253Y-83000468D01*
X191169976Y-82981242D01*
X191121313Y-82820823D01*
X191104883Y-82654000D01*
X191121313Y-82487177D01*
X191169976Y-82326758D01*
X191248995Y-82178924D01*
X191248996Y-82178922D01*
X191355341Y-82049341D01*
X191484922Y-81942996D01*
X191563078Y-81901221D01*
X191632758Y-81863976D01*
X191793177Y-81815313D01*
X191918196Y-81803000D01*
X192001804Y-81803000D01*
X192126823Y-81815313D01*
X192126823Y-81815313D01*
G37*
G36*
X139548823Y-81815313D02*
G01*
X139709242Y-81863976D01*
X139778922Y-81901221D01*
X139857078Y-81942996D01*
X139986659Y-82049341D01*
X140093004Y-82178922D01*
X140093005Y-82178924D01*
X140172024Y-82326758D01*
X140220687Y-82487177D01*
X140237117Y-82654000D01*
X140220687Y-82820823D01*
X140172024Y-82981242D01*
X140161747Y-83000468D01*
X140093004Y-83129078D01*
X139986659Y-83258659D01*
X139857078Y-83365004D01*
X139857076Y-83365005D01*
X139709242Y-83444024D01*
X139548823Y-83492687D01*
X139423804Y-83505000D01*
X139340196Y-83505000D01*
X139215177Y-83492687D01*
X139054758Y-83444024D01*
X138906924Y-83365005D01*
X138906922Y-83365004D01*
X138777341Y-83258659D01*
X138670996Y-83129078D01*
X138602253Y-83000468D01*
X138591976Y-82981242D01*
X138543313Y-82820823D01*
X138526883Y-82654000D01*
X138543313Y-82487177D01*
X138591976Y-82326758D01*
X138670995Y-82178924D01*
X138670996Y-82178922D01*
X138777341Y-82049341D01*
X138906922Y-81942996D01*
X138985078Y-81901221D01*
X139054758Y-81863976D01*
X139215177Y-81815313D01*
X139340196Y-81803000D01*
X139423804Y-81803000D01*
X139548823Y-81815313D01*
X139548823Y-81815313D01*
G37*
G36*
X179426823Y-81815313D02*
G01*
X179587242Y-81863976D01*
X179656922Y-81901221D01*
X179735078Y-81942996D01*
X179864659Y-82049341D01*
X179971004Y-82178922D01*
X179971005Y-82178924D01*
X180050024Y-82326758D01*
X180098687Y-82487177D01*
X180115117Y-82654000D01*
X180098687Y-82820823D01*
X180050024Y-82981242D01*
X180039747Y-83000468D01*
X179971004Y-83129078D01*
X179864659Y-83258659D01*
X179735078Y-83365004D01*
X179735076Y-83365005D01*
X179587242Y-83444024D01*
X179426823Y-83492687D01*
X179301804Y-83505000D01*
X179218196Y-83505000D01*
X179093177Y-83492687D01*
X178932758Y-83444024D01*
X178784924Y-83365005D01*
X178784922Y-83365004D01*
X178655341Y-83258659D01*
X178548996Y-83129078D01*
X178480253Y-83000468D01*
X178469976Y-82981242D01*
X178421313Y-82820823D01*
X178404883Y-82654000D01*
X178421313Y-82487177D01*
X178469976Y-82326758D01*
X178548995Y-82178924D01*
X178548996Y-82178922D01*
X178655341Y-82049341D01*
X178784922Y-81942996D01*
X178863078Y-81901221D01*
X178932758Y-81863976D01*
X179093177Y-81815313D01*
X179218196Y-81803000D01*
X179301804Y-81803000D01*
X179426823Y-81815313D01*
X179426823Y-81815313D01*
G37*
G36*
X198865443Y-79219519D02*
G01*
X198931627Y-79226037D01*
X199101466Y-79277557D01*
X199257991Y-79361222D01*
X199293729Y-79390552D01*
X199395186Y-79473814D01*
X199478448Y-79575271D01*
X199507778Y-79611009D01*
X199591443Y-79767534D01*
X199642963Y-79937373D01*
X199660359Y-80114000D01*
X199642963Y-80290627D01*
X199591443Y-80460466D01*
X199507778Y-80616991D01*
X199478448Y-80652729D01*
X199395186Y-80754186D01*
X199293729Y-80837448D01*
X199257991Y-80866778D01*
X199101466Y-80950443D01*
X198931627Y-81001963D01*
X198865443Y-81008481D01*
X198799260Y-81015000D01*
X198710740Y-81015000D01*
X198644557Y-81008481D01*
X198578373Y-81001963D01*
X198408534Y-80950443D01*
X198252009Y-80866778D01*
X198216271Y-80837448D01*
X198114814Y-80754186D01*
X198031552Y-80652729D01*
X198002222Y-80616991D01*
X197918557Y-80460466D01*
X197867037Y-80290627D01*
X197849641Y-80114000D01*
X197867037Y-79937373D01*
X197918557Y-79767534D01*
X198002222Y-79611009D01*
X198031552Y-79575271D01*
X198114814Y-79473814D01*
X198216271Y-79390552D01*
X198252009Y-79361222D01*
X198408534Y-79277557D01*
X198578373Y-79226037D01*
X198644557Y-79219519D01*
X198710740Y-79213000D01*
X198799260Y-79213000D01*
X198865443Y-79219519D01*
X198865443Y-79219519D01*
G37*
G36*
X133206443Y-79219519D02*
G01*
X133272627Y-79226037D01*
X133442466Y-79277557D01*
X133598991Y-79361222D01*
X133634729Y-79390552D01*
X133736186Y-79473814D01*
X133819448Y-79575271D01*
X133848778Y-79611009D01*
X133932443Y-79767534D01*
X133983963Y-79937373D01*
X134001359Y-80114000D01*
X133983963Y-80290627D01*
X133932443Y-80460466D01*
X133848778Y-80616991D01*
X133819448Y-80652729D01*
X133736186Y-80754186D01*
X133634729Y-80837448D01*
X133598991Y-80866778D01*
X133442466Y-80950443D01*
X133272627Y-81001963D01*
X133206443Y-81008481D01*
X133140260Y-81015000D01*
X133051740Y-81015000D01*
X132985557Y-81008481D01*
X132919373Y-81001963D01*
X132749534Y-80950443D01*
X132593009Y-80866778D01*
X132557271Y-80837448D01*
X132455814Y-80754186D01*
X132372552Y-80652729D01*
X132343222Y-80616991D01*
X132259557Y-80460466D01*
X132208037Y-80290627D01*
X132190641Y-80114000D01*
X132208037Y-79937373D01*
X132259557Y-79767534D01*
X132343222Y-79611009D01*
X132372552Y-79575271D01*
X132455814Y-79473814D01*
X132557271Y-79390552D01*
X132593009Y-79361222D01*
X132749534Y-79277557D01*
X132919373Y-79226037D01*
X132985557Y-79219519D01*
X133051740Y-79213000D01*
X133140260Y-79213000D01*
X133206443Y-79219519D01*
X133206443Y-79219519D01*
G37*
G36*
X152248823Y-79275313D02*
G01*
X152409242Y-79323976D01*
X152478922Y-79361221D01*
X152557078Y-79402996D01*
X152686659Y-79509341D01*
X152793004Y-79638922D01*
X152793005Y-79638924D01*
X152872024Y-79786758D01*
X152920687Y-79947177D01*
X152937117Y-80114000D01*
X152920687Y-80280823D01*
X152872024Y-80441242D01*
X152861747Y-80460468D01*
X152793004Y-80589078D01*
X152686659Y-80718659D01*
X152557078Y-80825004D01*
X152557076Y-80825005D01*
X152409242Y-80904024D01*
X152248823Y-80952687D01*
X152123804Y-80965000D01*
X152040196Y-80965000D01*
X151915177Y-80952687D01*
X151754758Y-80904024D01*
X151606924Y-80825005D01*
X151606922Y-80825004D01*
X151477341Y-80718659D01*
X151370996Y-80589078D01*
X151302253Y-80460468D01*
X151291976Y-80441242D01*
X151243313Y-80280823D01*
X151226883Y-80114000D01*
X151243313Y-79947177D01*
X151291976Y-79786758D01*
X151370995Y-79638924D01*
X151370996Y-79638922D01*
X151477341Y-79509341D01*
X151606922Y-79402996D01*
X151685078Y-79361221D01*
X151754758Y-79323976D01*
X151915177Y-79275313D01*
X152040196Y-79263000D01*
X152123804Y-79263000D01*
X152248823Y-79275313D01*
X152248823Y-79275313D01*
G37*
G36*
X179426823Y-79275313D02*
G01*
X179587242Y-79323976D01*
X179656922Y-79361221D01*
X179735078Y-79402996D01*
X179864659Y-79509341D01*
X179971004Y-79638922D01*
X179971005Y-79638924D01*
X180050024Y-79786758D01*
X180098687Y-79947177D01*
X180115117Y-80114000D01*
X180098687Y-80280823D01*
X180050024Y-80441242D01*
X180039747Y-80460468D01*
X179971004Y-80589078D01*
X179864659Y-80718659D01*
X179735078Y-80825004D01*
X179735076Y-80825005D01*
X179587242Y-80904024D01*
X179426823Y-80952687D01*
X179301804Y-80965000D01*
X179218196Y-80965000D01*
X179093177Y-80952687D01*
X178932758Y-80904024D01*
X178784924Y-80825005D01*
X178784922Y-80825004D01*
X178655341Y-80718659D01*
X178548996Y-80589078D01*
X178480253Y-80460468D01*
X178469976Y-80441242D01*
X178421313Y-80280823D01*
X178404883Y-80114000D01*
X178421313Y-79947177D01*
X178469976Y-79786758D01*
X178548995Y-79638924D01*
X178548996Y-79638922D01*
X178655341Y-79509341D01*
X178784922Y-79402996D01*
X178863078Y-79361221D01*
X178932758Y-79323976D01*
X179093177Y-79275313D01*
X179218196Y-79263000D01*
X179301804Y-79263000D01*
X179426823Y-79275313D01*
X179426823Y-79275313D01*
G37*
G36*
X192126823Y-79275313D02*
G01*
X192287242Y-79323976D01*
X192356922Y-79361221D01*
X192435078Y-79402996D01*
X192564659Y-79509341D01*
X192671004Y-79638922D01*
X192671005Y-79638924D01*
X192750024Y-79786758D01*
X192798687Y-79947177D01*
X192815117Y-80114000D01*
X192798687Y-80280823D01*
X192750024Y-80441242D01*
X192739747Y-80460468D01*
X192671004Y-80589078D01*
X192564659Y-80718659D01*
X192435078Y-80825004D01*
X192435076Y-80825005D01*
X192287242Y-80904024D01*
X192126823Y-80952687D01*
X192001804Y-80965000D01*
X191918196Y-80965000D01*
X191793177Y-80952687D01*
X191632758Y-80904024D01*
X191484924Y-80825005D01*
X191484922Y-80825004D01*
X191355341Y-80718659D01*
X191248996Y-80589078D01*
X191180253Y-80460468D01*
X191169976Y-80441242D01*
X191121313Y-80280823D01*
X191104883Y-80114000D01*
X191121313Y-79947177D01*
X191169976Y-79786758D01*
X191248995Y-79638924D01*
X191248996Y-79638922D01*
X191355341Y-79509341D01*
X191484922Y-79402996D01*
X191563078Y-79361221D01*
X191632758Y-79323976D01*
X191793177Y-79275313D01*
X191918196Y-79263000D01*
X192001804Y-79263000D01*
X192126823Y-79275313D01*
X192126823Y-79275313D01*
G37*
G36*
X139548823Y-79275313D02*
G01*
X139709242Y-79323976D01*
X139778922Y-79361221D01*
X139857078Y-79402996D01*
X139986659Y-79509341D01*
X140093004Y-79638922D01*
X140093005Y-79638924D01*
X140172024Y-79786758D01*
X140220687Y-79947177D01*
X140237117Y-80114000D01*
X140220687Y-80280823D01*
X140172024Y-80441242D01*
X140161747Y-80460468D01*
X140093004Y-80589078D01*
X139986659Y-80718659D01*
X139857078Y-80825004D01*
X139857076Y-80825005D01*
X139709242Y-80904024D01*
X139548823Y-80952687D01*
X139423804Y-80965000D01*
X139340196Y-80965000D01*
X139215177Y-80952687D01*
X139054758Y-80904024D01*
X138906924Y-80825005D01*
X138906922Y-80825004D01*
X138777341Y-80718659D01*
X138670996Y-80589078D01*
X138602253Y-80460468D01*
X138591976Y-80441242D01*
X138543313Y-80280823D01*
X138526883Y-80114000D01*
X138543313Y-79947177D01*
X138591976Y-79786758D01*
X138670995Y-79638924D01*
X138670996Y-79638922D01*
X138777341Y-79509341D01*
X138906922Y-79402996D01*
X138985078Y-79361221D01*
X139054758Y-79323976D01*
X139215177Y-79275313D01*
X139340196Y-79263000D01*
X139423804Y-79263000D01*
X139548823Y-79275313D01*
X139548823Y-79275313D01*
G37*
G36*
X198865443Y-76679519D02*
G01*
X198931627Y-76686037D01*
X199101466Y-76737557D01*
X199257991Y-76821222D01*
X199293729Y-76850552D01*
X199395186Y-76933814D01*
X199478448Y-77035271D01*
X199507778Y-77071009D01*
X199591443Y-77227534D01*
X199642963Y-77397373D01*
X199660359Y-77574000D01*
X199642963Y-77750627D01*
X199591443Y-77920466D01*
X199507778Y-78076991D01*
X199478448Y-78112729D01*
X199395186Y-78214186D01*
X199293729Y-78297448D01*
X199257991Y-78326778D01*
X199101466Y-78410443D01*
X198931627Y-78461963D01*
X198865442Y-78468482D01*
X198799260Y-78475000D01*
X198710740Y-78475000D01*
X198644558Y-78468482D01*
X198578373Y-78461963D01*
X198408534Y-78410443D01*
X198252009Y-78326778D01*
X198216271Y-78297448D01*
X198114814Y-78214186D01*
X198031552Y-78112729D01*
X198002222Y-78076991D01*
X197918557Y-77920466D01*
X197867037Y-77750627D01*
X197849641Y-77574000D01*
X197867037Y-77397373D01*
X197918557Y-77227534D01*
X198002222Y-77071009D01*
X198031552Y-77035271D01*
X198114814Y-76933814D01*
X198216271Y-76850552D01*
X198252009Y-76821222D01*
X198408534Y-76737557D01*
X198578373Y-76686037D01*
X198644557Y-76679519D01*
X198710740Y-76673000D01*
X198799260Y-76673000D01*
X198865443Y-76679519D01*
X198865443Y-76679519D01*
G37*
G36*
X133206443Y-76679519D02*
G01*
X133272627Y-76686037D01*
X133442466Y-76737557D01*
X133598991Y-76821222D01*
X133634729Y-76850552D01*
X133736186Y-76933814D01*
X133819448Y-77035271D01*
X133848778Y-77071009D01*
X133932443Y-77227534D01*
X133983963Y-77397373D01*
X134001359Y-77574000D01*
X133983963Y-77750627D01*
X133932443Y-77920466D01*
X133848778Y-78076991D01*
X133819448Y-78112729D01*
X133736186Y-78214186D01*
X133634729Y-78297448D01*
X133598991Y-78326778D01*
X133442466Y-78410443D01*
X133272627Y-78461963D01*
X133206442Y-78468482D01*
X133140260Y-78475000D01*
X133051740Y-78475000D01*
X132985558Y-78468482D01*
X132919373Y-78461963D01*
X132749534Y-78410443D01*
X132593009Y-78326778D01*
X132557271Y-78297448D01*
X132455814Y-78214186D01*
X132372552Y-78112729D01*
X132343222Y-78076991D01*
X132259557Y-77920466D01*
X132208037Y-77750627D01*
X132190641Y-77574000D01*
X132208037Y-77397373D01*
X132259557Y-77227534D01*
X132343222Y-77071009D01*
X132372552Y-77035271D01*
X132455814Y-76933814D01*
X132557271Y-76850552D01*
X132593009Y-76821222D01*
X132749534Y-76737557D01*
X132919373Y-76686037D01*
X132985557Y-76679519D01*
X133051740Y-76673000D01*
X133140260Y-76673000D01*
X133206443Y-76679519D01*
X133206443Y-76679519D01*
G37*
G36*
X152248823Y-76735313D02*
G01*
X152409242Y-76783976D01*
X152478922Y-76821221D01*
X152557078Y-76862996D01*
X152686659Y-76969341D01*
X152793004Y-77098922D01*
X152793005Y-77098924D01*
X152872024Y-77246758D01*
X152920687Y-77407177D01*
X152937117Y-77574000D01*
X152920687Y-77740823D01*
X152872024Y-77901242D01*
X152861747Y-77920468D01*
X152793004Y-78049078D01*
X152686659Y-78178659D01*
X152557078Y-78285004D01*
X152557076Y-78285005D01*
X152409242Y-78364024D01*
X152248823Y-78412687D01*
X152123804Y-78425000D01*
X152040196Y-78425000D01*
X151915177Y-78412687D01*
X151754758Y-78364024D01*
X151606924Y-78285005D01*
X151606922Y-78285004D01*
X151477341Y-78178659D01*
X151370996Y-78049078D01*
X151302253Y-77920468D01*
X151291976Y-77901242D01*
X151243313Y-77740823D01*
X151226883Y-77574000D01*
X151243313Y-77407177D01*
X151291976Y-77246758D01*
X151370995Y-77098924D01*
X151370996Y-77098922D01*
X151477341Y-76969341D01*
X151606922Y-76862996D01*
X151685078Y-76821221D01*
X151754758Y-76783976D01*
X151915177Y-76735313D01*
X152040196Y-76723000D01*
X152123804Y-76723000D01*
X152248823Y-76735313D01*
X152248823Y-76735313D01*
G37*
G36*
X192126823Y-76735313D02*
G01*
X192287242Y-76783976D01*
X192356922Y-76821221D01*
X192435078Y-76862996D01*
X192564659Y-76969341D01*
X192671004Y-77098922D01*
X192671005Y-77098924D01*
X192750024Y-77246758D01*
X192798687Y-77407177D01*
X192815117Y-77574000D01*
X192798687Y-77740823D01*
X192750024Y-77901242D01*
X192739747Y-77920468D01*
X192671004Y-78049078D01*
X192564659Y-78178659D01*
X192435078Y-78285004D01*
X192435076Y-78285005D01*
X192287242Y-78364024D01*
X192126823Y-78412687D01*
X192001804Y-78425000D01*
X191918196Y-78425000D01*
X191793177Y-78412687D01*
X191632758Y-78364024D01*
X191484924Y-78285005D01*
X191484922Y-78285004D01*
X191355341Y-78178659D01*
X191248996Y-78049078D01*
X191180253Y-77920468D01*
X191169976Y-77901242D01*
X191121313Y-77740823D01*
X191104883Y-77574000D01*
X191121313Y-77407177D01*
X191169976Y-77246758D01*
X191248995Y-77098924D01*
X191248996Y-77098922D01*
X191355341Y-76969341D01*
X191484922Y-76862996D01*
X191563078Y-76821221D01*
X191632758Y-76783976D01*
X191793177Y-76735313D01*
X191918196Y-76723000D01*
X192001804Y-76723000D01*
X192126823Y-76735313D01*
X192126823Y-76735313D01*
G37*
G36*
X139548823Y-76735313D02*
G01*
X139709242Y-76783976D01*
X139778922Y-76821221D01*
X139857078Y-76862996D01*
X139986659Y-76969341D01*
X140093004Y-77098922D01*
X140093005Y-77098924D01*
X140172024Y-77246758D01*
X140220687Y-77407177D01*
X140237117Y-77574000D01*
X140220687Y-77740823D01*
X140172024Y-77901242D01*
X140161747Y-77920468D01*
X140093004Y-78049078D01*
X139986659Y-78178659D01*
X139857078Y-78285004D01*
X139857076Y-78285005D01*
X139709242Y-78364024D01*
X139548823Y-78412687D01*
X139423804Y-78425000D01*
X139340196Y-78425000D01*
X139215177Y-78412687D01*
X139054758Y-78364024D01*
X138906924Y-78285005D01*
X138906922Y-78285004D01*
X138777341Y-78178659D01*
X138670996Y-78049078D01*
X138602253Y-77920468D01*
X138591976Y-77901242D01*
X138543313Y-77740823D01*
X138526883Y-77574000D01*
X138543313Y-77407177D01*
X138591976Y-77246758D01*
X138670995Y-77098924D01*
X138670996Y-77098922D01*
X138777341Y-76969341D01*
X138906922Y-76862996D01*
X138985078Y-76821221D01*
X139054758Y-76783976D01*
X139215177Y-76735313D01*
X139340196Y-76723000D01*
X139423804Y-76723000D01*
X139548823Y-76735313D01*
X139548823Y-76735313D01*
G37*
G36*
X179426823Y-76735313D02*
G01*
X179587242Y-76783976D01*
X179656922Y-76821221D01*
X179735078Y-76862996D01*
X179864659Y-76969341D01*
X179971004Y-77098922D01*
X179971005Y-77098924D01*
X180050024Y-77246758D01*
X180098687Y-77407177D01*
X180115117Y-77574000D01*
X180098687Y-77740823D01*
X180050024Y-77901242D01*
X180039747Y-77920468D01*
X179971004Y-78049078D01*
X179864659Y-78178659D01*
X179735078Y-78285004D01*
X179735076Y-78285005D01*
X179587242Y-78364024D01*
X179426823Y-78412687D01*
X179301804Y-78425000D01*
X179218196Y-78425000D01*
X179093177Y-78412687D01*
X178932758Y-78364024D01*
X178784924Y-78285005D01*
X178784922Y-78285004D01*
X178655341Y-78178659D01*
X178548996Y-78049078D01*
X178480253Y-77920468D01*
X178469976Y-77901242D01*
X178421313Y-77740823D01*
X178404883Y-77574000D01*
X178421313Y-77407177D01*
X178469976Y-77246758D01*
X178548995Y-77098924D01*
X178548996Y-77098922D01*
X178655341Y-76969341D01*
X178784922Y-76862996D01*
X178863078Y-76821221D01*
X178932758Y-76783976D01*
X179093177Y-76735313D01*
X179218196Y-76723000D01*
X179301804Y-76723000D01*
X179426823Y-76735313D01*
X179426823Y-76735313D01*
G37*
G36*
X133997000Y-75935000D02*
G01*
X132195000Y-75935000D01*
X132195000Y-74133000D01*
X133997000Y-74133000D01*
X133997000Y-75935000D01*
X133997000Y-75935000D01*
G37*
G36*
X198865442Y-74139518D02*
G01*
X198931627Y-74146037D01*
X199101466Y-74197557D01*
X199257991Y-74281222D01*
X199293729Y-74310552D01*
X199395186Y-74393814D01*
X199478448Y-74495271D01*
X199507778Y-74531009D01*
X199591443Y-74687534D01*
X199642963Y-74857373D01*
X199660359Y-75034000D01*
X199642963Y-75210627D01*
X199591443Y-75380466D01*
X199507778Y-75536991D01*
X199478448Y-75572729D01*
X199395186Y-75674186D01*
X199293729Y-75757448D01*
X199257991Y-75786778D01*
X199101466Y-75870443D01*
X198931627Y-75921963D01*
X198865443Y-75928481D01*
X198799260Y-75935000D01*
X198710740Y-75935000D01*
X198644557Y-75928481D01*
X198578373Y-75921963D01*
X198408534Y-75870443D01*
X198252009Y-75786778D01*
X198216271Y-75757448D01*
X198114814Y-75674186D01*
X198031552Y-75572729D01*
X198002222Y-75536991D01*
X197918557Y-75380466D01*
X197867037Y-75210627D01*
X197849641Y-75034000D01*
X197867037Y-74857373D01*
X197918557Y-74687534D01*
X198002222Y-74531009D01*
X198031552Y-74495271D01*
X198114814Y-74393814D01*
X198216271Y-74310552D01*
X198252009Y-74281222D01*
X198408534Y-74197557D01*
X198578373Y-74146037D01*
X198644558Y-74139518D01*
X198710740Y-74133000D01*
X198799260Y-74133000D01*
X198865442Y-74139518D01*
X198865442Y-74139518D01*
G37*
G36*
X179426823Y-74195313D02*
G01*
X179587242Y-74243976D01*
X179656922Y-74281221D01*
X179735078Y-74322996D01*
X179864659Y-74429341D01*
X179971004Y-74558922D01*
X179971005Y-74558924D01*
X180050024Y-74706758D01*
X180098687Y-74867177D01*
X180115117Y-75034000D01*
X180098687Y-75200823D01*
X180050024Y-75361242D01*
X180039747Y-75380468D01*
X179971004Y-75509078D01*
X179864659Y-75638659D01*
X179735078Y-75745004D01*
X179735076Y-75745005D01*
X179587242Y-75824024D01*
X179426823Y-75872687D01*
X179301804Y-75885000D01*
X179218196Y-75885000D01*
X179093177Y-75872687D01*
X178932758Y-75824024D01*
X178784924Y-75745005D01*
X178784922Y-75745004D01*
X178655341Y-75638659D01*
X178548996Y-75509078D01*
X178480253Y-75380468D01*
X178469976Y-75361242D01*
X178421313Y-75200823D01*
X178404883Y-75034000D01*
X178421313Y-74867177D01*
X178469976Y-74706758D01*
X178548995Y-74558924D01*
X178548996Y-74558922D01*
X178655341Y-74429341D01*
X178784922Y-74322996D01*
X178863078Y-74281221D01*
X178932758Y-74243976D01*
X179093177Y-74195313D01*
X179218196Y-74183000D01*
X179301804Y-74183000D01*
X179426823Y-74195313D01*
X179426823Y-74195313D01*
G37*
G36*
X192126823Y-74195313D02*
G01*
X192287242Y-74243976D01*
X192356922Y-74281221D01*
X192435078Y-74322996D01*
X192564659Y-74429341D01*
X192671004Y-74558922D01*
X192671005Y-74558924D01*
X192750024Y-74706758D01*
X192798687Y-74867177D01*
X192815117Y-75034000D01*
X192798687Y-75200823D01*
X192750024Y-75361242D01*
X192739747Y-75380468D01*
X192671004Y-75509078D01*
X192564659Y-75638659D01*
X192435078Y-75745004D01*
X192435076Y-75745005D01*
X192287242Y-75824024D01*
X192126823Y-75872687D01*
X192001804Y-75885000D01*
X191918196Y-75885000D01*
X191793177Y-75872687D01*
X191632758Y-75824024D01*
X191484924Y-75745005D01*
X191484922Y-75745004D01*
X191355341Y-75638659D01*
X191248996Y-75509078D01*
X191180253Y-75380468D01*
X191169976Y-75361242D01*
X191121313Y-75200823D01*
X191104883Y-75034000D01*
X191121313Y-74867177D01*
X191169976Y-74706758D01*
X191248995Y-74558924D01*
X191248996Y-74558922D01*
X191355341Y-74429341D01*
X191484922Y-74322996D01*
X191563078Y-74281221D01*
X191632758Y-74243976D01*
X191793177Y-74195313D01*
X191918196Y-74183000D01*
X192001804Y-74183000D01*
X192126823Y-74195313D01*
X192126823Y-74195313D01*
G37*
G36*
X152248823Y-74195313D02*
G01*
X152409242Y-74243976D01*
X152478922Y-74281221D01*
X152557078Y-74322996D01*
X152686659Y-74429341D01*
X152793004Y-74558922D01*
X152793005Y-74558924D01*
X152872024Y-74706758D01*
X152920687Y-74867177D01*
X152937117Y-75034000D01*
X152920687Y-75200823D01*
X152872024Y-75361242D01*
X152861747Y-75380468D01*
X152793004Y-75509078D01*
X152686659Y-75638659D01*
X152557078Y-75745004D01*
X152557076Y-75745005D01*
X152409242Y-75824024D01*
X152248823Y-75872687D01*
X152123804Y-75885000D01*
X152040196Y-75885000D01*
X151915177Y-75872687D01*
X151754758Y-75824024D01*
X151606924Y-75745005D01*
X151606922Y-75745004D01*
X151477341Y-75638659D01*
X151370996Y-75509078D01*
X151302253Y-75380468D01*
X151291976Y-75361242D01*
X151243313Y-75200823D01*
X151226883Y-75034000D01*
X151243313Y-74867177D01*
X151291976Y-74706758D01*
X151370995Y-74558924D01*
X151370996Y-74558922D01*
X151477341Y-74429341D01*
X151606922Y-74322996D01*
X151685078Y-74281221D01*
X151754758Y-74243976D01*
X151915177Y-74195313D01*
X152040196Y-74183000D01*
X152123804Y-74183000D01*
X152248823Y-74195313D01*
X152248823Y-74195313D01*
G37*
G36*
X139548823Y-74195313D02*
G01*
X139709242Y-74243976D01*
X139778922Y-74281221D01*
X139857078Y-74322996D01*
X139986659Y-74429341D01*
X140093004Y-74558922D01*
X140093005Y-74558924D01*
X140172024Y-74706758D01*
X140220687Y-74867177D01*
X140237117Y-75034000D01*
X140220687Y-75200823D01*
X140172024Y-75361242D01*
X140161747Y-75380468D01*
X140093004Y-75509078D01*
X139986659Y-75638659D01*
X139857078Y-75745004D01*
X139857076Y-75745005D01*
X139709242Y-75824024D01*
X139548823Y-75872687D01*
X139423804Y-75885000D01*
X139340196Y-75885000D01*
X139215177Y-75872687D01*
X139054758Y-75824024D01*
X138906924Y-75745005D01*
X138906922Y-75745004D01*
X138777341Y-75638659D01*
X138670996Y-75509078D01*
X138602253Y-75380468D01*
X138591976Y-75361242D01*
X138543313Y-75200823D01*
X138526883Y-75034000D01*
X138543313Y-74867177D01*
X138591976Y-74706758D01*
X138670995Y-74558924D01*
X138670996Y-74558922D01*
X138777341Y-74429341D01*
X138906922Y-74322996D01*
X138985078Y-74281221D01*
X139054758Y-74243976D01*
X139215177Y-74195313D01*
X139340196Y-74183000D01*
X139423804Y-74183000D01*
X139548823Y-74195313D01*
X139548823Y-74195313D01*
G37*
G36*
X157341564Y-72880389D02*
G01*
X157532833Y-72959615D01*
X157532835Y-72959616D01*
X157704973Y-73074635D01*
X157851365Y-73221027D01*
X157966385Y-73393167D01*
X158045611Y-73584436D01*
X158086000Y-73787484D01*
X158086000Y-73994516D01*
X158045611Y-74197564D01*
X157966385Y-74388833D01*
X157966384Y-74388835D01*
X157851365Y-74560973D01*
X157704973Y-74707365D01*
X157532835Y-74822384D01*
X157532834Y-74822385D01*
X157532833Y-74822385D01*
X157341564Y-74901611D01*
X157138516Y-74942000D01*
X156931484Y-74942000D01*
X156728436Y-74901611D01*
X156537167Y-74822385D01*
X156537166Y-74822385D01*
X156537165Y-74822384D01*
X156365027Y-74707365D01*
X156218635Y-74560973D01*
X156103616Y-74388835D01*
X156103615Y-74388833D01*
X156024389Y-74197564D01*
X155984000Y-73994516D01*
X155984000Y-73787484D01*
X156024389Y-73584436D01*
X156103615Y-73393167D01*
X156218635Y-73221027D01*
X156365027Y-73074635D01*
X156537165Y-72959616D01*
X156537167Y-72959615D01*
X156728436Y-72880389D01*
X156931484Y-72840000D01*
X157138516Y-72840000D01*
X157341564Y-72880389D01*
X157341564Y-72880389D01*
G37*
G36*
X139548823Y-71655313D02*
G01*
X139709242Y-71703976D01*
X139841906Y-71774886D01*
X139857078Y-71782996D01*
X139986659Y-71889341D01*
X140093004Y-72018922D01*
X140093005Y-72018924D01*
X140172024Y-72166758D01*
X140220687Y-72327177D01*
X140237117Y-72494000D01*
X140220687Y-72660823D01*
X140172024Y-72821242D01*
X140101114Y-72953906D01*
X140093004Y-72969078D01*
X139986659Y-73098659D01*
X139857078Y-73205004D01*
X139857076Y-73205005D01*
X139709242Y-73284024D01*
X139548823Y-73332687D01*
X139423804Y-73345000D01*
X139340196Y-73345000D01*
X139215177Y-73332687D01*
X139054758Y-73284024D01*
X138906924Y-73205005D01*
X138906922Y-73205004D01*
X138777341Y-73098659D01*
X138670996Y-72969078D01*
X138662886Y-72953906D01*
X138591976Y-72821242D01*
X138543313Y-72660823D01*
X138526883Y-72494000D01*
X138543313Y-72327177D01*
X138591976Y-72166758D01*
X138670995Y-72018924D01*
X138670996Y-72018922D01*
X138777341Y-71889341D01*
X138906922Y-71782996D01*
X138922094Y-71774886D01*
X139054758Y-71703976D01*
X139215177Y-71655313D01*
X139340196Y-71643000D01*
X139423804Y-71643000D01*
X139548823Y-71655313D01*
X139548823Y-71655313D01*
G37*
G36*
X152248823Y-71655313D02*
G01*
X152409242Y-71703976D01*
X152541906Y-71774886D01*
X152557078Y-71782996D01*
X152686659Y-71889341D01*
X152793004Y-72018922D01*
X152793005Y-72018924D01*
X152872024Y-72166758D01*
X152920687Y-72327177D01*
X152937117Y-72494000D01*
X152920687Y-72660823D01*
X152872024Y-72821242D01*
X152801114Y-72953906D01*
X152793004Y-72969078D01*
X152686659Y-73098659D01*
X152557078Y-73205004D01*
X152557076Y-73205005D01*
X152409242Y-73284024D01*
X152248823Y-73332687D01*
X152123804Y-73345000D01*
X152040196Y-73345000D01*
X151915177Y-73332687D01*
X151754758Y-73284024D01*
X151606924Y-73205005D01*
X151606922Y-73205004D01*
X151477341Y-73098659D01*
X151370996Y-72969078D01*
X151362886Y-72953906D01*
X151291976Y-72821242D01*
X151243313Y-72660823D01*
X151226883Y-72494000D01*
X151243313Y-72327177D01*
X151291976Y-72166758D01*
X151370995Y-72018924D01*
X151370996Y-72018922D01*
X151477341Y-71889341D01*
X151606922Y-71782996D01*
X151622094Y-71774886D01*
X151754758Y-71703976D01*
X151915177Y-71655313D01*
X152040196Y-71643000D01*
X152123804Y-71643000D01*
X152248823Y-71655313D01*
X152248823Y-71655313D01*
G37*
G36*
X192126823Y-71655313D02*
G01*
X192287242Y-71703976D01*
X192419906Y-71774886D01*
X192435078Y-71782996D01*
X192564659Y-71889341D01*
X192671004Y-72018922D01*
X192671005Y-72018924D01*
X192750024Y-72166758D01*
X192798687Y-72327177D01*
X192815117Y-72494000D01*
X192798687Y-72660823D01*
X192750024Y-72821242D01*
X192679114Y-72953906D01*
X192671004Y-72969078D01*
X192564659Y-73098659D01*
X192435078Y-73205004D01*
X192435076Y-73205005D01*
X192287242Y-73284024D01*
X192126823Y-73332687D01*
X192001804Y-73345000D01*
X191918196Y-73345000D01*
X191793177Y-73332687D01*
X191632758Y-73284024D01*
X191484924Y-73205005D01*
X191484922Y-73205004D01*
X191355341Y-73098659D01*
X191248996Y-72969078D01*
X191240886Y-72953906D01*
X191169976Y-72821242D01*
X191121313Y-72660823D01*
X191104883Y-72494000D01*
X191121313Y-72327177D01*
X191169976Y-72166758D01*
X191248995Y-72018924D01*
X191248996Y-72018922D01*
X191355341Y-71889341D01*
X191484922Y-71782996D01*
X191500094Y-71774886D01*
X191632758Y-71703976D01*
X191793177Y-71655313D01*
X191918196Y-71643000D01*
X192001804Y-71643000D01*
X192126823Y-71655313D01*
X192126823Y-71655313D01*
G37*
G36*
X179426823Y-71655313D02*
G01*
X179587242Y-71703976D01*
X179719906Y-71774886D01*
X179735078Y-71782996D01*
X179864659Y-71889341D01*
X179971004Y-72018922D01*
X179971005Y-72018924D01*
X180050024Y-72166758D01*
X180098687Y-72327177D01*
X180115117Y-72494000D01*
X180098687Y-72660823D01*
X180050024Y-72821242D01*
X179979114Y-72953906D01*
X179971004Y-72969078D01*
X179864659Y-73098659D01*
X179735078Y-73205004D01*
X179735076Y-73205005D01*
X179587242Y-73284024D01*
X179426823Y-73332687D01*
X179301804Y-73345000D01*
X179218196Y-73345000D01*
X179093177Y-73332687D01*
X178932758Y-73284024D01*
X178784924Y-73205005D01*
X178784922Y-73205004D01*
X178655341Y-73098659D01*
X178548996Y-72969078D01*
X178540886Y-72953906D01*
X178469976Y-72821242D01*
X178421313Y-72660823D01*
X178404883Y-72494000D01*
X178421313Y-72327177D01*
X178469976Y-72166758D01*
X178548995Y-72018924D01*
X178548996Y-72018922D01*
X178655341Y-71889341D01*
X178784922Y-71782996D01*
X178800094Y-71774886D01*
X178932758Y-71703976D01*
X179093177Y-71655313D01*
X179218196Y-71643000D01*
X179301804Y-71643000D01*
X179426823Y-71655313D01*
X179426823Y-71655313D01*
G37*
G36*
X200298000Y-73155000D02*
G01*
X196196000Y-73155000D01*
X196196000Y-71053000D01*
X200298000Y-71053000D01*
X200298000Y-73155000D01*
X200298000Y-73155000D01*
G37*
G36*
X169909442Y-69463518D02*
G01*
X169975627Y-69470037D01*
X170145466Y-69521557D01*
X170301991Y-69605222D01*
X170328236Y-69626761D01*
X170439186Y-69717814D01*
X170522448Y-69819271D01*
X170551778Y-69855009D01*
X170635443Y-70011534D01*
X170686963Y-70181373D01*
X170704359Y-70358000D01*
X170686963Y-70534627D01*
X170635443Y-70704466D01*
X170551778Y-70860991D01*
X170522448Y-70896729D01*
X170439186Y-70998186D01*
X170337729Y-71081448D01*
X170301991Y-71110778D01*
X170145466Y-71194443D01*
X169975627Y-71245963D01*
X169909442Y-71252482D01*
X169843260Y-71259000D01*
X169754740Y-71259000D01*
X169688558Y-71252482D01*
X169622373Y-71245963D01*
X169452534Y-71194443D01*
X169296009Y-71110778D01*
X169260271Y-71081448D01*
X169158814Y-70998186D01*
X169075552Y-70896729D01*
X169046222Y-70860991D01*
X168962557Y-70704466D01*
X168911037Y-70534627D01*
X168893641Y-70358000D01*
X168911037Y-70181373D01*
X168962557Y-70011534D01*
X169046222Y-69855009D01*
X169075552Y-69819271D01*
X169158814Y-69717814D01*
X169269764Y-69626761D01*
X169296009Y-69605222D01*
X169452534Y-69521557D01*
X169622373Y-69470037D01*
X169688558Y-69463518D01*
X169754740Y-69457000D01*
X169843260Y-69457000D01*
X169909442Y-69463518D01*
X169909442Y-69463518D01*
G37*
G36*
X172449442Y-69463518D02*
G01*
X172515627Y-69470037D01*
X172685466Y-69521557D01*
X172841991Y-69605222D01*
X172868236Y-69626761D01*
X172979186Y-69717814D01*
X173062448Y-69819271D01*
X173091778Y-69855009D01*
X173175443Y-70011534D01*
X173226963Y-70181373D01*
X173244359Y-70358000D01*
X173226963Y-70534627D01*
X173175443Y-70704466D01*
X173091778Y-70860991D01*
X173062448Y-70896729D01*
X172979186Y-70998186D01*
X172877729Y-71081448D01*
X172841991Y-71110778D01*
X172685466Y-71194443D01*
X172515627Y-71245963D01*
X172449442Y-71252482D01*
X172383260Y-71259000D01*
X172294740Y-71259000D01*
X172228558Y-71252482D01*
X172162373Y-71245963D01*
X171992534Y-71194443D01*
X171836009Y-71110778D01*
X171800271Y-71081448D01*
X171698814Y-70998186D01*
X171615552Y-70896729D01*
X171586222Y-70860991D01*
X171502557Y-70704466D01*
X171451037Y-70534627D01*
X171433641Y-70358000D01*
X171451037Y-70181373D01*
X171502557Y-70011534D01*
X171586222Y-69855009D01*
X171615552Y-69819271D01*
X171698814Y-69717814D01*
X171809764Y-69626761D01*
X171836009Y-69605222D01*
X171992534Y-69521557D01*
X172162373Y-69470037D01*
X172228558Y-69463518D01*
X172294740Y-69457000D01*
X172383260Y-69457000D01*
X172449442Y-69463518D01*
X172449442Y-69463518D01*
G37*
G36*
X167369442Y-69463518D02*
G01*
X167435627Y-69470037D01*
X167605466Y-69521557D01*
X167761991Y-69605222D01*
X167788236Y-69626761D01*
X167899186Y-69717814D01*
X167982448Y-69819271D01*
X168011778Y-69855009D01*
X168095443Y-70011534D01*
X168146963Y-70181373D01*
X168164359Y-70358000D01*
X168146963Y-70534627D01*
X168095443Y-70704466D01*
X168011778Y-70860991D01*
X167982448Y-70896729D01*
X167899186Y-70998186D01*
X167797729Y-71081448D01*
X167761991Y-71110778D01*
X167605466Y-71194443D01*
X167435627Y-71245963D01*
X167369442Y-71252482D01*
X167303260Y-71259000D01*
X167214740Y-71259000D01*
X167148558Y-71252482D01*
X167082373Y-71245963D01*
X166912534Y-71194443D01*
X166756009Y-71110778D01*
X166720271Y-71081448D01*
X166618814Y-70998186D01*
X166535552Y-70896729D01*
X166506222Y-70860991D01*
X166422557Y-70704466D01*
X166371037Y-70534627D01*
X166353641Y-70358000D01*
X166371037Y-70181373D01*
X166422557Y-70011534D01*
X166506222Y-69855009D01*
X166535552Y-69819271D01*
X166618814Y-69717814D01*
X166729764Y-69626761D01*
X166756009Y-69605222D01*
X166912534Y-69521557D01*
X167082373Y-69470037D01*
X167148558Y-69463518D01*
X167214740Y-69457000D01*
X167303260Y-69457000D01*
X167369442Y-69463518D01*
X167369442Y-69463518D01*
G37*
G36*
X164829442Y-69463518D02*
G01*
X164895627Y-69470037D01*
X165065466Y-69521557D01*
X165221991Y-69605222D01*
X165248236Y-69626761D01*
X165359186Y-69717814D01*
X165442448Y-69819271D01*
X165471778Y-69855009D01*
X165555443Y-70011534D01*
X165606963Y-70181373D01*
X165624359Y-70358000D01*
X165606963Y-70534627D01*
X165555443Y-70704466D01*
X165471778Y-70860991D01*
X165442448Y-70896729D01*
X165359186Y-70998186D01*
X165257729Y-71081448D01*
X165221991Y-71110778D01*
X165065466Y-71194443D01*
X164895627Y-71245963D01*
X164829442Y-71252482D01*
X164763260Y-71259000D01*
X164674740Y-71259000D01*
X164608558Y-71252482D01*
X164542373Y-71245963D01*
X164372534Y-71194443D01*
X164216009Y-71110778D01*
X164180271Y-71081448D01*
X164078814Y-70998186D01*
X163995552Y-70896729D01*
X163966222Y-70860991D01*
X163882557Y-70704466D01*
X163831037Y-70534627D01*
X163813641Y-70358000D01*
X163831037Y-70181373D01*
X163882557Y-70011534D01*
X163966222Y-69855009D01*
X163995552Y-69819271D01*
X164078814Y-69717814D01*
X164189764Y-69626761D01*
X164216009Y-69605222D01*
X164372534Y-69521557D01*
X164542373Y-69470037D01*
X164608558Y-69463518D01*
X164674740Y-69457000D01*
X164763260Y-69457000D01*
X164829442Y-69463518D01*
X164829442Y-69463518D01*
G37*
G36*
X162289442Y-69463518D02*
G01*
X162355627Y-69470037D01*
X162525466Y-69521557D01*
X162681991Y-69605222D01*
X162708236Y-69626761D01*
X162819186Y-69717814D01*
X162902448Y-69819271D01*
X162931778Y-69855009D01*
X163015443Y-70011534D01*
X163066963Y-70181373D01*
X163084359Y-70358000D01*
X163066963Y-70534627D01*
X163015443Y-70704466D01*
X162931778Y-70860991D01*
X162902448Y-70896729D01*
X162819186Y-70998186D01*
X162717729Y-71081448D01*
X162681991Y-71110778D01*
X162525466Y-71194443D01*
X162355627Y-71245963D01*
X162289442Y-71252482D01*
X162223260Y-71259000D01*
X162134740Y-71259000D01*
X162068558Y-71252482D01*
X162002373Y-71245963D01*
X161832534Y-71194443D01*
X161676009Y-71110778D01*
X161640271Y-71081448D01*
X161538814Y-70998186D01*
X161455552Y-70896729D01*
X161426222Y-70860991D01*
X161342557Y-70704466D01*
X161291037Y-70534627D01*
X161273641Y-70358000D01*
X161291037Y-70181373D01*
X161342557Y-70011534D01*
X161426222Y-69855009D01*
X161455552Y-69819271D01*
X161538814Y-69717814D01*
X161649764Y-69626761D01*
X161676009Y-69605222D01*
X161832534Y-69521557D01*
X162002373Y-69470037D01*
X162068558Y-69463518D01*
X162134740Y-69457000D01*
X162223260Y-69457000D01*
X162289442Y-69463518D01*
X162289442Y-69463518D01*
G37*
G36*
X160540000Y-71259000D02*
G01*
X158738000Y-71259000D01*
X158738000Y-69457000D01*
X160540000Y-69457000D01*
X160540000Y-71259000D01*
X160540000Y-71259000D01*
G37*
G36*
X140233000Y-70805000D02*
G01*
X138531000Y-70805000D01*
X138531000Y-69103000D01*
X140233000Y-69103000D01*
X140233000Y-70805000D01*
X140233000Y-70805000D01*
G37*
G36*
X152248823Y-69115313D02*
G01*
X152409242Y-69163976D01*
X152541906Y-69234886D01*
X152557078Y-69242996D01*
X152686659Y-69349341D01*
X152793004Y-69478922D01*
X152793005Y-69478924D01*
X152872024Y-69626758D01*
X152920687Y-69787177D01*
X152937117Y-69954000D01*
X152920687Y-70120823D01*
X152872024Y-70281242D01*
X152830996Y-70358000D01*
X152793004Y-70429078D01*
X152686659Y-70558659D01*
X152557078Y-70665004D01*
X152557076Y-70665005D01*
X152409242Y-70744024D01*
X152248823Y-70792687D01*
X152123804Y-70805000D01*
X152040196Y-70805000D01*
X151915177Y-70792687D01*
X151754758Y-70744024D01*
X151606924Y-70665005D01*
X151606922Y-70665004D01*
X151477341Y-70558659D01*
X151370996Y-70429078D01*
X151333004Y-70358000D01*
X151291976Y-70281242D01*
X151243313Y-70120823D01*
X151226883Y-69954000D01*
X151243313Y-69787177D01*
X151291976Y-69626758D01*
X151370995Y-69478924D01*
X151370996Y-69478922D01*
X151477341Y-69349341D01*
X151606922Y-69242996D01*
X151622094Y-69234886D01*
X151754758Y-69163976D01*
X151915177Y-69115313D01*
X152040196Y-69103000D01*
X152123804Y-69103000D01*
X152248823Y-69115313D01*
X152248823Y-69115313D01*
G37*
G36*
X179426823Y-69115313D02*
G01*
X179587242Y-69163976D01*
X179719906Y-69234886D01*
X179735078Y-69242996D01*
X179864659Y-69349341D01*
X179971004Y-69478922D01*
X179971005Y-69478924D01*
X180050024Y-69626758D01*
X180098687Y-69787177D01*
X180115117Y-69954000D01*
X180098687Y-70120823D01*
X180050024Y-70281242D01*
X180008996Y-70358000D01*
X179971004Y-70429078D01*
X179864659Y-70558659D01*
X179735078Y-70665004D01*
X179735076Y-70665005D01*
X179587242Y-70744024D01*
X179426823Y-70792687D01*
X179301804Y-70805000D01*
X179218196Y-70805000D01*
X179093177Y-70792687D01*
X178932758Y-70744024D01*
X178784924Y-70665005D01*
X178784922Y-70665004D01*
X178655341Y-70558659D01*
X178548996Y-70429078D01*
X178511004Y-70358000D01*
X178469976Y-70281242D01*
X178421313Y-70120823D01*
X178404883Y-69954000D01*
X178421313Y-69787177D01*
X178469976Y-69626758D01*
X178548995Y-69478924D01*
X178548996Y-69478922D01*
X178655341Y-69349341D01*
X178784922Y-69242996D01*
X178800094Y-69234886D01*
X178932758Y-69163976D01*
X179093177Y-69115313D01*
X179218196Y-69103000D01*
X179301804Y-69103000D01*
X179426823Y-69115313D01*
X179426823Y-69115313D01*
G37*
G36*
X192126823Y-69115313D02*
G01*
X192287242Y-69163976D01*
X192419906Y-69234886D01*
X192435078Y-69242996D01*
X192564659Y-69349341D01*
X192671004Y-69478922D01*
X192671005Y-69478924D01*
X192750024Y-69626758D01*
X192798687Y-69787177D01*
X192815117Y-69954000D01*
X192798687Y-70120823D01*
X192750024Y-70281242D01*
X192708996Y-70358000D01*
X192671004Y-70429078D01*
X192564659Y-70558659D01*
X192435078Y-70665004D01*
X192435076Y-70665005D01*
X192287242Y-70744024D01*
X192126823Y-70792687D01*
X192001804Y-70805000D01*
X191918196Y-70805000D01*
X191793177Y-70792687D01*
X191632758Y-70744024D01*
X191484924Y-70665005D01*
X191484922Y-70665004D01*
X191355341Y-70558659D01*
X191248996Y-70429078D01*
X191211004Y-70358000D01*
X191169976Y-70281242D01*
X191121313Y-70120823D01*
X191104883Y-69954000D01*
X191121313Y-69787177D01*
X191169976Y-69626758D01*
X191248995Y-69478924D01*
X191248996Y-69478922D01*
X191355341Y-69349341D01*
X191484922Y-69242996D01*
X191500094Y-69234886D01*
X191632758Y-69163976D01*
X191793177Y-69115313D01*
X191918196Y-69103000D01*
X192001804Y-69103000D01*
X192126823Y-69115313D01*
X192126823Y-69115313D01*
G37*
G36*
X200298000Y-69155000D02*
G01*
X196196000Y-69155000D01*
X196196000Y-67053000D01*
X200298000Y-67053000D01*
X200298000Y-69155000D01*
X200298000Y-69155000D01*
G37*
G36*
X136455256Y-60391298D02*
G01*
X136561579Y-60412447D01*
X136862042Y-60536903D01*
X137132451Y-60717585D01*
X137362415Y-60947549D01*
X137543097Y-61217958D01*
X137667553Y-61518421D01*
X137731000Y-61837391D01*
X137731000Y-62162609D01*
X137667553Y-62481579D01*
X137543097Y-62782042D01*
X137362415Y-63052451D01*
X137132451Y-63282415D01*
X136862042Y-63463097D01*
X136561579Y-63587553D01*
X136455256Y-63608702D01*
X136242611Y-63651000D01*
X135917389Y-63651000D01*
X135704744Y-63608702D01*
X135598421Y-63587553D01*
X135297958Y-63463097D01*
X135027549Y-63282415D01*
X134797585Y-63052451D01*
X134616903Y-62782042D01*
X134492447Y-62481579D01*
X134429000Y-62162609D01*
X134429000Y-61837391D01*
X134492447Y-61518421D01*
X134616903Y-61217958D01*
X134797585Y-60947549D01*
X135027549Y-60717585D01*
X135297958Y-60536903D01*
X135598421Y-60412447D01*
X135704744Y-60391298D01*
X135917389Y-60349000D01*
X136242611Y-60349000D01*
X136455256Y-60391298D01*
X136455256Y-60391298D01*
G37*
G36*
X196375256Y-60391298D02*
G01*
X196481579Y-60412447D01*
X196782042Y-60536903D01*
X197052451Y-60717585D01*
X197282415Y-60947549D01*
X197463097Y-61217958D01*
X197587553Y-61518421D01*
X197651000Y-61837391D01*
X197651000Y-62162609D01*
X197587553Y-62481579D01*
X197463097Y-62782042D01*
X197282415Y-63052451D01*
X197052451Y-63282415D01*
X196782042Y-63463097D01*
X196481579Y-63587553D01*
X196375256Y-63608702D01*
X196162611Y-63651000D01*
X195837389Y-63651000D01*
X195624744Y-63608702D01*
X195518421Y-63587553D01*
X195217958Y-63463097D01*
X194947549Y-63282415D01*
X194717585Y-63052451D01*
X194536903Y-62782042D01*
X194412447Y-62481579D01*
X194349000Y-62162609D01*
X194349000Y-61837391D01*
X194412447Y-61518421D01*
X194536903Y-61217958D01*
X194717585Y-60947549D01*
X194947549Y-60717585D01*
X195217958Y-60536903D01*
X195518421Y-60412447D01*
X195624744Y-60391298D01*
X195837389Y-60349000D01*
X196162611Y-60349000D01*
X196375256Y-60391298D01*
X196375256Y-60391298D01*
G37*
M02*
