M48
INCH,TZ
T1C0.0118
T2C0.0157
T3C0.0315
T4C0.0394
T5C0.0400
T6C0.0512
T7C0.0591
%
G90
G05
T1
X60675Y-31775
X60675Y-32376
X63042Y-38292
X63325Y-40825
X63875Y-30150
X64000Y-30825
X64159Y-40000
X64275Y-30175
X64325Y-32400
X64475Y-40450
X64555Y-30760
X64775Y-32025
X65147Y-36100
X65200Y-38900
X65333Y-33575
X65375Y-48850
X65500Y-37500
X65700Y-37250
X66025Y-33775
X66300Y-42825
X66375Y-44675
X67460Y-31460
X67460Y-32280
X67475Y-42500
X67904Y-34746
X68050Y-38550
X68200Y-34500
X68500Y-41600
X68900Y-34000
X68925Y-40475
X68950Y-37900
X69000Y-38750
X69100Y-33750
X69300Y-40150
X69444Y-39194
X69500Y-42600
X70100Y-39050
X70100Y-42100
X70200Y-38400
X70200Y-35300
X70200Y-37500
X71100Y-37400
T2
X59450Y-37250
X59900Y-36850
X59950Y-37750
X60300Y-36450
X60400Y-37350
X60400Y-38250
X60750Y-36050
X60850Y-36950
X60850Y-37800
X61250Y-36550
X61300Y-37400
X61369Y-31469
X61750Y-37000
X62535Y-29615
X62938Y-32338
X63547Y-32500
X63950Y-31475
X66000Y-36546
T3
X55075Y-41741
X55075Y-42741
X55075Y-43741
X55075Y-44741
X55075Y-45741
X55075Y-46741
X55075Y-47741
X55075Y-48741
X60075Y-41741
X60075Y-42741
X60075Y-43741
X60075Y-44741
X60075Y-45741
X60075Y-46741
X60075Y-47741
X60075Y-48741
X70575Y-27541
X70575Y-28541
X70575Y-29541
X70575Y-30541
X70575Y-31541
X70575Y-32541
X70575Y-33541
X70575Y-34541
X75575Y-27541
X75575Y-28541
X75575Y-29541
X75575Y-30541
X75575Y-31541
X75575Y-32541
X75575Y-33541
X75575Y-34541
X54875Y-27541
X54875Y-28541
X54875Y-29541
X54875Y-30541
X54875Y-31541
X54875Y-32541
X54875Y-33541
X54875Y-34541
X59875Y-27541
X59875Y-28541
X59875Y-29541
X59875Y-30541
X59875Y-31541
X59875Y-32541
X59875Y-33541
X59875Y-34541
X70775Y-41741
X70775Y-42741
X70775Y-43741
X70775Y-44741
X70775Y-45741
X70775Y-46741
X70775Y-47741
X70775Y-48741
X75775Y-41741
X75775Y-42741
X75775Y-43741
X75775Y-44741
X75775Y-45741
X75775Y-46741
X75775Y-47741
X75775Y-48741
T4
X58991Y-36100
X61116Y-39100
X62550Y-41625
X64800Y-37825
X61825Y-34991
X52400Y-29541
X52400Y-30541
X52400Y-31541
X52400Y-32541
X52450Y-43741
X52450Y-44741
X52450Y-45741
X52450Y-46741
X61825Y-29091
X78250Y-29541
X78250Y-30541
X78250Y-31541
X78250Y-32541
X62850Y-27700
X63850Y-27700
X64850Y-27700
X65850Y-27700
X66850Y-27700
X67850Y-27700
X56950Y-52050
X78350Y-43741
X78350Y-44741
X78350Y-45741
X78350Y-46741
X63025Y-34491
X61925Y-42591
T5
X64375Y-46241
X64375Y-47241
X65375Y-46241
X65375Y-47241
X66375Y-46241
X66375Y-47241
T6
X64375Y-51841
X66375Y-51841
T7
X58425Y-32500
X58638Y-46762
X72049Y-29499
X72162Y-43638
T0
M30
